<svg width="1921" height="972" viewBox="0 0 1921 972" fill="none" xmlns="http://www.w3.org/2000/svg">
<path d="M0.304932 899.801C58.9436 919.326 131.269 932.478 216.678 938.986C237.543 940.596 259.818 941.67 281.824 938.852C292.76 937.443 302.354 935.564 311.211 932.947C343.75 923.487 373.204 903.961 404.402 883.295C415.137 876.183 426.274 868.802 437.747 861.69C520.673 810.494 589.778 794.86 655.26 812.574C684.378 820.491 712.221 835.186 742.815 858.804C754.422 867.661 766.029 877.122 777.234 886.247C793.805 899.801 810.981 913.757 828.157 925.835C885.521 966.027 969.051 995.281 1015.75 945.226C1031.65 928.25 1036.88 906.31 1042.45 883.161C1046.47 866.453 1050.57 849.209 1059.09 833.576C1064.39 823.913 1070.76 815.325 1078.61 807.34C1097 788.62 1119.14 777.348 1142.62 765.404C1167.51 752.79 1193.21 739.706 1214.81 716.825C1239.37 690.926 1253.12 654.961 1266.4 620.138C1274.66 598.532 1283.18 576.188 1294.25 556.26C1316.92 515.465 1352.15 480.775 1402.06 450.179C1414.61 442.463 1427.49 435.283 1440.31 428.708C1484.32 406.431 1530.01 390.328 1582.88 371.742C1594.15 367.783 1605.82 363.69 1617.77 359.396C1624.41 357.047 1631.12 354.565 1637.89 352.082C1701.03 329.067 1782.28 296.391 1850.84 247.544C1897.41 214.33 1929.48 165.886 1946.05 103.485C1950.01 88.6561 1951.62 73.6262 1953.16 59.066C1954.64 44.9083 1956.25 30.3481 1959.94 16.0563C1962.69 5.52196 1966.58 -4.14012 1971.34 -12.7286H0.304932V899.801Z" fill="#0F1B37"/>
</svg>
