<svg width="114" height="30" viewBox="0 0 114 30" fill="none" xmlns="http://www.w3.org/2000/svg">
<path d="M13.8994 29.0253C9.56363 29.0253 6.20008 27.672 3.80882 24.9654C1.40441 22.2456 0.202204 18.7836 0.202204 14.5791C0.202204 10.309 1.39127 6.82721 3.7694 4.13375C6.17381 1.41401 9.55049 0.0541374 13.8994 0.0541374C17.4469 0.0541374 20.3638 1.11838 22.6499 3.24688C24.9623 5.40165 26.2171 8.00971 26.4142 11.0711H19.9499C19.8316 9.61264 19.2535 8.36445 18.2156 7.32649C17.1907 6.30166 15.752 5.78924 13.8994 5.78924C11.5607 5.78924 9.76728 6.53816 8.51909 8.03598C7.28404 9.52067 6.66651 11.7017 6.66651 14.5791C6.66651 17.4303 7.28404 19.5982 8.51909 21.0829C9.76728 22.5938 11.5607 23.3493 13.8994 23.3493C15.6732 23.3493 17.0725 22.8763 18.0973 21.9303C19.0827 21.0237 19.7134 19.815 19.9893 18.304H26.4142C26.1383 21.3391 24.8441 23.8814 22.5317 25.9311C20.2061 27.9939 17.3287 29.0253 13.8994 29.0253ZM32.4347 28.6705V0.408886H52.6159V6.06516H38.7807V11.2681H51.3743V16.9244H38.7807V23.0537H52.6159V28.6705H32.4347ZM76.0782 17.9295L82.8973 28.2764V28.6705H75.4673L69.3774 18.6982H65.4161V28.6705H59.07V0.408886H71.9986C74.876 0.408886 77.2147 1.28919 79.0148 3.04979C80.7622 4.79726 81.636 6.91918 81.636 9.41556C81.636 11.3995 81.1498 13.147 80.1775 14.658C79.179 16.1558 77.8126 17.2463 76.0782 17.9295ZM65.4161 6.06516V13.0419H71.6636C72.8329 13.0419 73.7067 12.6937 74.2848 11.9973C74.8497 11.3141 75.1322 10.4667 75.1322 9.45498C75.1322 8.52212 74.8497 7.71408 74.2848 7.03086C73.6804 6.38706 72.8067 6.06516 71.6636 6.06516H65.4161ZM100.23 29.0253C95.8682 29.0253 92.4915 27.672 90.1003 24.9654C87.6959 22.2456 86.4937 18.7704 86.4937 14.5397C86.4937 10.2959 87.6959 6.81407 90.1003 4.09433C92.4784 1.40087 95.8551 0.0541374 100.23 0.0541374C104.632 0.0541374 108.022 1.40087 110.4 4.09433C112.765 6.77465 113.947 10.2564 113.947 14.5397C113.947 18.8098 112.765 22.2851 110.4 24.9654C108.009 27.672 104.619 29.0253 100.23 29.0253ZM100.23 23.3099C102.582 23.3099 104.382 22.5544 105.63 21.0434C106.865 19.5587 107.483 17.3908 107.483 14.5397C107.483 11.6623 106.865 9.48126 105.63 7.99657C104.408 6.52502 102.608 5.78924 100.23 5.78924C97.8391 5.78924 96.0325 6.52502 94.8105 7.99657C93.5755 9.48126 92.958 11.6623 92.958 14.5397C92.958 17.3514 93.5886 19.5193 94.85 21.0434C96.0982 22.5544 97.8916 23.3099 100.23 23.3099Z" fill="#FDFDFD"/>
</svg>
