<svg width="35" height="31" viewBox="0 0 35 31" fill="none" xmlns="http://www.w3.org/2000/svg">
<path d="M31.542 1.46509L19.5703 10.3233L21.7966 5.10287L31.542 1.46509Z" fill="#E17726" stroke="#E17726" stroke-width="0.201816" stroke-linecap="round" stroke-linejoin="round"/>
<path d="M3.92773 1.46509L15.7929 10.406L13.6733 5.10286L3.92773 1.46509Z" fill="#E27625" stroke="#E27625" stroke-width="0.201816" stroke-linecap="round" stroke-linejoin="round"/>
<path d="M27.2315 22.0044L24.0461 26.8705L30.8668 28.7485L32.8207 22.1108L27.2315 22.0044Z" fill="#E27625" stroke="#E27625" stroke-width="0.201816" stroke-linecap="round" stroke-linejoin="round"/>
<path d="M2.66064 22.1108L4.60263 28.7485L11.4115 26.8705L8.23795 22.0044L2.66064 22.1108Z" fill="#E27625" stroke="#E27625" stroke-width="0.201816" stroke-linecap="round" stroke-linejoin="round"/>
<path d="M11.0443 13.7839L9.14966 16.6422L15.8993 16.9493L15.6743 9.68555L11.0443 13.7839Z" fill="#E27625" stroke="#E27625" stroke-width="0.201816" stroke-linecap="round" stroke-linejoin="round"/>
<path d="M24.425 13.7841L19.724 9.60303L19.5701 16.9494L26.3196 16.6424L24.425 13.7841Z" fill="#E27625" stroke="#E27625" stroke-width="0.201816" stroke-linecap="round" stroke-linejoin="round"/>
<path d="M11.4115 26.8705L15.4967 24.8981L11.9799 22.158L11.4115 26.8705Z" fill="#E27625" stroke="#E27625" stroke-width="0.201816" stroke-linecap="round" stroke-linejoin="round"/>
<path d="M19.9729 24.8981L24.0463 26.8705L23.4897 22.158L19.9729 24.8981Z" fill="#E27625" stroke="#E27625" stroke-width="0.201816" stroke-linecap="round" stroke-linejoin="round"/>
<path d="M24.0463 26.8706L19.9729 24.8982L20.3044 27.5438L20.2689 28.6659L24.0463 26.8706Z" fill="#D5BFB2" stroke="#D5BFB2" stroke-width="0.201816" stroke-linecap="round" stroke-linejoin="round"/>
<path d="M11.4115 26.8706L15.2008 28.6659L15.1771 27.5438L15.4967 24.8982L11.4115 26.8706Z" fill="#D5BFB2" stroke="#D5BFB2" stroke-width="0.201816" stroke-linecap="round" stroke-linejoin="round"/>
<path d="M15.2717 20.4103L11.885 19.4183L14.277 18.3198L15.2717 20.4103Z" fill="#233447" stroke="#233447" stroke-width="0.201816" stroke-linecap="round" stroke-linejoin="round"/>
<path d="M20.1978 20.4103L21.1925 18.3198L23.5963 19.4183L20.1978 20.4103Z" fill="#233447" stroke="#233447" stroke-width="0.201816" stroke-linecap="round" stroke-linejoin="round"/>
<path d="M11.4114 26.8705L12.0035 22.0044L8.23792 22.1108L11.4114 26.8705Z" fill="#CC6228" stroke="#CC6228" stroke-width="0.201816" stroke-linecap="round" stroke-linejoin="round"/>
<path d="M23.4658 22.0044L24.0461 26.8705L27.2314 22.1108L23.4658 22.0044Z" fill="#CC6228" stroke="#CC6228" stroke-width="0.201816" stroke-linecap="round" stroke-linejoin="round"/>
<path d="M26.3196 16.6421L19.5701 16.9492L20.1976 20.4099L21.1924 18.3192L23.5962 19.4177L26.3196 16.6421Z" fill="#CC6228" stroke="#CC6228" stroke-width="0.201816" stroke-linecap="round" stroke-linejoin="round"/>
<path d="M11.885 19.4177L14.277 18.3192L15.2717 20.4099L15.8993 16.9492L9.14966 16.6421L11.885 19.4177Z" fill="#CC6228" stroke="#CC6228" stroke-width="0.201816" stroke-linecap="round" stroke-linejoin="round"/>
<path d="M9.1499 16.6421L11.98 22.1578L11.8852 19.4177L9.1499 16.6421Z" fill="#E27525" stroke="#E27525" stroke-width="0.201816" stroke-linecap="round" stroke-linejoin="round"/>
<path d="M23.5964 19.4177L23.4899 22.1578L26.32 16.6421L23.5964 19.4177Z" fill="#E27525" stroke="#E27525" stroke-width="0.201816" stroke-linecap="round" stroke-linejoin="round"/>
<path d="M15.8996 16.9492L15.272 20.4099L16.0653 24.4964L16.243 19.1107L15.8996 16.9492Z" fill="#E27525" stroke="#E27525" stroke-width="0.201816" stroke-linecap="round" stroke-linejoin="round"/>
<path d="M19.5701 16.9492L19.2385 19.0989L19.4043 24.4964L20.1977 20.4099L19.5701 16.9492Z" fill="#E27525" stroke="#E27525" stroke-width="0.201816" stroke-linecap="round" stroke-linejoin="round"/>
<path d="M20.1978 20.4106L19.4044 24.4971L19.9728 24.8988L23.4898 22.1586L23.5963 19.4185L20.1978 20.4106Z" fill="#F5841F" stroke="#F5841F" stroke-width="0.201816" stroke-linecap="round" stroke-linejoin="round"/>
<path d="M11.885 19.4185L11.9798 22.1586L15.4966 24.8988L16.0651 24.4971L15.2717 20.4106L11.885 19.4185Z" fill="#F5841F" stroke="#F5841F" stroke-width="0.201816" stroke-linecap="round" stroke-linejoin="round"/>
<path d="M20.2689 28.6659L20.3044 27.5438L19.9965 27.284H15.4731L15.1771 27.5438L15.2008 28.6659L11.4115 26.8706L12.7377 27.9572L15.4257 29.8116H20.032L22.7319 27.9572L24.0462 26.8706L20.2689 28.6659Z" fill="#C0AC9D" stroke="#C0AC9D" stroke-width="0.201816" stroke-linecap="round" stroke-linejoin="round"/>
<path d="M19.9728 24.8981L19.4043 24.4966H16.0651L15.4968 24.8981L15.177 27.5438L15.4731 27.2839H19.9965L20.3044 27.5438L19.9728 24.8981Z" fill="#161616" stroke="#161616" stroke-width="0.201816" stroke-linecap="round" stroke-linejoin="round"/>
<path d="M32.0511 10.902L33.0576 6.01231L31.5419 1.46509L19.9729 10.0281L24.4252 13.7839L30.713 15.6146L32.0985 13.9966L31.4946 13.5595L32.4537 12.6855L31.7196 12.1186L32.6787 11.3863L32.0511 10.902Z" fill="#763E1A" stroke="#763E1A" stroke-width="0.201816" stroke-linecap="round" stroke-linejoin="round"/>
<path d="M2.41199 6.01231L3.43035 10.902L2.77908 11.3863L3.75007 12.1186L3.0159 12.6855L3.97505 13.5595L3.37114 13.9966L4.75659 15.6146L11.0444 13.7839L15.4967 10.0281L3.92769 1.46509L2.41199 6.01231Z" fill="#763E1A" stroke="#763E1A" stroke-width="0.201816" stroke-linecap="round" stroke-linejoin="round"/>
<path d="M30.7131 15.6151L24.4253 13.7844L26.32 16.6427L23.4899 22.1584L27.2318 22.1111H32.8209L30.7131 15.6151Z" fill="#F5841F" stroke="#F5841F" stroke-width="0.201816" stroke-linecap="round" stroke-linejoin="round"/>
<path d="M11.0443 13.7844L4.75657 15.6151L2.66064 22.1111H8.23795L11.9798 22.1584L9.14974 16.6427L11.0443 13.7844Z" fill="#F5841F" stroke="#F5841F" stroke-width="0.201816" stroke-linecap="round" stroke-linejoin="round"/>
<path d="M19.5701 16.9497L19.9727 10.0284L21.7963 5.10327H13.6731L15.4966 10.0284L15.8992 16.9497L16.0532 19.1229L16.0651 24.4969H19.4043L19.4162 19.1229L19.5701 16.9497Z" fill="#F5841F" stroke="#F5841F" stroke-width="0.201816" stroke-linecap="round" stroke-linejoin="round"/>
</svg>
