<svg width="443" height="327" viewBox="0 0 443 327" fill="none" xmlns="http://www.w3.org/2000/svg">
<g clip-path="url(#clip0)">
<path fill-rule="evenodd" clip-rule="evenodd" d="M30.793 52.9694L34.2018 72.1114L414.944 68.7026L418.615 48.5117L30.793 52.9694Z" fill="url(#paint0_radial)"/>
<path fill-rule="evenodd" clip-rule="evenodd" d="M50.1961 304.437L33.4141 62.4083L281.998 59.7861L263.38 307.059L50.1961 304.437Z" fill="url(#paint1_linear)"/>
<path fill-rule="evenodd" clip-rule="evenodd" d="M281.996 59.7861H404.453L379.28 307.059H263.379L281.996 59.7861Z" fill="#68134C"/>
<path fill-rule="evenodd" clip-rule="evenodd" d="M38.9195 303.651L27.9062 63.1963L65.6658 62.1475L68.0258 304.438L38.9195 303.651Z" fill="#590A43"/>
<path fill-rule="evenodd" clip-rule="evenodd" d="M27.9062 63.1958L57.0126 62.4092L57.7992 305.486H37.6084L27.9062 63.1958Z" fill="url(#paint2_linear)"/>
<path fill-rule="evenodd" clip-rule="evenodd" d="M248.697 59.7861L243.19 306.797L263.381 307.059L281.999 59.7861H248.697Z" fill="url(#paint3_linear)"/>
<path fill-rule="evenodd" clip-rule="evenodd" d="M389.77 59.7861L368.006 307.059H374.824L398.161 59.7861H389.77Z" fill="url(#paint4_linear)"/>
<path fill-rule="evenodd" clip-rule="evenodd" d="M398.16 59.7861H420.448L392.129 307.059H374.822L398.16 59.7861Z" fill="#68134C"/>
<path d="M247.122 140.025H66.4531V141.336H247.122V140.025Z" fill="#811B3D"/>
<path d="M67.9914 176.032L67.9551 177.343L246.193 182.286L246.229 180.975L67.9914 176.032Z" fill="#811B3D"/>
<path d="M244.953 230.86L67.5195 236.396L67.5604 237.707L244.994 232.171L244.953 230.86Z" fill="#811B3D"/>
<path d="M243.189 279.789H67.7646V281.1H243.189V279.789Z" fill="#811B3D"/>
<path d="M169.108 60.8172L162.69 140.538L163.997 140.643L170.415 60.9224L169.108 60.8172Z" fill="#811B3D"/>
<path d="M101.329 235.998H100.018V280.313H101.329V235.998Z" fill="#811B3D"/>
<path opacity="0.2" fill-rule="evenodd" clip-rule="evenodd" d="M247.122 140.551H57.7998L62.782 175.95L246.073 181.457L247.122 140.551Z" fill="url(#paint5_linear)"/>
<path opacity="0.2" fill-rule="evenodd" clip-rule="evenodd" d="M82.1865 176.736V235.998L138.826 234.425L133.057 179.096L82.1865 176.736Z" fill="#D9772F"/>
<path opacity="0.2" fill-rule="evenodd" clip-rule="evenodd" d="M152.725 234.163V179.359L163.213 179.622V233.901L152.725 234.163Z" fill="#D9772F"/>
<path opacity="0.2" fill-rule="evenodd" clip-rule="evenodd" d="M243.189 306.797V280.312H61.4707L68.0262 304.437L243.189 306.797Z" fill="url(#paint6_linear)"/>
<path opacity="0.5" fill-rule="evenodd" clip-rule="evenodd" d="M65.667 62.1475L85.3334 62.4097L88.7423 305.487L68.027 304.438L65.667 62.1475Z" fill="#590A43"/>
<path fill-rule="evenodd" clip-rule="evenodd" d="M268.102 59.7861L281.475 68.7016L291.701 59.7861H268.102Z" fill="#D37B4F"/>
<path fill-rule="evenodd" clip-rule="evenodd" d="M48.0977 62.6719L57.0131 68.7029L63.3064 62.1475L48.0977 62.6719Z" fill="#D37B4F"/>
<path fill-rule="evenodd" clip-rule="evenodd" d="M57.2767 123.769L50.459 174.377L55.4411 231.541L57.8011 305.486L57.2767 123.769Z" fill="#8E3636"/>
<path fill-rule="evenodd" clip-rule="evenodd" d="M256.562 306.797L275.967 146.844L266.265 307.06L256.562 306.797Z" fill="#8E3636"/>
<path opacity="0.2" fill-rule="evenodd" clip-rule="evenodd" d="M247.91 94.9248L279.114 100.694L275.967 140.551L247.123 146.844L247.91 94.9248Z" fill="#FFA12F"/>
<path opacity="0.2" fill-rule="evenodd" clip-rule="evenodd" d="M34.2012 216.595L54.1298 235.999L55.7031 286.869L36.5611 280.314L34.2012 216.595Z" fill="#FFA12F"/>
<path fill-rule="evenodd" clip-rule="evenodd" d="M27.9089 54.0181L22.9268 0.000976562H291.701L285.146 54.0181H27.9089Z" fill="url(#paint7_linear)"/>
<path fill-rule="evenodd" clip-rule="evenodd" d="M291.701 0.000976562L423.859 7.86755L420.451 52.1826L285.146 54.0181L291.701 0.000976562Z" fill="#68134C"/>
<path opacity="0.2" fill-rule="evenodd" clip-rule="evenodd" d="M233.748 0.787634L225.357 54.0181H260.495L275.966 0.000976562L233.748 0.787634Z" fill="url(#paint8_linear)"/>
<path opacity="0.2" fill-rule="evenodd" clip-rule="evenodd" d="M103.165 54.0181L97.1338 0.000976562H152.724L143.284 54.0181H103.165Z" fill="#FFA12F"/>
<path opacity="0.2" fill-rule="evenodd" clip-rule="evenodd" d="M152.725 54.0181L159.542 0.000976562H175.538L172.653 52.1826L152.725 54.0181Z" fill="#FFA12F"/>
<path fill-rule="evenodd" clip-rule="evenodd" d="M243.19 275.855L183.928 278.74L133.058 279.264L94.5117 280.575L169.769 282.935L243.714 293.686L243.19 275.855Z" fill="#00FF91"/>
<path fill-rule="evenodd" clip-rule="evenodd" d="M150.889 279.002L174.751 281.624L243.714 288.18V293.686L169.769 282.935L94.5117 280.575L133.058 279.264L150.889 279.002Z" fill="#009F91"/>
<path fill-rule="evenodd" clip-rule="evenodd" d="M92.6758 176.736L102.902 179.359L113.129 182.767L148.528 179.883L155.084 179.096L92.6758 176.736Z" fill="#00FF91"/>
<path fill-rule="evenodd" clip-rule="evenodd" d="M104.213 176.999L121.258 182.243L113.129 182.767L102.902 179.359L92.6758 176.736L104.213 176.999Z" fill="#009F91"/>
<path fill-rule="evenodd" clip-rule="evenodd" d="M128.86 116.163L123.878 120.883L116.536 110.919L117.585 109.607L128.86 116.163Z" fill="#4F3D70"/>
<path fill-rule="evenodd" clip-rule="evenodd" d="M114.439 31.7291L183.927 29.3691L197.563 39.8579L193.63 115.115L178.945 128.226H117.586L108.933 116.426L105.786 42.4801L114.439 31.7291Z" fill="url(#paint9_linear)"/>
<path fill-rule="evenodd" clip-rule="evenodd" d="M117.587 34.8766L108.934 42.481L110.245 114.854L123.618 122.72H173.964L182.617 109.347L184.715 39.5966L178.946 30.9434L117.587 34.8766Z" fill="url(#paint10_linear)"/>
<path fill-rule="evenodd" clip-rule="evenodd" d="M114.438 31.7291L117.585 34.8757L178.944 30.9425L183.927 29.3691L114.438 31.7291Z" fill="#9E98BB"/>
<path fill-rule="evenodd" clip-rule="evenodd" d="M123.617 122.72L117.586 128.226H178.945L173.963 122.72H123.617Z" fill="#3A2F66"/>
<path fill-rule="evenodd" clip-rule="evenodd" d="M182.616 109.347L193.629 115.116L178.945 128.226L173.963 122.72L182.616 109.347Z" fill="#4F3D70"/>
<path fill-rule="evenodd" clip-rule="evenodd" d="M184.715 39.5957L197.564 39.8579L183.928 29.3691L178.946 30.9425L184.715 39.5957Z" fill="#8079A5"/>
<path fill-rule="evenodd" clip-rule="evenodd" d="M149.053 82.3377L154.56 96.4975H140.4L142.498 82.3377C142.498 82.3377 136.991 76.5689 136.991 70.5378C136.991 64.5068 140.662 60.8357 148.791 61.3602C149.053 61.3602 149.578 61.3602 149.84 61.6224C157.182 63.1957 155.609 77.0933 149.053 82.3377Z" fill="#42386D"/>
<path fill-rule="evenodd" clip-rule="evenodd" d="M149.051 82.3364L154.558 96.4962H146.167L148.264 82.3364C148.264 82.3364 142.758 76.5676 142.758 70.5365C142.758 65.8166 145.118 62.67 149.838 61.6211C157.18 63.1944 155.607 77.092 149.051 82.3364Z" fill="#2B2039"/>
<path opacity="0.8" fill-rule="evenodd" clip-rule="evenodd" d="M183.927 29.3691L210.936 39.8579L204.118 114.853L183.665 131.635L120.733 130.324L117.586 128.226L123.617 122.719H173.963L182.616 109.346L184.714 39.5957L178.945 30.9425L183.927 29.3691Z" fill="url(#paint11_linear)"/>
<path fill-rule="evenodd" clip-rule="evenodd" d="M178.946 30.9434L183.928 43.2677L188.124 39.5966L178.946 30.9434Z" fill="#BEBAD3"/>
<path fill-rule="evenodd" clip-rule="evenodd" d="M196.775 54.0186L196.513 60.574L248.694 59.7874L250.792 54.0186H196.775Z" fill="#00FF91"/>
<path fill-rule="evenodd" clip-rule="evenodd" d="M266.266 0.000976562L290.914 6.81868L313.203 1.31207L291.701 0.000976562H266.266Z" fill="#D37B4F"/>
<path fill-rule="evenodd" clip-rule="evenodd" d="M30.793 0.000976562L48.0994 3.40983L137.254 1.57429L210.938 0.000976562H30.793Z" fill="#D37B4F"/>
<path fill-rule="evenodd" clip-rule="evenodd" d="M37.6091 305.486C37.6091 305.486 11.6494 304.699 0.898438 326.464H443C443 326.464 428.578 304.962 392.129 307.059H266.264L37.6091 305.486Z" fill="url(#paint12_linear)"/>
<path fill-rule="evenodd" clip-rule="evenodd" d="M266.266 307.06C266.266 307.06 283.048 311.518 285.145 326.464H443.001C443.001 326.464 430.677 306.798 392.131 307.06H266.266Z" fill="#4F3D70"/>
</g>
<defs>
<radialGradient id="paint0_radial" cx="0" cy="0" r="1" gradientUnits="userSpaceOnUse" gradientTransform="translate(242.207 55.1582) scale(144.838 116.566)">
<stop stop-color="#00FF91"/>
<stop offset="1" stop-color="#00C7EF"/>
</radialGradient>
<linearGradient id="paint1_linear" x1="157.755" y1="307.14" x2="157.755" y2="59.7573" gradientUnits="userSpaceOnUse">
<stop stop-color="#8C3832"/>
<stop offset="1" stop-color="#AC4A31"/>
</linearGradient>
<linearGradient id="paint2_linear" x1="42.8908" y1="305.498" x2="42.8908" y2="62.3253" gradientUnits="userSpaceOnUse">
<stop stop-color="#9C3832"/>
<stop offset="1" stop-color="#C76131"/>
</linearGradient>
<linearGradient id="paint3_linear" x1="262.629" y1="307.14" x2="262.629" y2="59.7573" gradientUnits="userSpaceOnUse">
<stop stop-color="#9C3832"/>
<stop offset="1" stop-color="#C76131"/>
</linearGradient>
<linearGradient id="paint4_linear" x1="383.016" y1="307.14" x2="383.016" y2="59.7573" gradientUnits="userSpaceOnUse">
<stop stop-color="#8C3832"/>
<stop offset="1" stop-color="#AC4A31"/>
</linearGradient>
<linearGradient id="paint5_linear" x1="57.75" y1="161.117" x2="247.021" y2="161.117" gradientUnits="userSpaceOnUse">
<stop stop-color="#C77CBD"/>
<stop offset="1" stop-color="#974577"/>
</linearGradient>
<linearGradient id="paint6_linear" x1="61.3931" y1="293.594" x2="243.212" y2="293.594" gradientUnits="userSpaceOnUse">
<stop stop-color="#C77CBD"/>
<stop offset="1" stop-color="#974577"/>
</linearGradient>
<linearGradient id="paint7_linear" x1="22.9734" y1="27.0329" x2="291.734" y2="27.0329" gradientUnits="userSpaceOnUse">
<stop stop-color="#8C3832"/>
<stop offset="1" stop-color="#AC4A31"/>
</linearGradient>
<linearGradient id="paint8_linear" x1="225.487" y1="27.0329" x2="275.998" y2="27.0329" gradientUnits="userSpaceOnUse">
<stop stop-color="#C77CBD"/>
<stop offset="1" stop-color="#974577"/>
</linearGradient>
<linearGradient id="paint9_linear" x1="151.693" y1="128.29" x2="151.693" y2="29.367" gradientUnits="userSpaceOnUse">
<stop stop-color="#634175"/>
<stop offset="1" stop-color="#686370"/>
</linearGradient>
<linearGradient id="paint10_linear" x1="146.792" y1="122.697" x2="146.792" y2="30.9365" gradientUnits="userSpaceOnUse">
<stop stop-color="#7A5E89"/>
<stop offset="1" stop-color="#787291"/>
</linearGradient>
<linearGradient id="paint11_linear" x1="117.494" y1="80.5412" x2="210.808" y2="80.5412" gradientUnits="userSpaceOnUse">
<stop stop-color="#C77CBD"/>
<stop offset="1" stop-color="#974577"/>
</linearGradient>
<linearGradient id="paint12_linear" x1="221.991" y1="326.563" x2="221.991" y2="305.493" gradientUnits="userSpaceOnUse">
<stop stop-color="#7A5E89"/>
<stop offset="1" stop-color="#787291"/>
</linearGradient>
<clipPath id="clip0">
<rect width="442.102" height="326.463" fill="white" transform="translate(0.898438)"/>
</clipPath>
</defs>
</svg>
