<svg width="185" height="183" viewBox="0 0 185 183" fill="none" xmlns="http://www.w3.org/2000/svg">
<g clip-path="url(#clip0)">
<path d="M122.649 23.6879C125.511 25.5215 125.842 28.9596 126.722 31.7101C130.135 41.7952 132.336 52.1094 132.006 62.8821C132.006 63.6844 132.006 64.4866 131.125 64.8304C130.795 64.4866 130.575 64.1428 130.465 63.6844C130.245 60.4755 130.685 57.2666 130.245 54.1723C130.245 54.1723 130.245 54.4015 130.245 54.7453C130.795 63.9136 129.805 64.7158 119.347 64.2574C114.614 64.0282 109.77 63.799 105.037 64.372C102.615 64.7158 100.193 63.9136 97.8815 64.0282C90.8364 64.372 83.9014 63.1113 76.9664 64.0282C74.3245 64.372 71.9028 63.6844 69.3709 63.799C60.6747 63.9136 52.0885 63.4552 43.3922 64.4866C41.8511 64.7158 40.31 64.6012 38.989 63.6844C37.0076 60.9339 39.5394 59.7878 40.8604 58.5272C44.7131 55.0891 48.5659 51.651 52.4187 48.0983C62.4359 38.8155 72.4532 29.5326 82.2502 20.1352C83.9014 18.6453 85.4425 17.1555 87.3139 15.7802C91.3868 12.5714 94.9094 8.78945 98.7621 5.23676C102.505 1.91327 104.156 1.68406 107.899 5.23676C113.513 10.3939 117.916 16.3533 121.439 23.2295C121.549 23.9171 121.769 25.4069 122.649 23.6879Z" fill="#8092A3"/>
<path d="M95.9001 166.598C95.68 168.775 95.9001 169.577 98.7622 169.921C106.798 170.838 115.054 170.494 122.87 173.359C123.97 173.818 125.622 173.818 125.622 175.651C125.622 177.37 123.97 177.714 122.87 177.944C117.476 179.09 112.192 180.35 106.798 180.809C91.7171 182.069 76.5261 182.986 61.3352 182.413C46.1442 181.84 30.8432 182.069 15.7623 178.631C13.6708 178.173 10.5885 178.287 10.3684 175.881C10.1482 173.016 13.4506 173.359 15.322 172.901C20.8259 171.411 26.5501 170.494 32.2742 170.724C35.4665 170.838 36.3471 169.463 36.127 166.598C38.5487 167.4 37.558 169.577 37.7782 171.182C38.1084 172.901 37.1177 175.308 39.6495 175.766C41.8511 176.11 44.493 176.912 45.814 173.703C46.6946 171.64 47.245 169.348 49.1163 168.088C49.5567 167.973 49.8869 167.973 50.3272 168.088C51.9784 168.775 53.8498 169.004 55.611 168.775C62.7662 167.629 69.8113 168.088 76.9665 168.202C78.1773 168.202 79.2781 168.431 79.6084 166.827C80.0487 166.369 80.5991 166.139 81.1495 166.139C83.0208 166.483 83.4611 168.088 84.1216 169.577C85.0023 171.182 84.8922 173.245 85.8829 174.849C86.9837 175.995 88.3046 176.11 89.7357 176.11C93.2582 176.11 94.2489 174.964 93.9187 171.297C93.8086 170.151 93.3683 169.004 93.4784 167.858C93.5884 167.515 93.6985 167.171 93.9187 166.827C94.1388 166.598 94.4691 166.369 94.9094 166.369C95.3497 166.025 95.68 166.254 95.9001 166.598Z" fill="#DDD8BF"/>
<path d="M38.4386 62.4238C41.851 64.2574 45.4836 62.9968 48.8961 62.8822C62.1056 62.7676 75.4252 62.8822 88.6348 63.1114C101.514 63.226 114.283 62.8822 127.163 62.7676C129.254 62.7676 129.915 61.8508 129.694 59.9025C129.364 56.8082 129.034 53.5993 129.144 50.3905C131.896 54.6308 131.015 59.4441 131.125 64.0282C127.052 65.7473 122.869 64.6013 118.686 64.9451C116.815 65.0597 114.834 64.8305 113.182 66.2057C112.302 66.5495 111.421 66.6641 110.541 66.3203C105.147 64.372 99.6427 65.4035 94.1387 65.7473C93.8085 65.9765 93.4783 66.2057 93.2581 66.5495C92.4875 67.6955 91.8271 69.6438 90.396 67.1225C89.4053 65.4035 87.9743 65.4035 86.4332 65.4035C81.4796 65.4035 76.526 65.4035 71.5725 65.4035C70.5817 65.4035 69.591 65.7473 68.6003 65.7473C68.16 65.7473 67.8298 65.6327 67.3894 65.5181C61.6653 65.1743 55.9412 65.4035 50.2171 65.4035C45.924 65.4035 45.8139 65.6327 46.2542 70.2168C46.3643 70.9044 46.3643 71.4774 46.2542 72.1651C46.034 72.8527 45.4836 73.3111 45.1534 73.8841C44.1627 81.5625 45.0433 89.3555 44.7131 97.1485C44.603 99.899 45.0433 102.649 44.2728 105.4C42.9518 107.463 41.0805 106.431 39.4293 105.973C37.5579 105.515 35.6866 105.171 34.0354 104.139C32.6043 101.274 35.5765 102.306 36.237 101.389C36.4571 101.16 36.6773 100.93 36.8974 100.587C37.2277 99.6698 37.2277 98.753 37.2277 97.8362C37.3378 90.387 36.8974 90.0431 29.9624 92.106C27.1004 93.3666 24.1282 94.8565 21.4863 96.8047C20.4956 97.4923 19.5049 98.4092 18.0739 98.18C17.1932 97.7215 16.9731 97.0339 17.5235 96.2317C19.615 94.6273 20.2754 92.5644 20.2754 89.8139C20.0553 79.1559 20.1654 68.6124 20.1654 57.9543C20.2754 36.1797 31.3935 19.5622 51.2078 12.4568C60.7847 9.01873 70.6918 8.90413 80.4889 11.7692C79.0579 13.3737 76.526 12.2276 75.095 14.0613C70.912 14.9781 66.729 14.6343 62.5459 14.5197C48.5659 13.6029 32.2741 24.4902 26.8802 40.6492C25.1189 46.0355 24.0181 51.6511 24.1282 57.4959C24.2383 66.6641 24.1282 75.8324 24.1282 85.0006C24.1282 89.0117 24.4585 89.2409 28.0911 88.2095C30.4028 87.5219 32.8245 87.1781 35.2463 86.9489C39.2091 86.6051 40.5301 87.8657 40.6401 92.106C40.6401 93.5958 40.6401 95.0857 40.6401 96.4609C40.42 88.7825 40.0897 80.9895 40.3099 73.3111C40.42 69.9876 39.7595 67.3517 36.6773 65.8619C36.347 64.1428 37.2277 63.226 38.4386 62.4238Z" fill="#32373A"/>
<path d="M38.4393 62.4236C38.3293 63.5697 37.8889 64.6011 36.7881 65.0595C35.6874 65.9763 34.6966 65.7471 33.9261 64.6011C33.2656 63.6843 33.816 62.7674 34.4765 62.0798C36.0176 60.1316 37.7789 58.4125 39.6502 56.8081C47.686 49.7027 55.6117 42.3681 63.4274 34.9189C68.9313 29.6471 74.8756 24.7192 80.1594 19.2183C81.0401 18.3014 82.0308 17.3846 82.8013 16.2386C81.2602 13.4881 77.9579 15.0925 76.0865 13.2589C75.8663 12.5713 75.5361 11.7691 76.747 11.7691C78.0679 11.7691 79.3889 11.7691 80.8199 11.6545C82.8013 11.3106 84.4525 12.4567 86.1037 13.1443C86.544 14.2903 89.9565 14.0611 87.6448 16.5824C72.3438 30.564 57.5932 45.2332 41.8518 58.7563C40.6409 59.9024 39.5401 61.2776 38.4393 62.4236Z" fill="#252E36"/>
<path d="M134.318 122.59C143.675 112.963 153.031 103.451 162.278 93.8247C164.7 91.3035 167.011 89.2406 170.644 88.8968C174.387 88.4384 178.129 87.2923 181.872 86.6047C184.624 86.1463 185.505 87.4069 184.294 90.0428C184.184 89.9282 183.964 89.9282 183.854 89.8136C182.863 88.7822 182.202 89.2406 181.542 90.272C180.881 91.1888 180.331 92.2203 178.9 91.7619C178.79 91.6473 178.68 91.5327 178.57 91.5327C174.387 91.7619 169.653 91.4181 166.461 94.5123C156.664 104.024 147.417 114.109 137.73 124.195C139.712 125.799 142.794 124.309 143.675 127.174C142.904 128.549 141.693 128.435 140.592 128.32C138.831 127.747 137.07 127.862 135.309 127.403C134.428 127.174 133.988 125.226 132.667 126.601C131.456 126.83 130.245 126.83 129.144 126.257C128.153 124.653 128.594 124.08 130.355 124.309C131.786 124.195 133.217 124.08 134.318 122.59Z" fill="#5D6064"/>
<path d="M180.882 105.629C175.819 112.391 169.434 117.892 163.71 124.08C159.197 129.008 154.353 133.707 149.73 138.635C148.959 139.437 147.858 140.125 147.969 141.5C148.629 146.543 145.657 144.938 143.235 144.136C142.905 143.677 142.354 143.563 142.244 142.99C142.244 141.5 143.015 140.469 144.336 140.239C145.877 139.896 146.207 138.75 146.317 137.489C156.335 127.404 166.022 116.975 176.039 106.775C178.901 103.91 178.791 100.128 179.781 96.5756C180.112 95.3149 179.892 93.9397 180.442 92.6791C181.213 91.6476 182.093 90.7308 183.524 91.7622C183.854 93.9397 182.644 96.0025 182.533 98.18C182.644 98.4092 182.644 98.6384 182.533 98.753C181.763 100.816 181.873 103.337 180.882 105.629Z" fill="#484F56"/>
<path d="M87.4251 16.4679C88.5259 14.5197 85.884 14.4051 85.884 13.0299C87.6453 13.1445 88.9663 12.4568 90.2872 11.1962C93.3694 8.21652 96.6718 5.46604 99.5339 2.37176C101.846 -0.0349057 103.607 0.0796974 106.029 2.14255C113.184 7.98731 119.018 14.9781 122.651 23.8025C122.651 24.9486 123.972 25.8654 122.981 27.3552C121.55 27.126 121.33 25.7508 120.779 24.6048C117.147 17.2702 112.303 10.8524 106.249 5.35144C103.827 3.17398 102.066 3.17398 99.754 5.46604C95.7912 9.13335 92.1586 13.3737 87.4251 16.4679Z" fill="#4C5259"/>
<path d="M110.431 149.751C109 148.147 107.569 146.428 106.028 144.823C104.817 143.562 104.156 142.531 104.377 140.354C104.597 137.603 102.725 135.769 99.8634 135.426C98.5424 135.999 100.524 138.635 97.992 138.52C97.0013 136.686 96.7811 134.853 98.4323 133.477C100.194 132.102 101.845 133.363 103.166 134.738C104.707 136.228 106.138 137.718 107.349 139.437C108.009 140.354 107.899 141.5 108.339 142.416C110.211 145.855 112.082 146.198 114.834 143.448C117.916 140.354 120.889 137.03 124.081 133.936C124.961 133.134 124.961 131.529 126.282 131.185C126.833 131.185 127.273 131.415 127.713 131.758C129.144 133.363 128.154 135.196 128.374 136.915C128.154 137.488 127.824 137.832 127.383 138.176C125.292 138.749 122.98 138.864 122.32 141.729C122.43 143.219 124.191 142.76 124.521 143.906C124.191 146.313 121.989 146.428 120.668 147.688C118.797 145.625 117.696 146.771 116.816 148.72C116.265 149.293 115.605 149.751 114.944 149.866C113.403 149.751 111.862 150.782 110.431 149.751Z" fill="#45464A"/>
<path d="M36.0177 165.795C22.3678 166.483 11.4699 161.67 4.53493 148.949C3.43414 147.001 2.33334 145.167 2.22326 142.76C2.00311 141.614 1.45271 140.354 2.44342 139.437C3.21398 138.749 3.76438 139.781 4.20469 140.239C4.97525 141.385 5.52565 142.76 6.07604 144.136C10.9195 155.71 19.5057 161.555 31.5044 162.128C32.4951 162.128 33.4858 162.243 34.4765 162.701C35.2471 163.618 36.458 164.191 36.0177 165.795Z" fill="#5F6265"/>
<path d="M37.5585 101.847C36.6778 103.337 34.5863 101.847 33.7057 103.452C33.0452 104.139 32.1646 104.369 31.2839 104.483C24.459 105.285 18.1845 107.463 12.9007 112.162C12.1301 112.849 11.2495 113.308 10.1487 113.193C8.82774 112.047 8.93782 110.328 8.27734 108.838C10.2588 103.681 13.2309 99.3261 17.6341 96.1172C17.8543 96.6902 18.0744 97.1486 18.4047 97.7216C18.9551 99.7845 17.1938 100.701 16.2031 101.962C15.3224 103.108 14.2216 104.025 13.2309 106.202C15.6527 104.712 17.524 103.681 19.5054 102.764C24.1288 100.587 28.9723 99.8991 33.9259 100.243C35.1367 100.357 36.5678 100.587 37.5585 101.847Z" fill="#495159"/>
<path d="M108.89 89.6993C108.56 91.0745 109.771 91.1891 110.432 91.4183C115.165 93.825 118.688 97.7215 121.99 101.847C122.54 102.764 122.65 103.681 121.66 104.368C119.898 104.598 119.348 102.993 118.357 102.076C116.046 99.7843 113.954 97.3777 111.092 95.6586C109.001 94.5126 107.569 94.398 105.918 96.5754C103.386 100.128 100.194 102.993 96.0112 104.139C94.8003 104.368 93.4793 105.056 92.2685 104.254C91.4979 102.879 92.5987 102.306 93.3693 101.733C98.8732 98.2945 102.946 93.2519 107.129 88.324C109.001 87.8656 109.111 87.8656 108.89 89.6993Z" fill="#4C4E4F"/>
<path d="M108.891 89.6991C108.891 88.3238 108.23 88.6676 107.46 89.0115C106.249 86.7194 108.12 85.0003 108.56 83.0521C109.661 79.2702 111.863 75.6029 108.23 71.9356C112.193 71.821 111.312 67.8099 112.853 65.8616C113.624 64.028 115.275 64.2572 116.706 64.2572C121.55 64.2572 126.283 64.2572 131.127 64.1426C131.127 64.3718 131.127 64.601 131.127 64.8302C130.686 64.9448 130.136 64.9448 129.696 65.0594C125.843 65.747 121.88 65.4032 117.917 65.2886C115.055 65.174 114.064 66.32 114.284 69.1851C114.505 71.5918 114.395 73.9984 113.734 76.2905C113.294 81.333 112.083 85.9172 108.891 89.6991Z" fill="#706963"/>
<path d="M142.574 143.219C142.794 143.563 143.124 143.792 143.344 144.136C142.133 144.136 140.812 144.021 139.602 144.021C137.62 144.021 135.749 143.907 136.85 147.23C137.4 148.949 136.409 150.898 135.088 152.158C132.887 154.336 131.236 157.315 128.153 158.576C126.502 159.149 124.741 158.805 123.09 158.805C121.659 157.315 122.539 156.284 123.53 155.138C127.053 155.825 132.116 152.502 132.997 148.949C133.217 148.032 132.556 147.574 132.226 146.886C132.006 145.167 133.657 144.709 134.208 143.563C137.4 140.812 139.822 140.698 142.574 143.219Z" fill="#665B54"/>
<path d="M121.879 163.275C119.458 165.681 116.375 166.483 113.513 164.994C110.431 163.389 108.009 160.753 108.67 156.513C108.78 155.596 108.78 154.679 108.89 153.762C109.661 152.96 110.101 151.585 111.532 151.814C112.303 152.158 112.523 152.96 112.413 153.762C111.862 155.482 110.871 157.315 112.082 159.034C113.183 160.639 114.504 162.129 116.706 162.243C119.458 162.472 119.348 159.836 120.448 158.461C122.76 158.805 121.989 160.753 122.21 162.243C122.21 162.472 122.21 162.931 121.879 163.275Z" fill="#434951"/>
<path d="M36.0175 165.796C35.7973 164.764 34.3663 164.535 34.5864 163.275C35.357 162.472 36.2376 162.472 37.2283 162.816C39.0997 165.452 38.9896 168.89 40.3106 171.755C41.9617 175.079 43.3928 172.901 44.9339 171.641C47.4657 170.265 46.1448 173.016 46.8052 173.589C46.0347 178.746 42.1819 176.339 39.54 176.569C36.8981 176.798 36.788 174.62 36.788 172.443C36.788 170.38 37.7787 168.317 36.2376 166.369C36.0175 166.14 36.0175 166.025 36.0175 165.796Z" fill="#4C4E52"/>
<path d="M98.2125 138.635C99.2032 137.832 98.4327 135.999 99.7536 135.426C100.194 137.718 99.5335 139.895 98.873 142.073C97.0016 148.147 98.4327 153.991 99.4234 159.836C99.9738 163.16 99.9738 166.025 95.9008 166.598C95.5706 166.483 95.2403 166.483 95.0202 166.369C94.8 164.306 98.3226 163.962 97.2218 161.441C97.1117 158.003 97.1117 154.679 95.9008 151.47C94.6899 147.918 97.0016 144.594 97.1117 141.156C97.2218 140.125 97.4419 139.208 98.2125 138.635Z" fill="#7E8FA0"/>
<path d="M3.76481 140.927C3.43457 140.583 2.7741 140.01 2.7741 140.125C1.89346 140.812 2.66402 141.958 2.2237 142.875C1.12291 140.469 0.24227 138.062 0.792667 135.311C2.66402 133.936 1.6733 132.676 0.792667 131.3C0.352349 128.664 1.23298 126.258 2.2237 123.851C3.21441 124.309 2.2237 126.831 4.42529 126.143C4.53537 131.186 4.86561 136.114 3.76481 140.927Z" fill="#6B6E72"/>
<path d="M113.623 76.4054C113.403 62.5384 112.082 65.2889 123.86 64.9451C125.732 64.9451 127.713 65.0597 129.584 65.1743C125.952 66.4349 122.099 65.7473 118.356 65.7473C115.494 65.7473 114.614 66.7787 114.724 69.6438C115.054 71.9359 115.274 74.3425 113.623 76.4054Z" fill="#8092A3"/>
<path d="M120.999 104.253C121.989 103.795 121.879 102.764 121.879 101.961C124.301 104.024 125.182 107.119 126.503 109.869C127.053 110.327 126.943 111.015 126.723 111.588C126.282 113.193 127.163 114.912 125.842 116.287C125.512 116.287 124.961 116.401 124.851 115.943C123.861 111.932 121.219 108.494 120.999 104.253Z" fill="#545C63"/>
<path d="M2.22266 123.278C2.88313 119.381 5.7452 116.516 6.73591 112.734C7.61655 113.536 7.61655 115.026 8.71734 115.599C7.83671 119.037 6.51575 122.246 4.31417 124.997C3.21337 125.111 3.32345 123.507 2.22266 123.278Z" fill="#6B6E72"/>
<path d="M8.38779 115.256C5.41565 116.058 7.94747 113.193 6.84668 112.735C7.287 111.359 7.83739 110.099 8.27771 108.723C10.039 109.526 10.1491 111.245 10.039 112.964C9.9289 114.11 9.48859 115.027 8.38779 115.256Z" fill="#2A2D2F"/>
<path d="M126.393 111.474C126.393 110.901 126.393 110.328 126.503 109.869C128.484 113.536 129.035 117.548 128.815 121.673H128.484H128.154C126.613 118.35 126.173 115.026 126.393 111.474Z" fill="#8091A2"/>
<path d="M111.092 152.043C110.321 152.616 109.551 153.189 108.89 153.648C109.441 152.387 109.881 151.012 110.431 149.751C112.082 149.98 113.293 148.376 114.945 148.949C115.385 152.387 112.523 151.241 111.092 152.043Z" fill="#BEC0BC"/>
<path d="M121.879 163.274C121.879 162.931 121.769 162.701 121.769 162.358C121.659 160.868 120.558 159.263 122.539 158.232C124.411 158.347 126.282 158.461 128.043 158.576C127.933 158.69 127.823 158.805 127.713 158.805C124.741 158.69 122.87 160.295 121.879 163.274Z" fill="#7B8C9D"/>
<path d="M0.681641 131.3C3.87394 131.644 1.56228 134.165 2.22275 135.541C2.44291 135.884 2.00259 136.228 1.56228 135.999C1.23204 135.77 1.01188 135.541 0.681641 135.311C0.681641 133.936 0.681641 132.676 0.681641 131.3Z" fill="#5F6265"/>
<path d="M180.882 105.629C180.772 103.108 181.102 100.701 182.533 98.6384C182.753 101.045 182.643 103.566 180.882 105.629Z" fill="#5D646B"/>
<path d="M2.2227 123.278C4.20413 122.361 3.65373 123.965 3.87389 124.997C4.09405 125.226 4.09405 125.455 3.76381 125.684C3.32349 126.258 2.99325 126.831 2.44286 127.633C2.33278 126.143 2.2227 124.997 2.2227 123.851C2.11262 123.736 2.11262 123.507 2.2227 123.278Z" fill="#5F6265"/>
<path d="M118.797 54.86C118.797 57.4959 116.816 60.1317 113.733 60.2463C110.431 60.3609 108.45 58.1835 108.119 53.5993C107.679 45.8063 106.028 38.4717 101.515 32.054C100.084 29.9911 97.9921 28.6159 96.2308 26.8968C93.2587 24.1463 92.7083 21.5105 94.5796 18.9892C96.5611 16.4679 99.7534 16.2387 102.836 18.5308C108.009 22.3127 111.752 27.2406 114.284 33.0854C117.146 39.5032 118.357 46.494 118.797 54.86Z" fill="#273138"/>
<path d="M98.5431 54.1722C98.7632 57.4957 97.112 59.444 94.1399 60.017C91.3879 60.59 88.4157 58.2979 88.1956 55.2037C87.8653 47.7545 85.6638 41.5659 79.9396 36.7526C77.8481 34.9189 78.1784 32.1684 79.9396 29.991C81.9211 27.4697 84.563 27.5843 86.8746 29.0741C93.9197 33.7729 96.8919 41.1075 98.2128 49.3589C98.433 51.0779 98.433 52.6824 98.5431 54.1722Z" fill="#273038"/>
<path d="M127.934 38.8154C127.714 42.1389 130.576 45.1186 128.705 49.4735C128.154 46.15 127.604 43.7434 127.164 41.3367C127.053 40.3053 126.173 39.1592 127.934 38.8154Z" fill="#29333A"/>
<path d="M127.934 38.8154C127.163 39.5031 127.384 40.5345 127.273 41.3367C126.283 38.2424 125.402 35.1481 124.411 32.1685C127.163 33.4291 126.723 36.5234 127.934 38.8154Z" fill="#31373E"/>
<path d="M74.3251 164.994C72.4537 163.504 70.2521 164.306 68.2707 163.962C65.0784 163.504 61.8861 163.045 58.6938 164.306C57.9232 164.42 57.1527 164.65 56.6023 163.733C56.6023 161.899 58.0333 160.982 59.024 159.951C60.7853 158.003 62.4365 156.054 62.8768 153.189C62.9869 152.616 63.3171 152.043 63.7575 151.7C65.849 151.241 68.0506 149.981 69.1513 153.189C69.9219 158.461 74.215 162.701 79.8291 163.733C81.0399 163.962 82.3609 163.733 83.4617 164.535C83.7919 164.764 84.0121 165.108 84.1222 165.567C84.4524 167.056 84.6726 168.546 83.4617 169.807C82.6911 168.661 82.6911 167.056 81.2601 166.369C79.0585 165.567 76.4166 166.713 74.3251 164.994Z" fill="#293037"/>
<path d="M39.9793 171.755C38.8785 171.067 37.2274 171.067 38.4382 168.661C39.2088 167.171 35.9064 165.452 37.5576 163.16C37.6677 163.045 37.8878 162.816 37.9979 162.701C42.7313 163.16 47.5748 163.389 52.1982 164.879C51.8679 166.713 49.4462 166.254 49.0059 167.973C48.8958 170.151 47.3547 171.755 46.6942 173.589C45.7035 173.474 46.6942 171.64 45.2632 171.87C43.3918 173.36 41.6305 173.703 39.9793 171.755Z" fill="#20262A"/>
<path d="M83.5715 169.807C83.5715 168.202 83.6816 166.598 83.6816 164.993C86.6538 162.816 89.9561 163.733 93.2585 164.076C94.2492 164.191 95.1299 164.993 94.3593 166.368C92.9283 168.088 95.2399 170.494 93.4787 172.099C92.3779 172.672 91.2771 172.328 90.2864 172.213C87.6445 171.755 87.8646 173.245 88.3049 174.964C87.3142 176.11 86.2134 175.537 85.1126 175.193C83.7917 173.703 84.4522 171.526 83.5715 169.807Z" fill="#23292D"/>
<path d="M92.7078 172.099C94.5791 170.609 92.4876 167.973 94.359 166.483C94.2489 167.973 94.7993 169.348 95.0195 170.724C95.79 175.308 94.4691 176.798 90.0659 176.683C88.3046 176.683 86.4333 176.798 85.1123 175.193C86.103 174.849 87.424 175.537 88.1945 174.391C89.4054 173.13 91.3868 173.245 92.7078 172.099Z" fill="#4C5151"/>
<path d="M94.249 166.483C94.0288 164.65 92.5978 164.879 91.3869 164.879C88.745 164.879 86.2132 164.993 83.5713 164.993L83.4612 164.764C84.1217 162.701 85.7728 163.045 87.2039 163.045C89.9559 162.931 92.8179 162.931 95.5699 162.243C96.4505 162.128 97.3312 162.014 98.1017 162.472C99.4227 165.91 95.0195 164.191 94.9094 166.369C94.7993 166.369 94.5792 166.483 94.249 166.483Z" fill="#343A42"/>
<path d="M49.0068 167.973C49.1169 165.796 50.658 165.796 52.1991 165.681C53.9604 164.42 55.7217 163.847 57.7031 164.993C56.8225 166.712 55.2814 166.369 53.8503 166.483C52.4193 166.598 50.7681 166.139 49.8875 167.859C49.4472 167.859 49.227 167.973 49.0068 167.973Z" fill="#7C8C9D"/>
<path d="M74.3257 164.993C76.6373 165.452 79.1692 165.222 81.3708 166.368C80.8204 166.483 80.27 166.598 79.7196 166.712C77.8482 166.139 75.6466 167.285 74.3257 164.993Z" fill="#7E8FA0"/>
<path d="M75.8659 13.1442C78.9481 12.6858 81.7001 13.8319 84.6722 15.3217C80.0489 21.1665 74.3248 25.7506 69.041 30.9077C62.8765 36.8671 56.4919 42.4826 50.2174 48.3274C45.2638 52.9115 40.3102 57.4957 35.4667 62.0798C32.9349 64.4865 34.3659 65.0595 36.7877 65.0595C41.411 65.5179 41.6312 68.6122 41.5211 72.6233C41.3009 80.7601 41.411 88.8969 41.411 96.9191C41.411 98.2944 41.7413 99.7842 39.8699 101.045C39.8699 98.0652 39.8699 94.9709 39.8699 91.9912C39.8699 88.7823 38.9893 87.0633 35.2466 87.9801C32.1643 88.6677 28.972 88.7823 25.9999 90.1575C24.2386 90.9598 22.9177 90.616 23.0278 88.2093C23.358 74.5715 21.4866 60.7045 24.0185 47.296C27.1007 30.7931 36.6776 19.6766 52.529 14.5195C60.3447 11.9982 68.1603 13.9465 75.8659 13.1442Z" fill="#435059"/>
<path d="M3.7645 125.685C3.87458 125.455 3.87458 125.226 3.87458 124.997C5.41569 121.788 6.84672 118.465 8.38783 115.256C8.93823 114.453 9.48863 113.766 10.039 112.964C14.4422 109.755 18.5151 106.087 24.0191 104.598C27.2114 103.795 30.5138 103.795 33.7061 103.337C37.2286 103.337 40.3109 105.171 43.7233 105.629C44.2737 105.629 44.7141 105.744 45.1544 105.973C46.035 106.431 46.9156 107.004 47.9064 107.348C48.8971 107.806 49.6676 108.494 50.4382 109.296C54.7313 113.078 58.0337 117.548 59.5748 123.278C60.0151 125.455 60.3453 127.518 61.1159 129.581C61.226 129.925 61.336 130.383 61.336 130.842C62.1066 134.967 60.1252 138.749 59.7949 142.76C58.9143 145.969 57.7034 148.949 55.6119 151.47C53.5204 154.335 50.9886 156.742 48.2366 158.805C45.0443 161.326 41.3016 162.472 37.3387 162.931C36.348 162.931 35.3573 163.045 34.3666 163.045C24.2393 163.504 15.6531 160.18 9.04831 151.929C6.4064 148.605 4.86529 144.709 3.54434 140.698C2.77378 135.884 3.32418 130.727 3.7645 125.685Z" fill="#BCC3CD"/>
<path d="M44.7142 72.2795C45.1545 72.2795 45.5948 72.2795 46.0351 72.2795C48.3468 70.4458 51.0988 70.9042 53.6306 70.5604C57.7036 69.9874 61.7765 68.8414 65.9595 68.7268C68.8216 68.6122 68.8216 65.5179 70.6929 64.7156C76.307 64.4864 81.811 64.7156 87.425 64.601C88.4157 64.601 89.9568 64.3718 90.177 65.4033C90.8375 69.529 94.1399 68.4976 96.5616 69.1852C98.1027 69.6436 99.864 69.529 100.635 71.4772C99.7539 73.5401 98.2128 73.9985 96.2314 73.8839C92.7088 72.8525 89.1863 73.3109 85.5537 73.3109C79.1691 73.1963 72.7845 73.3109 66.3998 73.3109C64.9688 73.3109 63.5378 73.3109 62.3269 73.9985C58.8044 73.4255 55.2818 72.9671 51.7593 74.3423C47.1359 74.3423 46.4755 74.9153 46.4755 79.7287C46.4755 86.9487 46.3654 94.2833 46.5855 101.503C46.5855 102.764 47.246 104.139 45.7049 105.056C44.2739 104.598 44.1638 103.451 44.1638 102.191C44.1638 92.6788 44.1638 83.0521 44.1638 73.5401C44.0537 73.0817 44.2739 72.6233 44.7142 72.2795Z" fill="#C8A88C"/>
<path d="M37.5583 101.847C28.0915 99.6698 19.7254 102.535 11.4695 108.723C12.3501 103.337 16.2029 101.16 18.2944 97.8361C21.927 95.3148 25.5597 92.679 29.8527 91.5329C29.9628 91.4183 30.0729 91.4183 30.183 91.3037C37.6684 90.1577 37.8885 90.3869 37.8885 98.4091C37.8885 99.4406 38.2188 100.701 37.5583 101.847Z" fill="#8091A3"/>
<path d="M100.413 72.165C98.6522 69.5291 95.7901 70.7898 93.4785 69.8729C91.9374 69.2999 90.6164 69.2999 90.3962 67.1225C90.1761 64.8304 88.4148 65.1742 86.8737 65.1742C81.4798 65.1742 75.9758 65.1742 70.5819 65.0596C70.3618 64.945 70.2517 64.8304 70.2517 64.6012C70.3618 64.372 70.3618 64.372 70.4719 64.372C76.196 64.372 81.81 64.372 87.5342 64.2574C89.7358 64.2574 91.2769 64.7158 91.2769 67.4663C92.3777 67.0079 91.497 65.4034 92.7079 65.0596C97.3312 67.6955 102.285 67.8101 107.789 68.2685C106.798 65.7472 105.037 66.2056 103.496 66.091C99.8631 65.6326 96.1204 67.1225 92.5978 65.0596C98.5421 64.1428 104.486 62.8822 110.321 65.7472C112.082 68.6123 111.531 70.446 108.669 71.2482C107.789 71.4774 106.908 71.592 106.358 72.3942C105.807 72.9672 105.367 73.6549 104.707 73.9987C103.276 73.8841 101.624 73.4256 100.413 72.165Z" fill="#6B5420"/>
<path d="M70.5818 64.3717C70.5818 64.6009 70.5818 64.8302 70.6919 65.0594C70.1415 68.7267 67.9399 69.6435 64.6376 69.9873C58.4731 70.7895 52.3087 72.0501 46.0341 72.1648C45.5938 70.7895 45.2636 69.4143 44.8232 68.039C44.1628 65.8616 45.3736 64.3717 47.1349 64.3717C53.9598 64.1425 60.8948 63.9133 67.7198 64.4863C67.9399 64.4863 68.05 64.8302 68.2702 65.0594C66.7291 66.4346 64.8577 66.0908 63.0964 66.0908C58.8033 66.2054 54.4002 65.9762 50.1071 66.2054C49.0063 66.32 47.4652 66.4346 47.7954 68.039C48.1256 69.4143 49.5567 68.7267 50.4373 68.6121C55.0606 67.5806 59.7941 67.8098 64.4174 66.5492C65.7383 66.2054 67.2795 66.32 68.2702 65.0594C68.9306 64.8302 69.8113 64.6009 70.5818 64.3717Z" fill="#544321"/>
<path d="M44.714 72.2798C43.8333 82.3649 44.4938 92.4499 44.3837 102.65C44.3837 103.796 44.824 104.712 46.0349 104.942C46.8055 104.712 46.9155 105.056 46.9155 105.744C46.2551 106.661 45.2644 106.088 44.4938 106.432C44.2736 106.202 43.9434 105.973 43.7232 105.859C43.7232 96.0026 43.7232 86.1468 43.7232 76.2909C43.7232 74.9157 43.0628 73.1966 44.714 72.2798Z" fill="#544321"/>
<path d="M105.808 72.0502C106.029 71.1334 106.579 70.675 107.46 70.675C111.092 70.7896 111.312 68.7268 110.542 65.7471C111.312 65.7471 112.083 65.7471 112.743 65.8617C112.743 66.2055 112.633 66.6639 112.743 67.0077C113.294 70.9042 111.973 72.8525 108.01 72.2794C107.129 72.8525 106.359 72.9671 105.808 72.0502Z" fill="#564631"/>
<path d="M37.5586 101.732C37.5586 100.93 37.5586 100.128 37.5586 99.3258C37.4485 91.0744 37.4485 91.0743 29.853 91.3036C31.174 90.1575 32.9353 90.1575 34.4764 89.8137C36.2376 89.4699 37.7787 90.3867 37.9989 92.1058C38.3291 95.3147 39.0997 98.6382 37.5586 101.732Z" fill="#495159"/>
<path d="M143.234 126.372C140.923 126.028 138.501 125.57 136.189 125.226C135.749 124.195 136.63 123.736 137.07 123.278C146.317 113.536 155.673 103.91 164.92 94.2832C168.773 90.272 173.947 91.4181 178.46 90.0428C179.34 89.8136 178.79 90.9597 178.68 91.5327C175.378 96.5752 171.085 100.586 166.461 104.254C165.581 104.941 164.59 105.514 163.709 106.316C157.985 112.047 152.481 118.006 146.757 123.851C145.876 124.768 144.996 126.257 143.234 126.372Z" fill="#BAC2CA"/>
<path d="M143.235 126.372C149.84 119.496 156.554 112.62 163.159 105.744C164.81 104.827 166.241 102.993 168.443 103.91C169.103 107.119 167.012 109.067 165.251 111.015C160.517 116.287 155.564 121.559 150.61 126.601C148.298 129.008 146.867 131.529 147.198 134.967C147.308 135.884 147.088 136.801 146.537 137.603C147.418 139.208 148.078 140.927 145.436 140.927C143.675 140.927 143.235 142.187 142.464 143.333C139.712 142.875 136.52 140.698 134.649 144.938C133.548 145.855 133.107 145.053 132.887 144.021C132.667 143.104 132.667 142.302 131.897 141.614C131.676 141.385 131.346 141.156 131.126 140.927C130.355 139.895 128.154 140.239 128.704 137.947C130.355 136.801 129.585 134.738 130.135 133.248C130.025 133.019 130.025 132.905 129.915 132.675C129.915 132.561 130.025 132.561 130.135 132.446C129.034 129.467 131.897 128.091 132.557 125.799C133.768 124.539 134.098 126.028 134.869 126.487C136.41 126.945 137.18 127.747 135.749 129.352C133.768 131.071 131.126 132.675 132.337 136.114C133.218 138.52 134.759 140.583 137.621 140.468C140.153 140.354 142.464 139.666 143.455 136.801C144.336 133.936 143.455 131.644 141.143 129.925C140.703 129.581 140.263 129.352 139.932 128.894C139.712 128.32 139.712 127.747 140.153 127.289C141.363 127.06 142.684 127.862 143.235 126.372Z" fill="#252C32"/>
<path d="M168.884 104.139C166.682 103.451 165.251 105.514 163.27 105.629C169.324 101.847 173.617 96.002 178.791 91.3033C180.442 91.1887 180.442 89.5843 181.103 88.5528C181.653 87.7506 182.314 87.063 183.304 87.5214C184.185 87.8652 183.965 88.782 183.965 89.5843C183.745 90.1573 183.525 90.7303 183.304 91.3033C182.534 91.7617 181.763 92.3347 180.993 92.7932C178.021 96.2312 174.828 99.3255 171.746 102.534C170.976 103.451 170.205 104.483 168.884 104.139Z" fill="#3A4249"/>
<path d="M132.667 125.914C133.107 127.404 133.658 128.893 131.566 129.581C130.245 130.039 130.355 131.415 130.245 132.561C129.915 130.269 128.484 128.206 128.814 125.799C130.135 125.799 131.346 125.799 132.667 125.914Z" fill="#323233"/>
<path d="M140.372 127.404C140.372 127.862 140.372 128.321 140.372 128.894C138.831 129.467 137.29 129.925 135.749 128.894C136.63 127.748 135.419 127.289 134.979 126.602C136.74 126.602 138.721 126.143 140.372 127.404Z" fill="#323233"/>
<path d="M168.883 104.139C171.966 101.159 174.938 98.0651 178.02 95.0854C178.901 94.1686 179.561 92.908 181.102 92.908C180.772 99.4403 179.451 105.285 174.387 110.213C165.911 118.235 158.096 126.945 149.95 135.426C149.069 136.343 148.298 137.489 146.867 137.489C145.987 132.446 146.977 128.32 151.05 124.882C154.793 121.788 157.875 117.777 161.288 114.224C164.15 111.244 167.122 108.265 168.883 104.139Z" fill="#8091A2"/>
<path d="M98.2121 138.635C98.102 139.322 98.102 140.124 97.9919 140.812C96.5609 141.041 96.3407 139.322 95.2399 138.978C85.7731 136.228 76.1962 135.54 66.5092 135.655C64.3076 135.655 63.3169 136.801 63.0967 139.093C62.8766 141.041 62.8766 143.104 60.8951 144.365C60.1246 144.365 59.6843 143.906 59.4641 143.219C59.6843 138.978 61.6657 134.853 60.8951 130.498C60.8951 128.779 59.5742 126.83 61.8859 125.684C63.0967 130.039 66.289 130.154 70.0317 130.498C77.0768 131.071 84.3421 131.415 91.2771 133.019C93.0383 133.477 95.1298 134.165 96.0105 131.3C96.4508 130.154 97.3314 130.269 98.102 130.842C99.0927 131.529 100.083 131.988 101.184 131.758C102.285 131.873 103.056 132.561 103.826 133.248C107.129 136.228 107.129 136.228 110.321 132.904C111.091 132.102 111.752 131.415 112.522 130.612C114.174 129.123 114.504 127.747 112.743 125.914C110.981 124.08 109.66 124.08 107.899 125.914C105.808 128.091 104.046 130.956 100.524 130.842C100.083 130.154 100.524 129.123 99.4229 128.779C101.735 125.914 105.477 124.538 106.908 120.757C107.899 119.611 109.22 119.84 110.541 119.954C111.091 120.069 111.642 120.184 112.192 120.298C114.284 120.527 114.504 122.476 115.054 124.08C115.605 124.538 116.045 125.111 116.595 125.57C117.916 126.372 119.898 126.831 118.797 129.237C115.384 133.248 112.522 137.947 107.459 140.124C105.367 139.666 104.927 137.374 103.386 136.228C102.065 135.197 101.184 132.79 99.0927 133.936C97.3314 134.967 98.4322 137.03 98.2121 138.635Z" fill="#283138"/>
<path d="M107.458 140.124C110.981 136.457 114.614 132.675 118.136 129.008C119.127 128.206 119.787 126.257 121.328 127.633C123.31 129.352 126.172 130.727 124.961 134.394C121.659 137.718 118.356 141.156 114.834 144.479C113.733 145.511 112.852 148.147 111.091 146.428C109.33 144.938 106.027 143.906 107.458 140.124Z" fill="#8090A2"/>
<path d="M128.815 138.52C129.475 139.895 131.897 138.635 131.787 140.927C126.943 143.219 124.191 147.803 120.449 151.47C119.898 152.043 119.458 152.845 120.229 153.533C120.779 153.991 121.549 153.762 121.99 153.304C125.402 149.293 130.466 146.657 131.897 141.041C133.328 141.156 134.429 141.614 133.768 143.448C133.438 144.479 133.768 144.823 134.759 144.938C134.429 146.084 132.447 145.625 132.557 147.23C130.576 150.782 128.154 153.877 124.301 155.481C123.751 156.513 123.091 157.429 122.54 158.461C121.549 159.722 122.21 161.211 121.77 162.587C120.449 161.67 121.99 159.378 120.118 158.805C117.256 158.232 115.935 155.94 114.504 153.762C114.394 151.012 116.266 149.866 117.917 148.376C118.577 147.803 119.238 147.001 120.229 147.459C120.449 145.052 123.531 145.74 124.081 143.563C123.751 140.927 125.843 140.124 127.164 138.749C127.274 138.635 127.494 138.52 127.604 138.52C128.264 138.176 128.595 138.291 128.815 138.52Z" fill="#483022"/>
<path d="M122.65 126.486C123.75 128.205 125.842 129.122 126.612 131.185C125.291 131.758 126.282 133.706 124.961 134.394C124.301 130.039 120.998 127.403 118.136 128.893C119.347 126.945 117.036 126.716 116.595 125.455C118.577 126.028 120.888 124.538 122.65 126.486Z" fill="#4B5158"/>
<path d="M127.824 138.52C127.494 140.812 125.182 141.5 124.301 143.333C122.43 144.594 121.329 144.135 121.329 141.729C122.76 139.208 124.412 136.915 127.824 138.52Z" fill="#EED7B8"/>
<path d="M118.797 148.834C117.146 150.095 115.275 151.241 115.054 153.648C114.064 154.565 112.963 154.565 111.972 153.648C111.972 152.96 111.752 152.272 111.092 151.929C111.422 149.522 115.054 151.699 114.944 148.834C115.495 148.605 116.045 148.261 116.596 148.032C117.586 147.574 118.137 148.147 118.797 148.834Z" fill="#636568"/>
<path d="M118.797 148.834C118.026 148.605 117.256 148.376 116.595 148.147C117.036 146.657 117.036 144.594 118.797 144.479C120.338 144.25 120.668 145.855 120.448 147.344C119.898 147.803 119.347 148.261 118.797 148.834Z" fill="#C39E7F"/>
<path d="M127.824 138.52C124.742 137.603 123.201 140.125 121.329 141.729C122.32 138.749 123.971 136.801 127.384 137.718C128.154 137.489 128.485 137.947 128.595 138.635H128.264L127.824 138.52Z" fill="#AE9F8F"/>
<path d="M128.485 138.52C128.044 138.176 127.714 137.947 127.274 137.603C127.604 137.374 127.824 137.03 128.154 136.801C131.016 137.03 129.255 134.279 130.246 133.248C130.246 135.082 131.016 137.259 128.815 138.405C128.705 138.52 128.595 138.52 128.485 138.52Z" fill="#323233"/>
<path d="M105.808 72.0503C106.578 72.1649 107.349 72.2795 108.009 72.3941C112.082 73.4255 112.633 74.457 110.982 78.9265C109.771 82.3646 108.56 85.6881 107.349 89.1262C103.496 95.4293 98.1023 100.243 91.9379 104.139C91.1673 105.629 89.6262 106.202 88.3053 106.775C75.3159 110.213 62.2164 110.213 49.117 107.577C48.1263 107.348 47.1356 106.89 46.6952 105.858C46.4751 105.629 46.2549 105.285 46.0348 105.056C44.4937 95.3147 45.4844 85.5735 45.4844 75.9468C45.4844 73.1963 48.2364 72.5087 52.1992 73.9985C52.1992 74.1131 52.4194 74.2278 52.3093 74.3424C51.2085 79.3849 51.2085 79.3849 56.2722 79.3849C56.8225 79.3849 56.1621 79.3849 56.6024 79.3849C62.2164 79.3849 62.2164 79.3849 61.8862 74.2278C61.556 72.8525 61.9963 72.3941 63.4273 72.3941C73.7748 72.3941 84.2323 72.3941 94.5798 72.3941C95.5705 72.3941 96.3411 72.6233 96.4512 73.8839C96.4512 74.9154 95.7907 75.603 95.3504 76.4052C93.9193 78.8119 94.5798 80.0725 97.3318 80.1871C99.9737 80.3017 102.616 80.3017 105.258 80.1871C107.899 80.0725 108.23 78.8119 106.799 76.6344C106.138 75.8322 105.147 75.1446 105.037 73.8839C105.258 73.0817 105.478 72.6233 105.808 72.0503Z" fill="#F3D7BC"/>
<path d="M111.972 120.871C111.532 120.871 110.981 120.871 110.541 120.757C109.11 120.184 108.89 118.923 108.559 117.662C106.578 109.984 104.597 108.265 97.1112 107.463C96.5608 107.463 96.1205 107.234 95.6801 107.119C94.0289 105.744 94.3592 104.598 95.7902 103.452C100.193 102.42 103.055 99.0967 105.587 95.6586C107.238 93.3665 108.449 93.1373 110.871 94.5126C115.164 96.9192 118.246 100.472 121.219 104.254C123.42 107.921 124.741 112.047 125.952 116.058C128.154 119.496 127.493 121.559 123.86 121.674C119.788 121.788 115.825 122.247 111.972 120.871Z" fill="#8091A2"/>
<path d="M95.7914 103.337C95.5712 104.483 94.4704 105.514 95.9014 106.66C97.3325 107.233 98.8736 106.775 100.305 107.004C101.405 107.119 101.516 107.692 100.855 108.494C96.1216 108.838 92.1587 111.015 89.0765 114.797C88.8564 114.797 88.416 114.797 88.416 114.683C88.1959 110.442 85.2237 110.099 82.1415 110.099C81.9214 109.755 81.8113 109.411 81.8113 109.067C83.3524 105.973 86.985 107.921 88.9664 105.858C89.737 104.827 90.9479 104.712 91.9386 104.254C93.1495 103.91 94.4704 103.681 95.7914 103.337Z" fill="#262C2F"/>
<path d="M124.301 155.367C127.053 152.616 129.805 149.866 132.557 147.115C133.878 146.428 134.318 146.886 134.208 148.376C134.098 150.668 128.264 156.627 126.062 156.742C125.182 156.857 124.301 156.627 124.301 155.367Z" fill="#BEA085"/>
<path d="M111.972 120.871C115.385 120.871 118.797 120.756 122.21 120.756C126.613 120.756 126.723 120.642 125.732 116.058C126.062 114.568 125.072 112.849 126.393 111.474C126.723 114.912 128.484 118.121 127.934 121.673C124.631 123.392 121.109 122.017 117.696 122.476C116.596 122.59 114.944 121.788 115.054 124.08C114.284 122.819 113.293 121.673 111.972 120.871Z" fill="#30373D"/>
<path d="M111.973 153.648C112.963 153.648 114.064 153.648 115.055 153.648C116.816 155.252 118.467 156.971 120.229 158.576C120.669 162.702 120.009 163.275 115.936 163.16C113.184 163.16 111.863 160.868 110.762 159.149C109.991 157.774 109.551 155.023 111.973 153.648Z" fill="#7B8C9D"/>
<path d="M39.9797 171.755C41.741 171.755 43.5023 171.87 45.2636 171.87C44.493 175.193 41.8511 174.62 39.7596 174.162C37.8882 173.703 38.879 172.557 39.9797 171.755Z" fill="#8694A3"/>
<path d="M96.6713 138.52C97.1117 139.322 97.552 140.124 97.9923 140.927C98.1024 142.417 97.8822 143.792 97.3318 145.167C96.3411 147.803 96.231 150.439 97.3318 153.189C98.5427 156.169 97.9923 159.378 98.1024 162.587C97.552 162.816 97.1117 163.16 96.5613 163.389C94.8 161.211 95.5705 158.576 95.2403 156.054C94.8 153.075 93.5891 152.043 90.617 152.502C84.5626 153.533 78.6183 155.252 72.4539 154.908C70.9127 154.794 69.3716 155.023 68.1608 153.762C68.3809 152.96 68.7112 152.158 67.3902 152.158C66.0692 152.158 64.8584 152.158 63.5374 152.158C61.556 153.304 59.5746 154.106 58.0334 151.47C59.5746 149.751 61.556 150.21 63.4273 150.21C71.9035 150.21 80.2695 149.637 88.5255 148.147C92.3782 147.459 94.1395 145.74 95.0201 142.073C95.4605 140.812 95.5705 139.322 96.6713 138.52Z" fill="#373F48"/>
<path d="M116.486 53.3701C115.715 54.9745 116.266 57.9542 113.294 57.8396C110.652 57.6104 110.432 55.4329 110.321 53.1409C109.771 42.2536 107.019 32.5123 98.1026 25.5215C96.7817 24.4901 94.5801 23.0003 96.6716 20.7082C98.4329 18.8745 100.194 19.3329 102.065 20.9374C110.872 28.272 114.725 38.0133 115.715 49.359C115.936 50.6196 116.266 51.8802 116.486 53.3701Z" fill="#424F58"/>
<path d="M96.5614 53.5989C96.5614 56.1201 95.6808 57.61 93.8094 57.8392C91.6078 58.0684 90.7272 56.5785 90.507 54.4011C89.8465 48.7855 89.4062 43.17 85.1131 38.9297C84.1224 37.8982 83.0216 36.9814 82.0309 35.95C81.0402 34.9185 79.9394 33.8871 81.1503 32.2827C82.2511 30.7928 83.6821 30.449 85.2232 31.3658C88.7458 33.4287 91.1675 36.523 93.0388 40.3049C95.1304 44.5452 94.9102 49.5877 96.5614 53.5989Z" fill="#424F57"/>
<path d="M37.5576 163.159C44.6027 160.867 50.547 157.085 55.1703 151.126C55.8308 152.043 55.8308 153.303 56.161 154.335C53.299 158.804 49.5563 162.013 45.4833 163.274C48.5656 163.159 52.6385 162.128 56.7114 163.274C57.1518 163.503 57.7022 163.732 58.1425 163.962C58.4727 164.076 58.5828 164.305 58.4727 164.42C58.3626 164.535 58.2526 164.649 58.1425 164.649C57.9223 164.764 57.7022 164.878 57.482 164.878C55.6106 164.993 53.8494 166.024 51.978 165.566C51.6478 165.337 51.3175 164.993 50.9873 164.993C46.4741 165.451 42.0709 164.076 37.5576 163.159Z" fill="#49525A"/>
<path d="M58.2537 164.764C58.2537 164.535 58.2537 164.306 58.2537 164.076C61.556 162.586 64.9685 162.701 68.2709 164.076C64.9685 164.764 61.446 163.503 58.2537 164.764Z" fill="#7C8C9D"/>
<path d="M68.2713 153.762C76.3071 154.335 84.2328 152.616 92.0485 151.012C94.3601 150.553 95.4609 150.783 96.0113 153.418C96.7819 156.742 96.7819 159.951 96.6718 163.274C92.3787 164.65 87.8654 163.618 83.5723 164.764C76.197 165.566 71.5737 161.555 68.1612 155.481C67.7209 154.794 67.6108 154.221 68.2713 153.762Z" fill="#7E8FA0"/>
<path d="M56.8224 163.389C52.5293 164.65 48.2362 164.077 43.833 163.847C48.5664 161.326 52.6394 157.888 56.0518 153.762C58.5837 152.273 61.1155 152.616 63.6473 153.762C62.9868 158.232 59.6844 160.639 56.8224 163.389Z" fill="#7C8C9D"/>
<path d="M63.6479 153.762C61.1161 153.762 58.5842 153.762 56.0524 153.762C53.9609 153.533 55.502 152.043 55.1718 151.241C56.4927 148.605 57.8137 146.084 59.1346 143.448C59.3548 142.989 59.685 142.989 59.9052 143.448C60.1253 143.677 60.3455 143.906 60.5657 144.135C62.1068 147.344 60.0153 149.293 58.254 151.47C59.9052 153.074 61.8866 151.928 63.6479 152.387C63.6479 152.616 63.6479 153.189 63.6479 153.762Z" fill="#323A42"/>
<path d="M65.9596 161.67C64.8588 161.211 63.0975 162.243 63.3177 160.409C63.4277 159.263 64.3084 157.2 65.7394 157.315C67.1704 157.429 68.3813 159.263 68.4914 160.638C68.6015 162.357 66.7301 161.097 65.9596 161.67Z" fill="#414B53"/>
<path d="M92.7085 172.099C92.4883 175.422 89.7363 173.932 88.1952 174.506C86.9843 174.276 85.7735 174.047 85.9936 172.443C86.1037 170.838 87.4247 171.297 88.4154 171.297C89.8464 171.182 91.3875 171.067 92.7085 172.099Z" fill="#7A8797"/>
<path d="M86.324 167.4C88.0852 166.139 89.076 166.139 90.2868 167.171C89.186 168.432 88.0852 167.973 86.324 167.4Z" fill="#39424A"/>
<path d="M53.5196 133.592C53.5196 145.969 43.5024 156.627 31.7239 156.627C19.9454 156.627 9.70801 145.969 9.70801 133.821C9.70801 120.986 19.395 110.671 31.5037 110.557C43.7226 110.557 53.5196 120.871 53.5196 133.592Z" fill="#444C55"/>
<path d="M82.0306 109.755C82.6911 109.755 83.3516 109.869 83.902 109.64C87.2043 108.494 89.7362 108.036 88.1951 113.193C88.085 113.537 88.6354 113.995 88.8555 114.453C89.2959 114.912 89.4059 115.599 89.2959 116.287C88.5253 120.871 90.6168 124.08 94.1394 126.487C94.9099 126.945 95.6805 127.404 96.0107 128.435C95.02 129.123 96.6712 130.498 95.3502 131.071C88.1951 130.154 83.7919 122.476 85.6632 113.766C77.5174 114.797 69.4816 115.141 61.3357 114.797C59.2442 114.683 59.4643 115.829 60.0147 117.319C61.1155 120.069 63.4272 122.476 61.9962 125.799C60.5651 127.289 61.5558 129.123 61.1155 130.842C60.8954 130.956 60.6752 130.956 60.4551 130.612C60.4551 130.383 60.4551 130.039 60.4551 129.81C59.7946 127.747 59.9047 125.455 58.8039 123.507C56.9325 118.121 53.6301 113.766 49.7773 109.755C55.6116 108.15 61.5558 109.296 67.3901 108.952C71.0227 108.838 74.7654 109.182 78.398 108.723C79.829 108.609 81.0399 108.838 82.0306 109.755Z" fill="#2B373F"/>
<path d="M88.9653 105.744C87.5342 108.723 83.6814 106.317 82.0303 108.953C75.6456 109.755 69.3711 109.182 62.9865 109.296C57.8128 109.411 52.639 109.869 47.5754 108.15C46.2544 108.15 45.594 106.89 44.4932 106.431C45.0436 105.629 45.9242 105.858 46.6948 105.744C60.1244 108.953 73.5541 108.953 87.0939 105.973C87.6443 105.858 88.3048 105.858 88.9653 105.744Z" fill="#32373A"/>
<path d="M47.575 108.15C48.0153 107.577 48.5657 107.233 49.2261 107.463C59.2434 110.557 69.5908 108.265 79.8282 108.952C80.5988 108.952 81.3693 108.952 82.1399 108.952C82.1399 109.182 82.1399 109.526 82.1399 109.755C73.7739 109.755 65.4078 109.869 57.0418 109.755C54.7301 109.755 52.3084 111.588 49.9967 109.755C49.1161 109.182 48.3455 108.723 47.575 108.15Z" fill="#14191C"/>
<path d="M60.5658 130.498C60.786 130.498 61.0062 130.498 61.2263 130.727C61.6666 135.082 60.6759 139.208 59.9054 143.334C59.6852 143.334 59.355 143.334 59.1348 143.334C59.0247 138.979 61.0062 134.968 60.5658 130.498Z" fill="#627080"/>
<path d="M58.9141 123.393C60.4552 125.226 60.8955 127.289 60.5653 129.696C59.1342 127.862 59.1342 125.685 58.9141 123.393Z" fill="#627080"/>
<path d="M95.0201 75.3734C95.5705 74.8004 96.0108 74.2274 96.5612 73.6544C97.9922 73.4252 98.7627 71.8207 100.414 72.1645C102.175 71.9353 103.606 72.7376 105.037 73.6544C105.808 74.2274 106.578 74.8004 107.349 75.3734C108.67 80.0722 108.45 80.5306 104.047 80.5306C102.065 80.5306 99.9736 80.5306 97.9922 80.5306C93.6991 80.5306 93.1487 79.4992 95.0201 75.3734Z" fill="#393F3E"/>
<path d="M61.8858 73.9987C62.3261 74.8009 62.8765 75.4885 63.2068 76.2907C64.0874 78.5828 63.9773 80.1872 61.0052 80.1872C58.5834 80.1872 56.1617 80.3018 53.7399 80.1872C52.5291 80.1872 50.9879 80.7603 50.2174 79.385C49.3368 77.7806 50.1073 76.2907 51.098 75.0301C51.4283 74.5717 51.6484 74.1133 51.9787 73.7695C55.5012 71.1336 58.6935 71.592 61.8858 73.9987Z" fill="#3D413E"/>
<path d="M92.8193 65.0593C97.0024 65.0593 101.185 65.0593 105.368 65.1739C106.799 65.1739 108.23 65.1739 109.111 66.5492C109.551 67.2368 109.772 68.039 109.441 68.8412C109.111 69.7581 108.341 69.8727 107.57 69.7581C102.947 68.9558 98.3233 68.1536 93.7 67.3514C92.5992 67.1222 92.9294 65.9762 92.8193 65.0593Z" fill="#BF9205"/>
<path d="M68.1608 65.0593C68.1608 66.32 67.8306 67.2368 66.3995 67.5806C60.3452 68.8412 54.0706 68.7266 48.0163 70.4457C46.5852 70.9041 46.0348 69.7581 45.9248 68.3828C45.8147 66.32 46.5852 65.0593 48.6768 65.0593C55.1714 65.0593 61.6661 65.0593 68.1608 65.0593Z" fill="#B38706"/>
<path d="M135.75 128.893C137.291 128.779 138.832 127.633 140.373 128.893C143.566 129.122 144.556 131.529 144.887 134.28C145.217 137.145 144.226 139.666 141.584 140.812C138.832 141.958 135.97 142.531 133.438 139.781C129.585 135.426 130.356 131.529 135.75 128.893Z" fill="#38434B"/>
<path d="M62.1057 125.685C61.4452 122.361 60.3444 119.381 58.5831 116.631C58.0327 115.829 57.2622 114.797 58.0327 113.766C58.6932 112.849 59.6839 113.537 60.4545 113.537C69.3709 113.995 78.1773 113.881 87.534 112.047C85.3324 116.975 84.672 121.903 88.855 126.028C90.8364 128.091 92.7078 130.269 95.79 130.383C96.0101 130.154 96.2303 130.269 96.4505 130.498C97.4412 134.394 97.1109 135.082 93.2581 134.394C83.6812 132.561 73.9942 131.644 64.1972 131.186C60.3444 131.071 62.8762 127.633 62.1057 125.685Z" fill="#424F58"/>
<path d="M58.2537 151.241C58.4738 148.605 60.8956 146.771 60.5653 143.906C62.1064 142.073 62.2165 139.895 62.2165 137.603C62.2165 135.77 62.7669 134.509 64.7483 134.509C74.9857 134.394 85.113 135.196 95.0202 137.603C95.5706 137.718 96.121 138.176 96.6714 138.52C97.2218 141.614 95.4605 144.021 94.8 146.771C94.4698 148.032 93.1488 148.605 91.8279 148.834C80.7099 150.783 69.5918 151.699 58.2537 151.241Z" fill="#627080"/>
<path d="M96.0108 128.779C94.0294 127.404 91.8278 126.487 90.2867 124.424C87.975 121.33 87.5347 118.121 88.9658 114.568C91.3875 109.755 95.2403 107.577 100.414 108.265C107.019 110.213 109.551 114.912 107.459 120.986C106.358 125.226 103.056 127.06 99.5334 128.893C98.3225 130.039 97.2217 130.039 96.0108 128.779Z" fill="#8F949A"/>
<path d="M100.413 130.498C103.716 129.696 105.917 127.175 107.899 124.768C110.1 122.017 111.531 123.049 113.293 125.112C114.944 126.945 116.925 128.435 113.843 130.613C113.623 130.727 113.513 130.956 113.293 131.186C111.311 133.248 109.55 136.343 107.238 136.916C104.817 137.603 103.716 133.363 101.294 132.217C100.523 132.446 100.083 132.217 99.7529 131.529C99.4227 130.727 99.863 130.498 100.413 130.498Z" fill="#424F58"/>
<path d="M107.459 120.985C108.34 114.797 105.148 111.015 100.414 108.265C99.3136 106.431 97.0019 108.379 95.791 106.775C104.267 106.316 108.23 109.64 109.441 118.464C109.551 119.381 109.771 120.298 110.432 120.985C109.551 121.1 108.45 119.954 107.459 120.985Z" fill="#414A55"/>
<path d="M100.413 130.498C99.5326 131.644 100.743 131.644 101.184 132.102C98.6519 134.624 98.1015 130.956 96.5604 130.498C96.3403 130.498 96.1201 130.383 95.8999 130.383C95.5697 129.81 93.9185 129.123 96.01 128.779C97.2209 128.779 98.4318 128.779 99.5326 128.893C100.633 128.893 100.964 129.466 100.413 130.498Z" fill="#171B21"/>
<path d="M131.897 140.927C132.777 142.302 132.998 143.562 131.677 144.823C128.594 147.917 125.732 151.012 122.76 154.106C121.659 155.252 120.559 155.825 119.128 154.45C117.476 152.845 118.687 151.928 119.678 150.897C122.65 147.803 125.622 144.708 128.594 141.614C129.585 140.468 130.576 139.895 131.897 140.927Z" fill="#9D572B"/>
<path d="M84.3417 91.4181C82.5805 91.4181 80.7091 91.4181 78.9478 91.4181C74.4346 90.272 73.4439 87.2923 76.416 83.7396C76.9664 83.052 77.737 82.479 78.0672 81.6768C79.7184 78.1241 81.1494 77.7803 83.6813 80.5307C85.5526 82.5936 86.3232 85.3441 86.7635 87.98C86.9837 89.5844 86.3232 91.1888 84.3417 91.4181Z" fill="#735740"/>
<path d="M95.0201 75.3738C94.1394 79.9579 94.2495 80.0725 98.6527 80.0725C100.194 80.0725 101.735 79.8433 103.276 80.0725C106.909 80.5309 108.23 79.0411 107.239 75.3738C108.67 76.4052 109.11 77.895 108.56 79.4995C107.899 81.2185 106.248 80.8747 104.927 80.8747C102.285 80.8747 99.6434 80.8747 96.8914 80.8747C95.6805 80.8747 94.1394 80.9893 93.6991 79.3849C93.3689 77.895 93.2588 76.2906 95.0201 75.3738Z" fill="#C8A88C"/>
<path d="M31.2835 153.648C22.1469 154.909 11.6893 144.48 12.1297 133.478C12.57 122.018 20.6058 113.078 31.2835 112.964C42.4015 112.964 51.5381 122.132 51.428 133.478C51.2079 143.792 43.062 154.909 31.2835 153.648Z" fill="#8092A3"/>
<path d="M52.5292 138.176C52.6508 138.176 52.7494 136.175 52.7494 133.707C52.7494 131.238 52.6508 129.237 52.5292 129.237C52.4077 129.237 52.3091 131.238 52.3091 133.707C52.3091 136.175 52.4077 138.176 52.5292 138.176Z" fill="#272F36"/>
<path d="M101.405 78.6972C100.084 78.1241 97.772 79.614 97.6619 77.2073C97.5518 74.8007 100.084 74.113 101.845 74.113C103.496 74.113 105.698 75.2591 105.478 77.2073C105.257 79.8432 102.726 78.0095 101.405 78.6972Z" fill="#255361"/>
<path d="M58.6945 78.5828C57.4836 78.3535 56.3828 77.5513 55.0618 78.2389C54.2913 78.6974 53.0804 78.9266 52.6401 78.0097C52.0897 76.9783 52.9703 76.0615 53.5207 75.2593C54.5114 73.7694 56.0525 73.5402 57.5937 73.884C59.1348 74.2278 60.4557 75.3739 61.0061 76.7491C61.7767 78.9266 59.9053 78.4681 58.6945 78.5828Z" fill="#26515E"/>
<path d="M138.282 139.323C135.089 139.208 133.548 137.26 133.658 134.738C133.768 131.988 135.42 130.269 138.502 130.384C141.584 130.498 143.125 132.676 143.125 135.082C143.125 138.062 140.703 139.208 138.282 139.323Z" fill="#3B231C"/>
<path d="M91.3874 114.682C93.2587 111.015 96.341 109.869 99.9736 110.901C103.386 111.817 105.808 115.37 105.808 118.808C105.698 122.361 103.386 125.341 99.5333 126.257C95.7906 127.06 92.8184 125.799 91.1672 122.017C91.3874 119.381 91.6076 117.089 91.3874 114.682Z" fill="#49515A"/>
<path d="M91.3872 114.683C92.2679 117.089 92.488 119.496 91.1671 121.788C90.5066 119.381 90.6167 116.975 91.3872 114.683Z" fill="#272A32"/>
<path d="M66.8052 94.759C71.2404 93.2935 75.5721 93.7192 80.3405 94.4859C78.0207 97.9317 75.7623 99.4347 73.6732 99.4798C71.5603 99.5254 69.2405 98.0881 66.8052 94.759Z" fill="#F0F4E9" stroke="#4B483F" stroke-width="1.60797"/>
<path d="M84.2317 89.1259C83.241 90.0428 82.1402 89.6989 81.0394 89.5843C79.7184 89.5843 78.0672 89.6989 77.6269 87.8653C77.1866 86.3755 78.2874 85.6878 79.2781 84.771C82.6906 81.7913 82.5805 81.6767 83.7914 86.3755C83.0208 87.5215 83.4611 88.3237 84.2317 89.1259Z" fill="#EA9E62"/>
<path d="M84.2325 89.1259C83.3518 88.8967 81.9208 89.5843 81.7006 88.209C81.4805 86.8338 82.8014 86.7192 83.6821 86.49C84.6728 87.1776 84.5627 88.0944 84.2325 89.1259Z" fill="#F0CAA8"/>
<path d="M31.5048 139.896C28.5326 139.896 25.4504 136.687 25.3403 133.592C25.3403 130.04 28.0923 127.175 31.7249 127.175C35.0273 127.175 37.6692 129.925 37.6692 133.478C37.6692 137.26 35.0273 140.01 31.5048 139.896Z" fill="#28323C"/>
<path d="M141.033 134.738C140.813 136.228 140.373 137.603 138.611 137.717C136.74 137.947 135.639 136.915 135.639 134.967C135.529 133.363 136.19 132.102 137.951 131.873C139.822 131.758 140.703 133.019 141.033 134.738Z" fill="#DD4403"/>
<path d="M92.708 118.579C92.708 114.798 94.3592 112.964 97.9918 112.964C101.294 112.964 103.386 114.912 103.496 118.121C103.606 121.444 101.404 124.08 98.212 124.08C94.6894 124.08 92.708 122.132 92.708 118.579Z" fill="#8092A4"/>
<path d="M28.3122 133.363C27.9819 131.071 29.1928 129.696 31.5045 129.81C33.4859 129.925 35.1371 130.842 35.2472 133.478C35.2472 136.228 33.596 137.374 31.5045 137.603C29.1928 137.718 28.3122 135.884 28.3122 133.363Z" fill="#444F56"/>
</g>
<defs>
<clipPath id="clip0">
<rect width="184.163" height="181.875" fill="white" transform="translate(0.571777 0.538086)"/>
</clipPath>
</defs>
</svg>
