<svg width="168" height="213" viewBox="0 0 168 213" fill="none" xmlns="http://www.w3.org/2000/svg">
<g clip-path="url(#clip0)">
<path d="M160.523 144.345C154.846 151.184 157.297 159.184 157.039 166.797C156.781 177.12 157.039 187.442 156.91 197.765C156.91 203.055 156.136 203.83 151.104 203.959C148.136 203.959 145.297 203.443 142.975 206.797C141.426 208.991 137.426 208.733 134.587 209.12C120.394 210.926 106.071 211.443 91.7483 212.346C76.3933 213.249 61.2964 212.088 46.0705 211.701C34.9736 211.443 23.7477 210.668 12.9089 207.572C11.4896 207.184 9.68311 207.184 9.68311 205.249C9.68311 203.313 11.3605 202.926 12.6509 202.281C13.296 202.023 14.0702 201.894 14.8444 201.636C17.038 200.604 20.78 202.281 21.6832 199.313C22.5864 195.959 22.1993 192.217 22.1993 188.604C22.1993 186.281 20.1348 186.797 18.8445 186.797C16.5219 186.797 14.3283 186.668 13.4251 183.958C17.167 184.217 21.038 184.088 24.5219 185.894C25.8123 188.088 25.5542 190.539 25.0381 192.862C24.5219 195.184 24.3929 197.507 24.78 199.959C25.5542 202.152 27.3607 201.636 28.9091 201.636C53.9415 201.636 78.845 201.636 103.877 201.765C107.232 201.765 108.394 200.604 108.265 197.378C108.006 190.152 107.103 183.055 106.458 175.958C106.2 173.507 103.748 172.345 103.232 170.152C102.845 166.539 102.2 162.926 103.748 159.442C104.135 158.926 104.652 158.926 105.168 159.184C106.2 160.474 106.329 161.894 106.2 163.442C106.071 166.539 106.974 169.249 108.652 171.829C111.619 176.604 110.716 182.281 111.619 187.571C111.878 188.862 111.619 190.281 111.748 191.571C111.877 196.604 112.136 196.733 116.91 197.378C123.62 198.152 130.329 198.797 136.91 199.959C141.684 200.733 142.2 200.346 142.2 195.571C142.329 182.152 142.2 168.733 142.2 155.184C142.2 152.99 141.684 150.668 143.749 148.99C146.458 150.41 145.813 153.12 145.813 155.313C145.942 168.216 145.813 181.12 145.942 194.152C145.942 196.217 145.555 198.281 146.458 200.346C148.007 202.797 150.458 202.023 152.523 201.507C154.717 200.862 154.071 198.539 154.071 196.862C154.2 182.797 154.071 168.862 154.071 154.797C154.071 152.603 153.813 150.281 154.846 148.216C155.878 146.539 157.297 144.99 159.233 144.345C159.62 143.958 160.007 143.958 160.523 144.345Z" fill="#DDD8C0"/>
<path d="M38.8445 21.2474C42.0704 22.1506 45.5543 22.9248 49.0382 23.0539C50.0704 23.3119 50.8446 23.699 51.7479 24.3442C53.9414 25.8926 55.6189 27.8281 56.264 30.6668C57.5544 36.2153 54.4576 40.3443 48.7801 40.4734C46.8446 40.6024 44.9091 40.6024 43.1026 40.3443C41.1671 40.0863 39.4897 39.183 37.5542 38.6669C35.7477 38.0217 37.2961 39.9572 36.5219 40.2153C33.6832 39.8282 31.2316 38.925 30.1993 35.9572C27.6186 31.9572 23.2315 29.6346 20.6508 25.6345C18.1992 21.8926 16.0056 18.0216 14.9734 13.6344C14.5863 11.957 14.3282 9.76345 16.1347 8.73118C18.0702 7.69892 18.8444 9.89248 20.0057 10.9247C25.4251 15.828 31.3606 19.9571 38.8445 21.2474Z" fill="#CAC8BA"/>
<path d="M13.8117 142.797C11.231 142.926 9.81168 141.894 10.4568 139.184C11.6181 134.281 10.973 128.474 15.8762 124.99C16.5214 125.636 16.2633 126.281 16.2633 126.281C17.1666 124.603 19.2311 123.313 21.6827 122.281C25.0376 121.507 28.3925 120.861 31.4893 123.313C32.7796 129.636 32.2635 135.829 29.4247 141.765C25.5537 139.7 20.6505 142.41 16.7795 139.313C16.0053 138.668 12.1343 137.636 14.1988 141.636C14.3278 142.152 14.1988 142.539 13.8117 142.797Z" fill="#8F7050"/>
<path d="M155.361 43.8284C155.361 68.9898 155.49 94.1513 155.49 119.313C155.49 122.668 155.361 125.765 158.2 128.216C155.103 128.732 155.748 131.184 155.49 133.248C155.232 136.216 154.845 136.474 152.651 135.442C151.877 133.119 152.135 130.668 152.135 128.345C152.135 104.087 152.135 79.9577 152.135 55.6994C152.135 53.893 152.264 52.0865 152.006 50.28C151.748 48.6026 151.103 47.4413 149.039 47.8284C146.845 49.1187 147.619 51.3123 147.619 53.1188C147.619 75.0544 147.619 96.9901 147.619 118.926C147.619 121.119 148.006 123.442 146.716 125.506C146.2 126.023 145.684 126.023 145.168 125.506C144.78 102.151 145.168 78.9254 145.038 55.5704C145.038 52.0865 145.038 48.7316 145.038 45.2477C144.909 43.1832 146.458 43.3122 147.748 43.4413C150.071 43.5703 152.78 43.3122 155.361 43.8284Z" fill="#5B5043"/>
<path d="M118.458 120.861C120.006 120.603 121.684 120.474 121.555 122.797C121.426 125.119 122.2 125.893 124.522 125.893C129.942 126.151 135.49 124.732 140.781 126.797C141.426 127.055 142.458 126.409 143.361 126.151C144.264 127.7 143.103 128.345 142.2 128.861C140.393 129.764 141.039 130.926 141.555 132.087C141.813 133.119 141.813 134.151 141.555 135.184C139.877 137.893 141.039 140.861 140.652 143.7C140.393 145.764 144.135 144.732 143.49 147.184C143.103 147.442 142.716 147.7 142.329 147.829C135.748 150.926 129.297 149.248 122.845 147.7C120.651 147.184 118.974 146.668 117.167 148.474C115.748 150.023 113.555 149.894 111.748 149.635C108.78 149.119 107.103 149.635 107.619 153.119C107.748 154.539 108.135 156.603 105.554 156.732C102.458 150.023 102.974 147.442 108.264 144.474C109.425 144.087 110.2 143.184 110.587 142.023C110.974 140.861 112.006 140.603 113.038 141.248C113.813 142.152 113.684 143.184 113.813 144.474C114.071 142.152 113.942 139.829 117.038 141.635C117.942 142.152 118.974 142.41 120.006 142.41C122.2 142.152 124.135 142.926 126.071 143.442C128.78 144.216 130.458 143.184 130.458 140.087C130.458 139.184 130.458 138.281 130.458 137.377C130.458 128.99 130.458 128.99 122.458 129.248C121.942 129.119 121.426 128.474 120.909 128.474C117.426 128.087 116.264 126.539 118.071 123.313C118.2 122.926 117.942 122.409 117.813 122.022C117.684 121.635 117.684 121.248 117.813 120.861C118.2 121.248 118.329 120.99 118.458 120.861Z" fill="#435340"/>
<path d="M36.5215 40.2157C36.1344 38.9254 34.0698 38.9254 33.9408 36.9899C36.9086 36.7318 39.2312 38.5383 41.9409 39.3125C45.4248 40.7318 49.1667 39.0544 52.9087 40.2157C52.0055 42.2802 50.328 42.1512 48.7796 42.2802C47.2312 42.4093 46.0699 42.7964 46.8441 44.7319C47.8764 47.9577 48.5216 51.4416 48.9087 54.7964C49.4248 60.3449 52.1345 65.2481 53.2958 70.5385C52.3926 71.8288 51.2313 72.345 49.6829 72.0869C46.7151 68.8611 45.1667 64.8611 44.9086 60.732C44.5215 56.0868 42.8441 51.8287 42.586 47.1835C42.328 43.3125 41.1667 42.9254 37.5537 44.7319C29.0375 49.119 22.1988 55.3126 17.6826 63.9578C16.7794 65.7643 16.9084 67.6998 16.3923 69.5063C14.3277 70.6675 13.8116 69.1192 13.4245 67.8288C12.9084 66.0224 11.8761 64.861 10.5858 63.5707C10.1987 63.1836 10.0696 62.7965 9.94061 62.4094C9.68254 61.5062 9.81158 60.6029 10.5858 59.9578C11.489 60.861 12.2632 61.8933 13.5535 63.1836C18.5858 52.4738 26.973 45.7641 36.5215 40.2157Z" fill="#405F4E"/>
<path d="M121.039 69.8928C121.039 70.1508 121.039 70.4089 121.168 70.667C123.49 74.796 122.974 79.3122 123.232 83.6993C122.587 85.1187 121.813 84.3445 121.039 83.9574C117.813 81.8929 118.458 84.4735 118.458 86.1509C118.587 91.0542 116.522 94.4091 112.006 96.4736C111.232 96.8607 110.329 96.9897 109.426 96.9897C108.78 96.9897 108.135 96.7317 107.619 96.4736C106.2 95.3123 105.942 93.6349 105.168 92.0865C105.039 91.6994 104.78 91.3123 104.651 90.9252C103.49 89.1187 103.49 87.4413 105.426 86.0219C111.103 82.667 111.232 82.2799 107.232 77.1186C104.651 73.8928 106.845 71.6992 108.91 69.5057C109.813 68.8605 110.845 68.4734 111.748 69.5057C113.684 71.9573 115.877 70.2799 118.071 69.8928C118.974 70.1508 120.135 67.3121 121.039 69.8928Z" fill="#213D37"/>
<path d="M38.8443 21.2473C35.2314 23.6989 32.6507 20.6021 29.941 19.3118C24.7797 16.9892 20.3925 13.2472 16.2635 8.08589C15.1022 14.7956 18.0699 19.3118 20.9087 23.828C23.2313 27.699 26.5861 30.7958 30.3281 33.3764C31.6184 34.2797 32.6507 35.1829 30.1991 35.8281C27.8765 36.3442 27.1023 34.2797 25.8119 33.1184C17.2957 26.0215 12.3925 17.1182 12.3925 5.76329C12.3925 4.21489 11.8763 2.15035 14.0699 1.63422C16.1344 1.11809 16.2635 3.31165 17.0377 4.47295C20.3925 9.11815 24.3926 13.1182 29.2958 16.086C31.8765 17.6344 34.9733 18.0215 37.4249 19.5699C37.9411 20.086 38.3282 20.7312 38.8443 21.2473Z" fill="#666560"/>
<path d="M10.457 62.667C14.1989 63.5702 13.4247 67.9574 15.8764 69.8929C20.6506 74.5381 22.199 80.8607 24.7797 86.5382C27.4894 92.4737 26.9732 94.9253 22.199 99.6996C20.6506 101.377 18.328 100.345 16.6506 101.377C16.0054 101.893 15.4893 102.409 14.7151 102.538C13.4247 102.409 13.0376 101.119 12.2634 100.474C11.3602 99.6996 10.3279 99.1834 9.42471 98.4092C8.39244 97.506 6.84404 96.9899 7.23114 95.0544C7.48921 94.2802 8.00534 93.506 7.87631 92.6027C7.10211 90.9253 7.36018 89.1188 7.36018 87.3124C7.36018 78.151 7.36018 68.8606 7.36018 59.6992C7.36018 58.5379 6.19888 56.6024 8.77954 56.2153C9.29568 57.5057 9.94084 58.667 10.457 59.9573C10.457 60.8605 10.457 61.7638 10.457 62.667C8.65051 64.9896 9.94084 67.5703 10.0699 70.0219C10.1989 75.6994 9.29568 81.3768 10.586 86.9253C11.8763 88.6027 13.2957 90.0221 13.4247 92.3447C13.4247 94.9253 14.1989 96.9899 17.4248 96.2157C20.2635 95.5705 21.6829 93.506 21.4248 90.5382C21.2958 88.8608 20.2635 87.4414 19.4893 86.022C16.0054 78.9252 12.3925 71.9574 9.81181 64.3444C9.68278 63.8283 10.0699 63.1831 10.457 62.667Z" fill="#294A35"/>
<path d="M49.1667 23.8281C45.5537 23.57 41.6827 24.6023 38.844 21.2474C39.3601 20.0861 40.5214 20.2152 41.5537 20.2152C56.1345 21.2474 70.8443 19.3119 85.425 20.0861C90.4573 20.3442 95.4896 20.9894 100.393 20.3442C100.393 21.6345 101.941 21.5055 102.457 22.4087C101.812 24.2152 100.135 24.6023 98.5864 25.1184C96.6509 23.57 94.7154 24.7313 92.7799 24.9894C80.5218 23.9571 68.2636 24.0862 56.0054 24.7313C54.0699 25.8926 52.9086 23.8281 51.2312 23.57C50.8441 23.441 50.457 23.312 49.9409 23.0539C49.4247 22.7958 48.7796 22.6668 48.2634 22.5378C48.6505 23.0539 49.5538 23.0539 49.1667 23.8281Z" fill="#686767"/>
<path d="M93.6831 24.2154C95.4896 23.1831 97.4251 22.0218 98.7154 24.8605C103.49 25.3767 105.167 29.1186 107.232 32.6025C109.296 36.2155 109.941 36.4735 113.296 34.0219C120.135 28.8606 122.458 21.7637 121.554 13.5056C121.425 12.0862 120.909 10.5378 121.167 9.11847C121.554 7.82814 121.683 6.53781 122.458 5.37651C122.845 4.98941 123.232 4.98941 123.619 5.37651C123.619 5.63457 123.748 5.89264 123.748 6.15071C125.941 12.9895 125.812 19.9573 123.748 26.796C121.167 33.8929 115.49 37.8929 109.167 41.1187C108.264 42.6671 108.006 45.6349 105.167 42.7962C103.877 36.2155 100.909 30.667 95.2315 26.667C94.4573 26.1509 93.6831 25.3767 93.6831 24.2154Z" fill="#66665F"/>
<path d="M137.168 31.1828C135.62 30.6666 134.587 29.2473 134.2 28.086C131.749 20.9891 131.878 13.7633 134.071 6.66644C134.587 5.11804 135.878 3.56964 137.813 3.18254C138.974 2.79544 140.007 2.27931 140.91 3.69868C138.587 7.31161 135.878 10.5374 136.265 15.4407C136.394 18.0214 137.942 16.473 138.587 17.2472C139.62 19.3117 139.491 21.2472 138.845 23.3117C136.265 23.9569 136.394 24.0859 137.813 26.9247C140.652 32.215 144.781 35.957 150.458 38.0215C151.362 38.4086 152.523 38.5377 152.523 39.957C149.684 42.5377 146.716 41.1183 143.749 40.0861C141.426 37.3764 137.297 35.6989 137.168 31.1828Z" fill="#6D6442"/>
<path d="M16.0058 100.603C17.2961 98.0225 19.7477 100.99 21.1671 99.4419C21.8123 99.958 22.1994 100.732 21.8123 101.377C19.7477 105.635 22.3284 108.216 25.0381 111.055C33.5543 120.216 44.6512 123.184 56.5222 124.216C58.4577 124.345 60.5223 123.829 61.9416 125.507C61.9416 126.023 61.8126 126.41 61.2965 126.797C57.8126 128.087 54.3287 127.442 50.8448 127.313C45.8125 125.765 40.3931 125.378 35.6188 122.797C33.6833 121.765 32.522 123.313 31.1027 123.571C27.8768 122.023 24.651 122.152 21.2961 123.442C20.78 122.926 19.7477 123.313 19.3606 122.539C19.7477 121.765 20.2639 120.99 21.1671 120.732C24.0058 120.345 26.9736 121.894 29.5543 119.7C29.5543 119.7 29.5543 119.442 29.5543 119.313C29.4252 119.184 29.2962 119.184 29.1672 119.055C25.0381 116.99 22.0703 113.636 19.3606 110.023C18.8445 107.7 15.4896 107.442 15.3606 104.861C15.7477 103.7 17.038 102.281 16.0058 100.603Z" fill="#3D5B47"/>
<path d="M15.8774 104.99C16.0065 107.442 19.7484 107.571 19.3613 110.41C17.5549 108.474 15.6194 108.216 13.0387 108.603C7.61929 109.635 3.61925 107.442 1.81279 103.442C0.00631869 99.1837 0.780519 94.9256 4.78055 91.4417C6.45799 89.8933 6.71605 88.3449 6.71605 86.2803C6.71605 77.119 6.58702 67.9576 6.71605 58.9253C6.71605 57.764 5.55475 55.3123 8.65155 56.3446C7.10315 57.3769 7.61929 59.0543 7.61929 60.4737C7.61929 69.1189 7.61929 77.7641 7.61929 86.5384C7.61929 88.6029 6.84509 91.0546 9.94188 92.0868C10.7161 92.3449 10.458 93.6352 9.42575 94.1514C6.19992 93.5062 5.29669 95.8288 4.39345 98.0224C4.26442 99.1837 4.39345 100.345 4.90959 101.377C7.36122 106.539 11.7484 105.506 15.8774 104.99Z" fill="#716A51"/>
<path d="M137.169 31.1829C137.943 34.9248 142.072 36.0861 143.491 39.1829C143.878 40.7313 145.685 41.6346 145.427 43.5701C145.427 70.9251 145.427 98.2802 145.298 125.506C144.911 125.764 144.524 125.635 144.265 125.377C144.265 98.9254 144.394 72.4735 144.394 45.8927C144.394 42.2797 141.556 39.57 139.491 36.8603C138.072 35.0539 137.04 33.5055 137.169 31.1829Z" fill="#726354"/>
<path d="M140.782 4.21514C140.008 3.05384 138.846 3.3119 137.814 3.18287C138.201 2.9248 138.459 2.66674 138.846 2.40867C146.201 0.344136 153.427 0.344136 160.782 2.27964C166.201 3.95707 168.008 7.9571 167.621 13.2475C167.363 16.9894 167.621 20.7314 167.492 24.4734C167.492 26.5379 166.33 28.0863 164.911 29.5057C163.621 28.4734 163.621 26.925 163.363 25.5056C163.75 21.3766 163.621 17.2475 163.621 13.1184C163.621 9.24743 162.072 6.27967 158.072 5.11837C152.782 3.95707 147.362 4.73127 141.943 4.73127C141.685 4.73127 141.298 4.60224 140.782 4.21514Z" fill="#787058"/>
<path d="M121.168 83.3125C121.684 83.5706 122.329 83.9577 122.845 84.2157C123.748 85.6351 123.232 87.0545 123.232 88.4738C121.942 92.4739 121.039 96.732 119.361 100.603C117.555 103.055 117.168 106.28 114.974 108.732C114.2 109.635 114.329 111.055 115.103 112.087C116.264 113.764 116.909 115.7 116.006 117.506C114.716 120.345 116.909 120.345 118.458 120.861C118.458 120.99 118.329 121.119 118.2 121.248C117.684 121.764 116.909 121.893 116.264 121.893C114.071 121.635 113.038 120.087 112.264 118.281C111.877 116.99 111.877 115.7 112.135 114.28C112.651 112.087 111.49 110.022 111.748 107.829C115.232 101.119 118.716 94.2803 119.232 86.5383C119.361 85.248 119.877 83.9577 121.168 83.3125Z" fill="#3F614F"/>
<path d="M144.265 125.507C144.652 125.507 145.039 125.636 145.297 125.636C145.555 125.636 145.813 125.636 146.072 125.636C146.975 126.41 147.233 127.313 147.233 128.345C147.362 134.281 147.362 140.216 147.233 146.152C147.233 147.184 146.975 148.475 145.943 148.862C144.652 149.249 143.878 148.216 143.491 147.055C142.33 145.765 139.104 146.797 139.362 145.507C140.265 142.152 137.555 138.539 140.523 135.571C142.33 136.345 143.233 135.958 143.233 133.765C143.233 131.7 142.459 131.055 140.523 131.958C138.588 130.281 137.813 128.861 141.297 128.345C142.459 128.087 143.104 127.442 143.362 126.281C143.749 125.894 144.007 125.765 144.265 125.507Z" fill="#2E4431"/>
<path d="M102.457 22.2798C101.425 21.8927 99.3606 22.7959 100.393 20.3443C110.458 18.2797 116.651 12.3442 119.361 2.40864C119.748 2.15057 120.135 2.15057 120.522 2.40864C121.296 4.08607 122.587 5.63447 122.329 7.699C120.393 9.2474 119.748 11.57 118.458 13.5055C115.619 17.5055 112.006 20.3443 107.619 22.2798C105.812 23.054 104.006 23.6991 102.457 22.2798Z" fill="#63625D"/>
<path d="M145.426 43.6993C145.039 42.1509 141.813 41.7638 143.49 39.3122C146.458 39.0541 149.426 41.8928 152.394 39.0541C152.652 37.1186 153.942 36.3444 155.62 35.6992C156.91 35.5702 158.716 35.5702 158.716 36.6025C158.845 38.9251 158.716 41.3767 156.265 42.7961C156.007 43.0541 155.749 43.4412 155.361 43.6993C152.007 45.5058 148.781 44.9896 145.426 43.6993Z" fill="#3B321E"/>
<path d="M23.748 186.023C20.1351 185.894 16.3931 186.281 13.1673 183.958C9.81245 177.894 10.9737 171.571 12.135 165.249C12.2641 165.12 12.5221 165.12 12.6512 164.99C13.8125 165.378 14.1996 166.281 14.5867 167.313C14.8447 168.216 14.7157 168.991 14.5867 169.894C14.0705 171.571 14.1996 173.12 14.8447 174.797C13.9415 181.765 19.2319 181.894 23.748 182.926C22.5867 184.862 22.5867 184.862 18.0706 183.958C20.1351 185.249 22.1996 183.958 23.8771 184.991C24.1351 185.249 24.1351 185.636 23.748 186.023Z" fill="#3C604C"/>
<path d="M13.8127 142.797C13.8127 142.41 13.9417 142.152 13.9417 141.764C16.5224 141.893 16.6514 143.958 17.2966 145.635C17.4256 147.313 16.5224 148.732 16.0063 150.281C14.845 153.635 15.4901 154.539 18.974 154.926C21.8128 155.184 24.9096 154.41 27.6193 155.958C28.3935 156.99 29.1677 158.023 28.0064 159.313C22.716 159.313 17.2966 159.7 12.0062 159.055C11.7482 154.926 12.2643 150.797 13.8127 146.926C13.9417 145.506 13.9417 144.087 13.8127 142.797Z" fill="#3E573B"/>
<path d="M121.038 69.8932C119.748 69.119 119.49 71.3126 118.329 70.6674C116.135 65.7641 113.684 61.1189 110.845 56.6028C110.716 55.1834 111.619 54.6673 112.651 54.2802C113.684 54.0221 114.2 54.7963 114.716 55.4415C117.684 59.9576 121.038 64.2157 121.038 69.8932Z" fill="#527361"/>
<path d="M156.136 42.925C156.652 41.8927 157.297 40.9895 157.684 39.9572C158.587 37.5056 158.071 36.0862 155.104 36.6023C158.587 33.3765 160.136 28.4732 164.394 25.8926C165.297 27.0539 164.91 28.3442 165.039 29.5055C164.007 34.2797 159.362 36.9894 158.2 41.7637C158.2 42.4088 157.168 43.054 156.136 42.925Z" fill="#756D49"/>
<path d="M153.426 136.345C155.104 134.539 154.33 132.345 154.201 130.281C153.943 126.41 155.233 126.152 158.072 128.087C158.33 128.087 158.588 128.216 158.846 128.474C159.362 129.248 160.523 129.894 159.62 131.184C159.233 131.313 158.846 131.442 158.459 131.442C158.201 131.442 157.814 131.313 157.555 131.571C155.491 133.636 155.878 140.474 158.33 142.668C158.717 142.797 159.104 142.926 159.491 143.055C159.749 143.184 159.878 143.442 159.878 143.7C159.878 143.958 159.749 144.087 159.749 144.087C158.717 145.12 157.555 146.281 156.523 147.313C154.33 148.087 153.555 146.668 153.297 144.861C153.039 143.313 153.168 141.636 152.652 140.087C152.394 138.797 152.265 137.507 153.426 136.345Z" fill="#3A4838"/>
<path d="M114.845 55.4413C114.2 55.1833 113.555 54.9252 112.91 54.6671C111.62 54.9252 111.233 53.8929 110.458 53.2478C108.91 51.3123 106.587 51.6994 104.652 51.1832C103.361 48.2155 105.168 45.6348 105.942 42.9251C108.136 44.3445 107.749 40.9896 109.297 41.1186C108.394 46.9251 111.62 51.1832 114.845 55.4413Z" fill="#979894"/>
<path d="M122.716 88.7319C122.716 87.1835 122.845 85.7641 122.845 84.2157C123.49 79.5705 120.91 75.3124 121.168 70.6672C122.458 70.9253 123.49 71.5705 123.49 72.8608C123.878 79.1834 124.265 85.6351 123.232 91.9577C123.103 92.7319 122.329 93.5061 121.813 94.1513C120.781 92.2158 121.813 90.4093 122.716 88.7319Z" fill="#B1B4B3"/>
<path d="M123.748 26.6668C125.297 19.828 125.168 12.8603 123.748 6.02148C124.91 6.53762 125.555 7.56988 125.555 8.86022C125.555 13.8925 125.555 18.9248 125.555 23.8281C125.555 25.1184 124.91 26.1507 123.748 26.6668Z" fill="#C9C7B8"/>
<path d="M13.9413 146.797C13.4252 150.797 12.909 154.797 12.3929 158.797C13.6832 160.862 13.9413 163.055 12.2639 165.12L12.1348 165.249C10.5864 158.926 10.7155 152.733 13.9413 146.797Z" fill="#3C604C"/>
<path d="M159.62 144.216C159.491 143.958 159.491 143.7 159.362 143.442C157.813 139.313 157.684 135.184 159.491 131.055C159.232 130.281 158.974 129.377 158.716 128.603C161.297 129.765 160.652 132.087 160.652 134.023C160.652 137.507 160.523 140.861 160.394 144.345C160.265 144.216 159.878 144.216 159.62 144.216Z" fill="#367855"/>
<path d="M19.3608 122.797C20.006 123.055 20.6511 123.442 21.2963 123.7C18.0705 124.474 16.7801 127.184 14.8446 129.635C13.6833 127.571 16.135 126.668 15.8769 124.99C17.0382 124.216 17.6834 122.668 19.3608 122.797Z" fill="#342821"/>
<path d="M29.1671 119.442C30.5864 120.087 29.9413 120.732 29.1671 121.248C26.4574 122.539 23.8767 122.668 21.167 120.99C23.6186 119.313 26.7154 121.119 29.1671 119.442Z" fill="#8F7050"/>
<path d="M122.716 88.7322C122.716 90.5386 121.426 92.2161 122.071 94.1516C121.813 96.6032 120.781 98.6678 119.361 100.603C120.523 96.7323 120.136 92.3451 122.716 88.7322Z" fill="#556E61"/>
<path d="M37.4252 19.4409C34.4575 18.9248 31.4897 18.1506 29.2961 15.957C32.2639 16.6022 35.2317 17.2474 37.4252 19.4409Z" fill="#CAC8BA"/>
<path d="M105.684 156.99C107.233 155.055 106.201 152.99 106.072 151.055C105.943 148.732 106.588 147.7 109.168 148.216C112.394 148.861 116.136 151.055 118.072 145.894C118.201 145.635 119.491 145.377 120.136 145.635C127.362 148.99 134.846 149.119 142.588 147.313C143.233 147.7 144.007 147.829 143.749 148.861C143.749 164.99 143.62 181.249 143.749 197.378C143.749 201.636 142.588 202.41 138.459 201.507C130.588 199.7 122.588 198.926 114.588 198.539C111.62 198.41 110.072 197.507 110.33 194.41C110.717 188.991 109.814 183.7 109.555 178.281C109.426 175.571 108.91 172.861 106.717 171.055C105.297 169.894 105.039 168.345 105.168 166.539C105.168 163.958 105.039 161.507 105.039 158.926C104.394 157.894 104.91 157.377 105.684 156.99Z" fill="#FEFEFD"/>
<path d="M103.878 169.636C107.62 173.12 108.136 177.507 108.265 182.281C108.523 187.829 108.91 193.378 109.426 198.797C109.684 202.023 108.652 203.055 105.426 203.055C96.6519 202.926 87.7486 203.055 78.9743 203.055C61.942 203.055 44.7805 203.055 27.7481 203.055C25.8126 203.055 22.8449 204.088 23.1029 200.217C23.8771 195.442 24.5223 190.668 24.6513 185.894C25.4255 184.991 26.0707 184.088 27.232 185.378C28.5223 188.088 28.0062 190.926 28.0062 193.765C27.8772 198.668 27.8772 198.668 32.9095 198.797C35.103 198.797 37.4256 198.797 39.6192 198.797C59.3613 198.797 79.1034 198.797 98.8455 198.797C105.684 198.797 105.684 198.797 104.781 192.217C104.265 188.604 104.523 184.991 104.394 181.507C104.265 175.184 102.975 173.894 96.6519 173.894C77.1679 173.765 57.8129 173.894 38.3289 173.894C36.0063 173.894 33.5546 174.281 31.3611 172.862C30.974 172.345 30.974 171.829 31.4901 171.442C54.5871 171.055 77.684 171.442 100.781 171.313C79.6195 171.313 58.329 171.313 37.1676 171.313C35.4901 171.313 33.8127 171.7 32.2643 170.926C31.8772 170.281 32.0062 169.894 32.6514 169.507C34.1998 168.604 35.7482 168.604 37.4256 168.604C58.071 168.604 78.7163 168.604 99.4906 168.604C100.265 168.604 101.039 168.733 101.684 168.862C102.458 168.604 103.233 168.991 103.878 169.636Z" fill="#513E2F"/>
<path d="M143.62 148.862C143.232 148.345 142.845 147.829 142.458 147.313C142.845 147.184 143.232 147.055 143.62 147.055C144.781 147.829 146.329 150.152 146.329 146.281C146.2 139.442 146.2 132.603 146.2 125.765C146.2 100.861 146.2 76.0867 146.2 51.1833C146.2 49.2478 145.297 46.7962 148.136 45.7639C149.555 47.3123 149.426 49.3768 149.426 51.3123C149.297 76.4738 149.297 101.764 149.297 127.055C149.297 150.797 149.168 174.668 149.555 198.41C149.426 201.378 146.974 200.733 145.297 201.12C144.265 199.572 144.781 197.894 144.781 196.346C144.781 182.023 144.781 167.7 144.652 153.378C144.652 151.958 145.297 150.152 143.62 148.862Z" fill="#726354"/>
<path d="M145.167 201.249C145.555 198.152 147.619 200.475 148.909 200.217C151.619 198.152 152.006 195.313 152.006 192.216C152.006 177.12 152.006 162.023 152.006 146.797C152.006 144.474 151.49 141.894 153.426 139.958C154.716 141.119 154.2 142.668 154.329 144.087C154.329 145.765 154.587 147.055 156.522 147.313C155.103 148.732 155.361 150.539 155.361 152.345C155.361 167.184 155.361 182.023 155.361 196.733C155.361 198.668 156.522 201.636 154.071 202.281C151.103 203.313 147.748 204.217 145.167 201.249Z" fill="#5B5043"/>
<path d="M105.684 156.991C105.426 157.636 105.039 158.281 104.78 158.926H104.393L104.006 159.055C103.748 159.055 103.49 159.184 103.232 159.184C92.9094 159.442 82.5868 159.184 72.2641 159.313C70.9738 159.313 69.5544 159.313 68.3931 158.539C67.877 158.152 67.7479 157.636 68.006 157.12C69.8125 155.571 71.877 155.958 73.9415 155.829C81.8126 155.7 89.8126 155.958 97.6837 155.829C102.071 155.7 103.103 154.797 102.587 150.41C101.684 143.313 100.78 136.216 100.78 128.99C100.78 127.055 99.8772 125.248 98.7159 123.571C99.4901 119.571 101.813 121.377 103.877 122.281C104.264 122.539 104.651 122.926 104.91 123.442C106.587 128.216 106.845 133.248 107.103 138.281C107.232 140.99 107.748 143.571 109.555 145.636C102.716 147.571 105.555 152.603 105.684 156.991Z" fill="#4B3A2B"/>
<path d="M103.878 169.636C103.232 169.636 102.587 169.507 101.942 169.507C101.426 168.99 101.168 168.216 101.039 167.571C99.7485 161.248 99.7485 161.248 93.4259 161.248C75.3612 161.248 57.2966 161.248 39.2319 161.248C36.9093 161.248 34.4577 161.636 32.2641 160.216C31.748 159.7 31.748 159.184 32.1351 158.668C32.6512 158.281 33.1673 157.894 33.6835 157.894C45.0384 157.765 56.3933 156.99 67.7483 158.281C71.2322 158.668 74.587 158.41 78.0709 158.41C86.5871 158.539 95.1033 158.41 103.62 158.539C103.749 158.668 103.878 158.797 104.007 159.055C104.007 162.539 104.007 166.152 103.878 169.636Z" fill="#6D634C"/>
<path d="M24.7797 185.765C25.0378 190.668 24.6507 195.442 23.1023 200.087C22.4571 195.313 24.9087 190.668 23.7474 185.894L24.0055 185.507C24.3926 185.507 24.6507 185.507 24.7797 185.765Z" fill="#3C604C"/>
<path d="M51.8766 23.054C54.3282 21.2475 53.1669 24.9895 54.5863 24.8605C58.0702 26.4089 59.6186 29.3766 59.3605 34.1509C59.1025 38.2799 56.1347 42.0219 52.2637 42.7961C50.0701 43.3122 47.8766 43.8284 45.812 44.6026C43.7475 42.409 45.2959 41.6348 47.2314 41.1187C48.7798 40.7316 50.4572 41.5058 52.2637 40.4735C49.425 40.4735 46.7153 40.2154 44.1346 40.6025C42.8443 40.7316 42.1991 40.6025 42.0701 39.3122C44.0056 39.3122 45.9411 39.4412 47.8766 39.4412C50.8443 39.5703 53.554 39.3122 54.9734 36.0864C56.3928 32.8605 55.6186 30.0218 53.554 27.4411C52.7798 26.5379 51.8766 25.7637 51.1024 24.8605C51.4895 24.4734 51.6185 23.6992 51.8766 23.054Z" fill="#686861"/>
<path d="M51.8766 23.054C52.3927 24.0862 52.5217 24.8604 50.9733 24.8604C50.3282 24.4733 49.812 24.2153 49.1669 23.8282C48.2636 23.4411 47.3604 22.9249 46.3281 22.5378C48.3927 21.8927 50.0701 22.1507 51.8766 23.054Z" fill="#63625C"/>
<path d="M103.748 158.539C102.329 160.216 100.651 158.797 99.103 158.797C76.7802 158.926 54.3284 158.926 32.0057 158.926C30.7153 160.603 29.554 160.345 28.5218 158.668C28.1347 157.765 27.7476 156.991 27.4895 156.087C26.0701 154.41 26.5863 152.474 26.8443 150.539C27.7476 144.216 26.1992 142.797 20.2636 144.732C19.1023 145.119 18.0701 145.765 16.7797 145.378C15.8765 144.087 14.8442 142.926 13.941 141.636C12.3926 141.507 10.4571 141.248 11.6184 139.184C12.9087 136.99 16.2636 136.861 17.4249 137.894C19.8765 140.087 21.683 140.474 24.7798 139.055C26.3282 138.281 27.6185 140.345 28.3927 141.636C32.3928 143.442 31.2315 146.926 31.1024 150.152C30.7153 152.087 29.9411 154.023 31.7476 155.829C33.0379 156.862 34.5863 156.732 36.1347 156.603C44.0058 156.345 52.0058 157.378 59.8769 156.087C61.6833 155.055 63.6188 154.797 65.6834 155.313C66.9737 155.7 67.4898 156.862 68.135 157.894C78.5867 157.894 89.0384 157.894 99.4901 157.894C100.78 158.023 102.329 157.507 103.748 158.539Z" fill="#253322"/>
<path d="M30.1983 150.668C30.0693 147.571 30.9725 144.346 28.3918 141.765C30.9725 136.087 30.8435 129.894 30.9725 123.829C31.3596 121.636 32.908 120.216 34.7145 121.378C39.4887 124.216 45.0371 124.345 50.0694 126.41C49.4243 127.442 48.263 127.7 47.2307 127.958C46.8436 128.087 46.3275 128.087 45.8113 128.087C43.4887 127.829 41.1661 127.313 38.9726 126.41C36.2629 125.249 35.3596 126.281 34.9725 128.991C34.1983 135.055 33.2951 140.991 32.3919 147.055C32.2628 148.475 32.6499 150.539 30.1983 150.668Z" fill="#3E2F20"/>
<path d="M153.426 139.958C153.426 158.41 153.297 176.991 153.426 195.443C153.426 198.797 152.652 200.733 149.039 200.217C147.749 198.668 148.136 196.862 148.136 195.056C148.136 174.152 148.136 153.12 148.136 132.216C148.136 103.442 148.265 74.5384 148.265 45.7639C152.652 44.8607 153.555 46.9252 153.555 50.9253C153.426 79.4416 153.555 107.958 153.555 136.474C153.426 137.636 153.426 138.797 153.426 139.958Z" fill="#B1926F"/>
<path d="M121.942 129.119C123.232 128.861 124.522 128.474 125.813 128.345C130.071 127.958 131.619 129.248 131.619 133.506C131.619 135.7 131.619 138.022 131.619 140.216C131.619 145.248 129.167 146.926 124.522 144.732C122.974 143.958 121.425 144.087 120.006 143.7C117.425 141.893 116.651 138.926 115.877 136.087C115.232 133.377 117.941 130.538 121.942 129.119Z" fill="#41966B"/>
<path d="M109.426 145.377C107.491 145.248 105.813 144.861 105.942 142.409C106.2 135.829 104.523 129.506 104.265 123.054C107.62 120.474 111.491 121.635 115.104 122.022C117.168 122.28 116.781 123.958 116.523 125.506C117.039 128.474 118.459 131.442 115.491 134.022C114.717 134.667 115.362 135.7 115.749 136.474C117.039 139.313 116.007 140.99 113.039 141.635C112.265 141.764 111.362 142.151 111.749 142.925C112.394 145.377 110.846 145.377 109.426 145.377Z" fill="#977554"/>
<path d="M112.91 141.635C114.717 139.958 116.523 138.539 113.942 135.958C112.91 134.926 113.168 133.764 114.459 132.99C118.071 130.926 116.394 128.732 114.846 126.409C116.136 124.861 117.039 123.184 118.459 121.893C122.201 123.958 118.201 125.377 118.071 126.926C118.846 128.99 122.846 124.474 122.201 129.119C120.136 130.022 119.233 132.216 117.684 133.764C115.362 135.958 119.233 138.022 118.975 140.603C118.846 141.506 120.523 142.41 120.394 143.7C118.717 143.571 116.265 146.281 116.394 141.764C114.2 143.442 115.878 144.603 115.878 145.764C115.878 146.668 116.007 147.7 114.846 147.829C113.684 147.958 113.297 147.184 113.297 146.152C112.91 144.603 112.91 143.184 112.91 141.635Z" fill="#2C3626"/>
<path d="M138.329 137.249C138.329 139.313 138.329 141.378 138.329 143.571C138.329 144.991 137.555 146.281 136.006 146.281C134.587 146.281 134.071 145.12 133.942 143.829C133.942 139.442 133.942 135.184 133.942 130.797C133.942 129.377 134.458 128.087 136.264 128.216C138.071 128.345 138.329 129.636 138.329 131.055C138.329 133.119 138.2 135.184 138.329 137.249Z" fill="#CBBC63"/>
<path d="M140.652 131.829C141.039 130.539 141.555 129.119 143.233 129.377C145.168 129.764 144.394 131.442 144.523 132.603C144.652 133.377 144.652 134.023 144.523 134.797C144.394 135.958 145.168 137.635 143.103 137.894C141.297 138.152 141.039 136.603 140.652 135.313C140.652 134.281 140.652 133.119 140.652 131.829Z" fill="#55AB82"/>
<path d="M118.329 121.893C118.071 124.216 116.394 125.248 114.716 126.41C116.136 123.442 115.62 122.152 112.007 122.668C109.426 123.055 106.716 122.926 104.136 123.055L103.878 122.797C104.394 120.345 106.458 120.99 108.007 120.732C110.716 120.345 113.426 121.248 116.136 121.248C116.781 121.248 117.426 121.248 118.071 121.248C118.329 121.506 118.329 121.764 118.329 121.893Z" fill="#4B3A2B"/>
<path d="M45.6833 44.6023C46.0704 43.0539 46.7156 42.0217 48.7801 42.1507C53.1673 42.5378 56.5221 40.3442 57.8125 36.4732C59.3609 32.2151 58.3286 27.957 54.5866 24.8602C55.1028 23.0538 56.6512 22.9247 58.1996 22.9247C70.0706 23.3118 81.9417 21.8925 93.6837 24.086C100.522 28.4732 105.684 34.0216 105.813 42.6668C106.2 45.3765 105.942 47.9572 104.652 50.5379C104.652 52.7314 102.716 53.6346 101.555 55.183C99.6193 56.9895 97.9418 59.1831 96.2644 61.2476C94.4579 63.4412 95.3612 64.7315 97.4257 65.7638C99.8773 66.9251 102.2 67.1831 104.781 66.1509C105.942 65.6347 106.974 64.6025 108.523 64.8605C110.845 66.1509 110.329 67.9573 109.297 69.7638C107.232 72.6025 105.684 74.9251 109.684 78.151C113.297 80.9897 111.619 84.2155 105.684 86.7962C103.232 87.5704 101.942 89.2478 101.426 91.6995C101.168 93.1188 100.91 94.7963 98.716 94.1511C97.0386 93.3769 95.4902 93.764 94.3289 95.0543C93.1676 96.3447 92.0063 96.0866 90.845 95.0543C89.6837 94.2801 88.6514 93.1188 87.103 94.2801C84.2643 96.3447 83.4901 93.893 82.8449 91.9575C81.9417 89.2478 80.3933 87.6994 77.5546 87.6994C73.0384 87.0543 68.5222 86.2801 65.8125 82.022C64.3932 79.0542 61.1673 78.5381 58.8447 76.8606C56.3931 75.1832 53.6834 73.7638 52.7802 70.667C47.6188 62.796 48.0059 53.3766 45.6833 44.6023Z" fill="#F0F0E7"/>
<path d="M61.6831 125.506C52.3927 125.506 43.3604 124.474 34.9733 120.216C29.0377 117.248 24.6506 112.732 20.3925 107.829C19.1022 106.41 19.2312 104.732 20.1344 103.313C20.9086 102.151 21.4248 100.99 21.2957 99.5708C27.3603 94.5385 25.4248 89.1191 22.457 83.4416C20.1344 79.0545 18.0699 74.4093 15.8763 70.0221C13.8118 65.635 16.9086 62.5382 18.8441 59.5704C23.7474 52.0865 30.4571 46.5381 38.7152 42.9251C41.2959 41.7638 42.5862 42.1509 42.9733 45.1187C43.7475 49.7639 44.9088 54.4091 45.425 59.0543C45.812 62.6672 46.8443 65.8931 48.6508 69.1189C49.1669 70.1512 49.8121 70.7963 48.9089 71.8286C46.8443 73.377 42.7153 72.9899 44.0056 77.6351C44.3927 79.1835 44.7798 80.6029 46.3282 81.119C49.554 82.1513 50.5863 83.9577 49.8121 87.1836C49.554 88.4739 50.1992 89.7642 50.8443 91.0546C55.6186 97.5062 61.9412 96.732 66.7154 89.1191C71.2316 85.7642 76.2639 87.4416 77.2962 92.732C77.5542 94.2804 78.0704 95.8288 78.5865 97.3772C79.2317 99.5708 79.3607 101.764 80.651 103.7C81.2962 104.732 82.3285 105.377 83.1027 106.28C84.7801 109.506 82.3285 109.893 80.2639 109.893C74.9736 110.022 69.6832 110.41 64.3928 109.635C61.5541 108.345 61.038 105.506 60.2638 102.926C59.4896 101.764 59.1025 102.539 58.7154 103.313C57.9412 107.313 56.2637 110.151 51.7476 110.668C49.425 110.926 48.0056 112.99 47.8766 115.571C47.6185 119.184 49.9411 120.603 52.7799 121.635C55.3605 122.281 58.0702 121.635 60.6509 122.152C62.5864 122.41 64.5219 123.184 61.6831 125.506Z" fill="#59B387"/>
<path d="M50.0702 91.4416C49.1669 90.9255 49.0379 89.8932 49.0379 89.119C49.0379 85.248 48.7798 82.4093 44.0056 80.7318C41.2959 79.8286 42.3282 75.4415 43.1024 72.8608C43.8766 70.1511 46.9734 71.9576 49.0379 71.4414C50.3282 71.1834 51.6186 70.9253 52.9089 70.6672C56.2638 74.0221 60.1348 76.7318 64.5219 78.4092C66.3284 79.0544 66.3284 79.9576 66.3284 81.377C66.5864 81.7641 66.7155 82.2802 66.4574 82.7964C64.909 84.3448 63.3606 84.8609 61.6832 82.9254C61.5541 82.2802 62.7154 81.248 61.9412 80.9899C57.6831 79.5705 54.3283 76.2157 49.9411 75.4415C49.0379 75.3124 47.7476 74.6673 47.3605 76.2157C46.9734 77.377 48.0056 78.0221 48.9089 78.5383C50.0702 79.1834 52.5218 78.4092 51.7476 81.1189C51.7476 81.8931 50.0702 80.3447 50.5863 82.0222C51.4895 85.119 52.0057 88.3448 50.0702 91.4416Z" fill="#2A4E38"/>
<path d="M79.6189 104.087C78.1995 102.151 77.9415 99.9578 77.9415 97.6352C77.4253 96.3448 77.0382 95.1835 78.0705 93.8932C79.7479 93.7642 81.2963 94.6674 82.5867 95.4416C84.9093 96.861 86.0706 96.0868 86.8448 93.7642C89.0383 93.7642 89.4254 95.5706 90.3287 97.119C90.9738 101.119 94.1997 99.3126 96.3932 99.6997C97.0384 99.4416 97.4255 101.119 98.3287 99.9578C98.8449 98.4094 98.1997 96.4739 100.135 95.5706C101.167 95.8287 102.2 96.4739 103.232 95.6997C103.619 95.5706 104.006 95.4416 104.264 95.4416C105.297 95.5706 106.458 95.3126 107.619 95.8287C108.393 95.9577 109.039 95.9577 109.813 96.0868C108.006 100.345 110.2 104.732 109.555 109.119C105.942 112.861 101.555 111.7 97.2965 110.797C95.8771 108.99 96.6513 107.7 98.1997 106.538C99.361 106.409 99.8771 107.571 100.909 107.958C102.2 108.345 103.748 108.603 104.393 107.184C105.168 105.506 103.748 104.861 102.458 104.345C101.426 104.732 102.587 100.474 100.264 103.313C99.49 104.345 98.5868 105.506 96.9094 104.99C96.6513 104.861 96.5223 104.474 96.1352 104.474C96.5223 104.732 96.7803 104.99 97.1674 105.377C96.9094 107.313 96.1352 109.119 94.8448 110.538C93.0384 111.829 90.8448 111.829 88.7803 111.571C81.8125 110.668 74.8447 110.926 67.7478 110.797C66.1994 110.797 64.0059 111.184 63.7478 108.474C69.5543 108.474 75.2318 108.603 81.0383 108.603C81.8125 108.603 83.1028 108.861 82.9738 107.571C82.9738 107.055 82.0705 106.538 81.5544 106.022C82.0705 104.99 83.2318 104.732 84.1351 104.345C85.4254 103.829 87.2319 103.313 84.6512 101.893C83.748 101.377 82.8447 100.861 81.9415 100.603C79.877 101.119 81.2963 103.442 79.6189 104.087Z" fill="#355641"/>
<path d="M109.296 108.474C108.006 104.345 105.554 100.087 109.554 96.0868C115.748 94.1513 118.071 90.7964 117.038 84.6028C116.651 82.6673 117.038 82.0221 118.845 81.377C120.909 80.6028 121.038 81.7641 121.167 83.1834C119.619 90.2803 118.845 97.6352 114.974 104.087C114.071 105.635 112.78 106.926 112.006 108.474C110.458 110.28 110.329 110.28 109.296 108.474Z" fill="#58AF84"/>
<path d="M111.362 56.4739C114.975 60.6029 118.201 64.861 118.459 70.7966C116.91 72.2159 114.717 71.5708 112.91 72.2159C110.975 72.8611 111.362 71.0546 111.233 70.0224C112.394 66.2804 111.362 62.6675 110.459 59.0545C110.33 58.0223 110.459 57.119 111.362 56.4739Z" fill="#57B084"/>
<path d="M104.006 95.8286C102.587 96.2157 102.974 98.9254 100.909 98.2802C100.135 98.0222 100.264 96.9899 100.264 96.3447C99.6188 95.3125 97.1672 95.3125 98.5866 93.2479C99.7479 93.8931 100.522 93.8931 100.393 92.2157C100.135 88.4737 102.07 86.9253 105.683 86.9253C103.877 88.2156 105.167 89.506 105.683 90.6673C104.522 92.0866 105.683 94.4092 104.006 95.8286Z" fill="#7E7F7A"/>
<path d="M113.942 84.0867C115.619 88.2157 113.942 90.2803 111.49 92.3448C110.2 93.3771 109.425 92.8609 108.522 91.9577C107.49 90.7964 107.619 89.7641 108.909 89.119C110.845 87.9577 112.264 86.2802 113.942 84.0867Z" fill="#295967"/>
<path d="M111.748 75.4415C114.071 76.8608 115.877 71.1834 118.071 75.0544C118.845 76.4737 118.716 78.7963 116.523 79.5705C113.168 80.8609 112.91 77.7641 111.748 75.4415Z" fill="#3D9064"/>
<path d="M111.361 58.9253C112.393 62.5382 114.845 66.2802 111.232 69.7641C110.587 68.8609 109.941 69.7641 109.425 69.7641C108.78 68.3447 110.845 65.8931 107.748 65.377C107.619 62.6673 110.329 61.2479 111.361 58.9253Z" fill="#4C705D"/>
<path d="M104.006 95.8287C104.78 94.1513 102.07 91.4416 105.683 90.5383C105.812 90.7964 105.941 91.0545 105.941 91.1835C105.683 92.99 108.264 95.8287 104.006 95.8287Z" fill="#C4C4C2"/>
<path d="M104.006 95.8287C107.361 95.4416 105.039 92.7319 105.942 91.3125C106.845 92.7319 107.361 94.2803 107.361 95.9577C106.2 96.3448 105.168 97.8932 104.006 95.8287Z" fill="#7E7F7A"/>
<path d="M10.4572 64.4735C14.1991 72.6026 17.8121 80.8607 21.9411 88.7317C23.6186 91.9576 22.1992 93.764 20.6508 95.8286C18.9734 98.1511 16.3927 97.7641 14.0701 97.377C11.8765 96.9899 12.2636 94.9253 12.2636 93.3769C12.2636 91.3124 12.5217 88.9898 9.55393 88.6027C8.65069 80.9897 9.29586 73.1187 9.16683 65.3767C9.16683 64.7315 9.81199 64.3444 10.4572 64.4735Z" fill="#41976B"/>
<path d="M4.00494 101.248C2.97267 100.216 3.4888 98.9253 3.35977 97.764C4.90817 96.8608 5.55334 94.4091 8.00497 95.0543C7.7469 96.9898 10.0695 96.3446 10.5856 97.5059C10.1985 98.1511 9.2953 98.9253 10.0695 99.8285C11.1018 100.99 12.134 100.087 13.1663 99.6995C14.5857 99.8285 13.9405 101.635 14.9728 102.151C14.0695 105.893 11.1018 107.054 8.00497 104.861C6.45657 103.829 5.4243 102.28 4.00494 101.248Z" fill="#7D7654"/>
<path d="M4.00537 101.248C5.55377 100.99 6.457 102.151 7.36024 103.055C10.199 105.764 12.7796 105.893 14.8442 102.151C15.2313 101.635 15.6184 101.119 16.0055 100.603C18.4571 101.635 18.4571 102.28 15.8764 104.99C10.328 108.216 6.97314 107.184 4.00537 101.248Z" fill="#C4BB62"/>
<path d="M10.4576 64.4737C8.65118 67.1834 9.68345 70.2802 9.68345 73.1189C9.55441 78.2803 9.68345 83.5706 9.68345 88.732C7.74795 85.5061 9.03828 82.0222 8.90925 78.6674C8.65118 74.5383 8.78021 70.2802 8.90925 66.1511C8.90925 64.7318 8.52215 63.0543 10.7157 62.6672C10.4576 63.3124 10.4576 63.8285 10.4576 64.4737Z" fill="#405F4E"/>
<path d="M13.0383 99.6998C13.0383 101.506 12.006 102.539 10.1995 102.022C9.16726 101.764 8.00596 100.861 7.87693 99.5708C7.61886 97.5062 9.29629 97.7643 10.4576 97.6353C11.3608 98.2804 12.135 99.0546 13.0383 99.6998Z" fill="#C4C6C9"/>
<path d="M7.87665 95.1835C6.07018 95.6996 5.68308 98.4093 3.23145 97.8932C3.23145 95.1835 5.55405 94.2803 7.10245 92.8609C8.26375 91.9577 9.42505 92.3448 9.42505 94.1512C8.90891 94.4093 8.39278 94.7964 7.87665 95.1835Z" fill="#BFBA67"/>
<path d="M102.458 22.2797C110.845 21.2474 116.136 15.9571 119.878 8.98927C120.394 8.08604 120.394 6.92474 121.813 7.957C122.2 8.08604 122.329 8.21507 122.2 8.34411C122.2 8.60217 122.071 8.60217 121.942 8.60217C123.491 15.828 123.491 22.7958 119.232 29.2475C117.168 32.4733 114.458 34.925 111.103 36.7314C109.168 37.8927 108.136 37.7637 107.103 35.3121C105.426 30.9249 102.845 27.0539 98.5872 24.7313C99.1033 22.7958 101.426 23.441 102.458 22.2797Z" fill="#C9C7B8"/>
<path d="M164.523 25.7637C161.555 29.5057 160.007 34.409 155.233 36.4735C154.329 37.3767 153.426 38.1509 152.394 39.0542C143.362 37.8929 134.974 29.2476 136.265 22.0218C137.684 22.0218 136.91 23.8282 138.071 24.0863C140.394 24.0863 143.491 27.1831 144.91 24.6024C146.2 22.0218 142.329 20.7314 140.652 18.7959C140.007 18.0217 138.974 17.6346 138.2 16.9895C136.781 17.5056 137.684 19.183 136.523 19.8282C134.071 12.2152 135.362 7.44101 140.91 4.21518C141.168 4.21518 141.555 4.21518 141.813 4.21518C142.845 3.57001 143.878 3.95711 144.91 3.82808C147.362 4.34421 149.555 4.98938 146.716 7.82811C145.168 9.37651 146.071 10.7959 146.975 12.2152C147.62 13.2475 147.878 14.4088 148.007 15.5701C148.136 16.9895 148.781 17.8927 150.2 17.8927C151.62 17.8927 152.523 17.2475 152.652 15.8282C152.781 13.5056 154.2 11.5701 154.071 9.24748C154.717 7.44101 151.749 5.63454 153.813 3.69904C155.491 3.82808 157.168 3.31194 158.846 4.08614C162.846 4.73131 164.781 7.57004 165.039 11.183C165.297 16.0862 165.684 20.9895 164.523 25.7637Z" fill="#F8DC72"/>
<path d="M138.199 16.9895C140.522 16.9895 146.716 21.7637 146.974 23.8283C147.232 25.1186 146.457 25.7638 145.425 26.1509C142.328 27.5702 140.006 26.667 138.07 24.2154C138.07 21.7637 138.199 19.3121 138.199 16.9895Z" fill="#434730"/>
<path d="M61.6834 125.506C63.2318 123.184 61.9415 122.797 59.877 122.668C57.1673 122.539 54.3285 123.184 51.6188 122.152C51.7479 121.894 52.0059 121.765 52.135 121.506C56.5221 120.345 60.9092 119.958 65.1673 122.152C66.8447 127.184 67.3609 132.603 70.1996 137.249C70.3286 138.41 70.5867 139.571 70.1996 140.732C69.4254 143.442 66.1996 144.474 64.006 142.797C62.5867 141.765 61.6834 140.087 59.6189 140.345C54.5866 136.99 49.6833 133.378 47.2317 127.442L47.3607 127.313C51.3608 127.442 55.3608 126.797 59.3608 127.055C60.7802 127.184 62.3286 126.41 63.4899 127.7C62.8447 130.023 60.5221 128.99 58.9737 129.765C60.264 131.958 62.4576 133.248 63.7479 135.184C62.7157 133.248 61.6834 131.184 62.8447 128.99C64.7802 126.797 61.8124 127.442 61.5544 126.539C61.6834 126.023 61.6834 125.765 61.6834 125.506Z" fill="#493A24"/>
<path d="M61.6831 126.41C62.5863 126.797 64.9089 125.894 63.3605 128.345C59.4895 125.894 55.3604 127.442 51.6185 127.958C49.812 128.216 48.7797 127.184 47.3604 127.313C48.0055 126.281 49.0378 126.539 49.941 126.41C53.9411 126.41 57.8121 126.41 61.6831 126.41Z" fill="#241E13"/>
<path d="M166.072 24.7314C166.072 20.6024 166.072 16.4733 166.072 12.2152C166.072 11.312 166.201 10.5378 166.588 9.63452C166.588 14.6668 166.588 19.5701 166.588 24.6024C166.459 24.6024 166.201 24.7314 166.072 24.7314Z" fill="#554D3E"/>
<path d="M112.91 113.893C112.91 115.313 112.91 116.732 112.91 118.28C112.781 119.184 112.265 119.829 111.361 120.345C105.813 121.893 100.135 121.248 94.458 121.377C81.2966 121.764 68.1352 121.506 54.9738 121.119C54.0705 121.119 53.1673 121.248 52.2641 120.861C49.8124 119.958 48.135 118.409 48.135 115.571C48.135 112.99 49.9415 111.571 52.2641 110.926C55.4899 110.151 58.8448 110.667 62.0706 110.538C77.5546 110.28 93.0386 111.571 108.652 110.796C110.845 110.796 112.781 111.313 112.91 113.893Z" fill="#42986D"/>
<path d="M112.91 113.893C112.006 111.699 110.071 111.958 108.264 111.958C90.3288 111.958 72.3932 111.958 54.4576 111.958C51.8769 111.958 49.2963 112.216 49.2963 115.441C49.2963 118.667 51.4898 120.087 54.7157 120.087C72.3932 120.087 89.9417 120.087 107.619 120.087C109.039 120.087 110.458 119.441 112.006 119.183C112.265 121.506 110.716 121.506 109.168 121.506C93.5547 122.022 77.9417 123.312 62.3286 121.635C58.9738 121.248 55.4899 120.99 52.135 122.022C52.006 122.151 51.8769 122.151 51.7479 122.151C48.393 121.377 46.5865 119.312 46.4575 115.829C46.3285 112.99 47.6188 109.893 50.4576 109.635C55.4899 109.119 56.9092 105.893 58.0705 102.022C58.8447 102.538 59.1028 103.312 59.1028 104.216C59.1028 104.861 58.9737 104.087 59.1028 104.603C59.2318 105.377 58.8447 106.151 59.4899 106.796C59.4899 106.151 59.3609 105.377 59.3609 104.732C59.6189 103.441 59.6189 102.151 60.7802 101.248C61.6835 103.57 62.5867 106.022 63.4899 108.345C63.619 108.474 63.619 108.732 63.748 108.732C74.0707 109.248 84.5224 110.925 94.845 109.377C95.6192 109.248 96.2644 109.764 96.7805 110.28C101.039 110.022 105.426 111.312 109.297 108.474C110.2 109.893 111.103 108.732 112.006 108.474C113.039 110.151 114.071 111.958 112.91 113.893Z" fill="#29553B"/>
<path d="M52.1357 122.022C53.4261 120.345 55.2325 121.248 56.7809 121.248C73.5553 121.119 90.3296 121.248 107.104 121.119C108.91 121.119 111.104 121.764 112.007 119.184C112.265 118.926 112.652 118.539 112.91 118.281C114.201 119.184 114.33 121.248 116.265 121.377C113.814 122.668 111.104 121.764 108.523 122.022C106.975 122.281 105.297 121.506 104.007 122.926C102.201 123.055 100.394 120.99 98.5877 122.926C97.8135 124.603 96.0071 125.119 94.9748 126.539C93.8135 128.216 94.9748 130.797 92.9103 132.087C89.5554 130.539 92.9103 126.023 89.4264 124.603C83.4908 123.958 77.5553 124.474 71.6198 124.345C69.4262 124.216 67.1036 124.603 65.2971 122.926C60.91 121.377 56.5229 122.152 52.1357 122.022Z" fill="#29281C"/>
<path d="M142.458 140.217C144.136 140.604 144.394 141.636 144.394 142.926C144.394 143.959 144.523 145.249 142.974 145.12C141.555 144.991 141.168 143.7 140.91 142.539C140.781 141.249 141.426 140.604 142.458 140.217Z" fill="#39845D"/>
<path d="M24.0066 183.184C23.7485 183.184 23.3614 183.184 23.1034 183.184C14.2001 183.184 14.2001 183.184 14.071 174.152C14.2001 174.023 14.3291 173.894 14.4581 173.636C16.7807 172.346 19.6195 173.636 21.9421 172.346C22.7163 171.7 23.4905 170.926 24.1356 170.023C25.0389 167.571 25.9421 164.862 29.555 166.797C30.2002 167.571 30.3292 168.604 30.3292 169.636C28.0066 173.507 25.426 177.249 25.555 182.023C25.555 182.668 24.9098 183.313 24.0066 183.184Z" fill="#40966A"/>
<path d="M28.5224 158.668C29.6837 158.926 30.845 159.571 32.0063 158.926C32.0063 159.184 32.0063 159.571 32.0063 159.83C33.8127 163.055 33.8127 166.281 32.0063 169.507L31.8772 169.894C30.1998 169.765 30.1998 168.475 30.1998 167.313C30.0708 164.991 28.6514 165.765 27.3611 166.023C26.4578 166.023 25.6836 166.152 24.9094 166.281C23.6191 166.41 22.4578 166.281 21.1675 166.41C18.8449 166.41 16.5223 166.668 14.0706 167.055C13.4255 166.41 12.9093 165.894 12.2642 165.249C12.2642 163.184 12.2642 160.991 12.3932 158.926C17.8126 157.507 23.232 157.765 28.5224 158.668Z" fill="#4C5836"/>
<path d="M14.1988 166.926C15.7472 164.603 18.3279 165.894 20.3924 165.12C22.1989 166.152 24.5215 166.668 23.6183 169.507C22.715 172.345 20.5215 173.249 17.6827 173.12C15.3601 172.991 13.4246 172.733 13.9408 169.636C14.0698 168.862 14.0698 167.829 14.1988 166.926Z" fill="#59B184"/>
<path d="M24.0054 183.184C24.2634 182.668 24.7796 182.152 24.6505 181.636C24.0054 176.733 26.0699 172.862 29.5538 169.636C31.1022 169.507 31.1022 170.539 31.2312 171.571C31.2312 171.829 31.2312 172.087 31.2312 172.345C28.6506 176.216 29.0377 180.991 26.7151 184.862C26.0699 185.12 25.4247 185.507 24.9086 185.765C24.6505 185.765 24.3925 185.636 24.1344 185.636C22.1989 184.087 19.7473 185.507 17.5537 184.475C19.6182 183.313 22.1989 184.991 24.0054 183.184Z" fill="#33402B"/>
<path d="M13.9412 169.765C15.4896 173.894 18.5864 172.862 21.1671 171.313C24.9091 168.991 21.5542 167.055 20.2639 165.12C21.8123 165.12 23.3607 165.12 24.78 165.12C25.5542 167.184 25.4252 169.249 24.651 171.313C24.0058 171.958 23.4897 172.475 22.8445 173.12C20.0058 174.668 16.78 172.862 13.9412 174.152C12.7799 172.733 12.6509 171.184 13.9412 169.765Z" fill="#173323"/>
<path d="M16.9083 145.507C18.7147 143.313 21.6825 143.313 24.0051 142.152C26.0696 141.12 28.7793 145.12 28.3922 148.604C28.0051 151.055 27.36 153.507 27.489 156.088C24.3922 156.088 21.2954 156.217 18.1986 156.088C14.3276 155.959 13.2953 154.41 14.5857 150.668C15.2308 148.991 16.1341 147.184 16.9083 145.507Z" fill="#41976B"/>
<path d="M111.362 58.925C112.394 62.4089 109.168 63.3122 107.749 65.5057C105.555 68.2154 102.587 68.2154 99.6197 67.6993C93.5551 66.667 92.6519 64.2154 96.5229 59.4412C98.0713 57.6347 99.6197 55.8282 101.168 54.1508C103.233 56.0863 99.8778 57.6347 100.781 59.5702C100.91 60.7315 98.7165 62.2799 100.652 63.0541C102.587 63.8283 104.781 63.4412 106.329 61.5057C107.491 59.9573 107.362 58.1508 107.878 56.4734C108.652 54.796 109.297 53.2476 111.362 52.7314C111.878 53.3766 112.523 54.0218 113.039 54.6669C112.523 55.3121 112.007 55.8282 111.491 56.4734C111.362 57.2476 111.362 58.1508 111.362 58.925Z" fill="#2D4346"/>
<path d="M158.846 143.571C155.878 144.862 154.975 143.7 155.233 140.732C155.491 138.152 155.362 135.442 155.233 132.732C154.975 128.861 156.394 129.119 158.846 130.926C159.62 135.184 159.491 139.313 158.846 143.571Z" fill="#367855"/>
<path d="M158.846 143.571C158.846 139.313 158.846 135.184 158.717 130.926C158.975 130.926 159.233 130.926 159.491 131.055C159.491 135.184 159.362 139.313 159.362 143.442C159.233 143.571 159.104 143.571 158.846 143.571Z" fill="#223B2E"/>
<path d="M111.233 52.7316C110.33 54.0219 109.426 55.1832 108.394 56.4735C106.072 54.9251 104.007 54.6671 102.459 57.6348C102.072 58.409 101.297 58.9252 100.265 59.0542C99.1038 58.9252 98.7167 58.409 99.6199 57.5058C100.523 56.6026 101.426 55.6993 101.039 54.1509C102.201 52.9896 103.491 51.8283 104.652 50.667C107.491 49.5057 109.684 50.1509 111.233 52.7316Z" fill="#2B3034"/>
<path d="M26.7152 184.862C27.4894 180.346 26.5861 175.313 31.2313 172.345C53.6831 172.345 76.1349 172.345 98.5867 172.345C104.006 172.345 105.684 174.023 105.813 179.571C105.942 185.378 105.296 191.184 107.232 196.862C108.006 198.926 106.845 199.959 104.78 200.088C103.619 200.088 102.329 200.088 101.167 200.088C77.9414 200.088 54.7154 200.088 31.4894 200.088C25.941 200.088 26.07 200.088 26.5861 194.668C26.8442 191.571 26.7152 188.217 26.7152 184.862Z" fill="#856244"/>
<path d="M32.135 169.507C32.135 166.281 32.135 163.055 32.135 159.829C53.9416 159.829 75.8773 159.829 97.684 159.7C101.039 159.7 102.329 160.732 102.071 164.087C101.813 165.894 101.942 167.7 101.942 169.507C85.1677 169.636 68.5224 169.765 51.7481 169.765C45.2964 169.765 38.7157 169.636 32.135 169.507Z" fill="#F8DA72"/>
<path d="M31.2318 171.571C30.7157 170.926 30.0705 170.281 29.5544 169.636C29.4254 168.733 29.4254 167.829 29.2963 166.926C29.0383 166.023 26.9737 166.926 27.6189 165.12C30.0705 163.442 31.4899 163.7 31.1028 167.055C30.9738 168.087 31.1028 169.12 32.006 169.765C33.4254 170.926 35.1028 170.41 36.7803 170.41C57.1675 170.41 77.4257 170.41 97.813 170.41C99.2324 170.41 100.781 170.41 102.2 170.41C102.2 170.668 102.2 171.055 102.2 171.313C78.458 171.571 54.8449 171.571 31.2318 171.571Z" fill="#292411"/>
<path d="M94.0706 124.732C95.619 124.087 97.0383 123.442 98.5867 122.926C100.78 122.797 101.167 124.087 101.555 125.893C102.845 131.958 101.555 138.023 102.974 144.087C103.619 146.926 104.006 149.894 104.006 152.861C104.006 155.829 102.974 157.119 99.8771 157.119C89.1673 156.99 78.5866 156.99 68.0058 156.99C67.4897 154.797 69.6833 153.765 69.9413 152.087C70.5865 150.539 70.1994 148.732 70.7155 147.184C72.0059 144.345 73.8123 144.603 76.0059 146.023C77.4253 147.055 78.7156 145.765 80.0059 145.894C82.7156 147.055 83.8769 149.894 86.0705 151.571C89.2963 154.023 90.1996 153.894 91.2318 150.152C91.748 148.474 92.5222 147.571 94.1996 147.7C95.748 147.313 95.4899 146.152 95.3609 144.99C94.4577 138.281 92.6512 131.571 94.0706 124.732Z" fill="#836143"/>
<path d="M70.7155 152.603C70.8445 154.668 68.651 155.442 68.0058 156.991C68.0058 157.249 68.0058 157.636 68.0058 157.894C67.3606 157.378 66.7155 156.733 66.0703 156.216C66.0703 155.442 66.0703 154.668 66.4574 153.894C66.9735 152.862 67.6187 152.216 68.651 151.7C69.5542 151.7 70.8445 150.41 70.7155 152.603Z" fill="#483823"/>
<path d="M47.3612 127.442C51.6193 131.571 55.7484 135.829 60.0065 139.958C62.7162 140.99 63.1033 142.539 61.0387 144.603C60.2645 145.378 59.4904 146.023 58.8452 146.797C56.9097 149.378 57.5548 151.7 59.1032 154.281C59.7484 155.313 61.5549 156.732 58.5871 157.378C50.5871 157.378 42.716 157.378 34.7159 157.378C33.1675 157.378 31.3611 157.894 30.1998 156.087C28.9095 154.281 29.0385 152.345 30.1998 150.539C32.7804 145.636 31.232 140.087 32.7804 134.926C33.6837 132.216 33.9417 129.377 33.8127 126.539C33.6837 124.087 34.5869 123.313 37.0385 124.216C40.5224 125.635 43.8773 126.41 47.3612 127.442Z" fill="#846144"/>
<path d="M59.877 156.99C55.4898 152.345 55.1027 149.894 58.0705 146.152C58.9737 146.152 60.135 145.506 60.5221 146.926C60.2641 153.249 60.2641 153.249 67.2319 154.41C67.2319 155.184 66.9738 155.829 66.1996 156.216C64.3931 156.474 62.4576 155.571 60.9092 156.99C60.5221 157.378 60.135 157.378 59.877 156.99Z" fill="#493A24"/>
<path d="M59.8771 156.99C60.1352 156.99 60.5223 156.99 60.7804 156.99C59.7481 158.281 58.3287 157.894 57.0384 157.894C49.4254 157.894 41.8125 157.894 34.1995 157.894C32.6511 157.894 30.7156 158.539 30.1995 156.087C33.9414 157.765 37.8124 156.861 41.5544 156.99C47.748 157.119 53.8126 156.99 59.8771 156.99Z" fill="#483823"/>
<path d="M76.1357 42.9252C73.1679 41.1188 72.0066 38.28 71.8776 35.0542C71.4905 29.5058 75.2324 25.6348 80.6518 25.6348C89.9422 25.6348 95.7487 35.0542 91.3616 43.0543C90.0713 45.3769 89.6842 47.0543 92.5229 48.6027C93.8132 49.2479 95.2326 50.2801 93.4261 51.9576C91.8777 52.7318 90.2003 52.0866 88.6519 52.3447C88.5229 52.3447 88.2648 52.2156 88.2648 52.2156C89.168 49.3769 88.1358 46.5382 88.5229 43.8285C87.3616 42.151 86.8454 44.3446 86.0712 44.2156C83.8777 44.3446 81.6841 44.7317 79.8776 42.9252C78.4583 41.6349 77.297 43.4414 76.1357 42.9252Z" fill="#532A1F"/>
<path d="M73.5544 67.8287C64.522 67.6997 57.8123 58.2803 61.0381 51.3125C62.1994 48.8608 63.2317 48.4737 65.2962 50.2802C69.2963 53.7641 73.4253 57.248 77.5544 60.7319C78.5867 61.6351 80.2641 62.2803 79.877 64.2158C79.4899 66.2803 77.5544 66.7965 76.006 67.4416C74.9737 67.9578 73.9415 67.8287 73.5544 67.8287Z" fill="#314347"/>
<path d="M87.1027 94.2803C87.1027 97.5062 86.4575 99.8288 82.8445 96.732C81.5542 95.5707 79.1026 96.861 78.7155 94.2803C76.78 92.99 76.5219 91.0545 77.9413 89.5061C78.9735 88.3448 77.6832 87.8286 77.9413 87.0544C81.8123 86.4093 83.2316 88.8609 84.0058 91.9577C84.3929 93.5061 84.78 95.4416 86.9736 93.119C87.2317 93.3771 87.2317 93.5061 87.2317 93.7642C87.1026 94.1513 87.1027 94.2803 87.1027 94.2803Z" fill="#848681"/>
<path d="M98.5862 93.1191C98.3281 94.6675 100.135 95.0546 100.264 96.2159C98.3281 97.5062 100.651 100.087 98.7153 101.377C97.554 102.28 98.8443 97.8933 96.7798 100.474C95.4894 100.474 94.0701 100.861 92.9088 100.99C89.6829 101.635 89.2958 100.087 89.5539 97.6352C90.4571 96.603 90.07 94.9255 91.3603 94.1513C92.1345 94.6675 92.7797 95.8288 93.941 94.1513C94.9733 92.4739 96.5217 91.3126 98.5862 93.1191Z" fill="#7D7C78"/>
<path d="M77.8132 87.0543C77.8132 87.9575 81.4261 87.6995 78.5874 89.635C76.91 90.7963 78.3293 92.7318 78.5874 94.2802C77.4261 95.3124 78.0713 96.6028 77.8132 97.7641C76.5229 96.2157 76.1358 94.4092 76.0067 92.4737C75.8777 91.0543 76.0067 88.9898 74.2003 88.9898C71.8777 88.9898 69.168 86.022 67.2325 89.635C65.297 86.1511 68.0067 86.4091 70.8454 86.4091C70.7164 86.4091 69.9422 85.6349 70.0712 86.2801C67.6196 86.2801 66.2002 85.1188 66.2002 82.5381C66.2002 82.151 66.2002 81.893 66.3292 81.5059C68.7809 86.022 74.0712 84.9898 77.8132 87.0543Z" fill="#416451"/>
<path d="M76.135 42.9251C77.2963 41.5058 78.3286 39.3122 80.3931 42.151C81.8125 44.2155 84.2641 43.0542 86.0706 43.8284C86.1996 43.9574 86.1996 44.2155 86.3286 44.3445C86.1996 44.7316 85.9415 45.1187 85.5544 45.2478C84.3931 46.022 81.5544 45.2478 82.5867 48.2155C84.7802 48.7317 88.0061 48.2155 87.2319 52.2156C86.8448 53.5059 86.9738 54.9253 85.1673 55.6995C84.006 52.8607 81.8125 51.9575 78.8447 52.2156C77.4253 50.9252 77.8124 49.6349 78.4576 48.0865C79.1028 46.28 78.5866 44.8607 77.0382 43.6994C76.7802 43.4413 76.3931 43.1832 76.135 42.9251Z" fill="#6D2B17"/>
<path d="M78.7153 51.6991C81.0379 52.2152 84.3928 50.6668 85.296 54.7959C85.9412 53.6346 86.3282 52.7314 86.8444 51.8281C87.1024 51.441 87.4896 51.312 87.7476 51.8281C89.5541 51.8281 91.4896 51.8281 93.296 51.9572C91.2315 53.3765 87.7476 52.7314 86.9734 56.2153C86.8444 56.8604 85.167 57.3766 84.7799 56.3443C83.2315 52.6023 79.4895 53.3765 76.7798 52.0862C77.425 51.312 78.0701 51.312 78.7153 51.6991Z" fill="#54413B"/>
<path d="M78.7163 51.6995C78.0712 51.8286 77.426 51.8286 76.7809 51.9576C75.3615 51.1834 75.4905 49.764 76.3938 49.1189C78.7163 47.4414 77.6841 45.635 77.1679 43.6995C81.8131 45.5059 78.2002 49.1189 78.7163 51.6995Z" fill="#42322A"/>
<path d="M91.3607 94.1513C91.2316 95.5707 92.0058 97.3771 89.5542 97.6352C88.6509 96.4739 87.8767 95.3126 86.9735 94.1513C86.9735 93.7642 86.8445 93.5061 86.8445 93.119C88.78 91.6997 90.0703 92.99 91.3607 94.1513Z" fill="#535250"/>
<path d="M66.1992 82.4089C66.4573 82.796 66.7154 83.1831 66.9734 83.4412C68.0057 84.8606 71.4896 86.0219 67.3605 87.8283C67.1025 87.9574 67.2315 88.9896 67.2315 89.5058C65.9412 93.1187 63.7476 95.5703 59.6185 95.9574C55.4895 96.3445 52.0055 95.4413 50.07 91.3122C50.07 89.1187 50.07 86.9251 50.07 84.7315C50.1991 82.796 49.812 81.1186 47.3604 80.7315C48.9088 80.6025 50.4572 80.6025 51.8765 80.4734C55.4895 79.5702 58.7153 79.9573 61.6831 82.4089C63.2315 84.0864 64.6508 83.0541 66.1992 82.4089Z" fill="#1A3735"/>
<path d="M60.9098 101.248C60.6517 102.538 61.2969 104.087 59.8775 104.99C59.3614 105.377 58.8452 105.377 58.2001 104.99C58.2001 103.958 58.071 102.925 58.071 101.893C58.2001 100.99 57.942 99.9577 59.1033 99.6996C60.1356 99.4415 60.5227 100.474 60.9098 101.248Z" fill="#283D2B"/>
<path d="M79.6194 104.087C79.6194 102.409 79.3614 100.603 79.8775 99.0546C80.3936 97.3771 81.1678 98.0223 81.4259 99.4417C81.5549 101.764 82.9743 103.313 84.1356 104.99C83.4904 106.022 82.3291 105.764 81.2969 106.022C80.7807 105.377 80.1356 104.732 79.6194 104.087Z" fill="#1A301F"/>
<path d="M61.6832 82.5383C58.4574 81.8931 55.1025 81.248 51.8767 80.6028C50.5864 79.4415 49.038 80.0867 47.6186 79.6996C45.296 79.0544 45.425 77.1189 45.5541 75.3124C45.8121 72.7318 47.4896 74.0221 48.9089 74.1511C54.9735 74.7963 58.9735 79.6996 64.78 80.7318C64.2639 82.7964 62.8445 82.2802 61.6832 82.5383Z" fill="#3E8D65"/>
<path d="M102.199 103.829C104.006 102.925 105.554 102.538 105.812 105.506C106.07 107.7 105.941 109.635 103.102 109.248C101.425 109.119 98.4572 110.796 98.7152 106.925C98.9733 104.861 100.393 104.087 102.199 103.829Z" fill="#D5C468"/>
<path d="M102.199 103.828C101.038 104.861 99.8769 105.893 98.7156 106.925C97.1672 107.57 97.0382 108.99 96.7801 110.409C96.0059 110.409 95.3607 110.28 94.8446 109.506C94.5865 107.699 95.8769 106.409 96.6511 104.99C98.8446 103.957 99.7479 101.764 101.296 100.086C103.361 100.99 102.199 102.538 102.199 103.828Z" fill="#1B2417"/>
<path d="M84.1352 104.99C81.1674 104.087 79.49 102.668 81.4255 99.4419C82.5868 99.958 83.7481 101.119 84.9094 100.99C87.232 100.861 87.361 102.668 87.361 103.7C87.232 105.635 85.2965 104.474 84.1352 104.99Z" fill="#42946C"/>
<path d="M96.78 100.474C97.6833 99.0547 95.1026 96.345 97.1671 96.345C99.8768 96.345 98.3284 99.5708 98.8445 101.377C97.5542 102.151 97.1671 101.248 96.78 100.474Z" fill="#C8C9C5"/>
<path d="M96.7798 104.861C95.2314 104.732 93.5539 105.248 90.8442 103.7C93.683 103.442 95.4895 101.764 96.7798 104.861Z" fill="#458961"/>
<path d="M155.232 9.63455C155.619 12.4733 152.78 14.5378 153.812 17.6346C154.199 18.6669 151.361 19.5701 149.812 19.183C148.651 18.925 145.941 19.312 146.715 16.6024C147.232 14.9249 146.199 13.7636 146.07 12.3443C145.425 10.9249 145.812 10.2797 147.232 10.0217C149.683 12.2152 151.361 9.76358 153.425 8.86035C154.199 8.86035 154.715 9.11842 155.232 9.63455Z" fill="#F4843F"/>
<path d="M157.298 26.796C155.878 26.4089 153.814 26.5379 153.427 24.2153C153.169 22.925 159.749 16.3443 161.04 16.6024C162.975 16.9895 163.878 18.5379 163.878 20.4734C164.007 23.6992 160.652 26.796 157.298 26.796Z" fill="#454933"/>
<path d="M142.329 24.8603C140.523 24.4732 139.233 23.4409 139.104 21.2474C139.104 20.4732 139.491 19.4409 140.394 19.957C141.942 20.7312 143.62 21.7635 144.265 23.4409C144.523 24.6022 143.362 24.8603 142.329 24.8603Z" fill="#1E4D57"/>
<path d="M65.2963 122.925C73.9415 122.538 82.5868 122.409 91.232 122.925C91.6191 128.474 92.7804 133.893 94.0707 139.313C94.4578 140.732 95.232 143.442 91.8772 143.313C91.4901 143.055 91.103 142.797 90.8449 142.409C90.1997 141.893 89.4255 140.861 89.0384 142.538C88.6513 144.087 89.0384 145.764 89.2965 147.313C89.5546 148.603 89.6836 150.151 88.3933 150.926C86.7158 151.7 85.6836 150.409 84.6513 149.248C83.1029 147.313 81.4255 145.377 80.0061 143.442C77.5545 141.119 77.6835 145.506 76.0061 144.99C72.7802 143.829 70.4576 141.764 69.8125 138.28C66.9737 133.506 64.5221 128.603 65.2963 122.925Z" fill="#B0926F"/>
<path d="M69.8131 138.151C71.8776 140.216 73.9421 142.28 76.1357 144.474C76.9099 145.506 76.9099 146.409 76.0067 147.313C74.5873 146.409 73.1679 144.216 71.6195 147.184C70.9744 148.216 70.8453 150.022 68.9098 148.603C68.6518 148.345 68.3937 147.958 68.2647 147.571C67.7485 146.926 69.684 144.474 66.7163 145.377C65.2969 145.764 63.7485 145.506 62.3291 146.022C61.5549 146.28 60.7807 146.539 60.0065 146.41C59.3614 146.539 58.5872 147.313 58.071 146.28C58.7162 144.216 63.4904 143.442 59.8775 140.087C61.0388 136.861 61.942 139.829 62.8453 140.345C64.2646 141.119 64.6517 143.571 66.9743 142.797C69.2969 142.022 69.426 139.958 69.8131 138.151Z" fill="#483823"/>
<path d="M63.4896 128.345C62.9735 131.7 64.909 134.281 65.5541 135.829C63.4896 134.022 60.5218 131.184 57.425 128.345C59.2315 128.345 61.296 128.345 63.4896 128.345Z" fill="#825F46"/>
<path d="M58.1996 105.119C58.7157 105.119 59.3609 105.119 59.877 105.119C60.0061 105.377 60.1351 105.636 60.2641 105.894C61.0383 107.055 61.2964 108.345 60.1351 109.377C59.877 109.636 59.2319 109.765 58.9738 109.507C57.8125 108.732 58.0706 107.571 58.0706 106.41C58.1996 105.894 58.1996 105.506 58.1996 105.119Z" fill="#A28A4C"/>
<path d="M91.3614 141.765C94.4582 144.603 93.1678 140.99 93.0388 140.474C91.7485 135.442 91.2323 130.41 91.2323 125.248C91.2323 124.474 91.2323 123.829 91.2323 123.055C93.4259 125.377 91.3614 128.474 92.6517 131.184C93.942 129.248 92.1356 126.668 94.0711 124.861C93.684 132.216 96.3937 139.184 96.7808 146.41C95.2324 146.668 95.3614 148.087 94.9743 149.119C93.5549 148.861 92.0065 148.087 92.1356 150.797C92.2646 152.216 92.9098 154.152 91.1033 154.668C89.2968 155.184 87.3613 154.668 85.942 153.119C83.8774 150.926 81.8129 148.603 79.6193 146.41C79.1032 144.99 79.4903 143.7 80.6516 142.797C82.8452 145.506 85.1678 148.216 87.7484 151.442C89.1678 147.958 87.3613 145.248 87.8775 142.539C88.0065 141.506 87.7484 140.216 89.0388 139.958C90.3291 139.442 91.3614 140.216 91.3614 141.765C91.1033 142.023 90.7162 142.281 90.3291 142.539C90.8452 142.797 90.8452 142.281 90.9743 142.023C91.6194 141.635 90.9743 142.152 91.3614 141.765Z" fill="#4E3A2A"/>
<path d="M27.618 165.12C28.1342 165.765 28.7793 166.281 29.2955 166.926C25.1664 165.636 26.4567 170.023 24.7793 171.313C24.7793 169.249 24.9083 167.184 24.9083 165.12C25.8116 165.12 26.7148 165.12 27.618 165.12Z" fill="#3C604C"/>
<path d="M14.071 174.152C16.7807 172.345 20.0066 173.765 22.9743 173.12C20.2646 175.184 17.0388 173.636 14.071 174.152Z" fill="#3C604C"/>
<path d="M21.684 163.184C19.8775 163.184 18.0711 163.184 16.3936 163.184C14.9743 163.184 14.071 162.668 14.071 161.12C14.071 159.7 15.1033 159.442 16.2646 159.442C20.0066 159.442 23.6195 159.442 27.3615 159.442C28.6518 159.442 29.6841 159.958 29.6841 161.507C29.6841 162.926 28.5228 163.184 27.4905 163.184C25.555 163.313 23.6195 163.184 21.684 163.184Z" fill="#E5D46D"/>
<path d="M100.394 59.0542C101.039 58.0219 101.684 57.1187 102.329 56.0864C105.168 51.9574 106.071 52.0864 108.394 56.3445C108.265 62.7962 106.717 64.6026 101.168 64.3446C100.007 64.3446 98.5874 64.8607 97.9423 63.4413C97.2971 62.022 98.5875 61.3768 99.3617 60.4736C99.7488 60.0865 100.007 59.5703 100.394 59.0542Z" fill="#2A5A69"/>
<path d="M80.6507 142.539C80.6507 143.829 80.3926 145.119 79.6184 146.152C78.5862 147.055 77.812 149.248 75.8765 147.313C75.8765 146.41 76.0055 145.377 76.0055 144.474C77.6829 143.958 76.2636 136.345 80.6507 142.539Z" fill="#291F17"/>
<path d="M68.9087 148.087C70.199 148.99 70.8442 147.829 71.6184 147.184C71.3603 148.99 72.2635 151.055 70.8442 152.603C70.199 151.571 69.5538 152.474 68.9087 152.474C67.6183 151.055 67.6183 149.506 68.9087 148.087Z" fill="#493A24"/>
<path d="M94.9733 148.99C94.7152 147.829 92.9087 147.184 93.6829 146.022C94.5862 144.732 95.7475 145.893 96.7797 146.28C96.7797 147.571 97.0378 148.99 94.9733 148.99Z" fill="#2F201A"/>
<path d="M68.9092 148.087C68.9092 149.506 68.9092 151.055 68.9092 152.474C68.3931 153.119 67.7479 153.764 67.2318 154.41C64.7801 155.829 62.4575 155.829 60.393 153.635C58.0704 151.184 59.1027 148.732 60.1349 146.281C60.6511 145.893 61.2962 145.635 61.8124 145.248C64.9092 144.345 67.4898 144.732 68.9092 148.087Z" fill="#E8D06B"/>
<path d="M88.2639 34.796C88.3929 35.8283 87.7478 36.3444 86.9736 36.4734C84.909 36.7315 84.78 38.0218 84.909 39.6993C85.0381 40.8606 84.651 42.0219 83.3606 41.8928C82.1993 41.7638 80.3929 41.6348 80.6509 39.6993C80.909 37.2476 79.7477 36.4734 77.5541 36.3444C76.1348 36.3444 75.7477 35.3121 76.0057 34.1508C76.6509 31.3121 78.5864 29.5056 81.4251 29.7637C84.651 30.0218 86.9736 31.8282 88.2639 34.796Z" fill="#DFE0D8"/>
<path d="M87.7479 51.8284C87.4899 51.8284 87.1028 51.8284 86.8447 51.8284C86.4576 49.7639 85.6834 48.3445 83.3608 49.8929C81.9414 50.9252 81.6834 50.28 81.4253 48.9896C81.9414 47.8283 82.5866 46.9251 83.8769 46.9251C85.5544 46.9251 85.4253 45.6348 85.8124 44.6025V44.3445C86.9737 43.8283 87.4899 41.7638 89.2963 42.9251C89.2963 43.5702 89.2963 44.0864 89.2963 44.7315C89.4254 46.9251 86.9737 50.5381 93.4254 49.5058C91.2318 51.6994 88.9092 50.151 87.7479 51.8284Z" fill="#522111"/>
<path d="M89.5549 43.0542C88.2646 43.3122 87.6194 44.9896 86.071 44.4735C86.071 44.2154 86.071 43.9574 86.071 43.6993C86.7162 42.6671 86.8452 41.1187 88.3936 41.1187C89.4259 41.2477 89.5549 42.1509 89.5549 43.0542Z" fill="#913912"/>
<path d="M77.4254 63.5706C70.4576 66.2803 63.7479 62.7964 63.6188 57.248C63.6188 56.2158 63.2317 54.9254 64.135 54.2803C65.2963 53.5061 65.9414 54.7964 66.8447 55.3125C70.3286 57.6351 72.9092 61.248 77.4254 63.5706Z" fill="#2A5A6A"/>
<path d="M85.9425 44.7314C86.9748 46.5379 89.4264 48.8605 84.5232 47.9573C83.1038 47.6992 82.5877 48.8605 81.4264 49.1186C80.2651 44.9895 80.5231 44.7314 85.9425 44.7314Z" fill="#26120D"/>
<path d="M56.5215 84.2156C58.715 86.1511 63.7473 83.4414 65.1667 88.0866C65.8119 90.2801 60.3925 94.1512 57.6828 93.8931C54.586 93.635 51.6182 89.8931 51.8763 86.6672C52.0053 84.3446 52.5214 83.9575 56.5215 84.2156Z" fill="#2A5A69"/>
<path d="M161.298 21.5055C160.652 23.1829 159.749 24.7313 157.556 24.6023C156.91 24.6023 156.394 23.9571 156.652 23.441C157.427 21.8926 158.588 20.4732 160.394 19.9571C161.298 19.699 161.427 20.6023 161.298 21.5055Z" fill="#264D5D"/>
<path d="M68.9088 148.087C67.1024 145.764 64.7798 144.732 61.812 145.248C64.7798 143.7 68.0056 144.732 71.3605 143.055C70.9734 145.635 68.0056 146.022 68.9088 148.087Z" fill="#493A24"/>
<path d="M91.3609 141.764C90.9738 142.926 92.2642 145.119 89.6835 145.119C88.5222 145.119 88.6512 143.829 88.6512 142.926C88.7803 140.345 90.1996 141.248 91.3609 141.764Z" fill="#2C2015"/>
</g>
<defs>
<clipPath id="clip0">
<rect width="166.84" height="211.744" fill="white" transform="translate(0.908691 0.860107)"/>
</clipPath>
</defs>
</svg>
