<svg width="237" height="196" viewBox="0 0 237 196" fill="none" xmlns="http://www.w3.org/2000/svg">
<g clip-path="url(#clip0)">
<path d="M133.398 179.237C137.906 179.942 142.414 181.211 146.922 181.07C153.816 180.788 160.18 183.326 166.942 183.467C168.665 183.467 170.389 184.595 172.113 185.3C174.101 186.71 173.969 187.979 172.245 189.53C171.184 190.517 169.593 190.376 168.4 191.222C150.501 194.606 132.47 195.311 114.438 195.311C94.6834 195.452 74.9283 195.734 55.3058 193.478C49.3395 192.773 43.5058 191.504 37.8047 190.235C36.4789 189.953 34.8878 189.53 34.7553 187.697C34.6227 185.864 36.3463 185.723 37.5395 185.018C42.9755 182.48 48.9418 183.044 54.5103 181.493C56.4991 180.929 57.4272 180.083 57.5598 177.968C57.6923 175.853 57.162 174.443 54.9081 174.584C54.5103 173.597 55.1732 173.174 55.8362 172.892C56.3665 172.751 56.7643 172.751 57.2946 172.751C60.0789 173.597 60.4766 175.994 60.344 178.532C60.344 180.365 58.753 182.903 61.2721 183.608C63.7912 184.313 66.7081 184.877 69.0946 182.48C70.1553 181.352 70.9508 179.942 72.5418 179.237C74.0002 178.532 75.4586 178.109 77.0496 178.109C91.3687 177.827 105.82 177.404 120.14 178.25C121.068 178.532 121.731 179.096 122.128 180.083C124.25 184.313 126.901 185.582 130.879 184.877C134.061 184.031 132.205 180.788 133.398 179.237Z" fill="#DDD7BF"/>
<path d="M60.2112 86.0376C59.6809 82.6537 57.9573 81.3847 54.6427 81.3847C48.2786 81.3847 44.964 77.7188 44.8314 71.2329C44.8314 69.2589 44.3011 67.7079 43.2404 66.2979C36.8764 57.9791 33.9595 48.5322 34.6225 37.8164C34.8876 32.0355 36.2135 26.6775 39.1303 21.7426C40.3236 22.5886 40.5887 23.8576 40.8539 25.2676C41.1191 26.9595 40.5887 28.5105 40.191 30.0615C36.8764 42.0463 38.9977 52.9031 45.8921 62.914C47.3505 65.0289 48.5438 67.1439 48.809 69.9639C49.3393 75.4628 50.5326 76.5908 55.8359 76.5908C61.5371 76.7318 67.1056 75.8858 72.8067 76.5908C74 76.7318 75.3258 76.7318 76.3865 77.2958C77.7123 78.2827 77.3146 79.4107 76.7842 80.5387C75.7236 82.0897 73.3371 81.9487 72.8067 84.0637C72.409 84.9096 72.0112 85.6146 71.2157 86.0376C68.4314 84.3457 65.2494 84.9096 62.3326 84.2047C62.0674 83.9227 61.8022 83.4997 61.6696 83.0767C61.6696 82.6537 61.6696 82.0897 61.5371 81.6667C61.0067 81.8077 61.2719 82.3717 61.2719 82.6537C61.2719 83.3587 61.2719 84.2047 61.0067 84.9096C60.8741 85.4736 60.609 85.8966 60.2112 86.0376Z" fill="#71716F"/>
<path d="M40.1903 25.1266C38.8645 24.4216 39.2622 23.1527 38.9971 21.8837C45.7589 8.62988 55.8353 0.734007 70.1544 0.311013C85.9319 -0.11198 101.842 0.311013 117.62 0.311013C119.608 1.86199 122.127 -0.11198 124.116 1.57999C123.718 3.27197 122.525 3.27197 121.332 3.55396C106.482 3.97696 91.5004 3.69496 76.651 3.83596C62.7297 3.97696 51.0622 8.77088 43.5049 22.0247C42.7094 23.2937 42.0465 24.9856 40.1903 25.1266Z" fill="#656561"/>
<path d="M42.7102 177.404C42.4451 177.263 42.0473 177.404 41.9147 177.122C39.3956 172.47 37.672 170.355 33.9597 176.699C31.9709 179.942 27.3305 177.263 24.1484 175.29C24.8114 174.162 25.872 173.88 26.9327 173.598C29.0541 173.175 31.308 174.444 33.0316 171.765C34.2248 169.932 34.49 168.381 32.7664 166.83C32.2361 165.279 31.9709 163.587 31.5732 161.895C31.7057 161.472 31.7057 160.908 32.1035 160.485C40.7215 150.756 49.6046 141.309 58.7529 132.144C59.1507 131.721 59.8136 131.58 60.4765 131.58C61.935 132.003 62.7305 133.131 62.9956 134.682C62.9956 135.105 62.863 135.669 62.5979 136.092C57.9574 138.912 54.7754 143.424 51.063 147.231C46.29 152.025 41.6496 156.96 36.8765 162.459C39.1305 163.869 41.517 162.882 43.3732 163.728C44.8316 164.715 47.881 164.01 46.5552 167.535C44.9642 168.663 41.2518 166.548 41.7821 171.06C42.1799 172.329 43.3732 172.611 44.3012 173.457C44.5664 174.021 44.699 174.726 44.5664 175.431C43.9035 176.276 43.5057 176.981 42.7102 177.404Z" fill="#3E3022"/>
<path d="M160.18 155.832C159.915 157.101 159.649 158.37 159.252 159.639C156.865 160.062 157.528 157.524 156.6 156.537C156.07 155.409 155.274 154.422 154.479 153.294C154.081 151.602 149.971 151.743 152.357 148.5C153.551 147.09 154.213 145.257 155.407 143.988C155.937 141.591 154.346 141.873 153.02 141.591C150.369 140.463 150.766 139.053 152.622 137.643C153.816 137.361 155.142 137.361 156.467 137.502C158.058 138.207 159.649 139.335 161.373 137.784C163.097 136.515 162.301 134.118 163.494 132.708C164.157 132.144 164.953 132.003 165.748 131.721C167.472 131.298 168.4 129.324 170.124 128.901C170.919 128.478 170.521 127.209 171.317 126.645C171.715 126.504 172.112 126.645 172.51 126.786C175.162 128.901 175.427 133.131 178.742 134.682C179.139 135.246 179.139 135.951 179.007 136.656C178.079 138.207 176.885 139.476 175.56 140.604C174.366 142.014 173.04 143.424 172.377 145.398C170.124 146.667 168.665 148.923 166.676 150.474C165.483 151.743 164.422 153.012 164.157 154.986C163.229 157.524 161.373 154.563 160.18 155.832Z" fill="#463E37"/>
<path d="M236.018 68.131C236.283 76.0268 234.294 83.4997 232.173 90.8316C231.377 93.7926 228.991 95.4845 225.544 93.9336C222.627 92.6646 221.301 93.6516 222.627 97.0355C223.687 99.7145 222.759 101.688 220.903 103.521C215.998 108.315 211.092 113.25 206.319 118.185C205.391 117.621 204.33 117.057 203.932 115.929C203.137 112.968 204.463 111.558 206.982 110.571C213.478 108.033 218.119 100.983 218.119 94.2156C218.782 88.9986 219.047 88.4346 223.687 89.1396C227.267 89.7036 229.123 88.4346 229.521 84.4867C229.919 81.6667 231.112 78.8468 230.847 75.8858C230.184 73.0659 233.234 72.9249 233.896 71.0919C234.029 69.9639 234.162 68.8359 234.825 67.99C235.222 67.849 235.62 67.849 236.018 68.131Z" fill="#4F555B"/>
<path d="M3.8627 154.845C-0.512584 146.526 -1.17551 137.784 2.00652 128.901C2.66944 129.183 2.93461 129.888 3.06719 130.593C3.46494 132.708 2.93461 134.682 2.80202 137.079C6.24921 136.092 7.04472 131.439 10.8897 131.721C14.3369 136.092 12.2155 141.168 12.3481 145.821C10.6245 150.051 7.04472 152.166 3.8627 154.845Z" fill="#6C5445"/>
<path d="M129.553 2.42593C142.413 6.09188 154.213 22.1656 154.479 35.7014C154.611 40.3544 155.539 45.0073 153.551 49.5192C152.622 44.7253 153.285 39.9314 153.153 37.3934C153.418 39.7904 152.357 44.7253 153.551 49.5192C153.683 52.6212 152.888 55.3001 150.899 57.5561C149.308 55.7231 151.031 53.1852 149.971 51.2112C150.368 43.1743 151.297 35.1374 148.38 27.2416C145.33 18.9227 140.027 13.0008 132.867 8.77084C131.276 7.78385 129.42 7.36086 128.492 5.38689C128.227 4.25891 129.553 3.55392 129.553 2.42593Z" fill="#7A7976"/>
<path d="M133.397 179.237C135.386 184.595 134.325 186.146 128.624 185.723C121.332 185.3 121.332 185.3 121.332 179.237C120.404 177.827 119.211 176.558 119.476 174.725C120.139 172.751 118.548 170.213 121.2 168.944C121.863 168.944 122.393 169.367 122.791 169.931C123.321 170.918 123.454 172.046 123.719 173.174C123.851 175.571 126.37 176.981 126.105 179.801C125.84 181.916 127.696 180.647 128.359 180.647C130.215 180.788 128.492 179.66 128.492 179.378C128.094 177.122 129.95 175.43 129.818 173.315C130.215 170.777 126.105 171.764 126.901 169.085C126.768 168.38 130.348 169.085 127.564 166.97C125.84 165.56 125.575 163.445 127.299 161.612C128.757 159.638 126.37 158.087 126.901 156.114C127.166 153.576 128.359 151.461 129.95 149.628C130.613 149.205 131.409 148.077 132.204 148.782C133.397 149.769 133 151.32 132.337 152.589C130.083 157.241 130.746 161.753 132.204 166.406C132.867 170.777 133.795 174.866 133.397 179.237Z" fill="#5B5A53"/>
<path d="M136.315 127.35C134.459 130.875 130.879 132.285 127.829 134.259C126.503 135.246 125.178 135.951 123.587 135.387C123.056 135.105 122.659 134.541 122.261 134.118C121.73 133.272 120.67 132.849 120.272 132.003C120.272 131.58 120.272 131.298 120.405 131.016C116.957 131.862 113.378 130.875 109.93 132.003C109.135 132.285 108.339 132.567 107.411 132.708C105.953 132.144 103.699 132.144 105.423 129.465C105.555 129.183 106.085 129.042 106.085 129.042C105.025 124.953 105.025 124.953 108.472 123.543C114.438 124.248 120.272 124.389 126.106 122.697C127.697 124.812 130.481 122.415 132.205 124.389C132.47 124.671 132.735 125.094 132.868 125.517C132.868 125.94 132.735 126.504 132.735 126.927C133.398 126.504 133.398 125.799 133.663 125.094C133.796 124.671 134.061 124.389 134.459 124.107C134.856 123.966 135.254 124.107 135.652 124.389C136.182 125.094 136.315 126.222 136.315 127.35Z" fill="#777771"/>
<path d="M141.75 81.2438C139.894 85.4737 137.905 89.5627 135.121 93.3696C131.939 97.7406 135.253 104.085 140.424 104.226C144.004 104.226 145.064 106.623 146.258 109.443C146.523 111.558 145.064 111.699 143.739 111.84C142.148 108.174 138.303 108.879 135.651 107.046C133.132 104.508 131.143 107.187 128.889 107.751C128.359 108.174 127.696 108.456 127.033 108.597C125.177 108.738 123.321 109.161 121.995 107.328C121.73 106.623 123.851 105.072 121.332 105.072C120.934 104.79 120.802 104.367 120.669 103.944C120.934 101.548 122.79 101.689 124.381 101.407C126.105 101.266 127.298 100.561 127.431 98.5866C127.696 97.7406 127.961 96.8946 128.889 96.4716C129.552 96.6126 129.95 97.1766 130.613 97.4586C130.348 97.1766 129.95 96.8946 129.552 96.7536C128.757 96.1896 127.431 96.7536 126.768 95.6256C127.033 93.2286 129.287 93.0876 130.613 91.9596C133.132 89.7037 135.121 87.1657 136.579 83.9228C136.712 83.4998 136.977 83.2178 137.242 82.7948C138.568 81.9488 138.435 79.5518 140.424 79.4108C141.352 79.6928 142.28 79.9748 141.75 81.2438Z" fill="#5D5D57"/>
<path d="M150.766 51.4932C153.152 53.4672 150.501 55.5822 150.898 57.6971C150.898 58.2611 150.766 58.8251 150.766 59.5301C149.44 62.2091 148.91 64.606 150.898 67.567C152.887 70.3869 152.755 74.0529 150.633 77.1548C149.97 77.8598 149.175 78.4238 148.512 79.1288C147.053 79.1288 144.932 80.6798 144.932 77.2958C145.33 76.3088 146.258 75.6038 146.788 74.6169C147.584 73.0659 147.849 71.5149 146.788 70.1049C145.728 68.695 144.402 69.2589 143.076 69.6819C138.303 71.2329 133.397 71.0919 128.624 69.6819C125.575 68.695 123.056 67.144 122.525 63.337C122.923 62.2091 123.719 61.9271 124.647 61.9271C128.889 64.465 133.265 66.016 138.17 65.311C140.424 64.888 142.546 64.465 144.004 61.6451C141.22 60.5171 138.568 61.2221 136.049 60.9401C133.795 60.6581 133.795 60.6581 133.53 58.1201C137.11 56.7101 140.955 57.6971 144.534 57.4151C146.125 57.4151 147.716 57.6971 148.644 55.7232C149.175 54.5952 149.44 53.3262 150.103 52.1982C150.501 51.7752 150.633 51.6342 150.766 51.4932Z" fill="#5E5D58"/>
<path d="M42.71 177.404C42.8425 176.558 42.8425 175.712 43.7706 175.289C52.7864 167.534 60.2111 158.229 68.4313 149.628C69.8897 148.218 70.8178 146.103 73.3369 146.526C74.7953 147.936 75.0605 149.628 74.3976 151.461C73.8673 152.589 73.6021 153.717 73.6021 154.986C73.3369 155.832 72.674 156.255 72.0111 156.678C70.9504 157.383 70.0223 158.229 68.6965 158.229C63.1279 162.035 57.692 165.983 55.7032 173.174C55.438 173.456 55.1729 173.879 54.9077 174.161C50.9302 175.43 47.3504 178.955 42.71 177.404Z" fill="#2E2219"/>
<path d="M186.961 102.535C186.961 101.689 186.696 100.702 187.094 100.279C191.867 94.7796 196.11 88.5757 202.474 84.9098C204.197 84.2048 204.993 85.4738 205.656 86.8838C205.656 88.7167 204.463 89.4217 203.137 89.9857C199.027 91.8187 196.507 95.6256 193.458 98.8686C191.337 101.125 191.337 103.662 192.53 106.905C197.833 101.83 202.341 96.6126 207.247 91.6777C208.705 90.1267 209.899 87.8708 212.55 88.5757C212.948 88.8577 213.081 89.2807 213.081 89.8447C206.319 98.3046 199.292 106.2 191.072 113.109C190.674 113.109 190.276 113.109 189.878 112.968C188.95 111.558 187.094 111.84 185.901 110.712C185.503 109.443 186.564 108.738 187.094 107.892C189.083 106.059 188.022 104.367 186.961 102.535Z" fill="#6D7073"/>
<path d="M123.189 135.105C124.78 135.246 126.105 133.695 127.829 134.259C128.492 137.502 133.132 137.079 133.398 140.745C131.807 141.591 130.746 140.322 129.685 139.617C126.901 137.784 124.249 137.643 121.465 139.476C117.753 140.745 114.703 143.142 111.389 145.257C106.881 148.218 104.229 146.808 103.434 140.886C104.759 138.912 105.82 136.656 107.676 135.105C112.582 134.4 117.488 135.387 122.393 134.682C122.791 134.964 122.923 134.964 123.189 135.105Z" fill="#EDEDED"/>
<path d="M27.065 174.302C26.2695 175.43 25.0762 175.148 24.0156 175.43C19.7729 174.302 16.3257 171.764 13.1437 168.662C12.6133 167.534 13.1437 166.971 13.9392 166.266C17.6515 167.111 19.9055 164.856 21.4965 161.754C21.8942 160.908 22.4246 160.203 23.3526 159.78C24.1481 159.498 25.0762 159.498 25.8717 159.639C26.9324 159.921 27.7279 160.626 28.5234 161.331C29.4515 162.036 30.6448 161.895 31.7054 162.459C33.6942 163.305 33.6942 164.715 32.6335 166.407C31.0425 169.226 27.4628 170.495 27.065 174.302Z" fill="#31251C"/>
<path d="M14.2039 166.406C13.8061 167.111 13.541 167.816 13.1432 168.521C8.63534 164.996 5.85107 160.203 3.8623 154.704C4.92298 150.474 9.16567 149.628 11.287 146.667C12.0825 144.27 12.6129 141.309 16.0601 143.847C16.723 145.257 16.1926 146.667 16.4578 148.077C18.8443 153.294 18.8443 153.294 14.2039 157.242C11.8174 159.498 10.4915 161.613 13.8061 164.292C14.3365 164.714 14.6016 165.701 14.2039 166.406Z" fill="#30241C"/>
<path d="M143.209 111.276C144.402 110.853 145.595 110.571 146.258 109.302C147.716 110.43 149.175 111.417 150.766 112.545C153.418 114.519 151.164 117.903 152.755 120.3C153.02 120.723 153.285 121.005 153.683 121.428C155.671 122.979 158.323 121.71 160.179 123.261C160.445 123.684 160.71 124.107 160.975 124.389C161.107 125.658 160.179 125.94 159.251 126.222C152.489 126.504 150.236 124.812 147.982 117.621C147.716 116.634 147.584 115.647 146.391 115.647C145.728 115.647 145.33 116.352 145.33 116.916C145.993 121.287 143.341 121.287 140.557 121.146C139.761 121.146 138.966 121.287 138.303 121.287C136.049 120.864 136.314 123.402 135.121 124.248C134.856 124.248 134.591 124.248 134.193 124.107C133.397 123.402 133.265 122.556 133.132 121.569C133.132 121.146 133 120.582 133.132 120.159C133.265 118.749 133.132 116.634 134.458 116.493C137.11 116.07 136.712 113.532 137.905 112.122C139.496 111.135 141.352 110.712 143.209 111.276Z" fill="#504F48"/>
<path d="M204.595 116.352C205.788 116.352 206.319 117.057 206.319 118.185C202.739 122.133 199.026 126.081 195.447 129.888C193.988 131.439 192.132 133.131 192.397 134.964C192.928 141.591 189.348 139.758 186.166 138.771C183.912 137.22 180.995 137.925 178.608 136.656C178.608 136.092 178.608 135.528 178.741 134.964C180.597 133.131 182.719 133.554 184.707 134.259C187.359 135.105 187.624 133.977 187.094 131.58C186.696 129.888 185.901 128.196 186.563 126.363C187.094 125.235 187.889 124.53 188.817 123.825C191.469 123.825 190.806 126.645 192.132 128.055C196.507 124.812 199.292 119.031 204.595 116.352Z" fill="#4C5259"/>
<path d="M178.476 136.797C181.128 137.22 183.912 136.374 186.034 138.912C185.768 138.912 185.371 139.053 185.106 139.053C181.924 138.348 177.946 135.387 179.67 143.142C180.598 147.231 175.559 148.641 173.438 151.602C172.51 153.012 170.786 153.858 169.726 155.55C166.941 159.498 163.494 157.101 160.18 155.973C160.71 153.435 162.964 156.678 163.759 154.845C164.82 153.294 168.267 152.871 165.616 149.91C168.135 148.782 168.93 145.257 172.112 145.116C174.101 144.129 177.416 143.847 174.897 140.04C176.09 138.771 177.283 137.784 178.476 136.797Z" fill="#6C6C69"/>
<path d="M58.3553 93.0878C60.4766 94.2157 62.7305 95.2027 65.3822 95.3437C64.9845 94.4977 64.4541 93.6517 64.0564 92.8058C65.5148 91.6778 66.5755 92.6648 67.7687 93.5107C71.2159 96.0487 74.9283 97.5997 79.171 97.3177C90.5732 97.3177 101.843 97.3177 113.113 97.3177C114.173 97.3177 115.234 97.3177 116.295 97.4587C117.62 97.5997 119.344 97.7407 119.609 99.4327C119.874 101.689 117.886 101.689 116.427 101.971C115.499 101.971 114.704 101.971 113.775 101.689C109.002 100.42 104.097 101.266 99.1912 101.266C92.0317 101.266 84.8721 100.843 77.7126 101.407C76.9171 101.689 76.1216 101.83 75.326 101.83C74.1328 101.971 72.8069 101.83 71.6137 101.548C69.8901 100.843 68.1665 100.138 66.3103 99.5737C64.0564 97.7407 60.8744 98.4457 58.753 96.4717C58.2227 95.4847 57.6923 94.3567 58.3553 93.0878Z" fill="#C8C8C8"/>
<path d="M156.335 144.834C155.142 146.244 153.949 147.513 152.755 148.923C152.358 149.346 151.96 149.346 151.562 148.782C152.888 144.975 151.164 141.873 148.91 139.335C147.452 137.643 146.524 136.092 146.656 133.836C147.054 129.747 145.463 127.632 141.353 128.055C139.762 128.196 138.304 128.055 136.845 127.209C135.917 125.799 136.58 124.812 137.641 123.966C139.63 123.402 141.618 123.684 143.474 123.825C147.187 124.107 150.501 127.632 150.501 131.862C150.501 134.4 151.562 135.669 153.418 136.656C153.683 137.079 153.683 137.502 153.551 137.925C152.755 138.348 151.96 138.771 152.092 139.758C152.225 140.745 153.021 140.745 153.683 140.886C154.744 142.155 155.54 143.424 156.335 144.834Z" fill="#62625D"/>
<path d="M189.613 112.404C189.879 112.404 190.276 112.404 190.541 112.404C190.144 116.916 187.227 118.608 183.514 119.454C181.923 119.736 180.2 119.595 178.476 120.159C176.09 120.441 173.836 119.877 171.582 119.031C171.184 118.749 170.786 118.326 170.919 117.903C171.317 116.634 172.377 117.057 172.51 117.057C173.836 116.775 172.908 115.929 173.173 116.493C171.847 117.198 170.123 116.916 169.328 118.467C168.93 118.749 168.532 118.608 168.267 118.326C167.472 115.647 167.737 113.814 171.184 114.237C174.764 114.66 175.957 111.135 177.946 109.02C179.935 107.046 181.923 105.354 184.84 106.482C185.636 107.328 187.227 106.764 187.625 108.315C186.962 109.02 186.299 109.584 185.768 110.289C184.31 111.84 181.791 110.571 180.465 112.404C180.067 113.109 179.139 113.532 179.404 114.378C179.67 115.506 180.73 115.647 181.526 115.788C183.117 116.07 184.443 115.365 185.636 114.237C186.962 113.391 187.757 111.699 189.613 112.404Z" fill="#61656B"/>
<path d="M151.695 148.781C152.092 148.781 152.49 148.922 152.888 148.922C151.562 151.883 155.805 150.614 155.54 152.729C154.479 153.857 153.153 153.152 152.092 153.152C150.104 153.152 148.91 154.139 148.645 156.254C148.38 157.946 148.645 159.638 150.236 160.484C151.96 161.471 153.418 160.766 154.744 159.356C155.805 158.228 156.203 156.395 157.528 155.549C158.854 156.536 157.794 158.792 159.517 159.638C158.987 161.894 157.396 163.163 155.805 164.573C153.286 166.265 150.767 166.547 148.38 164.432C142.016 158.792 142.546 153.857 150.236 148.641C150.501 148.782 151.032 148.781 151.695 148.781Z" fill="#565D64"/>
<path d="M145.33 78.0011C146.391 78.2831 147.584 78.7061 148.645 78.9881C146.656 80.68 144.402 81.808 141.751 81.244C141.353 80.257 140.557 80.116 139.629 80.116C139.364 80.257 139.099 80.539 138.834 80.539C137.243 80.821 136.447 81.385 137.906 82.795C137.906 83.218 137.773 83.641 137.773 84.064C133.53 83.782 130.083 84.91 127.564 88.9989C126.636 90.4089 125.31 91.6779 123.321 91.3959C122.261 90.9729 121.2 90.5499 121.067 89.1399C123.586 85.333 127.697 82.795 129.553 78.4241C130.216 77.5781 131.144 77.2961 132.072 77.2961C135.254 77.5781 138.303 78.0011 141.485 77.2961C142.811 76.8731 144.27 76.8731 145.33 78.0011Z" fill="#60605D"/>
<path d="M205.258 86.8837C204.33 86.1787 203.402 85.6147 202.606 84.9098C206.717 77.7189 212.02 72.079 219.975 70.105C221.831 70.246 223.82 69.541 225.013 71.797C224.748 72.5019 224.35 72.9249 223.82 73.0659C215.467 74.4759 210.164 80.5388 205.258 86.8837Z" fill="#686B6D"/>
<path d="M77.9772 98.4454C72.4087 99.1504 68.5637 94.9204 64.0559 92.8055C62.4649 90.8315 61.0064 88.5755 60.2109 86.0376C60.3435 85.8966 60.4761 85.6146 60.6087 85.4736C61.2716 84.6276 60.0784 82.6536 62.1997 82.9356C62.1997 83.3586 62.1997 83.7816 62.3323 84.0636C65.2491 86.1786 66.7076 89.8445 69.757 91.8185C71.8783 93.0875 73.9997 94.9204 75.9885 91.6775C78.5076 91.8185 78.2424 94.0744 78.7727 95.7664C78.7727 96.1894 78.7727 96.7534 78.6401 97.1764C78.5076 97.7404 78.2424 98.1634 77.9772 98.4454Z" fill="#70716E"/>
<path d="M121.199 138.771C125.177 135.81 127.563 136.233 133.397 140.745C135.518 144.975 134.855 148.922 132.469 152.588C131.673 152.024 133.927 148.218 130.48 150.473C130.215 150.191 130.082 150.05 129.95 149.627C129.022 142.719 129.022 142.719 122.923 141.45C121.862 141.027 121.995 139.617 121.199 138.771Z" fill="#8E8E8B"/>
<path d="M58.3548 93.0877C58.62 94.0746 59.0177 94.9206 59.2829 95.9076C59.0177 97.4586 59.8132 99.0096 58.8852 100.42C58.62 100.843 58.2222 100.984 57.8245 100.843C57.2941 100.561 56.8964 99.9965 56.6312 99.4326C56.2335 98.4456 55.9683 97.1766 54.6425 97.0356C54.1121 96.8946 53.7144 97.3176 53.7144 97.8816C53.5818 99.2916 54.3773 100.279 55.1728 101.407C56.1009 102.676 57.9571 101.971 58.8852 103.098C59.2829 104.508 58.4874 105.213 57.2941 105.636C54.3773 106.482 52.9189 103.38 50.3998 103.098C49.6043 103.098 48.8088 102.957 48.0132 102.535C47.6155 102.394 47.3503 102.112 47.0852 101.689C46.9526 101.266 46.9526 100.843 47.3503 100.561C48.8088 100.42 49.3391 99.4326 49.0739 97.8816C48.6762 95.7666 50.1346 94.3566 51.1953 92.9467C53.5818 91.3957 55.9683 91.3957 58.3548 93.0877Z" fill="#6A6863"/>
<path d="M159.517 125.094C160.18 125.094 160.71 124.953 160.975 124.389C163.097 126.363 165.616 127.632 168.4 128.196C168.533 130.875 165.616 129.747 164.953 131.298C164.555 132.003 163.892 132.426 163.892 133.272C163.362 135.246 165.218 138.066 162.036 138.912C161.373 137.361 160.445 136.092 159.119 135.105C159.252 133.695 160.843 132.567 159.782 130.875C160.312 128.901 158.456 127.068 159.517 125.094Z" fill="#4F4F4B"/>
<path d="M2.27178 131.157C2.13919 130.311 2.00661 129.606 1.87402 128.76C2.27178 123.684 4.79088 119.595 7.44256 115.647C8.37065 114.096 9.6965 113.532 11.4201 114.237C12.2156 114.801 12.8785 115.506 12.7459 116.634C12.083 119.172 11.4201 121.569 8.10548 121.428C7.44256 121.428 8.23807 118.467 6.91223 120.864C5.18863 124.389 5.32121 128.619 2.27178 131.157Z" fill="#4C433C"/>
<path d="M224.748 71.938C223.157 71.2331 221.566 70.6691 219.975 69.9641C224.35 69.2591 228.593 67.4261 233.233 67.2851C234.294 67.2851 235.354 66.8621 236.017 68.1311C235.62 68.1311 235.222 68.2721 234.957 68.2721C233.896 69.2591 232.968 70.2461 232.438 71.656C231.642 72.784 230.581 73.63 229.123 73.63C227.532 73.348 225.808 73.63 224.748 71.938Z" fill="#737679"/>
<path d="M14.8669 112.545C13.4085 110.289 13.6737 108.174 15.795 106.764C18.1815 105.072 20.3029 103.098 23.3523 102.534C23.7501 102.252 24.1478 102.252 24.5456 102.534C23.8826 105.213 21.8939 107.187 20.9658 109.866C20.3029 112.263 17.6512 111.699 15.795 111.981C15.5298 112.263 15.2647 112.545 14.8669 112.545Z" fill="#4E443F"/>
<path d="M24.5458 102.816C24.148 102.675 23.7503 102.675 23.3525 102.534C31.175 98.5863 39.1301 97.5994 47.3503 100.56C47.3503 100.842 47.3503 101.265 47.3503 101.547C46.5548 102.393 45.4941 102.675 44.4334 102.534C38.7323 101.406 33.1638 101.829 27.5952 103.239C26.5346 103.521 25.4739 103.521 24.5458 102.816Z" fill="#6D5342"/>
<path d="M129.553 2.42489C130.348 3.83487 129.685 4.39886 128.359 4.53986C125.31 6.09083 122.791 5.66784 120.935 2.56589C121.598 2.42489 122.393 2.28389 123.454 2.14289C121.465 0.591916 118.946 2.42489 117.62 0.30992C121.73 -0.254071 125.84 0.591916 129.553 2.42489Z" fill="#6A6B65"/>
<path d="M149.971 148.782C149.44 149.346 149.043 150.051 148.38 150.474C143.209 154.422 143.076 157.947 148.114 164.574C144.269 163.305 143.076 160.062 143.474 156.255C143.739 152.307 145.861 149.346 149.971 148.782Z" fill="#7A8998"/>
<path d="M150.766 77.014C151.827 73.066 152.092 69.4001 149.44 65.7342C147.717 63.3372 149.175 61.2222 150.766 59.3893C150.368 62.3502 150.236 64.8882 151.959 67.8491C153.55 70.2461 154.346 74.476 150.766 77.014Z" fill="#F0F0E7"/>
<path d="M132.337 166.548C129.685 163.869 129.818 155.973 132.469 152.73C131.276 157.242 131.806 161.895 132.337 166.548Z" fill="#8E8E8B"/>
<path d="M137.905 124.248C137.64 125.235 137.375 126.081 136.977 127.068C136.712 127.209 136.446 127.209 136.181 127.35C134.988 126.645 135.121 125.376 134.988 124.248C135.651 122.697 133.132 118.467 137.905 120.3C138.568 121.71 138.17 122.979 137.905 124.248Z" fill="#262520"/>
<path d="M168.399 190.94C169.328 188.825 174.366 189.53 172.112 185.159C173.703 185.159 174.763 185.864 174.763 187.697C174.763 189.248 173.438 189.671 172.377 190.376C171.051 191.081 169.725 191.081 168.399 190.94Z" fill="#ECEADE"/>
<path d="M163.892 131.157C163.892 127.491 167.471 130.17 168.399 128.196C169.062 128.478 169.593 128.76 170.256 129.042C168.267 129.606 169.328 133.272 166.543 132.99C165.88 132.003 164.82 131.721 163.892 131.157Z" fill="#81827F"/>
<path d="M168.399 118.326C168.665 118.326 168.93 118.326 169.195 118.326C171.316 120.864 173.04 123.543 171.316 127.068C171.184 127.914 171.184 128.76 170.123 129.042C170.521 125.235 167.736 122.133 168.399 118.326Z" fill="#74808E"/>
<path d="M58.3549 92.9464C55.9683 92.3824 53.5818 92.3824 51.1953 92.9464C53.5818 89.9855 55.9683 89.9855 58.3549 92.9464Z" fill="#C8C8C8"/>
<path d="M160.179 123.12C157.925 122.979 155.141 124.389 153.683 121.287C155.804 121.851 158.588 120.159 160.179 123.12Z" fill="#BAB9AB"/>
<path d="M12.3485 116.211C11.9507 115.647 11.6856 114.942 11.4204 114.378C12.8788 114.378 14.6024 114.942 14.8676 112.545C15.0002 112.404 15.2654 112.263 15.3979 112.122C16.9889 112.968 16.9889 114.378 16.0609 115.647C15.1328 117.198 13.8069 117.621 12.3485 116.211Z" fill="#4E443F"/>
<path d="M187.89 108.315C186.829 107.892 185.636 107.751 185.105 106.482C188.553 106.623 186.829 104.226 186.962 102.535C189.216 104.085 189.348 106.059 187.89 108.315Z" fill="#888A8E"/>
<path d="M148.114 164.433C150.633 165.42 153.152 165.138 155.539 164.574C153.02 166.971 150.501 167.394 148.114 164.433Z" fill="#7A8998"/>
<path d="M152.755 120.3C150.236 118.185 152.623 114.801 150.767 112.545C154.346 114.237 152.225 117.621 152.755 120.3Z" fill="#BAB9AB"/>
<path d="M120.272 175.571C120.007 176.981 122.261 177.686 121.333 179.237C104.627 179.66 87.9215 178.25 71.3485 180.224C69.3597 179.096 69.7575 177.263 70.2878 175.571C71.0833 172.892 71.8788 170.213 72.144 167.534C72.6744 163.304 75.0609 162.881 77.9777 163.586C89.6451 166.124 101.313 165.983 113.113 163.445C115.101 163.022 117.09 163.022 118.946 163.868C121.465 167.534 118.946 171.764 120.272 175.571Z" fill="#FAFAF9"/>
<path d="M119.476 164.292C116.692 164.01 114.041 164.574 111.389 164.997C100.517 166.83 89.5124 167.112 78.6405 164.856C76.254 164.292 73.6023 162.459 73.7349 167.816C73.8675 171.905 70.9506 175.712 71.481 180.083C70.0225 184.313 62.7304 187.133 59.5484 184.595C57.8248 183.185 57.9574 181.211 58.7529 179.237C59.9461 176.417 59.4158 174.302 56.7641 173.033C56.6315 171.905 57.0293 171.2 57.9574 170.777C59.4158 170.495 60.6091 171.059 61.6697 172.187C62.2001 173.033 62.2001 173.879 62.0675 174.866C61.6697 176.276 61.5371 177.827 61.8023 179.237C64.8518 181.634 66.4428 181.352 66.9731 177.968C67.3709 175.994 68.0338 174.302 68.8293 172.61C69.3596 171.059 67.2383 170.777 67.636 169.367C68.5641 168.239 69.7574 167.675 70.9506 167.112C72.2765 164.997 70.2877 162.459 71.3484 160.344C71.7461 160.062 72.1439 159.78 72.6742 159.78C84.7394 162.459 96.8046 162.882 109.002 161.472C112.052 161.19 114.836 159.357 118.018 160.062C119.742 161.049 120.007 162.6 119.476 164.292Z" fill="#68655E"/>
<path d="M57.5597 171.482C57.2945 172.046 56.8967 172.469 56.6316 173.033C56.3664 173.033 55.9686 173.174 55.7035 173.174C54.908 171.341 54.3776 169.79 56.3664 167.957C59.5484 164.996 62.3327 161.613 65.5147 158.511C66.3102 157.665 66.9731 155.691 68.6967 157.524C68.6967 157.806 68.6967 157.947 68.6967 158.229C66.708 164.432 61.5372 167.393 57.5597 171.482Z" fill="#5F5045"/>
<path d="M120.934 2.56697C123.321 3.55396 125.707 4.68194 128.359 4.54094C133.927 7.92489 139.761 10.8858 143.871 16.5258C151.694 26.9596 153.682 38.6624 150.766 51.4932C150.103 52.7622 149.307 53.0442 148.379 52.0572C147.186 50.9292 145.993 49.8012 144.534 48.9553C139.231 46.8403 133.662 47.6863 128.226 48.3913C125.707 48.6733 123.718 51.0702 122.79 53.8902C122.393 56.1461 122.393 58.5431 122.923 60.7991C123.188 61.6451 122.658 62.6321 123.188 63.478C126.9 68.836 133.927 70.8099 141.882 68.695C144.136 68.131 146.788 65.17 148.512 68.977C150.103 72.6429 148.909 76.0268 145.462 78.0008C140.954 78.5648 136.314 79.4108 131.806 77.8598C127.696 76.8728 123.453 79.5518 119.476 77.1548C117.487 76.0268 115.366 76.0268 113.377 77.0138C107.543 76.0268 101.577 77.4368 95.8758 76.1678C94.0196 75.7449 92.4286 75.4629 90.705 76.5908C89.2465 77.5778 87.7881 78.2828 85.9319 77.7188C85.5342 77.5778 85.1364 77.2958 84.8713 77.0138C82.7499 74.8989 80.7611 74.7579 78.6398 77.0138C78.3746 77.2958 77.9769 77.5778 77.5791 77.7188C77.314 77.7188 77.1814 77.7188 76.9162 77.7188C69.3589 77.8598 61.669 78.0008 54.1117 77.8598C49.4713 77.7188 47.6151 75.4629 47.7477 70.3869C47.7477 68.695 47.8802 67.144 46.8196 65.734C36.7432 53.4672 35.1522 39.6494 40.3229 24.7036C48.278 8.62988 61.0061 1.72099 77.8443 2.28498C92.1634 3.13096 106.615 2.70797 120.934 2.56697Z" fill="#F0F0E7"/>
<path d="M76.1206 91.8188C76.5183 94.9207 75.5902 95.9077 72.6734 94.7797C67.6352 92.8058 64.4532 88.9988 62.1992 84.0639C65.5138 83.2179 68.961 82.3719 71.215 86.1789C73.7341 87.3068 75.988 88.5758 76.1206 91.8188Z" fill="#E8E8E1"/>
<path d="M76.1214 91.8184C74.5304 89.9855 72.9394 88.0115 71.2158 86.1785C71.3484 85.1915 71.481 84.3455 72.4091 83.7816C74.1327 83.4996 74.663 85.1915 75.5911 86.0375C76.5192 87.0245 77.9776 87.4475 78.9057 88.4345C79.3035 88.9985 79.436 89.5625 79.436 90.1265C79.436 90.5495 79.436 90.9724 79.3035 91.2544C79.0383 92.5234 80.099 93.5104 79.8338 94.7794C79.436 95.7664 79.0383 96.8944 77.7124 96.6124C77.5799 95.0614 77.1821 93.2284 76.1214 91.8184Z" fill="#666661"/>
<path d="M75.0606 87.0249C74.1325 86.0379 73.337 84.9099 72.4089 83.9229C70.8179 79.129 74.6628 82.09 75.7235 81.244C76.2538 81.526 76.519 81.949 76.6516 82.513C77.0493 84.3459 77.7123 86.3199 75.0606 87.0249Z" fill="#D1D1D1"/>
<path d="M62.1998 82.9356C61.6695 83.7816 61.1391 84.6276 60.6088 85.4736C60.4762 84.3456 60.4762 83.2176 60.211 82.0896C60.0784 81.1026 59.5481 80.1156 61.0065 79.9746C61.802 79.9746 62.9953 79.5516 63.393 80.6796C64.056 81.9486 62.465 82.0896 62.1998 82.9356Z" fill="#434342"/>
<path d="M76.1206 81.949C75.9881 81.667 75.8555 81.526 75.8555 81.244C76.2532 80.116 76.5184 78.988 76.9161 78.001L77.0487 78.142C78.1094 77.719 78.7723 78.283 79.3027 79.27C79.5678 80.962 79.1701 82.654 79.0375 84.3459C78.7723 85.3329 78.3746 86.3199 77.1813 86.1789C75.9881 84.9099 76.9161 83.218 76.1206 81.949Z" fill="#3E3E39"/>
<path d="M42.7097 164.433C40.0581 163.728 36.2131 165.984 35.1524 163.305C34.4895 161.331 38.2019 159.075 40.1906 156.96C46.1569 150.474 52.2558 143.988 58.3547 137.643C59.2828 136.656 60.0783 134.541 62.067 136.092C64.8513 140.745 62.067 144.975 61.2715 149.205C57.6918 156.678 53.0513 162.741 44.8311 164.574C44.1682 164.856 43.3727 165.138 42.7097 164.433Z" fill="#977553"/>
<path d="M42.7103 164.433C50.798 162.6 56.1013 156.96 60.2114 149.769C61.2721 147.654 64.3216 147.936 65.1171 145.398C66.7081 142.296 69.6249 140.463 71.4811 137.643C72.9395 135.246 70.8182 131.58 74.1328 129.888C76.5193 130.734 75.1935 132.99 75.5912 134.541C75.5912 137.22 75.5912 139.899 75.5912 142.578C75.4586 143.847 75.326 145.116 74.2654 146.103C71.0834 145.821 68.962 147.654 66.9732 150.051C60.8744 157.383 53.7148 163.869 47.7485 171.342C46.8204 172.611 45.4946 173.598 43.771 173.457C41.6496 174.726 40.8541 174.021 40.9867 171.483C41.9148 169.368 43.6384 168.24 45.6272 167.535C46.953 164.01 42.8429 166.407 42.7103 164.433Z" fill="#2E2219"/>
<path d="M31.705 162.459C30.5118 163.446 29.3185 163.305 28.1253 162.459C27.0646 161.19 27.7275 159.921 28.523 158.934C37.6713 148.782 47.0848 138.912 56.6309 129.042C57.9567 127.632 59.5477 126.927 60.8736 129.183C61.1387 130.17 61.1387 131.157 60.3432 131.862C50.3994 141.873 40.9859 152.025 31.705 162.459Z" fill="#805E42"/>
<path d="M43.7705 173.315C48.0132 168.803 52.3885 164.292 56.6312 159.639C60.8739 154.986 65.1166 150.333 69.2267 145.68C70.8177 143.847 71.8784 143.988 73.2042 145.821C73.4694 146.244 73.4694 146.667 73.0716 146.949C69.2267 150.897 65.3818 154.704 61.6694 158.793C57.4267 163.305 53.4492 167.816 49.2065 172.328C47.748 173.879 46.157 175.712 43.7705 175.289C43.7705 174.584 43.7705 174.02 43.7705 173.315Z" fill="#563F31"/>
<path d="M60.3441 132.003C60.3441 131.016 60.3441 130.17 60.3441 129.183C59.9463 127.632 57.6924 127.35 57.6924 125.376C57.6924 124.953 57.6924 124.389 57.825 123.966C58.2227 122.556 59.5486 122.133 60.4766 121.146C61.9351 119.313 63.7913 117.762 64.4542 115.365C64.9845 113.532 66.4429 113.25 68.0339 113.25C68.6969 113.391 69.2272 113.532 69.7575 113.955C70.9508 115.647 70.553 117.903 71.6137 119.595C71.7463 120.018 71.8789 120.441 71.8789 120.864C71.3486 122.838 73.3373 124.248 72.9396 126.222C72.6744 126.927 72.2766 127.35 71.7463 127.632C68.5643 127.632 66.9733 130.17 64.9845 132.003C63.9238 132.708 64.3216 135.246 62.2002 134.823C61.5373 133.977 61.007 132.99 60.3441 132.003Z" fill="#2A2019"/>
<path d="M27.0647 174.302C26.2692 173.738 25.0759 173.033 26.004 172.187C28.1254 170.214 29.4512 166.971 32.6332 166.407C33.2961 167.817 37.0085 166.689 35.5501 169.368C34.3568 171.764 33.6939 175.712 29.7164 175.148C28.7883 175.007 27.9928 174.584 27.0647 174.302Z" fill="#715646"/>
<path d="M62.1995 134.964C63.6579 134.259 62.4646 131.862 64.1882 131.157C65.7792 134.259 66.177 137.502 65.6467 141.027C65.3815 142.578 64.7186 144.27 65.7792 145.68C65.5141 149.769 61.9343 148.077 60.0781 149.628C61.0062 145.116 62.3321 140.745 61.9343 136.092C62.1995 135.669 62.1995 135.387 62.1995 134.964Z" fill="#3A2D22"/>
<path d="M45.6264 167.393C44.5657 169.367 42.8421 170.354 40.9859 171.341C40.0578 170.495 38.8646 169.085 40.0578 168.239C41.5162 167.111 43.505 165.419 45.6264 167.393Z" fill="#5C4C3F"/>
<path d="M171.184 118.185C173.703 117.903 175.957 119.031 178.343 119.313C185.635 119.172 186.829 120.159 187.094 126.081C186.696 128.76 188.42 131.016 188.685 133.554C188.817 135.81 188.685 137.925 185.768 135.951C183.514 134.4 180.995 135.105 178.608 134.964C173.835 134.823 174.233 129.747 172.112 127.068C171.581 124.671 171.581 122.133 170.123 120.018C169.593 119.313 169.725 118.185 171.184 118.185Z" fill="#74808E"/>
<path d="M173.703 136.515C173.835 137.925 173.04 138.489 172.377 139.194C168.664 143.142 165.085 146.949 161.372 150.897C160.179 152.166 159.118 152.871 157.66 151.179C156.201 149.628 156.334 148.5 157.66 147.09C161.505 143.001 165.35 138.771 169.327 134.682C169.99 133.977 170.786 132.99 171.581 133.695C172.509 134.4 173.04 135.669 173.703 136.515Z" fill="#967555"/>
<path d="M157.395 155.55C157.395 157.101 156.865 158.37 156.069 159.639C154.346 162.458 151.959 163.163 149.44 161.894C146.391 160.485 146.656 157.242 147.319 154.704C148.114 151.602 150.501 151.179 153.285 151.884C154.081 152.166 154.743 152.307 155.406 152.589C156.069 153.717 156.732 154.704 157.395 155.55Z" fill="#7A8998"/>
<path d="M174.896 139.758C176.62 140.322 178.343 141.027 177.283 143.424C176.222 145.962 174.101 145.116 172.112 144.834C170.786 141.873 174.366 141.873 174.896 139.758Z" fill="#C6C7C6"/>
<path d="M159.118 135.105C161.372 135.246 163.891 135.246 161.903 138.912C159.781 141.168 158.058 141.027 156.732 138.066C156.599 136.233 156.997 134.823 159.118 135.105Z" fill="#ECECE8"/>
<path d="M171.184 118.185C170.256 121.287 173.438 123.966 172.112 127.068C171.847 127.068 171.715 127.068 171.449 127.068C170.787 124.107 169.991 121.287 169.328 118.326C169.593 117.48 169.196 115.647 170.256 116.07C172.378 116.916 173.969 114.942 175.825 115.365C176.09 115.365 176.223 116.211 176.223 116.634C176.09 116.916 175.56 117.198 175.162 117.339C173.703 117.762 172.245 116.916 171.184 118.185Z" fill="#2F3236"/>
<path d="M159.119 135.105C157.66 135.528 157.66 137.22 156.732 138.066C155.671 137.925 154.611 139.476 153.683 137.925C153.683 137.643 153.683 137.361 153.683 137.079C153.815 136.656 153.948 136.233 154.213 135.951C155.141 133.272 155.671 130.311 159.384 130.875C159.649 130.875 159.781 130.875 160.047 131.016C162.831 132.99 160.312 133.977 159.119 135.105Z" fill="#353431"/>
<path d="M165.616 149.769C167.207 149.769 168.798 150.051 168.4 152.307C167.87 155.126 165.616 154.562 163.76 154.703C162.036 152.025 165.085 151.461 165.616 149.769Z" fill="#C6C5C0"/>
<path d="M156.335 144.834C153.55 144.975 153.55 143.001 153.683 141.027C154.346 140.604 155.009 139.335 155.937 140.604C156.865 141.873 158.058 143.142 156.335 144.834Z" fill="#BEBDBC"/>
<path d="M163.892 131.157C166.013 129.606 166.809 130.311 166.544 132.99C165.616 133.131 164.82 133.131 163.892 133.272C162.699 132.567 163.76 131.862 163.892 131.157Z" fill="#EAECED"/>
<path d="M204.595 116.352C200.087 121.005 195.712 125.658 191.071 130.452C190.143 128.478 190.276 125.94 188.817 124.248C187.492 122.697 188.154 121.146 189.215 119.877C194.916 113.814 200.087 107.046 206.716 102.112C210.429 99.8556 212.948 96.3306 215.732 93.0877C215.997 92.8057 216.395 92.5237 216.925 92.5237C218.251 92.6647 218.649 93.7927 219.179 94.7796C219.577 100.702 213.08 111.276 207.644 111.981C204.065 112.263 204.33 113.955 204.595 116.352Z" fill="#8091A3"/>
<path d="M219.047 94.7796C218.119 94.0747 217.323 93.5107 216.395 92.8057C215.202 91.1137 216.13 89.5627 217.058 88.4347C220.77 83.7818 224.748 79.6929 228.99 75.604C229.521 75.04 230.316 74.758 231.112 75.181C233.498 80.5389 230.184 85.0508 229.256 89.9857C228.858 91.9597 225.543 91.3957 223.82 90.6907C219.842 88.9987 218.649 90.5497 219.047 94.7796Z" fill="#7E8E9E"/>
<path d="M231.245 75.0401C227.135 79.411 222.892 83.7819 218.782 88.1529C217.588 89.4218 216.528 90.8318 216.528 92.8058C216.263 93.0878 215.865 93.2288 215.467 93.0878C214.539 91.9598 213.611 91.1138 212.815 89.8448C212.815 89.5628 212.948 89.2808 212.948 88.9988C217.191 84.2049 221.433 79.552 225.809 75.0401C226.869 73.9121 227.797 72.5021 229.654 73.2071C230.449 72.5021 231.377 71.7971 232.173 71.0921C233.233 70.9511 234.161 71.2331 234.957 72.0791C234.957 74.7581 231.245 72.3611 231.245 75.0401Z" fill="#3F454E"/>
<path d="M234.824 72.0787C233.764 72.3607 232.703 72.2197 232.04 71.0917C231.112 67.9897 233.366 68.4127 234.957 68.2717C234.824 69.5407 234.824 70.8097 234.824 72.0787Z" fill="#242427"/>
<path d="M12.3478 116.211C15.1321 116.352 16.7231 115.506 15.3972 112.122C15.2646 110.994 14.9995 109.866 15.9276 108.456C17.7838 112.827 20.7006 110.148 20.568 108.456C20.1703 104.649 22.9545 104.367 24.5455 102.675C32.1029 99.9965 39.6602 100.137 47.4826 101.547C47.6152 103.521 46.0242 103.662 45.0961 103.521C39.2624 102.816 35.4175 106.341 31.8377 110.289C32.6332 112.263 33.4287 114.096 30.3793 114.519C28.6557 114.801 27.4624 115.929 26.1366 116.916C22.159 120.3 19.1096 124.389 16.1927 128.76C14.9995 132.003 11.5523 130.311 9.69611 132.003C9.29836 132.567 9.03319 133.131 8.63543 133.554C6.3815 135.387 4.65791 139.899 2.40397 139.053C0.0174562 138.066 3.06689 133.977 2.40397 131.157C3.46465 127.632 4.26015 123.966 6.11633 120.864C6.64667 120.018 6.24892 118.89 8.23768 120.3C10.8894 122.274 10.6242 117.48 12.3478 116.211Z" fill="#2B2018"/>
<path d="M25.2086 116.352C26.9322 114.519 28.921 113.109 31.5727 113.25C31.8379 111.558 27.7278 113.25 29.8491 110.43C34.7547 108.738 39.6603 108.597 44.566 109.584C45.7592 110.148 46.157 110.994 45.0963 111.981C44.0356 112.968 43.2401 113.955 44.0356 115.506C44.0356 117.198 42.9749 118.185 42.0469 119.313C34.7547 127.068 27.33 134.964 19.9053 142.86C18.8446 143.988 17.9165 145.539 16.0603 144.834C13.2761 142.155 12.7457 145.539 11.4199 146.808C11.4199 143.142 11.4199 139.476 11.4199 135.81C11.4199 134.259 11.9502 132.426 9.69629 132.144C10.3592 128.76 14.6019 131.298 15.3974 128.337C17.6513 132.003 14.4693 135.528 14.9997 139.194C18.0491 138.207 32.2356 123.966 38.4671 115.506C35.2851 114.378 32.5008 115.647 29.5839 116.352C27.9929 116.634 26.6671 117.762 25.2086 116.352Z" fill="#413023"/>
<path d="M153.682 49.5192C151.826 44.4433 153.55 39.0854 153.682 33.8685C153.682 39.0854 153.682 44.3023 153.682 49.5192Z" fill="#4E4E4D"/>
<path d="M118.548 160.484C102.903 164.996 87.2583 164.855 71.4807 160.484C69.0942 159.075 70.8178 157.665 71.4807 156.255C73.8672 155.55 77.3144 157.665 78.5077 155.691C79.9661 153.153 76.1212 151.884 75.0605 149.487C74.3976 147.936 73.8672 146.244 75.0605 144.975C76.3863 143.424 77.9774 144.834 79.1706 145.68C82.2201 147.654 84.474 150.615 86.9931 153.294C93.7549 160.343 99.456 159.075 105.29 151.179C109.267 145.68 114.968 141.309 122.26 140.886C123.189 140.886 124.117 140.886 124.912 140.886C130.216 141.027 131.541 142.719 130.613 148.218C130.481 149.064 130.481 149.769 130.348 150.615C129.022 152.307 128.227 154.422 127.696 156.396C125.575 160.202 122.26 160.907 118.548 160.484Z" fill="#EAEAE2"/>
<path d="M118.548 160.484C121.597 159.215 125.045 158.651 127.696 156.396C127.033 158.51 131.409 159.92 128.359 162.317C126.105 160.766 125.31 162.599 124.779 164.15C124.116 166.124 123.188 167.957 121.465 169.226C119.476 170.918 121.465 173.597 120.271 175.43C119.874 171.764 117.487 168.098 119.476 164.15C118.813 163.163 118.415 161.894 118.548 160.484Z" fill="#605F5A"/>
<path d="M130.48 173.315C130.613 173.879 131.011 174.866 130.878 175.148C128.359 178.109 129.817 180.224 132.867 182.48C129.95 183.326 127.298 180.647 125.31 183.044C125.31 183.044 124.647 182.48 124.382 182.198C127.431 178.814 122.658 176.417 123.321 173.315C125.575 172.328 128.094 171.905 130.48 173.315Z" fill="#AFAEA3"/>
<path d="M121.465 169.367C121.333 166.688 124.25 165.278 123.984 162.458C123.984 162.176 126.901 157.805 128.492 162.458C125.841 164.009 127.299 165.278 128.625 166.829C129.288 167.534 130.746 168.098 129.951 169.367C129.288 170.354 128.095 169.649 127.034 169.226C125.443 169.649 124.382 172.046 122.261 170.354C121.996 169.931 121.73 169.649 121.465 169.367Z" fill="#C5C4B7"/>
<path d="M122.26 170.213C124.116 171.059 124.912 166.829 127.033 169.085C127.431 170.636 128.624 170.354 129.685 170.495C131.806 170.777 131.939 171.764 130.613 173.315C128.227 173.597 125.707 174.443 123.321 173.315C122.128 172.61 122.26 171.341 122.26 170.213Z" fill="#31312A"/>
<path d="M134.061 120.441C133.928 120.582 133.928 120.723 133.928 121.005C132.47 123.12 129.818 120.723 128.36 122.556C127.829 122.838 127.166 123.12 126.503 122.979C120.272 126.222 113.775 125.799 107.411 123.966C105.422 124.389 103.434 124.389 102.373 126.645C101.71 127.914 100.384 128.337 99.0584 128.055C94.6831 126.927 89.7775 129.183 85.9326 125.658C85.6674 125.376 85.0045 125.658 84.6067 125.658C82.7505 125.799 81.0269 125.658 79.1707 126.222C77.7123 126.645 76.1213 126.645 74.6629 126.222C73.0719 125.799 72.2764 124.389 72.2764 122.979C72.2764 121.428 73.7348 121.146 74.9281 121.005C78.3752 120.582 81.955 121.005 85.4022 120.723C87.1258 120.159 88.982 119.736 88.3191 116.916C88.3191 116.775 88.1865 116.493 88.1865 116.352C88.0539 115.929 88.0539 115.506 88.0539 115.083C88.0539 113.955 88.5842 112.968 88.982 111.981C89.2472 111.417 89.3797 110.712 89.5123 110.007C89.6449 108.738 89.7775 107.61 90.4404 106.482C93.4898 104.367 96.5393 104.79 99.7213 106.059C100.119 106.341 100.384 106.764 100.517 107.187C100.782 108.456 100.119 109.866 101.047 110.994C103.699 113.391 101.312 116.211 101.71 118.749C101.975 119.031 102.24 119.313 102.506 119.595C103.434 120.441 104.362 120.864 105.555 120.723C105.953 120.723 106.351 120.723 106.881 120.723C114.173 120.864 121.333 121.005 127.697 116.634C128.492 116.07 129.288 115.506 130.216 115.224C134.856 114.096 133.133 118.467 134.061 120.441Z" fill="#ECECE4"/>
<path d="M85.2699 124.389C85.535 124.389 86.0654 124.107 86.1979 124.248C89.7777 128.055 94.4182 125.376 98.3957 126.786C99.5889 127.209 100.915 127.914 101.578 126.081C102.771 122.556 105.157 123.12 107.544 123.966C107.146 125.658 104.76 125.094 104.362 126.927C107.279 127.35 104.362 131.58 107.411 132.003C107.809 132.003 108.34 132.144 108.737 132.144C109.002 132.144 109.135 132.285 109.4 132.285C113.113 132.849 116.692 132.426 120.405 132.426C121.333 132.426 122.261 132.144 123.189 132.849C123.189 133.554 123.189 134.259 123.189 134.964C118.018 136.233 112.582 134.823 107.411 135.669C106.881 137.925 105.953 139.758 103.964 140.745C103.699 140.745 103.566 140.745 103.301 140.745C102.506 140.463 101.578 140.181 101.578 139.053C103.566 133.695 100.384 129.747 94.5508 130.311C92.6946 130.452 91.1036 131.58 89.1148 131.298C87.5238 130.452 86.4631 128.901 85.535 127.35C85.0047 126.504 84.3418 125.517 85.2699 124.389Z" fill="#62625C"/>
<path d="M123.188 132.99C122.26 132.99 121.332 132.99 120.404 133.131C116.427 133.836 112.449 133.836 108.339 132.99H108.471C112.184 129.465 116.294 131.016 120.404 132.144C121.332 132.144 122.525 131.862 123.188 132.99Z" fill="#B0B0AB"/>
<path d="M109.267 131.016C109.664 130.734 109.93 130.17 110.327 130.17C114.57 130.17 118.813 130.17 123.188 130.17C122.392 131.58 121.199 130.734 120.271 131.157C116.691 131.721 112.979 132.003 109.267 131.016Z" fill="#4D4B45"/>
<path d="M123.056 128.901C118.814 128.901 114.571 128.901 110.328 128.901C110.328 128.76 110.328 128.619 110.328 128.478C114.438 128.478 118.681 128.478 122.791 128.478C122.924 128.619 123.056 128.76 123.056 128.901Z" fill="#A9A79F"/>
<path d="M123.056 126.927C118.813 126.927 114.438 126.927 110.195 126.927C110.195 126.786 110.195 126.645 110.195 126.504C114.438 126.504 118.813 126.504 123.056 126.504C123.056 126.645 123.056 126.786 123.056 126.927Z" fill="#414138"/>
<path d="M126.769 122.979C127.034 122.697 127.299 122.415 127.697 121.992C129.155 121.569 130.613 119.736 132.205 121.569C133.265 122.697 133.398 123.825 132.337 124.953C130.879 123.12 127.829 125.94 126.769 122.979Z" fill="#4B4B45"/>
<path d="M109.267 131.016C112.979 131.016 116.559 131.157 120.272 131.157C120.272 131.439 120.272 131.721 120.272 132.003C116.294 132.708 112.184 130.734 108.339 132.849C107.941 132.567 107.543 132.285 107.278 132.003C107.809 131.298 108.604 131.157 109.267 131.016Z" fill="#8E8E88"/>
<path d="M132.337 125.094C133 120.3 129.818 122.133 127.696 122.133C129.42 119.172 131.806 120.3 134.193 121.005C134.325 122.133 134.326 123.12 134.458 124.248C134.458 124.671 134.458 125.094 134.326 125.376C133.795 125.799 133.265 125.799 132.734 125.376L132.337 125.094Z" fill="#7B7B75"/>
<path d="M132.602 125.376C133.132 125.376 133.663 125.376 134.193 125.376C134.061 127.914 132.337 128.619 130.083 128.76C130.879 127.632 131.674 126.504 132.602 125.376Z" fill="#AFAEAB"/>
<path d="M99.8537 108.315C99.8537 108.033 99.9863 107.751 100.119 107.469C100.384 106.482 101.047 105.918 101.975 105.636C103.699 105.354 105.29 105.636 106.881 105.495C99.0582 105.918 91.2358 106.482 83.5459 105.354C85.6672 105.918 88.1863 104.649 89.9099 107.046C90.3077 109.02 89.9099 110.43 87.9212 110.853C85.7998 109.725 83.6784 108.879 81.5571 110.148C84.6065 110.007 87.656 110.571 90.5728 111.276C90.3077 111.699 90.1751 112.122 89.9099 112.545C86.8605 114.237 83.6785 114.096 80.4964 113.673C75.856 112.968 71.0829 112.545 66.9728 109.866C66.3099 108.879 66.4425 107.892 66.8403 106.905C67.1054 106.059 67.5032 105.072 67.6358 104.085C67.7683 103.38 68.1661 102.675 68.6964 102.252C69.2268 102.111 69.6245 102.252 70.0223 102.393C72.2762 103.521 74.3976 103.098 76.6515 101.97C78.5077 100.983 80.4964 101.265 82.6178 101.124C90.9706 101.124 99.456 100.983 107.809 101.124C112.449 101.406 116.825 102.957 121.332 104.508C121.863 105.072 122.791 105.354 122.26 106.482C123.851 108.456 125.973 107.187 127.829 107.469C125.575 111.417 121.598 110.853 118.15 111.699C116.294 111.558 114.438 112.122 112.582 112.122C111.654 111.981 110.858 111.558 110.195 110.853C107.544 108.456 104.362 110.289 101.577 109.443C100.782 109.302 100.119 109.02 99.8537 108.315Z" fill="#72726C"/>
<path d="M123.189 90.9726C125.575 90.6906 126.901 88.7166 127.962 86.8837C130.481 82.6537 133.795 82.3717 137.773 84.0637C135.651 89.7036 131.541 92.9466 126.636 95.6255C126.503 95.7665 126.371 96.0485 126.238 96.1895C123.851 97.0355 120.935 99.2915 120.404 94.0745C120.802 92.5236 121.465 91.2546 123.189 90.9726Z" fill="#E2E2DB"/>
<path d="M117.619 110.571C121.199 110.289 124.514 109.161 127.696 107.469C127.961 107.187 128.359 106.905 128.624 106.623C131.939 105.636 132.734 108.174 132.867 110.571C132.999 113.673 130.745 112.263 129.154 112.122C128.094 112.122 127.166 112.686 126.105 113.25C125.707 113.532 125.309 113.673 124.779 113.955C120.934 116.07 116.559 116.211 112.449 116.775C110.195 116.775 107.808 116.775 105.687 115.647C104.494 115.083 103.3 114.237 103.698 112.827C103.963 111.699 105.289 111.417 106.35 111.417C110.195 111.135 114.04 112.545 117.619 110.571Z" fill="#DCDCD7"/>
<path d="M125.708 112.263C127.564 110.43 129.553 109.584 132.337 113.109C131.674 109.443 131.939 106.905 128.625 106.623C131.144 106.623 133.398 101.125 136.05 106.341C135.387 108.879 136.58 110.712 137.906 112.545C136.845 114.096 140.425 119.454 134.591 117.198C134.459 118.326 134.193 119.313 134.061 120.441C132.735 119.172 134.326 114.942 130.481 116.211C129.553 114.096 127.166 113.814 125.708 112.263Z" fill="#7B7B75"/>
<path d="M121.333 104.508C116.692 105.636 112.715 102.393 108.207 102.393C109.4 99.5735 111.787 100.56 113.776 100.419C114.438 100.56 115.101 100.56 115.764 100.701C119.477 103.239 121.731 98.7275 124.913 98.4455C126.238 97.8815 127.564 97.1765 128.625 98.7275C129.023 101.265 128.36 102.675 125.576 102.534C124.117 102.675 121.863 101.547 121.333 104.508Z" fill="#8D8C86"/>
<path d="M138.038 112.545C134.59 111.135 133.795 108.738 136.181 106.341C136.977 107.187 137.905 107.892 139.098 107.469C142.678 106.2 143.473 108.174 143.341 111.276C141.75 112.968 139.761 112.263 138.038 112.545Z" fill="#CCCBBD"/>
<path d="M128.624 98.8687C127.298 98.5867 126.105 99.0097 125.044 99.8557C123.984 100.138 122.525 100.702 121.995 99.1507C121.332 97.4587 123.055 97.1767 123.984 96.6127C124.779 96.0487 126.105 96.7537 126.768 95.6257C127.828 95.9077 129.022 95.4847 129.685 96.7537C128.757 97.1767 128.757 98.0227 128.624 98.8687Z" fill="#353533"/>
<path d="M137.906 82.9357C136.58 81.2437 134.194 82.9357 132.603 80.9617C134.856 79.2698 137.376 80.3978 139.63 80.1158C138.701 80.8207 140.16 83.0767 137.906 82.9357Z" fill="#424240"/>
<path d="M122.26 106.482C121.995 105.777 121.597 105.214 121.332 104.509C123.056 104.791 124.912 103.945 126.635 105.354C125.31 107.187 123.586 106.2 122.26 106.482Z" fill="#8D8C86"/>
<path d="M129.686 96.7533C134.061 94.9203 131.939 98.1633 132.735 100.278C130.348 99.4323 129.818 98.3043 129.686 96.7533Z" fill="#93938B"/>
<path d="M133.132 58.402C136.579 60.376 140.292 58.966 144.004 59.248C145.065 59.389 146.258 59.248 146.656 60.658C146.921 61.786 145.993 62.3499 145.33 63.0549C141.22 67.7079 130.348 67.1439 125.177 62.2089C121.995 60.376 122.658 57.274 123.453 54.4541C124.514 50.7881 126.901 48.3912 130.48 47.6862C132.071 47.4042 133.795 47.4042 135.519 47.6862C136.579 47.9682 137.11 48.8141 137.375 49.8011C135.651 52.6211 132.867 54.7361 133.132 58.402Z" fill="#C6C5B6"/>
<path d="M135.917 48.8143C125.84 48.5323 121.73 53.7492 125.045 62.35C124.249 62.35 123.454 62.632 123.056 63.478C122.393 63.055 121.863 62.35 122.128 61.5041C122.128 58.8251 122.791 56.1461 121.598 53.6082C121.995 50.9292 123.454 49.2372 125.575 48.2503C132.204 45.2893 138.701 45.0073 145.33 48.5323C145.595 48.9553 145.595 49.3782 145.33 49.8012C143.474 50.5062 142.016 48.9552 140.292 48.9552C138.834 48.9552 137.375 48.6733 135.917 48.8143Z" fill="#606157"/>
<path d="M133.132 58.4021C131.011 54.0311 133.53 52.0571 136.712 50.3652C138.038 49.0962 139.629 49.0962 141.352 49.2372C142.413 49.5192 143.341 49.8012 143.739 50.9292C142.678 53.6081 139.231 51.7752 138.038 54.4541C140.69 55.8641 143.872 54.0311 146.391 56.0051C146.788 56.7101 146.921 57.2741 146.523 57.9791C142.015 58.2611 137.507 58.4021 133.132 58.4021Z" fill="#2E545D"/>
<path d="M146.391 58.2614C146.259 57.6974 146.126 56.9924 145.994 56.4284C144.933 55.0184 143.077 54.0314 143.209 51.6345C143.077 50.6475 142.281 50.5065 141.618 50.3655C140.558 49.8015 139.497 49.0965 140.823 47.6865C142.281 48.2505 143.872 48.8145 145.331 49.5195C148.38 49.8015 148.645 52.9034 150.104 54.8774C150.369 57.8384 149.176 59.1073 146.391 58.2614Z" fill="#22272B"/>
<path d="M150.103 54.8773C147.849 53.7494 147.849 50.3654 145.33 49.5194C145.33 49.0964 145.33 48.8144 145.33 48.3914C147.054 48.3914 147.849 49.9424 148.645 51.2114C149.44 52.4804 149.971 52.0574 150.766 51.3524C151.031 52.7624 150.766 53.8904 150.103 54.8773Z" fill="#7A7976"/>
<path d="M122.26 140.886C115.896 143.565 109.93 146.808 105.687 152.73C99.721 161.049 92.694 161.472 85.9322 153.999C83.5457 151.32 81.1592 148.5 78.1097 146.385C77.1817 145.68 76.2536 144.129 75.0603 145.821C74.2648 146.949 74.9277 148.359 75.8558 149.346C77.3142 150.756 78.7727 152.307 80.0985 153.717C80.894 154.563 82.3524 155.127 81.5569 156.819C80.894 158.37 79.4356 158.088 78.2423 157.947C75.9884 157.806 73.7345 157.242 71.3479 156.96C71.0828 156.678 70.9502 156.537 70.9502 156.255C71.0828 155.973 71.0828 155.832 71.2154 155.832C71.8783 155.409 72.4086 155.127 73.0715 154.704C74.2648 153.576 73.9996 152.589 72.939 151.602C74.3974 150.051 72.939 148.5 72.8064 146.949C72.8064 146.526 72.939 146.244 72.939 145.821C74.1322 145.257 73.8671 143.988 74.1322 142.86C74.53 142.155 74.1322 141.027 75.1929 140.604C76.121 140.604 77.0491 140.886 77.712 141.591C80.6288 144.411 83.6783 144.552 86.8603 142.578C87.7884 142.719 88.4513 143.283 88.9817 144.129C87.2581 149.769 87.921 151.743 91.7659 154.14C94.6828 155.973 98.6603 154.845 101.047 151.602C103.433 148.5 102.638 146.244 99.0581 145.257C96.9367 144.693 94.8154 145.116 92.694 144.975C91.2356 144.834 89.1142 145.539 88.7165 142.86C91.8985 140.322 95.7434 141.168 99.0581 141.732C100.914 142.014 101.975 141.309 103.168 140.604C103.301 140.745 103.433 140.745 103.699 140.886C105.555 146.526 106.615 146.949 110.858 143.847C113.907 141.591 116.957 139.194 120.802 138.63C122.393 138.912 123.056 139.476 122.26 140.886Z" fill="#62625C"/>
<path d="M73.2046 151.602C74.3978 152.025 76.5192 152.025 76.3866 153.717C76.254 155.409 74.3978 154.281 73.3371 154.704C72.1439 153.717 72.6742 152.589 73.2046 151.602Z" fill="#ACACA5"/>
<path d="M71.4801 155.832C71.4801 156.114 71.4801 156.537 71.4801 156.819C71.0823 158.088 70.0216 159.216 71.4801 160.485C71.3475 160.485 71.2149 160.626 71.0823 160.626C70.4194 161.19 69.7565 161.19 68.961 160.908C67.7677 159.921 67.7677 158.793 68.5632 157.524C70.0216 157.806 70.4194 156.255 71.4801 155.832Z" fill="#5F5045"/>
<path d="M229.521 73.207C225.543 77.2959 221.566 81.2439 217.721 85.4738C216.262 87.0248 214.937 88.4347 212.948 88.9987C210.694 88.8577 209.898 90.9727 208.573 92.2417C203.269 97.8816 198.098 103.663 192.795 109.443C189.48 103.663 189.746 101.548 193.59 97.1766C197.17 93.3697 200.75 89.4217 205.258 86.8838C208.97 77.7189 215.732 73.207 224.748 72.079C226.339 72.502 228.195 71.092 229.521 73.207Z" fill="#BBC3CC"/>
<path d="M212.683 89.8447C214.937 89.5627 215.732 90.8317 215.6 92.9467C214.009 97.1766 210.164 99.4326 207.379 102.676C201.678 108.456 196.11 114.237 190.409 119.877C189.215 121.005 188.42 122.415 188.685 124.248C188.553 125.376 188.155 126.222 186.962 126.081C186.166 120.723 182.056 120.3 178.211 119.313C178.874 119.031 179.537 118.185 180.2 118.326C185.238 119.313 188.022 116.07 190.541 112.404C197.966 104.932 205.258 97.3176 212.683 89.8447Z" fill="#2A3138"/>
<path d="M189.613 112.404C186.564 115.506 183.779 119.313 178.741 116.352C176.885 115.365 176.885 114.801 178.211 113.25C180.332 110.853 182.454 108.456 185.901 110.289C186.961 111.417 189.878 108.879 189.613 112.404Z" fill="#B9C0CA"/>
<path d="M107.411 135.951C112.582 133.977 118.018 135.387 123.189 135.246C118.018 137.784 112.714 135.951 107.411 135.951Z" fill="#8E8E8B"/>
<path d="M13.2764 156.678C13.5415 156.255 13.6741 155.55 13.9393 155.55C18.3146 153.999 17.5191 151.602 15 148.782C25.4741 139.476 34.4899 128.478 44.3011 118.467C45.4943 117.198 45.3618 115.506 46.4224 114.237C48.9415 114.942 51.4606 115.647 53.0516 118.185C48.5438 120.582 45.4943 124.812 41.782 128.337C39.9258 130.17 40.7213 131.157 41.9146 132.567C41.6494 133.977 40.4561 134.118 39.3955 134.4C33.2966 135.387 32.2359 137.502 34.6224 143.988C34.6224 144.975 34.2247 145.821 33.4292 146.244C32.6337 146.385 31.7056 146.244 31.3078 145.539C29.1865 140.745 27.3303 143.706 25.4741 145.68C25.0764 146.103 24.546 146.667 24.1483 147.09C18.7123 152.871 18.7123 152.871 23.3528 159.357C23.4854 159.78 23.4854 160.203 23.2202 160.626C22.4247 161.049 22.2921 161.895 22.1595 162.74C19.9056 162.74 18.5797 160.908 17.2539 159.357C16.3258 157.806 14.8674 157.242 13.2764 156.678Z" fill="#413023"/>
<path d="M33.5622 145.539C33.8274 144.975 34.2251 144.411 34.4903 143.988C36.6116 143.142 39.2633 143.988 41.1195 141.873C42.9757 139.899 44.0363 137.22 46.5554 135.951C50.533 132.285 53.0521 127.068 58.3554 124.953C58.2229 126.786 60.4768 127.35 60.3442 129.183C59.0184 128.055 58.0903 129.042 57.2948 130.029C48.0139 139.899 38.6004 149.91 29.1869 159.78C28.524 160.485 28.1262 161.331 28.1262 162.318C27.4633 161.613 26.8004 160.908 26.0049 160.203C26.0049 157.101 28.9217 156.114 29.9824 153.717C31.3083 151.179 35.4184 149.769 33.5622 145.539Z" fill="#3E2E21"/>
<path d="M13.2761 156.677C18.1817 155.267 19.2424 160.766 22.4244 162.599C20.0379 164.714 19.1098 170.636 14.2042 166.547C14.0716 166.265 13.939 165.842 13.6739 165.701C9.96151 162.881 9.29859 159.92 13.2761 156.677Z" fill="#6A5243"/>
<path d="M26.9326 166.689C25.7393 168.522 24.5461 170.637 22.1596 171.201C20.9663 171.483 20.436 170.073 20.9663 169.227C22.1596 167.253 23.4854 164.997 26.0045 164.715C26.6674 164.574 27.0652 165.561 26.9326 166.689Z" fill="#564030"/>
<path d="M30.6447 154.563C29.0537 156.537 27.5952 158.511 26.0042 160.344C25.2087 160.344 24.2806 160.344 23.4851 160.485C23.4851 160.203 23.3525 159.921 23.3525 159.639C25.4739 157.383 26.7997 153.858 30.6447 154.563Z" fill="#6A5243"/>
<path d="M46.2891 114.519C47.2172 116.352 46.6869 117.621 45.3611 119.172C36.6105 128.337 27.8599 137.784 19.1094 147.09C17.9161 148.359 16.7228 149.205 15.1318 148.782C15.2644 147.372 14.7341 145.962 16.0599 144.834C25.7386 135.528 34.8869 125.658 43.77 115.365C44.0352 113.109 45.0959 113.673 46.2891 114.519Z" fill="#826044"/>
<path d="M13.9393 152.025C12.746 153.999 11.155 155.973 8.90106 157.101C8.10556 157.524 7.57522 156.255 7.7078 155.55C8.23814 152.73 10.0943 151.038 12.3483 150.051C13.1438 149.91 13.8067 150.756 13.9393 152.025Z" fill="#523D32"/>
<path d="M154.214 136.938C153.948 136.938 153.816 137.079 153.683 137.22C150.369 137.361 148.247 136.797 149.838 132.285C150.766 129.465 145.993 124.53 143.077 125.094C141.088 125.517 139.497 125.235 137.906 124.389C136.05 122.979 137.508 121.71 138.171 120.441C139.364 120.3 140.425 119.595 141.751 119.877C143.872 120.3 145.728 120.441 144.005 117.057C143.077 115.083 144.668 113.955 146.126 113.532C148.247 113.109 149.308 114.378 149.441 116.493C150.104 123.402 152.888 125.658 159.517 125.094C161.241 126.927 161.638 128.76 160.047 130.875H160.18C157.528 131.58 156.6 132.426 154.214 136.938Z" fill="#BAB9AB"/>
<path d="M126.769 95.6256C126.371 96.8946 125.045 96.6126 124.249 97.1766C123.587 97.5996 122.261 97.8816 122.791 99.0096C123.056 99.5735 124.249 99.5735 125.045 99.8555C122.261 100.42 120.139 102.676 117.09 102.535C115.897 102.535 114.836 102.394 115.764 100.702C116.825 100.279 118.283 101.125 119.344 98.4456C105.29 98.4456 91.6337 98.4456 77.9775 98.4456C77.9775 98.1636 77.9775 97.8816 77.9775 97.5996C79.436 95.4846 82.8832 98.0226 83.9438 94.9206C83.9438 93.6516 84.209 92.3827 84.7393 91.2547C85.0045 90.8317 85.2697 90.6907 85.6674 90.5497C86.7281 90.8317 87.5236 92.1007 88.8495 91.6777C89.645 91.5367 90.4405 91.2547 91.1034 91.8187C92.0315 93.2287 93.6225 93.6516 94.8157 94.7796C94.9483 95.2026 94.8157 95.6256 94.5506 96.0486C94.1528 96.4716 93.4899 96.4716 92.9596 96.8946C93.8877 96.7536 94.9483 96.7536 96.009 96.3306C98.1304 94.0746 100.252 93.9336 102.373 96.4716C103.566 96.8946 104.76 96.6126 105.953 96.7536C104.892 96.6126 103.831 96.8946 102.903 96.0486C102.638 95.6256 102.506 95.2026 102.638 94.7796C103.566 93.5106 105.29 93.6516 106.351 92.8057C107.146 92.2417 107.676 91.2547 108.605 90.6907C109.135 90.6907 109.533 90.8317 109.798 91.2547C109.93 91.1137 109.93 90.9727 109.798 90.9727C109.135 90.4087 108.339 90.8317 107.676 90.9727C106.748 90.1267 106.881 89.2807 107.676 88.4347C109.267 87.4477 110.991 87.5887 112.715 88.2937C113.378 88.7167 113.775 89.2807 114.04 89.9857C114.306 92.9467 117.09 93.3696 118.681 94.7796C118.548 97.4586 116.692 96.3306 116.029 96.6126C116.692 96.1896 118.946 97.8816 118.681 94.6386C118.151 93.0877 118.681 91.9597 119.609 90.8317C121.996 90.5497 120.67 92.9467 121.465 93.7926C121.73 99.1506 125.178 94.3566 126.769 95.6256Z" fill="#60605D"/>
<path d="M113.775 100.56C111.919 101.265 110.063 101.829 108.207 102.534C99.4563 102.534 90.7058 102.534 81.8226 102.534C80.2316 101.829 78.1103 102.675 76.917 100.701C77.8451 99.5734 79.1709 99.8554 80.3642 99.8554C90.308 99.8554 100.252 99.8554 110.328 99.8554C111.521 99.7144 112.847 99.4324 113.775 100.56Z" fill="#EFEFEF"/>
<path d="M69.6244 102.534C69.3593 102.534 68.9615 102.534 68.6963 102.675C65.9121 104.367 63.393 104.649 60.8739 102.111C60.3435 96.0485 64.4536 99.1504 66.8402 98.7274C68.6963 98.4454 70.2873 99.2914 71.6132 100.56C71.348 101.406 70.8177 101.829 70.1548 102.393C69.8896 102.393 69.757 102.534 69.6244 102.534Z" fill="#8B8A85"/>
<path d="M66.7074 98.7276C66.7074 100.984 65.5141 99.9965 64.7186 99.5735C63.1276 98.5866 61.9344 98.8685 61.0063 100.561C60.2108 101.548 59.4153 101.548 58.6198 100.561C58.4872 99.0095 57.8243 97.3176 59.1501 96.0486C61.5366 97.4586 64.9838 95.6256 66.7074 98.7276Z" fill="#2F2F2C"/>
<path d="M77.0499 100.561C78.641 101.124 80.232 101.829 81.9556 102.393C79.8342 102.816 77.8455 102.816 75.8567 103.944C74.0005 104.931 71.0837 106.2 69.7578 102.675C71.2162 100.701 73.7353 102.675 75.3263 100.843C75.7241 100.702 76.387 100.561 77.0499 100.561Z" fill="#8B8A85"/>
<path d="M75.0607 100.843C75.5911 101.97 75.5911 102.675 74.1326 102.675C72.5416 102.675 71.0832 102.675 69.4922 102.675C69.4922 101.265 70.2877 100.701 71.481 100.561C72.6742 100.561 73.8675 100.702 75.0607 100.843Z" fill="#6B6B68"/>
<path d="M129.552 78.9878C128.624 84.0637 125.31 86.7427 121.332 88.8576C121.2 88.7166 120.934 88.4346 120.802 88.2936C120.404 87.5886 120.272 86.8837 120.272 86.0377C120.139 83.9227 120.404 81.8077 122.128 80.2567C124.382 79.1288 126.636 76.8728 129.552 78.9878Z" fill="#E7E7E8"/>
<path d="M129.552 78.9879C126.768 78.1419 124.779 80.5389 122.26 81.1029C120.006 80.3979 121.73 84.4868 119.343 83.7818C118.017 81.8079 117.619 79.5519 117.222 77.2959C117.619 76.168 118.548 76.027 119.476 75.886C121.464 77.2959 123.851 78.0009 125.84 76.8729C128.226 75.604 129.817 76.4499 131.541 77.8599C131.01 78.2829 130.215 78.7059 129.552 78.9879Z" fill="#6B6C68"/>
<path d="M121.332 93.7926C120.669 92.8056 120.139 91.8186 119.476 90.8316C119.343 90.6906 119.211 90.5496 119.078 90.2676C118.946 89.5627 119.078 88.9987 119.608 88.4347C120.271 88.1527 120.802 88.2937 121.332 88.7167L121.199 88.8577C121.862 89.5627 122.525 90.2676 123.188 90.9726C122.658 91.8186 121.995 92.8056 121.332 93.7926Z" fill="#30302A"/>
<path d="M84.2088 94.6384C85.402 96.0484 87.1256 97.7404 83.4133 97.7404C81.5571 97.7404 79.7009 97.5994 77.8447 97.5994C77.8447 97.3174 77.8447 97.0354 77.8447 96.7534C78.5076 96.0484 79.1706 95.3434 79.7009 94.6384C80.3638 93.7925 81.2919 93.6515 82.22 93.6515C83.0155 93.7925 83.6784 94.0744 84.2088 94.6384Z" fill="#383936"/>
<path d="M46.2898 114.519C45.3618 114.66 44.3011 114.378 43.6382 115.365C38.9977 111.558 45.0966 112.122 45.4943 110.43C45.6269 106.905 48.6764 105.213 50.0022 102.534C50.9303 101.266 51.8584 100.279 52.7865 102.394C53.4494 103.944 54.6427 104.79 56.2337 104.649C58.2224 104.79 59.8134 105.918 61.0067 107.61C61.2719 107.892 61.537 108.315 61.6696 108.738C61.8022 110.853 60.3438 110.712 59.1505 111.276C55.173 112.827 54.7752 113.955 56.1011 118.467C55.9685 119.595 55.173 120.018 54.1123 119.877C53.4494 119.736 52.9191 119.313 52.9191 118.467C50.6651 117.198 48.5438 115.788 46.2898 114.519Z" fill="#2E221A"/>
<path d="M50.0022 102.535C50.3999 106.341 46.8202 107.751 45.4943 110.43C40.191 110.43 35.0202 110.43 29.7168 110.43C34.0921 105.636 38.4674 100.702 45.7595 102.535C46.1572 102.676 46.8202 101.971 47.3505 101.689C48.2786 101.971 49.2067 102.253 50.0022 102.535Z" fill="#6D5342"/>
<path d="M60.4763 108.315C59.1505 107.046 57.8246 105.918 56.3662 104.649C57.6921 104.508 58.4876 103.944 58.355 102.393C57.9572 101.829 57.8246 101.265 58.2224 100.701C58.355 100.56 58.4876 100.56 58.7527 100.419C59.5482 100.419 60.3437 100.419 61.1392 100.419C62.7303 104.508 66.1774 101.829 68.6965 102.534C68.6965 103.098 68.6965 103.803 68.6965 104.367C68.4314 105.072 66.7078 104.931 67.7685 106.341C67.7685 107.187 67.5033 107.892 66.7078 108.456C66.0449 109.161 65.1168 109.161 64.3213 109.02C62.9954 108.315 61.8022 107.328 61.2718 105.777C61.0067 106.623 61.1392 107.751 60.4763 108.315Z" fill="#62615B"/>
<path d="M58.3552 100.701C58.3552 101.265 58.4878 101.829 58.4878 102.393C57.0294 104.085 55.5709 104.226 54.3777 102.252C53.317 100.419 51.1957 98.8685 52.3889 96.3305C52.7867 95.3436 53.7148 94.9206 54.6429 94.9206C55.8361 94.9206 56.6316 95.7666 57.162 96.7535C57.5597 98.0225 57.8249 99.4325 58.3552 100.701Z" fill="#C3C0B1"/>
<path d="M68.6964 157.524C68.6964 158.652 68.5638 159.78 69.4919 160.484C70.0222 162.317 67.9009 162.458 67.6357 163.868C67.238 164.573 66.8402 165.278 66.3099 165.983C65.9121 166.547 65.2492 166.829 64.984 167.534C65.5144 167.393 66.0447 166.97 66.7076 167.111C67.6357 167.534 68.0335 168.239 67.9009 169.226C66.9728 171.2 73.0717 168.803 69.6245 172.328C66.9728 175.571 64.1885 175.289 61.5368 172.469C60.211 172.328 59.1503 171.059 57.6919 171.482C57.029 171.059 57.029 170.354 57.5593 169.931C62.0672 166.688 65.3818 162.176 68.6964 157.524Z" fill="#302C25"/>
<path d="M61.4041 172.469C64.1884 173.174 66.8401 173.597 69.4917 172.328C69.6243 175.289 66.0445 177.545 67.9007 180.929C68.0333 181.211 67.1052 183.185 65.6468 181.916C64.5861 181.07 63.3929 181.07 62.1996 181.634C61.6693 181.916 61.0063 183.185 60.476 181.916C59.9457 180.929 60.7412 180.083 61.4041 179.378C62.067 177.968 60.8738 176.699 61.1389 175.289C61.2715 174.443 61.2715 173.456 61.4041 172.469Z" fill="#AFAEA3"/>
<path d="M66.8399 163.586C66.5748 161.471 68.8287 161.894 69.4916 160.625C70.022 160.625 70.5523 160.625 71.0826 160.766C73.204 163.022 72.1433 165.842 72.1433 168.38C72.1433 168.662 71.4804 167.816 71.3478 167.252C69.2264 166.829 68.5635 164.573 66.8399 163.586Z" fill="#474742"/>
<path d="M85.2695 164.715C91.6336 164.715 97.9976 164.715 104.362 164.715C104.362 164.856 104.362 164.997 104.362 165.138C97.9976 165.138 91.6336 165.138 85.2695 165.138C85.2695 164.997 85.2695 164.856 85.2695 164.715Z" fill="#474843"/>
<path d="M66.84 163.586C70.022 162.458 69.6242 166.265 71.3478 167.252C70.5523 168.662 69.6242 169.649 67.9006 169.226C67.5029 168.662 67.1051 168.098 66.7074 167.534C66.1771 166.97 65.7793 166.265 65.7793 165.419C66.0445 164.855 66.4422 164.15 66.84 163.586Z" fill="#B5B6AC"/>
<path d="M61.1387 175.289C62.1994 176.558 64.4533 177.827 61.4039 179.378C59.9454 178.109 59.9454 176.84 61.1387 175.289Z" fill="#494B40"/>
<path d="M77.0495 85.7555C77.845 85.3325 77.845 84.4865 77.9776 83.6405C78.1102 83.4995 78.2428 83.3585 78.3754 83.3585C84.0765 82.6535 84.0765 82.6535 82.3529 77.1546C83.281 75.8856 84.3417 76.1676 85.4023 76.8726C86.7282 76.7316 87.9214 77.5776 89.2473 76.1676C91.7664 73.4887 94.8158 73.6297 97.3349 76.0266C98.7933 77.2956 99.5888 76.8726 100.782 75.8856C103.301 73.7707 106.218 73.3477 108.605 75.8856C110.328 77.8596 111.521 76.7316 112.847 75.7446C113.775 75.8856 114.571 76.0266 114.969 77.0136C114.703 78.9876 114.041 80.5386 112.052 80.9616C111.521 80.8206 110.991 79.4106 110.461 80.8206C110.063 81.8076 110.063 82.9355 109.533 83.9225C104.892 88.4345 101.18 87.5885 99.5888 81.6666C98.9259 79.1286 97.0697 78.8466 95.2136 78.1416C93.49 78.0006 91.6338 78.0006 91.5012 80.5386C91.3686 82.9355 93.2248 82.6535 94.6832 82.9355C95.6113 83.0765 96.5394 83.2175 96.672 84.4865C95.3461 88.1525 92.0315 86.1785 89.7776 87.1655C86.0652 87.1655 82.3529 89.2804 78.6405 87.4475C77.845 87.4475 76.5192 87.5885 77.0495 85.7555Z" fill="#6B6C68"/>
<path d="M90.8385 60.376C89.1149 67.4259 83.9441 70.1049 73.47 69.2589C67.1059 68.6949 62.4655 64.183 62.2003 58.1201C62.0677 56.0051 62.7307 54.0311 63.9239 52.1982C65.2498 53.1851 65.2498 54.8771 65.7801 56.2871C68.1666 64.183 75.4587 67.7079 82.7509 64.465C83.8116 63.901 85.27 63.478 85.0048 61.927C84.7396 60.517 83.2812 60.94 82.2205 60.94C80.0992 60.799 77.9778 61.081 75.8565 60.799C74.5307 60.517 72.6745 60.799 73.47 58.1201C77.8453 56.5691 82.3531 57.4151 86.861 57.5561C88.8498 57.4151 89.6453 59.107 90.8385 60.376Z" fill="#67675F"/>
<path d="M90.8374 60.3762C85.1363 56.9922 79.0374 58.8252 73.0712 58.5432C70.2869 55.3003 70.6846 54.0313 75.0599 49.6603C77.8442 45.7124 81.6891 47.2634 85.2689 47.5454C88.8487 50.2243 90.8374 53.8903 90.8374 58.5432C90.8374 59.1072 90.8374 59.6712 90.8374 60.3762Z" fill="#415352"/>
<path d="M85.4025 47.5452C82.0879 47.9682 78.2429 46.4173 75.989 50.5062C70.553 48.8142 67.7688 52.6212 65.1171 56.4281C63.5261 55.3001 64.3216 53.6082 63.9238 52.0572C65.6474 47.9682 68.8294 45.9943 72.9396 46.2763C77.0497 46.5583 81.425 45.1483 85.4025 47.5452Z" fill="#66655E"/>
<path d="M90.9709 58.4023C90.0428 54.1723 88.1866 50.5064 85.4023 47.4044C89.7776 49.6604 92.0315 53.0444 90.9709 58.4023Z" fill="#67675F"/>
<path d="M121.598 53.6082C124.249 56.0052 123.321 58.8252 122.128 61.5041C120.935 58.8252 121.598 56.1462 121.598 53.6082Z" fill="#44443B"/>
<path d="M114.968 77.2959C114.173 77.1549 113.244 77.0139 112.847 76.0269C114.968 74.4759 117.222 74.4759 119.476 75.8859C119.078 76.8729 118.15 77.0139 117.355 77.1549C116.692 77.8598 115.896 77.8598 114.968 77.2959Z" fill="#413F3D"/>
<path d="M85.535 77.0139C84.4743 77.1549 83.281 76.7319 82.4855 77.8599C81.5574 79.4109 80.099 79.2699 78.6406 79.1289C78.1102 78.8469 77.4473 78.4239 76.917 78.1419C77.1822 77.7189 77.4473 77.4369 77.7125 77.0139C80.099 74.7579 82.6181 74.8989 85.2698 76.3089C85.4024 76.4499 85.4024 76.7319 85.535 77.0139Z" fill="#41433C"/>
<path d="M85.2692 76.1677C82.7501 76.0267 80.0984 75.7447 77.7119 76.8727C79.9658 73.6297 82.3524 72.9247 85.2692 76.1677Z" fill="#888A82"/>
<path d="M77.0493 85.7556C79.9662 87.1656 83.0156 88.5756 86.065 86.4606C87.5235 85.4737 88.5841 86.1786 89.91 86.7426C97.0695 84.9097 104.494 86.8836 111.654 85.0507C114.571 87.5886 118.15 85.1917 121.2 86.7426C121.2 87.4476 121.332 88.0116 121.332 88.7166C120.802 88.8576 120.139 88.8576 119.609 88.9986C117.355 90.5496 115.101 90.5496 112.847 88.9986C110.991 88.9986 109.267 88.9986 107.411 88.9986C105.953 90.4086 104.096 90.2676 102.24 90.2676C99.8538 90.4086 97.5999 90.5496 95.2134 90.2676C91.1032 90.4086 87.1257 89.8446 83.0156 90.1266C81.4246 90.2676 79.9662 89.9856 78.7729 88.8576C77.3145 88.7166 76.1212 88.1526 75.0605 87.0246C76.9167 85.6146 75.5909 83.4997 76.1212 81.8077C77.3145 82.9357 76.6516 84.4867 77.0493 85.7556Z" fill="#8C8C8A"/>
<path d="M78.7732 88.8578C84.6069 88.8578 90.5732 88.8578 96.4069 88.8578C96.9373 89.7037 96.8047 90.4087 96.2743 91.1137C94.4182 92.3827 92.4294 92.1007 90.308 91.8187C89.7777 92.1007 89.38 92.3827 88.8496 92.8057C87.9215 91.6777 87.126 90.2677 85.4024 90.8317C85.2698 90.8317 85.0047 90.8317 84.8721 90.9727C82.7507 92.6647 80.762 92.5237 78.6406 90.9727C78.9058 90.2677 78.7732 89.5627 78.7732 88.8578Z" fill="#7A7B75"/>
<path d="M82.4851 94.7795C81.5571 94.7795 80.629 94.7795 79.8335 94.6385C79.8335 93.5105 77.7121 93.2285 78.6402 91.6775C79.5683 91.1135 80.629 91.2545 81.6896 91.3955C82.6177 91.3955 84.0762 90.9725 84.3413 92.3825C84.6065 93.5105 83.4132 94.0745 82.4851 94.7795Z" fill="#EAEAE0"/>
<path d="M82.4856 94.7794C83.8114 91.8185 83.8114 91.8185 78.6406 91.6775C78.6406 91.3955 78.6406 91.1135 78.7732 90.8315C80.8946 90.8315 82.8833 90.8315 85.0047 90.8315C85.6676 92.2415 84.7395 93.3695 84.2092 94.4975C83.6788 94.6385 83.1485 94.7794 82.4856 94.7794Z" fill="#B6B6AE"/>
<path d="M78.6406 78.9879C79.5687 77.4369 81.1597 78.2829 82.4856 77.7189C84.8721 78.5649 86.0654 80.8209 84.8721 82.9358C83.1485 86.3198 80.3642 83.7818 78.1103 83.6408C77.58 82.0898 78.1103 80.5389 78.6406 78.9879Z" fill="#DFE0D2"/>
<path d="M65.9119 145.821C64.4535 146.526 63.6579 145.962 64.1883 144.411C65.3815 140.04 64.1883 135.528 64.3209 131.157C65.6467 129.888 67.1051 128.619 68.2984 127.209C69.4916 125.94 70.4197 126.363 71.3478 127.209C74.1321 130.875 72.8063 134.964 72.4085 138.912C69.8894 140.886 67.6355 143.142 65.9119 145.821Z" fill="#715645"/>
<path d="M85.2693 124.389C85.5345 125.376 85.7997 126.222 86.1974 127.209C86.0648 134.118 80.6289 137.22 74.3974 133.977C74.3974 132.708 74.3974 131.439 74.3974 130.029C73.3367 128.478 73.4693 127.209 75.3255 126.786C76.7839 126.504 78.5075 126.222 79.9659 126.927C77.5794 125.799 74.7952 127.632 72.5412 125.799C72.6738 124.107 68.9615 123.402 71.348 121.005C76.121 118.749 81.1592 119.877 86.0648 120.159C86.5952 120.441 87.1255 120.723 87.3907 121.287C83.4131 122.556 79.303 121.71 75.1929 121.992C74.2648 122.133 72.8064 121.287 72.8064 123.12C72.8064 124.671 73.9997 125.094 75.3255 125.094C78.7727 125.376 81.9547 123.261 85.2693 124.389Z" fill="#808079"/>
<path d="M74.3975 133.836C76.5188 133.836 78.9053 134.541 80.6289 133.554C82.0873 132.708 87.2581 133.554 84.2087 128.619C84.2087 128.619 85.5345 127.632 86.1975 127.068C87.1256 128.337 88.8491 129.042 88.9817 131.016C88.584 133.131 86.4626 134.4 86.1975 136.515C85.2694 138.912 83.9435 137.784 82.7503 136.938C79.0379 135.105 77.0491 137.502 75.3256 140.463C75.0604 141.168 74.7952 141.873 74.53 142.578C74.3975 139.899 74.3975 136.938 74.3975 133.836Z" fill="#52524C"/>
<path d="M72.5417 125.94C75.1933 126.081 77.9776 126.363 80.6293 126.504C78.9057 128.76 74.2653 124.53 74.2653 130.029C71.7462 132.567 74.663 136.374 72.2765 138.912C72.5417 134.964 72.2765 131.016 71.2158 127.209C71.7462 126.786 72.1439 126.363 72.5417 125.94Z" fill="#3A2D22"/>
<path d="M52.919 118.467C53.1842 118.749 53.4494 119.031 53.8471 119.313C55.9685 120.441 57.9572 121.569 58.355 124.389C58.355 124.53 58.355 124.812 58.355 124.953C54.6426 128.901 51.0628 132.99 47.4831 136.938C43.9033 137.643 43.373 134.118 41.7819 132.144C39.1303 131.862 37.2741 131.298 40.3235 128.337C42.9752 125.799 45.4943 122.838 48.0134 120.018C49.3392 118.608 50.9303 117.762 52.919 118.467Z" fill="#977554"/>
<path d="M55.7033 118.326C54.2449 117.48 52.919 115.929 53.7145 114.519C54.9078 112.545 56.2336 109.866 59.0179 109.866C60.0786 109.866 61.1393 110.43 61.1393 108.597C62.7303 107.61 63.2606 109.443 64.3213 109.866C65.5145 111.276 67.6359 111.981 67.7685 114.237C66.973 114.519 65.382 114.801 65.382 114.942C65.7797 118.608 62.3325 119.736 61.1393 122.274C57.6921 123.825 56.8966 120.723 55.7033 118.326Z" fill="#6A5242"/>
<path d="M67.9008 114.237C66.575 112.968 65.2491 111.84 63.9233 110.571C63.7907 109.866 61.5368 108.879 64.0559 108.456C64.984 108.456 65.7795 108.597 66.7075 108.597C74.1323 112.122 81.9547 112.545 89.9098 112.545C89.6446 113.532 89.2469 114.378 88.9817 115.365C82.3525 117.057 75.8559 118.044 69.4918 114.378C68.9615 114.378 68.4311 114.378 67.9008 114.237Z" fill="#D4D3CE"/>
<path d="M69.4915 114.519C75.9881 115.929 82.4848 114.942 88.9814 115.506C89.114 115.788 89.114 116.07 88.9814 116.352C84.8713 117.762 80.6286 116.211 77.8443 116.775C80.6286 116.352 84.8713 117.762 88.9814 116.352C91.2353 119.031 89.6443 120.3 87.3904 121.428C86.86 121.287 86.3297 121.146 85.7994 121.146C81.0263 120.159 76.1207 121.428 71.2151 120.441C68.1657 119.313 69.7567 116.634 69.4915 114.519Z" fill="#797972"/>
<path d="M62.5972 128.337C61.9342 127.209 61.9342 126.081 62.332 125.094C63.2601 123.12 64.7185 121.428 66.8399 120.441C67.2376 120.3 68.2983 120.723 68.2983 121.005C68.9612 123.684 66.5747 124.53 65.3814 126.081C64.7185 127.068 63.923 128.196 62.5972 128.337Z" fill="#553D30"/>
<path d="M55.7029 118.326C57.9568 118.89 58.222 122.838 61.2714 122.274C60.3433 122.979 59.2826 123.684 58.3545 124.389C56.8961 122.697 55.3051 121.005 53.8467 119.313C54.5096 119.313 55.3051 119.172 55.7029 118.326Z" fill="#413023"/>
<path d="M71.3477 120.441C76.2533 120.582 81.1589 119.313 85.9319 121.146C81.0263 121.146 76.2533 121.146 71.3477 121.146C71.3477 120.864 71.3477 120.723 71.3477 120.441Z" fill="#42413C"/>
<path d="M185.105 129.465C184.973 130.734 185.636 132.849 183.249 132.849C180.465 132.849 177.946 131.721 176.09 129.465C175.957 129.324 175.957 129.183 175.957 129.042C176.62 126.504 172.51 124.53 175.029 121.992C176.753 120.3 179.139 121.851 180.995 122.556C184.177 123.684 185.105 125.376 185.105 129.465Z" fill="#485158"/>
<path d="M154.213 136.938C154.345 136.656 154.611 136.374 154.611 136.092C153.55 130.875 156.997 131.157 160.047 131.016C156.467 131.016 156.599 135.387 154.213 136.938Z" fill="#463E37"/>
<path d="M207.38 102.676C210.164 99.4327 212.816 96.1897 215.6 92.9468C215.865 92.8058 216.13 92.8058 216.396 92.8058C214.539 97.3177 211.357 100.279 207.38 102.676Z" fill="#7E8E9E"/>
<path d="M25.209 116.352C29.054 115.224 32.7663 113.814 36.7439 113.532C37.9371 113.391 39.3955 113.109 40.1911 114.378C41.1191 115.929 39.3955 116.634 38.7326 117.48C31.7057 125.094 24.6787 132.567 17.5191 140.04C16.5911 141.027 15.663 142.719 14.072 141.591C12.7461 140.604 13.409 138.912 13.6742 137.502C14.2045 134.4 14.7349 131.439 15.2652 128.337C17.9169 123.684 21.0989 119.595 25.209 116.352Z" fill="#977654"/>
<path d="M5.32138 132.849C4.92363 132.567 4.39329 132.426 4.26071 132.144C3.86295 131.157 3.86295 130.17 4.52588 129.324C6.11689 127.491 7.57531 125.517 9.29891 123.966C15.663 118.467 20.7012 111.558 26.5349 105.495C27.463 104.649 28.2585 103.662 29.3191 102.957C30.1146 102.393 31.1753 102.252 31.8382 102.957C32.7663 103.944 31.8382 104.79 31.1753 105.354C23.0877 114.096 15 122.838 6.77981 131.439C6.38206 132.003 5.85172 132.285 5.32138 132.849Z" fill="#553E31"/>
<path d="M111.124 152.73C114.571 148.782 118.681 145.68 123.719 144.552C127.431 143.706 128.492 145.398 127.431 149.205C126.503 152.448 124.515 154.704 121.73 155.973C118.548 157.383 114.968 158.229 111.389 158.37C109.135 158.37 107.279 157.806 109.002 154.704C110.991 155.127 111.654 154.563 111.124 152.73Z" fill="#71716A"/>
<path d="M111.123 152.73C113.377 153.294 113.377 154.704 111.918 155.973C110.46 157.242 109.399 156.537 109.267 154.563C109.93 153.999 110.46 153.294 111.123 152.73Z" fill="#42413D"/>
<path d="M112.979 115.365C116.957 114.378 121.332 114.942 125.044 112.404C128.491 113.955 128.491 113.955 128.889 117.339C121.862 122.979 113.775 122.415 105.687 121.428C109.134 119.736 112.847 121.146 116.294 120.582C112.449 121.005 108.604 119.877 104.891 121.287C103.566 121.992 102.505 121.71 101.975 120.159C101.975 118.608 102.372 117.48 104.096 118.467C108.206 119.172 112.184 118.326 114.57 118.608C112.316 118.467 108.206 118.749 104.229 118.608C103.035 116.07 105.157 116.211 106.35 116.211C108.604 116.211 110.858 116.07 112.979 116.634C113.509 116.775 112.847 116.775 113.377 116.775C113.377 116.352 112.979 116.634 112.847 116.352C112.714 116.07 112.714 115.788 112.979 115.365Z" fill="#76766E"/>
<path d="M90.0421 107.751C86.5949 105.072 82.2197 107.751 78.7725 105.072C89.2466 105.072 99.7208 105.213 110.195 104.649C109.93 107.046 108.206 105.777 107.145 105.918C105.422 106.2 103.698 105.495 101.975 106.341C101.312 106.764 100.781 107.046 100.119 107.469C96.9365 105.777 93.7545 105.636 90.705 107.61C90.4399 107.61 90.1747 107.61 90.0421 107.751Z" fill="#8F8F89"/>
<path d="M112.979 115.365C112.979 115.647 112.979 115.929 112.847 116.211C110.725 117.48 108.471 116.775 106.217 116.775C103.831 116.775 102.107 117.48 101.179 119.877C99.0578 119.172 99.7208 117.339 100.516 116.493C102.638 114.378 100.914 113.109 99.8533 111.699C103.831 108.738 107.808 110.289 111.786 111.276C113.775 111.417 115.498 109.866 117.62 110.571C113.642 113.532 108.869 111.84 104.096 112.968C107.013 115.788 110.195 114.942 112.979 115.365Z" fill="#9B9B94"/>
<path d="M101.179 119.877C100.782 117.057 101.975 116.07 104.627 116.211C107.411 116.352 110.195 116.211 112.847 116.211C114.04 116.775 115.631 115.788 116.692 117.057C112.449 118.467 107.941 115.788 103.831 118.467C102.903 118.749 102.24 119.313 101.842 120.3C101.71 120.159 101.445 120.018 101.179 119.877Z" fill="#494845"/>
<path d="M111.919 111.276C107.941 111.417 103.964 111.558 99.9864 111.699C98.9257 110.571 98.6606 109.443 99.8538 108.315C100.649 108.315 101.312 108.456 102.108 108.456C104.494 110.712 107.809 108.174 110.328 110.289C110.726 110.712 111.389 110.994 111.919 111.276Z" fill="#474642"/>
<path d="M128.89 117.48C128.359 117.48 127.696 117.339 127.166 117.339C129.95 114.096 124.647 114.66 125.177 112.545C125.442 112.404 125.575 112.263 125.84 112.263C128.227 112.545 131.409 111.559 130.613 116.211C129.95 116.634 129.42 117.057 128.89 117.48Z" fill="#55564E"/>
<path d="M90.0428 107.752C90.3079 107.752 90.4405 107.752 90.7057 107.611C90.7057 108.88 90.5731 110.149 90.5731 111.277C86.9933 111.277 83.4135 111.136 79.8338 111.136C79.7012 111.136 79.7012 110.854 79.7012 110.854C79.7012 110.713 79.8338 110.572 79.8338 110.431C82.2203 109.021 84.7394 109.162 87.1259 110.431C88.9821 110.572 89.1147 108.739 90.0428 107.752Z" fill="#4D4C47"/>
<path d="M104.892 121.428C109.002 118.89 113.244 120.864 117.487 120.864C113.51 121.005 109.665 121.287 105.687 121.428H105.289H104.892Z" fill="#3F3E38"/>
<path d="M85.4023 135.81C85.4023 133.272 87.3911 132.285 88.9821 131.016C92.8271 129.042 96.672 128.196 100.782 130.875C105.953 134.259 106.085 134.823 101.71 139.758C101.18 142.155 99.1911 141.732 97.6001 141.873C95.3462 141.873 93.0922 142.014 90.7057 141.732C87.7889 141.027 86.1978 138.771 85.4023 135.81Z" fill="#C7C6B7"/>
<path d="M90.1752 140.745C94.0201 140.604 97.9977 141.732 101.71 139.758C102.373 140.04 103.168 139.899 103.566 140.745C102.771 141.873 102.771 143.283 100.517 143.001C96.8044 142.719 92.8269 141.309 89.2471 143.847C88.4516 143.424 87.7887 143.001 86.9932 142.578C86.9932 142.296 87.1257 142.155 87.1257 141.873C87.6561 140.604 88.7168 140.04 90.1752 140.745Z" fill="#4C4B43"/>
<path d="M108.339 132.99C112.316 132.99 116.294 132.99 120.404 133.131C116.427 134.541 112.316 134.682 108.339 132.99Z" fill="#777771"/>
<path d="M110.195 110.43C107.543 109.584 104.096 112.404 101.975 108.597C104.361 108.597 106.88 108.597 109.267 108.597C110.858 108.456 110.593 109.443 110.195 110.43Z" fill="#8F9085"/>
<path d="M87.1257 110.289C84.7391 110.289 82.22 110.289 79.8335 110.289C79.7009 109.866 79.7009 109.443 79.5684 108.879C82.0875 108.738 85.0043 106.764 87.1257 110.289Z" fill="#90908A"/>
<path d="M75.8558 108.033C75.5906 109.584 74.3974 109.443 73.3367 109.443C72.276 109.443 70.9502 109.161 70.9502 107.751C70.9502 106.059 72.4086 106.623 73.4693 106.623C74.53 106.482 75.7232 106.482 75.8558 108.033Z" fill="#8F8F83"/>
<path d="M117.09 106.483C118.018 106.765 119.609 105.778 119.609 107.469C119.609 109.02 118.283 109.302 116.957 109.302C115.764 109.302 114.703 108.738 114.703 107.469C114.703 105.778 116.294 106.765 117.09 106.483Z" fill="#8D8C86"/>
<path d="M101.975 106.482C104.361 104.226 107.808 106.905 110.195 104.649C110.593 104.79 111.255 104.79 111.388 105.072C111.918 106.341 110.99 106.341 110.195 106.341C107.411 106.482 104.626 106.482 101.975 106.482Z" fill="#8E8E87"/>
<path d="M67.7685 106.482C66.7078 106.2 65.382 106.764 64.3213 105.495C65.5145 103.945 67.2381 104.791 68.6966 104.509C68.6966 105.355 68.4314 106.059 67.7685 106.482Z" fill="#8B8A85"/>
<path d="M140.823 47.6863C140.557 48.8142 141.22 49.5192 141.618 50.3652C140.027 50.3652 138.304 50.3652 136.712 50.3652C136.447 49.8012 136.182 49.2372 135.917 48.6732C137.243 46.9813 139.099 47.8273 140.823 47.6863Z" fill="#52524D"/>
<path d="M143.342 51.6341C144.137 53.3261 146.524 53.8901 146.126 56.4281C143.739 56.4281 141.22 56.5691 138.834 56.4281C137.773 56.4281 136.049 57.133 135.652 55.4411C135.387 53.8901 136.845 53.0441 138.038 52.1981C139.629 50.9291 141.485 51.6341 143.342 51.6341Z" fill="#099DC0"/>
<path d="M89.1139 143.988C92.2959 143.847 95.478 143.706 98.7926 143.706C101.312 143.706 103.3 145.116 104.361 147.513C105.554 150.051 103.168 151.32 101.975 152.73C96.9364 158.511 89.5117 157.242 86.4622 150.051C85.1364 146.949 87.9207 145.962 89.1139 143.988Z" fill="#C8C7B8"/>
<path d="M75.1934 140.745C75.5911 135.528 77.4473 134.541 83.4136 136.092C83.4136 139.053 87.7889 139.335 86.8608 142.86C82.4855 146.949 82.4855 146.949 75.1934 140.745Z" fill="#ECEBEB"/>
<path d="M30.6443 154.563C27.4623 154.986 26.6668 159.498 23.3522 159.639C17.1207 153.858 16.9881 153.294 22.6892 147.09C23.3522 146.385 24.0151 145.68 24.678 144.975C27.1971 142.578 29.7162 137.361 32.5005 144.834C32.6331 145.116 33.296 145.257 33.6937 145.539C36.7432 146.949 36.7432 148.5 34.2241 150.615C32.8982 151.884 31.8376 153.294 30.6443 154.563Z" fill="#967554"/>
<path d="M41.914 142.86C39.6601 144.834 37.141 145.116 34.4893 143.988C32.8983 142.155 31.5725 140.322 32.6331 137.502C33.8264 134.4 35.9477 133.131 38.8646 133.272C44.0354 135.669 44.5657 137.22 41.914 142.86Z" fill="#B2B9C3"/>
<path d="M41.9139 142.86C44.0353 138.63 42.4443 135.528 38.9971 133.131C39.9252 132.849 41.1184 133.272 41.7813 132.144C44.5656 132.567 44.6982 136.515 47.4825 136.938C44.3004 137.502 44.0353 141.309 41.9139 142.86Z" fill="#554B40"/>
<path d="M96.2744 90.9728C96.2744 90.2678 96.407 89.7038 96.407 88.9988C98.1306 90.1268 99.9867 88.9988 101.71 88.9988C102.373 89.2808 102.506 89.9858 102.506 90.5498C102.241 91.9598 102.638 93.3697 102.904 94.6387C102.904 94.9207 102.904 95.2027 102.904 95.4847C103.036 96.4717 102.506 97.0357 101.976 97.5997C99.1912 95.3437 99.1912 95.3437 96.407 97.5997C95.8766 96.8947 94.9485 96.6127 94.5508 95.6257C94.5508 95.3437 94.5508 95.0617 94.5508 94.9207C94.9485 93.5107 95.6114 92.2418 96.2744 90.9728Z" fill="#4E4F4A"/>
<path d="M102.903 94.6386C101.577 93.6516 100.119 92.6647 101.975 90.8317C106.35 89.2807 107.146 89.7037 107.278 93.6516C105.953 95.0616 104.361 94.4976 102.903 94.6386Z" fill="#E8EADE"/>
<path d="M96.2741 90.9728C97.3348 93.0878 96.2741 94.2158 94.5505 95.0618C92.4292 95.0618 90.573 94.7798 90.4404 91.9598C92.164 90.1268 94.2854 90.9728 96.2741 90.9728Z" fill="#B7B8B0"/>
<path d="M119.476 90.8317C119.874 92.3827 118.946 93.5107 118.416 94.6387C115.764 95.0617 113.245 95.0617 113.112 91.1137C115.234 89.2807 117.222 89.5627 119.476 90.8317Z" fill="#D3D2C8"/>
<path d="M118.416 94.6387C119.609 95.9077 120.007 97.3177 117.885 97.5997C116.294 97.8817 114.173 98.5867 112.98 96.8947C112.449 96.3307 113.245 95.0617 114.571 95.4847C115.896 95.9077 117.355 96.4717 118.416 94.6387Z" fill="#2A2B27"/>
<path d="M101.975 97.7404C101.975 96.8944 102.107 96.0484 102.903 95.6255C104.626 96.8944 108.206 94.2155 108.206 96.7534C108.206 98.8684 104.494 97.4584 102.372 97.8814C102.24 97.7404 102.107 97.7404 101.975 97.7404Z" fill="#2D2E29"/>
<path d="M107.279 93.6517C107.279 88.9988 103.699 91.9597 101.975 90.8317C101.975 90.2677 101.843 89.5627 101.843 88.9988C103.699 88.9988 105.688 88.9988 107.544 88.8578C107.544 89.7037 107.676 90.4087 108.605 90.6907C108.472 91.8187 108.605 93.0877 107.279 93.6517Z" fill="#7A7B75"/>
<path d="M94.5507 95.7665C95.7439 95.7665 96.4068 96.3305 96.4068 97.7405C94.2855 97.7405 92.0316 97.7405 89.3799 97.7405C90.8383 94.6385 92.9597 96.3305 94.5507 95.7665Z" fill="#2E2E2B"/>
<path d="M119.476 90.8317C117.355 90.8317 115.233 90.9727 113.245 90.9727C113.112 90.2677 113.112 89.5627 112.979 88.8578C115.233 88.8578 117.487 88.8578 119.741 88.8578C119.609 89.5627 119.476 90.2677 119.476 90.8317Z" fill="#7E7D7A"/>
<path d="M108.472 90.6907C109.665 89.5627 110.991 89.1397 111.786 90.9727C112.184 91.8186 112.184 93.0876 110.991 93.3696C109.002 94.0746 109.665 91.3956 108.472 90.6907Z" fill="#32322F"/>
<path d="M85.5342 90.8316C86.1971 89.1396 87.6555 89.7036 88.5836 89.9856C90.1746 90.4086 88.5836 91.8185 88.9814 92.8055C86.5948 94.6385 86.3297 92.2415 85.5342 90.8316Z" fill="#3C3D38"/>
<path d="M121.2 86.8837C118.151 86.7427 114.703 90.1267 112.052 85.8967C112.184 85.7557 112.317 85.6147 112.45 85.4737C114.438 84.3458 116.825 85.1917 118.946 84.2048C119.079 84.2048 119.344 84.0638 119.476 84.0638C120.405 83.2178 120.272 82.0898 120.272 81.1028C120.272 80.2568 119.874 78.8468 121.067 78.8468C122.658 78.7058 121.863 80.5388 122.261 81.3848C120.802 82.7948 121.598 84.9097 121.2 86.8837Z" fill="#4D4D4A"/>
<path d="M114.969 77.2958C115.764 77.2958 116.56 77.2958 117.355 77.2958C119.609 78.9878 119.609 81.5257 119.476 84.0637C117.09 85.4737 114.703 85.3327 112.184 84.4867C111.256 83.3587 111.256 82.3717 112.184 81.2437C113.112 79.8338 114.041 78.5648 114.969 77.2958Z" fill="#D1D2C3"/>
<path d="M55.4379 108.033C53.8469 109.725 52.6536 112.122 50.1345 112.968C49.339 113.25 48.4109 112.263 48.6761 111.558C49.6042 109.02 51.0626 107.046 53.7143 106.623C54.6424 106.482 55.3053 106.764 55.4379 108.033Z" fill="#543C2D"/>
<path d="M64.0556 108.456C62.995 109.02 63.9231 109.866 63.9231 110.571C62.995 109.866 62.0669 109.302 61.1388 108.597C60.8736 108.456 60.6084 108.315 60.3433 108.315C60.3433 107.328 59.6804 105.495 60.741 105.495C62.332 105.354 63.2601 107.187 64.0556 108.456Z" fill="#8A8A87"/>
<path d="M65.7797 165.42C66.7077 165.843 66.8403 166.689 66.7077 167.535C66.31 167.817 65.9122 168.099 65.6471 168.381C64.8516 169.368 64.0561 170.777 62.8628 169.649C61.4044 168.24 63.5257 167.676 64.0561 166.689C64.3212 166.266 65.1167 165.843 65.7797 165.42Z" fill="#7B7A73"/>
<path d="M112.052 85.8968C106.483 88.1528 100.384 85.0508 94.8158 87.7298C93.4899 88.2938 91.6338 87.1658 89.9102 86.8838C91.3686 84.3459 95.4787 88.1528 96.2742 83.7819C95.7439 81.5259 94.0203 79.5519 95.4787 77.014C98.3955 78.142 101.312 78.424 100.915 83.3589C100.649 86.4608 105.025 86.7428 109.135 83.7819C110.196 83.6409 111.256 83.9229 112.052 84.6279C112.449 85.1918 112.449 85.6148 112.052 85.8968Z" fill="#585953"/>
<path d="M95.479 77.0137C94.9487 79.4107 97.7329 81.2436 96.2745 83.7816C94.2857 84.4866 92.1644 85.3326 90.5734 83.2176C89.3801 81.6666 90.4408 80.1157 90.9711 78.7057C91.7666 75.7447 93.888 77.4367 95.479 77.0137Z" fill="#D6D8CC"/>
<path d="M108.207 81.2437C107.809 83.3587 106.881 84.6277 104.759 84.3457C102.903 84.0637 101.445 83.6407 101.71 81.1027C101.843 78.7058 102.903 77.4368 105.157 77.2958C107.941 77.1548 107.278 79.9747 108.207 81.2437Z" fill="#DDDED1"/>
<path d="M85.4023 78.5649C89.7776 78.5649 88.5844 81.2438 88.7169 83.3588C88.8495 84.4868 88.1866 85.1918 87.5237 84.7688C84.872 83.2178 87.1259 80.5388 85.4023 78.5649Z" fill="#454640"/>
<path d="M111.786 84.7689C110.858 84.9099 109.797 85.0509 109.267 83.9229C109.267 82.6539 109.267 81.385 109.399 80.116C109.532 79.27 110.327 78.706 111.123 78.847C112.449 78.988 111.918 80.257 112.051 81.103C112.051 82.09 112.051 82.9359 112.051 83.9229C112.449 84.3459 112.316 84.6279 111.786 84.7689Z" fill="#373735"/>
<path d="M65.1171 56.4284C64.9845 51.9164 68.2992 50.5065 71.3486 49.2375C72.807 48.6735 75.1935 46.9815 75.989 50.5065C73.2048 52.4804 71.216 54.5954 73.2048 58.4023C76.9171 60.5173 81.0272 58.8253 84.8722 59.3893C85.8003 59.5303 87.2587 58.8253 87.6565 60.2353C88.0542 61.3633 87.2587 62.4913 86.4632 63.1963C85.1374 64.6063 83.6789 65.8752 81.6902 65.8752C78.7733 65.8752 75.8565 66.0162 72.9396 65.8752C68.034 65.5932 65.9126 62.9143 65.1171 56.4284Z" fill="#CAC8B9"/>
<path d="M80.4967 56.7101C78.9057 55.7231 75.7236 58.1201 75.7236 55.0181C75.7236 52.7622 78.3753 51.2112 80.8944 51.4932C83.1484 51.6342 85.9326 52.6212 85.6675 54.8771C85.4023 57.9791 82.2203 55.5821 80.4967 56.7101Z" fill="#06A0C6"/>
<path d="M86.8604 142.719C86.1974 140.181 83.0154 139.053 83.4132 135.951C84.0761 135.951 84.8716 138.912 85.2694 135.81C86.8604 137.502 88.4514 139.053 90.0424 140.745C88.584 140.604 88.0536 142.296 86.8604 142.719Z" fill="#62625C"/>
<path d="M88.9819 116.352C88.7167 118.185 89.6448 121.146 86.1976 117.903C84.8717 116.634 81.5571 117.48 79.1706 117.48C77.1819 117.48 75.3257 117.48 73.3369 116.352C78.6403 116.352 83.8111 116.352 88.9819 116.352Z" fill="#4A4A42"/>
<path d="M79.3028 119.031C83.9891 119.031 87.7882 118.905 87.7882 118.749C87.7882 118.594 83.9891 118.467 79.3028 118.467C74.6164 118.467 70.8174 118.594 70.8174 118.749C70.8174 118.905 74.6164 119.031 79.3028 119.031Z" fill="#A5A59E"/>
<path d="M179.139 124.812C180.332 125.376 181.658 126.081 181.923 127.632C182.188 128.76 181.393 129.042 180.597 129.042C178.873 129.183 178.078 128.055 177.945 126.363C177.945 125.658 178.21 124.953 179.139 124.812Z" fill="#BFC3C8"/>
<path d="M113.51 154.281C116.559 151.038 119.609 149.487 122.525 147.795C123.188 147.372 123.851 146.808 124.514 147.654C125.045 148.359 124.647 149.205 124.249 149.91C121.73 153.153 118.548 154.704 113.51 154.281Z" fill="#B5B5AA"/>
<path d="M103.831 118.467C108.339 118.467 112.979 118.467 117.487 118.467C112.979 118.89 108.339 120.3 103.831 118.467Z" fill="#A8A89D"/>
<path d="M111.786 84.7687C111.919 84.4867 112.051 84.2047 112.184 83.7817C114.57 83.7817 117.089 83.9227 119.476 83.9227C117.752 87.7296 114.57 85.3327 112.051 85.8967C112.051 85.6147 111.919 85.1917 111.786 84.7687Z" fill="#7E7D7A"/>
</g>
<defs>
<clipPath id="clip0">
<rect width="236" height="195" fill="white" transform="translate(0.0175781 0.170166)"/>
</clipPath>
</defs>
</svg>
