<svg width="168" height="230" viewBox="0 0 168 230" fill="none" xmlns="http://www.w3.org/2000/svg">
<g clip-path="url(#clip0)">
<path d="M128.091 212.926C127.103 213.297 125.992 213.544 126.486 214.902C126.98 216.137 128.091 216.26 129.326 216.384C136.24 216.878 143.278 217.371 150.069 219.1C151.18 219.347 152.291 219.594 153.279 220.088C154.267 220.582 155.378 221.323 155.131 222.681C155.008 223.792 153.897 224.162 152.909 224.533C147.229 226.632 141.179 226.879 135.252 227.496C113.892 229.966 92.5311 229.719 71.1705 229.225C58.0825 228.978 44.9945 227.867 32.1535 225.644C27.4615 224.78 22.8931 223.051 17.9542 223.298C14.9909 223.422 14.3735 221.076 14.3735 218.483C14.3735 203.172 14.3735 187.862 14.497 172.551C15.1144 172.304 15.4848 172.551 15.8552 173.045C16.9664 175.144 16.596 177.49 16.596 179.836C16.7195 192.924 16.3491 206.136 16.843 219.224C17.0899 219.717 17.3369 220.088 17.7073 220.458C23.2635 222.31 24.4982 221.446 24.4982 215.89C24.4982 203.296 24.4982 190.702 24.4982 178.107C24.4982 175.761 23.8809 172.551 27.8319 172.428C29.3136 174.774 27.585 177.12 27.7085 179.466C27.8319 190.702 27.7085 202.061 27.8319 213.297C27.8319 217.989 28.5728 218.73 33.1412 217.618C39.0679 216.26 44.9945 216.013 50.9212 215.396C57.8356 214.779 57.959 214.779 57.2182 208.111C59.6876 206.382 60.5519 207.988 61.0458 209.963C61.5397 212.309 61.2928 214.779 61.2928 217.248C61.2928 219.594 62.1571 221.199 64.75 221.199C67.0959 221.199 69.6888 221.816 70.6766 218.483C71.294 216.137 71.6644 213.667 73.7634 212.062C77.838 214.038 82.036 214.038 86.481 213.791C92.9015 213.42 99.4455 214.779 105.99 213.914C107.718 213.667 109.323 213.914 110.558 212.309C112.904 211.692 112.904 213.791 113.398 215.025C114.139 217.001 114.386 219.223 116.114 220.582C117.102 221.323 118.213 221.199 119.324 221.323C124.016 221.446 124.387 221.076 124.263 216.384C124.14 213.914 123.646 211.198 127.721 211.815C127.967 212.062 128.091 212.433 128.091 212.926Z" fill="#DDD8C0"/>
<path d="M16.1025 220.829C14.7443 219.594 15.3617 217.865 15.3617 216.384C15.2382 201.814 15.2382 187.245 15.2382 172.675C16.3495 166.748 15.7321 160.822 15.8556 155.018C14.2504 154.154 13.1392 156.5 11.781 155.389C16.3495 151.067 15.1147 145.388 15.1147 139.955C15.1147 127.855 15.1147 115.754 15.2382 103.654C15.2382 101.185 14.7443 99.2092 12.5218 97.851C12.7688 97.4806 13.1392 97.2337 13.6331 97.1102C14.3739 96.9867 14.9913 97.1102 15.6086 97.6041C16.7199 98.8388 18.325 99.7031 19.1893 101.185C20.0536 102.79 20.0536 104.519 20.0536 106.247C20.0536 119.829 20.424 133.411 19.9301 146.993C19.5597 154.895 18.6954 162.674 19.4362 170.452C20.671 183.787 19.8067 196.999 20.1771 210.334C20.1771 213.05 20.1771 215.766 19.0658 218.359C18.4485 219.471 17.4607 220.335 16.1025 220.829Z" fill="#726558"/>
<path d="M11.6575 55.5C10.9167 51.5489 7.21255 49.8203 4.86659 47.1039C4.00229 45.9927 2.76757 45.1284 1.90327 44.0171C-0.195746 41.3007 1.65633 37.5966 5.23701 37.2262C6.34825 37.1027 7.4595 37.2262 8.69421 37.2262C9.80546 37.2262 10.9167 37.1027 12.0279 36.9792C12.1514 36.4853 12.2749 36.1149 12.1514 35.9915C5.36048 31.7934 6.84214 26.4841 10.1759 20.9279C12.7688 16.4829 13.7565 11.4206 16.9668 7.22257C20.1771 6.11132 21.6587 7.46951 21.6587 10.5563C21.7822 23.7678 21.7822 36.9792 21.6587 50.0672C21.6587 51.7958 21.1649 53.5244 19.1893 54.1418C17.7076 54.2653 17.7076 53.2775 17.8311 52.1662C18.5719 39.6956 17.2138 27.3484 17.5842 14.8778C16.4729 16.8534 15.6086 19.0758 14.4974 20.9279C11.4106 25.8668 10.7932 30.4352 16.1025 34.3863C17.4607 35.3741 18.4485 36.9792 17.5842 38.9548C16.7199 40.8069 14.9913 40.9303 13.2627 41.0538C10.9167 41.3007 8.81769 41.0538 6.34825 41.6712C7.95338 46.2396 13.5096 47.7213 14.2504 52.6601C14.127 53.7714 13.7565 54.8826 13.0157 55.7469C12.5218 55.8704 12.0279 55.8704 11.6575 55.5Z" fill="#64666B"/>
<path d="M16.1018 220.829C16.2253 219.841 16.5957 219.1 17.8304 219.1C21.4111 218.483 22.6458 216.384 22.6458 212.803C22.5223 176.749 22.5223 140.696 22.5223 104.518C22.5223 103.037 22.2754 101.679 22.2754 100.197C22.2754 99.703 22.3989 99.0857 22.6458 98.5918C23.8805 97.4805 25.1152 96.2458 26.7204 98.0979C26.103 100.32 25.9795 102.543 25.9795 104.889C25.9795 118.594 26.103 132.3 25.8561 146.128C25.8561 149.586 26.8438 151.561 29.9306 152.672C31.0419 154.278 32.647 153.166 34.0052 153.537C37.2155 152.672 40.4257 151.438 43.7595 153.166C43.7595 154.031 43.1421 154.278 42.4013 154.524C39.191 154.648 36.3512 156.377 33.2644 156.87C31.5358 156.623 31.5358 159.463 29.5602 158.846C28.5724 157.982 29.0663 156.253 27.2143 155.759C25.9795 158.352 26.4734 160.328 28.9429 161.809C29.5602 162.303 30.0541 163.044 30.0541 163.908C29.6837 165.143 28.449 165.39 27.7081 166.131C25.9795 167.983 27.4612 168.353 28.9429 168.847C29.5602 169.218 30.0541 169.711 30.1776 170.329C30.1776 170.823 30.0541 171.317 29.8072 171.687C29.1898 172.304 28.449 172.304 27.7081 172.181C24.7448 172.428 24.9918 174.527 24.9918 176.626C24.9918 189.467 24.9918 202.431 24.9918 215.273C24.9918 221.817 24.1275 222.557 17.5835 221.446C17.2131 221.323 16.7192 221.076 16.1018 220.829Z" fill="#423D31"/>
<path d="M43.7597 83.1578C43.8832 83.4047 43.8832 83.7751 44.0067 84.022C44.9945 85.8741 45.6118 88.714 47.5874 88.9609C49.4394 89.0844 49.6864 86.1211 50.6742 84.5159C53.514 80.3179 56.6008 76.3668 60.7988 73.6504C64.8734 71.0575 68.2071 68.2177 69.3184 63.2788C70.1827 63.8962 70.5531 65.0074 70.3061 65.8717C69.5653 68.7116 70.0592 71.5514 70.5531 74.2678C65.7377 73.0331 62.7744 76.1199 59.9345 79.0832C54.9957 84.1455 50.5507 89.4548 50.5507 97.11C49.316 97.4805 48.6986 96.6162 48.0812 95.7519C47.9578 94.0233 47.2169 93.159 45.3649 93.7763C44.2536 93.159 43.8832 91.9242 43.0189 90.6895C43.0189 95.8753 43.1424 100.814 43.0189 105.63C43.0189 107.358 43.2659 109.087 41.6607 110.322C40.9199 110.445 40.1791 110.322 39.8086 109.581C38.9443 100.567 39.5617 91.4304 39.4382 82.4169C39.4382 81.3057 39.4382 79.9475 40.7964 79.7005C42.525 79.3301 42.1546 81.0587 42.772 81.923C43.1424 82.17 43.3893 82.6639 43.7597 83.1578Z" fill="#416452"/>
<path d="M148.835 97.4807C150.934 101.802 149.946 106.494 149.576 110.816C148.959 119.459 145.748 127.361 140.192 134.152C137.352 137.609 139.204 143.659 143.402 145.388C146.242 146.622 149.329 147.363 151.428 149.956C151.181 150.327 150.811 150.574 150.317 150.574C145.995 149.339 141.921 147.487 137.97 145.388C137.229 144.647 136.488 143.783 135.994 142.918C135.253 141.19 135.13 139.338 135.253 137.486C136.735 134.769 133.525 134.893 132.784 133.658C131.919 131.435 132.043 129.089 132.043 126.743C132.043 125.879 132.29 125.015 132.784 124.398C135.747 123.657 135.377 126.003 135.994 127.608C136.364 128.596 136.241 130.201 137.476 130.448C138.957 130.695 139.451 129.089 140.069 128.102C142.168 124.891 142.908 121.064 144.514 117.607C146.489 114.767 145.254 111.31 146.119 108.223C147.971 105.136 145.625 101.308 147.724 98.2215C148.094 97.9746 148.341 97.7277 148.835 97.4807Z" fill="#3F624E"/>
<path d="M12.7698 55.6235C12.8932 54.6357 12.5228 53.6479 13.6341 53.0306C15.1157 52.7836 16.5974 52.6602 17.8321 53.8949C20.3015 53.8949 20.425 52.1663 20.425 50.3142C20.425 36.9793 20.1781 23.6443 20.5485 10.3094C20.672 6.60525 17.7086 8.70426 16.8443 7.2226C17.4617 5.494 17.8321 3.64193 18.8199 2.16027C20.3015 -0.309166 21.6597 -0.062223 22.2771 2.9011C23.5118 5.12359 24.1292 7.59302 23.5118 10.1859C23.5118 22.6566 23.6353 35.2507 23.5118 47.7213C23.5118 49.3264 23.5118 50.8081 23.2649 52.4132C23.1414 52.9071 23.0179 53.401 22.771 53.7714C20.425 56.4878 17.0913 55.5 14.128 55.9939C13.6341 55.9939 13.1402 55.8704 12.7698 55.6235Z" fill="#404750"/>
<path d="M73.27 59.8213C74.8752 58.4631 76.8507 58.5866 78.5793 58.5866C89.5683 58.3397 100.681 57.3519 111.546 59.3274C118.955 60.6856 125.252 64.5132 129.697 71.0572C129.45 71.9215 128.956 72.292 127.968 72.1685C127.598 71.9216 127.351 71.6746 127.104 71.4277C125.869 69.8225 124.511 68.3409 122.412 67.6C120.93 66.8592 119.695 65.9949 118.584 64.8837C116.856 63.0316 114.51 62.5377 112.164 62.7846C110.929 62.6612 109.694 62.6612 108.953 61.4265C99.8164 60.8091 90.6795 61.4265 81.5426 61.1795C79.4436 61.1795 77.3446 61.303 75.1221 61.056C74.3813 60.8091 73.7639 60.5622 73.27 59.8213Z" fill="#743B28"/>
<path d="M11.7816 155.265C13.7571 154.895 14.4979 151.314 16.4735 152.549C17.9551 153.537 16.9674 156.253 16.9674 158.229C17.0908 161.933 16.9674 165.637 16.9674 169.341C16.9674 170.699 17.3378 172.304 15.2388 172.551L14.8683 172.428H14.4979C9.92948 167.983 8.94171 161.686 11.7816 155.265Z" fill="#375140"/>
<path d="M28.2034 65.7479C27.2156 66.4887 25.7339 66.8591 25.7339 68.4643C25.7339 73.7736 25.7339 78.9594 25.7339 84.2687C25.7339 85.7503 26.9687 85.8738 27.9564 86.4911C31.4136 88.8371 32.8953 91.8004 30.7963 95.875C30.3024 96.8628 29.5616 97.6036 28.3269 97.1097C28.0799 96.8628 27.833 96.4923 27.7095 96.1219C27.9564 93.6525 28.4503 91.1831 26.5982 89.084C26.2278 88.5902 25.8574 88.0963 25.487 87.7259C23.8819 86.3677 23.6349 84.3921 23.0176 82.54C22.2767 78.2185 23.388 73.897 22.2767 69.699C21.1655 68.4643 19.6838 68.3408 18.2022 68.4643C16.1032 68.8347 15.2389 66.6122 13.5103 66.1183V65.9948C13.5103 65.1305 13.8807 64.5132 14.6215 64.3897C18.8195 63.6489 23.141 63.5254 27.3391 64.5132C27.9564 64.6367 28.2034 65.1305 28.2034 65.7479Z" fill="#554237"/>
<path d="M43.7605 83.1578C42.1553 82.7874 42.4023 80.8118 40.3033 79.5771C40.3033 89.9487 40.3033 99.8265 40.3033 109.581C40.3033 110.322 40.1798 111.062 39.6859 111.68C38.5746 112.421 37.3399 112.791 36.3522 113.655C35.7348 114.149 34.994 114.52 34.2531 114.396C33.8827 114.273 33.5123 114.149 33.2654 113.779C33.0184 112.174 34.3766 111.062 35.2409 110.815C39.439 109.704 38.9451 106.494 38.9451 103.407C38.9451 95.9988 38.9451 88.5905 38.9451 81.1822C38.9451 79.8241 37.9573 77.725 40.3033 77.3546C42.1553 77.1077 42.4023 78.9598 42.7727 80.3179C43.1431 81.3057 43.39 82.17 43.7605 83.1578Z" fill="#4E5D55"/>
<path d="M148.834 97.4801C148.711 97.8505 148.711 98.2209 148.587 98.5913C147.106 98.5913 146.118 97.727 145.13 96.8627C143.772 92.2943 141.92 87.8493 138.956 84.0217C137.845 82.54 136.734 81.0584 134.635 80.8114C133.4 80.3175 132.906 79.2063 132.659 77.9716C133.277 75.996 130.931 74.5144 131.548 72.5388C139.08 76.9838 143.648 83.7747 146.982 91.6769C147.599 93.7759 148.217 95.628 148.834 97.4801Z" fill="#3E5B4D"/>
<path d="M13.5103 65.9954C15.4858 65.6249 16.597 68.3413 18.6961 67.6005C20.5481 71.5516 19.6838 75.7496 19.9308 79.8242C20.0543 81.9232 19.9308 83.8987 22.2767 84.763C22.6472 85.01 23.0176 85.2569 23.2645 85.6273C23.0176 87.7264 21.289 87.356 20.0543 87.356C18.4491 87.356 16.9675 87.109 15.3623 86.9855C14.9919 86.8621 14.6215 86.6151 14.3746 86.2447C15.3623 79.5772 16.7205 72.6628 13.5103 65.9954Z" fill="#746454"/>
<path d="M60.0586 144.153C59.5647 141.19 58.2065 138.72 55.984 136.621C52.5268 133.411 50.4278 129.213 47.9584 125.385C47.7114 123.657 47.8349 121.805 48.4522 120.199C49.3165 118.841 50.3043 117.73 52.1564 118.1C50.4278 125.756 55.2432 130.448 59.9351 135.139C61.0464 136.251 62.2811 137.239 62.2811 138.967C60.7994 140.819 63.5158 143.906 60.3055 145.141C60.0586 144.894 59.9351 144.77 60.0586 144.523C59.9351 144.276 59.9351 144.153 60.0586 144.153Z" fill="#3A5D4B"/>
<path d="M28.3256 97.1098C29.1899 96.7394 29.9308 96.369 30.7951 95.9985C30.7951 96.369 30.9185 97.1098 30.6716 97.2333C25.4858 99.9496 26.597 104.765 26.597 109.087C26.597 120.199 26.7205 131.311 26.597 142.424C26.597 146.375 26.3501 150.203 30.0542 152.672C26.597 152.672 25.3623 151.067 25.3623 147.486C25.6092 132.67 25.4858 117.853 25.4858 103.036C25.4858 101.184 25.3623 99.3323 26.9674 97.9741C27.0909 97.2332 27.5848 96.9863 28.3256 97.1098Z" fill="#BDC6C8"/>
<path d="M28.2029 65.7481C23.2641 64.6369 18.4487 64.3899 13.5098 65.8716C9.06483 63.2787 8.57094 60.4388 11.6577 55.5C12.0281 55.5 12.3986 55.5 12.769 55.5C13.0159 55.5 13.2629 55.5 13.5098 55.5C14.0037 55.0061 14.621 55.0061 15.2384 55.253C15.9792 56.6112 14.621 57.2286 14.0037 58.2163C12.522 60.9327 13.2629 62.5379 16.3497 62.9083C18.0783 63.1552 19.8069 63.0317 21.5355 63.0317C27.5856 63.0317 28.0795 62.4144 26.9682 56.6112C27.0917 55.8704 27.5856 55.5 28.2029 55.3765C32.0306 58.9572 32.0306 62.4144 28.2029 65.7481Z" fill="#6F4133"/>
<path d="M22.2761 9.19818C23.8813 7.09916 22.5231 5.00014 22.2761 2.90112C25.8568 7.83999 27.3385 13.8901 30.4253 19.1994C31.2896 20.8045 29.1905 21.9158 29.4375 23.5209C29.314 23.6444 29.1905 23.7678 28.9436 23.8913C28.6966 23.8913 28.4497 23.7678 28.2028 23.5209C27.5854 22.7801 27.9558 20.928 26.1037 21.6688C24.9925 17.4708 23.2639 13.5197 22.2761 9.19818Z" fill="#5D636B"/>
<path d="M73.27 59.8215C73.8873 59.945 74.3812 59.945 74.9986 60.0685C75.2455 60.4389 75.2455 60.8093 75.122 61.3032C70.3066 65.6247 71.4179 70.1932 74.5047 75.0085C75.8629 77.231 77.8384 79.3301 77.3445 82.4168C76.8506 82.7873 76.2333 82.9107 75.4924 82.9107C72.1587 81.0587 70.8005 78.0953 70.4301 74.5147C67.4668 70.934 69.8127 66.9829 69.4423 63.1553C70.1832 61.4267 71.6648 60.5624 73.27 59.8215Z" fill="#593927"/>
<path d="M162.416 161.438C165.997 163.908 166.491 168.229 167.108 171.81C168.466 178.478 168.219 185.515 164.392 191.812C164.021 191.689 163.651 191.319 163.527 190.948C163.404 188.973 163.898 187.121 164.268 185.269C165.503 180.947 166.244 176.625 164.392 172.427C163.898 170.699 163.28 169.094 162.54 167.365C162.293 166.624 162.046 165.883 161.922 165.143C162.169 163.908 161.428 162.55 162.416 161.438Z" fill="#B4BABA"/>
<path d="M159.083 200.209C155.379 204.283 151.675 208.111 146.242 209.593C145.748 209.963 145.131 209.963 144.513 209.84C144.019 209.222 144.266 208.728 144.76 208.234C145.501 207.617 146.242 207 146.983 206.382C151.798 203.419 155.749 199.344 159.577 195.27C160.318 194.776 161.059 194.406 161.799 194.899C162.293 197.369 160.071 198.48 159.083 200.209Z" fill="#673A29"/>
<path d="M38.4515 44.2641C35.1178 47.4744 31.6606 50.8081 28.3268 54.0184C26.2278 55.9939 24.1288 56.8582 22.0298 54.0184L22.2767 53.648C28.0799 50.9316 31.6606 45.7458 36.476 41.6712C37.8342 41.1773 38.328 42.1651 38.6985 43.0294C38.8219 43.5233 38.8219 43.8937 38.4515 44.2641Z" fill="#404750"/>
<path d="M29.3133 23.5213C31.9062 22.9039 32.8939 24.756 33.7582 26.4846C34.8695 28.954 35.8573 31.4235 36.9685 33.8929C36.845 34.0164 36.845 34.2633 36.7216 34.3868C36.1042 35.1276 35.6103 36.1154 34.3756 35.8685C33.2644 35.3746 32.7705 34.3868 32.4001 33.2756C31.2888 29.9418 29.6837 27.102 25.6091 26.7316C24.9918 26.7316 24.7448 26.1142 24.6213 25.4968C25.6091 24.1387 27.0908 24.2621 28.5724 24.6325C29.0663 24.756 29.0663 24.756 28.9428 23.7682C29.0663 23.7682 29.1898 23.6448 29.3133 23.5213Z" fill="#696E75"/>
<path d="M60.0586 144.152C60.0586 144.399 60.0586 144.77 60.1821 145.017C59.6882 147.239 58.2065 145.881 57.2187 146.251C58.083 147.239 60.3055 145.264 61.1698 147.239C60.6759 148.597 59.4412 148.597 58.33 148.721C54.5024 148.968 51.6625 150.82 49.3165 153.66C48.2053 154.277 47.2175 153.783 46.2298 153.166C45.9828 152.795 45.8593 152.425 46.1063 151.931C49.1931 146.375 54.6258 145.387 60.0586 144.152Z" fill="#3A5E4B"/>
<path d="M45.6121 126.249C39.315 129.954 36.4752 129.336 32.5241 123.657C32.1537 123.286 32.1537 122.792 32.4006 122.298C32.8945 119.705 30.919 116.619 34.2527 114.767C35.8578 116.372 35.2405 118.594 35.4874 120.446C36.3517 124.891 39.8089 124.521 43.0192 124.644C44.007 125.015 44.9947 125.262 45.6121 126.249Z" fill="#777777"/>
<path d="M162.417 161.439C161.923 162.673 164.146 163.661 162.664 165.019C160.935 165.513 160.935 164.032 160.565 163.167C159.701 161.192 158.713 159.463 156.984 158.228C155.503 157.117 154.268 155.882 153.157 154.524C152.416 153.043 150.07 152.672 150.44 150.45C150.811 150.45 151.181 150.326 151.552 150.326C156.367 152.672 159.577 156.87 162.417 161.439Z" fill="#654140"/>
<path d="M144.39 209.469C145.007 209.469 145.625 209.593 146.242 209.593C140.686 213.421 134.389 212.803 128.215 212.927C128.215 212.68 128.092 212.556 127.968 212.309C128.092 212.062 128.215 211.939 128.339 211.692C132.043 210.334 136.117 210.951 139.698 209.469C141.18 209.346 142.785 208.852 144.39 209.469Z" fill="#4A5747"/>
<path d="M45.6124 126.249C44.6247 126.126 43.6369 126.373 43.0195 125.385C43.5134 123.533 46.4767 122.916 45.3655 120.446C45.242 120.076 45.242 119.705 45.3655 119.211C47.0941 117.236 48.0819 118.347 48.9462 120.076C48.5758 121.804 49.687 123.903 47.8349 125.385C46.8472 125.015 46.3533 126.002 45.6124 126.249Z" fill="#444745"/>
<path d="M131.549 72.6627C131.919 74.5148 135.253 75.3791 133.277 77.972C132.043 78.4659 131.549 77.3546 130.808 76.8607C129.573 75.3791 127.721 74.2678 128.215 71.9219C128.709 71.5514 129.203 71.3045 129.697 70.9341C130.19 71.5514 130.808 72.1688 131.549 72.6627Z" fill="#3A2C25"/>
<path d="M22.1524 54.0183C24.2514 55.253 26.3504 54.6357 28.4494 54.0183C28.4494 54.5122 28.4494 55.0061 28.4494 55.5C28.2025 55.8704 27.9555 56.1173 27.7086 56.4877C23.5105 57.2286 19.436 57.599 15.4849 55.8704C14.8675 55.7469 14.2502 55.7469 13.6328 55.6234C16.1022 53.8948 19.3125 55.253 22.1524 54.0183Z" fill="#3A1503"/>
<path d="M13.6337 97.6041C13.2633 97.7276 12.8928 97.7276 12.5224 97.851C8.07745 93.653 8.69481 89.5784 14.251 86.3682C14.251 86.6151 14.3745 86.7386 14.498 86.9855C14.7449 87.3559 14.7449 87.7264 14.7449 88.0968C14.6214 88.2202 14.6214 88.4672 14.498 88.5907C14.251 88.8376 14.0041 89.208 13.6337 89.455C10.1765 92.0479 13.5102 94.8877 13.6337 97.6041Z" fill="#6A4031"/>
<path d="M159.083 200.209C159.33 198.233 161.799 197.122 161.676 194.9C160.935 193.294 161.552 192.183 162.787 191.195C163.158 191.072 163.651 191.072 164.022 191.319C164.145 191.442 164.392 191.566 164.516 191.813C163.775 195.27 162.17 198.233 159.083 200.209Z" fill="#B4BABA"/>
<path d="M38.4508 44.264C38.4508 44.0171 38.3273 43.7701 38.4508 43.5232C38.2038 40.4364 35.117 37.967 36.4752 34.5098C36.5987 34.3863 36.7222 34.2628 36.9691 34.0159C37.9569 36.1149 39.0681 38.2139 40.0559 40.4364C40.9202 42.165 40.5498 43.5232 38.4508 44.264Z" fill="#696E75"/>
<path d="M46.1057 151.932C46.1057 152.179 46.2291 152.549 46.2291 152.796C45.7352 154.031 44.8709 154.525 43.6362 153.66C40.5494 151.191 37.2157 153.907 34.1289 153.413C37.8331 150.45 42.1546 152.549 46.1057 151.932Z" fill="#3E8C64"/>
<path d="M32.6485 122.545C32.6485 122.916 32.6485 123.286 32.525 123.533C30.3025 120.323 29.9321 117.236 32.525 114.026C33.2658 116.989 33.1423 119.705 32.6485 122.545Z" fill="#808080"/>
<path d="M32.6477 122.545C32.6477 119.705 32.6477 116.989 32.6477 114.149C32.7712 114.026 33.0181 113.902 33.2651 114.026C33.6355 114.026 34.1294 114.149 34.4998 114.149C34.6233 114.519 34.6233 114.766 34.2528 114.89C32.0303 117.112 34.4998 120.323 32.6477 122.545Z" fill="#404443"/>
<path d="M28.9437 171.687C29.3141 171.44 29.6845 171.069 29.9314 170.822C31.907 169.341 33.5121 170.946 35.2407 171.316C35.6111 171.316 36.105 171.44 36.4754 171.44C39.4388 171.44 42.4021 171.81 45.2419 171.193C45.6123 170.946 46.1062 170.822 46.4766 170.699C48.6991 169.958 50.9216 169.464 53.2676 170.452C53.8849 170.822 54.5023 171.316 54.8727 171.934C56.4778 177.243 56.4779 182.799 57.2187 188.232C58.083 194.653 57.836 201.197 57.3422 207.741C57.7126 208.481 58.3299 209.222 58.5769 209.963C59.9351 213.791 58.8238 215.89 54.8727 216.137C46.8471 216.754 38.6979 217.248 30.7957 219.1C26.7212 220.088 26.2273 218.359 26.3508 215.025C26.4742 203.049 26.4742 190.948 26.3508 178.972C26.3508 176.626 26.2273 174.403 27.9559 172.551C28.4498 172.181 28.6967 171.934 28.9437 171.687Z" fill="#FDFDFD"/>
<path d="M110.929 212.062C110.929 214.532 110.435 216.384 107.225 215.149C105.373 214.408 103.398 214.779 101.299 215.149C99.4464 215.519 97.4709 215.89 95.8658 215.519C89.4452 213.914 83.0247 215.396 76.4807 215.272C73.5174 215.272 75.4929 212.68 74.1348 212.186C72.4061 209.222 74.7521 208.235 76.6042 207C81.0492 205.889 85.4941 205.518 90.1861 206.506C92.4086 207 94.7545 206.753 96.977 206.383C100.805 205.518 104.632 206.012 108.336 207C109.077 207.247 109.695 207.617 110.188 208.235C110.929 209.346 111.794 210.581 110.929 212.062Z" fill="#FAFAF9"/>
<path d="M76.3565 207.741C75.8626 209.346 74.0105 210.21 74.134 212.186C73.3932 214.655 72.2819 216.878 71.6646 219.347C70.5533 224.41 66.2318 222.311 63.145 222.434C59.9348 222.558 59.9348 219.841 60.0582 217.495C60.1817 215.273 60.1817 212.927 60.3052 210.704C60.4286 208.729 59.5643 207.741 57.5888 207.988C56.2306 206.012 56.7245 203.79 56.848 201.814C57.4653 191.69 54.9959 181.812 54.1316 171.934C55.4898 170.452 55.9837 171.811 56.601 172.675C57.0949 177.737 57.4653 182.676 58.7 187.615C59.3174 192.06 57.8357 196.752 59.9348 201.073C60.5521 202.555 60.3052 204.16 60.4286 205.642C60.0582 206.012 61.1695 205.642 60.5521 205.642C63.8859 201.938 67.7135 204.037 71.4176 204.778C73.0228 205.518 74.7514 205.271 76.48 205.518C77.5912 205.642 79.1963 205.642 79.0729 207.124C78.8259 207.864 77.2208 207.124 76.3565 207.741Z" fill="#496150"/>
<path d="M28.9441 171.687C28.6972 171.934 28.4503 172.304 28.2033 172.551C25.1165 172.674 25.6104 175.02 25.6104 176.996C25.6104 190.207 25.6104 203.542 25.6104 216.754C25.6104 218.482 26.5982 221.075 24.4992 221.693C21.7828 222.433 18.696 223.421 16.2266 220.705C24.8696 220.458 24.8696 220.458 24.8696 211.815C24.8696 199.962 24.8696 188.108 24.8696 176.255C24.7461 173.292 25.4869 171.316 28.9441 171.687Z" fill="#726558"/>
<path d="M127.844 212.309C125.869 212.309 124.881 212.803 125.004 215.272C125.622 222.681 122.535 224.409 115.127 221.446C114.386 220.335 114.386 219.223 115.744 218.606C120.806 218.483 120.806 218.483 121.918 213.173C122.041 212.309 122.411 211.568 123.029 210.951C125.004 210.21 126.856 209.469 128.215 211.939C128.091 212.062 127.968 212.186 127.844 212.309Z" fill="#4A5747"/>
<path d="M116.115 218.853C115.003 219.347 115.127 220.458 115.127 221.446C112.164 218.976 112.904 214.902 110.805 212.062C110.435 210.951 110.065 209.963 109.694 208.852C110.558 206.382 112.287 205.765 114.633 206.382C115.003 206.629 115.374 206.876 115.497 207.37C115.621 207.741 115.497 208.234 115.374 208.605C114.016 209.963 114.386 211.321 115.003 212.926C115.868 214.778 117.102 216.63 116.115 218.853Z" fill="#4B6557"/>
<path d="M23.0169 99.5791C23.8812 100.814 23.7578 102.295 23.7578 103.777C23.7578 141.066 23.7578 178.231 23.7578 215.519C23.7578 219.964 22.3996 220.828 17.8311 219.1C19.3128 203.913 18.8189 188.602 18.0781 173.415C17.7077 165.883 17.4607 158.352 18.325 150.696C18.572 148.721 18.572 146.745 18.572 144.77C18.572 131.805 18.572 118.717 18.572 105.753C18.572 103.901 18.8189 102.049 17.8311 100.32C19.1893 97.4801 21.0414 98.2209 23.0169 99.5791Z" fill="#B09270"/>
<path d="M13.633 97.6038C9.68187 92.7884 9.92881 90.319 14.4973 88.22C14.8677 88.9608 14.4973 89.5782 14.2503 90.1955C13.0156 93.6527 14.0034 95.1344 17.5841 95.6283C21.0413 96.1222 24.6219 95.0109 28.0791 95.7517C28.0791 96.2456 28.2026 96.616 28.2026 97.1099C28.0791 97.9742 27.4618 98.0977 26.721 97.9742C25.4862 98.2212 24.1281 98.4681 22.8933 98.5916C20.3004 98.0977 17.4606 100.32 14.9911 97.8508C14.7442 97.7273 14.1268 97.7273 13.633 97.6038Z" fill="#6C2617"/>
<path d="M15.2388 97.8503C17.7082 99.0851 20.5481 97.1095 23.141 98.5912C23.141 98.9616 23.141 99.2085 23.141 99.5789C21.4124 99.8259 19.5603 98.8381 18.0786 100.32C16.2265 100.32 15.6092 99.332 15.2388 97.8503Z" fill="#6A4031"/>
<path d="M17.831 53.7715C16.4729 53.5245 14.8677 54.3889 13.633 52.9072C12.0279 49.0796 8.20026 47.104 5.73083 44.0172C5.11347 43.2764 3.87875 42.5356 4.24917 41.3009C4.74305 39.6957 6.34819 40.0661 7.5829 40.0661C10.0523 39.9427 12.5218 40.1896 14.8677 39.9427C17.2137 39.6957 17.831 38.3375 16.3494 36.362C15.8555 35.7446 15.1147 35.1273 14.6208 34.5099C9.3115 29.2006 9.3115 29.2006 12.3983 22.5332C14.1269 18.7055 16.1024 14.8779 17.9545 11.0503C19.8066 12.285 19.0658 14.0136 19.0658 15.3718C19.1892 26.9781 19.3127 38.461 19.5597 50.0673C19.4362 51.6725 18.5719 52.6602 17.831 53.7715Z" fill="#BBC3CC"/>
<path d="M35.2407 171.933C33.2651 172.551 32.0304 170.081 30.0549 170.946C30.0549 170.699 30.0549 170.328 29.9314 170.081C30.7957 169.217 32.2774 169.587 31.7835 167.118C31.0426 163.784 29.8079 159.71 32.5243 156.376C35.7346 155.512 38.4509 153.413 42.0316 153.783C42.8959 154.4 43.8837 154.4 44.8715 154.647C49.0695 155.388 51.7859 157.981 52.2798 161.809C52.7737 165.513 50.6746 168.847 46.7235 170.452C45.4888 170.946 44.2541 171.316 43.0194 171.687C40.4265 171.933 37.8336 171.44 35.2407 171.933Z" fill="#3E8C64"/>
<path d="M42.7723 170.822C43.7601 170.328 44.8713 169.834 45.8591 169.464C49.3163 168.229 51.5388 166.007 51.4153 162.303C51.1684 158.599 48.9459 156.376 45.3652 155.388C44.1305 155.018 42.8958 154.771 42.0315 153.66C42.5254 153.66 43.1427 153.66 43.6366 153.66C44.5009 153.413 45.3652 153.042 46.2295 152.795C47.0938 153.042 47.9581 153.413 48.8224 153.66C53.6378 155.635 55.6134 158.969 54.8725 163.908C54.6256 165.636 54.0082 167.242 54.2552 168.97C54.2552 169.588 54.0082 170.081 53.2674 170.328C50.798 170.081 48.2051 169.464 46.2295 171.687L45.9826 171.81C45.4887 172.18 44.8713 172.18 44.3775 172.057C43.8836 171.687 43.1427 171.563 42.7723 170.822Z" fill="#20472F"/>
<path d="M32.6476 156.129C32.1537 160.574 32.0302 165.143 33.1415 169.711C32.4006 169.711 31.1659 169.835 30.0547 169.835C29.8077 169.588 29.4373 169.341 29.1904 169.094C28.6965 167.242 29.8077 165.76 29.9312 163.908C29.6842 163.291 29.4373 162.673 29.0669 162.056C28.573 160.574 28.9434 159.463 30.1781 158.599C31.6598 158.599 29.5608 155.018 32.6476 156.129Z" fill="#0D2312"/>
<path d="M30.1788 158.846C29.9318 160.081 29.9318 161.315 29.0675 162.303C27.3389 162.427 25.8573 162.056 25.7338 160.081C25.7338 158.229 24.993 156.006 26.4746 154.401C27.3389 153.413 28.4502 153.784 29.191 154.895C30.1788 156.13 30.0553 157.488 30.1788 158.846Z" fill="#53A57C"/>
<path d="M29.8081 164.032C31.4132 166.007 30.1785 167.612 29.0673 169.218C27.956 169.588 26.5979 170.823 25.857 169.094C25.2397 167.736 25.2397 166.007 27.0917 165.02C27.956 164.649 28.9438 164.402 29.8081 164.032Z" fill="#3B8761"/>
<path d="M70.4302 74.5148C72.1588 76.9842 73.1466 80.071 75.3691 82.2935C77.3446 83.8986 78.2089 86.2446 79.6906 88.2201C80.6784 91.06 83.0243 93.2824 83.2713 96.3692C83.2713 97.1101 83.0243 97.604 82.5304 98.0978C80.1845 99.3326 77.8385 98.7152 75.4925 98.4683C73.1466 98.2213 70.1833 96.9866 69.319 100.814C68.5781 104.271 69.6894 105.753 73.7639 106.988C74.0109 107.111 74.2578 107.111 74.6282 107.235C77.8385 109.087 76.8507 112.05 76.8507 114.767C75.863 118.1 72.8996 119.829 71.0476 122.545C70.1833 123.78 69.1955 124.891 68.0842 126.743C73.0231 124.644 75.7395 119.582 81.0488 119.211C84.8764 119.088 87.5928 117.483 89.1979 114.026C89.9387 112.421 90.803 110.939 92.9021 111.062C95.8654 111.927 97.2236 110.692 97.1001 107.605C96.9766 106.247 97.1001 104.765 97.4705 103.407C101.545 94.2702 101.669 94.1467 109.571 99.456C112.287 101.308 113.522 100.938 114.139 97.8509C114.263 96.9866 114.757 96.2458 115.497 95.7519C121.671 95.8754 125.746 99.9499 125.869 105.877C125.869 108.716 125.252 111.803 129.573 112.05C130.19 112.421 130.684 112.914 131.055 113.532C135.253 119.952 136.734 120.446 143.402 116.866C144.884 116.495 146.118 116.372 145.378 118.594C144.143 123.039 142.661 127.237 139.945 130.941C139.327 131.806 138.834 133.164 137.475 132.917C136.117 132.67 136.241 131.188 135.747 130.2C134.882 128.348 135.994 125.632 133.401 124.521C129.079 127.484 129.326 127.361 126.116 123.286C123.77 120.446 121.424 117.606 119.819 114.273C119.078 112.667 117.349 111.927 115.868 111.062C112.781 109.457 111.299 110.198 111.299 113.779C111.299 117.112 110.682 119.705 107.966 122.175C105.373 124.397 105.867 126.867 108.459 130.077C109.2 130.941 110.559 131.682 110.065 132.917C109.571 134.275 107.966 134.152 106.607 134.152C104.508 134.152 102.286 134.399 100.187 133.781C99.5695 133.534 99.0756 133.164 98.5817 132.793C96.3593 130.571 94.0133 128.472 91.5439 126.496C89.9387 125.138 89.0744 125.632 88.5805 127.484C87.4693 131.435 85.7407 134.892 82.7774 137.856C81.4192 139.214 81.1722 141.066 81.5427 143.042C82.2835 147.487 82.16 147.61 77.3446 147.857C74.1344 147.61 71.2945 146.128 68.3312 144.894C66.1087 143.042 63.1454 142.054 62.0341 138.967C58.5769 134.769 54.2554 131.188 51.6625 126.126C50.0574 122.916 49.8104 120.693 52.5268 118.347C57.0953 113.408 56.1075 108.593 52.7738 103.407C51.5391 101.555 50.0574 99.3326 50.7982 96.7397C49.44 93.7763 50.1809 91.06 51.786 88.3436C54.9963 82.7874 59.0708 77.972 64.2566 74.0209C66.6026 72.4157 68.4547 72.0453 70.4302 74.5148Z" fill="#59B387"/>
<path d="M41.9076 109.828C41.9076 102.296 41.9076 94.7641 41.9076 87.1088C42.278 87.1088 42.525 87.1088 42.8954 86.9854C44.0066 89.0844 45.1179 91.3069 46.2291 93.4059C46.9699 93.5293 47.5873 94.0232 47.8342 94.7641C49.8098 99.3325 52.7731 103.407 54.3782 108.099C55.366 111.062 55.4895 113.655 53.02 116.001C50.5506 118.347 47.4638 118.1 44.624 116.989C41.5372 116.001 40.6729 113.285 41.9076 109.828Z" fill="#41976C"/>
<path d="M41.9076 109.828C42.1546 115.384 43.8832 117.112 48.6986 116.742C53.0201 116.495 55.2426 112.914 53.3905 108.963C51.6619 105.259 50.4272 101.308 47.8343 98.0978C46.97 96.9865 47.2169 95.6284 46.97 94.3936C47.9577 93.7763 48.3282 94.6406 48.822 95.1345C49.1925 95.9988 49.8098 96.6161 50.6741 96.8631C52.4027 100.444 54.1313 104.024 55.7365 107.605C58.0824 112.544 57.2181 115.013 52.4027 118.471C50.9211 118.224 50.1802 119.705 48.9455 120.199C47.8343 119.829 46.8465 117.606 45.4883 119.952C44.3771 120.817 43.8832 119.582 43.1423 119.211C42.4015 118.594 41.7842 117.977 41.1668 117.112C39.5617 115.507 38.2035 113.902 39.5617 111.433C39.5617 110.692 39.6851 110.075 40.426 109.581C40.7964 109.704 41.4137 109.704 41.9076 109.828Z" fill="#284C37"/>
<path d="M48.8231 95.1345C48.2058 94.8875 47.5884 94.6406 47.0945 94.3936C46.8476 94.1467 46.6006 93.7763 46.2302 93.5293C46.4772 92.665 45.9833 91.0599 47.3415 91.4303C49.564 91.6773 48.6997 93.6528 48.8231 95.1345Z" fill="#183724"/>
<path d="M135.746 137.361C136.858 139.213 136.611 141.312 136.611 143.411C136.487 143.535 136.24 143.782 136.117 143.905C131.919 145.14 127.35 144.152 123.276 146.128C117.102 149.338 110.311 149.091 103.644 148.968C99.0754 148.844 94.507 148.968 89.9385 148.968C87.4691 148.968 85.1231 148.474 83.271 146.622C79.4434 140.078 82.1598 134.768 89.5681 134.645C102.903 134.398 116.361 134.522 129.696 134.645C131.302 134.645 132.783 134.892 134.265 135.633C135.006 135.88 135.623 136.497 135.746 137.361Z" fill="#59B286"/>
<path d="M99.6939 132.917C102.781 132.917 105.991 132.917 109.819 132.917C108.337 131.559 107.226 130.818 106.361 129.707C104.139 126.99 103.892 123.657 106.608 121.681C110.066 119.212 109.942 116.125 109.942 112.668C109.942 108.717 111.3 107.852 115.004 109.21C117.721 110.198 120.314 111.803 121.425 114.52C122.536 117.236 123.894 119.459 126.24 121.311C128.586 123.163 130.932 124.644 133.278 124.397C133.278 125.262 133.278 126.249 133.155 127.114C131.55 128.102 130.191 129.583 128.092 129.83C126.858 128.842 125.499 128.719 124.018 128.349C123.153 126.249 123.771 123.657 121.425 122.175C119.202 120.57 118.585 117.977 117.35 115.754C116.856 114.767 116.116 113.655 114.757 113.902C113.523 114.149 113.646 115.384 113.646 116.372C113.523 118.965 112.411 121.064 110.683 122.792C109.448 123.904 108.831 125.385 109.572 127.114C110.312 128.719 111.794 129.213 113.399 129.213C115.498 129.336 117.721 129.213 119.82 129.336C121.301 129.46 123.03 129.336 123.524 131.559C123.4 133.658 122.166 134.646 120.19 134.646C114.14 134.769 108.09 134.769 101.916 134.646C100.929 134.646 99.5704 134.646 99.6939 132.917Z" fill="#254F38"/>
<path d="M150.316 150.203C151.057 151.808 153.403 151.932 153.773 153.907C152.786 154.524 151.551 154.154 150.563 154.771C148.588 156.006 147.847 157.488 149.575 159.587C150.934 161.192 152.786 162.303 154.02 164.032C154.02 165.02 153.28 165.39 152.415 165.39C150.687 165.266 149.575 164.155 148.464 162.921C146.242 160.451 143.772 158.352 140.562 157.364C139.821 156.253 138.71 155.389 138.093 154.154C138.093 153.043 138.833 152.302 139.327 151.561C139.945 150.697 141.55 150.203 140.809 148.845C140.192 147.734 138.833 147.857 137.722 147.857C135.87 147.734 134.018 147.363 132.289 146.746C131.672 146.375 131.055 146.128 131.302 145.264C133.524 143.659 135.87 144.029 138.216 145.017C142.414 146.622 146.612 147.857 150.316 150.203Z" fill="#66220E"/>
<path d="M124.387 128.595C126.116 127.114 127.227 127.854 128.091 129.583C127.721 131.559 127.35 133.287 130.437 132.917C131.301 132.793 132.413 132.917 133.154 133.658C134.759 133.904 136.611 134.028 137.352 135.88C137.722 136.868 136.734 137.238 135.87 137.362C135.623 137.115 135.253 136.744 135.006 136.497C133.524 134.892 131.672 135.139 129.82 135.139C116.732 135.139 103.767 135.139 90.6793 135.139C89.6915 135.139 88.7037 135.139 87.716 135.139C86.9751 135.139 86.1108 135.139 86.1108 134.151C86.1108 133.411 86.7282 132.917 87.469 132.793C89.1976 132.546 90.9262 132.793 92.6548 132.67C93.3957 132.67 94.013 132.546 94.7539 132.546C96.2355 132.793 97.4702 130.941 98.9519 132.052C99.1988 132.299 99.5692 132.546 99.8162 132.917C101.792 134.769 104.138 133.781 106.36 133.781C110.805 133.904 115.127 133.781 119.572 133.781C122.165 133.781 123.276 132.793 122.905 130.077C122.782 129.706 122.782 129.336 123.029 128.966C123.276 128.719 123.77 128.472 124.387 128.595Z" fill="#19291D"/>
<path d="M145.254 96.8629C146.86 96.4925 147.724 97.4803 148.588 98.5915C147.724 100.32 147.477 102.172 148.094 103.901C148.712 105.629 148.341 106.864 147.106 107.975C145.872 109.21 146.366 110.939 146.119 112.42C145.995 113.532 146.242 115.137 144.267 114.89C142.661 112.297 143.526 109.457 143.155 106.741C143.155 106.617 143.155 106.494 143.155 106.37C143.279 104.642 146.366 103.901 145.131 102.172C143.896 100.444 141.427 101.431 139.575 101.555C137.352 101.678 135.13 102.419 132.907 101.802C130.808 100.937 128.092 102.172 126.24 100.197C127.721 97.2333 130.932 98.3446 133.278 97.4803C137.105 96.1221 141.18 96.2456 145.254 96.8629Z" fill="#27563E"/>
<path d="M133.154 133.658C130.684 133.534 128.215 134.028 125.745 133.164C125.869 131.312 127.474 130.694 128.091 129.583C129.82 128.842 130.684 126.496 133.154 127.237C132.66 129.336 134.141 131.559 133.154 133.658Z" fill="#C1B05A"/>
<path d="M144.39 115.013C145.748 113.779 145.13 112.173 145.13 110.692C145.13 109.334 145.13 108.099 146.983 108.099C146.489 111.556 148.094 115.384 145.254 118.47C145.254 116.865 144.266 117.359 143.402 117.483C142.785 116.248 142.414 115.137 144.39 115.013Z" fill="#519F79"/>
<path d="M138.34 145.017C136.117 145.511 133.648 144.276 131.549 145.881C129.944 146.869 128.709 146.251 127.844 144.77C130.437 142.424 133.895 144.77 136.611 143.288C137.722 143.412 138.34 143.905 138.34 145.017Z" fill="#234B33"/>
<path d="M24.9925 25.3733C31.7834 25.4967 32.1539 31.9173 35.2406 35.7449C36.1049 37.7204 38.5744 39.2021 37.0927 41.795C32.7712 46.6104 29.4375 52.4136 22.3996 53.6483C22.3996 38.8317 22.3996 24.0151 22.2761 9.19849C24.3751 13.2731 27.0915 17.1007 26.4742 21.9161C26.3507 23.2743 25.7333 24.3855 24.9925 25.3733Z" fill="#8192A3"/>
<path d="M128.092 71.9216C128.956 73.5267 129.944 75.1319 131.302 76.2431C133.154 79.8238 135.994 82.9106 137.846 86.4913C138.587 87.8495 140.192 89.2076 138.957 90.6893C137.476 92.4179 135.871 90.8128 134.389 90.1954C133.895 89.9485 133.401 89.7015 132.907 89.4546C132.166 89.2076 131.426 88.7138 130.808 88.4668C129.08 88.0964 129.203 89.4546 128.956 90.4424C128.462 92.7883 127.104 93.6526 124.758 93.1587C122.412 92.0475 120.313 90.5658 118.338 88.9607C116.609 87.6025 115.621 88.0964 114.88 89.9485C114.263 91.5536 113.893 93.2822 111.794 93.6526C108.46 93.4057 106.978 90.5658 104.509 88.9607C102.039 87.3556 100.681 87.6025 100.187 90.5658C97.9648 95.1343 97.2239 95.3812 93.6433 91.924C92.532 90.8128 91.2973 89.9485 90.0626 88.9607C88.2105 87.479 86.9758 88.0964 86.235 90.1954C83.2716 93.5291 82.2839 93.4057 79.8144 89.2076C79.691 87.6025 78.5797 86.4913 77.592 85.38C76.6042 84.3922 76.2338 83.4045 76.9746 82.0463C75.4929 79.3299 74.1347 76.6135 72.5296 73.8972C69.0724 67.7236 69.4428 65.0072 74.6286 60.8092C75.1225 60.0683 75.8633 60.1918 76.4807 60.1918C86.6054 60.1918 96.7301 60.1918 106.855 60.1918C107.596 60.1918 108.336 60.1918 108.83 60.6857C109.818 61.55 111.176 61.303 112.411 61.4265C114.88 61.9204 117.35 62.5378 119.202 64.3898C120.313 65.1307 121.548 65.8715 122.659 66.6123C124.635 67.847 126.24 69.5756 127.845 71.1808C127.845 71.6747 127.968 71.7981 128.092 71.9216Z" fill="#EA4900"/>
<path d="M109.076 60.9327C97.717 60.9327 86.2341 61.0562 74.8748 61.0562C74.8748 60.8093 74.9982 60.4388 74.9982 60.1919C86.8515 60.1919 98.8283 60.1919 110.805 60.1919C110.682 60.4388 110.558 60.6858 110.435 60.8093C109.941 60.8093 109.447 60.8093 109.076 60.9327Z" fill="#631A04"/>
<path d="M127.969 71.4278C125.87 70.3166 124.264 68.588 122.783 66.8594C125.499 67.2298 126.857 69.0819 127.969 71.4278Z" fill="#733424"/>
<path d="M119.325 64.6367C117.102 63.6489 114.756 62.6612 112.534 61.6734C115.374 61.4265 117.843 61.7969 119.325 64.6367Z" fill="#733424"/>
<path d="M14.7441 168.476C13.2625 164.278 13.5094 160.08 14.7441 155.882C14.7441 160.08 14.7441 164.278 14.7441 168.476Z" fill="#3E9066"/>
<path d="M28.2032 95.7518C24.2521 97.6039 20.0541 96.9865 16.103 96.6161C11.5345 96.2457 10.9172 92.665 14.4978 88.2201C18.8194 86.8619 23.1409 86.6149 27.3389 88.3435C29.4379 90.6895 29.9318 93.1589 28.2032 95.7518Z" fill="#D94709"/>
<path d="M22.8935 85.5038C19.9302 86.1211 18.4486 85.2568 18.6955 81.7996C18.9424 77.1077 18.819 72.2923 18.819 67.6004C20.3006 66.8595 21.6588 67.7238 23.1405 67.6004C23.6344 73.6505 24.1282 79.5771 22.8935 85.5038Z" fill="#B19270"/>
<path d="M22.8931 85.5035C23.0165 79.5769 23.0165 73.5267 23.14 67.6001C25.1156 72.6624 23.387 78.0952 24.1278 83.1575C24.3747 84.1453 25.1156 85.38 23.2635 85.7504L22.8931 85.5035Z" fill="#746454"/>
<path d="M23.1404 85.7504C24.0047 85.133 23.8812 84.1452 24.0047 83.1575C24.9925 84.3922 24.6221 86.4912 26.3507 87.3555C22.3996 88.0963 18.4485 88.0963 14.6208 87.3555V86.9851C17.2138 84.6391 20.5475 87.8494 23.1404 85.7504Z" fill="#352012"/>
<path d="M14.6215 87.3555C18.5726 87.3555 22.5237 87.3555 26.3513 87.3555C26.7217 87.7259 26.9687 88.0963 27.3391 88.4667C23.0176 88.4667 18.6961 88.3432 14.498 88.3432C14.498 87.9728 14.6215 87.6024 14.6215 87.3555Z" fill="#6C2617"/>
<path d="M39.4389 111.433C39.6859 113.408 40.5502 115.26 41.9084 116.742C41.0441 117.483 38.6981 117.359 39.5624 118.964C40.6736 121.063 42.1553 118.471 43.5135 118.471C44.1309 118.964 44.8717 119.335 45.489 119.829C45.489 119.952 45.489 120.199 45.489 120.323C45.489 122.916 44.1309 124.027 41.6614 124.397C38.5746 124.768 36.2287 123.903 35.1174 120.693C34.2531 118.1 35.1174 115.631 36.1052 113.161C36.5991 111.556 37.9573 111.309 39.4389 111.433Z" fill="#777777"/>
<path d="M35.9813 113.161C36.8456 113.285 37.9568 113.532 36.8456 114.643C34.9935 116.125 35.2405 118.1 35.2405 120.076C35.6109 120.94 35.8578 121.804 34.3762 121.681C34.3762 119.458 34.2527 117.112 34.2527 114.89C34.3762 114.643 34.4996 114.396 34.4996 114.149C34.87 113.779 35.4874 113.532 35.9813 113.161Z" fill="#DCDFDE"/>
<path d="M145.254 96.8633C139.821 97.7276 134.388 98.5919 128.956 99.4562C127.968 99.5796 126.98 99.3327 126.239 100.32C126.857 101.308 127.351 102.42 127.351 103.531C127.351 106.741 127.227 109.828 129.573 112.421C125.992 113.655 124.511 112.174 124.511 108.593C124.511 107.852 124.511 107.235 124.511 106.494C124.511 100.691 121.424 97.2337 115.127 96.1224C114.757 95.8755 114.51 95.5051 114.386 95.1347C114.016 93.9 114.139 92.5418 114.757 91.4305C115.744 89.3315 117.102 88.3437 119.448 89.9489C121.301 91.1836 123.153 92.5418 125.128 93.653C127.104 94.6408 128.709 95.1347 128.832 92.0479C128.956 89.5784 130.437 88.9611 132.66 89.3315C135.129 90.4428 136.981 92.2948 139.451 93.2826C140.068 93.5295 140.686 94.2704 141.303 93.9C141.92 93.5295 141.179 93.0357 140.932 92.5418C139.574 88.2203 135.623 85.1335 134.882 80.565C135.253 80.0711 135.87 79.7007 136.241 80.0711C141.179 84.6396 144.884 89.9489 145.254 96.8633Z" fill="#43976C"/>
<path d="M139.205 94.0231C136.859 93.1588 134.76 91.9241 133.155 90.0721C132.661 89.4547 132.661 88.9608 133.155 88.3434C134.76 89.2077 136.365 89.9486 138.834 91.3068C136.735 85.3801 132.661 81.5525 131.302 76.3667C131.92 76.8606 132.537 77.4779 133.155 77.9718C133.772 78.8361 134.266 79.7004 134.883 80.5647C137.476 84.3924 140.192 88.22 141.798 92.5415C141.304 93.6527 140.316 93.8997 139.205 94.0231Z" fill="#4A3720"/>
<path d="M61.7876 138.967C63.7632 140.695 66.3561 141.683 67.9612 143.905C68.4551 145.387 69.0724 146.869 70.4306 147.733C73.7644 150.202 76.8512 153.166 80.8022 154.647C88.581 157.24 96.4832 159.586 104.509 155.512C105.373 155.018 106.237 154.154 107.225 153.907C107.843 153.783 108.46 153.907 109.077 154.277C108.83 158.105 106.114 160.204 103.151 161.932C102.78 162.056 102.286 162.056 101.916 161.932C99.1995 161.438 96.4832 161.562 93.7668 161.685C87.3462 161.932 81.4196 160.08 75.8634 156.87C74.6287 156.129 73.394 154.647 71.6653 156.129C70.4306 156.87 69.8133 155.882 69.1959 155.265C68.5786 154.524 67.8377 153.907 67.0969 153.289C65.6152 150.82 62.405 150.079 60.9233 147.61C59.8121 146.128 57.96 147.239 56.6018 146.498C57.5896 145.387 59.3182 146.498 60.1825 145.14C61.5407 144.029 60.9233 142.671 60.4294 141.313C59.9355 139.954 60.306 139.09 61.7876 138.967Z" fill="#35412F"/>
<path d="M15.2384 55.8703C19.313 55.9938 23.511 55.1295 27.4621 56.4877C30.4254 61.6735 28.9438 64.2664 23.1406 64.3898C21.412 64.3898 19.6834 64.2664 17.9548 64.3898C15.4854 64.5133 12.8925 64.6368 11.9047 61.6735C11.1639 58.5867 13.1394 57.105 15.2384 55.8703Z" fill="#DB4607"/>
<path d="M24.9924 25.3728C24.7454 23.8911 24.9924 22.6564 26.474 22.0391C27.7087 21.6687 27.5853 19.6931 29.3139 19.8166C29.4373 21.1748 27.2149 22.4095 28.9435 23.7677C29.4373 24.7554 31.1659 24.0146 31.5364 25.6197C29.1904 25.6197 27.0914 25.4963 24.9924 25.3728Z" fill="#373E47"/>
<path d="M77.098 82.2932C77.4684 85.1331 80.8021 86.2443 80.8021 89.2076C79.8144 89.7015 79.4439 88.5903 78.8266 88.3433C77.2215 86.6147 75.8633 84.6392 75.3694 82.2932C75.8633 82.2932 76.4806 82.2932 77.098 82.2932Z" fill="#3B3522"/>
<path d="M152.045 164.896C152.786 164.896 153.527 164.649 153.774 163.908C153.774 161.192 156.737 159.833 156.984 157.117C160.565 158.475 160.688 162.426 162.664 164.896C162.911 165.39 163.158 166.007 163.405 166.501C162.787 167.118 162.047 167.612 161.429 168.229C160.195 169.464 159.207 170.946 157.355 171.316C156.984 171.316 156.49 171.316 156.12 171.316C155.132 170.822 154.268 170.328 154.638 169.094C155.75 167.242 158.096 166.254 158.96 163.784C156.244 164.772 155.626 167.242 154.515 169.217C154.144 169.341 153.651 169.464 153.28 169.341C151.799 168.229 151.058 166.748 152.045 164.896Z" fill="#5E2111"/>
<path d="M165.133 171.44C167.232 176.132 166.861 180.947 165.256 185.639C164.886 185.516 164.639 185.269 164.392 184.898C164.269 182.799 160.935 181.688 162.663 178.972C162.91 178.354 163.157 177.86 163.404 177.367C164.392 175.515 163.157 172.922 165.133 171.44Z" fill="#4B322E"/>
<path d="M165.133 171.44C164.392 173.786 166.244 176.502 163.898 178.478C162.046 175.021 162.91 170.822 160.688 167.489C161.305 166.378 162.417 166.624 163.281 166.624C164.145 168.106 165.503 169.464 165.133 171.44Z" fill="#752911"/>
<path d="M163.898 191.319L163.528 191.443H163.157C160.935 190.208 162.046 188.726 162.664 187.121C163.281 186.257 163.528 185.145 164.886 185.392L165.133 185.639C165.503 187.738 164.516 189.467 163.898 191.319Z" fill="#4B322E"/>
<path d="M163.404 187.244C163.157 188.602 162.046 189.96 163.281 191.442C162.787 192.677 162.293 193.788 161.675 195.023C161.182 195.27 160.564 195.64 160.07 195.887C158.218 195.146 157.601 196.751 156.613 197.616C153.403 200.702 150.193 204.036 146.982 207.123C146.982 208.234 146.365 208.728 145.254 208.728C144.389 208.111 143.155 208.975 142.537 207.987C142.167 206.629 143.031 205.765 143.772 205.024C149.328 199.344 154.885 193.788 160.564 188.232C161.182 187.614 161.922 187.121 162.787 187.121C163.034 187.121 163.157 187.121 163.404 187.244Z" fill="#651A06"/>
<path d="M146.982 207.123C149.699 201.814 154.514 198.604 158.465 194.529C160.441 192.43 159.7 195.27 160.07 195.888C156.366 200.333 152.538 204.778 146.982 207.123Z" fill="#BA3C06"/>
<path d="M142.537 207.74C143.525 207.987 144.636 207.617 145.254 208.728C145.007 208.975 144.636 209.222 144.389 209.469C143.155 210.333 141.673 210.457 140.191 210.333C139.821 210.086 139.697 209.839 139.821 209.346C140.438 208.358 141.179 207.493 142.537 207.74Z" fill="#2A100B"/>
<path d="M36.9694 41.7946C37.3399 39.4486 34.6235 38.0904 35.1174 35.7445C35.2408 35.0037 35.2408 34.1393 36.4756 34.3863C36.846 37.4731 39.5623 40.066 38.4511 43.3997C37.9572 42.9058 37.4633 42.412 36.9694 41.7946Z" fill="#353A3F"/>
<path d="M60.923 147.61C63.5159 148.845 66.2323 150.079 67.5905 152.919C70.9242 157.611 70.5538 162.92 66.9732 166.871C63.1455 170.946 58.3301 171.81 54.1321 169.094C53.3913 168.724 52.28 168.106 52.7739 167.242C56.2311 161.315 53.1443 157.364 48.9463 153.66C50.9218 147.733 55.9842 147.733 60.923 147.61Z" fill="#41976C"/>
<path d="M34.376 121.681C35.1168 121.31 35.1168 120.693 35.2403 120.076C38.9444 125.015 41.7843 125.015 45.365 120.446C47.0936 119.705 47.5874 120.57 46.9701 121.928C46.2293 123.656 44.8711 124.891 42.8955 125.385C39.1914 126.249 36.2281 125.385 34.376 121.681Z" fill="#A8A8A8"/>
<path d="M156.984 157.117C159.083 160.821 154.885 161.562 153.774 163.908C150.563 163.538 149.329 160.574 147.353 158.599C146.118 157.364 147.6 156.376 148.341 155.389C149.823 153.537 151.428 152.302 153.774 153.907C154.885 155.018 155.873 156.006 156.984 157.117Z" fill="#DF4604"/>
<path d="M140.068 209.592C140.068 209.839 140.068 210.086 140.191 210.333C136.364 212.062 132.289 212.185 128.214 211.938C126.486 210.827 124.634 211.444 122.905 211.321C122.658 211.321 122.535 211.321 122.288 211.321C119.571 210.827 117.102 209.839 115.25 207.74C115.25 207.493 115.126 207.37 115.126 207.123C114.139 205.641 112.287 206.382 111.052 205.765C109.817 205.147 108.953 204.16 107.842 203.419C107.101 202.801 106.36 202.184 105.99 201.32C105.866 200.949 105.743 200.579 105.496 200.208C105.002 198.727 104.508 197.369 103.273 196.381C103.026 196.134 102.779 195.763 102.656 195.393C102.532 194.776 102.656 194.282 103.15 193.788C106.36 193.294 107.842 190.578 109.941 188.726C111.669 188.726 112.04 190.331 112.781 191.442C112.781 191.812 112.781 192.183 112.534 192.553C111.916 193.418 111.175 194.035 110.435 194.652C108.089 196.504 107.842 198.48 110.064 200.702C112.534 203.048 114.386 201.937 115.991 199.715C116.485 199.097 116.855 198.233 117.472 197.616C117.843 197.369 118.213 197.369 118.584 197.369C119.571 199.097 123.029 197.863 122.905 200.949C121.177 201.937 118.954 202.307 117.966 205.147C120.189 203.789 121.424 202.061 123.029 200.702C125.498 200.826 127.844 200.702 130.314 200.579C133.4 200.949 136.487 199.838 139.574 199.962C140.932 200.208 141.92 201.073 142.661 202.184C143.278 205.147 140.685 206.259 139.08 207.74C136.487 210.21 140.809 208.481 140.068 209.592Z" fill="#611D0A"/>
<path d="M54.0088 169.094C57.9598 170.205 61.664 169.958 64.8743 167.242C69.0723 163.784 69.9366 159.339 67.5906 152.795C68.5784 152.919 69.1958 153.536 69.5662 154.401C71.1713 156.623 69.5662 159.216 70.1835 161.562C69.4427 159.339 70.1835 157.981 72.5295 157.487C74.3816 157.24 75.8632 158.105 77.3449 159.092C79.0735 160.945 79.3204 163.414 79.5674 165.76C79.4439 166.13 79.197 166.501 78.95 166.748C76.3571 166.748 76.1102 164.278 74.9989 162.797C73.7642 161.315 72.8999 160.945 72.0356 163.167C70.554 166.871 68.208 169.711 64.8743 171.934C62.8987 174.403 64.7508 175.391 66.6029 175.638C73.3938 176.378 80.1847 175.885 86.8522 174.033C88.4573 173.662 88.3339 172.551 87.9635 171.316C87.4696 170.081 86.7287 169.094 86.8522 167.735C86.9757 167.365 87.0992 166.995 87.3461 166.624C88.2104 166.13 88.9512 166.624 89.5686 166.995C91.1737 168.353 91.6676 166.871 92.285 165.76C92.5319 165.39 92.9023 165.266 93.2727 165.019C94.7544 164.649 96.3595 164.649 97.8412 165.266C98.7055 165.76 99.1994 166.501 99.4463 167.365C100.064 171.193 99.4463 175.144 99.8167 179.095C99.4463 181.935 101.298 184.651 99.9402 187.491C99.3228 188.355 98.4585 188.849 97.3473 189.096C85.741 189.59 74.2581 189.22 62.6518 189.343C61.5405 189.343 60.4293 189.096 59.4415 188.355C59.0711 187.861 59.0711 187.491 59.4415 186.997C61.1701 185.762 63.2691 186.009 65.2447 186.009C74.2581 186.009 83.1481 186.009 92.1615 186.009C94.0136 186.009 95.9891 186.133 96.483 183.663C97.3473 179.959 95.7422 178.231 92.038 178.601C90.3094 178.848 88.7043 179.342 86.9757 179.589C85.1236 179.836 83.2715 180.33 81.6664 178.971C76.3571 177.613 70.9244 178.724 66.2324 178.354C70.9244 178.478 76.1102 178.231 81.296 178.478C81.9133 180.7 80.0613 180.577 78.8266 180.7C74.3816 181.07 69.9366 181.07 65.4916 180.7C61.7875 180.33 59.8119 177.737 58.3303 174.65C57.9598 173.292 56.6017 172.798 55.7374 172.057C55.12 172.057 54.7496 170.946 54.0088 171.934C53.6383 171.687 53.2679 171.44 53.021 171.193C52.774 170.946 52.774 170.822 52.8975 170.575C53.021 170.452 53.021 170.328 53.1445 170.328C53.3914 169.711 53.7618 169.464 54.0088 169.094Z" fill="#28533A"/>
<path d="M44.5008 171.563C45.1182 171.687 45.6121 171.687 46.2294 171.81C42.8957 173.168 39.5619 173.292 36.1047 172.057C38.8211 170.452 41.661 171.44 44.5008 171.563Z" fill="#3E8C64"/>
<path d="M44.5009 171.563C41.661 171.687 38.9446 171.934 36.1048 172.057C35.8578 171.934 35.4874 171.934 35.2405 171.81C37.463 169.588 40.3028 171.193 42.7722 170.699C43.3896 171.07 43.8835 171.317 44.5009 171.563Z" fill="#193224"/>
<path d="M53.1435 170.082C53.267 170.329 53.1435 170.699 53.02 170.946C50.674 170.205 48.575 171.069 46.3525 171.81C48.0811 168.723 50.5506 169.094 53.1435 170.082Z" fill="#3E8C64"/>
<path d="M108.089 202.802C109.694 202.925 110.312 204.16 111.176 205.271C110.929 206.382 110.188 207.37 109.2 207.864C98.3348 206.876 87.4693 207.37 76.6038 207.617C77.2211 207.247 77.715 206.876 78.4559 206.382C76.2334 205.271 73.3935 207 71.418 205.148C76.8507 203.543 82.2835 201.937 87.9632 203.049C91.1734 203.79 94.5072 204.16 97.594 203.049C101.051 201.814 104.632 203.913 108.089 202.802Z" fill="#727171"/>
<path d="M109.077 207.864C109.447 206.753 109.818 205.641 111.052 205.271C112.658 205.147 114.386 205.024 115.004 207.123C112.905 206.629 111.299 207.493 109.818 208.852C109.571 208.481 109.324 208.234 109.077 207.864Z" fill="#1A1815"/>
<path d="M59.1939 187.367C60.552 188.602 62.1572 188.108 63.7623 188.108C75.1217 188.108 86.6046 188.108 97.964 188.108C99.5691 188.602 100.804 189.466 101.421 190.948C101.915 192.183 102.903 193.664 100.557 194.158C97.8405 192.306 94.8772 191.812 91.6669 191.812C83.3943 191.936 75.1217 191.812 66.7256 191.812C65.9848 191.812 65.244 191.689 64.6266 191.812C63.1449 192.059 61.0459 191.565 61.0459 193.788C60.9225 196.134 63.0215 195.763 64.5031 196.01C65.1205 196.134 64.3797 196.01 64.8736 196.01C75.7391 196.01 86.6046 196.01 97.4701 196.01C98.9517 196.01 100.31 195.763 101.668 195.393C102.162 195.269 102.656 195.393 103.15 195.64C104.384 196.998 104.631 199.097 106.483 199.961C106.483 200.332 106.483 200.702 106.483 201.196C105.125 202.307 103.52 202.184 101.915 202.184C89.5679 202.431 77.2207 202.184 64.997 202.307C63.0215 202.307 60.9225 202.431 59.3173 200.949C57.2183 200.579 57.7122 198.85 57.7122 197.615C57.7122 194.158 57.7122 190.701 57.7122 187.367C58.0826 186.626 58.7 186.75 59.1939 187.367Z" fill="#274248"/>
<path d="M59.1938 200.949C74.8747 200.826 90.6791 200.332 106.36 201.196C106.854 201.69 107.471 202.308 107.965 202.801C108.089 203.542 108.336 204.16 108.459 205.147C103.767 203.666 99.1987 203.419 94.6302 205.147C94.1363 205.394 93.3955 205.518 92.9016 205.394C85.6168 202.678 78.3319 205.394 71.0471 205.394C67.096 204.654 63.2684 203.419 59.5643 205.888C58.8234 204.036 59.0704 202.555 59.1938 200.949Z" fill="#CFCFCF"/>
<path d="M66.1084 219.964C63.639 219.964 62.4042 218.977 62.5277 216.631C62.6512 214.778 62.5277 212.926 62.5277 211.074C62.6512 207 64.6267 205.518 68.5778 207.123C69.936 207.741 73.7636 206.629 72.1585 210.58C70.8003 214.038 71.2942 218.977 66.1084 219.964Z" fill="#57A880"/>
<path d="M59.1941 187.368C58.7002 187.368 58.0829 187.368 57.589 187.368C55.9839 182.305 55.49 177.12 55.8604 171.81C56.9716 171.934 58.4533 171.316 59.1941 172.798C58.2063 176.255 58.7002 179.712 59.3176 183.17C59.5645 184.528 60.3054 185.886 59.3176 187.244L59.1941 187.368Z" fill="#3B644E"/>
<path d="M116.115 218.853C115.127 215.766 114.016 212.803 113.028 209.716C112.164 206.753 114.016 208.358 115.004 208.605C117.844 208.852 119.943 211.074 122.659 211.198C122.659 212.185 122.659 213.173 122.783 214.161C123.029 220.335 122.042 220.952 116.115 218.853Z" fill="#58B285"/>
<path d="M122.782 211.321C119.818 211.692 117.472 210.087 115.126 208.728C115.126 208.481 115.126 208.111 115.126 207.864C117.719 208.975 120.312 210.087 122.782 211.321Z" fill="#4A5747"/>
<path d="M115.003 95.0109C115.003 95.3813 115.127 95.7517 115.127 96.1221C115.127 96.3691 115.127 96.7395 115.003 96.9864C113.522 103.407 113.522 103.407 108.089 99.7028C106.113 98.3446 104.138 96.9864 101.668 95.3813C101.051 98.3446 99.4459 100.691 97.8408 102.79C96.3591 101.061 94.6305 100.32 92.408 100.32C90.309 100.444 88.21 99.9497 86.3579 98.962C85.9875 98.715 85.864 98.3446 85.7405 97.9742C85.9875 97.4803 86.4814 97.1099 87.3457 96.9864C86.3579 97.2334 85.864 97.7273 85.3701 98.0977C84.2589 98.4681 83.2711 98.4681 82.5303 97.4803C82.5303 96.863 82.5303 96.3691 82.5303 95.7517C85.4936 94.517 85.3701 90.6894 87.963 89.2077C91.2968 88.7138 93.1488 90.9363 95.1244 92.9119C97.4703 95.2578 98.4581 95.1343 99.9398 92.171C100.804 90.5659 101.298 88.7138 103.767 88.9608C106.484 89.5781 107.842 92.2945 110.188 93.2823C111.546 94.8874 113.398 94.517 115.003 95.0109Z" fill="#42986C"/>
<path d="M109.076 154.524C108.459 154.524 107.842 154.524 107.224 154.401C107.595 152.549 107.595 151.191 104.878 151.314C99.816 151.561 94.8772 151.191 89.8148 151.438C82.9004 151.808 76.233 150.45 69.5655 148.474C68.3308 147.24 66.6022 146.128 67.8369 144.029C70.9237 145.017 74.1339 146.005 77.2207 146.993C79.8136 148.845 81.6657 145.758 84.0117 146.005C84.876 147.116 86.3576 147.61 87.4689 147.487C98.8283 146.993 110.435 150.079 121.547 145.387C122.164 145.141 122.905 145.141 123.646 145.017C124.51 144.523 125.375 144.647 126.239 144.77C126.609 145.141 126.609 145.511 126.486 146.005C124.14 147.487 121.424 148.474 118.707 149.092C116.608 149.586 114.88 150.82 113.274 152.302C111.916 153.166 111.175 155.018 109.076 154.524Z" fill="#234B33"/>
<path d="M84.1359 145.881C82.0369 147.733 79.9379 148.968 77.345 146.869C79.8144 146.992 82.0369 147.116 80.4318 143.412C79.3205 140.819 80.1848 137.979 82.1604 136.374C85.4941 133.781 86.6053 130.2 87.4696 126.496C88.334 123.039 89.5687 123.286 91.6677 125.385C94.0136 127.607 96.977 129.336 98.7056 132.176C97.2239 132.052 96.73 134.151 95.1249 133.781C94.2606 132.299 93.1493 131.065 91.7912 129.953C91.2973 129.459 90.5564 128.966 90.0626 129.706C89.5687 130.571 89.8156 131.312 90.6799 131.805C91.6677 132.423 93.3963 131.929 93.5198 133.781C91.1738 134.275 88.8278 133.781 86.1115 133.534C87.0992 135.263 88.334 134.769 89.1983 134.769C103.027 134.769 116.856 134.769 130.561 134.769C132.043 134.769 134.142 133.904 134.636 136.497C132.413 135.757 130.191 135.51 127.845 135.51C115.374 135.633 102.904 135.51 90.433 135.51C83.2716 135.51 80.9257 139.09 84.1359 145.881Z" fill="#28583D"/>
<path d="M129.573 112.421C126.856 111.556 125.745 109.828 126.115 106.988C126.362 104.765 126.239 102.543 126.239 100.32C128.585 100.691 131.054 99.4561 133.153 101.185C132.412 102.172 131.054 102.049 130.19 102.79C128.955 103.901 128.832 105.259 129.326 106.617C129.82 108.099 131.054 107.482 132.165 107.358C135.87 107.358 139.327 104.765 143.278 106.124C145.253 108.84 143.772 111.927 144.266 114.89C143.401 115.507 143.525 116.495 143.278 117.359C137.104 122.051 132.659 120.446 129.573 112.421Z" fill="#1B3C37"/>
<path d="M75.6166 115.754C74.5053 113.285 77.3452 109.951 73.8879 107.976C73.0236 105.63 74.8757 105.63 76.2339 105.259C82.531 106 88.7045 107.729 95.0016 108.963C95.8659 109.457 96.9771 110.075 96.3598 111.062C95.4955 112.544 94.0138 111.927 92.6556 111.556C91.174 111.556 90.4332 112.297 90.0627 113.779C88.7045 118.347 85.4943 120.199 80.8024 119.952C78.4564 119.335 75.8635 119.088 75.6166 115.754Z" fill="#183834"/>
<path d="M92.6552 111.556C93.643 111.186 95.1247 112.05 95.6185 110.815C95.989 109.951 94.8777 109.951 94.2604 109.704C92.7787 107.605 93.2726 105.383 93.5195 103.16C93.7665 102.296 93.7665 101.555 92.4083 101.432C90.6797 101.308 89.0745 101.679 87.4694 102.172C82.5305 102.296 77.5917 102.296 72.8998 100.444C72.6528 99.95 72.6528 99.5796 73.1467 99.2092C77.0978 97.9744 81.1724 99.0857 85.2469 98.7153C85.4939 98.7153 85.7408 98.7153 85.9878 98.5918C88.9511 98.8387 91.7909 99.8265 94.7542 99.5796C97.2237 99.3326 97.9645 100.938 97.9645 103.037C97.9645 104.889 97.9645 106.741 97.841 108.593C97.7176 112.421 96.8533 112.915 92.6552 111.556Z" fill="#2A6043"/>
<path d="M76.4798 106.247C75.3686 106.494 73.8869 106.247 73.8869 107.975C68.3307 107.234 65.9847 103.654 67.9603 98.5915C68.7011 96.7394 70.1828 96.6159 71.7879 96.7394C75.3686 96.9863 78.8258 98.221 82.4065 97.6037C83.5177 97.6037 84.7524 97.6037 85.8637 97.7271C85.8637 97.9741 85.9871 98.221 85.9871 98.468L85.7402 98.7149C81.5421 99.7027 77.2206 98.3445 73.0226 99.4557L72.8991 99.7027C71.7879 101.802 72.2818 103.16 74.3808 104.148C75.3686 104.395 76.6033 104.765 76.4798 106.247Z" fill="#2A6043"/>
<path d="M75.616 115.754C76.8507 117.853 79.0732 118.594 80.9252 119.952C76.3568 120.323 74.1343 124.397 70.6771 126.373C69.9363 126.743 69.3189 127.484 68.5781 127.854C67.8373 128.225 66.973 128.966 66.3556 127.854C65.9852 127.237 66.2321 126.496 66.726 125.879C69.6893 122.545 71.9118 118.594 75.616 115.754Z" fill="#479C6E"/>
<path d="M87.5926 90.0721C87.0987 91.5538 86.6048 92.912 85.864 94.2701C85.1232 95.6283 84.3823 97.11 82.4068 95.9988C81.5425 93.2824 79.1965 91.3068 78.7026 88.3435C79.32 88.5904 80.0608 88.9609 80.6782 89.2078C81.9129 92.2946 83.518 92.7885 85.7405 89.9486C86.3579 89.4548 86.9752 89.5782 87.5926 90.0721Z" fill="#384831"/>
<path d="M43.5129 118.594C43.019 119.952 42.2782 121.187 40.673 121.434C39.4383 121.558 38.9444 120.693 38.2036 119.952C37.5863 119.212 37.5863 118.471 38.0801 117.606C39.0679 116.001 40.4261 116.372 41.9078 116.866C42.4017 117.36 42.8955 117.977 43.5129 118.594Z" fill="#E9E7E8"/>
<path d="M126.486 145.14C125.498 145.14 124.634 145.017 123.646 145.017C127.721 142.671 132.289 143.659 136.611 143.412C134.018 145.634 130.56 142.918 127.968 145.14C127.474 145.511 126.98 145.511 126.486 145.14Z" fill="#3F624E"/>
<path d="M122.782 129.583C122.782 129.83 122.659 130.077 122.659 130.324C119.202 130.324 115.868 130.324 112.411 130.447C110.188 130.447 108.953 129.46 108.089 127.608C107.225 125.632 107.719 123.533 109.2 122.545C112.287 120.57 112.658 117.853 112.534 114.767C112.534 113.655 112.534 112.421 113.892 111.927C115.004 111.556 115.621 112.544 116.485 113.038C119.819 115.014 119.202 119.582 122.041 121.804C121.671 122.422 120.93 122.669 120.313 122.916C118.831 123.533 117.473 124.521 117.843 126.373C118.09 128.225 119.572 128.348 121.054 128.595C121.671 128.719 122.412 128.966 122.782 129.583Z" fill="#41986C"/>
<path d="M122.782 129.583C120.806 128.966 118.09 131.065 116.855 127.978C115.25 124.274 117.102 122.175 122.041 121.804C125.992 123.039 124.51 126.002 124.387 128.595C123.893 128.966 123.399 129.213 122.782 129.583Z" fill="#58B185"/>
<path d="M112.41 192.43C112.41 192.059 112.534 191.813 112.534 191.442C111.67 188.973 108.212 186.997 110.805 183.663C112.657 184.651 114.016 184.651 115.744 182.923C122.659 175.761 129.82 168.847 136.734 161.809C138.093 160.451 139.08 158.969 139.698 157.24C139.945 156.87 140.315 156.87 140.685 156.994C146.118 157.117 147.97 162.426 151.921 164.896C152.415 166.377 152.539 167.983 153.773 169.217C154.638 170.452 154.885 172.057 155.625 173.415C156.984 177.119 156.984 180.7 155.255 184.157C155.008 184.528 154.638 184.775 154.144 184.898C151.181 183.17 154.144 180.453 152.539 177.49C144.39 185.269 136.611 193.294 128.832 201.073C127.35 201.32 126.61 200.332 125.869 199.344C125.622 197.122 127.474 196.134 128.709 194.776C135.129 188.232 141.673 181.811 148.094 175.267C149.081 174.28 150.44 173.539 150.687 171.193C141.426 181.07 131.549 189.343 123.399 199.344C121.794 198.357 119.942 198.357 118.337 197.492C117.967 197.492 117.596 197.492 117.349 197.616C117.226 197.492 116.979 197.492 116.855 197.492C115.127 196.258 113.645 194.776 112.41 193.047C112.534 192.8 112.534 192.677 112.41 192.43Z" fill="#493A2C"/>
<path d="M133.278 146.005C135.377 146.745 137.723 146.869 139.945 146.992C141.18 147.116 142.661 147.486 143.032 148.844C143.526 150.326 141.797 150.573 141.18 151.314C140.315 152.425 139.204 153.289 138.216 154.401C138.093 154.524 137.969 154.771 137.846 154.895C137.229 155.142 136.611 155.142 135.994 155.018C133.154 154.648 130.314 154.648 127.474 155.142C127.104 155.142 126.61 155.142 126.24 155.018C124.388 153.907 125.128 152.549 125.993 151.437C127.968 149.091 129.944 146.622 133.278 146.005Z" fill="#DA4609"/>
<path d="M133.278 146.005C131.179 147.98 128.956 149.956 126.857 151.932C126.116 152.672 124.881 153.413 126.24 154.648C126.487 155.018 126.363 155.389 126.116 155.759C125.375 156.253 124.635 156.253 123.77 156.253C122.536 155.759 121.177 156.253 119.943 155.512C119.696 153.166 121.795 152.302 122.906 150.82C123.894 149.586 125.746 148.845 125.622 146.869C125.622 146.499 125.746 146.128 125.993 145.881C125.993 145.634 126.116 145.388 126.116 145.141C126.61 145.141 127.104 145.141 127.721 145.017C128.833 145.264 130.067 145.511 131.179 145.758C132.043 145.881 132.66 145.881 133.278 146.005Z" fill="#6B1E05"/>
<path d="M143.649 156.129C142.414 156.129 141.673 155.512 141.92 154.894C142.785 152.549 144.39 150.82 146.859 150.326C147.6 150.203 148.588 150.696 148.217 151.437C147.23 153.536 145.501 155.141 143.649 156.129Z" fill="#C32F04"/>
<path d="M140.809 156.994C140.562 156.994 140.192 157.117 139.945 157.117C139.451 157.611 138.834 157.858 138.093 157.858C136.858 157.735 135.994 157.117 136.117 155.759C136.488 154.771 137.723 155.265 138.093 154.401C139.822 154.648 140.933 155.265 140.809 156.994Z" fill="#2F1710"/>
<path d="M93.642 133.781C92.5308 133.658 91.4195 133.411 90.3083 133.287C89.197 133.164 88.2093 132.917 88.4562 131.559C88.7031 130.2 88.9501 128.595 89.8144 127.608C90.6787 126.62 91.7899 127.978 92.1604 128.595C93.1481 130.324 96.7288 130.447 95.2471 133.658C94.7533 133.658 94.1359 133.781 93.642 133.781Z" fill="#CCBA62"/>
<path d="M143.401 106.247C139.574 107.111 135.746 107.852 131.918 108.84C130.437 109.21 128.461 110.445 128.338 107.852C128.214 105.629 126.609 102.543 130.313 101.431C131.178 101.184 132.289 101.308 133.277 101.184C136.61 100.937 140.068 100.567 143.401 100.32C144.636 100.197 146.365 99.0853 146.859 101.308C147.229 103.283 146.982 105.012 144.513 105.506C144.019 105.629 143.772 106 143.401 106.247Z" fill="#41966A"/>
<path d="M115.003 95.0109C112.904 96.9864 111.422 95.7517 109.94 94.2701C109.94 92.7884 110.681 92.9119 111.669 93.4058C113.891 92.6649 113.521 90.4424 114.138 88.8373C115.003 86.6148 115.867 85.6271 118.089 87.3557C120.312 89.0843 122.534 90.6894 124.757 92.2945C127.35 93.7762 128.708 93.2823 128.584 90.072C128.461 88.0965 128.337 85.9975 131.424 87.3557C132.042 87.7261 132.659 87.973 133.276 88.3434C133.276 88.9608 133.276 89.4547 133.276 90.072C130.436 89.4547 129.819 90.9363 129.819 93.2823C129.819 96.2456 128.461 96.7395 125.992 95.1344C124.386 94.0231 122.658 93.0354 121.053 91.9241C116.237 88.8373 115.62 89.0843 115.003 95.0109Z" fill="#3C301C"/>
<path d="M87.5921 90.0721C86.9748 90.0721 86.3574 90.0721 85.8635 90.0721C86.2339 86.8619 87.3452 85.3802 90.432 87.9731C91.9136 89.2078 93.7657 90.1956 95.0004 91.6773C97.3464 94.5171 98.4576 93.2824 99.4454 90.813C100.557 90.3191 100.063 88.5905 101.297 88.2201C102.779 87.7262 104.508 86.9854 104.014 89.8252C101.297 89.4548 101.297 91.8007 100.68 93.4059C99.4454 96.4927 97.8403 96.8631 95.3708 94.6406C93.0249 92.665 91.0493 89.9487 87.5921 90.0721Z" fill="#32311E"/>
<path d="M103.892 89.8253C101.422 85.8742 100.928 90.813 99.3232 90.813C100.434 85.7507 101.299 85.5037 105.373 88.4671C107.472 90.0722 109.571 91.8008 111.67 93.4059C111.053 93.6529 110.559 93.8998 109.942 94.2702C107.596 93.2825 105.867 91.4304 103.892 89.8253Z" fill="#3D331B"/>
<path d="M131.425 87.3559C128.956 87.1089 128.956 88.8375 128.956 90.6896C128.956 94.7642 127.227 94.3937 124.758 92.4182C127.597 93.406 128.091 91.9243 128.091 89.4549C128.091 87.1089 128.585 85.3803 131.425 87.3559Z" fill="#4A3720"/>
<path d="M139.204 94.0231C139.821 93.0353 140.686 92.418 141.797 92.418C142.785 93.0353 143.896 94.27 143.032 95.1343C141.674 96.616 140.562 94.3935 139.204 94.0231Z" fill="#181B13"/>
<path d="M69.6897 148.474C72.5295 146.499 74.752 149.092 77.2215 149.585C85.4941 151.067 93.7667 150.079 102.039 150.326C104.756 150.45 107.472 150.326 110.929 150.326C109.324 152.055 108.213 153.29 107.225 154.524C106.731 155.018 106.114 155.636 105.62 156.13C101.175 155.636 96.73 154.524 92.1615 155.512C88.087 156.376 84.0124 154.895 79.9378 155.389C75.7398 154.03 73.0234 150.82 69.6897 148.474Z" fill="#42986C"/>
<path d="M126.239 145.881C126.239 146.252 126.239 146.499 126.239 146.869C117.72 154.895 109.447 163.044 101.298 171.317C99.5694 173.786 102.78 173.539 103.15 174.774C102.903 176.749 101.298 177.737 99.9398 178.848C99.5694 178.972 99.199 178.972 98.8286 178.725C98.2112 175.021 98.5817 171.44 98.7051 167.736C99.9398 166.131 98.8286 163.661 100.681 162.303C101.051 161.809 101.545 161.562 102.162 161.562C102.409 161.562 102.78 161.562 103.027 161.686C104.755 162.797 105.62 161.192 106.607 160.328C109.447 157.611 112.164 154.648 115.374 151.808C114.139 152.549 113.275 153.043 112.287 152.178C115.868 147.363 121.424 147.363 126.239 145.881Z" fill="#631C06"/>
<path d="M79.9375 155.265C80.3079 153.043 81.7896 153.66 83.1478 153.907C86.4815 154.648 89.8152 154.648 93.2724 153.783C97.347 152.796 101.298 155.142 105.373 154.277C105.496 154.771 105.496 155.389 105.62 155.882C102.903 158.722 99.3225 158.599 95.7419 158.599C90.1856 158.722 84.7529 158.105 79.9375 155.265Z" fill="#52A87E"/>
<path d="M102.286 161.439C102.039 161.81 101.792 162.057 101.421 162.427C98.3345 165.267 94.5068 164.279 90.9262 164.032C89.4445 163.909 87.9628 163.415 86.3577 163.415C85.3699 163.415 84.5056 163.291 83.5179 163.044C81.1719 162.18 78.9494 161.192 77.0973 159.587C75.7391 158.97 74.381 158.352 73.0228 157.735C72.035 157.612 70.9237 157.735 71.1707 156.13C71.4176 154.895 70.0594 151.561 73.3932 153.907C81.0484 159.464 89.568 161.069 98.7049 160.328C100.063 160.451 101.421 160.204 102.286 161.439Z" fill="#9D8063"/>
<path d="M112.411 151.932C114.387 152.179 115.251 149.709 118.214 150.203C113.522 154.772 109.448 159.217 105.003 163.168C103.027 164.896 103.274 162.674 103.274 161.439C105.25 159.093 107.225 156.871 109.201 154.525C110.189 153.66 111.3 152.796 112.411 151.932Z" fill="#9E3908"/>
<path d="M71.171 156.253C71.7883 156.747 72.4057 157.364 73.0231 157.858C71.5414 158.969 69.4424 159.71 69.4424 162.179C69.4424 159.587 69.4424 157.117 69.4424 154.524C70.0597 155.142 70.6771 155.635 71.171 156.253Z" fill="#1D3425"/>
<path d="M66.9731 148.227C64.6271 146.745 62.1577 146.252 62.775 143.165C65.2445 144.4 65.2445 144.4 66.9731 148.227Z" fill="#977B63"/>
<path d="M160.688 167.489C163.898 167.736 163.034 170.329 163.404 172.304C163.898 174.403 164.269 176.379 163.775 178.478C163.528 178.725 163.281 178.972 163.034 179.219C161.799 181.688 160.317 183.91 157.972 185.392C157.231 185.886 156.366 186.133 155.626 185.639C154.885 185.145 155.008 184.404 155.255 183.787C156.737 180.7 156.49 177.49 155.749 174.28C155.379 172.798 156.243 171.81 157.231 171.069C158.712 170.082 159.824 168.847 160.688 167.489Z" fill="#EB4903"/>
<path d="M157.355 170.946C156.614 172.675 156.737 174.403 156.984 176.379C157.355 179.219 157.725 182.306 155.873 185.145C159.207 184.034 160.688 181.071 163.158 179.342C162.294 181.812 166.368 182.923 164.887 185.516C164.393 186.133 163.775 186.751 163.281 187.368L163.034 187.121C162.417 186.133 161.923 185.145 160.565 186.627C159.33 187.862 158.343 189.714 155.997 189.097C155.009 187.862 153.404 186.751 154.638 184.775C155.009 181.071 156.49 177.367 154.638 173.663C154.515 172.428 155.132 171.44 156.244 170.946C156.737 170.823 157.108 170.946 157.355 170.946Z" fill="#752911"/>
<path d="M154.761 169.094C154.391 166.995 157.354 162.18 159.206 161.933C159.576 161.933 160.07 162.056 160.194 162.303C160.811 163.044 160.811 164.032 160.194 164.649C158.465 166.378 157.477 168.847 154.761 169.094Z" fill="#C12D02"/>
<path d="M156.366 170.823C155.872 171.687 155.255 172.675 154.761 173.539C153.279 172.304 154.144 170.699 153.897 169.217C154.144 169.217 154.514 169.094 154.761 169.094C155.008 169.958 155.625 170.576 156.366 170.823Z" fill="#2D130C"/>
<path d="M156.367 188.849C159.083 187.738 160.194 184.775 162.787 183.417C163.898 184.528 163.158 185.763 163.158 186.997C156.243 193.912 149.452 200.826 142.538 207.741C141.673 208.358 140.933 208.975 140.068 209.716C138.834 209.469 137.722 210.951 136.241 209.963C137.475 206.876 141.303 205.765 142.414 202.678C146.365 197.369 150.934 192.554 156.367 188.849Z" fill="#CE3105"/>
<path d="M138.957 202.678C132.537 210.827 130.191 211.692 123.276 209.469C121.054 208.728 120.807 207.864 122.165 206.259C124.141 203.913 126.24 202.184 129.82 202.678C132.66 203.049 135.5 202.678 138.957 202.678Z" fill="#DF4605"/>
<path d="M117.596 197.616C117.843 200.95 115.374 203.049 113.028 203.296C109.941 203.666 107.471 200.456 107.101 197.986C106.731 195.27 109.57 193.294 112.41 192.43V192.307C113.892 194.406 115.744 196.134 117.596 197.616Z" fill="#E64704"/>
<path d="M156.367 188.849C151.922 193.665 147.6 198.603 142.538 202.678C141.303 202.801 141.056 201.443 140.192 200.949C139.821 199.962 140.315 199.344 140.933 198.727C146.612 195.27 150.44 190.084 153.897 184.651C154.268 184.651 154.515 184.651 154.885 184.651C155.255 186.009 155.749 187.367 156.367 188.849Z" fill="#492418"/>
<path d="M110.065 188.973C108.336 191.442 107.719 195.393 103.15 194.035C102.533 193.541 102.533 192.924 102.656 192.307C104.508 189.961 105.99 187.244 109.324 186.874C110.435 187.244 110.559 187.985 110.065 188.973Z" fill="#C02D06"/>
<path d="M110.065 188.973C109.694 188.479 109.447 187.862 109.077 187.368C107.842 186.874 107.348 185.763 107.225 184.651C107.101 183.787 107.101 182.799 107.101 181.811C107.101 181.564 107.101 181.194 107.101 180.947C107.472 178.972 106.237 175.761 108.706 175.638C110.682 175.514 109.941 178.848 110.435 180.7C110.682 181.688 111.67 182.429 111.917 183.417C111.917 183.664 111.793 183.787 111.793 184.034C108.583 186.874 113.398 188.973 112.534 191.689C110.682 191.689 111.052 189.59 110.065 188.973Z" fill="#3C1B0F"/>
<path d="M126.24 199.221C127.598 199.097 127.968 200.579 129.079 200.826C129.45 200.703 129.697 200.703 129.944 200.95C130.067 201.32 130.067 201.567 129.697 201.814C127.474 201.32 124.881 203.172 122.782 200.95C122.165 199.591 121.177 199.097 119.696 199.468C117.844 199.838 118.708 198.357 118.461 197.616C120.313 197.616 122.536 196.752 123.523 199.344C124.511 198.604 125.375 198.48 126.24 199.221Z" fill="#371F14"/>
<path d="M122.906 200.95C122.536 203.666 120.19 204.654 118.585 206.383C118.091 206.877 117.35 206.877 116.732 206.259C116.115 205.642 115.992 204.901 116.609 204.407C118.338 202.802 119.325 199.592 122.906 200.95Z" fill="#C32E06"/>
<path d="M103.151 192.43C103.151 192.924 103.151 193.418 103.151 193.912C103.151 194.529 103.151 195.147 103.151 195.641C102.904 195.641 102.533 195.641 102.286 195.641C101.422 195.394 101.052 194.9 101.299 193.912C101.916 190.949 98.8291 190.084 97.9648 187.862C98.4587 187.615 99.0761 187.245 99.57 186.998C100.558 187.245 100.928 187.985 101.546 188.726C101.792 188.973 101.916 189.22 102.163 189.59C102.657 190.578 103.768 191.196 103.151 192.43Z" fill="#232221"/>
<path d="M129.696 201.814C129.696 201.567 129.696 201.197 129.696 200.95C133.276 199.591 136.857 197.863 140.808 199.221C140.561 199.715 140.191 200.332 139.944 200.826C136.61 201.197 133.276 202.308 129.696 201.814Z" fill="#493A2C"/>
<path d="M106.361 200.085C103.768 199.838 102.657 198.357 103.027 195.764C105.867 195.887 105.496 198.48 106.361 200.085Z" fill="#232221"/>
<path d="M59.1945 187.121C57.7129 183.417 57.219 179.466 57.4659 175.514C57.4659 174.28 56.972 172.798 59.071 172.798C60.3058 177.737 63.3925 179.959 68.4549 179.589C72.7764 179.219 77.2214 180.206 81.5429 178.725C85.3705 179.095 88.8277 177.49 92.5319 177.12C95.1248 176.873 97.7177 176.502 97.7177 180.577C97.8411 187.244 98.0881 187.244 93.5196 187.244C82.1602 187.244 70.6774 187.121 59.1945 187.121Z" fill="#57B285"/>
<path d="M87.5928 166.624C86.852 169.588 92.7786 172.551 88.5806 174.774C86.1112 176.132 82.2835 176.379 79.0733 176.626C74.9987 176.996 70.8007 176.749 66.6026 176.749C64.6271 176.749 63.3924 175.638 62.6515 174.033C61.7872 172.181 63.1454 171.563 64.5036 170.946C69.8129 172.304 74.9987 172.551 80.1845 170.699C82.2835 170.205 82.7774 168.476 83.5183 166.748C84.506 164.032 86.1112 163.661 87.5928 166.624Z" fill="#44996E"/>
<path d="M80.8017 170.823C78.2088 174.156 74.2577 173.292 71.0474 173.168C69.0719 173.045 65.8616 174.033 64.5034 170.946C67.7137 168.724 70.3066 166.007 71.2944 162.18C71.5413 161.315 71.1709 159.957 72.6525 159.957C73.7638 159.957 74.7516 160.574 75.4924 161.562C76.7271 163.291 76.9741 165.637 78.9496 166.748C80.1843 167.736 81.0486 168.97 80.8017 170.823Z" fill="#57B185"/>
<path d="M80.8016 170.822C80.1843 169.464 78.8261 168.477 78.9495 166.748C78.9495 166.377 78.9495 166.131 78.9495 165.76C79.1965 165.513 79.5669 165.266 79.9373 165.266C80.5547 165.266 81.2955 165.637 81.9129 165.39C82.7772 164.525 80.9251 162.303 83.3945 162.179C84.2588 162.303 84.9996 162.303 85.8639 162.426C86.9752 163.167 88.9507 162.303 89.4446 164.155C89.815 165.513 88.7038 166.131 87.5926 166.624V166.748C85.8639 165.39 84.5058 164.649 84.0119 167.983C83.7649 169.217 83.8884 172.057 80.8016 170.822Z" fill="#3C4E30"/>
<path d="M87.5921 166.501C90.432 163.661 87.3452 163.291 85.8635 162.303C91.0493 162.303 96.2351 164.279 101.544 162.303C99.4454 163.414 102.409 167.119 98.828 167.489C98.4576 166.872 98.0872 166.131 97.7168 165.513C96.2352 164.402 94.7535 164.279 93.2718 165.513C93.1484 165.637 93.0249 165.637 92.7779 165.637C91.7902 166.501 90.5555 166.995 89.3207 167.242C88.7034 167.119 88.2095 166.872 87.5921 166.501Z" fill="#64593A"/>
<path d="M83.394 162.179C82.1593 163.661 84.6288 166.13 82.2828 167.365C81.542 166.748 82.0359 164.402 79.9368 165.76C79.5664 165.76 79.3195 165.76 78.9491 165.76C78.3317 163.784 77.8378 161.685 77.2205 159.71C79.4429 160.204 81.542 160.697 83.394 162.179Z" fill="#505034"/>
<path d="M95.0013 166.501C96.7299 168.106 96.8534 169.711 97.1003 171.193C97.2238 172.057 98.2116 173.292 96.7299 173.786C95.8656 174.033 94.6309 173.786 93.89 173.415C92.7788 172.798 93.7666 171.933 94.0135 171.193C94.2605 169.711 94.5074 168.353 95.0013 166.501Z" fill="#459D72"/>
<path d="M81.666 178.601C76.2332 178.601 70.924 178.601 65.4912 178.601C70.8005 178.231 76.2332 176.749 81.666 178.601Z" fill="#122E1E"/>
<path d="M101.421 189.714C100.31 189.22 100.187 187.985 99.5692 187.244C99.6927 184.404 98.0875 181.565 98.9518 178.601C99.1988 178.601 99.4457 178.601 99.8161 178.601C101.174 182.182 103.15 185.639 101.421 189.714Z" fill="#641C08"/>
<path d="M89.3213 167.489C89.5682 165.02 91.1734 165.637 92.7785 165.884C93.1489 167.242 92.5316 168.6 91.6673 169.218C90.556 169.711 89.9386 168.23 89.3213 167.489Z" fill="#DBC364"/>
<path d="M93.1489 165.637C92.9019 165.143 92.0376 164.155 93.0254 164.155C94.6306 164.155 96.9765 162.55 97.5939 165.637C96.1122 165.637 94.6305 165.637 93.1489 165.637Z" fill="#282E1C"/>
<path d="M101.297 194.035C101.668 194.652 101.915 195.146 102.285 195.764C102.038 197.616 100.68 197.492 99.4452 197.492C87.098 197.492 74.7508 197.369 62.5272 197.492C59.6873 197.492 59.3169 196.134 59.3169 193.788C59.3169 191.442 60.0577 190.454 62.5272 190.454C73.6396 190.578 84.8755 190.578 95.988 190.454C98.7044 190.578 99.8156 192.306 101.297 194.035Z" fill="#295B6A"/>
<path d="M85.8635 97.7273C86.9748 95.7517 88.4564 95.5048 90.6789 96.9864C88.9503 98.2211 87.3452 97.4803 85.8635 97.7273Z" fill="#59B387"/>
<path d="M138.093 116.618C135.377 116.989 132.907 115.754 133.154 113.285C133.401 110.074 137.105 110.445 139.451 109.827C141.18 109.333 142.662 110.198 142.538 112.297C142.415 114.89 141.303 116.989 138.093 116.618Z" fill="#295A69"/>
<path d="M76.4791 106.247C75.4913 105.136 74.1331 104.765 72.6515 104.518C70.7994 104.272 71.2933 102.666 70.9229 101.555C70.429 99.95 71.4168 99.5796 72.7749 99.5796C77.8373 100.444 83.0231 101.308 88.2089 101.308C90.3079 101.432 92.5304 100.567 94.259 102.173C94.259 104.642 94.259 107.235 94.1355 109.704C88.2089 109.334 82.5292 106.988 76.4791 106.247Z" fill="#41976B"/>
<path d="M78.0857 112.791C77.8388 110.445 78.95 109.457 81.049 109.827C83.5185 110.198 86.9757 109.457 87.4696 113.161C87.84 116.125 85.0001 116.989 82.7776 117.112C80.1847 117.236 78.3327 115.631 78.0857 112.791Z" fill="#295967"/>
<path d="M94.3836 102.049C92.4081 101.678 90.1856 102.666 88.3335 101.184C90.4325 99.4559 93.0254 99.9498 95.1244 100.444C96.7296 101.061 95.2479 101.802 94.3836 102.049Z" fill="#1B3422"/>
<path d="M73.0229 99.4558C77.221 97.6037 81.5425 99.0854 85.7405 98.715C81.5425 100.444 77.221 98.9619 73.0229 99.4558Z" fill="#163422"/>
<path d="M140.932 199.221C137.228 199.838 133.648 201.073 129.82 200.95C129.573 200.826 129.326 200.826 129.079 200.826C128.956 199.098 130.314 198.357 131.302 197.369C137.722 190.948 144.143 184.404 150.563 177.984C151.428 177.12 152.168 175.514 153.65 176.132C155.379 176.873 154.638 178.601 154.514 179.959C154.391 181.565 154.02 183.046 153.773 184.528C151.674 191.442 147.106 196.011 140.932 199.221Z" fill="#B0926F"/>
<path d="M150.564 166.378C149.947 167.118 149.576 167.859 148.959 168.477C147.848 169.711 146.613 171.069 145.378 172.057C143.403 173.662 142.045 177.49 139.328 176.379C137.476 175.638 136.488 172.551 134.019 171.44C132.908 170.946 134.142 169.711 134.76 169.094C137.106 166.748 139.328 164.402 141.798 162.18C142.785 161.315 143.65 159.34 145.255 160.451C147.23 161.809 149.453 163.538 150.564 166.378Z" fill="#B1916F"/>
<path d="M130.438 187.121C127.721 189.837 124.881 192.43 122.289 195.146C119.572 197.986 117.967 195.764 116.362 194.035C114.757 192.307 112.411 190.825 115.374 188.109C118.461 185.269 121.424 182.305 124.511 179.466C126.98 181.688 130.438 183.046 130.438 187.121Z" fill="#AF916E"/>
<path d="M138.463 157.24C138.957 157.24 139.451 157.24 139.945 157.117C141.426 158.846 140.192 159.957 139.08 161.068C130.931 169.094 122.906 177.243 114.756 185.268C114.016 186.009 113.275 187.491 112.04 186.627C111.176 186.009 111.67 184.775 111.793 183.787C112.04 182.305 113.028 181.317 114.139 180.33C120.93 173.539 127.844 166.624 134.635 159.833C135.747 158.722 136.981 157.734 138.463 157.24Z" fill="#967354"/>
<path d="M126.24 199.221C125.375 199.221 124.634 199.221 123.77 199.344C123.4 197.492 124.511 196.381 125.622 195.27C133.401 187.491 141.18 179.712 148.958 171.934C149.946 171.069 151.057 169.094 152.416 170.452C154.021 172.057 151.798 173.168 150.81 174.156C142.661 182.552 134.389 190.825 126.24 199.221Z" fill="#967452"/>
<path d="M127.968 176.008C129.944 173.662 132.29 172.551 135.006 174.65C137.599 176.626 137.352 179.219 135.747 181.811C133.648 183.787 131.178 184.281 128.832 182.429C126.487 180.7 126.487 178.354 127.968 176.008Z" fill="#B6BEC7"/>
<path d="M127.968 176.009C127.35 182.059 129.696 183.911 135.746 181.812C134.512 184.034 131.301 184.281 130.56 187.121C129.079 184.281 125.869 182.553 124.634 179.466C126.856 179.589 125.992 176.379 127.968 176.009Z" fill="#5F564B"/>
<path d="M117.596 197.616C115.003 196.752 113.274 195.023 112.41 192.43C114.633 193.665 116.361 195.394 117.596 197.616Z" fill="#611D0A"/>
<path d="M138.216 154.401C137.97 155.265 137.352 155.389 136.611 155.389C133.154 157.117 129.697 157.241 126.24 155.389C126.24 155.142 126.24 154.895 126.24 154.648C126.487 154.648 126.857 154.524 127.104 154.524C130.314 153.907 133.525 153.907 136.611 154.524C137.229 154.401 137.723 154.401 138.216 154.401Z" fill="#66220E"/>
<path d="M136.734 154.525C133.524 154.525 130.313 154.525 127.227 154.525C130.313 153.166 133.524 153.166 136.734 154.525Z" fill="#6B1E05"/>
<path d="M100.433 170.822C107.842 163.414 115.25 156.006 122.658 148.597C123.646 147.61 124.757 146.622 126.362 146.745C128.214 147.116 127.967 147.61 126.733 148.721C124.51 150.696 122.041 152.672 120.436 155.388C119.201 160.08 114.633 162.179 111.916 165.637C111.052 166.748 109.694 167.365 108.582 168.353C106.73 169.835 105.372 171.81 103.397 173.168C102.656 173.662 101.668 174.28 100.68 173.539C99.8159 172.798 99.9394 171.81 100.433 170.822Z" fill="#CD3105"/>
<path d="M126.239 155.389C129.697 155.389 133.154 155.389 136.611 155.389C136.611 156.623 137.352 157.117 138.463 157.241C129.82 166.254 120.93 175.268 111.793 183.787C111.052 183.17 110.435 182.552 109.694 181.935C109.818 181.688 109.818 181.565 109.941 181.318C117.102 173.169 125.375 166.131 132.783 157.858C129.573 156.253 126.239 159.34 123.523 157.117C123.276 156.5 123.276 155.883 123.77 155.389C124.634 155.389 125.498 155.389 126.239 155.389Z" fill="#493A2C"/>
<path d="M123.77 155.389C123.77 156.006 123.77 156.5 123.77 157.117C123.77 157.364 123.894 157.858 123.647 157.858C117.967 161.192 114.139 166.501 110.559 171.81C108.46 170.946 107.225 169.711 108.213 167.242C112.287 163.291 116.362 159.34 120.436 155.265C121.548 155.265 122.659 154.401 123.77 155.389Z" fill="#421C12"/>
<path d="M101.422 189.714C101.298 185.886 99.1994 182.429 99.8168 178.601C100.928 177.49 102.039 176.255 103.15 175.144C103.521 174.033 104.015 173.045 105.003 172.304C105.867 171.563 106.855 170.823 108.089 171.563C109.324 172.304 108.954 173.416 108.583 174.527C107.595 176.996 107.719 179.466 108.336 181.935C108.336 182.676 108.336 183.54 108.213 184.281C106.484 186.997 105.62 190.578 101.422 189.714Z" fill="#E04604"/>
<path d="M108.213 182.058C106.608 178.848 107.966 175.514 107.966 172.181C105.496 172.057 105.003 174.774 103.151 175.144C100.928 174.527 97.8412 174.403 100.558 170.822C100.558 172.675 100.805 174.28 103.027 172.304C104.756 170.699 106.484 168.97 108.213 167.365C108.336 169.217 109.818 170.205 110.435 171.687C111.794 175.144 111.547 178.478 109.941 181.811L109.695 181.935C108.336 180.206 109.571 177.984 108.089 176.132C108.213 178.107 108.213 180.083 108.213 182.058Z" fill="#681B05"/>
<path d="M101.422 189.714C104.632 189.097 105.867 186.133 108.089 184.528C108.46 185.516 108.706 186.38 109.077 187.368C107.101 189.097 105.126 190.825 103.15 192.554C102.533 191.566 102.039 190.578 101.422 189.714Z" fill="#641C08"/>
<path d="M79.9373 165.637C79.9373 164.772 79.1965 163.291 80.8016 163.414C83.3945 163.661 82.6537 165.637 82.4067 167.242C81.5424 166.748 80.6781 166.254 79.9373 165.637Z" fill="#D7CA6A"/>
<path d="M109.94 181.935C109.57 178.478 109.57 175.144 110.434 171.81C112.904 165.143 117.596 160.451 123.769 157.241C126.733 156.87 129.696 156.623 132.659 156.376C133.277 156.376 134.141 156.253 134.511 156.994C134.882 157.858 134.264 158.352 133.77 158.846C125.745 166.378 118.46 174.774 109.94 181.935Z" fill="#AE906E"/>
</g>
<defs>
<clipPath id="clip0">
<rect width="167.559" height="229.405" fill="white" transform="translate(0.383057 0.19873)"/>
</clipPath>
</defs>
</svg>
