<svg width="184" height="210" viewBox="0 0 184 210" fill="none" xmlns="http://www.w3.org/2000/svg">
<g clip-path="url(#clip0)" filter="url(#filter0_d)">
<path d="M151.008 190.892C150.875 191.956 150.078 192.621 149.149 192.754C142.775 193.818 137.066 196.878 130.825 198.075C126.311 199.006 121.664 198.075 117.149 199.272C111.971 200.603 106.793 200.337 101.482 200.204C95.1085 200.071 88.868 201.002 82.6275 201.002C67.0926 201.002 51.5577 200.603 36.0228 199.805C26.9939 199.405 17.8323 198.607 8.93626 196.346C7.87404 196.08 7.07738 195.282 6.14794 194.883C5.35128 194.484 4.28906 194.351 4.28906 193.153C4.28906 191.956 5.2185 191.291 6.28072 190.892C8.6707 190.227 10.7951 189.296 13.3179 188.897C18.4962 188.098 24.7367 189.163 27.2595 182.511C28.5872 183.709 28.1889 185.305 27.9234 186.768C27.6578 188.231 27.7906 189.429 29.2511 190.227C53.2838 190.626 77.3164 190.493 101.349 190.227C104.536 187.433 101.482 184.773 101.349 181.979C100.951 177.723 100.818 173.599 102.411 169.342C103.473 166.548 103.872 162.957 100.685 160.562C98.2951 156.04 98.1624 150.985 97.4985 146.063C97.3657 144.732 97.3657 142.87 99.4901 142.604C101.083 144.067 101.216 146.196 101.747 148.058C102.81 152.448 103.075 156.971 105.598 161.094C107.457 164.021 106.527 168.012 105.598 171.47C105.067 173.2 104.536 175.062 104.536 176.924C104.801 183.443 105.731 184.241 112.104 185.039C118.212 185.704 124.319 185.97 130.427 187.034C137.332 188.364 137.597 187.832 137.73 180.649C137.863 175.993 136.933 171.47 137.863 166.815C140.784 166.149 140.651 168.544 141.182 170.273C141.315 175.195 141.315 180.117 141.315 185.039C141.315 190.36 141.58 190.493 146.759 190.36C147.688 190.36 148.618 190.094 149.547 190.094C150.078 190.36 150.609 190.493 151.008 190.892Z" fill="#DCD7BF"/>
<path d="M31.7736 9.31353C35.2258 6.12094 37.483 9.7126 40.1385 10.9098C43.3252 12.6391 46.9102 10.6438 50.0968 11.841C48.769 14.2354 50.0968 15.2996 52.0885 16.4968C61.9139 22.4829 70.81 29.9323 79.4405 37.6477C80.2372 38.3129 81.0338 39.111 81.1666 40.3082C81.2994 41.2394 81.0338 42.0375 80.6355 42.8357C80.2372 43.6338 79.8388 44.432 79.0422 44.9641C77.7144 45.6292 76.3866 46.4274 74.7933 46.6934C72.5361 46.2943 71.0756 44.565 69.4822 43.2348C60.1879 35.1203 50.4951 27.4049 39.6074 21.2857C38.4124 20.6206 37.3502 19.6894 36.288 18.8913C30.5786 15.9647 29.9147 14.6345 31.7736 9.31353Z" fill="#696346"/>
<path d="M13.1847 133.425C13.3175 131.563 12.9192 130.1 11.1931 128.769C7.4753 125.976 6.41309 122.118 6.41309 117.462C6.67864 97.3757 6.54586 77.422 6.54586 57.3353C6.54586 54.8078 6.14753 52.0143 7.4753 49.6199C9.33418 51.0831 8.93585 53.2115 8.93585 55.2069C8.93585 64.7847 8.93585 74.3624 8.93585 83.9402C8.93585 85.8025 8.53752 87.6649 9.86529 89.2612C10.2636 89.6602 10.6619 89.9263 11.0603 90.4584C13.0519 93.518 12.7864 96.8436 11.9897 100.036C10.1308 102.564 10.9275 105.623 10.7947 108.417C10.6619 112.54 10.7947 116.531 10.6619 120.655C10.6619 121.054 10.6619 121.586 10.9275 121.985C11.7242 122.916 11.8569 121.985 11.8569 121.453C12.1225 119.99 11.7242 118.394 13.1847 117.329C13.8486 117.063 14.778 118.66 15.1764 116.93C15.5747 114.935 15.4419 113.073 15.7075 111.077C15.8402 109.614 15.1764 107.619 17.6991 107.219C18.363 107.752 18.7613 108.417 18.7613 109.082C18.7613 115.068 20.3547 121.054 19.6908 127.173C18.7613 129.302 15.4419 129.435 15.4419 132.361C14.9108 133.292 14.2469 133.957 13.1847 133.425Z" fill="#7E7D7A"/>
<path d="M113.033 23.9462C114.892 21.1527 117.017 22.0839 119.407 23.1481C126.444 26.2076 132.95 23.5471 135.473 16.7629C136.535 13.9694 136.402 11.3089 134.809 8.51536C133.348 5.98789 132.021 2.79531 136.004 0.79994C136.402 0.533891 136.933 0.533891 137.332 0.79994C137.597 1.19901 137.863 1.59809 137.863 2.13018C137.863 2.66228 137.863 3.06136 137.863 3.59345C137.73 5.18975 138.261 6.65302 138.925 7.98326C141.448 13.7033 140.386 19.0243 136.137 23.2811C131.888 27.4048 126.842 30.5974 120.469 27.8039C117.415 26.4737 115.955 27.4048 116.353 30.5974C116.884 34.4551 114.76 38.7119 118.212 41.9045C119.141 42.7026 120.469 43.3678 119.54 45.0971C115.158 47.4915 111.573 45.8952 110.378 40.9733C109.581 37.5147 109.714 34.0561 110.378 30.5974C111.042 29.1342 111.971 27.6709 112.237 25.9416C112.502 25.1434 112.768 24.4783 113.033 23.9462Z" fill="#746D50"/>
<path d="M9.73279 90.7245C6.8117 90.4585 7.74114 88.064 7.74114 86.4677C7.60836 74.2295 7.60836 61.9912 7.47559 49.753C8.67058 36.5836 15.9733 27.2718 26.0644 19.5564C28.4543 17.8271 32.3049 16.8959 29.6493 12.3731C28.9854 11.1759 30.1804 9.84564 31.641 9.31354C29.9149 14.5015 33.4999 16.4969 37.2176 18.4922C27.3921 21.5518 20.4877 28.336 15.7078 37.2487C12.7867 42.7027 10.9278 48.5558 10.2639 54.8079C9.60002 66.248 9.86557 77.6881 10.1311 89.1282C10.1311 89.6603 9.99835 90.1924 9.73279 90.7245Z" fill="#6F6E6B"/>
<path d="M113.033 23.9462C113.033 24.6113 113.033 25.2765 113.166 25.9416C112.237 26.8727 111.44 27.9369 109.98 28.203C107.324 27.6709 105.598 25.4095 103.474 23.8132C101.084 21.9508 99.8885 21.9508 99.2246 25.2765C98.0297 32.4598 95.6397 39.244 94.5775 46.4273C91.3908 46.4273 91.6564 43.3678 90.3286 41.6385C90.1958 37.5147 92.1875 33.923 92.9841 30.0653C94.0464 25.1434 95.5069 20.2215 95.5069 15.1666C93.7808 15.9647 96.3036 20.4876 92.1875 19.6894C91.1253 17.428 91.258 15.1666 91.6564 12.9052C91.9219 12.107 92.1875 11.4419 92.453 10.6438C93.3825 8.38234 95.1086 7.71722 97.233 8.38234C99.0919 9.04747 100.552 10.3777 100.154 12.5061C99.623 15.8317 101.482 17.561 103.872 19.1573C105.731 20.3545 107.324 21.6848 108.917 23.1481C110.378 24.3453 111.573 25.2765 113.033 23.9462Z" fill="#7A7355"/>
<path d="M27.1271 190.892C24.7371 188.098 28.0565 185.305 27.1271 182.511C27.1271 181.846 27.2599 181.314 27.2599 180.649C27.5254 174.929 27.5254 174.929 21.816 174.796C12.92 174.796 9.8661 171.603 9.73333 162.558C9.73333 157.503 9.46777 152.448 9.46777 147.393C9.46777 144.865 9.73333 142.471 11.1939 140.343C13.3183 142.338 12.5216 144.732 11.9905 147.127C11.5922 150.719 11.1939 154.443 13.8494 157.503C14.7789 159.897 14.3805 162.425 14.5133 164.819C14.7789 168.943 16.1066 169.741 21.0194 170.007C24.7371 170.14 26.0649 168.677 25.7993 165.085C25.6666 163.356 25.5338 161.361 27.2599 160.03C27.791 159.897 28.1893 160.03 28.4549 160.429C29.6499 163.223 29.1188 166.016 29.1188 168.943C29.1188 170.539 28.986 172.002 30.7121 172.801C31.1104 173.067 31.376 173.466 31.5087 173.998C31.376 179.053 31.7743 184.108 29.9154 188.897C28.986 189.163 28.4549 188.631 28.4549 187.699C28.4549 184.64 28.0565 181.447 28.5877 178.388C28.4549 180.915 28.4549 183.576 28.4549 186.236C28.4549 187.965 28.8532 189.828 27.1271 190.892Z" fill="#7C746D"/>
<path d="M92.7184 10.7768C92.7184 11.4419 92.8512 12.107 92.8512 12.9052C91.7889 14.1024 90.7267 15.4326 89.0006 15.6987C77.5818 13.7033 66.0302 14.5014 54.6114 14.2354C53.0181 14.2354 51.5575 14.1024 50.3625 12.9052C48.7692 11.1758 46.6448 12.24 44.7859 11.974C43.1926 11.841 41.4665 12.5061 40.2715 10.7768C50.097 10.5107 59.6569 8.7814 69.6152 9.04744C76.1213 9.31349 82.3618 10.2447 88.7351 11.3089C90.1956 11.841 91.3906 11.974 92.7184 10.7768Z" fill="#7E7E7B"/>
<path d="M151.14 117.595C154.991 122.384 154.991 132.627 151.273 137.15C149.945 141.141 151.007 145.265 150.609 149.388C150.476 150.985 151.406 152.847 149.812 154.177C147.024 154.842 144.369 154.31 141.713 153.645C139.456 152.315 139.854 150.186 139.589 148.058C139.456 145.93 140.252 143.535 138.659 141.54C137.066 140.077 135.207 140.875 133.348 141.008C131.356 141.141 129.365 141.407 127.639 139.944C128.037 137.416 130.161 138.081 131.755 137.682C134.41 137.416 137.066 136.352 139.854 136.751C141.049 137.283 141.979 138.214 142.377 139.544C143.041 141.806 142.642 144.2 143.041 146.462C143.174 147.659 143.306 148.989 145.032 149.122C146.891 149.255 147.422 147.925 147.555 146.462C147.954 143.269 147.555 139.944 147.688 136.751C147.954 130.632 147.024 124.38 148.219 118.261C148.485 117.728 148.883 117.462 149.281 117.196C150.211 117.196 150.609 117.329 151.14 117.595Z" fill="#484945"/>
<path d="M139.855 139.944C141.846 142.471 140.386 145.265 140.784 147.925C141.05 149.654 140.12 151.65 141.979 152.98C142.377 155.907 140.519 158.567 141.05 161.494C141.448 164.021 141.979 166.681 145.033 166.681C148.22 166.681 149.282 164.154 149.68 161.361C150.078 158.7 148.751 156.306 149.016 153.645C151.141 150.053 149.415 146.196 150.078 142.604C150.344 140.742 149.282 138.613 151.141 137.017C149.68 146.063 154.593 155.108 152.734 163.755C150.742 172.801 151.805 181.713 151.008 190.626C150.742 190.493 150.477 190.493 150.211 190.493C147.821 187.699 149.282 184.374 148.883 181.314C148.751 180.383 148.883 179.452 148.883 178.521C148.883 171.204 148.883 171.204 141.581 170.539C141.182 170.539 140.651 170.273 140.253 170.14C139.855 168.81 139.722 167.347 138.129 166.681C135.739 163.356 136.402 159.498 137.066 155.907C137.863 151.517 138.792 147.127 138.792 142.604C138.66 141.806 139.058 140.742 139.855 139.944Z" fill="#625C40"/>
<path d="M151.14 117.595H150.742H150.344C147.821 114.669 149.149 111.21 149.016 108.018C148.883 101.366 149.016 101.366 142.377 100.701C141.448 100.568 140.518 100.834 139.721 100.435C135.871 96.4445 135.605 87.1328 139.323 81.8119C142.377 80.7477 146.493 82.876 148.485 80.6146C150.211 78.4862 148.883 74.6285 149.016 71.569C149.149 70.2387 149.016 68.7755 150.211 67.7113C150.742 67.4452 151.14 67.5782 151.406 67.9773C151.539 73.9634 150.476 79.9495 152.734 86.0686C154.061 89.7933 154.061 94.4492 151.937 98.5729C150.211 102.032 151.406 105.889 151.273 109.481C151.007 112.141 151.14 114.935 151.14 117.595Z" fill="#6C6246"/>
<path d="M154.858 9.44655C152.07 14.3685 155.256 17.8271 158.177 21.0197C161.098 24.3453 166.808 25.1434 171.322 23.015C173.845 21.8178 176.102 20.7536 177.961 23.9462C177.961 28.7351 177.961 33.657 177.961 38.4459C177.961 39.9092 178.359 41.5055 176.766 42.5696C174.509 41.9045 175.04 39.9092 174.907 38.3129C174.774 36.5835 174.907 34.9873 174.907 33.2579C174.907 27.0058 174.907 27.1388 168.667 28.336C163.09 29.4002 158.443 27.1388 154.725 23.015C151.007 18.8913 150.211 14.1024 151.671 8.78143C152.07 7.45118 152.601 6.12094 154.327 5.98792C155.787 6.91909 155.389 8.11631 154.858 9.44655Z" fill="#7E7551"/>
<path d="M161.497 43.6338C154.459 48.5557 153.264 52.5464 156.584 60.5279C158.177 64.3856 156.318 67.0461 151.406 67.8443L151.007 67.7112C150.609 67.1791 150.476 66.514 150.742 65.8489C153.928 63.9866 154.327 61.7251 151.804 58.9316C149.281 50.6841 152.601 43.7668 159.505 42.4366C160.302 42.5696 160.965 42.9687 161.497 43.6338Z" fill="#7A775F"/>
<path d="M154.858 9.44652C154.593 8.38233 154.858 7.05208 153.663 6.38696C151.672 4.39159 149.149 4.12554 146.493 3.99252C143.307 3.85949 139.987 4.92369 137.199 2.66227C137.199 2.39622 137.199 2.13017 137.199 1.86413C142.244 0.79993 147.29 1.59808 151.406 1.33203C147.423 0.79993 142.377 1.7311 137.332 0.932954C136.933 0.79993 136.402 0.666905 136.004 0.666905C141.713 -0.66334 147.555 0.267832 153.265 0.134807C156.85 0.00178282 158.709 5.85486 154.858 9.44652Z" fill="#887F5D"/>
<path d="M175.837 42.4366C178.094 40.3082 176.501 37.5147 176.899 35.1202C177.43 31.3955 175.97 27.6709 177.829 24.0792C179.953 30.1983 178.891 36.4505 178.492 42.7026C178.36 43.8998 177.43 44.565 176.235 44.565C174.642 44.831 173.181 44.698 172.252 43.2347C172.252 42.7026 172.385 42.4366 172.783 42.1705C173.845 41.6384 174.908 41.6384 175.837 42.4366Z" fill="#514C2B"/>
<path d="M10.6621 147.393C11.5915 145.131 11.5915 142.87 11.326 140.476C11.1932 138.214 11.8571 136.086 13.1849 134.223C14.3799 135.022 14.6454 136.219 15.0437 137.416C14.6454 142.072 14.7782 146.994 11.9899 151.118C9.99822 150.452 11.5915 148.457 10.6621 147.393Z" fill="#7A693E"/>
<path d="M161.497 43.6339C160.701 43.5008 159.904 43.5008 159.107 43.3678C158.975 40.0422 161.63 39.9092 163.755 39.6431C166.941 39.3771 170.526 38.3129 172.518 42.3036L172.385 42.5697C171.057 43.6339 169.862 43.5008 168.534 42.4366C166.145 42.9687 163.755 43.2348 161.497 43.6339Z" fill="#69581A"/>
<path d="M168.534 42.5696C169.862 42.5696 171.057 42.5696 172.385 42.7027C173.712 43.3678 174.907 43.8999 176.235 44.565C173.447 45.6292 170.393 44.8311 168.534 42.5696Z" fill="#4E473F"/>
<path d="M14.2471 137.283C13.1849 136.618 13.3176 135.288 13.1849 134.357C13.0521 134.09 13.0521 133.824 13.3176 133.558C13.9815 133.292 14.5126 132.893 15.1765 132.627C15.5749 132.361 15.9732 132.361 16.3715 132.76C16.3715 134.49 16.7698 136.485 14.2471 137.283Z" fill="#665634"/>
<path d="M139.854 139.944C140.253 146.063 139.323 152.049 137.863 158.035C137.199 160.828 137.995 163.888 137.995 166.814C139.722 173.333 138.527 179.984 138.925 186.502C139.058 189.03 137.199 189.163 135.473 188.897C128.568 188.231 121.797 187.433 115.025 186.635C113.963 186.502 112.901 186.369 111.838 186.103C109.316 185.704 105.598 187.433 104.668 184.773C103.208 181.048 102.146 176.791 103.341 172.668C104.934 167.48 105.863 163.223 102.013 157.902C99.3574 154.177 100.021 147.925 99.2246 142.737C100.154 139.145 103.473 137.283 105.332 134.356C105.863 133.558 107.058 133.425 107.855 133.691C114.361 136.219 121.398 137.283 127.904 139.81C130.427 140.077 133.083 140.609 135.605 139.411C137.066 138.746 138.527 139.145 139.854 139.944Z" fill="#FEFEFE"/>
<path d="M27.127 190.892C28.7203 186.635 27.6581 182.112 28.4547 177.456C30.048 181.447 27.7908 185.438 29.7825 188.897C31.1103 187.699 32.8364 187.433 34.5625 187.433C56.3379 187.433 77.9805 187.167 99.7559 187.566C101.482 187.965 103.872 187.699 102.943 190.759C101.748 192.222 100.154 191.69 98.6937 191.69C76.2544 191.69 53.8151 191.69 31.3758 191.69C29.9153 191.823 28.3219 192.222 27.127 190.892Z" fill="#68613B"/>
<path d="M127.904 139.944C121.664 140.077 116.087 137.948 110.378 135.687C107.855 134.623 105.863 134.223 104.536 137.416C103.473 139.811 101.349 141.407 99.2245 143.003C97.4984 148.989 99.6229 154.576 101.216 160.163C100.951 160.562 100.552 160.961 100.154 161.094C95.7723 161.36 91.3907 162.425 87.0091 161.094C86.3452 160.695 85.8141 160.163 86.2124 159.365C87.6729 158.168 89.3991 158.301 90.9924 158.301C94.7101 158.567 95.9051 156.971 95.2412 153.379C94.9757 152.049 95.1085 150.586 95.1085 149.255C95.1085 146.994 94.9757 144.865 95.374 142.604C96.9673 138.746 100.685 136.618 103.341 133.558C105.2 132.095 107.058 131.962 109.316 132.893C112.104 133.957 114.892 135.687 118.079 135.155C122.992 135.288 127.639 136.086 132.153 137.815C132.552 138.214 132.684 138.613 132.419 139.145C130.958 139.278 129.232 138.48 127.904 139.944Z" fill="#6E6245"/>
<path d="M140.253 170.406C142.377 169.076 144.767 169.874 147.024 169.608C149.414 169.342 150.211 170.539 150.211 172.801C150.078 178.787 150.211 184.773 150.211 190.759C147.954 192.222 145.431 191.424 143.041 191.69C140.917 191.956 139.987 190.892 139.987 188.764C140.253 182.644 140.253 176.525 140.253 170.406Z" fill="#305D67"/>
<path d="M101.349 160.03C105.863 162.292 104.137 166.814 103.34 169.342C101.747 173.865 102.544 178.122 102.145 182.511C102.544 183.443 102.942 184.906 101.88 185.305C100.552 185.704 100.286 184.241 100.154 183.309C99.8881 182.112 99.8881 180.915 99.357 179.851C98.4276 177.855 98.0293 175.727 98.9587 173.599C99.357 171.603 101.349 170.007 100.419 167.613C100.154 166.149 100.021 164.686 100.419 163.223C101.083 162.425 100.818 161.36 101.083 160.562C101.083 160.296 101.216 160.163 101.349 160.03Z" fill="#6E6245"/>
<path d="M100.154 178.787C102.013 180.25 100.553 182.644 101.482 184.374C102.412 183.975 102.013 183.043 102.146 182.378C102.81 185.172 104.934 187.832 102.943 190.892C102.81 189.03 101.482 189.03 100.154 189.03C98.2955 185.704 98.1627 182.245 100.154 178.787Z" fill="#796B3E"/>
<path d="M9.46764 53.7437C10.9282 38.1798 19.0276 27.0058 32.0397 18.8913C33.7658 17.8271 35.4919 17.9601 37.3508 18.4922C50.894 26.4737 63.6406 35.7854 75.0594 46.5604C75.4578 46.6934 75.7233 47.0925 75.8561 47.4915C75.7233 50.5511 75.5906 53.7437 77.8478 56.2711C78.2461 56.8032 78.5116 57.4684 78.6444 58.1335C78.91 60.1289 77.5822 61.3261 76.2544 62.1242C67.8895 67.4452 59.259 72.2341 49.1679 73.4313C46.1141 73.4313 43.0602 73.5643 40.0063 73.4313C38.0147 73.2983 36.023 73.1653 35.0936 70.7708C34.6953 74.0964 36.6869 76.6239 37.6164 79.4174C38.413 82.2109 39.2097 85.0044 35.0936 85.8026C34.0314 85.5365 33.3675 84.8714 32.9692 83.9402C29.9153 73.9634 25.1353 64.6517 20.3553 55.473C20.0898 55.207 19.8242 54.9409 19.4259 54.6749C17.567 55.606 18.3637 57.3353 18.3637 58.6656C18.2309 65.7159 18.3637 72.6332 18.2309 79.6835C18.2309 81.8119 18.3637 83.9402 17.1687 85.9356C15.0443 87.6649 13.8493 90.7245 10.5299 90.8575L10.1315 90.7245H9.73319C9.73319 90.4584 9.60042 90.1924 9.46764 89.9263C8.80376 77.8211 8.80376 65.7159 9.46764 53.7437Z" fill="#F0F0E7"/>
<path d="M50.2296 12.9051C57.0012 12.9051 63.7728 13.1712 70.4117 12.9051C77.0505 12.6391 83.5566 13.5703 89.9299 14.7675C92.9838 16.4968 91.5232 19.2903 91.7888 21.8178C90.9921 24.6113 90.1954 27.4048 90.0627 30.4644C89.7971 31.9276 89.266 33.3909 89.0005 34.9872C88.4693 38.5789 86.6105 40.8403 83.1583 41.9045C82.096 42.3036 81.2994 41.9045 81.0338 40.7073C70.5445 30.7304 59.2584 22.0838 46.9102 14.5014C47.7068 12.6391 49.1674 13.4372 50.2296 12.9051Z" fill="#EFEEE6"/>
<path d="M77.9802 42.3036C77.8474 42.5696 77.7147 43.2348 77.1836 43.3678C75.5902 44.1659 74.3952 43.2348 73.4658 42.1706C69.3497 37.5147 64.437 33.79 59.5242 30.0653C51.9559 24.3453 43.9893 19.1573 35.4916 14.6345C34.2966 13.9694 32.4377 13.4373 33.2344 11.841C34.1638 9.97865 36.0227 11.1759 37.2177 11.841C47.5743 17.428 57.267 23.8132 66.2959 31.2626C69.4825 33.9231 72.6691 36.5835 75.8558 39.244C76.7852 40.1752 77.8474 40.7073 77.9802 42.3036Z" fill="#E8D670"/>
<path d="M78.9099 44.2989C79.3082 43.8999 79.7065 43.3678 80.1049 42.9687C88.7354 39.6431 94.9759 43.6338 94.0464 52.0144C93.5153 56.9363 89.532 59.5968 83.2915 59.4637C79.8393 58.3995 77.9804 55.8721 76.5199 52.8125C75.9888 51.3492 76.2543 49.886 76.3871 48.4227C76.6527 46.6934 77.5821 45.3631 78.9099 44.2989Z" fill="#0695BA"/>
<path d="M82.6279 58.3995C88.7356 58.2665 92.3206 56.0051 92.8517 52.1473C93.7811 45.6291 89.5323 41.5054 83.0262 42.5696C81.964 42.7026 81.0345 43.5008 79.9723 42.9687C79.8395 42.0375 79.9723 41.1063 80.9018 40.7072C81.4329 40.9733 81.8312 41.2393 82.3623 41.6384C84.2212 40.5742 86.3456 40.8403 88.3373 40.3082C89.3995 40.3082 90.0634 40.9733 90.7272 41.6384C93.7811 41.7714 91.9222 45.8952 94.7106 46.4273C97.7644 50.152 97.1005 55.2069 92.7189 59.0646C91.5239 60.1288 90.3289 60.927 88.7356 61.06C88.2045 61.06 87.8062 61.06 87.275 61.06C85.8145 60.1288 83.2917 61.06 82.6279 58.3995Z" fill="#295560"/>
<path d="M78.9101 44.2989C78.379 45.7622 78.2462 47.3585 76.9184 48.2897C75.989 48.6887 75.7235 47.7576 75.1923 47.3585C75.0596 47.0924 75.0596 46.9594 75.0596 46.6934C75.7235 44.831 77.3168 44.4319 78.9101 44.2989Z" fill="#333D32"/>
<path d="M34.6954 85.2705C38.1476 84.4723 37.3509 82.3439 36.4215 79.9495C33.6332 72.8992 33.6332 72.8992 34.1643 69.9727C38.8115 73.9634 44.3881 71.702 49.4336 72.3671C48.9025 74.6285 47.0437 74.2294 45.4503 74.4955C43.4587 74.8946 41.2015 74.8946 39.7409 76.7569C39.077 87.1328 39.4754 97.3757 39.4754 107.619C39.3426 117.994 39.4754 128.237 39.3426 138.613C39.3426 140.742 40.0065 143.535 36.5543 144.067C30.3138 139.278 23.011 135.82 18.6294 128.903C18.3638 121.719 18.0983 114.536 16.9033 107.353C16.7705 106.953 16.7705 106.554 16.9033 106.155C17.9655 104.692 19.5588 104.825 21.0194 104.559C23.9405 104.027 26.4632 102.83 27.5254 99.7701C28.4549 96.4445 32.1726 95.5134 33.6332 92.5868C36.6871 90.7245 34.4298 88.4631 33.8987 86.4677C34.1643 85.8026 34.4298 85.5365 34.6954 85.2705Z" fill="#EFEEE5"/>
<path d="M10.5293 90.8575C12.6537 89.5273 13.5832 86.9998 16.1059 86.2016C18.0976 85.1374 17.832 83.1421 17.832 81.2797C17.832 76.3578 17.832 71.4359 17.832 66.514C17.832 64.9177 17.1681 63.0554 19.2926 61.9912C21.417 63.3214 20.8859 65.4498 21.0187 67.3122C21.1514 74.6285 20.8859 82.0779 21.2842 89.3942C21.417 89.9263 21.417 90.3254 21.417 90.8575C21.417 92.8529 19.4253 93.1189 18.6287 94.4492C18.2304 95.5133 18.2304 96.5775 19.5581 96.9766C21.0187 97.3757 21.5498 96.0454 22.3464 95.2473C24.8692 94.0501 26.4625 94.7152 26.7281 97.6417C26.197 99.105 25.002 99.6371 23.807 100.435C21.2842 102.165 18.4959 102.165 16.1059 100.435C13.1848 98.4399 13.9815 95.3803 14.3798 92.5868C12.9193 96.0454 13.8487 98.972 16.2387 101.632C16.3715 102.032 16.3715 102.431 16.2387 102.963C15.7076 103.495 15.1765 103.628 14.3798 103.628C13.9815 103.628 13.4504 103.495 13.0521 103.362C12.2554 102.963 11.7243 102.298 11.1932 101.632C11.0604 101.233 10.9276 100.834 11.1932 100.435C11.326 97.1096 12.1226 93.9171 10.5293 90.8575Z" fill="#69624E"/>
<path d="M18.7617 128.769C24.0728 133.691 30.4461 137.283 35.3588 142.737C35.6244 143.535 35.226 143.801 34.5622 143.934C33.1016 143.402 31.9066 142.072 30.1805 142.205C25.135 139.544 21.4172 134.756 15.8406 132.494C15.5751 132.494 15.3095 132.494 15.0439 132.494C15.4423 130.366 13.849 126.242 18.7617 128.769Z" fill="#665233"/>
<path d="M11.1936 100.302C11.1936 100.568 11.1936 100.834 11.3264 100.967C15.5753 108.018 13.3181 115.201 11.8575 122.384C11.592 123.848 10.2642 123.582 9.73309 122.251C9.73309 115.999 9.60031 109.747 9.73309 103.495C9.73309 102.165 8.93643 100.435 11.1936 100.302Z" fill="#ECECE7"/>
<path d="M13.3182 102.83C13.5837 102.83 13.8493 102.83 14.1148 102.83C16.372 104.825 14.5132 107.486 15.177 109.481C15.3098 108.55 14.9115 107.086 16.5048 106.421C16.6376 106.554 16.9031 106.554 17.0359 106.687C17.1687 106.953 17.1687 107.086 17.0359 107.353C16.2393 111.742 18.0981 116.664 14.9115 121.054C14.2476 119.724 13.8493 118.66 13.3182 117.595C12.3887 112.673 12.5215 107.752 13.3182 102.83Z" fill="#66655A"/>
<path d="M13.3174 102.83C13.3174 107.752 13.3174 112.674 13.3174 117.595C13.3174 119.059 13.1846 120.522 13.1846 122.118C13.0518 123.049 13.583 124.646 12.1224 124.646C10.7946 124.779 9.46687 123.981 9.73242 122.118C10.6619 122.783 11.3257 122.916 11.4585 121.453C12.388 114.669 13.1846 107.752 11.4585 100.967C12.1224 101.632 12.6535 102.165 13.3174 102.83Z" fill="#AFB0AB"/>
<path d="M88.3373 60.2618C94.9762 57.0693 96.7023 53.3446 94.7106 46.2943C93.914 44.2989 93.7812 42.4366 94.4451 40.1752C96.1712 34.5881 97.3662 28.8681 98.4284 23.148C98.9595 20.3545 100.022 19.5564 102.412 21.4187C105.067 23.5471 107.723 25.5425 110.378 27.6708C111.175 28.0699 111.706 28.602 111.441 29.5332C111.441 32.8588 111.175 36.3174 111.441 39.6431C111.706 44.698 114.76 46.4273 119.54 44.4319C121.133 44.964 121.532 46.4273 121.664 47.8906C122.859 54.9409 122.727 61.8581 122.594 68.9084C122.594 71.835 121.93 74.0964 118.478 74.3624C114.76 74.3624 111.308 73.0322 107.856 72.234C101.881 70.3717 96.0384 67.9773 90.8601 64.5186C89.5323 63.7205 86.8768 63.0554 88.3373 60.2618Z" fill="#EFEFE6"/>
<path d="M172.385 42.3036C166.676 39.244 162.825 39.6431 159.107 43.3678C153 44.831 150.079 52.1474 152.867 59.1977C155.124 63.5875 154.593 64.9177 149.946 65.7159C145.83 66.381 141.714 66.6471 137.73 65.1838C134.942 63.5875 136.004 61.3261 136.801 59.1977C139.456 51.0832 135.606 44.1659 127.507 41.5054C124.187 40.4412 121.532 42.5696 118.478 42.4366C118.212 42.4366 118.079 42.4366 117.814 42.4366C115.689 42.5696 114.893 41.5054 114.893 39.377C115.025 36.0514 115.158 32.5928 114.893 29.2672C114.627 25.0104 116.22 24.7444 119.673 25.9416C126.975 28.6021 133.614 26.2076 137.199 19.8224C139.589 15.6987 139.855 11.4419 137.332 7.18512C136.403 5.58883 136.137 4.12556 137.199 2.52927C141.581 2.52927 145.963 2.66229 150.344 2.52927C153 2.52927 154.46 3.32741 153.796 6.25395C150.875 12.3731 151.406 18.0931 155.655 22.4829C160.037 27.0058 165.215 29.1342 171.456 26.0746C174.908 24.3453 176.501 25.4095 176.368 29.4002C176.103 33.657 176.103 38.0468 176.103 42.3036C174.775 42.4366 173.58 42.4366 172.385 42.3036Z" fill="#F1DE73"/>
<path d="M137.332 1.06595C142.51 1.06595 147.689 1.06595 152.867 1.06595C152.867 1.332 152.867 1.59805 152.867 1.8641C147.689 1.8641 142.378 1.8641 137.199 1.8641C137.199 1.59805 137.199 1.332 137.332 1.06595Z" fill="#464336"/>
<path d="M111.44 29.6663C111.042 29.0012 110.643 28.336 110.378 27.8039C110.511 25.9416 111.971 26.2076 113.166 25.9416C113.033 27.2718 113.83 29.1342 111.44 29.6663Z" fill="#484640"/>
<path d="M120.602 47.2255C120.336 46.2943 119.938 45.3631 119.672 44.4319C119.008 43.7668 118.345 43.1017 117.813 42.4366C119.407 42.0375 121 41.3724 122.195 43.2347C122.461 44.964 122.992 46.6934 120.602 47.2255Z" fill="#3E3B35"/>
<path d="M9.46752 53.7437C9.46752 65.8489 9.46752 77.8211 9.46752 89.9263C8.53809 89.1282 8.53809 88.064 8.53809 86.9998C8.53809 76.8899 8.53809 66.7801 8.53809 56.8032C8.67086 55.606 8.53809 54.5418 9.46752 53.7437Z" fill="#7E7D7A"/>
<path d="M90.7264 41.6384C90.0625 41.7714 89.3986 41.6384 89.0003 40.8403C87.2742 38.8449 88.602 36.8495 89.0003 34.8542C89.3986 33.2579 89.797 31.6616 89.9297 29.9323C89.9297 29.5332 90.0625 29.0011 90.0625 28.602C90.9919 26.0745 91.1247 23.4141 92.1869 20.8866C92.3197 20.7536 92.5853 20.6205 92.718 20.4875C93.2491 18.2261 93.7803 16.0977 94.4441 13.8363C94.7097 12.9051 94.7097 11.4419 96.303 11.7079C97.3652 11.9739 97.498 13.0381 97.3652 13.9693C96.1702 19.9554 95.2408 26.0745 93.7803 31.9276C92.9836 35.2532 92.5853 38.5788 90.7264 41.6384Z" fill="#DED16A"/>
<path d="M90.9929 22.2169C90.1962 19.8224 92.4534 17.0289 89.9307 14.7675C90.329 13.4372 91.524 13.0382 92.719 12.7721C92.719 15.2996 92.719 17.8271 92.8518 20.3545L92.719 20.2215C92.0551 20.7536 92.4534 21.8178 91.524 22.2169C91.3912 22.3499 91.2584 22.3499 90.9929 22.2169Z" fill="#564E41"/>
<path d="M100.154 178.787C100.154 182.245 100.154 185.571 100.154 189.03C76.652 189.03 53.2833 189.03 29.7817 189.03C29.3834 183.842 30.3128 178.654 30.7112 173.466C31.6406 171.071 33.765 171.071 35.7567 171.071C46.7772 171.071 57.9304 170.805 68.9509 171.204C71.2081 171.603 72.9342 173.067 74.9259 174.131C77.4487 176.126 79.9714 175.594 82.6269 174.264C84.0875 173.466 85.4153 172.402 87.0086 171.736C87.4069 171.603 87.938 171.47 88.3364 171.337C91.523 171.071 94.5769 170.805 97.7635 171.47C98.8257 171.736 99.3568 172.535 100.021 173.333C98.9585 175.195 98.8257 177.057 100.154 178.787Z" fill="#FADC73"/>
<path d="M28.0566 160.296C26.4633 162.824 27.3927 165.75 27.3927 168.411C27.3927 170.539 26.5961 171.603 24.4716 171.47C23.1439 171.337 21.6833 171.47 20.3555 171.47C14.3806 171.337 13.4511 170.406 13.4511 164.42C13.4511 162.159 13.4511 159.764 13.3184 157.503C13.4511 155.507 15.0445 155.906 16.3722 155.906C19.4261 156.439 22.3472 157.104 25.4011 157.37C26.8616 157.503 28.986 157.636 28.0566 160.296Z" fill="#EFD5BB"/>
<path d="M70.5446 172.535C58.8602 172.535 47.3086 172.535 35.6242 172.535C33.8981 172.535 32.172 172.268 30.7115 173.466C30.4459 173.333 30.0476 173.333 29.7821 173.333C29.5165 171.204 30.7115 170.406 32.4376 169.874C44.122 170.406 55.8063 170.539 67.4907 169.741C68.5529 169.741 69.6151 170.14 70.4118 171.071C70.8101 171.47 70.9429 172.002 70.5446 172.535Z" fill="#68613B"/>
<path d="M28.0564 160.296C27.7909 158.035 25.932 158.7 24.6042 158.434C21.6831 158.035 18.6293 157.902 15.841 156.705C15.9737 156.572 15.9737 156.439 16.1065 156.439C16.1065 156.439 16.2393 156.439 16.3721 156.306C15.7082 155.64 12.6543 156.838 14.7787 154.044C18.7621 152.98 22.6126 153.113 26.1976 155.64C26.4631 156.439 26.3303 157.104 25.2681 156.838C25.7992 157.37 26.1976 156.838 26.7287 156.838C28.5876 156.572 29.9153 157.237 30.4464 159.232C30.4464 159.764 30.4464 160.163 30.1809 160.562C29.6498 161.094 29.1187 161.494 28.322 161.227C28.1892 160.961 28.1892 160.562 28.0564 160.296Z" fill="#765B30"/>
<path d="M28.322 161.227C28.8531 160.961 29.3843 160.562 29.9154 160.296C30.5792 160.695 30.8448 161.361 30.9776 162.159C31.3759 164.154 30.9776 166.282 31.2431 168.278C31.2431 169.076 31.6415 169.874 31.7742 170.672C31.1103 171.603 30.5792 172.402 29.9154 173.333C28.9859 173.599 27.127 174.929 27.6582 172.535C28.4548 168.81 27.6582 164.952 28.322 161.227Z" fill="#594929"/>
<path d="M14.1142 154.709C14.9109 156.306 16.7697 155.241 18.2303 156.439C17.1681 156.572 16.5042 156.572 15.8403 156.705C14.9109 156.971 13.8486 156.572 13.1848 157.503C8.40479 155.108 11.0603 150.852 10.5292 147.393C11.7242 148.457 11.0603 149.92 11.4587 151.118C12.5209 152.182 13.3175 153.379 14.1142 154.709Z" fill="#665737"/>
<path d="M149.282 117.595C149.282 127.173 149.149 136.618 149.282 146.196C149.282 148.989 149.016 150.985 145.431 150.852C141.979 150.852 141.979 148.723 141.979 146.196C141.979 143.801 141.846 141.274 141.846 138.879C139.589 131.297 141.182 123.449 140.651 115.733C140.651 112.008 140.651 108.417 140.784 104.692C140.917 101.1 142.908 100.302 146.228 100.302C149.547 100.302 149.946 102.165 149.813 104.692C149.415 109.215 150.211 113.472 149.282 117.595Z" fill="#0A9CBD"/>
<path d="M149.148 153.778C151.804 156.971 151.007 160.828 150.476 164.42C150.078 166.948 147.82 168.677 145.032 168.411C142.377 168.145 140.385 166.681 140.252 163.622C140.119 160.03 139.588 156.173 142.111 152.98C144.501 153.246 146.891 152.448 149.148 153.778Z" fill="#F2D870"/>
<path d="M149.281 117.595C149.281 113.339 149.015 108.949 149.148 104.692C149.148 101.899 148.086 100.834 145.298 100.834C142.642 100.834 141.846 102.165 141.978 104.559C141.978 108.284 141.846 111.875 141.846 115.6C141.182 116.531 140.518 117.462 139.456 115.999C139.19 115.467 139.057 114.935 138.924 114.403C139.057 109.481 137.464 104.426 140.119 99.7702C142.908 97.9078 145.962 100.568 149.015 99.2381C150.21 98.706 150.21 100.967 150.21 102.165C150.343 107.22 150.343 112.274 150.343 117.329C149.945 117.595 149.547 117.595 149.281 117.595Z" fill="#3F5859"/>
<path d="M139.854 116.664C140.518 116.398 141.049 115.999 141.713 115.733C141.713 123.449 141.713 131.164 141.58 139.012C141.049 138.347 140.385 137.815 139.854 137.15C139.323 133.691 139.722 130.1 138.792 126.641C138.659 124.912 138.925 123.316 138.394 121.586C137.863 120.522 136.668 119.857 136.004 118.926C135.738 118.527 135.605 118.128 135.605 117.728C135.605 117.063 136.004 116.398 136.668 116.132C137.863 115.733 138.925 115.866 139.854 116.664Z" fill="#112527"/>
<path d="M139.987 125.976C140.252 129.701 142.377 133.425 139.987 137.15C137.464 137.815 135.074 138.347 132.551 139.012C132.551 138.746 132.551 138.48 132.551 138.081C132.286 137.283 132.551 136.751 132.95 136.086C134.277 134.756 134.012 133.026 134.145 131.297C134.277 129.435 134.012 127.572 135.738 126.242C137.066 125.71 138.526 125.311 139.987 125.976Z" fill="#564734"/>
<path d="M140.12 100.036C139.988 105.224 139.988 110.412 139.855 115.6C129.896 118.394 119.938 115.866 110.113 114.802C108.121 114.669 106.129 114.27 104.271 114.004C101.748 113.339 99.3578 112.54 96.7023 111.875C93.1173 110.944 92.5862 108.949 95.3745 106.82C102.677 101.499 108.785 95.2473 113.034 87.1328C114.229 84.8714 117.017 85.0044 119.009 84.0732C119.407 83.8072 119.673 83.5411 120.071 83.2751C120.071 83.142 122.328 74.6285 122.461 74.3624C122.727 73.9634 122.992 73.5643 122.992 73.0322C122.727 63.7205 124.054 54.4088 122.195 45.097C121.93 44.4319 121.93 43.6338 122.328 42.9686C129.1 38.4458 139.191 48.8217 137.332 55.872C137.066 57.0692 136.668 58.2665 136.27 59.3307C134.809 62.5232 135.075 64.9177 138.793 66.1149C139.722 66.381 140.386 66.9131 140.784 67.8442C141.315 72.3671 142.245 76.7569 140.12 81.1467C136.934 87.7979 136.27 93.917 140.12 100.036Z" fill="#FDFDFD"/>
<path d="M150.742 90.5914C150.742 96.8436 149.016 98.8389 144.502 98.4399C140.651 98.0408 139.19 94.5822 140.253 87.9309C140.784 84.2062 143.439 83.1421 146.626 83.6742C150.742 84.4723 151.14 87.6649 150.742 90.5914Z" fill="#F4DB72"/>
<path d="M140.119 81.5458C139.987 77.023 139.987 72.3671 139.854 67.8443C139.456 67.0462 139.456 66.248 140.119 65.4499C143.704 65.3168 147.422 64.6517 151.007 65.8489C151.007 66.381 151.007 67.0462 151.007 67.5783C149.414 71.1699 150.343 75.0276 150.343 78.7523C150.21 81.5458 150.343 83.8073 146.493 82.344C144.368 81.6789 141.978 83.9403 140.119 81.5458Z" fill="#385E60"/>
<path d="M151.007 65.8489C147.422 65.8489 143.838 65.8489 140.12 65.8489C138.526 66.381 136.8 67.0461 137.199 64.1196C141.846 65.3168 146.626 64.7847 151.273 64.6517C155.787 64.3856 153.132 61.3261 152.866 59.3307C156.053 62.9223 155.522 64.7847 151.007 65.8489Z" fill="#877C5B"/>
<path d="M14.1145 154.709C11.9901 154.576 11.459 152.98 11.459 151.251C12.3884 146.595 13.3179 141.939 14.2473 137.283C15.5751 135.953 15.1767 134.09 15.8406 132.494C17.5667 131.031 18.7617 132.228 20.0895 133.292C23.6745 136.086 27.2594 138.879 30.8444 141.54C33.2344 142.87 32.8361 145.132 32.5705 147.393C31.9066 149.122 32.1722 150.985 31.9066 152.847C31.5083 156.173 29.7822 157.902 26.1972 156.439C22.4795 154.576 18.3634 154.576 14.1145 154.709Z" fill="#F9AF06"/>
<path d="M103.606 134.223C101.747 137.416 98.8258 139.544 96.0375 141.939C94.9753 143.934 93.1164 143.934 91.2575 143.934C80.1042 144.067 68.8182 143.934 57.6649 143.934C54.6111 143.934 52.3539 142.205 49.1672 140.077C51.8228 145.797 55.6733 147.659 60.586 147.659C70.4115 147.792 80.237 147.659 90.0625 147.659C92.1869 147.659 94.4442 147.26 96.1702 148.989C97.3652 159.498 97.3652 159.498 86.212 159.099C82.4942 158.567 79.042 155.241 74.9259 157.37C72.2704 158.168 70.4115 160.562 67.4904 160.562C57.9305 160.695 48.2378 160.562 38.6778 160.695C36.5534 160.695 34.429 160.828 32.7029 159.099C31.9062 158.168 31.7734 157.104 31.7734 155.906C32.4373 153.778 32.1718 151.65 32.4373 149.521C32.5701 147.526 32.8357 145.398 35.3584 144.865C36.6862 144.333 38.1467 146.728 39.6073 144.732C40.1384 136.884 39.7401 129.169 39.8728 121.32C39.8728 119.325 39.6073 117.329 40.4039 115.467C42.2628 113.339 43.8561 115.201 45.4495 115.733C50.0967 117.861 55.0094 117.994 59.9221 118.128C69.6149 118.394 79.3076 118.793 88.602 115.201C89.9297 114.669 91.3903 114.802 92.718 115.334C94.3114 117.994 96.7014 119.724 99.3569 121.187C104.535 124.38 106.129 129.435 103.606 134.223Z" fill="#FCDD73"/>
<path d="M133.614 137.017C133.216 137.416 132.95 137.815 132.552 138.214C127.639 137.549 122.859 136.884 117.946 136.219C115.158 135.288 112.37 134.49 109.714 133.292C107.191 132.228 104.934 130.898 104.536 127.572C104.138 124.646 102.146 122.251 99.3576 120.921C97.4987 120.123 95.7726 119.059 94.976 117.063C93.9137 114.27 95.3743 112.407 98.2954 113.073C109.714 115.467 121.266 116.93 132.95 117.462C134.278 117.462 135.34 117.728 136.402 118.66L136.535 118.793C136.933 119.591 137.597 120.522 137.199 121.32C134.942 126.242 135.473 131.829 133.614 137.017Z" fill="#FBAF05"/>
<path d="M96.3033 149.122C84.0878 149.122 72.0051 149.122 59.7896 149.122C54.213 149.122 50.628 146.196 47.9725 141.54C47.3086 140.343 46.7775 138.613 47.9725 137.682C49.3003 136.618 50.2297 138.347 50.8936 139.145C53.2836 142.072 56.2047 142.737 59.7896 142.737C70.1462 142.604 80.3701 142.737 90.7267 142.737C92.5855 142.737 94.4444 142.87 96.1705 141.939C96.1705 144.333 96.3033 146.728 96.3033 149.122Z" fill="#FBB30F"/>
<path d="M136.27 118.527C123.523 118.793 110.909 116.664 98.4281 114.403C97.4987 114.27 96.1709 112.54 95.507 114.669C95.1087 115.999 95.507 117.329 96.9676 118.128C99.092 119.325 102.411 119.857 102.943 122.118C105.2 129.967 111.042 133.425 117.814 136.086C114.361 137.017 111.44 135.022 108.785 133.691C106.395 132.494 105.2 133.558 103.474 134.223C104.403 127.572 101.748 122.783 95.3742 120.655C92.5859 119.724 92.7187 117.728 92.3204 115.6C91.6565 114.935 90.7271 114.536 90.0632 113.871C86.4782 112.807 83.1588 114.403 79.7066 114.935C69.4828 116.531 59.3917 116.93 49.1679 114.536C46.3796 113.871 43.5913 112.673 40.8029 114.669C40.6702 123.848 40.6702 133.026 40.5374 142.205C40.5374 143.801 41.2013 145.531 39.7407 146.994C38.6785 145.93 38.6785 144.599 38.8113 143.136C39.0768 134.623 38.8113 125.976 38.9441 117.462C38.9441 110.811 38.9441 110.811 44.919 108.816C57.0017 110.678 69.0844 111.077 81.1671 109.614C88.2043 107.885 94.5776 110.678 101.084 112.673C111.175 114.802 121.531 115.866 131.888 116.132C133.348 116.132 134.942 115.467 136.27 116.797C136.402 117.462 136.402 117.994 136.27 118.527Z" fill="#765A24"/>
<path d="M75.1922 156.439C79.5738 154.443 83.1588 156.173 86.3455 159.232C86.611 159.631 86.8766 159.897 87.1421 160.296C90.3288 164.553 89.2665 168.544 86.4782 172.535C83.026 174.796 79.5738 177.19 75.0594 175.195C73.0678 175.062 71.8728 173.599 70.545 172.535C70.545 172.135 70.545 171.869 70.545 171.47C67.6239 169.076 68.4206 165.883 68.8189 162.824C69.7483 159.631 72.5367 158.035 75.1922 156.439Z" fill="#294F4F"/>
<path d="M86.2129 172.268C87.939 168.411 88.0718 164.42 87.1423 160.296C91.7895 160.961 96.4367 159.232 101.084 160.429C101.482 161.094 102.013 161.893 100.951 162.425C98.8267 164.021 96.3039 163.223 93.9139 163.489C92.3206 163.622 90.7273 163.755 90.7273 165.883C90.8601 167.879 92.4534 168.145 93.9139 168.278C96.3039 168.544 98.6939 167.879 101.084 167.746C103.474 170.14 99.6233 171.47 100.022 173.466C99.4906 173.2 98.8267 173.067 98.2956 172.801C94.7106 170.672 90.9929 171.603 87.2751 172.401C86.8768 172.801 86.4784 172.801 86.2129 172.268Z" fill="#735517"/>
<path d="M148.352 180.516C148.352 182.511 148.352 184.507 148.352 186.502C148.352 188.631 147.157 189.03 145.431 189.163C143.572 189.163 142.642 188.497 142.51 186.502C142.377 182.378 142.908 178.122 142.111 173.998C141.713 172.002 142.775 171.204 144.767 171.337C146.36 171.47 148.352 170.938 148.352 173.599C148.352 175.86 148.352 178.122 148.352 180.516Z" fill="#02AAD0"/>
<path d="M101.084 167.746C99.092 169.342 91.6565 170.273 90.0632 169.076C88.3371 167.613 89.2665 165.617 89.1338 163.888C89.001 161.759 90.8599 162.159 92.0548 162.159C94.9759 162.159 97.7643 162.292 100.685 162.425C100.951 164.154 101.084 165.883 101.084 167.746Z" fill="#F2AE06"/>
<path d="M20.7537 91.5226C20.7537 91.2565 20.7537 90.9905 20.621 90.7244C19.8243 80.8806 20.4882 71.0368 20.2226 60.2618C24.0732 62.6563 25.0026 65.8489 26.1976 68.6424C28.5876 73.6973 30.4464 79.1513 33.7659 83.8072C34.1642 84.3393 34.4298 84.7383 34.8281 85.2704C34.6953 85.5365 34.6953 85.6695 34.6953 85.9356C34.5625 88.197 34.6953 90.5914 33.6331 92.7198C32.7037 94.7152 31.1103 96.0454 28.9859 96.4445C25.932 94.9812 21.6832 96.1785 20.7537 91.5226Z" fill="#F2D8BD"/>
<path d="M33.633 83.8072C30.5791 83.4081 30.1808 80.6146 29.1185 78.6193C26.463 73.1653 23.9402 67.5782 20.488 62.1242C20.488 71.702 20.488 81.2798 20.488 90.8575C18.7619 87.6649 19.8242 84.2063 19.6914 81.0137C19.5586 75.0276 19.6914 69.1745 18.7619 63.1884C18.7619 69.4406 18.7619 75.6927 18.7619 81.9449C18.7619 84.0733 18.8947 86.0686 15.9736 86.3347C17.1686 84.8714 16.9031 83.1421 16.9031 81.5458C16.9031 72.7662 16.9031 63.9866 17.0358 55.34C17.0358 54.1428 17.0358 52.6795 18.4964 52.2804C19.8242 51.8813 20.488 52.6795 20.488 54.0097C19.6914 54.5418 19.6914 55.473 19.6914 56.2712C20.2225 55.8721 20.0897 55.0739 20.7536 54.6749C25.9319 63.8535 31.1102 73.2983 33.633 83.8072Z" fill="#837A6F"/>
<path d="M39.209 75.0276C42.3956 73.0322 46.1134 73.5643 49.5656 72.3671C59.2583 70.6378 67.756 66.2479 75.9882 61.06C77.316 60.2618 78.7765 59.5967 77.9799 57.6013C81.0337 57.7344 82.8926 59.5967 84.7515 61.7251C84.6187 62.1242 84.3531 62.5233 83.9548 62.6563C80.6354 62.7893 77.8471 64.5186 75.0588 66.2479C69.8805 69.3075 64.4366 71.968 58.9927 74.2294C55.0094 75.8257 50.7606 76.3578 46.6445 77.555C44.9184 78.0871 43.0595 78.4862 41.3334 77.422C41.7317 75.6927 41.7317 75.6927 39.209 75.0276Z" fill="#746B61"/>
<path d="M84.6189 61.7252C82.3617 60.2619 80.1045 58.9317 77.8473 57.4684C77.5818 57.2023 77.3162 56.8033 76.9179 56.5372C76.3868 55.34 75.9885 54.0098 76.9179 52.8125C78.644 54.9409 80.1045 57.2023 82.6273 58.5326C83.8223 59.9959 85.9467 58.6656 87.1417 60.1289C87.0089 61.5921 86.7434 62.9224 84.6189 61.7252Z" fill="#232D30"/>
<path d="M76.9181 52.8126C76.9181 54.0098 76.9181 55.34 76.9181 56.5372C74.3954 53.8768 74.1298 50.6842 75.0593 47.2255C75.5904 47.4916 76.2542 47.8906 76.7854 48.1567C76.9181 49.753 76.9181 51.2163 76.9181 52.8126Z" fill="#696D60"/>
<path d="M20.7532 54.5418C20.7532 54.9409 20.7532 55.473 20.7532 55.872C20.8859 56.9362 22.3465 58.2665 20.3548 58.7986C19.4254 59.0646 18.6287 57.8674 18.7615 56.9362C18.8943 55.739 16.6371 53.0785 20.4876 53.7437C20.7532 54.0097 20.7532 54.2757 20.7532 54.5418Z" fill="#42403A"/>
<path d="M91.1256 28.7351C91.7895 32.9919 89.134 36.7166 89.134 40.8403C87.0095 42.0375 84.7523 41.6385 82.4951 41.5054C88.6029 40.1752 87.0095 34.1891 89.3995 30.4644C89.7978 29.9323 89.2667 28.07 91.1256 28.7351Z" fill="#58513B"/>
<path d="M91.1247 28.7351C90.5936 29.2672 89.9297 29.9323 89.3986 30.4644C89.3986 27.5379 89.2658 24.7444 91.1247 22.2169C92.3197 24.4783 91.2574 26.6067 91.1247 28.7351Z" fill="#564E41"/>
<path d="M81.8311 50.5511C81.3 49.2208 79.9722 47.7576 81.5655 46.4273C83.0261 45.2301 84.885 44.2989 86.6111 44.964C88.7355 45.7622 90.5944 47.3585 90.9927 50.019C91.391 52.8125 89.3994 54.1427 87.6733 55.739C85.9472 57.2023 84.6194 56.0051 83.0261 55.473C79.8394 54.2757 81.5655 52.2804 81.8311 50.5511C83.4244 50.5511 84.885 53.0785 86.6111 50.9501C86.8766 50.5511 87.0094 50.019 86.6111 49.7529C84.6194 47.7576 83.4244 50.5511 81.8311 50.5511Z" fill="#145D68"/>
<path d="M81.8311 50.5511C81.9638 50.4181 81.9638 50.2851 82.0966 50.1521C82.8933 48.2897 84.221 47.2255 86.3455 47.6246C87.806 47.8906 88.6027 49.2209 88.4699 50.5511C88.3371 51.7484 87.5405 52.8126 86.2127 53.2116C83.9555 53.8767 82.6277 52.4135 81.8311 50.5511C81.8311 50.4181 81.8311 50.5511 81.8311 50.5511Z" fill="#52CDD7"/>
<path d="M84.619 61.7251C86.0795 61.9912 86.3451 60.6609 87.1417 59.9958C87.5401 60.1288 87.9384 60.1288 88.3367 60.2619C90.4612 64.5187 94.9756 65.1838 98.5606 67.3122C101.482 69.0415 104.801 69.9727 107.855 71.3029C107.457 72.5001 104.801 71.3029 105.598 73.6973C103.473 74.6285 101.747 73.1652 100.021 72.6331C94.8428 70.9038 90.7267 67.5782 86.0795 65.0508C85.1501 64.5187 84.3534 63.7205 84.4862 62.5233C84.4862 62.1242 84.619 61.9912 84.619 61.7251Z" fill="#797267"/>
<path d="M39.2096 75.0276C40.4046 75.0276 41.4669 75.0276 43.193 75.0276C42.2635 75.8257 41.5996 76.3578 41.0685 76.8899C42.9274 79.4174 46.7779 77.156 48.6368 79.8165C46.9107 82.876 43.9896 81.4128 41.4669 81.6788C39.0769 83.2751 41.0685 85.5365 40.4046 87.5319C40.803 105.623 38.9441 123.715 39.608 141.806C39.7408 144.2 38.9441 145.664 36.2886 145.531C34.0313 145.664 33.633 147.127 33.5002 148.989C33.2347 151.251 33.7658 153.645 32.8364 155.773C32.0397 155.241 31.9069 154.443 31.9069 153.645C31.6414 150.985 32.0397 148.457 32.3052 145.93C32.438 144.599 32.9691 143.535 34.5624 143.668C34.828 143.402 35.2263 143.136 35.4919 142.87C38.8113 144.599 38.413 142.205 38.413 140.21C38.413 121.586 38.2802 102.963 38.413 84.2063C38.413 81.0137 37.6163 77.9541 39.2096 75.0276Z" fill="#5C584E"/>
<path d="M28.8529 100.036C27.6579 103.894 24.3385 104.958 20.8863 105.756C19.5585 106.022 18.098 105.623 17.0358 106.687C16.903 106.554 16.7702 106.421 16.6374 106.421C15.8408 105.357 15.3097 104.293 15.9736 102.963L16.2391 102.697C20.3552 102.963 23.8074 101.5 26.8613 98.972C27.9235 98.573 28.4546 99.2381 28.8529 100.036Z" fill="#6C6553"/>
<path d="M28.8524 100.036C28.3213 99.7701 27.7902 99.371 27.2591 99.105C26.8608 98.8389 26.5952 98.5729 26.5952 98.0408C26.1969 96.1784 27.6574 95.9124 28.8524 95.5133C30.8441 94.8482 31.9063 93.3849 32.703 91.6556C33.898 91.1235 34.8274 91.1235 34.5618 92.8528C34.4291 96.5775 29.5163 96.5775 28.8524 100.036Z" fill="#69624E"/>
<path d="M34.6948 92.8529C34.4293 92.0548 33.6326 91.6557 32.8359 91.6557C34.4293 90.0594 32.0393 87.1329 34.562 85.8026C37.0848 88.1971 38.147 90.4585 34.6948 92.8529Z" fill="#6C6553"/>
<path d="M26.9938 98.3069C26.9938 98.573 27.1265 98.839 27.2593 99.1051C24.3382 102.564 21.1516 105.49 16.2388 102.564C11.0605 97.3757 10.9278 92.1878 16.1061 89.7934C17.0355 91.3896 14.9111 91.9217 15.0438 93.385C15.3094 95.5134 14.1144 98.1739 16.5044 99.6372C18.8944 101.1 21.4171 101.233 23.6743 99.2381C24.3382 98.706 25.2677 98.4399 26.0643 98.0409C26.5954 97.7748 26.861 97.7748 26.9938 98.3069Z" fill="#B7AB5E"/>
<path d="M15.9731 102.963C16.7698 104.027 17.3009 105.091 16.637 106.421C15.3092 108.949 16.637 111.875 15.442 114.403C14.9109 114.403 14.5126 114.403 13.9814 114.536C13.9814 110.678 13.9814 106.82 13.9814 102.963C14.6453 102.83 15.3092 102.83 15.9731 102.963Z" fill="#383933"/>
<path d="M22.3463 96.5776C22.2135 98.839 20.6202 98.972 19.1596 98.5729C16.5041 97.9078 16.9024 95.6464 17.0352 93.784C20.0891 92.1877 21.5496 93.9171 22.3463 96.5776Z" fill="#CBCDC6"/>
<path d="M22.3472 96.5776C20.6211 95.3803 19.6917 92.8529 17.0361 93.784C17.7 92.0547 20.09 93.2519 20.7539 91.6557C22.7455 94.5822 25.7994 95.2473 28.9861 95.6464C28.3222 96.5776 26.9944 96.9766 27.1272 98.4399C26.8616 98.3069 26.5961 98.3069 26.3305 98.1739C25.6666 95.7794 24.7372 94.3161 22.3472 96.5776Z" fill="#6C6553"/>
<path d="M34.4297 143.535C30.9775 146.329 33.5002 150.319 32.438 153.645C30.048 151.783 31.3758 149.388 31.5086 147.127C31.243 145.264 31.7741 143.269 30.7119 141.54C33.1019 140.343 33.5002 142.471 34.4297 143.535Z" fill="#563F12"/>
<path d="M122.46 43.5008C122.46 44.1659 122.327 44.698 122.327 45.3631C123.257 46.9594 124.053 48.5557 123.39 50.5511C123.124 58.2665 122.991 66.1149 123.39 73.8303C123.788 78.3532 120.336 75.6927 118.742 76.4908C116.485 75.9587 117.149 74.4955 117.68 73.1652C120.601 73.4313 121.531 72.2341 121.531 69.1745C121.531 61.8581 121.132 54.5418 120.468 47.2255C121.796 46.2943 121 44.698 121.531 43.5008C121.929 43.2347 122.195 43.2347 122.46 43.5008Z" fill="#737571"/>
<path d="M117.814 73.1652C118.345 74.0964 118.477 75.0276 117.814 75.9587C117.548 77.0229 116.751 77.422 115.822 77.555C115.424 77.555 114.892 77.422 114.494 77.289C111.706 75.6927 107.855 76.3578 105.731 73.1652C105.333 72.7662 104.669 72.101 104.801 71.968C105.598 70.7708 106.926 71.835 107.855 71.3029C111.175 71.835 114.494 72.5001 117.814 73.1652Z" fill="#6D685E"/>
<path d="M137.862 25.8085C139.19 23.015 141.315 20.6206 141.978 17.561C142.51 17.0289 142.111 15.4326 143.439 15.8317C144.634 16.2308 144.634 17.428 144.767 18.3592C144.899 19.6894 144.634 21.0197 144.103 22.2169C144.899 25.2764 146.891 23.5471 148.086 22.882C149.281 22.2169 150.078 21.6848 151.007 23.015C155.92 28.7351 161.895 31.7946 169.729 30.4644C172.252 30.0653 172.915 31.5286 172.915 33.79C172.915 36.1845 171.853 37.3817 169.463 36.8496C163.621 35.7854 158.576 37.7808 153.796 40.7073C152.866 39.377 152.335 37.7807 151.804 36.3175C151.538 34.5882 151.538 32.8588 151.804 31.1295C152.733 26.7397 152.733 26.7397 147.555 27.0058C145.962 27.0058 144.501 27.1388 142.908 27.0058C141.315 26.7397 139.456 27.0058 137.862 25.8085Z" fill="#6F581D"/>
<path d="M122.461 43.5008H122.062H121.664C120.735 41.9045 119.008 42.7027 117.681 42.4366C124.452 38.978 129.365 39.5101 134.543 44.0329C139.058 48.1567 140.12 53.8767 137.332 60.5279C136.933 61.7252 136.269 62.7894 137.199 63.9866C137.464 65.8489 138.925 65.5829 140.12 65.7159C139.987 66.381 139.854 67.0462 139.722 67.7113C134.145 66.6471 132.684 64.3857 134.543 59.5968C138.527 50.019 133.216 42.8357 122.461 43.5008Z" fill="#756C4B"/>
<path d="M118.743 31.3956C119.407 30.1983 120.469 30.3314 121.531 30.5974C126.577 31.5286 131.091 30.0653 135.34 27.8039C139.722 31.3956 139.722 36.7165 135.34 39.7761C131.091 37.2486 126.444 36.1844 121.531 36.9826C120.602 37.1156 119.407 37.3817 118.743 36.1844C122.461 34.8542 126.311 36.3175 129.896 35.3863C130.959 34.056 132.419 34.7212 133.747 34.7212C134.411 34.7212 134.942 34.3221 134.809 33.5239C134.809 32.9919 134.411 32.7258 133.88 32.7258C132.286 32.9919 130.826 34.056 129.1 33.79C130.029 34.5881 130.56 35.2533 128.701 35.5193C126.444 35.5193 124.054 35.5193 121.797 35.5193C120.602 35.5193 119.54 34.9872 119.54 33.79C119.54 32.5928 120.602 32.0607 121.797 31.9277C123.656 31.7946 125.648 32.0607 127.374 31.7946C124.585 31.6616 121.664 32.5928 118.743 31.3956Z" fill="#7A5E16"/>
<path d="M143.838 18.6252C143.705 17.9601 143.572 17.295 143.439 16.6298C143.041 16.8959 142.51 17.295 142.112 17.561C142.112 14.7675 142.112 12.107 142.112 9.31348C143.971 7.98324 146.493 8.78139 148.352 7.45114C150.211 8.91441 148.485 10.5107 148.485 12.107C148.485 15.9647 149.68 19.5564 151.141 23.015C148.751 23.5471 147.024 25.6755 144.103 25.0104C142.112 24.4783 141.182 24.0792 142.643 22.2169C143.971 22.882 145.697 23.6801 146.228 21.5517C146.626 19.9554 145.697 18.6252 143.838 18.6252Z" fill="#8A6C1C"/>
<path d="M148.884 50.152C147.423 53.3446 149.946 56.8032 148.353 60.1288C146.494 59.8628 144.502 58.0004 142.643 60.2619C141.05 57.3353 142.51 54.1427 142.112 51.0832C142.643 50.6841 143.041 50.019 143.705 49.6199C144.635 49.3539 145.166 48.6887 145.564 47.7576C145.83 47.3585 146.095 47.0924 146.361 46.9594C148.618 47.0924 147.821 49.3539 148.884 50.152Z" fill="#8D680D"/>
<path d="M135.34 39.7761C138.526 35.7853 137.597 31.7946 135.34 27.8039C136.137 27.1388 137.066 26.4736 137.863 25.8085C139.456 25.0104 141.049 26.0746 142.643 25.9415C143.041 27.2718 141.846 27.8039 141.315 28.602C138.128 33.5239 138.261 35.6523 142.51 39.6431C143.174 40.3082 144.103 40.7073 143.572 41.9045C139.987 45.0971 137.863 41.5054 135.34 39.7761Z" fill="#343320"/>
<path d="M135.34 39.7761C138.128 40.7073 140.385 43.3678 143.705 41.6385C144.634 40.7073 145.829 40.5743 147.024 40.5743C147.954 40.7073 148.883 40.9733 149.414 41.9045C149.414 42.4366 149.281 42.7027 148.883 42.9687C147.423 43.8999 145.564 43.2348 143.97 44.1659C143.705 46.0283 145.696 48.0236 143.838 49.753C143.705 50.8172 143.439 51.6153 142.244 50.9502C141.448 46.4273 138.394 43.1017 135.34 39.7761Z" fill="#645422"/>
<path d="M130.826 35.1203C126.975 37.1156 122.726 35.3863 118.743 36.1845C118.345 34.5882 117.814 32.9919 118.743 31.3956C121.797 31.3956 124.851 31.3956 129.1 31.3956C126.179 32.8588 124.187 32.0607 122.195 32.4598C121.266 32.5928 120.204 32.8588 120.336 34.0561C120.469 34.9872 121.266 35.2533 122.062 35.2533C124.718 35.2533 127.241 35.2533 129.896 35.1203C130.162 34.8542 130.56 34.8542 130.826 35.1203Z" fill="#4A3A15"/>
<path d="M148.883 50.152C145.962 50.8171 148.22 47.4915 146.626 47.2254C145.83 46.5603 146.095 45.7622 146.493 45.097C147.29 44.1659 148.352 43.6338 149.149 42.7026L149.282 42.3035C150.477 41.3724 151.672 40.8403 152.999 41.6384C151.805 44.698 149.282 46.8264 148.883 50.152Z" fill="#6F571C"/>
<path d="M148.352 7.45115C147.29 11.4419 144.236 8.91442 142.111 9.3135C142.908 4.65764 145.564 5.98788 148.352 7.45115Z" fill="#6A5726"/>
<path d="M153.132 41.7715C151.937 42.0375 150.742 42.8357 149.415 42.4366C148.751 42.1706 148.087 42.0375 147.423 41.7715C148.352 39.244 150.477 38.0468 152.999 37.1156C153.663 38.3129 154.991 39.244 154.062 40.9733C153.663 41.2394 153.398 41.5054 153.132 41.7715Z" fill="#2D2A17"/>
<path d="M142.643 60.2619C143.838 57.6014 145.829 57.6014 148.352 60.1288C146.493 61.3261 144.634 61.5921 142.643 60.2619Z" fill="#534414"/>
<path d="M90.9922 28.735C90.9922 26.6066 90.9922 24.3452 90.9922 22.2168C91.5233 21.5517 92.1872 20.8866 92.7183 20.3545C93.1166 23.4141 92.1872 26.0745 90.9922 28.735Z" fill="#58513B"/>
<path d="M86.2128 172.269C86.6112 172.269 87.0095 172.402 87.275 172.402C83.5573 174.796 80.2379 178.92 75.0596 175.195C79.1757 175.594 82.8934 174.53 86.2128 172.269Z" fill="#796B3E"/>
<path d="M87.2744 172.402C90.9922 170.539 94.7099 169.209 98.2949 172.801C94.5772 172.668 90.9922 172.535 87.2744 172.402Z" fill="#796B3E"/>
<path d="M69.7481 162.159C69.6153 165.351 69.217 168.544 70.5448 171.47C69.8809 171.204 69.3498 170.805 68.6859 170.539C68.1548 169.874 67.6237 169.209 67.3581 168.544C66.9598 164.42 64.7026 163.356 60.8521 163.489C52.6199 163.755 44.3877 163.622 36.0228 163.489C33.8983 163.489 31.6411 163.755 29.915 162.159C29.915 161.494 29.915 160.961 29.915 160.296C30.7117 159.498 31.5084 158.966 32.5706 158.833C37.3505 160.163 42.3961 159.232 47.176 159.498C54.346 159.897 61.6487 158.966 68.8187 160.03C70.1465 160.296 70.412 160.961 69.7481 162.159Z" fill="#664D14"/>
<path d="M68.686 168.677C68.686 169.342 68.686 170.007 68.686 170.539C62.3127 172.269 55.9394 171.204 49.5661 171.337C43.5911 171.337 37.6162 172.002 31.774 170.672C30.9773 170.406 30.3134 170.273 30.1807 169.342C31.2429 168.411 32.7034 168.145 34.0312 168.145C44.9189 168.012 55.6738 168.012 66.5615 168.145C67.2254 168.145 68.0221 168.411 68.686 168.677Z" fill="#8B6004"/>
<path d="M32.571 158.833C32.3055 160.562 31.1105 160.296 29.9155 160.296C29.5172 156.705 26.4633 157.902 24.3389 157.37C24.87 156.306 25.7994 156.838 26.4633 156.572C29.7827 156.838 30.9777 155.241 31.1105 152.049C31.1105 150.452 30.8449 148.723 31.7744 147.26C32.3055 149.388 31.1105 151.783 32.7038 153.778C32.8366 154.443 32.8366 155.108 32.9694 155.906C32.7038 156.838 32.7038 157.769 32.571 158.833Z" fill="#594929"/>
<path d="M68.6859 168.677C66.827 169.741 64.8354 169.475 62.8437 169.475C51.956 169.475 41.0683 169.475 30.0478 169.342C30.0478 166.947 29.915 164.553 29.915 162.159C41.0683 162.159 52.2216 162.159 63.3748 162.026C66.6942 162.026 69.217 162.026 68.022 166.415C67.8892 167.08 68.4203 167.879 68.6859 168.677Z" fill="#F4AE04"/>
<path d="M136.534 116.93C125.248 117.196 114.228 115.866 103.207 113.871C102.544 113.738 101.747 113.339 101.083 113.073C101.747 112.274 102.544 112.54 103.34 112.807C113.962 114.004 124.585 115.334 135.207 115.6C136.667 115.6 138.261 115.6 139.721 115.6C139.721 115.999 139.854 116.265 139.854 116.664C138.792 116.797 137.597 116.93 136.534 116.93Z" fill="#745F41"/>
<path d="M133.613 137.017C134.543 130.898 135.472 124.779 136.534 118.66C137.464 119.325 138.26 119.857 139.19 120.522C139.455 123.182 138.659 125.311 136.534 126.907C134.675 128.636 135.738 130.898 135.472 132.893C135.207 134.357 135.605 136.219 133.613 137.017Z" fill="#745F41"/>
<path d="M136.402 126.907C137.332 124.779 138.128 122.65 139.058 120.522C140.784 122.118 139.855 124.247 139.987 126.109C138.792 126.641 137.73 127.306 136.402 126.907Z" fill="#827163"/>
<path d="M139.854 132.76C139.589 134.356 140.253 136.352 137.995 136.352C136.535 136.352 136.402 135.288 136.535 134.09C136.535 132.361 136.933 130.366 138.792 130.233C140.651 129.967 139.456 131.962 139.854 132.76Z" fill="#C9A88C"/>
<path d="M103.341 112.94C102.544 113.073 101.748 113.073 101.084 113.206C94.7103 111.609 88.3371 109.481 81.5654 111.21C81.6982 109.348 83.2915 109.082 84.4865 108.683C95.7726 105.224 104.005 98.0408 109.714 87.7979C110.245 86.8667 110.776 85.9356 111.839 85.4035C114.494 84.3393 117.15 83.1421 119.805 85.4035C115.822 85.9356 113.697 88.197 111.839 91.6556C108.386 98.4399 102.943 103.362 96.702 107.486C95.6398 108.151 94.4448 108.417 94.312 110.146C97.1003 111.343 100.685 111.077 103.341 112.94Z" fill="#716A61"/>
<path d="M119.805 85.2705C116.884 84.6053 114.095 85.9356 111.174 86.2016C107.324 88.4631 103.075 87.5319 98.9588 86.9998C95.9049 86.6007 95.1083 84.2063 96.3032 81.4128C96.9671 79.9495 97.8966 78.7523 99.3571 77.9541C102.677 76.6239 106.129 75.8257 109.581 77.289C111.573 78.7523 113.166 77.8211 114.892 76.7569C115.29 76.7569 115.689 76.7569 115.954 76.7569C117.016 77.9541 117.016 79.6834 119.141 80.2155C121.398 80.7476 122.062 82.743 120.203 84.8714C120.203 85.2705 119.938 85.2705 119.805 85.2705Z" fill="#333F41"/>
<path d="M120.336 85.1375C120.602 82.8761 120.735 80.7477 117.548 80.4816C115.158 80.2156 115.822 78.4863 115.955 77.023C116.486 76.7569 117.15 76.3579 117.681 76.0918C119.54 75.4267 122.328 77.8211 123.257 74.3625C122.328 66.381 122.593 58.2665 123.125 50.2851C122.859 48.6888 122.593 47.0925 122.328 45.4962C124.452 46.4274 124.187 48.4227 124.187 50.2851C124.187 57.8675 124.187 65.3168 124.32 72.8992C124.32 75.6927 123.788 77.4221 120.602 77.156C119.672 77.023 118.61 77.289 118.212 78.2202C117.548 79.9495 119.407 79.5504 120.071 80.0825C122.062 81.6788 123.921 83.2751 120.336 85.1375Z" fill="#BFC2C2"/>
<path d="M148.485 74.6285C147.422 76.3578 150.609 80.3486 145.563 80.6146C143.439 80.7477 141.979 80.0825 141.979 77.5551C141.979 75.6927 141.979 73.8304 141.979 72.1011C141.979 69.7066 141.979 67.4452 145.431 67.5782C148.883 67.5782 148.352 69.9727 148.352 72.1011C148.485 72.7662 148.485 73.5643 148.485 74.6285Z" fill="#03A7CF"/>
<path d="M41.0682 114.935C40.8026 111.077 43.3254 111.875 45.317 112.541C52.2214 114.536 59.3914 114.935 66.5613 114.935C73.333 115.068 79.839 113.871 86.4779 112.541C88.6023 112.141 90.7267 111.21 91.9217 114.137C86.7434 117.862 80.6357 118.261 74.7935 118.926C69.0841 119.591 63.1091 119.591 57.3997 118.926C53.2836 118.394 48.902 118.394 44.9187 116.797C43.4582 116.132 42.2632 115.6 41.0682 114.935Z" fill="#F5B312"/>
<path d="M36.2881 145.531C38.8108 144.466 39.2092 142.604 39.2092 140.077C39.2092 121.985 39.342 104.027 39.342 85.9356C40.8025 83.8072 42.9269 84.0733 45.0514 84.0733C50.0969 83.8072 55.0096 84.4723 60.0552 83.6742C60.9846 83.2751 61.6485 82.3439 62.8435 82.3439C64.7023 84.3393 63.7729 85.6695 62.0468 86.8668C57.3996 88.197 52.6196 87.3989 47.8397 87.5319C42.9269 87.6649 42.5286 87.931 42.3958 92.7198C42.3958 94.5822 42.5286 96.4445 42.3958 98.3069C41.9975 102.564 42.6614 106.554 45.7152 109.747C45.7152 109.88 45.5825 110.146 45.5825 110.146C38.9436 110.811 40.0058 115.733 40.0058 119.99C40.1386 129.036 40.0058 138.081 40.0058 147.127C38.147 148.058 37.2175 146.861 36.2881 145.531Z" fill="#514937"/>
<path d="M44.6533 116.797C51.1594 117.063 57.5327 118.66 64.1715 118.793C73.7315 118.793 82.8931 117.728 91.7891 114.27C92.0547 114.802 92.3202 115.334 92.453 115.999C81.5653 119.458 70.412 120.522 59.2588 119.724C54.346 119.059 49.1677 119.591 44.6533 116.797Z" fill="#F6CA44"/>
<path d="M69.7478 162.159C69.4823 161.36 69.2167 160.695 68.9512 160.03C71.2084 159.099 72.5361 156.439 75.3245 156.572C73.3328 158.301 71.6067 160.163 69.7478 162.159Z" fill="#594929"/>
<path d="M45.7152 109.747C41.7319 108.949 40.2713 106.554 40.6697 102.431C41.068 98.4399 40.9352 94.4491 40.6697 90.4584C40.5369 87.1328 41.3336 85.6695 44.9185 85.9356C50.6279 86.2016 56.3373 86.0686 62.0468 86.0686C64.5695 85.0044 64.1712 83.4081 62.8434 81.8118C61.6484 80.3485 60.3207 78.7522 58.7273 77.555C57.7979 76.8899 56.3373 76.4908 56.4701 75.0276C56.6029 73.0322 58.8601 74.3624 59.6568 73.1652C66.5612 69.4405 73.7311 66.2479 80.2372 61.8581C81.9633 60.6609 83.0255 62.1242 84.4861 62.2572C91.1249 66.78 97.8965 71.3029 105.863 73.1652C108.651 75.1606 112.768 73.8303 115.025 76.8899C113.963 78.4862 113.83 82.4769 110.51 78.7522C107.058 76.3578 103.606 77.289 100.154 78.7522C98.826 79.1513 98.4276 80.3485 97.7637 81.4127C95.9049 84.3393 96.436 85.9356 100.154 86.0686C103.871 86.0686 107.456 86.2016 111.174 86.3346C106.66 97.6417 98.0293 104.559 87.1416 109.082C85.2827 109.88 83.4238 110.545 81.565 111.21C71.2084 112.807 60.8518 111.609 50.6279 111.875C48.5035 111.875 47.7068 109.481 45.7152 109.747Z" fill="#F4D8BD"/>
<path d="M86.4781 165.75C86.4781 170.14 82.6276 174.131 78.3788 173.998C74.2627 173.865 70.5449 170.14 70.5449 165.883C70.5449 161.627 73.9971 157.902 78.246 157.636C82.4948 157.503 86.3454 161.227 86.4781 165.75Z" fill="#0991B1"/>
<path d="M59.5247 73.0322C58.728 73.6973 57.9314 74.2294 56.8692 75.0276C59.923 76.6239 62.5786 78.3532 63.6408 81.5458C64.3047 83.2751 65.3669 85.5365 62.0475 85.9356C62.8441 84.7384 63.6408 83.6742 62.313 82.3439C58.4625 77.5551 53.6825 77.023 48.3714 79.5504C46.6453 79.6835 44.7865 79.8165 43.0604 79.9495C40.8032 80.0825 40.6704 78.7523 41.0687 77.023C47.442 76.6239 53.2842 74.0964 59.5247 73.0322Z" fill="#F0D8BA"/>
<path d="M48.3708 79.5504C53.9475 74.6285 59.3913 75.6927 62.3124 82.3439C62.0469 83.009 61.7813 83.6742 61.5158 84.2063C55.9391 85.0044 50.2297 84.6053 44.6531 84.6053C42.1303 84.6053 40.2714 83.4081 40.1387 80.4816C42.927 80.2155 45.8481 81.8118 48.3708 79.5504Z" fill="#334244"/>
<path d="M40.1385 80.6147C42.2629 83.8072 45.184 85.0045 48.769 84.2063C52.7523 83.2751 57.2667 86.4677 60.8517 82.477C61.1173 82.2109 61.3828 83.6742 61.5156 84.3393C58.0634 86.0687 54.3456 84.7384 50.7606 85.1375C47.0429 85.5366 43.1924 84.4724 39.4746 85.9356C39.4746 84.2063 39.4746 82.477 39.4746 80.7477C39.4746 80.6147 39.6074 80.4816 39.7402 80.4816C39.8729 80.4816 40.0057 80.6147 40.1385 80.6147Z" fill="#1C2326"/>
<path d="M123.258 50.152C123.258 58.1335 123.39 66.248 123.39 74.2295C121.399 71.702 122.461 68.6424 122.594 65.8489C122.594 60.661 121.664 55.34 123.258 50.152Z" fill="#4C4B48"/>
<path d="M152.866 37.1156C151.406 39.111 149.414 40.4412 147.29 41.7715C146.095 41.7715 144.9 41.7715 143.705 41.7715C136.933 37.7808 136.136 33.524 140.916 27.8039C142.775 27.0058 144.236 26.8727 143.439 29.6663C142.908 30.5974 141.978 31.2626 141.58 32.1937C140.783 33.923 141.315 35.5193 142.775 36.7166C144.368 37.9138 146.227 38.1798 147.821 36.8496C149.148 35.6524 150.609 34.1891 149.148 32.1937C148.617 31.3956 148.086 30.7305 147.688 29.9323C146.758 27.5379 148.086 27.0058 150.078 27.1388C151.937 27.5379 152.601 29.0011 152.999 30.7305C152.866 32.7258 152.866 34.8542 152.866 37.1156Z" fill="#0A7D9C"/>
<path d="M166.144 33.5239C162.426 34.5881 160.302 35.2532 158.044 35.9184C156.982 36.1844 155.654 37.7807 154.991 36.0514C154.459 34.7211 154.459 32.8588 155.123 31.6616C155.92 30.1983 157.381 31.5286 158.31 32.0607C160.434 32.9918 162.559 33.3909 166.144 33.5239Z" fill="#D89D08"/>
<path d="M143.838 18.6252C144.9 17.0289 146.095 16.8959 146.759 18.6252C147.29 20.2215 148.883 22.3499 147.423 23.5471C146.36 24.4783 143.439 25.1434 142.775 22.0839C144.103 21.2857 143.705 19.8224 143.838 18.6252Z" fill="#D49B08"/>
<path d="M150.078 27.8039C149.148 28.07 147.024 27.0058 148.352 29.5333C147.953 30.3314 147.289 30.7305 146.493 31.1295C145.829 31.2626 145.298 31.2626 144.634 31.1295C143.837 30.8635 143.04 30.4644 142.775 29.5333C144.103 27.0058 141.845 28.07 141.049 27.8039C141.713 27.1388 142.244 26.6067 142.908 25.9416C144.767 25.9416 146.758 25.9416 148.617 25.9416C148.883 26.7397 150.742 26.0746 150.078 27.8039Z" fill="#156B7E"/>
<path d="M150.078 27.8039C149.547 27.2718 149.015 26.6067 148.352 26.0746C150.21 25.8085 151.937 25.1434 153.53 27.1388C154.858 28.8681 152.999 29.4002 152.733 30.5974C151.937 29.6662 151.007 28.7351 150.078 27.8039Z" fill="#28261B"/>
<path d="M130.825 35.1202C130.56 34.9872 130.294 34.9872 129.896 34.9872C129.232 34.5881 128.568 34.3221 126.842 33.524C130.56 33.3909 132.684 31.5286 135.605 30.7304C136.402 32.7258 136.8 35.1202 135.605 36.3175C134.277 37.7807 132.684 34.8542 130.825 35.1202Z" fill="#DEA408"/>
<path d="M149.149 42.7026C149.149 43.8998 148.751 44.964 147.423 45.3631C144.103 45.2301 145.697 46.8264 146.493 48.1566C146.361 49.886 146.095 51.2162 143.838 50.019C143.838 49.6199 143.705 49.0878 143.705 48.6887C144.236 46.6934 140.651 44.964 142.51 43.3677C144.103 41.7715 146.892 42.8356 149.149 42.7026Z" fill="#C48B07"/>
<path d="M146.361 48.1567C142.909 48.9548 145.166 45.8953 144.236 45.0971C145.431 44.166 146.361 44.299 147.29 45.3632C146.626 45.7622 146.361 46.4274 146.494 47.2255C146.494 47.4916 146.494 47.7576 146.361 48.1567Z" fill="#F8BA0B"/>
<path d="M112.9 83.4081C109.448 83.4081 106.129 83.4081 102.677 83.4081C101.747 83.4081 100.685 83.5412 100.419 82.3439C100.021 81.1467 101.216 81.0137 101.88 80.4816C104.137 78.8853 106.129 78.3532 108.253 80.6146C109.581 81.8118 110.909 83.0091 112.9 83.4081Z" fill="#245967"/>
<path d="M100.021 78.7523C103.474 75.6927 106.926 75.5597 110.378 78.7523C107.059 77.156 103.474 78.2202 100.021 78.7523Z" fill="#464244"/>
<path d="M58.7275 99.1051C63.3747 96.9767 68.1547 98.3069 72.9346 98.4399C74.7935 98.4399 74.7935 100.169 74.528 101.633C73.7313 105.357 69.6152 108.018 65.3663 107.752C61.383 107.486 58.7275 104.559 58.5947 100.302C59.9225 99.3711 60.188 100.834 60.9847 101.366C61.6486 102.165 62.4453 102.697 63.3747 103.096C65.4991 104.692 67.4908 104.426 69.4824 102.83C70.2791 102.298 70.5447 101.499 70.6774 100.568C66.6941 99.6372 62.4453 101.633 58.7275 99.1051Z" fill="#773923"/>
<path d="M58.7275 99.1051C63.2419 99.1051 67.6235 99.1051 72.1379 99.2381C72.2707 99.2381 72.2707 99.3711 72.4035 99.5041C72.1379 99.7702 71.7396 100.036 71.474 100.169C68.0218 102.298 63.9058 100.435 60.3208 101.766C59.6569 101.233 59.1258 100.568 58.4619 100.036C58.5947 99.7702 58.7275 99.5041 58.7275 99.1051Z" fill="#491A0A"/>
<path d="M83.8224 165.883C83.6896 168.81 82.2291 171.204 78.9096 171.204C75.5902 171.204 73.333 169.475 73.333 165.883C73.333 162.558 75.1919 160.562 78.2458 160.429C81.5652 160.296 83.6896 162.026 83.8224 165.883Z" fill="#14545F"/>
<path d="M47.3086 83.4081C51.2919 81.0137 53.8147 77.422 57.9307 80.4816C58.5946 81.0137 59.5241 81.6788 58.993 82.743C58.5946 83.5412 57.6652 83.4081 57.0013 83.4081C54.0802 83.4081 51.2919 83.4081 47.3086 83.4081Z" fill="#255967"/>
<path d="M142.642 29.5332C143.439 29.6662 144.103 29.7992 144.634 30.5974C144.634 30.7304 144.634 30.8634 144.501 30.9965C144.236 32.1937 142.775 33.3909 144.103 34.7212C144.634 35.3863 145.431 35.3863 146.227 34.8542C148.086 33.5239 146.227 32.0607 146.36 30.7304C146.758 29.7993 147.555 29.5332 148.485 29.4002C151.937 33.2579 152.07 35.3863 148.75 37.7807C145.962 39.7761 143.174 39.244 141.049 36.4505C138.925 33.657 139.987 31.3955 142.642 29.5332Z" fill="#135663"/>
<path d="M146.227 30.8634C147.954 32.1937 149.945 33.3909 147.555 35.7853C146.095 37.2486 144.501 37.3816 143.174 36.0514C140.651 33.5239 142.51 32.0606 144.634 30.7304C145.165 30.5974 145.696 30.7304 146.227 30.8634Z" fill="#53CDD6"/>
<path d="M70.4124 103.628C67.7569 105.357 65.1013 106.421 62.4458 103.628C61.5163 102.298 59.923 100.701 63.2424 100.568C65.2341 100.435 67.2257 100.435 69.0846 100.568C71.3418 100.834 71.6074 101.899 70.4124 103.628Z" fill="#E54A09"/>
<path d="M70.4123 103.628C69.8812 98.4399 66.0307 101.766 63.7735 101.1C61.2507 100.435 62.1802 102.431 62.4457 103.628C61.3835 103.362 60.8524 102.697 60.3213 101.766C61.2507 98.706 63.7735 100.169 65.6324 100.036C67.4912 99.7702 69.4829 100.036 71.4746 100.169C71.4746 101.499 72.0057 102.963 70.4123 103.628Z" fill="#A4330A"/>
<path d="M81.8312 165.617C81.4329 167.613 80.5034 168.81 78.7773 168.943C76.7857 169.076 75.4579 167.613 75.3251 165.883C75.1924 164.021 76.7857 162.691 78.5118 162.691C80.3707 162.558 81.4329 164.021 81.8312 165.617Z" fill="#53D4E0"/>
</g>
<defs>
<filter id="filter0_d" x="0.15625" y="0.00183105" width="183" height="209" filterUnits="userSpaceOnUse" color-interpolation-filters="sRGB">
<feFlood flood-opacity="0" result="BackgroundImageFix"/>
<feColorMatrix in="SourceAlpha" type="matrix" values="0 0 0 0 0 0 0 0 0 0 0 0 0 0 0 0 0 0 127 0"/>
<feOffset dy="4"/>
<feGaussianBlur stdDeviation="2"/>
<feColorMatrix type="matrix" values="0 0 0 0 0 0 0 0 0 0 0 0 0 0 0 0 0 0 0.25 0"/>
<feBlend mode="normal" in2="BackgroundImageFix" result="effect1_dropShadow"/>
<feBlend mode="normal" in="SourceGraphic" in2="effect1_dropShadow" result="shape"/>
</filter>
<clipPath id="clip0">
<rect width="175" height="201" fill="white" transform="translate(4.15625 0.00183105)"/>
</clipPath>
</defs>
</svg>
