<svg width="174" height="233" viewBox="0 0 174 233" fill="none" xmlns="http://www.w3.org/2000/svg">
<g clip-path="url(#clip0)">
<path d="M14.9799 221.789C20.8534 218.784 27.5464 219.194 33.8297 218.101C38.3372 217.418 42.8448 217.418 47.4889 217.418C50.0842 217.418 49.2646 215.506 49.2646 214.413C49.4012 208.54 49.4012 202.666 49.5378 196.793C52.133 197.339 52.4062 199.525 52.5428 201.437C52.6794 205.944 52.9526 210.588 52.2696 215.096C51.9964 217.418 50.3573 220.287 54.3185 221.106C59.3724 222.199 61.8311 221.106 63.0604 217.418C63.4702 216.325 63.3336 215.233 63.6068 214.14C65.7923 210.862 64.9727 206.354 68.3875 203.622C70.2998 203.076 72.0755 202.939 73.8512 204.032C74.261 204.442 74.3976 204.852 74.1244 205.398C73.4414 206.218 72.2121 206.491 71.3926 207.174C69.4803 208.676 67.9778 210.998 68.5241 213.32C69.2071 215.506 71.8023 214.413 73.578 214.55C82.0468 214.686 90.6521 214.686 99.1208 214.55C104.721 214.55 104.858 214.276 103.355 208.949C103.082 207.857 102.672 206.901 103.082 205.671C104.038 204.442 104.858 205.261 105.677 205.808C107.18 207.583 107.999 209.632 108.409 211.818C108.546 213.594 109.365 215.233 109.912 216.735C111.414 220.696 115.512 222.335 119.473 220.833C121.795 220.013 120.976 217.964 121.249 216.325C121.249 210.862 121.112 205.535 121.249 200.207C121.385 197.885 121.112 195.29 124.39 194.744C122.888 200.617 123.571 206.627 123.298 212.637C123.161 215.779 124.39 217.691 127.532 217.418C134.635 216.872 141.328 219.33 148.157 219.467C148.431 219.467 148.84 219.33 149.114 219.467C151.299 220.696 155.26 220.56 155.26 223.565C155.397 226.98 151.436 226.433 149.387 226.843C134.225 229.711 118.79 231.077 103.355 230.941C96.1158 230.804 88.8764 231.897 81.637 231.624C63.6068 230.941 45.44 230.804 27.4098 228.892C24.1316 228.482 21.1266 226.98 17.7118 226.98C16.7556 226.297 15.6629 226.433 14.7067 225.887C11.8383 224.794 11.8383 223.701 14.9799 221.789Z" fill="#DDD7BF"/>
<path d="M73.9876 13.2128C76.1731 12.6664 78.222 11.3005 80.5441 11.3005C82.5929 11.0273 84.6418 9.66137 86.4175 11.7103C83.5491 15.3983 84.5052 19.2228 85.7346 23.184C87.5103 28.9209 89.1494 34.6578 90.3787 40.5313C91.1983 44.2192 92.5642 47.3609 96.662 48.317C95.979 51.8684 93.5203 51.322 91.0617 50.7757C90.3787 50.6391 88.4664 50.2293 88.1932 50.5025C84.6418 42.0338 82.8661 33.0187 80.2709 24.2768C79.7245 22.6376 79.4513 20.8619 78.9049 19.2228C78.4952 18.1301 77.9488 16.9008 76.7195 17.3105C75.217 17.7203 75.7633 19.2228 76.1731 20.179C78.3586 26.7354 80.2709 33.4284 82.3198 40.1215C83.5491 43.9461 83.6857 48.317 88.1932 50.3659C89.0128 51.5952 88.0566 52.1416 87.3737 52.8246C83.9589 53.2343 80.9538 55.9662 77.2658 54.6003C77.1292 54.4637 76.9927 54.1905 76.9927 54.1905C81.0904 50.0927 78.222 45.8584 76.9927 41.7606C74.6706 33.8382 72.8949 25.6427 69.4801 17.9935C68.3873 16.6276 67.0214 15.2617 70.163 14.5787C71.3924 14.3055 72.8949 14.3055 73.9876 13.2128Z" fill="#5E1A47"/>
<path d="M29.0488 100.905C27.6829 94.3487 27.8195 87.6556 27.6829 81.0992C27.5463 77.5478 26.5901 76.4551 23.0387 76.5917C14.2968 77.138 7.46721 73.1768 2.95967 65.6643C-2.36744 56.6492 1.59374 43.6729 11.4284 37.7994C16.3457 34.7944 21.5362 32.0625 27.1365 30.4234C27.8195 32.7455 25.634 32.6089 24.5413 33.1553C25.9072 32.7455 27.1365 32.1991 27.2731 34.3846C23.8583 36.2969 20.0337 37.5262 16.6189 39.4385C12.6577 41.624 9.24292 44.3559 6.92084 48.317C1.86693 56.9224 5.55492 67.5766 14.9798 70.9914C19.2142 72.4939 23.4485 73.8598 27.8195 71.8109C29.1854 71.128 30.9611 70.8548 32.0538 72.6305C30.4147 74.5428 29.8684 76.5917 30.1416 79.3235C30.6879 84.9238 30.2781 90.6607 30.4147 96.3976C30.4147 98.0367 30.5513 99.8124 29.0488 100.905Z" fill="#7B385B"/>
<path d="M88.1933 50.5024C89.8324 49.6829 88.8763 48.0438 89.5592 46.4047C90.7886 52.2781 93.657 50.639 96.7986 48.5901C97.345 46.5412 99.3939 46.4047 100.896 46.1315C105.131 45.3119 109.365 43.946 113.736 43.6728C116.605 43.6728 119.473 43.946 122.068 42.4435C122.478 42.3069 123.024 42.1703 123.434 42.0337C129.717 40.6678 136.137 40.941 142.557 40.258C148.431 40.5312 152.665 47.9072 150.753 54.7368C148.567 59.9273 144.333 63.0689 139.689 65.8008C139.006 65.8008 138.869 66.2105 138.733 66.7569C137.64 67.8497 136.41 67.8497 135.181 67.0301C134.088 64.1617 136.547 63.2055 138.186 61.8396C140.508 59.9273 143.103 58.4248 145.016 56.1027C146.518 54.1904 148.84 52.0049 147.338 49.4097C145.699 46.4047 142.967 44.0826 139.142 44.629C124.117 47.0876 108.819 48.5901 94.0668 52.9611C91.8813 53.644 89.6958 54.0538 87.647 52.9611C87.5104 52.8245 87.3738 52.5513 87.1006 52.4147C87.5104 51.7318 87.9201 51.0488 88.1933 50.5024Z" fill="#18222C"/>
<path d="M27.1365 34.3846C26.7267 33.0187 25.2242 33.565 24.2681 33.0187C25.0876 32.0625 26.9999 32.1991 27.1365 30.4234C31.5075 28.3745 35.7418 25.9159 40.5226 24.9597C41.6153 25.2329 42.8446 24.5499 43.5276 25.9159C43.1178 28.9209 36.9712 27.555 38.8835 32.1991C39.9762 34.931 41.2055 37.6628 42.2983 40.5312C42.5714 42.1704 42.708 43.9461 41.0689 45.0388C39.1566 45.4486 38.7469 43.8095 38.2005 42.5801C37.1078 40.2581 36.1516 37.936 35.1955 35.6139C34.6491 34.3846 34.5125 31.9259 32.327 32.8821C30.5513 33.7016 31.9172 35.4773 32.4636 36.5701C34.1027 40.2581 35.6052 44.2192 37.5175 47.7706C39.703 51.8684 41.0689 56.2394 43.2544 60.3371C43.9374 61.7031 44.3471 63.3422 44.074 64.9813C43.1178 67.8497 42.1617 70.8548 38.0639 69.8986C40.2494 64.4349 37.1078 59.9274 35.0589 55.2832C32.7368 50.0927 30.5513 44.9022 28.0927 39.7117C27.4097 38.0726 26.0438 36.4335 27.1365 34.3846Z" fill="#5E1845"/>
<path d="M116.604 3.65117C125.483 1.46569 134.635 0.37295 143.786 0.0997652C152.801 -0.17342 160.451 5.29028 163.456 13.3492C164.958 17.0372 165.778 20.8618 164.139 24.823C163.456 25.6425 162.636 26.3255 161.407 25.6425C160.587 24.14 161.134 22.5009 161.134 20.9984C161.134 12.2565 154.441 5.29028 145.699 5.15368C142.42 5.01709 139.006 5.42687 135.727 4.74391C132.176 3.78776 128.488 4.19754 124.937 4.8805C122.615 5.29028 120.292 5.42687 117.834 4.74391C117.287 4.47072 116.878 4.06094 116.604 3.65117Z" fill="#794660"/>
<path d="M64.5627 214.14C64.2895 221.926 59.2356 225.341 52.2693 222.609C49.6741 221.516 50.0839 219.331 50.357 217.282C51.1766 212.091 50.6302 206.901 50.9034 201.71C50.9034 199.935 50.9034 198.159 49.4009 196.93C48.9911 194.607 46.9422 192.832 47.352 190.236C46.5325 189.007 46.9422 187.641 46.3959 186.412C46.3959 184.363 45.8495 182.178 46.9422 180.129C48.8545 179.309 49.1277 180.812 49.2643 181.904C49.8107 187.231 52.4059 192.012 53.6353 197.066C53.3621 201.71 53.3621 206.491 53.4987 211.135C56.6403 211.272 59.7819 209.769 62.5138 212.228C61.8308 215.096 59.3721 214.004 57.4598 214.413C56.2305 214.687 54.8646 214.823 54.5914 216.462C54.4548 217.418 55.0012 217.965 55.8207 218.238C57.0501 218.648 58.2794 218.511 59.2356 217.418C60.4649 216.189 60.8747 214.413 62.2406 213.184C63.6065 212.501 64.0163 213.457 64.5627 214.14Z" fill="#724863"/>
<path d="M149.25 101.724C148.021 112.106 143.513 120.984 136.411 128.497C135.454 129.453 134.225 130.409 134.225 132.048C132.996 133.141 131.903 132.321 130.947 131.502C130.127 128.906 132.04 127.404 133.405 125.765C137.776 120.574 141.328 114.974 143.513 108.418C145.152 103.773 145.699 99.4024 143.377 94.8949C144.196 94.2119 145.016 94.0753 145.972 94.2119C146.518 94.4851 147.201 94.4851 147.065 95.4412C147.338 95.1681 147.338 94.7583 147.201 94.3485C146.792 91.8898 146.792 89.4312 147.065 86.9725C147.201 86.5627 147.338 86.0164 147.611 85.7432C148.021 85.3334 148.431 85.3334 148.84 85.6066C149.797 91.0703 150.206 96.3974 149.25 101.724Z" fill="#776D65"/>
<path d="M124.39 195.154C122.478 196.793 122.341 198.978 122.341 201.164C122.341 206.764 122.341 212.228 122.205 217.828C119.61 217.009 120.566 214.687 120.156 212.911C120.019 208.13 120.566 203.213 119.61 198.432C119.063 195.837 120.429 193.651 120.975 191.193C122.205 186.275 125.483 181.221 122.068 175.894C121.932 175.348 122.205 174.938 122.615 174.528C124.663 173.845 126.303 173.982 126.712 176.441C126.439 174.528 126.303 172.616 128.078 171.114C129.991 169.611 132.176 169.611 134.361 170.157C135.727 170.84 137.776 170.704 137.503 173.026C128.625 172.07 128.625 172.07 127.805 181.358C127.532 186.275 125.893 190.646 124.39 195.154Z" fill="#774067"/>
<path d="M161.68 25.6424C162.226 25.3692 162.772 24.9595 163.319 24.6863C164.138 25.779 163.729 26.7352 163.455 27.8279C161.543 34.6575 156.626 38.4821 150.479 40.9408C147.747 42.0335 147.611 42.8531 149.523 44.7654C152.665 47.7704 153.074 51.3218 150.889 55.0098C150.616 55.4196 150.343 55.4196 150.069 55.0098C152.801 49.1363 148.157 45.5849 145.698 41.3506C145.015 40.2578 143.65 40.9408 142.557 40.8042C141.601 41.3505 140.644 41.214 139.688 41.0774C138.869 39.4383 140.235 39.0285 141.191 38.8919C150.616 38.4821 156.899 33.155 161.68 25.6424Z" fill="#6F3756"/>
<path d="M137.776 173.299C136.82 172.616 135.727 171.933 134.771 171.25C134.361 165.923 138.459 166.606 141.737 166.059C143.923 166.742 145.972 168.245 148.43 167.835C150.616 168.381 152.938 168.655 153.757 171.25C148.84 175.757 143.24 174.118 137.776 173.299Z" fill="#775E2E"/>
<path d="M73.9878 13.2126C73.0316 14.7152 71.5291 14.8518 70.0266 15.3981C67.8411 16.0811 70.2998 16.4909 70.1632 17.0372C63.7433 21.2716 56.5039 23.1839 48.9913 24.2766C47.6254 24.14 46.1229 24.5498 45.4399 22.7741C54.5916 18.6763 64.0165 15.2615 73.9878 13.2126Z" fill="#784461"/>
<path d="M146.245 145.571C149.387 142.839 152.392 143.112 155.533 145.844C159.221 148.986 163.729 147.073 167.827 147.346C171.378 147.62 173.017 148.576 173.017 152.4C173.017 158.957 173.154 158.957 166.734 158.82C164.958 158.82 163.319 158.957 161.543 159.093C161.27 158.684 161.27 158.137 161.543 157.727C161.953 157.454 162.363 157.181 162.773 157.045C164.412 156.635 166.188 156.771 167.963 156.771C170.012 156.771 170.695 155.815 170.695 153.766C170.695 151.854 170.149 150.761 168.1 150.761C164.822 150.625 161.543 150.898 158.265 150.488C157.036 150.215 156.08 149.805 154.987 149.259C153.485 148.166 151.845 147.62 150.07 147.21C148.704 146.8 147.201 146.8 146.245 145.571Z" fill="#777368"/>
<path d="M130.674 131.092C131.903 131.502 132.996 131.775 134.225 132.185C137.23 133.141 139.006 135.19 140.508 137.785C142.011 140.927 143.103 144.068 143.786 147.483C142.694 150.625 140.918 151.034 138.459 148.986C138.05 148.303 137.776 147.62 137.776 146.8C137.776 146.117 137.913 145.434 138.323 144.751C139.006 143.932 140.235 145.024 140.235 144.751C140.372 142.156 134.498 135.326 131.903 134.78C131.357 134.643 130.674 135.19 130.127 135.326C129.034 134.37 127.532 134.507 126.166 133.96C126.576 131.365 128.215 130.546 130.674 131.092Z" fill="#6C5429"/>
<path d="M47.3521 186.548C47.3521 187.778 47.3521 189.007 47.3521 190.236C44.347 182.997 43.8007 175.348 43.9373 167.562C44.0739 164.83 43.6641 162.508 40.5225 161.825C40.7956 161.415 41.2054 161.142 41.6152 161.006C42.8445 160.732 43.9373 161.006 44.8934 161.962C45.713 162.781 46.5325 163.737 46.9423 164.967C47.2155 165.65 47.3521 166.333 47.4887 167.152C47.3521 169.884 48.4448 172.616 48.035 175.348C47.3521 179.036 45.8496 182.724 47.3521 186.548Z" fill="#61605D"/>
<path d="M92.8375 8.02214C100.76 6.79281 108.409 3.65118 116.605 3.65118C116.741 3.78778 116.878 3.92437 117.014 4.06096C116.878 5.70007 114.283 5.42688 114.556 7.20259C114.009 7.74896 113.326 8.29532 112.507 8.29532C106.907 8.43192 101.716 10.4808 96.1158 10.754C94.7498 10.2076 91.7448 11.7101 92.8375 8.02214Z" fill="#764F64"/>
<path d="M41.6154 161.552C41.2056 161.688 40.9325 161.688 40.5227 161.825C30.2782 156.225 27.1366 145.434 33.0101 136.009C33.1467 136.146 33.2833 136.282 33.5565 136.555C34.376 138.468 33.2833 140.107 33.0101 141.883C31.7808 146.39 33.0101 150.351 35.4688 154.176C36.8347 156.361 39.0202 157.727 40.9325 159.23C41.4788 159.913 41.8886 160.596 41.6154 161.552Z" fill="#65523E"/>
<path d="M143.376 147.483C142.42 144.205 141.464 140.926 140.645 137.785C142.01 139.287 143.24 140.926 143.24 143.112C143.24 145.297 144.469 145.707 146.245 145.571C147.611 145.844 149.113 145.161 150.069 146.663C150.206 147.346 149.933 147.893 149.386 148.166C146.791 149.395 148.021 150.625 149.25 151.99C148.294 154.449 146.381 154.722 144.333 153.63C141.601 152.127 143.24 149.668 143.376 147.483Z" fill="#645A56"/>
<path d="M29.0488 100.905C29.1854 99.2658 29.322 97.7633 29.4586 96.1241C32.8734 97.7633 30.6879 101.178 31.9173 103.5C32.0539 109.51 34.2393 114.974 35.6053 120.711C35.4687 121.257 35.1955 121.667 34.7857 121.94C29.7318 115.793 29.4586 108.281 29.0488 100.905Z" fill="#23363B"/>
<path d="M153.621 171.25C151.845 170.431 149.933 169.474 148.157 168.655C150.07 165.65 152.938 164.42 156.216 163.874C157.719 164.284 158.538 164.967 157.719 166.606C157.036 168.791 155.397 170.021 153.621 171.25Z" fill="#503F27"/>
<path d="M148.294 85.6067C148.157 86.0165 148.157 86.2897 148.021 86.6994C145.562 86.4263 142.83 86.6994 141.328 83.9676C143.377 82.3285 143.513 80.5528 142.284 78.2307C141.055 75.9086 139.689 73.5866 141.055 70.7181C141.191 70.5815 141.464 70.4449 141.601 70.3083C142.967 70.4449 142.147 72.2206 143.24 72.4938C145.972 76.455 147.748 80.826 148.294 85.6067Z" fill="#463F3A"/>
<path d="M157.856 166.743C157.719 165.513 157.173 164.694 155.807 164.694C156.08 162.781 154.714 161.689 153.758 160.459C155.534 157.454 158.402 157.454 161.407 158.001C161.544 158.41 161.544 158.82 161.68 159.23C161.817 162.372 160.451 164.83 157.856 166.743Z" fill="#76665A"/>
<path d="M92.8373 8.02206C92.7007 10.8905 95.0227 8.84162 95.9789 9.66117C93.6568 13.7589 89.9688 12.9394 86.4174 12.2564C84.6417 10.7539 82.4562 12.1198 80.5439 11.4369C84.3685 9.2514 88.7395 8.97821 92.8373 8.02206Z" fill="#7D4B66"/>
<path d="M33.0098 136.009C34.5123 133.414 35.8782 130.955 39.1564 130.272C39.5662 129.999 39.8394 130.136 40.1126 130.409C40.6589 131.365 42.298 131.912 41.4785 133.414C39.4296 134.507 37.6539 135.736 36.4246 137.785C34.7855 138.741 34.1025 137.512 33.4195 136.419C33.2829 136.419 33.1464 136.146 33.0098 136.009Z" fill="#65523E"/>
<path d="M150.206 55.1465C150.479 55.1465 150.752 55.1465 151.026 55.1465C148.84 60.337 145.289 64.025 139.688 65.5275C143.24 62.2493 147.611 59.654 150.206 55.1465Z" fill="#E2CAB1"/>
<path d="M148.294 85.6066C146.655 81.2357 144.879 77.0013 143.24 72.6303C147.338 76.0452 148.43 80.8259 149.113 85.7432C148.703 85.7432 148.567 85.6066 148.294 85.6066Z" fill="#E2CAB1"/>
<path d="M39.1566 130.409C40.2493 128.36 38.4736 127.404 37.5175 126.175C36.4248 124.945 35.0588 123.853 34.7856 122.077L35.0588 121.804C39.2932 120.848 40.5225 123.716 41.6153 126.858C41.4787 128.224 42.025 129.726 40.1127 130.272C39.8396 130.272 39.4298 130.272 39.1566 130.409Z" fill="#23363B"/>
<path d="M149.25 101.725C149.25 96.3976 149.113 91.0705 149.113 85.7433C150.479 91.0705 151.845 96.3976 149.25 101.725Z" fill="#E2CAB1"/>
<path d="M163.592 27.9646C163.592 26.8718 163.456 25.9157 163.456 24.8229C165.778 20.9984 163.319 17.3104 163.456 13.4858C166.597 18.2665 166.188 23.0472 163.592 27.9646Z" fill="#755064"/>
<path d="M45.3032 22.7742C46.2593 23.5937 47.0789 23.8669 48.035 22.7742C48.035 25.9158 47.4887 26.189 43.5275 25.6426C42.5713 25.506 41.342 25.7792 40.5225 24.8231C42.2982 24.2767 43.3909 22.6376 45.3032 22.7742Z" fill="#561F36"/>
<path d="M134.908 66.6204C136.137 66.6204 137.503 66.6204 138.732 66.6204C140.098 67.5766 140.918 68.9425 141.601 70.445C140.781 71.8109 139.825 71.9475 138.596 70.9914C137.503 70.0352 136.274 69.4889 135.044 68.9425C134.498 68.3961 134.361 67.8498 134.498 67.1668C134.635 67.0302 134.771 66.757 134.908 66.6204Z" fill="#3A362A"/>
<path d="M62.3774 213.321C59.9188 211.135 56.9137 212.638 54.1819 212.364C53.0891 212.228 51.7232 212.774 51.8598 211.135C52.133 206.491 50.9037 201.71 52.6794 197.066C57.4601 197.749 61.9676 198.978 66.3386 200.891C67.4313 201.847 68.6607 202.803 68.1143 204.579C66.6118 207.72 66.4752 211.408 64.4263 214.14C63.8799 213.867 63.0604 213.594 62.3774 213.321Z" fill="#2C2E43"/>
<path d="M120.292 197.612C122.888 202.53 120.839 207.857 121.385 213.047C116.741 213.32 111.96 214.823 107.316 212.228C106.633 210.315 105.95 208.403 105.267 206.354C104.721 205.398 103.628 204.579 104.311 203.349C106.087 201.847 108.409 201.847 110.458 201.027C111.687 200.617 112.78 199.798 113.872 199.115C116.058 198.705 117.97 196.929 120.292 197.612Z" fill="#243C44"/>
<path d="M104.311 203.622C104.721 204.579 105.541 205.261 105.267 206.354C104.721 206.081 104.038 205.671 103.492 205.398C102.126 204.579 101.033 205.398 100.077 205.944C92.8374 210.042 85.4614 209.769 78.0854 206.354C76.7195 205.808 75.6268 205.125 74.1243 205.261C73.9877 204.988 73.9877 204.852 73.8511 204.579C75.0804 202.939 76.9927 203.213 78.7684 202.939C86.5542 204.988 94.2033 204.305 101.716 201.3C103.082 201.573 104.038 202.256 104.311 203.622Z" fill="#6C5E4E"/>
<path d="M107.453 212.228C112.097 212.774 116.878 211.135 121.522 213.047C121.795 214.686 120.975 216.462 122.341 217.828C123.297 221.243 122.068 222.745 118.38 222.745C109.911 223.019 109.228 222.472 107.453 212.228Z" fill="#72405D"/>
<path d="M78.6317 203.759C77.2658 205.398 75.3535 204.169 73.851 204.715C71.9387 204.715 70.163 204.579 68.2507 204.579C67.5677 203.622 67.0213 202.666 66.3384 201.574C67.2945 200.617 68.797 200.208 69.3434 198.705C69.8898 197.612 70.7093 197.066 71.9387 196.793C74.2607 196.793 76.3096 195.564 78.4951 195.29C79.861 195.427 81.227 195.7 82.4563 196.52C83.4124 198.978 81.0904 198.842 79.861 199.388C77.1292 200.481 77.4024 201.847 78.6317 203.759Z" fill="#412E35"/>
<path d="M43.664 25.7792C45.4397 25.2328 47.6252 25.2328 48.1716 22.9108C50.7669 24.0035 52.9523 22.7742 55.2744 22.0912C60.1917 20.4521 65.2456 18.813 70.163 17.0373C73.5778 21.5448 73.5778 27.2817 75.4901 32.3356C77.2658 36.8432 77.8121 41.8971 79.7244 46.2681C81.6367 50.5024 80.6806 52.6879 76.7194 54.0538C76.5828 54.1904 76.4462 54.4636 76.3096 54.6002C69.6166 58.1516 62.104 59.7907 55.1378 62.9323C52.1328 63.7519 50.2205 62.5226 49.1277 59.7907C46.3959 53.2343 42.8445 47.0876 41.6152 39.9848C40.659 38.7555 40.1126 37.3896 39.7029 35.887C37.2442 28.7842 37.1076 28.7842 43.664 25.7792Z" fill="#EA4399"/>
<path d="M86.4176 12.2564C89.4227 10.8905 93.3838 12.393 95.9791 9.66112C102.262 8.15861 108.955 8.43179 114.965 5.83653C117.834 5.69994 118.244 8.02201 118.653 9.93431C120.702 19.6324 121.658 29.467 123.571 39.3017C123.844 40.531 123.434 41.7603 122.478 42.7165C119.883 44.3556 116.741 43.6726 114.009 44.7654C108.272 45.5849 102.536 46.6777 96.9352 48.4534C93.1107 49.1363 91.0618 48.0436 90.2422 43.8092C88.3299 35.2039 86.0079 26.7352 83.4126 18.2664C82.0467 14.5784 82.8662 12.9393 86.4176 12.2564Z" fill="#EA4399"/>
<path d="M88.1932 50.5024C84.915 51.0488 83.6857 49.6829 82.7295 46.5413C80.1342 37.253 77.1292 28.1013 74.2608 18.813C73.851 17.4471 73.5778 15.808 75.6267 15.3982C77.1292 15.125 79.0415 14.5786 79.5879 16.7641C82.3197 27.9647 86.6907 38.8921 88.1932 50.5024Z" fill="#B4268F"/>
<path d="M76.7195 54.0539C80.5441 54.8735 83.4125 51.0489 87.2371 52.2782L87.3737 52.4148C85.598 55.8296 81.2271 57.4687 76.3097 56.6492C74.9438 55.5564 75.9 54.8735 76.7195 54.0539Z" fill="#1C1D29"/>
<path d="M27.1364 34.3845C31.2341 43.5361 35.1953 52.8244 39.4297 61.9761C41.0688 65.2543 41.342 67.713 37.654 69.4887C36.288 71.6742 34.3757 72.6303 31.9171 72.3571C26.8632 72.9035 22.219 74.9524 16.7553 73.0401C4.05224 68.8057 -0.728492 56.649 7.33046 45.8582C12.1112 39.3018 19.214 35.7504 27.1364 34.3845Z" fill="#EA4399"/>
<path d="M32.0536 72.3573C33.9659 71.4011 35.8782 70.445 37.7905 69.4888C41.3419 69.8986 42.1614 67.1668 43.5274 64.8447C44.3469 64.7081 45.1665 64.5715 45.986 64.5715C48.5813 62.386 52.4059 63.8886 55.1377 61.9763C62.3771 59.1078 69.4799 56.1028 76.9925 54.3271C76.7193 55.01 76.3095 55.693 76.0364 56.2394C76.3095 58.4249 74.5338 58.698 73.1679 59.2444C61.2844 63.8886 49.1277 68.1229 37.6539 73.7232C33.9659 75.4989 32.4634 77.821 32.7366 81.7822C32.8732 87.2458 32.8732 92.8461 32.7366 98.4464C32.7366 100.359 33.0098 102.271 31.3706 103.774C29.1852 101.588 31.5072 98.4464 29.7315 96.1244C28.6388 89.4313 30.5511 82.4651 28.5022 75.7721C27.5461 73.45 31.0975 73.8598 32.0536 72.3573Z" fill="#1F222D"/>
<path d="M31.0976 103.773C31.0976 95.5779 31.2342 87.2458 31.0976 79.0502C31.0976 76.3184 31.9171 74.8159 34.3758 73.4499C45.7129 67.5765 58.1429 64.2982 69.48 58.4248C71.5289 57.332 74.3973 59.1077 75.7633 56.1027C79.9976 56.1027 83.8222 54.7368 87.237 52.2781C92.1544 52.9611 96.3887 50.3658 100.896 49.6829C111.141 47.9072 121.249 44.9021 131.766 44.6289C133.405 44.6289 135.181 44.0826 136.82 43.5362C141.328 42.1703 147.884 45.0387 149.25 49.4097C150.07 52.0049 148.157 54.0538 146.655 55.9661C144.606 58.5614 142.011 60.7468 139.142 62.3859C137.366 63.4787 135.727 64.708 134.771 66.6203C128.488 71.2645 121.385 74.4061 114.556 77.9575C111.277 79.5966 108.819 79.1868 107.043 75.772C103.492 69.2156 97.3449 66.7569 90.6518 66.2105C83.9588 65.6642 77.1292 65.5276 70.4362 67.5765C67.9775 68.2594 65.6554 69.079 63.7431 70.8547C56.3672 74.8159 54.728 82.6016 51.1766 89.1581C49.8107 95.8511 50.7669 102.681 50.6303 109.374C50.4937 113.472 50.6303 117.569 50.6303 121.667C50.4937 127.95 46.5325 129.863 40.7956 126.584C39.9761 123.716 37.7906 122.487 35.1953 121.804C33.283 115.794 30.4146 110.193 31.0976 103.773Z" fill="#0B3841"/>
<path d="M122.342 42.7167C120.702 31.6527 119.063 20.7253 117.288 9.6613C117.014 8.15879 116.605 6.51968 114.966 5.83672C114.419 3.78783 116.605 5.01716 117.014 4.06102C121.795 3.65124 126.576 3.24146 131.357 2.96828C132.859 2.83168 134.498 2.42191 135.864 3.65124C130.264 6.79286 130.674 6.79286 131.083 13.7591C131.493 20.4521 133.542 26.7353 133.406 33.4284C133.269 37.6627 135.864 39.575 139.416 40.8044C140.508 40.941 141.601 40.941 142.694 41.0775C142.284 41.3507 141.874 41.7605 141.464 41.6239C135.045 40.941 128.761 43.263 122.342 42.7167Z" fill="#641A4A"/>
<path d="M113.873 44.7656C116.468 43.1265 119.473 42.9899 122.341 42.7167C120.156 45.7218 116.878 44.629 113.873 44.7656Z" fill="#641A4A"/>
<path d="M45.3031 65.6641C44.4836 65.6641 43.8006 65.6641 43.3908 64.8445C41.2054 57.4685 37.2442 50.7755 34.3757 43.8093C33.283 41.0775 32.3269 38.209 30.6877 35.7504C29.1852 33.2917 29.4584 32.3355 31.9171 31.1062C34.5123 29.8769 34.9221 31.9258 35.6051 33.4283C37.2442 37.2529 38.8833 41.2141 40.5224 45.0386C45.1665 49.8194 46.5325 56.1026 48.1716 62.2493C48.7179 64.025 47.2154 65.1177 45.3031 65.6641Z" fill="#B72691"/>
<path d="M45.3032 65.6643C47.3521 64.4349 47.8985 62.5226 46.9423 60.3372C44.7568 55.1466 42.5713 49.9561 40.5225 44.7656C42.2982 43.3997 41.342 41.624 41.6152 39.9849C44.4836 46.4047 47.3521 52.8246 49.9473 59.2444C50.9035 61.7031 52.406 62.6592 54.8647 61.8397C52.1328 64.1617 48.5814 64.5715 45.3032 65.6643Z" fill="#6F1B52"/>
<path d="M139.415 40.8042C134.088 42.0335 132.449 39.1651 132.039 34.5209C131.356 25.3692 130.127 16.3541 128.488 7.33904C128.078 4.74379 129.171 3.92423 131.493 3.78764C132.859 3.78764 134.361 3.65105 135.727 3.51446C140.781 4.06083 145.972 2.55831 150.752 4.33401C159.768 7.74882 163.455 15.2614 161.68 25.6424C158.675 34.3843 152.255 38.6187 143.513 39.848C142.147 40.1212 140.645 39.848 139.415 40.8042Z" fill="#EA4399"/>
<path d="M70.1629 199.661C70.0264 202.666 67.7043 201.164 66.3384 201.573C61.8308 199.934 56.7769 199.934 52.8157 196.929C49.9473 191.602 48.7179 185.592 47.4886 179.719C46.2593 178.216 47.0788 176.577 46.9422 175.075C46.6691 172.206 46.5325 169.338 46.2593 166.333C48.5813 166.196 49.4009 167.972 50.357 169.611C55.5476 178.626 60.8747 187.641 67.9775 195.427C69.0702 196.793 69.0702 198.568 70.1629 199.661Z" fill="#CF40A1"/>
<path d="M62.3775 213.321C61.558 216.872 61.1482 220.56 55.9577 220.014C54.182 219.877 52.9526 219.467 52.9526 217.282C52.9526 215.369 52.9526 213.321 55.6845 213.321C58.0066 213.184 60.192 213.321 62.3775 213.321Z" fill="#E365B5"/>
<path d="M46.9422 175.211C47.0788 176.714 47.2154 178.353 47.4886 179.856C47.4886 182.041 47.352 184.363 47.352 186.549C45.7129 182.861 46.1227 179.036 46.9422 175.211Z" fill="#471D39"/>
<path d="M130.673 131.092C128.898 131.638 127.259 132.458 126.166 134.097C125.346 135.736 123.844 136.556 122.205 137.238C118.244 138.878 114.282 140.653 109.911 141.2C96.7985 142.702 83.5491 143.112 70.4362 140.926C66.6116 139.97 63.6066 138.058 61.2845 134.643C59.6454 132.321 57.1867 130.819 54.5915 129.453C52.2694 128.36 50.7669 126.584 50.7669 123.989C50.4937 113.198 50.4937 102.544 50.7669 91.7532C50.7669 90.1141 51.5865 88.7482 51.8596 87.1091C54.4549 76.7281 61.0113 70.4448 71.1192 67.4398C80.4074 65.5275 89.5591 64.9811 98.5742 68.5325C102.535 70.1716 105.814 72.3571 106.497 77.1378C107.043 80.5527 109.092 80.5527 111.687 79.3233C114.556 78.094 117.014 75.7719 120.429 76.3183C123.434 78.2306 122.341 81.3722 122.478 84.1041C122.614 90.9337 122.478 91.0703 129.308 92.846C133.678 94.0753 131.083 96.1242 130.127 98.0365C128.215 102.681 128.488 103.09 133.405 103.227C134.635 103.227 135.864 103.227 137.23 103.227C143.103 103.227 143.24 102.954 140.235 97.7633C139.689 96.8071 138.732 95.851 139.825 94.8949C140.918 93.9387 142.147 93.9387 143.103 95.168C148.84 97.6267 145.972 101.998 145.289 105.686C143.513 115.793 137.093 123.443 130.673 131.092Z" fill="#F4D8BD"/>
<path d="M141.601 83.5578C143.24 85.6067 146.518 84.1042 148.02 86.5628C148.02 89.2947 148.294 92.1631 148.02 94.895C147.884 97.4902 146.791 95.1682 146.245 95.0316C142.83 94.0754 139.415 94.7584 136 94.3486C135.454 94.3486 135.044 94.212 134.498 94.0754C131.083 92.8461 127.395 92.9827 123.844 91.8899C121.112 87.519 122.751 82.8748 122.751 78.2307C122.751 76.5916 124.663 75.772 126.029 76.3184C131.083 78.2307 136.683 78.9137 141.191 82.3285C141.464 82.6017 141.464 83.148 141.601 83.5578Z" fill="#1A2A2B"/>
<path d="M135.591 93.3923C139.279 92.846 142.83 94.0753 146.245 95.168C145.289 95.168 144.196 95.3046 143.24 95.3046C142.147 95.3046 141.054 95.3046 139.962 95.3046C140.098 95.851 140.098 96.2608 140.371 96.3974C142.557 98.1731 145.425 100.222 144.469 103.227C143.376 106.505 139.825 104.593 137.503 105.003C136.137 105.276 134.634 105.003 133.269 105.003C126.849 105.003 126.302 104.047 129.307 98.3097C130.81 95.851 133.405 94.7583 135.591 93.3923Z" fill="#3D4847"/>
<path d="M161.407 157.864C159.085 159.367 155.943 158.41 153.894 160.869C151.163 164.967 147.065 166.333 142.557 166.606C139.962 168.245 135.591 166.743 134.908 171.25C128.352 171.114 127.669 171.797 126.986 178.763C126.712 174.802 124.937 174.528 122.615 175.075C122.068 175.485 121.522 175.894 120.839 176.031C114.419 177.943 107.59 179.036 102.672 184.363C101.853 184.636 100.897 184.773 100.077 184.773C96.7988 185.456 94.4767 188.051 91.0619 188.871C87.2373 189.827 85.7348 189.69 85.8714 185.592C85.8714 185.183 85.4616 184.773 85.325 184.226C85.1884 183.817 85.0518 183.407 85.1884 182.861C86.4177 179.992 89.696 179.446 91.3351 177.124C92.8376 176.304 94.7499 176.85 96.1158 175.485C99.6672 170.431 105.267 168.792 110.595 166.879C113.19 165.24 116.468 165.65 118.927 163.601C120.429 162.098 122.615 161.416 124.39 160.186C125.893 158.957 124.937 156.362 126.986 155.405C129.171 154.996 130.537 157.454 132.586 156.908C134.498 156.498 136.001 155.542 136.547 153.493C136.684 152.674 136.82 151.717 137.094 150.898C137.503 149.805 137.776 148.712 138.869 148.029C140.782 149.805 142.147 148.849 143.513 147.21C143.787 147.62 144.333 148.029 144.196 148.303C143.65 149.805 142.557 151.308 144.47 152.4C146.382 153.493 148.158 153.083 149.25 151.035C150.48 148.849 152.392 147.893 154.851 148.029C155.943 148.439 156.899 148.712 157.992 149.122C159.085 150.215 159.085 151.854 160.041 153.083C160.314 153.493 160.451 153.766 160.724 154.176C160.861 155.542 162.09 156.362 161.407 157.864Z" fill="#1B1814"/>
<path d="M120.292 197.612C118.107 198.022 116.331 199.935 113.873 199.798C113.326 200.208 112.78 200.481 112.234 200.618C110.868 200.891 109.365 202.257 108.409 200.754C107.453 199.252 108.819 198.159 109.775 197.066C114.282 191.602 117.97 185.866 119.473 178.899C119.746 177.26 120.292 175.758 122.478 175.894C126.439 175.894 125.483 178.763 125.073 180.948C124.254 186.685 122.068 192.149 120.292 197.612Z" fill="#CE40A0"/>
<path d="M122.478 175.894C119.882 177.26 120.565 179.992 120.019 182.178C117.97 189.144 113.463 194.744 108.409 200.481C110.731 200.208 112.37 199.935 114.009 199.798C113.463 201.027 112.506 201.71 111.004 201.71C109.092 202.393 107.179 202.803 106.087 200.344C105.54 196.793 109.638 195.564 110.184 192.695C112.506 188.734 115.102 185.046 116.331 180.948C114.146 181.631 111.824 183.407 108.955 183.817C107.999 183.817 107.043 183.68 106.36 183.134C106.496 179.992 109.365 179.992 111.277 179.173C114.419 177.807 117.834 177.26 120.702 175.211C121.248 175.211 121.931 175.211 122.478 175.211C122.478 175.348 122.478 175.621 122.478 175.894Z" fill="#532D3E"/>
<path d="M142.42 166.606C146.108 164.557 150.479 163.601 153.758 160.869C154.85 161.415 156.626 159.913 157.309 161.825C157.855 163.328 156.08 163.737 155.67 164.693C153.211 166.059 150.616 167.425 148.157 168.655C145.972 168.928 143.65 169.338 142.42 166.606Z" fill="#C5A78A"/>
<path d="M142.147 171.113C139.962 171.523 138.186 171.66 136.547 170.977C139.006 167.972 139.006 167.972 142.147 171.113Z" fill="#CB910B"/>
<path d="M161.27 157.864C160.86 156.498 159.221 155.815 159.631 154.176C161.68 153.63 163.456 155.269 165.505 154.859C167.007 154.586 168.919 154.859 167.963 152.264C165.641 151.034 163.182 151.581 160.86 151.854C159.904 152.264 160.451 153.493 159.631 154.176C157.446 153.22 157.855 151.171 157.719 149.395C160.997 149.395 164.412 149.669 167.69 149.395C170.968 149.122 172.061 150.352 172.061 153.63C172.061 156.771 171.515 158.41 167.963 158.001C165.778 157.727 163.592 157.864 161.27 157.864Z" fill="#5D5A55"/>
<path d="M154.714 148.302C152.802 149.259 151.026 150.351 149.114 151.307C147.884 150.488 146.109 153.493 145.289 151.171C144.606 149.259 146.655 148.302 148.021 147.619C148.704 147.21 149.387 146.937 150.07 146.663C151.709 146.8 153.621 146.254 154.714 148.302Z" fill="#D8C8B0"/>
<path d="M137.64 151.307C137.64 152.264 137.64 153.22 137.64 154.176C134.362 153.63 133.815 150.351 131.903 148.439C129.308 145.98 126.576 143.522 124.39 140.653C123.708 139.151 121.112 138.468 122.478 136.146C123.708 135.463 125.073 134.78 126.303 134.097C127.669 133.96 129.171 133.687 130.127 135.19C134.635 136.965 138.186 139.424 138.733 144.751C138.733 145.434 138.733 146.117 138.733 146.663C136.82 147.756 136.274 146.117 135.454 145.024C133.679 142.429 131.357 140.38 128.761 138.468C132.313 142.429 136.547 145.707 137.64 151.307Z" fill="#2F3125"/>
<path d="M137.639 151.308C134.498 147.483 132.312 142.839 127.941 140.107C126.848 139.424 125.346 138.058 126.985 136.692C128.214 135.6 129.307 136.829 130.127 137.785C132.995 140.79 135.864 143.795 138.595 146.8C138.595 147.346 138.732 147.893 138.732 148.576C138.595 149.395 138.869 150.625 137.639 151.308Z" fill="#224F5C"/>
<path d="M138.732 144.615C136.82 140.517 133.678 137.648 130.127 135.053C130.4 134.37 130.4 133.414 131.493 133.414C135.317 133.414 141.737 141.473 140.508 145.161C139.825 146.937 139.415 144.478 138.732 144.615Z" fill="#D09C08"/>
<path d="M70.1629 199.661C61.421 191.602 56.2305 181.085 49.8107 171.25C48.7179 169.611 47.7618 167.835 46.2593 166.469C46.2593 165.786 46.2593 165.24 46.2593 164.557C47.352 163.601 48.4448 164.147 49.4009 164.83C49.9473 165.24 50.357 165.786 50.7668 166.333C53.2255 170.157 55.411 174.119 58.1428 177.807C59.5087 179.719 61.1478 180.948 63.6065 180.265C64.5627 180.538 64.9724 181.358 65.109 182.314C63.3333 186.275 64.9724 189.144 67.9775 191.875C69.7532 193.515 72.2118 194.744 72.0752 197.749C70.9825 197.886 70.1629 198.432 70.1629 199.661Z" fill="#64333F"/>
<path d="M49.9475 166.606C49.6743 166.196 49.2645 165.923 48.9913 165.513C48.4449 163.191 45.8497 164.147 44.757 162.781C43.9374 161.689 42.7081 161.825 41.6153 161.552C41.3421 161.006 40.9324 160.459 40.6592 160.05C41.3421 158.82 42.5715 158.137 43.6642 157.454C47.3522 156.498 49.6743 159.367 52.5427 160.459C53.6355 160.733 54.8648 160.869 55.6843 161.689C55.138 164.83 51.7232 164.83 49.9475 166.606Z" fill="#78540D"/>
<path d="M44.7568 162.781C46.6691 162.781 49.401 161.689 49.1278 165.513C48.1716 165.24 47.3521 164.967 46.3959 164.694C45.5764 164.284 44.8934 163.738 44.7568 162.781Z" fill="#391F1E"/>
<path d="M51.996 161.689C49.2642 160.186 46.9421 157.864 43.3907 158.001C37.6539 156.908 35.7416 152.4 33.9659 147.62C33.9659 146.937 34.1024 146.254 34.5122 145.707C36.1513 144.888 36.9709 145.981 37.5173 147.073C39.9759 151.581 43.9371 154.449 48.991 157.318C43.6639 153.356 39.4296 149.395 36.1513 144.341C35.0586 142.702 35.3318 145.434 34.5122 145.024C32.5999 144.888 31.0974 144.341 31.7804 141.883C32.3267 140.107 32.7365 138.331 33.2829 136.556C34.1024 136.965 34.7854 137.512 35.605 137.922C38.61 139.151 39.4296 142.429 41.4784 144.478C45.5762 148.576 49.674 152.81 54.3181 156.362C54.8645 157.044 55.2743 157.864 55.1377 158.684C54.4547 160.186 53.0888 160.732 51.996 161.689Z" fill="#252E29"/>
<path d="M34.7854 147.619C36.5611 151.99 39.5662 155.405 43.5273 158.001C43.8005 160.323 41.8882 159.776 40.6589 160.049C38.4734 158.683 36.4245 157.318 35.0586 155.132C33.9659 152.673 32.1902 150.488 32.3268 147.483C32.3268 146.527 32.6 145.434 33.8293 145.707C34.5123 145.844 34.3757 146.937 34.7854 147.619Z" fill="#CF980B"/>
<path d="M34.7854 147.619C34.239 147.483 33.5561 145.161 33.0097 147.756C32.3267 150.625 35.3318 152.4 35.0586 155.132C31.5072 151.307 30.2778 146.937 31.9169 141.883C32.1901 143.658 33.8292 143.931 34.922 144.751L35.1952 145.024L34.922 145.434C34.922 146.254 34.7854 146.937 34.7854 147.619Z" fill="#6C5626"/>
<path d="M135.591 93.3924C136.82 96.1242 134.088 94.8949 133.405 95.4413C132.176 96.534 130.674 97.3536 129.171 98.1731C128.625 96.3974 130.81 96.1242 131.22 94.7583C130.264 93.6656 128.898 94.3485 127.668 94.0753C123.434 93.2558 120.975 91.4801 121.249 86.5628C121.522 83.4211 122.478 80.0063 120.292 77.0013C123.98 72.3571 129.171 70.1717 134.635 68.5326C136.547 67.5764 137.913 68.1228 138.732 70.0351C139.552 71.9474 140.372 71.401 141.328 70.4449C140.098 74.2694 142.967 77.0013 144.196 80.1429C145.152 82.8748 144.879 84.5139 141.464 83.6943C136.684 80.6893 130.81 80.1429 126.029 77.4111C124.937 76.8647 123.434 77.0013 123.434 78.3672C123.298 82.7382 121.658 87.2457 124.39 91.4801C127.805 92.5728 131.356 92.7094 134.771 93.3924C135.044 93.529 135.318 93.529 135.591 93.3924Z" fill="#E2CAB1"/>
<path d="M53.9088 157.045C46.3963 151.991 40.3862 145.707 35.6055 137.922C36.2884 134.78 37.9275 133.004 41.3423 133.141C47.3524 135.19 51.7234 139.287 55.548 144.068C56.7773 147.073 59.5091 149.122 61.0117 151.991C61.1482 152.4 61.4214 152.81 61.4214 153.22C61.558 153.63 61.558 154.176 61.4214 154.586C61.2848 155.269 61.0117 155.952 60.6019 156.498C58.6896 159.23 56.3675 159.23 53.9088 157.045Z" fill="#EDA907"/>
<path d="M54.8647 144.615C51.0401 140.107 46.1227 136.692 41.342 133.141C41.2054 132.048 37.654 132.458 39.9761 130.136C40.9322 129.043 40.3859 127.677 40.5225 126.448C41.6152 126.584 42.7079 126.721 43.8007 126.721C47.8984 126.994 49.401 125.492 49.2644 120.984C48.8546 111.423 49.1278 101.861 49.1278 92.2997C49.1278 90.3874 48.8546 88.4751 51.0401 87.3824C51.5864 87.9288 51.8596 88.7483 51.8596 89.4313C50.7669 100.905 51.4498 112.515 51.5864 123.989C51.5864 126.448 51.0401 128.36 49.6741 130.272C56.094 133.414 61.2845 137.785 63.7432 144.888C64.0163 146.39 64.0163 147.893 63.7432 149.395C62.787 150.625 62.9236 152.81 60.7381 153.083C60.6015 152.81 60.4649 152.537 60.4649 152.264C59.782 150.625 58.4161 149.395 58.5526 147.483C59.9186 146.254 59.2356 145.024 58.5526 143.795C55.9574 139.834 52.8158 136.419 47.7618 133.96C51.5864 137.239 55.1378 139.697 57.4599 143.112C58.2795 144.341 59.782 145.434 58.8258 147.21C56.5038 148.029 56.094 145.844 54.8647 144.615Z" fill="#1D2826"/>
<path d="M134.908 68.5327C130.127 71.4011 125.346 74.133 120.566 77.0014C117.287 78.5039 114.009 80.0064 110.731 81.5089C107.999 82.8749 105.95 82.6017 105.95 79.0503C105.814 72.9036 101.716 70.7181 96.7985 69.079C88.4664 66.3472 79.9976 66.8936 71.5289 68.6693C68.3873 68.1229 66.0652 71.8109 62.6504 70.445C66.7482 65.391 73.0314 65.391 78.6317 64.8447C85.3247 64.1617 92.2909 64.0251 98.7108 66.6204C102.672 68.2595 106.223 70.5816 108.136 74.6793C109.502 77.6844 110.867 78.7771 114.282 76.7282C119.883 73.3134 126.439 71.5377 131.493 67.1667C132.449 66.2106 133.952 66.6204 135.181 66.6204C134.908 67.3033 134.908 67.9863 134.908 68.5327Z" fill="#1A2A2C"/>
<path d="M59.0992 210.315C56.6405 210.315 53.7721 210.998 53.2257 207.31C52.9525 205.535 52.2696 203.213 53.7721 201.847C55.2746 200.617 57.3235 201.71 59.0992 202.12C59.9187 202.256 60.7383 203.076 61.5578 203.486C63.0603 204.032 65.7922 202.939 64.9726 206.354C64.4263 208.813 63.6067 210.862 60.4651 210.315C60.0553 210.315 59.5089 210.315 59.0992 210.315Z" fill="#2A5B6A"/>
<path d="M113.326 210.315C110.594 210.725 108.409 209.906 108.272 206.354C108.136 204.442 113.463 201.71 116.877 201.71C120.565 201.71 119.609 204.442 119.609 206.354C119.609 210.315 119.473 210.315 113.326 210.315Z" fill="#295A6A"/>
<path d="M106.224 199.798C107.453 201.437 109.092 201.983 111.004 201.71C108.955 202.94 106.633 203.349 104.311 203.623C103.628 202.94 103.082 202.257 102.399 201.71C102.536 201.574 102.672 201.3 102.672 201.164C103.765 200.344 104.721 199.388 106.224 199.798Z" fill="#1F1A22"/>
<path d="M109.228 182.724C109.365 182.724 109.501 182.724 109.638 182.587C112.097 181.768 114.965 178.626 116.604 180.402C118.243 182.314 115.785 185.592 114.419 188.051C113.463 189.827 112.233 191.466 111.004 193.105C108.409 196.246 105.677 199.251 102.399 201.574C94.7494 205.808 86.8271 206.764 78.6315 203.622C76.7192 203.622 75.6265 202.257 75.4899 200.754C75.3533 199.115 77.4022 199.661 78.3583 198.978C79.5877 198.022 81.0902 197.612 82.4561 196.929C84.9148 194.198 87.1003 191.193 91.198 190.51C93.2469 190.1 95.1592 188.734 96.2519 186.685C96.9349 185.319 97.7545 184.363 99.257 184.09C102.808 184.909 106.087 183.817 109.228 182.724Z" fill="#B0926F"/>
<path d="M115.238 213.321C117.97 213.047 119.883 213.184 119.883 216.599C119.883 219.331 118.79 220.014 116.195 220.15C112.643 220.287 111.141 218.375 111.141 215.37C111.141 211.955 114.009 213.73 115.238 213.321Z" fill="#E766B8"/>
<path d="M72.0754 197.885C70.0265 195.7 67.9776 193.515 65.7921 191.602C62.7871 188.87 61.831 186.002 64.4262 182.587C66.6117 179.036 69.2069 176.167 73.0315 174.528C78.4952 173.435 80.2709 178.489 83.5491 180.948C84.3687 181.768 84.7785 182.724 85.1883 183.816H85.0517C87.1005 189.007 85.4614 192.149 78.4952 195.973C76.5829 196.929 74.8072 198.978 72.0754 197.885Z" fill="#EFD5BA"/>
<path d="M78.6318 195.973C78.6318 193.788 80.8173 193.515 82.0466 192.422C84.6419 189.963 86.1444 187.368 85.1883 183.68C88.1933 184.5 86.8274 187.095 87.1006 189.28C91.4715 187.368 95.7059 185.592 99.8037 183.817C100.077 184.09 99.9402 184.363 99.6671 184.636C98.028 185.183 97.345 186.548 96.3888 187.914C95.5693 189.144 94.34 191.193 93.2472 191.193C88.4665 191.329 86.4176 195.7 82.4564 197.066C81.2271 196.793 79.588 197.476 78.6318 195.973Z" fill="#352C23"/>
<path d="M62.5138 70.4449C65.6554 70.4449 68.1141 67.4399 71.3923 68.6692C62.3772 71.6743 55.411 76.8648 53.0889 86.6994C51.723 87.2458 53.3621 89.7045 51.1766 89.7045C51.1766 89.0215 51.04 88.3385 51.04 87.6556C53.4987 80.9626 55.6842 74.1329 62.5138 70.4449Z" fill="#2C3735"/>
<path d="M129.717 38.4822C129.99 39.9847 129.717 41.4872 127.941 41.6238C125.893 41.7604 124.663 40.2579 124.527 38.3456C124.117 34.2478 123.98 30.2866 123.024 26.1889C121.658 20.7252 121.248 14.9883 120.565 9.388C120.429 7.74889 120.019 5.8366 122.751 5.56341C125.346 5.42682 125.619 7.20252 125.893 8.84163C127.258 18.8129 128.488 28.6475 129.717 38.4822Z" fill="#B52790"/>
<path d="M60.6016 95.3047C58.8259 95.8511 56.6404 96.3974 56.777 93.6656C56.9136 90.7971 54.5915 86.6994 59.3723 85.1969C65.7921 83.148 72.2119 81.0991 78.6318 79.0502C78.905 78.9136 79.3148 79.0502 79.5879 79.0502C82.3198 78.5038 85.8712 74.9524 87.6469 77.6843C89.969 81.0991 88.603 85.8798 88.1933 90.1142C88.0567 91.7533 86.281 91.8899 84.7784 92.2997C80.9539 93.1192 76.9927 93.529 73.0315 93.3924C69.2069 95.3047 64.6994 93.6656 60.6016 95.3047Z" fill="#202D2E"/>
<path d="M101.579 121.803C99.9403 120.164 95.4327 119.618 99.6671 116.067C103.628 117.842 107.589 119.618 112.234 118.389C114.009 117.433 113.463 116.067 112.917 114.701C111.96 112.242 111.414 109.51 109.365 107.461C104.858 105.139 107.316 109.92 105.95 110.739C104.311 112.788 102.672 114.564 99.6671 114.701C97.8914 113.745 97.6182 112.652 99.3939 111.286C101.579 109.51 104.175 107.871 103.765 104.183C103.628 102.407 105.404 102.134 106.906 102.271C109.229 102.407 111.141 103.773 112.507 105.412C115.239 108.554 116.468 112.515 117.561 116.34C118.38 119.345 116.605 121.803 113.053 122.213C109.229 122.76 105.404 122.486 101.579 121.803Z" fill="#6E523C"/>
<path d="M70.2995 139.834C83.8222 141.2 97.4814 141.063 111.004 139.971C110.731 141.473 114.692 141.063 112.37 143.385C109.911 144.888 107.316 145.024 104.584 145.161C95.5691 145.298 86.554 145.298 77.5389 145.161C75.2168 145.161 72.7582 144.888 70.7093 143.522C70.1629 142.293 69.6166 141.063 68.9336 139.697C69.48 139.561 69.8897 139.561 70.2995 139.834Z" fill="#6A2E54"/>
<path d="M110.185 106.505C112.78 108.417 112.507 111.696 113.873 114.291C111.687 115.657 110.185 117.023 113.053 119.208C108.136 120.028 103.218 121.121 99.667 116.067C99.667 115.52 99.667 115.11 99.667 114.564C101.579 113.198 103.355 111.832 105.267 110.466C106.36 108.417 105.95 104.456 110.185 106.505Z" fill="#F5A062"/>
<path d="M70.2996 139.834C69.8899 139.97 69.4801 139.97 69.0703 140.107C66.4751 141.473 64.4262 139.561 62.2407 139.151C59.782 136.556 57.5966 133.824 54.3183 132.185C52.6792 131.365 51.0401 130.409 48.9912 131.229C47.7619 131.092 46.5326 131.092 45.8496 129.18C51.9963 129.726 51.3133 125.628 50.9035 121.804C49.9474 111.149 50.3572 100.359 51.0401 89.7044C51.9963 88.8849 51.5865 87.2458 52.9524 86.6994C50.7669 98.7195 51.5865 110.876 51.8597 122.896C51.8597 125.901 52.5426 127.814 55.9574 128.906C58.4161 129.589 60.7382 131.502 62.2407 133.687C64.2896 136.829 67.0214 138.605 70.2996 139.834Z" fill="#755E3D"/>
<path d="M60.6016 95.3048C64.5627 93.2559 68.7971 93.1193 73.0315 93.3925C71.9387 94.895 73.3047 94.895 74.2608 95.3048C75.8999 96.2609 77.9488 96.6707 78.7683 98.8562C77.4024 99.9489 79.3147 103.5 76.4463 103.091C73.0315 102.681 68.9337 105.413 66.0653 101.315C68.1141 99.4025 70.5728 101.451 72.7583 100.359C71.8021 99.9489 70.5728 100.222 69.3435 99.9489C67.7044 99.8123 65.7921 99.6757 66.0653 101.998C66.2019 103.773 67.9775 103.091 69.0703 103.227C70.4362 103.364 71.9387 102.954 73.3047 103.227C76.9926 104.047 78.6318 102.408 78.7683 98.8562C80.2709 100.086 81.3636 101.725 80.544 103.773C79.7245 105.549 77.8122 104.866 76.3097 104.866C73.5778 104.866 70.9826 104.866 68.2507 104.866C66.7482 104.866 64.8359 105.413 64.153 103.5C63.6066 101.725 64.2896 100.085 65.5189 98.7196C66.475 97.7634 67.5678 96.8073 68.9337 95.578C66.0653 94.3486 63.1968 95.8511 60.6016 95.3048Z" fill="#2D4349"/>
<path d="M101.579 121.804C105.404 120.164 109.228 122.76 113.19 121.94C112.37 123.306 111.004 122.896 109.775 122.896C107.862 122.896 106.77 122.76 107.589 125.628C108.409 128.906 105.404 131.092 102.672 132.731C99.3937 134.78 96.2521 133.96 93.5202 131.638C91.1982 129.589 88.8761 127.131 91.1982 123.579C94.2032 122.623 97.4814 123.443 100.486 123.17C101.306 123.033 102.945 123.852 102.535 121.804C102.126 121.94 101.852 121.94 101.579 121.804Z" fill="#766D60"/>
<path d="M113.053 141.883C112.097 141.746 111.004 141.61 110.048 141.473C110.322 141.063 110.731 140.517 111.004 140.107C114.829 138.878 118.654 137.512 122.478 136.283C122.342 138.331 125.073 138.331 125.21 140.244C123.571 141.883 125.074 143.385 125.347 145.024C126.166 148.712 128.898 152.127 127.259 156.225C125.347 157.728 127.669 160.596 125.347 161.962C123.298 158.957 123.571 155.405 122.478 152.127C122.342 151.444 122.205 150.625 122.068 149.805C121.112 144.615 118.107 142.019 113.053 141.883Z" fill="#5D3433"/>
<path d="M102.399 121.94C103.491 123.443 103.491 123.579 102.262 123.579C98.5741 123.716 94.8861 123.579 91.0615 123.716C94.4763 121.394 98.8473 124.399 102.399 121.94Z" fill="#8F877D"/>
<path d="M126.302 84.7871C126.029 81.3723 125.892 79.3234 130.4 81.782C134.634 83.9675 139.415 85.1969 143.923 87.1091C146.518 88.2019 146.928 89.9776 146.108 92.0265C145.152 94.4851 143.376 92.9826 141.737 92.1631C138.186 90.2508 134.088 92.0265 130.127 90.2508C127.258 88.8848 125.619 87.7921 126.302 84.7871Z" fill="#0C3741"/>
<path d="M134.908 93.2557C131.356 93.3923 127.805 93.2557 124.527 91.3434C128.078 91.0702 131.493 91.8898 134.908 93.2557Z" fill="#3D4847"/>
<path d="M136 101.998C134.498 101.315 132.039 102.954 131.903 100.768C131.766 98.4463 134.361 98.9927 136 98.9927C137.503 98.9927 139.962 98.5829 139.962 100.495C139.825 103.227 137.093 100.905 136 101.998Z" fill="#2C5C6C"/>
<path d="M123.571 151.307C124.527 154.722 125.62 158.137 125.346 161.688C123.434 162.645 121.522 163.464 119.61 164.42C115.785 167.699 112.37 165.24 108.955 163.601C107.043 162.645 104.858 162.098 102.672 161.962C97.0718 160.596 91.6081 161.006 86.1444 162.098C82.1832 162.508 78.4952 164.011 75.217 166.196C70.4363 169.338 69.2069 168.791 65.3824 164.42C62.2407 160.869 60.465 157.454 63.3335 153.083C63.6067 151.854 64.153 150.625 64.836 149.532C65.1092 149.122 65.5189 148.712 66.0653 148.439C67.7044 147.619 69.4801 147.893 71.1192 148.302C86.6908 151.171 102.262 151.171 117.424 146.527C122.478 144.888 122.068 148.985 123.571 151.307Z" fill="#D03FA2"/>
<path d="M110.868 168.382C105.677 170.43 99.667 171.113 96.662 176.987C92.7008 177.943 88.603 177.943 84.7784 179.172C83.4125 179.582 82.3198 178.899 81.3636 178.08C79.3147 176.304 77.4024 174.665 74.8072 173.572C71.8021 172.479 71.8022 169.884 74.2608 167.562C77.8122 164.284 82.0466 162.781 86.6907 162.098C93.1106 161.142 99.5304 161.142 105.95 162.645C107.726 163.191 109.502 163.874 110.868 164.967C112.097 165.923 113.19 167.152 110.868 168.382Z" fill="#AC8E6C"/>
<path d="M106.223 163.738C97.0715 162.235 88.0564 161.415 79.3145 165.65C78.7681 165.923 77.9486 165.923 77.5388 166.469C76.1729 167.972 73.3044 168.382 73.3044 170.567C73.3044 173.026 76.8558 172.616 77.812 173.845C81.5 178.626 86.1441 177.807 90.9248 177.124C92.8371 176.85 94.7494 177.124 96.6617 177.124C95.1592 179.036 92.9737 177.807 91.0614 178.216C88.6028 179.719 85.8709 180.402 83.4122 181.904C79.7243 180.129 78.0851 174.938 73.0312 175.484C69.753 176.85 71.2555 172.616 69.3432 172.343C66.3382 170.294 64.4259 167.289 62.5136 164.147C61.9672 162.781 61.1477 161.825 60.1915 160.733C58.689 159.093 58.8256 157.454 60.4647 155.952C60.6013 155.405 60.6013 154.859 60.7379 154.313C61.8307 153.63 62.9234 152.537 64.4259 153.357C62.5136 158.137 64.6991 164.147 69.2066 167.016C70.8458 167.972 71.8019 167.426 72.8946 166.469C76.5826 163.601 80.6804 161.689 85.3245 161.006C91.3346 161.279 97.4813 161.142 103.491 160.869C105.677 160.733 107.453 161.689 109.228 162.781C108.545 163.874 107.179 163.055 106.223 163.738Z" fill="#5E2B3B"/>
<path d="M127.259 155.952C126.439 151.171 125.073 146.527 122.888 142.019C121.522 139.287 122.888 139.014 125.21 139.97C129.717 144.341 134.088 148.849 137.64 154.039C135.454 159.093 131.63 159.64 127.259 155.952Z" fill="#F7B008"/>
<path d="M120.702 175.211C119.883 179.855 115.102 177.807 112.507 179.719C110.868 180.948 108.272 181.631 106.36 182.86C104.994 185.319 104.038 185.592 102.262 183.953C104.994 180.812 108.136 178.216 112.507 177.807C115.375 177.26 117.697 174.938 120.702 175.211Z" fill="#1D1813"/>
<path d="M106.224 163.737C106.907 162.645 108.273 162.918 109.229 162.645C112.507 163.737 115.512 166.742 119.473 164.42C117.561 167.835 113.326 166.059 110.731 168.245C112.097 164.01 107.726 165.24 106.224 163.737Z" fill="#341925"/>
<path d="M83.4126 181.631C84.7785 178.08 87.7836 177.806 91.0618 177.943C90.9252 181.631 86.281 180.811 85.3249 183.68C84.6419 183.134 84.0956 182.314 83.4126 181.631Z" fill="#1D1813"/>
<path d="M102.262 183.817C104.038 185.046 105.131 183.817 106.36 182.724C107.316 182.724 108.272 182.724 109.228 182.724C106.36 185.183 103.218 186.139 99.667 184.636C99.667 184.363 99.667 184.09 99.8036 183.817C100.623 183.817 101.443 183.817 102.262 183.817Z" fill="#735E4A"/>
<path d="M102.399 201.71C105.131 198.705 107.863 195.7 111.004 193.241C110.594 196.383 107.316 197.339 106.087 199.798C104.994 200.481 104.175 201.847 102.399 201.71Z" fill="#6C5E4E"/>
<path d="M159.631 154.176C160.178 153.22 158.265 152.264 159.631 151.308C162.773 150.761 165.915 150.761 169.193 151.308C171.242 154.859 170.422 156.362 166.188 156.225C163.729 155.952 161.544 155.815 159.631 154.176Z" fill="#B3AA94"/>
<path d="M169.056 151.171C165.914 151.171 162.773 151.171 159.495 151.171C162.773 149.805 165.914 149.942 169.056 151.171Z" fill="#777368"/>
<path d="M63.4699 163.874C65.6554 166.333 67.8409 168.928 70.0263 171.386C72.2118 174.392 69.3434 175.757 67.8409 177.533C66.7481 179.036 65.2456 180.265 63.3333 180.675C61.5576 183.27 60.1917 182.041 58.6892 180.265C55.1378 176.031 52.6791 171.25 49.9473 166.469C50.2205 162.781 54.045 163.464 55.8207 161.688C55.9573 161.552 56.0939 161.279 56.2305 161.142C59.9185 158.547 61.6942 161.142 63.4699 163.874Z" fill="#F7AE06"/>
<path d="M63.3335 180.812C64.9726 179.036 66.6117 177.124 68.2508 175.348C69.3436 174.255 70.5729 173.162 69.8899 171.387C71.2559 171.387 72.0754 171.933 71.6656 173.299C71.2559 174.528 71.8022 174.938 72.895 175.211C69.4802 176.987 67.5679 180.538 64.2896 182.587C64.4262 181.768 64.1531 181.085 63.3335 180.812Z" fill="#7E5D22"/>
<path d="M51.9966 161.688C52.1332 159.913 53.2259 158.957 55.0016 158.683C56.3675 158.274 57.5969 158 58.8262 159.093C58.4164 160.732 56.7773 160.732 55.8212 161.688C54.5918 161.688 53.2259 161.688 51.9966 161.688Z" fill="#160B09"/>
<path d="M34.9224 145.434C34.9224 145.161 34.9224 145.024 34.9224 144.751C35.3321 143.931 34.6492 140.517 36.8347 143.385C40.6592 148.849 45.8498 152.81 50.3573 157.727C44.6204 157.044 40.9324 153.493 37.7908 149.122C36.8347 147.893 36.5615 146.254 34.9224 145.434Z" fill="#265160"/>
<path d="M55.821 161.689C56.5039 160.869 57.0503 159.913 57.7333 159.093C56.7771 158.957 55.9576 158.82 55.0014 158.82C54.5917 158.274 54.3185 157.591 53.9087 157.044C56.3674 158.41 58.4162 157.454 60.4651 155.952C59.7822 157.454 59.509 158.82 61.0115 160.049C62.2408 161.006 63.4702 162.098 63.3336 163.874C61.2847 161.689 59.0992 159.776 55.821 161.689Z" fill="#78540D"/>
<path d="M64.4263 153.22C63.3335 153.766 62.1042 154.313 60.7383 154.176C60.7383 153.903 60.7383 153.493 60.7383 153.22C61.831 152.127 61.4212 149.942 63.3335 149.395C64.4263 148.849 64.6995 149.805 65.1092 150.351C64.9726 151.308 64.6995 152.264 64.4263 153.22Z" fill="#1B2325"/>
<path d="M58.6895 147.483C59.0992 149.122 60.8749 150.352 60.6018 152.264C58.5529 149.805 56.0942 147.756 55.0015 144.478C56.2308 145.571 57.4601 146.527 58.6895 147.483Z" fill="#78540D"/>
<path d="M48.9914 131.229C48.4451 129.043 49.9476 129.316 51.0403 129.726C56.0942 131.229 60.3286 133.96 62.6507 139.014C65.9289 142.429 66.0655 143.385 63.3336 145.844C60.192 139.424 55.821 134.097 48.9914 131.229Z" fill="#BB8B09"/>
<path d="M58.6892 147.62C56.9135 142.702 52.5425 139.834 48.8545 136.556C47.7618 135.463 46.3959 134.78 45.7129 133.141C50.6302 133.004 60.1917 141.063 60.4649 145.434C60.6015 146.8 60.0551 147.483 58.6892 147.62C58.6892 147.483 58.6892 147.62 58.6892 147.62Z" fill="#254E5D"/>
<path d="M63.4701 145.844C66.2019 143.249 62.9237 141.2 62.7871 139.014C65.2458 137.648 66.8849 140.653 69.2069 140.244C69.8899 140.653 70.7094 141.063 71.3924 141.473C70.9826 141.609 70.5729 141.883 70.2997 142.019C67.2946 143.658 67.5678 147.346 65.7921 149.668C65.6555 149.942 65.6555 150.215 65.5189 150.625C64.9726 150.351 64.2896 149.942 63.7432 149.668C62.6505 148.166 62.3773 147.073 63.4701 145.844Z" fill="#4F2929"/>
<path d="M85.3247 85.6066C85.7345 88.2019 84.2319 88.6117 81.6367 89.7044C75.7632 92.2997 69.0702 89.841 63.4699 92.9826C62.104 93.8022 59.9185 93.6656 59.0989 91.4801C58.416 89.5678 59.3721 88.3385 61.0112 87.2458C64.0163 85.3335 67.4311 84.2407 70.5727 83.9675C73.9875 83.5578 76.856 82.0552 79.9976 81.3723C85.1881 80.2795 85.4613 80.0064 85.3247 85.6066Z" fill="#0C3740"/>
<path d="M113.053 119.208C111.551 118.798 109.092 119.755 109.365 116.886C109.502 114.018 111.687 114.154 113.873 114.291C114.829 116.067 115.785 117.979 113.053 119.208Z" fill="#EACBA6"/>
<path d="M110.185 106.505C106.907 105.686 106.907 108.964 105.268 110.33C106.087 108.554 104.311 105.959 106.77 104.866C108.136 104.183 109.365 105.139 110.185 106.505Z" fill="#BA7D4E"/>
<path d="M65.519 149.532C67.0216 146.936 63.7433 141.609 70.0266 141.883C71.9389 143.385 74.261 143.795 76.7196 143.795C86.2811 143.795 95.706 143.795 105.267 143.795C107.999 143.795 110.595 143.248 112.917 142.019C120.019 140.79 121.522 142.156 123.434 151.444C121.522 147.21 119.063 147.756 114.829 148.985C109.912 150.351 104.584 151.854 99.1208 151.581C89.1495 151.034 78.9051 152.673 69.0704 149.532C67.9777 148.849 66.7484 149.259 65.519 149.532Z" fill="#B0248B"/>
<path d="M69.0706 98.856C71.3926 99.6755 75.627 97.0803 75.7636 100.905C75.7636 102.544 70.8463 101.588 68.251 101.588C67.8412 101.588 67.568 101.041 67.1583 100.768C67.0217 99.4023 67.7046 98.856 69.0706 98.856Z" fill="#2C5D6B"/>
<path d="M69.0705 98.8562C68.3875 99.5392 67.8411 100.086 67.1582 100.768C67.0216 101.178 66.6118 101.861 66.7484 101.998C70.0266 104.32 76.9928 102.544 78.7685 98.8562C79.8613 103.091 77.8124 104.32 73.9878 103.637C72.0755 103.364 70.1632 103.637 68.3875 103.637C66.885 103.637 65.2459 103.5 65.6556 101.451C65.9288 99.9489 66.202 97.4903 69.0705 98.8562Z" fill="#132427"/>
<path d="M103.355 128.497C100.213 131.638 97.0718 131.502 93.7936 128.497C93.3838 127.677 93.2473 126.858 94.0668 126.448C97.0718 125.219 100.077 125.219 103.082 126.448C104.038 126.721 103.901 127.677 103.355 128.497Z" fill="#F1F2EB"/>
<path d="M103.355 128.497C101.033 125.765 96.3889 125.765 93.7936 128.497C93.6571 128.36 93.5205 128.36 93.3839 128.223C92.018 125.628 93.3839 124.399 95.7059 124.809C98.8476 125.355 103.082 122.35 104.994 127.267C105.404 128.087 104.175 128.36 103.355 128.497Z" fill="#8F877D"/>
<path d="M103.491 160.732C97.4814 162.371 91.3348 162.235 85.3247 160.869C91.4714 159.776 97.4814 159.776 103.491 160.732Z" fill="#341925"/>
</g>
<defs>
<clipPath id="clip0">
<rect width="172.38" height="232.07" fill="white" transform="translate(0.637695 0.0996094)"/>
</clipPath>
</defs>
</svg>
