<svg width="168" height="197" viewBox="0 0 168 197" fill="none" xmlns="http://www.w3.org/2000/svg">
<path d="M107.351 182.461C113.609 184.464 120.242 183.963 126.5 185.841C127.627 186.216 128.753 186.216 129.88 186.592C131.131 187.092 132.383 187.843 132.383 189.22C132.383 190.722 130.881 190.722 129.88 191.222C124.623 193.726 118.865 193.601 113.358 194.352C88.8267 197.23 64.1699 196.604 39.5132 196.104C28.8744 195.853 18.2357 193.976 7.72217 192.724C6.72088 192.599 5.84475 192.099 4.84346 191.598C3.34153 190.972 0.713137 190.847 0.838298 188.844C1.08862 186.466 3.84217 186.091 5.71959 185.966C9.84992 185.715 13.6048 183.713 17.7351 183.963C19.237 184.088 19.988 182.837 21.1144 182.086C21.2396 182.211 21.3648 182.336 21.3648 182.336C21.9906 189.345 26.8719 188.844 32.0035 188.844C53.6564 188.719 75.1841 188.594 96.8371 188.844C101.969 189.22 106.474 189.095 107.351 182.461Z" fill="#DED9C1"/>
<path d="M161.547 29.2626C162.297 30.2639 162.923 31.3904 163.674 32.3917C166.052 37.273 167.054 42.1543 164.55 47.2859C163.674 49.0381 162.548 49.7891 161.171 47.7865C157.792 43.531 156.79 43.1556 152.535 45.2833C151.784 45.9091 151.158 46.6601 150.783 47.5362C150.657 47.9117 150.532 48.4123 150.532 48.7878C150.157 50.1646 150.407 52.042 148.279 51.9169C146.652 51.7917 146.652 50.0394 146.402 48.7878C146.277 48.4123 146.277 47.9117 146.152 47.5362C145.776 46.7852 145.401 46.1594 144.775 45.6588C144.525 45.4085 144.149 45.1581 143.899 44.9078C141.646 43.531 139.518 43.531 137.641 45.4085C137.265 45.9091 136.89 46.4098 136.514 46.9104C135.888 47.7865 135.263 49.1633 134.011 49.0381C132.634 48.7878 132.259 47.2859 132.008 46.0343C131.383 43.0304 131.383 40.1517 132.008 37.1478C136.514 23.8807 150.532 20.251 161.547 29.2626Z" fill="#EFEFE6"/>
<path d="M5.34647 153.674C5.34647 147.792 8.60066 142.785 10.6032 137.528C13.9826 128.767 17.7374 120.131 21.3671 111.495C22.2432 109.367 22.2433 107.865 20.2407 106.238C8.85099 96.8511 3.71937 84.5853 4.09485 69.9414C4.22002 64.6846 4.34518 59.4278 4.5955 54.2962C5.22131 53.9207 5.59679 54.171 5.84711 54.6717C5.84711 62.3065 5.84711 69.9414 5.84711 75.3233C5.59679 69.5659 6.59808 61.5556 5.47163 53.6704C4.47034 50.7917 5.34647 48.1633 6.34776 45.5349C10.9787 30.0149 20.491 18.1246 34.1336 9.73876C36.1362 9.11295 37.6381 6.48457 40.3916 7.86134C41.1426 10.6149 38.8897 11.3659 37.2626 12.3671C28.7516 17.3736 21.7426 24.0072 16.4858 32.393C11.3542 40.6536 8.10002 49.5401 8.35034 59.4278C8.4755 67.0627 7.59937 74.6975 9.47679 82.3323C11.6045 90.9685 16.4858 97.8523 22.8691 103.61C23.9955 104.611 25.6226 105.362 25.7478 107.239C19.4897 122.008 12.9813 136.652 7.72453 151.797C7.47421 152.548 7.09873 153.049 6.59808 153.549C6.2226 154.05 5.72195 153.925 5.34647 153.674Z" fill="#253D46"/>
<path d="M114.485 130.018C113.609 129.517 112.608 129.016 111.731 128.516C109.228 128.015 107.101 126.137 104.347 126.263C101.969 126.388 101.844 128.265 102.344 129.642C103.471 133.272 102.845 137.027 103.346 140.781C103.346 142.283 103.471 143.91 102.344 145.162C101.593 145.538 100.842 145.538 100.217 144.912C98.965 142.909 99.2153 140.781 99.2153 138.654C99.3405 132.27 99.0902 126.012 97.9637 119.629C97.4631 116.5 96.4618 115.374 93.0824 116.25C84.3211 118.503 75.3095 117.376 66.2979 117.501C65.1715 117.501 64.045 117.251 63.0437 116.5C62.4179 114.748 63.7947 114.748 64.6708 114.247C69.1766 113.621 73.6824 113.997 78.1882 113.997C81.067 114.122 84.0708 114.372 86.9495 113.747C93.0824 112.495 99.2154 111.494 104.597 108.114C106.224 108.365 107.101 110.367 108.978 110.117C118.741 110.242 128.503 109.992 138.266 110.242C139.768 110.367 140.393 111.494 141.144 112.62C140.519 121.131 142.897 129.767 139.893 138.028C135.011 138.403 131.131 135.399 126.751 134.398C125.875 134.148 125.124 133.898 124.373 133.647C120.868 132.521 117.614 131.144 114.485 130.018Z" fill="#152D32"/>
<path d="M96.8375 10.7389C109.854 19.5002 118.866 31.1402 123.121 46.4099C124.748 48.9131 124.373 51.6666 124.373 54.4202C123.872 60.0525 124.999 65.6847 123.622 71.1918C123.372 71.6925 122.996 71.9428 122.496 71.9428C119.867 69.0641 121.119 65.5596 121.119 62.4305C120.994 51.6667 118.115 41.9041 112.733 32.6421C105.849 20.5015 95.3356 12.8666 82.1936 8.48598C71.4298 4.98146 60.4156 4.73113 49.4014 7.73501C47.1485 8.36081 44.7704 8.86146 42.7678 7.1092C44.0194 4.35565 46.773 3.855 49.0259 3.35436C66.0478 -0.901128 81.9433 1.85242 96.8375 10.7389Z" fill="#233D45"/>
<path d="M139.642 137.904C141.144 129.518 138.516 121.007 140.268 112.622C141.019 111.745 142.521 112.997 143.022 111.495L142.897 111.62C144.023 110.369 143.522 108.867 143.522 107.49C143.648 94.2228 143.522 80.9557 143.648 67.5634C144.524 65.5609 145.9 65.0602 147.653 66.437C146.526 83.0835 147.277 99.7299 147.152 116.376C147.027 136.903 147.152 157.554 147.027 178.081C147.027 181.335 147.402 184.089 150.782 185.591C149.155 188.72 146.902 188.72 143.648 185.716C143.397 169.695 143.648 153.674 143.522 137.654C143.522 136.277 144.273 134.775 142.771 133.649C141.395 133.523 140.644 134.024 140.769 135.526C140.894 136.527 141.144 137.654 139.642 137.904Z" fill="#4C453D"/>
<path d="M102.723 140.155C101.972 136.526 102.472 132.771 101.471 129.141C100.72 126.388 102.222 125.511 104.85 125.887C105.226 126.012 105.351 126.137 105.226 126.262C105.101 126.388 105.101 126.513 104.975 126.513C103.599 126.763 103.098 127.764 103.348 129.016C105.852 146.163 106.477 163.435 106.853 180.833C106.853 181.333 107.228 181.834 107.479 182.335C107.729 189.844 107.479 190.095 100.219 190.095C76.689 190.095 53.1586 190.095 29.6283 190.095C21.4928 190.095 21.4928 190.095 21.1173 182.084C21.1173 180.457 21.1173 178.705 21.1173 177.078C21.2425 174.575 19.9909 173.448 17.6128 173.448C18.3638 171.07 19.9909 171.696 21.618 172.197C24.2463 174.825 22.9947 178.204 23.1199 181.333C23.3702 187.466 23.7457 187.967 29.8786 187.967C52.9083 187.967 75.938 187.967 98.9677 187.967C100.72 187.967 102.472 188.217 103.974 187.216C106.477 184.462 103.724 181.459 104.35 178.705C104.224 174.95 104.725 171.195 104.099 167.44C103.974 166.94 103.849 166.564 103.724 166.064C103.223 163.31 103.849 160.431 102.973 157.678C102.723 156.426 102.597 155.3 102.597 154.048C102.347 149.542 103.599 144.786 102.723 140.155Z" fill="#B1BAC2"/>
<path d="M142.894 133.773C144.897 134.9 144.021 136.902 144.021 138.529C144.146 154.3 144.146 170.195 144.146 185.965C145.898 188.343 148.402 187.217 150.529 186.967C152.282 186.716 151.531 184.839 151.531 183.712C151.531 168.568 151.531 153.298 151.531 138.154C151.531 135.651 151.28 132.647 154.91 132.146C155.411 132.271 155.911 132.396 156.287 132.897C154.034 134.023 153.658 135.901 153.658 138.279C153.784 153.674 153.533 169.069 153.784 184.463C153.784 188.594 152.282 189.72 148.402 189.595C144.522 189.595 142.644 188.844 142.769 184.338C143.145 167.316 142.894 150.545 142.894 133.773Z" fill="#70645A"/>
<path d="M161.547 29.2629C159.92 29.1378 158.418 28.7623 157.042 27.8862C147.655 22.2539 136.14 26.7597 132.76 37.0229C131.509 35.6462 131.258 34.1442 131.759 32.5171C137.391 21.8784 151.91 19.25 160.796 27.3855C161.422 27.6359 161.422 28.512 161.547 29.2629Z" fill="#767773"/>
<path d="M21.1129 172.698C19.8612 172.948 18.4845 172.197 17.4832 173.574C11.6006 173.824 8.09608 170.445 7.97092 164.687C7.84576 160.807 8.97221 156.677 5.34253 153.673C5.71801 153.548 5.96834 153.548 6.34382 153.423C9.22253 153.798 11.3503 156.051 14.229 156.802C14.98 157.053 15.4806 157.929 15.1051 158.93C11.7258 160.557 10.8496 164.938 13.3529 167.566C14.7296 168.943 16.3567 169.193 18.109 168.818C19.9864 168.442 19.8612 166.94 20.1116 165.438C20.3619 164.187 19.7361 162.434 21.8638 162.184C23.9916 164.938 24.1167 168.192 22.2393 170.57C20.3619 172.823 16.8574 170.695 13.6032 171.822C13.6032 171.822 14.229 172.447 13.9787 171.947C13.8535 171.696 13.9787 171.571 14.229 171.571C16.6071 171.947 19.1103 170.32 21.1129 172.698Z" fill="#857C74"/>
<path d="M96.8391 10.7393C91.4571 8.98704 86.8262 5.85801 81.3191 4.35607C68.4274 1.10188 55.9113 0.726393 43.5203 6.35865C43.1448 6.48382 42.8945 6.98446 42.6442 7.23478C42.519 9.23737 41.2674 8.61156 40.141 8.23607C37.7629 7.48511 36.261 9.86317 34.0081 9.73801C37.7629 5.73285 42.8945 4.48123 47.7758 3.22962C63.7965 -1.15103 79.3165 0.476069 93.9604 8.36124C95.0868 8.98704 96.3384 9.36253 96.8391 10.7393Z" fill="#ABACAD"/>
<path d="M161.421 46.2853C161.796 47.0362 162.297 47.662 162.672 48.413C166.552 43.2814 163.549 37.7743 163.549 32.3923C166.552 32.5175 166.803 35.3962 167.053 37.0233C167.554 40.7781 168.305 44.7833 166.177 48.2878C164.675 50.6659 164.925 52.9188 166.678 55.0466C166.552 56.5485 166.552 58.0504 166.678 59.5524C166.302 60.053 166.052 60.6788 165.676 61.1795C164.299 61.555 163.799 60.6788 163.423 59.6775C164.299 56.173 160.67 54.6711 159.794 51.9175C159.794 49.9149 160.044 47.9124 161.421 46.2853Z" fill="#7F807C"/>
<path d="M131.884 32.3923C132.26 33.8943 132.51 35.3962 132.886 36.8981C132.635 40.7781 132.26 44.533 134.012 48.5381C134.763 47.4117 135.514 46.2852 136.14 45.2839C138.142 47.2865 137.517 49.6646 137.016 52.0427C136.015 53.5446 135.013 55.1717 132.76 54.2956C132.26 53.5446 132.385 52.9188 132.76 52.1678C128.755 45.7846 128.129 39.151 131.884 32.3923Z" fill="#797877"/>
<path d="M144.024 67.3126C144.024 80.7048 144.024 93.972 144.024 107.364C144.024 108.866 144.775 110.618 143.023 111.745C143.023 98.1023 143.023 84.4597 143.148 70.8171C143.148 68.5642 143.273 66.4364 139.894 66.5616C138.142 66.6868 137.891 65.1848 137.891 63.8081C137.141 62.6816 135.388 61.9306 136.139 60.0532C138.517 59.6777 143.899 61.43 145.276 63.1823C144.275 64.4339 144.15 65.8106 144.024 67.3126Z" fill="#595A57"/>
<path d="M158.917 64.809C158.667 65.3097 158.417 66.311 158.166 66.311C152.534 66.1858 153.786 70.3161 153.786 73.5703C153.786 85.0852 153.786 96.4748 153.786 107.99C153.786 109.617 153.535 111.244 154.537 112.621C154.787 113.246 154.537 113.622 153.911 113.747C151.658 112.996 151.533 110.994 151.533 109.116C151.408 96.0994 151.533 83.0826 151.533 70.191C151.533 67.6877 152.409 65.6852 154.036 63.9329C154.787 62.9316 155.413 61.8052 156.038 60.8039C157.29 58.551 158.792 58.1755 160.669 60.0529C162.046 62.1806 159.418 63.0568 158.917 64.809Z" fill="#5A5A56"/>
<path d="M143.147 111.62C143.147 114.248 141.519 112.872 140.393 112.747C139.892 112.121 139.392 111.495 138.766 110.869C128.378 110.243 117.864 110.243 107.476 110.869C105.723 110.994 105.473 109.492 104.847 108.366C105.723 105.362 108.477 104.736 110.73 103.485C111.105 103.485 111.481 103.735 111.856 103.985C110.479 105.487 109.103 107.114 106.975 109.367C114.86 109.367 121.994 109.367 129.128 109.367C133.885 109.367 138.766 108.616 143.147 111.62Z" fill="#415551"/>
<path d="M154.537 113.497C154.537 113.121 154.537 112.871 154.537 112.495C156.164 112.37 157.166 113.622 158.042 114.748C161.296 118.628 160.295 129.267 156.415 132.897C156.289 132.772 156.164 132.646 155.914 132.396C155.288 131.77 154.913 131.145 155.038 130.143C156.039 125.387 157.541 120.631 154.037 116.125C152.785 114.999 153.911 114.248 154.537 113.497Z" fill="#70645A"/>
<path d="M124.122 54.1694C124.873 51.4159 122.87 49.0378 123.121 46.4094C123.997 46.7849 124.623 47.4107 124.748 48.2868C126.125 57.4236 127.001 66.6856 126.5 75.9475C126.375 77.1991 125.749 78.0753 124.998 78.9514C124.247 78.4507 123.872 77.6998 123.746 76.8236C124.122 69.314 123.872 61.6791 124.122 54.1694Z" fill="#C6CCCB"/>
<path d="M136.26 60.4296C136.635 61.6812 138.262 62.307 137.887 63.8089C136.51 63.5586 135.008 63.5586 133.756 63.058C128.374 60.9302 127.999 56.0489 132.63 52.1689C132.755 52.9199 132.755 53.6709 132.88 54.4218C133.381 56.7999 134.382 58.9277 136.26 60.4296Z" fill="#858782"/>
<path d="M123.373 85.8369C121.871 93.0962 118.117 98.9788 112.484 103.86C111.358 101.482 113.861 100.481 114.487 98.8536C114.737 98.4782 114.862 98.2278 115.113 97.8524C117.991 93.9723 119.744 89.4665 122.372 85.5865C122.873 85.3362 123.123 85.4614 123.373 85.8369Z" fill="#C6C5C9"/>
<path d="M158.917 64.8094C158.041 62.6816 160.795 62.0558 160.67 60.1784C161.546 59.1771 162.547 58.5513 163.924 59.3023C164.174 60.1784 164.8 60.9294 165.801 61.1797C164.299 63.8081 161.045 63.0571 158.917 64.8094Z" fill="#919292"/>
<path d="M114.486 130.017C117.99 130.268 121.244 131.644 124.123 133.522C120.368 133.647 117.239 132.145 114.486 130.017Z" fill="#C5C1C4"/>
<path d="M115.361 98.8527C115.236 100.98 112.732 101.731 112.482 103.859C112.232 103.984 112.107 103.984 111.856 103.984C111.481 103.859 111.105 103.859 110.73 103.734C110.73 100.605 111.606 98.3521 115.361 98.8527Z" fill="#0B3841"/>
<path d="M124.747 76.6987C124.873 77.4497 124.998 78.2007 124.998 78.9516C124.622 81.3297 125.624 83.9581 123.371 85.8355C123.246 85.7104 123.12 85.5852 122.87 85.46C121.618 83.2071 122.995 80.9542 122.87 78.5762C123.246 77.7 123.621 76.8239 124.747 76.6987Z" fill="#C6C5C9"/>
<path d="M6.3457 45.533C6.97151 48.2865 4.7186 50.6646 5.46957 53.293C5.71989 53.5433 5.84505 53.6684 5.71989 53.7936C5.59473 53.9188 5.46957 54.0439 5.34441 54.0439C5.09409 54.1691 4.84376 54.1691 4.59344 54.2943C4.34312 51.1652 3.71731 48.0362 6.3457 45.533Z" fill="#B4ADB0"/>
<path d="M104.848 126.638C104.848 126.388 104.848 126.138 104.722 125.888C107.476 125.637 109.604 126.889 111.606 128.391C109.103 128.891 107.226 126.764 104.848 126.638Z" fill="#2A5A69"/>
<path d="M166.805 59.5524C165.428 58.0505 165.428 56.5486 166.805 55.0466C167.556 56.5486 167.43 58.0505 166.805 59.5524Z" fill="#474747"/>
<path d="M161.419 46.2847C161.169 48.2873 160.794 50.2899 160.543 52.4176C157.79 55.797 156.163 56.0473 151.907 53.7944C151.657 53.4189 151.532 52.9183 151.657 52.5428C152.533 51.6667 153.659 51.5415 154.661 51.4164C156.288 51.166 158.04 50.9157 157.915 48.788C157.79 46.4099 155.912 45.9093 153.91 45.6589C153.034 45.5338 152.283 45.4086 151.657 44.6576C155.286 41.4034 158.165 41.9041 161.419 46.2847Z" fill="#6C4A3F"/>
<path d="M136.263 52.2936C136.138 49.9155 136.138 47.6626 136.013 45.2845C136.263 45.0342 136.513 44.7839 136.889 44.5336C139.517 43.0316 142.271 42.6561 144.899 44.6587H145.024C146.777 46.7865 147.277 49.1645 146.026 51.7929C145.775 52.1684 145.525 52.5439 145.275 52.9194C144.649 53.5452 143.898 53.9207 142.897 53.7955C142.271 53.5452 141.895 53.0445 141.895 52.4187C141.895 51.1671 142.897 50.4161 143.147 49.2897C143.397 48.1632 142.897 47.2871 141.895 46.7865C141.395 46.5361 140.769 46.411 140.268 46.7865C139.267 47.4123 139.142 48.4136 139.392 49.4148C139.642 50.5413 140.894 51.2923 140.769 52.5439C140.143 53.42 139.142 53.6703 138.14 53.9207C137.139 53.6703 136.513 53.2948 136.263 52.2936Z" fill="#5E2C24"/>
<path d="M152.034 52.4186C152.034 52.6689 151.909 52.9192 151.909 53.1695C152.409 53.6702 152.409 54.1708 152.159 54.7966C149.906 55.2973 147.403 54.4211 145.275 56.0482C143.648 55.0469 144.524 53.7953 144.9 52.5437L144.774 52.4186V52.1682C147.152 50.7915 145.4 48.0379 146.652 46.2856C148.279 47.5373 146.652 49.9153 148.154 51.4173C150.156 50.0405 148.279 47.5373 150.031 46.4108C151.533 48.1631 151.909 50.2908 152.034 52.4186Z" fill="#B5B3B0"/>
<path d="M152.033 52.4176C150.03 50.7905 150.406 48.4125 150.155 46.2847C150.781 45.6589 151.282 45.1583 151.908 44.5325C152.784 44.5325 153.785 44.5325 154.661 44.5325C153.284 47.286 153.91 49.9144 155.412 52.4176C154.286 52.4176 153.159 52.4176 152.033 52.4176Z" fill="#68301F"/>
<path d="M144.898 44.6578C142.269 43.5314 139.641 43.9068 136.887 44.5326C139.641 42.0294 142.269 41.4036 144.898 44.6578Z" fill="#785348"/>
<path d="M146.777 46.2853C146.277 48.2879 147.779 50.9163 144.9 52.1679C146.277 49.6647 145.901 47.1614 145.025 44.6582C145.901 44.7834 146.277 45.5343 146.777 46.2853Z" fill="#785348"/>
<path d="M40.2638 8.23571C41.1399 7.86023 41.8909 7.6099 42.767 7.23442C45.3954 6.85894 48.0238 6.60861 50.6522 5.98281C60.1644 3.98023 69.927 3.60474 79.4393 6.48345C83.3193 7.6099 87.0741 8.86152 90.5786 10.7389C106.975 18.8744 116.487 32.0164 120.743 49.6641C122.495 57.0486 121.869 64.308 122.244 71.6925C122.87 72.9441 122.62 73.8203 121.118 73.0693C119.741 72.3183 119.741 70.6912 119.366 69.3145C117.363 59.3015 111.105 52.668 102.469 47.9119C96.7115 44.7828 90.5786 43.4061 84.0703 43.9067C80.3154 44.157 76.5606 44.157 72.8057 43.9067C53.9064 43.0306 38.136 58.4254 37.3851 77.7003C36.7593 90.9674 43.6431 100.98 53.9064 108.865C54.7825 109.616 56.0341 109.742 57.1606 110.117C57.6612 110.242 58.0367 110.618 58.4122 110.868C60.0393 113.371 58.7877 115.124 56.4096 114.998C47.1476 114.498 37.6354 115.499 29.1244 110.367C27.7476 109.491 26.2457 108.991 25.6199 107.364C20.8638 103.233 16.1076 99.1029 12.8534 93.4706C9.47407 87.7132 7.34633 81.5803 7.34633 75.0719C7.22117 66.1854 6.09471 57.1738 8.34762 48.2873C12.6031 31.7661 22.7412 19.6254 37.2599 10.9893C38.5115 10.2383 39.638 9.61249 40.2638 8.23571Z" fill="#2A5B6A"/>
<path d="M25.494 107.364C34.7559 113.371 45.3947 113.371 55.7831 114.122C58.2863 114.247 58.9121 113.121 57.6605 110.993C61.5405 110.117 63.4179 111.244 64.7947 115.249C64.0437 115.249 63.4179 115.374 63.0424 116.125C61.7908 117.502 60.1637 117.376 58.5366 117.376C51.6527 117.126 44.6437 118.253 37.7598 116.375C34.8811 115.624 34.005 117.126 33.7547 119.755C32.8785 127.765 32.0024 135.775 30.8759 143.786C30.6256 144.912 29.8747 145.913 29.1237 146.664C27.8721 147.791 26.9959 149.167 25.9947 150.544C25.494 151.17 24.8682 151.671 24.4927 152.422C23.8669 153.924 24.1172 155.551 24.1172 157.178C24.2424 160.307 23.3663 162.435 19.6114 161.558C17.734 161.183 15.8566 160.807 15.1056 158.805C12.6024 156.302 8.47206 156.677 6.46948 153.423C9.84884 140.281 16.2321 128.265 21.1134 115.749C22.1147 112.871 22.1147 109.241 25.494 107.364Z" fill="#0F262B"/>
<path d="M5.34416 54.0444C5.21899 53.7941 5.34416 53.5438 5.46932 53.2935C7.09642 55.0457 6.22029 57.1735 6.22029 59.0509C6.34545 65.5593 6.22029 72.0677 5.21899 78.4509C5.34416 70.3154 5.34416 62.1799 5.34416 54.0444Z" fill="#0D2328"/>
<path d="M64.6721 115.249C62.9199 112.871 60.7921 110.994 57.5379 110.994C57.2876 110.994 57.0373 110.994 56.787 110.994C43.645 104.36 36.7611 89.0907 40.0153 75.6984C43.1444 62.6817 50.5289 54.421 62.7947 49.9152C65.0476 49.0391 67.3005 48.6636 69.5534 48.6636C75.0605 48.6636 80.5676 48.7887 86.0747 48.6636C99.467 48.4133 108.479 55.2971 115.112 66.1862C120.619 75.323 119.868 85.0855 116.864 94.723C116.489 96.0997 115.988 97.4765 115.362 98.7281C112.734 99.3539 111.858 101.607 110.732 103.609C108.729 105.111 106.726 106.613 104.724 108.115C99.9676 113.372 93.4592 113.122 87.3263 114.248C84.4476 115.375 81.4437 113.873 78.565 115.124C74.0592 115.249 69.3031 115.249 64.6721 115.249Z" fill="#06180C"/>
<path d="M29.7507 144.913C30.6269 135.776 31.6282 126.514 32.5043 117.377C32.7546 114.874 34.2565 113.873 36.2591 114.499C45.0204 117.377 54.032 115.625 63.0437 116.126C74.3082 115.75 85.6979 117.628 96.5869 113.873C98.5895 113.247 98.4643 114.749 98.8398 116.001C100.842 125.513 100.592 135.275 100.592 144.913C99.0901 146.415 97.0876 146.039 95.2101 146.039C85.9482 146.039 76.5611 146.039 67.2991 146.039C62.543 146.039 57.7869 146.164 53.0308 146.79C46.3972 147.666 39.7636 145.163 33.1301 146.665C31.7533 146.915 30.5017 146.164 29.7507 144.913Z" fill="#2A5A69"/>
<path d="M120.745 112.621C125.376 112.621 130.007 112.746 134.638 112.621C137.016 112.621 138.142 113.247 138.017 115.75C137.892 121.007 137.892 126.139 138.017 131.396C138.017 133.899 137.141 134.9 134.638 134.024C125.25 130.645 115.863 127.39 106.601 123.886C102.847 122.509 100.969 118.003 102.471 114.374C103.097 112.621 104.599 112.621 105.976 112.621C110.857 112.621 115.738 112.621 120.745 112.621Z" fill="#0B3841"/>
<path d="M29.7516 144.913C33.5065 146.415 37.1361 144.788 40.891 144.913C60.7916 145.038 80.6923 144.913 100.593 144.913C101.219 144.913 101.719 144.913 102.345 144.913C104.223 145.539 103.472 146.54 102.47 147.166C100.968 148.167 99.091 147.792 97.3387 147.792C83.3207 147.917 69.3026 147.666 55.2845 147.917C48.2755 147.666 41.2665 147.917 34.2574 147.917C32.1297 147.917 29.8768 148.292 28.1245 146.54C28.6252 146.039 29.1258 145.539 29.7516 144.913Z" fill="#1A2427"/>
<path d="M55.1611 146.664C69.9302 146.664 84.8244 146.664 99.5934 146.539C100.595 146.539 102.973 147.916 102.347 144.912C102.347 143.285 101.971 141.658 102.722 140.156C104.85 144.787 103.724 149.668 103.974 154.55C102.722 154.8 102.097 154.049 101.596 153.048C101.095 149.668 99.0928 148.667 95.7134 148.792C85.9508 148.917 76.3134 148.792 66.5508 148.792C64.1727 148.792 61.6695 148.917 59.2914 148.417C58.7908 148.417 59.1663 149.293 59.1663 148.667C62.2953 148.917 62.2953 150.92 61.6695 153.298C61.1689 153.924 60.5431 154.174 59.6669 154.049C57.5392 151.796 55.036 151.17 52.0321 151.295C50.2798 151.42 48.2772 151.671 46.6501 150.544C46.1495 147.916 48.4024 148.041 49.7792 147.791C51.5314 147.29 53.4089 147.29 55.1611 146.664Z" fill="#4A6157"/>
<path d="M107.476 110.743C112.733 109.116 118.115 110.117 123.371 110.117C128.503 110.117 133.76 109.116 138.766 110.743C128.378 110.868 117.864 110.868 107.476 110.743Z" fill="#4C453D"/>
<path d="M78.6868 115.249C81.4403 113.497 84.5694 114.748 87.4481 114.373C84.5694 116.125 81.5655 114.873 78.6868 115.249Z" fill="#0F262B"/>
<path d="M115.363 98.8537C115.488 92.846 117.991 87.0886 117.991 80.9557C118.116 68.4395 107.728 55.6731 96.5885 51.5427C89.3291 48.7892 82.0698 50.4163 74.6853 50.0408C60.6672 49.1647 50.1536 55.0473 44.0207 67.5634C36.7614 82.2073 39.5149 100.23 55.6607 109.743C56.1614 109.993 56.4117 110.619 56.662 111.12C50.9046 110.619 48.0259 105.863 44.8968 102.108C29.6272 83.7092 35.1343 59.3027 54.284 47.4124C59.1652 44.4086 64.7975 42.1557 71.1807 42.7815C76.062 43.1569 81.0685 42.9066 85.9498 42.9066C101.845 42.7815 112.609 50.7918 119.618 64.5595C120.995 67.1879 119.368 70.4421 121.621 72.695C121.621 72.695 121.871 72.695 121.996 72.5698C122.121 72.3195 122.121 72.0692 122.247 71.6937C122.497 71.6937 122.747 71.6937 123.123 71.6937C125.25 73.8215 122.872 76.4498 124.124 78.7027C124.875 81.206 122.998 83.2085 122.998 85.4615C120.87 90.0924 118.867 94.9737 115.363 98.8537Z" fill="#0B3841"/>
<path d="M123.997 78.7018C122.12 76.5741 123.497 73.9457 122.996 71.6928C122.996 67.187 122.996 62.6811 122.996 58.1753C122.996 56.7986 122.495 55.1715 123.872 54.1702C124.999 61.6799 123.997 69.1895 124.498 76.6992C124.498 77.325 124.248 78.076 123.997 78.7018Z" fill="#0D2025"/>
<path d="M151.032 186.091C146.901 186.716 145.65 185.089 145.65 180.834C145.775 144.537 145.775 108.24 145.775 71.8183C145.775 69.8157 145.274 67.688 147.652 66.5615C151.407 65.4351 152.283 65.9357 152.283 69.9409C152.408 81.9564 152.408 93.9719 152.283 106.113C152.158 111.87 153.535 117.627 153.159 123.51C151.783 143.285 152.534 163.186 152.283 183.087C152.283 183.963 153.034 185.715 151.032 186.091Z" fill="#927252"/>
<path d="M151.03 186.09C152.156 184.838 151.781 183.336 151.781 181.959C151.781 145.162 151.781 108.239 151.781 71.4419C151.781 68.4381 151.53 66.1852 147.65 66.6858C146.274 66.3103 145.147 66.811 144.021 67.4368C143.645 66.3103 141.893 65.8097 142.644 64.3077C143.27 63.0561 144.271 63.8071 145.147 63.8071C145.523 63.4316 146.023 63.0561 146.649 62.8058C148.777 61.8045 151.03 63.9322 153.032 62.5555C154.159 62.5555 155.16 62.8058 155.285 64.1826C152.907 66.4355 152.657 69.189 152.657 72.3181C152.782 84.4587 152.657 96.5994 152.782 108.615C152.782 110.492 152.281 112.495 154.534 113.496C155.41 114.623 153.408 114.497 153.783 115.374C155.661 118.503 154.534 121.882 154.784 125.136C154.91 127.014 154.409 128.891 155.16 130.768C155.786 131.144 156.036 131.645 155.911 132.396C152.782 132.771 152.782 135.149 152.782 137.527C152.782 152.922 152.782 168.192 152.782 183.586C152.782 184.963 153.658 187.467 151.28 187.467C148.902 187.341 145.773 189.469 144.021 185.965C146.399 186.841 148.652 187.341 151.03 186.09Z" fill="#403931"/>
<path d="M143.397 119.004C142.771 120.255 144.398 122.884 142.02 122.759C140.142 122.759 140.643 120.255 140.768 118.753C140.768 117.377 140.017 114.874 142.27 114.999C144.273 115.124 142.771 117.502 143.397 119.004Z" fill="#D5C4A8"/>
<path d="M142.396 131.019C140.894 129.518 140.143 128.266 141.144 126.639C141.519 126.138 142.27 125.888 142.646 126.263C143.522 127.64 143.522 129.142 142.396 131.019Z" fill="#AF977D"/>
<path d="M59.5416 153.673C60.1674 153.547 60.668 153.547 61.2938 153.422C61.5441 153.422 61.7945 153.297 62.0448 153.297C75.1867 153.297 88.2035 153.047 101.345 153.422C101.596 153.422 101.846 153.422 102.096 153.547C102.722 153.798 103.223 154.173 103.849 154.424C103.849 155.55 103.974 156.676 103.974 157.803C104.85 160.682 103.598 163.685 104.725 166.564V166.689C105.726 170.694 104.474 174.7 105.351 178.705C105.225 181.709 106.978 184.587 105.601 187.591C104.224 188.342 102.847 188.342 101.345 188.342C76.8138 188.342 52.2822 188.342 27.8757 188.342C22.9944 188.342 22.3686 187.591 22.4938 182.334C27.8757 181.083 33.2577 182.585 38.6396 181.584C40.3919 181.083 42.019 181.584 43.6461 182.209C47.6512 183.211 51.6564 183.211 55.7867 182.209C56.4125 181.834 56.9132 181.333 57.4138 180.833C58.7906 173.698 57.6641 166.439 58.0396 159.18C58.4151 157.427 57.7893 155.3 59.5416 153.673Z" fill="#223D44"/>
<path d="M23.6182 182.461C22.3666 186.09 23.6182 187.592 27.4982 187.592C53.5318 187.592 79.6905 187.592 105.724 187.592C104.848 189.47 103.096 189.094 101.469 189.094C76.8118 189.094 52.2802 189.094 27.6234 189.219C23.3679 189.219 21.7408 187.592 21.7408 183.337C21.7408 179.832 22.7421 176.202 20.9898 172.698C18.6118 170.946 15.6079 172.573 12.9795 171.571C15.8582 170.32 19.7382 172.823 21.3653 170.07C22.6169 168.067 22.7421 164.813 20.8647 162.435C19.4879 162.81 18.9872 162.059 19.1124 160.808C21.9911 161.433 22.9924 160.432 22.7421 157.303C22.6169 155.3 21.8659 153.048 23.493 151.17C24.8698 152.547 24.4943 154.424 24.6195 156.051C24.6195 157.804 24.4943 159.556 25.746 160.933C26.2466 161.934 26.3718 163.061 26.3718 164.312C26.4969 165.939 26.3718 167.566 26.3718 169.193C26.3718 170.32 26.2466 171.446 25.746 172.573C23.2427 175.452 25.4956 179.206 23.8685 182.21C23.9937 182.21 23.8685 182.335 23.6182 182.461Z" fill="#3E5C48"/>
<path d="M105.598 178.83C104.221 174.825 105.097 170.82 104.972 166.815C105.973 170.695 105.598 174.825 105.598 178.83Z" fill="#2A5A69"/>
<path d="M104.849 166.565C103.097 163.812 104.098 160.808 104.098 157.804C104.974 160.683 104.849 163.687 104.849 166.565Z" fill="#2A5A69"/>
<path d="M19.3606 160.683C19.9864 161.183 20.4871 161.809 21.1129 162.31C21.1129 163.311 21.3632 164.312 21.2381 165.314C20.8626 167.191 22.6148 170.07 18.9852 170.32C15.731 170.57 12.3516 170.696 11.3503 166.565C10.9748 165.189 11.1 163.687 10.9748 162.31C10.4742 158.68 11.851 157.679 15.2303 158.93C16.4819 159.431 17.8587 160.057 19.3606 160.683Z" fill="#EAD0B6"/>
<path d="M146.527 63.684C146.151 63.684 145.651 63.684 145.275 63.684C145.15 63.4337 145.15 63.1834 145.025 62.8079C143.523 59.6788 140.895 64.9356 140.394 62.6827C139.643 59.804 138.266 60.1795 136.389 60.4298C132.759 59.9292 132.008 57.6763 132.884 54.4221C134.637 54.5472 134.762 52.1692 136.389 52.2943C136.889 52.6698 137.515 53.0453 138.016 53.4208C139.768 53.1705 141.52 53.5459 143.273 53.4208C143.899 53.1705 144.399 52.9201 145.025 52.5446C145.901 53.6711 144.775 54.7976 145.025 55.924C145.025 56.1743 145.025 56.2995 145.025 56.5498C144.649 57.9266 144.524 59.4285 146.527 59.1782C148.404 58.9279 151.033 60.8053 151.909 57.4259C151.659 56.675 151.408 55.924 151.909 55.2982C151.909 54.6724 152.034 53.9214 152.034 53.2956C155.163 55.173 158.042 54.9227 160.67 52.5446C161.922 54.7976 166.678 55.2982 164.05 59.4285C162.923 59.6788 161.922 60.0543 160.795 60.3047C158.668 59.3034 157.04 59.3034 156.915 62.4324C156.915 63.3085 156.164 63.8092 155.413 64.1847C154.788 63.4337 154.037 62.5576 152.91 62.8079C151.909 63.4337 150.908 63.8092 149.781 62.933C148.279 61.5563 147.403 62.933 146.527 63.684Z" fill="#E5E5DE"/>
<path d="M166.052 44.282C166.052 42.0291 166.052 39.9013 166.052 37.6484C166.177 37.6484 166.303 37.6484 166.428 37.6484C166.428 40.0265 166.428 42.2794 166.428 44.6575C166.303 44.5323 166.177 44.4071 166.052 44.282Z" fill="#4D4E49"/>
<path d="M155.286 130.77C153.659 131.646 153.784 130.645 153.784 129.518C153.784 124.762 153.91 120.131 153.91 115.375C155.412 115.375 156.788 116.376 156.788 117.503C156.788 122.009 158.541 126.64 155.286 130.77Z" fill="#C1A289"/>
<path d="M155.413 52.5418C151.533 50.2889 151.282 47.6605 154.662 44.6567C157.415 44.5315 159.293 46.0335 159.543 48.4115C159.793 51.0399 157.791 52.1663 155.413 52.5418Z" fill="#D34209"/>
<path d="M140.643 52.5437C139.767 51.7927 138.64 51.1669 138.265 50.1656C137.389 48.5385 137.764 46.7862 139.391 45.5346C141.018 44.1579 142.27 44.7837 143.522 46.0353C145.024 47.4121 145.524 48.914 143.897 50.5411C143.271 51.1669 142.771 51.7927 142.145 52.4185C141.644 52.9192 141.144 52.9192 140.643 52.5437Z" fill="#DA4507"/>
<path d="M140.643 52.5444C141.143 52.5444 141.644 52.5444 142.144 52.5444C142.52 52.7948 142.895 53.1702 143.271 53.4206C141.519 54.6722 139.766 54.547 138.014 53.4206C138.515 52.2941 139.641 52.6696 140.643 52.5444Z" fill="#785348"/>
<path d="M151.783 55.2972C152.033 55.7978 152.409 56.4236 152.659 56.9243C153.535 58.5514 153.41 59.6779 151.282 59.9282C149.906 60.0533 148.404 59.9282 146.902 59.9282C143.147 59.803 143.022 59.803 144.774 56.0482C146.902 53.1694 149.155 52.043 151.783 55.2972Z" fill="#242622"/>
<path d="M29.7508 116.751C29.6256 125.387 27.1224 133.773 27.1224 142.409C27.1224 142.784 26.9972 143.41 26.7469 143.661C22.6166 147.165 20.1133 151.421 20.7391 157.178C20.8643 158.054 19.7379 158.93 18.4862 158.054C18.2359 157.929 18.1108 157.679 17.8604 157.428C15.1069 155.05 9.8501 155.551 8.97397 151.295C8.47332 147.791 10.8514 144.412 12.103 141.032C15.6075 132.271 19.112 123.51 22.8669 114.873C23.4927 113.371 23.743 110.493 26.9972 111.619C29.5004 112.495 30.2514 114.248 29.7508 116.751Z" fill="#0B3741"/>
<path d="M25.3691 160.433C24.3678 161.059 23.8672 160.933 23.8672 159.557C23.8672 156.678 23.8672 153.924 23.8672 151.046C24.493 150.67 24.9936 150.42 25.6194 150.044C29.4994 147.917 33.6298 148.793 37.7601 149.168C40.5136 151.296 41.8904 157.554 40.013 160.308C38.5111 162.435 37.3846 161.309 36.5085 159.807C34.6311 156.928 32.0027 156.553 28.9988 157.053C27.8723 157.304 27.2465 157.929 26.8711 158.931C26.3704 159.557 25.9949 160.057 25.3691 160.433Z" fill="#57AF83"/>
<path d="M38.5102 150.169C34.1295 150.169 29.8741 150.169 25.4934 150.169C26.2444 148.917 26.4947 147.29 28.1218 146.665C37.1334 146.665 46.145 146.665 55.1566 146.665C52.6534 148.792 49.0237 148.041 46.3954 150.044C45.8947 150.795 45.0186 150.92 44.2676 150.67C42.8908 149.794 41.6392 149.418 40.2624 150.545C39.5115 150.67 39.0108 150.545 38.5102 150.169Z" fill="#3A4B46"/>
<path d="M51.9056 82.0802C49.903 82.0802 48.6514 82.0802 47.6501 81.0789C46.5236 79.8273 44.3959 78.9512 44.8965 77.0738C45.3972 75.0712 47.7753 75.5718 49.4024 75.4467C50.654 75.3215 52.0307 75.3215 53.2824 75.4467C55.0346 75.5718 57.5378 74.5705 57.7882 77.3241C58.0385 79.7021 56.0359 80.8286 54.1585 81.7047C53.2824 82.0802 52.2811 82.0802 51.9056 82.0802Z" fill="#DA4407"/>
<path d="M107.974 75.323C109.976 76.3243 113.856 73.8211 113.982 77.4507C114.107 80.5798 110.853 81.9566 107.724 82.2069C104.845 82.4572 100.84 79.5785 101.34 77.5759C102.342 73.8211 105.721 76.1991 107.974 75.323Z" fill="#DD4606"/>
<path d="M61.2894 153.423C61.6649 150.92 60.5385 149.043 58.5359 147.416C72.0533 147.416 85.6959 147.416 99.2133 147.416C104.22 147.416 101.216 151.421 101.967 153.548C98.4624 154.55 94.8327 153.924 91.203 153.924C82.5669 154.049 73.9307 154.049 65.1694 153.924C64.043 154.049 62.5411 154.55 61.2894 153.423Z" fill="#B1BAC2"/>
<path d="M43.767 150.043C44.6432 150.043 45.5193 150.043 46.3954 149.918C49.2741 149.918 52.1528 150.043 55.0316 150.043C57.5348 150.043 59.1619 150.919 59.6625 153.547C59.6625 161.933 59.6625 170.319 59.5374 178.705C59.5374 180.207 60.038 182.084 57.6599 182.46C57.5348 182.209 57.2845 182.084 57.1593 181.834C55.6574 175.951 56.7838 169.818 56.5335 163.811C56.4083 161.433 56.5335 158.929 56.5335 156.551C56.5335 155.3 56.6586 153.923 55.0316 153.422C52.278 152.671 49.5245 153.172 46.7709 152.922C46.2703 152.922 45.8948 152.796 45.3941 152.671C44.518 152.421 43.767 152.045 43.1412 151.42C42.8909 151.044 42.7657 150.669 42.8909 150.293C43.0161 149.918 43.3915 149.918 43.767 150.043Z" fill="#61A585"/>
<path d="M146.529 63.683C146.904 61.8055 148.281 60.5539 149.658 62.181C150.909 63.4326 151.91 62.181 152.787 62.8068C152.161 64.0584 151.535 65.6855 149.908 63.8081C148.656 62.4313 147.655 63.5578 146.529 63.683Z" fill="#828380"/>
<path d="M60.0405 185.965C61.4173 184.088 61.2921 182.335 61.2921 180.708C61.2921 173.824 61.2921 167.066 61.2921 160.182C61.2921 157.428 62.2934 156.177 65.047 156.302C75.185 156.802 85.3231 155.426 95.4612 157.053C97.5889 157.428 100.593 154.424 101.844 158.054C102.595 160.182 102.22 162.685 102.22 164.938C102.095 170.695 104.348 176.328 103.972 182.21C103.847 184.839 103.346 186.09 100.342 186.09C87.2005 185.84 73.9334 185.965 60.0405 185.965Z" fill="#2A5A69"/>
<path d="M43.0178 150.295C43.0178 150.545 43.0178 150.796 43.0178 151.046C44.3946 152.798 44.1442 154.926 44.1442 156.929C44.2694 165.189 44.0191 173.45 44.2694 181.836C44.2694 182.336 44.1443 182.962 43.8939 183.463C42.392 183.463 41.1404 182.086 39.5133 182.587C39.3881 182.462 39.263 182.336 39.0126 182.211C37.761 179.958 38.7623 177.455 38.0113 174.827C35.383 177.58 32.3791 178.331 28.9997 176.579C29.5004 173.325 32.0036 175.828 33.13 175.202C33.881 175.202 33.13 174.201 33.3804 174.827C33.5055 175.077 33.3804 175.077 33.0049 175.077C28.4991 175.453 30.8771 172.073 30.3765 170.321C30.2513 168.944 28.9997 167.693 29.3752 166.191C29.5004 165.69 29.8758 165.189 30.001 164.564C31.2526 160.183 30.1262 158.681 25.6204 159.056C25.8707 157.054 26.7468 156.178 28.8746 155.927C33.5055 155.176 36.6346 156.804 38.7623 162.311C39.6384 157.554 40.0139 153.925 38.6371 150.42C39.263 150.42 39.7636 150.42 40.3894 150.42C41.1404 150.295 42.1417 149.544 43.0178 150.295Z" fill="#436D57"/>
<path d="M61.291 153.423C74.9336 153.423 88.5762 153.548 102.219 153.548C102.219 154.174 101.968 154.674 101.217 154.674C88.8265 154.549 76.3104 154.549 63.9194 154.424C62.9181 154.549 61.9168 154.549 61.291 153.423Z" fill="#4A6157"/>
<path d="M43.8936 183.337C43.8936 183.087 43.8936 182.836 43.8936 182.586C43.8936 182.336 44.0187 182.085 44.0187 181.96C44.269 181.585 44.6445 181.334 45.1452 181.209C45.3955 181.209 45.6458 181.209 45.8961 181.209C46.1465 181.209 46.3968 181.209 46.6471 181.334C48.7748 181.585 50.9026 181.334 53.0303 181.585C54.5323 181.71 56.2845 181.71 56.9103 183.587C52.5297 184.714 48.149 184.714 43.8936 183.337Z" fill="#06040A"/>
<path d="M39.3873 182.46C34.1305 183.711 28.8737 183.711 23.6169 182.46L23.7421 182.334C28.8737 180.332 34.0053 180.457 39.2621 182.209L39.3873 182.46Z" fill="#3E5C48"/>
<path d="M44.769 185.215C48.7742 185.215 52.7794 185.215 56.7845 185.215C56.7845 185.34 56.7845 185.465 56.7845 185.591C52.7794 185.591 48.8994 185.591 44.8942 185.591C44.8942 185.465 44.8942 185.34 44.769 185.215Z" fill="#295662"/>
<path d="M56.7843 183.336C54.7817 181.96 52.5288 182.711 50.4011 182.46C48.774 182.335 46.8966 183.211 45.5198 181.459C49.6501 180.333 53.9056 178.455 57.6604 182.335L57.5353 182.586C57.4101 182.836 57.0346 183.086 56.7843 183.336Z" fill="#354036"/>
<path d="M39.2621 182.21C34.1305 182.711 28.9989 182.461 23.7421 182.335C23.7421 179.582 23.7421 176.953 23.6169 174.2C23.6169 172.948 23.7421 172.072 25.244 172.948C26.6208 173.824 27.7473 175.076 28.7486 176.328C32.6286 176.828 36.2582 176.953 38.2608 171.947C40.0131 175.702 39.0118 178.956 39.2621 182.21Z" fill="#58B185"/>
<path d="M28.8734 176.202C26.6205 176.202 25.7444 174.826 25.3689 172.823C25.3689 171.572 25.4941 170.445 25.4941 169.193C25.9947 168.818 26.6205 168.693 27.1212 168.943C27.8721 171.071 28.3728 169.193 28.9986 168.818C29.8747 168.443 30.6257 168.693 31.3766 169.193C32.1276 171.196 28.8734 175.076 34.756 174.826C32.5031 175.952 30.5005 174.701 28.8734 176.202Z" fill="#33423A"/>
<path d="M25.4954 158.93C26.9974 158.054 28.7496 155.801 30.2516 157.929C31.8787 160.307 33.0051 163.436 29.8761 165.939C29.1251 165.563 28.6245 164.938 28.3741 164.061C28.1238 163.936 28.4993 163.185 27.8735 163.436C27.6232 163.561 27.498 164.061 27.1225 164.437C26.4967 164.687 25.8709 164.687 25.3703 164.187C25.3703 162.935 25.2451 161.683 25.2451 160.557C25.3703 159.931 25.4954 159.43 25.4954 158.93Z" fill="#33423A"/>
<path d="M28.8746 163.937C29.6255 164.313 29.8758 165.064 30.001 165.94C29.6255 167.442 31.0023 168.193 31.5029 169.319C30.6268 169.319 29.7507 169.444 28.9997 169.444C28.4991 169.945 27.8733 169.945 27.3726 169.444C26.7468 169.444 26.2462 169.319 25.6204 169.319C25.6204 167.567 25.6204 165.94 25.6204 164.187C26.2462 164.062 26.872 164.062 27.4978 163.937C27.8733 163.562 28.3739 163.562 28.8746 163.937Z" fill="#0F120F"/>
<path d="M144.898 55.9233C145.399 57.0498 142.896 59.6782 145.774 59.4279C148.027 59.1775 152.158 62.3066 152.658 56.9246C152.908 57.0498 153.284 57.175 153.409 57.4253C154.035 58.5517 154.035 60.1788 152.658 60.1788C149.654 60.4292 146.15 61.6808 143.521 59.4279C142.27 58.4266 143.396 56.6743 144.898 55.9233Z" fill="#B5B3B0"/>
<path d="M43.0179 150.294C42.0166 150.795 41.0153 152.047 40.1392 150.169C41.2656 147.666 42.5172 147.666 43.6437 150.044C43.5185 150.169 43.2682 150.169 43.0179 150.294Z" fill="#1E2D27"/>
<path d="M57.7881 182.335C53.9081 180.332 49.6526 182.335 45.6474 181.459C44.7713 180.582 44.3958 179.456 44.3958 178.329C44.521 171.07 43.8952 163.811 44.6462 156.676C45.0216 155.926 45.3971 155.175 46.3984 155.425C47.9004 157.052 47.65 159.18 47.65 161.182C47.7752 166.064 47.65 171.07 47.7752 175.951C47.7752 177.704 48.2758 179.206 50.4036 179.206C52.6565 179.206 52.9068 177.578 52.9068 175.951C53.1571 169.568 52.5313 163.185 53.2823 156.927C53.9081 155.3 54.5339 153.798 55.0346 152.171C58.1636 152.296 57.663 154.549 57.663 156.551C57.7881 165.062 57.7881 173.698 57.7881 182.335Z" fill="#5B7C69"/>
<path d="M55.0336 152.047C56.4104 153.674 56.7858 155.05 54.1575 155.551C51.6542 157.053 49.151 157.053 46.6478 155.551C46.2723 155.801 45.7716 155.927 45.3962 156.177C44.8955 156.427 44.52 156.302 44.2697 155.927C43.6439 154.3 43.6439 152.798 45.7716 152.047C48.7755 152.047 51.9046 152.047 55.0336 152.047Z" fill="#212F29"/>
<path d="M43.8943 182.586C42.893 182.21 42.7678 181.334 42.7678 180.458C42.7678 170.695 42.893 160.933 43.0181 151.17C43.644 151.17 44.2698 151.295 44.6453 151.921C44.5201 160.182 44.7704 168.317 44.6453 176.578C44.6453 178.581 44.7704 180.583 43.8943 182.586Z" fill="#77CAA7"/>
<path d="M43.897 182.461C43.897 173.325 43.7719 164.188 43.7719 155.051C43.7719 153.925 43.6467 152.673 44.648 151.797C45.0235 151.922 45.3989 151.922 45.6493 152.047C44.2725 153.174 44.5228 154.676 44.7731 156.178C45.3989 164.689 45.2738 173.074 44.7731 181.585C44.5228 181.961 44.1473 182.211 43.897 182.461Z" fill="#4C7A64"/>
<path d="M32.3784 174.326C32.3784 168.693 32.3784 163.937 32.3784 158.555C36.1333 160.057 36.2584 163.311 36.3836 165.689C36.7591 168.818 36.2584 172.073 32.3784 174.326Z" fill="#EFF0EB"/>
<path d="M44.769 181.584C44.769 173.073 44.769 164.688 44.769 156.177C45.0194 156.177 45.1445 156.177 45.3948 156.177C45.52 164.562 45.52 173.073 45.6452 181.459C45.2697 181.459 45.0194 181.584 44.769 181.584Z" fill="#354036"/>
<path d="M27.2487 169.319C27.7494 169.319 28.3752 169.319 28.8758 169.319C28.8758 170.696 29.1262 172.072 27.9997 173.574C26.7481 172.198 27.3739 170.696 27.2487 169.319Z" fill="#676564"/>
<path d="M28.8732 163.938C28.3726 163.938 27.8719 163.938 27.3713 163.938C27.3713 162.436 26.7455 160.809 27.9971 159.182C29.4991 160.558 28.7481 162.311 28.8732 163.938Z" fill="#5E5F5C"/>
<path d="M46.5204 155.551C49.0236 155.551 51.5269 155.551 54.0301 155.551C54.9062 163.186 54.2804 170.946 54.4056 178.581C54.4056 181.71 51.9023 180.834 50.2752 180.834C48.6481 180.834 46.1449 181.835 46.1449 178.581C46.3952 170.946 45.7694 163.186 46.5204 155.551Z" fill="#E5E5DD"/>
</svg>
