<svg width="315" height="311" viewBox="0 0 315 311" fill="none" xmlns="http://www.w3.org/2000/svg">
<g clip-path="url(#clip0)">
<path d="M68.758 93.7676L67.6013 93.2529C68.6295 90.6792 69.2721 88.6203 69.5291 86.8187L70.8143 86.9474C70.4287 89.0063 69.7861 91.1939 68.758 93.7676ZM68.2439 79.0976C65.802 73.5642 61.1754 70.0898 54.8779 69.0603L55.135 67.7734C61.818 68.9316 66.8302 72.6634 69.5291 78.4542L68.2439 79.0976Z" fill="#407BFF"/>
<path d="M61.4324 106.765L48.8375 112.555L48.3235 111.269C47.2953 109.081 46.7812 107.279 46.6527 105.735C46.5242 104.191 46.6527 102.647 47.1668 101.102C47.6809 99.5583 48.9661 96.5985 51.0224 92.2233C52.179 89.907 52.4361 88.2341 51.922 86.9472C51.4079 85.7891 50.6368 84.8883 49.6087 84.6309C48.5805 84.2449 47.2953 84.5022 45.8816 85.1456C44.3394 85.9178 43.1827 86.9472 42.6686 88.4914C42.1546 90.0356 42.2831 92.0946 43.1827 94.797L29.5597 99.0435C27.889 94.0248 27.889 89.5209 29.5597 85.1456C31.2304 80.8991 35.2145 77.2959 41.3834 74.4649C46.2672 72.2772 50.6368 71.5051 54.4924 72.1485C59.7617 73.0493 63.4887 75.7517 65.545 80.2556C66.4446 82.1859 66.7017 84.2449 66.4446 86.4325C66.1876 88.6201 65.0309 91.8372 62.9746 95.8264C61.5609 98.6575 60.7898 100.716 60.6613 102.003C60.4043 103.419 60.6613 104.963 61.4324 106.765ZM49.9942 116.03L63.4887 109.853L68.8865 121.821L55.392 127.997L49.9942 116.03Z" fill="#407BFF"/>
<path d="M30.2019 135.332L23.7759 144.083L22.8763 143.44C21.3341 142.281 20.3059 141.252 19.6633 140.222C19.0207 139.193 18.5066 138.035 18.2496 136.877C17.9926 135.59 17.7355 133.145 17.4785 129.413C17.35 127.483 16.9644 126.067 16.0648 125.552C15.1652 124.909 14.394 124.652 13.4944 124.909C12.7233 125.038 11.8237 125.681 11.1811 126.711C10.41 127.74 10.0244 129.027 10.2814 130.185C10.5385 131.472 11.4381 132.759 12.9803 134.303L5.2692 142.41C2.18474 139.708 0.513993 136.491 -8.28803e-05 133.016C-0.514159 129.413 0.89955 125.552 3.98401 121.306C6.42587 117.96 9.12476 115.772 12.0807 114.743C16.0648 113.327 19.5348 113.842 22.7478 116.159C24.033 117.059 25.0611 118.346 25.7037 120.019C26.3463 121.692 26.7319 124.137 26.8604 127.74C26.9889 130.185 27.2459 131.858 27.6315 132.887C28.1456 133.531 29.0452 134.432 30.2019 135.332ZM25.8322 146.142L32.7723 136.748L40.9975 142.796L34.0574 152.19L25.8322 146.142Z" fill="#407BFF"/>
<path d="M166.946 306.354C164.89 306.354 162.833 305.196 161.805 303.266C156.664 293.228 150.11 281.518 138.415 268.907C137.001 267.363 136.615 265.304 137.13 263.373C141.499 248.317 148.311 227.728 148.311 227.471C149.339 224.382 152.552 222.838 155.636 223.867C158.721 224.897 160.263 228.114 159.235 231.202C159.235 231.331 153.323 249.09 149.082 263.631C159.877 275.856 166.432 287.437 171.958 298.118C173.372 300.949 172.344 304.424 169.516 305.839C168.745 306.225 167.846 306.354 166.946 306.354Z" fill="#407BFF"/>
<path d="M176.585 310.987H131.86L155.636 297.604L175.428 298.376L176.585 310.987Z" fill="#263238"/>
<path d="M172.365 256.767C192.69 250.407 204.893 231.558 199.62 214.666C194.348 197.775 173.598 189.238 153.273 195.598C132.948 201.958 120.746 220.807 126.018 237.698C131.29 254.589 152.04 263.127 172.365 256.767Z" fill="#263238"/>
<path d="M61.0465 205.208C58.7332 205.208 56.6769 203.921 55.7773 201.605C54.6206 198.645 55.9058 195.299 58.8617 194.013C62.2032 192.597 62.7173 189.251 62.7173 189.123C62.9743 186.549 64.9021 184.49 67.4725 183.975C68.8862 183.718 70.1714 183.332 71.7136 182.946C79.5533 180.629 89.1922 177.798 119.651 186.42C149.725 169.563 149.982 138.035 149.982 136.619C149.982 133.402 152.552 130.829 155.765 130.829C158.978 130.829 161.548 133.402 161.548 136.491C161.548 138.164 161.42 177.798 122.993 197.616C121.707 198.259 120.165 198.388 118.752 198.002C89.7063 189.637 81.481 191.954 74.9266 193.884C74.284 194.013 73.7699 194.27 73.1273 194.399C71.7136 198.002 68.7577 202.248 63.3599 204.565C62.5888 205.079 61.8176 205.208 61.0465 205.208Z" fill="#263238"/>
<path d="M128.391 163.901C117.467 120.405 88.4213 8.06412 181.726 1.24387C265.52 -4.93297 288.525 106.765 294.052 145.37C297.265 167.89 298.421 188.351 298.55 204.307C298.807 224.897 284.284 242.655 264.107 246.773C218.482 256.038 175.3 257.325 146.255 245.872C138.415 242.784 133.66 234.677 134.431 226.312C135.588 213.83 135.588 192.34 128.391 163.901Z" fill="#407BFF"/>
<path opacity="0.1" d="M294.051 145.37C288.782 108.952 268.091 7.67794 195.477 1.24374C186.995 0.47163 178.77 4.71821 174.786 12.1819C171.573 18.4874 171.701 26.0798 176.456 33.5434C192.393 58.3795 230.563 144.212 224.78 190.924C222.209 212.157 208.843 229.143 220.41 253.079C234.419 251.92 249.07 249.733 263.978 246.644C284.155 242.526 298.55 224.768 298.421 204.179C298.421 188.35 297.393 167.89 294.051 145.37Z" fill="black"/>
<path d="M281.586 204.951C281.329 204.951 281.071 204.694 281.071 204.436C280.814 184.49 279.272 164.802 276.573 145.499C262.565 49.3719 225.166 0.857965 168.36 4.97586C168.103 4.97586 167.718 4.71849 167.718 4.46112C167.718 4.20375 167.975 3.8177 168.232 3.8177C225.808 -0.428876 263.593 48.5998 277.601 145.37C280.429 164.673 281.971 184.49 282.1 204.436C282.228 204.694 281.971 204.951 281.586 204.951Z" fill="#263238"/>
<path d="M280.716 259.87C301.04 253.51 313.243 234.661 307.971 217.77C302.699 200.879 281.949 192.341 261.624 198.701C241.299 205.061 229.096 223.91 234.368 240.802C239.64 257.693 260.391 266.23 280.716 259.87Z" fill="#263238"/>
<path d="M284.284 306.354C282.228 306.354 280.171 305.196 279.143 303.266C274.002 293.228 267.448 281.518 255.753 268.907C254.339 267.363 253.953 265.304 254.467 263.373C258.837 248.317 265.649 227.728 265.649 227.471C266.677 224.382 269.89 222.838 272.974 223.867C276.059 224.897 277.601 228.114 276.573 231.202C276.573 231.331 270.661 249.09 266.42 263.631C277.215 275.856 283.77 287.437 289.296 298.118C290.71 300.949 289.682 304.424 286.854 305.839C286.083 306.225 285.183 306.354 284.284 306.354Z" fill="#407BFF"/>
<path d="M272.075 130.443C270.019 130.443 267.962 129.285 266.934 127.354C265.521 124.523 266.549 121.049 269.376 119.505C270.533 118.861 295.594 105.221 302.663 72.149C285.955 65.2001 255.882 49.3719 249.327 41.3935C248.685 40.6214 248.299 39.7206 248.042 38.6911C247.913 37.7903 246.757 30.9701 249.327 24.5359L246.243 18.6164C244.829 15.7854 245.857 12.3109 248.685 10.8954C251.512 9.47984 254.982 10.5093 256.396 13.3404L260.765 21.8335C261.665 23.6351 261.665 25.8227 260.508 27.4956C259.095 29.6833 258.966 33.029 259.095 35.088C266.549 41.7796 296.365 57.6077 311.016 63.1411C313.587 64.0419 315.129 66.7443 314.743 69.4466C308.189 111.655 276.059 129.027 274.645 129.671C274.003 130.186 272.975 130.443 272.075 130.443Z" fill="#263238"/>
<path d="M253.697 40.6213C253.183 40.6213 252.669 40.4926 252.155 40.1066C250.869 39.2058 250.484 37.4042 251.255 36.1174C251.512 35.86 256.267 28.6537 263.464 26.7234C265.007 26.3374 266.549 27.2382 266.934 28.7824C267.32 30.3266 266.42 31.8708 264.878 32.2569C259.866 33.6724 256.01 39.2058 256.01 39.3345C255.625 40.2353 254.725 40.6213 253.697 40.6213Z" fill="#263238"/>
<path d="M293.795 310.987H249.07L272.846 297.604L292.638 298.376L293.795 310.987Z" fill="#263238"/>
<path d="M200.223 138.566C217.121 137.069 229.728 123.516 228.383 108.296C227.038 93.0754 212.249 81.9506 195.351 83.448C178.453 84.9453 165.845 98.4978 167.191 113.718C168.536 128.939 183.325 140.064 200.223 138.566Z" fill="white"/>
<path d="M194.424 128.582C198.929 127.297 200.69 119.606 198.356 111.404C196.022 103.203 190.478 97.5956 185.973 98.8809C181.468 100.166 179.707 107.857 182.041 116.059C184.375 124.26 189.919 129.867 194.424 128.582Z" fill="#263238"/>
<path d="M162.833 116.287C182.24 113.842 220.667 102.776 226.964 98.4003C221.952 83.7303 198.69 71.248 177.998 78.3256C159.235 84.6311 162.833 116.287 162.833 116.287Z" fill="#263238"/>
<path d="M166.561 125.681C190.594 121.049 221.952 113.456 230.949 108.438C230.434 124.137 225.808 140.094 201.261 145.499C181.083 149.874 166.561 125.681 166.561 125.681Z" fill="#263238"/>
<path d="M146.752 140.732C155.454 134.967 156.603 121.356 149.318 110.332C142.033 99.3071 129.073 95.0431 120.371 100.808C111.67 106.573 110.521 120.183 117.806 131.208C125.091 142.233 138.051 146.497 146.752 140.732Z" fill="white"/>
<path d="M133.917 121.177C135.331 128.126 134.174 133.788 131.089 134.046C128.134 134.303 124.406 128.77 122.993 121.949C121.579 115.001 122.736 109.338 125.82 109.081C128.776 108.824 132.503 114.228 133.917 121.177Z" fill="#263238"/>
<path d="M110.012 118.475C122.993 120.019 148.825 118.347 153.195 115.902C149.982 103.419 134.559 89.264 120.679 91.0656C107.956 92.8671 110.012 118.475 110.012 118.475Z" fill="#263238"/>
<path d="M112.454 126.582C128.647 127.354 149.725 126.968 155.765 124.652C155.251 137.006 151.909 148.844 135.459 148.587C121.965 148.458 112.454 126.582 112.454 126.582Z" fill="#263238"/>
<path d="M205.502 70.4758C181.212 70.4758 165.147 58.5082 164.248 57.8647C161.677 55.9345 161.163 52.3313 163.091 49.7576C165.019 47.184 168.617 46.6692 171.188 48.5995C171.445 48.8569 190.594 62.7547 217.198 57.7361C220.282 57.0926 223.367 59.1516 223.881 62.3687C224.523 65.4571 222.467 68.5455 219.254 69.0603C214.627 70.0897 210.001 70.4758 205.502 70.4758Z" fill="#263238"/>
<path d="M102.43 60.5672C101.787 60.5672 101.145 60.4386 100.502 60.1812C97.5463 59.1517 96.0041 55.8059 97.0323 52.8462C100.117 44.353 105.129 38.8196 112.069 36.3746C124.664 31.9994 138.158 40.4925 138.801 40.8786C141.5 42.5515 142.271 46.1546 140.6 48.857C138.929 51.5594 135.331 52.3315 132.632 50.6586C130.062 48.9857 121.836 45.2538 115.796 47.3128C112.326 48.4709 109.756 51.5593 107.828 56.7067C107.057 59.023 104.872 60.5672 102.43 60.5672Z" fill="#263238"/>
<path d="M147.925 157.853C147.797 157.853 147.668 157.853 147.411 157.724C146.512 157.467 145.998 156.566 146.255 155.665C146.255 155.536 147.411 151.804 152.167 149.359C158.721 145.885 168.874 146.657 182.111 151.418C183.011 151.804 183.525 152.705 183.14 153.606C182.754 154.507 181.854 155.022 180.955 154.636C165.79 149.102 157.821 150.26 153.966 152.319C150.496 153.992 149.725 156.437 149.725 156.566C149.339 157.467 148.696 157.853 147.925 157.853Z" fill="#263238"/>
<path d="M93.4333 151.547C59.8899 154.635 35.9854 168.533 35.9854 168.533C45.8813 166.603 81.4811 210.613 90.6059 244.585C107.442 238.28 127.105 234.033 148.054 230.688C135.202 195.686 112.069 156.051 93.4333 151.547Z" fill="#407BFF"/>
<path opacity="0.6" d="M93.4333 151.547C59.8899 154.635 35.9854 168.533 35.9854 168.533C45.8813 166.603 81.4811 210.613 90.6059 244.585C107.442 238.28 127.105 234.033 148.054 230.688C135.202 195.686 112.069 156.051 93.4333 151.547Z" fill="white"/>
<path d="M93.4334 151.547C71.4567 149.102 35.8569 167.504 35.8569 167.504C29.5595 171.493 31.2302 179.085 34.7003 182.302C38.0418 177.541 74.7982 165.187 88.6782 163.515C81.8667 157.08 88.2927 152.448 93.4334 151.547Z" fill="#407BFF"/>
<path opacity="0.2" d="M93.4334 151.547C71.4567 149.102 35.8569 167.504 35.8569 167.504C29.5595 171.493 31.2302 179.085 34.7003 182.302C38.0418 177.541 74.7982 165.187 88.6782 163.515C81.8667 157.08 88.2927 152.448 93.4334 151.547Z" fill="white"/>
<path d="M61.0465 205.208C59.1187 205.208 57.3194 204.307 56.1627 202.634C51.9216 196.2 54.6205 186.42 55.1346 184.49C56.0342 181.401 59.2472 179.729 62.3316 180.629C65.4161 181.53 67.0868 184.747 66.1872 187.836C65.2876 191.053 65.0305 195.171 65.8017 196.329C67.6009 199.031 66.8298 202.634 64.1309 204.307C63.2313 204.822 62.2031 205.208 61.0465 205.208Z" fill="#263238"/>
</g>
<defs>
<clipPath id="clip0">
<rect width="315" height="310" fill="white" transform="translate(0 0.986328)"/>
</clipPath>
</defs>
</svg>
