<svg width="269" height="237" viewBox="0 0 269 237" fill="none" xmlns="http://www.w3.org/2000/svg">
<path d="M6.33923 52.814L6.27483 52.8467L6.21944 52.8931L4.39956 54.4171L4.60574 52.0564C4.63471 51.8593 4.61336 51.6544 4.51609 51.4603C4.42109 51.2708 4.28032 51.1465 4.1755 51.0677L4.15662 51.0535L4.13673 51.0408L2.13755 49.7601L4.40072 49.2272C4.88062 49.1421 5.11808 48.7665 5.20229 48.5076L5.20963 48.485L5.21526 48.4619L5.78009 46.1499L6.98487 48.2025L6.99688 48.2229L7.01039 48.2424C7.16538 48.4663 7.50067 48.7579 7.98481 48.7017L10.3057 48.5624L8.75833 50.3632L8.74294 50.3811L8.72892 50.4001C8.65112 50.5056 8.55196 50.6651 8.51537 50.8739C8.4779 51.0877 8.51629 51.2902 8.60062 51.4707L9.49235 53.7144L7.27717 52.7622C7.08607 52.6558 6.88856 52.6538 6.75193 52.6739C6.59646 52.6966 6.45443 52.7555 6.33923 52.814Z" fill="#FFC000" stroke="#FFC000" stroke-width="1.26688"/>
<path d="M255.048 230.56L254.984 230.592L254.928 230.639L249.722 234.998C249.722 234.999 249.721 234.999 249.721 234.999C249.602 235.097 249.494 235.09 249.413 235.045C249.331 235 249.206 234.873 249.197 234.587L249.778 227.937C249.83 227.614 249.794 227.307 249.653 227.024C249.515 226.749 249.302 226.553 249.106 226.405L249.087 226.391L249.067 226.378L243.399 222.747L243.389 222.741L243.379 222.735C243.25 222.658 243.2 222.53 243.227 222.385C243.257 222.232 243.353 222.149 243.46 222.134L243.486 222.13L243.513 222.124L249.971 220.603C250.693 220.484 251.066 219.922 251.207 219.49L251.214 219.468L251.22 219.445L252.824 212.876L252.829 212.855L252.833 212.835C252.856 212.707 252.953 212.609 253.116 212.585C253.279 212.561 253.4 212.627 253.458 212.743L253.468 212.762L253.478 212.78L256.901 218.612L256.913 218.632L256.927 218.652C257.185 219.025 257.705 219.455 258.43 219.363L265.023 218.967C265.215 218.978 265.354 219.085 265.414 219.196C265.444 219.251 265.451 219.3 265.447 219.342C265.442 219.379 265.425 219.438 265.356 219.512L265.349 219.521L265.341 219.529L260.954 224.635L260.939 224.653L260.925 224.672C260.779 224.87 260.631 225.119 260.578 225.422C260.524 225.733 260.578 226.038 260.72 226.332L263.188 232.542C263.238 232.718 263.186 232.883 263.082 232.99C262.987 233.089 262.838 233.15 262.637 233.091L256.474 230.441C256.231 230.295 255.965 230.284 255.751 230.315C255.516 230.35 255.277 230.443 255.048 230.56Z" fill="#FFC000" stroke="#FFC000" stroke-width="1.26688"/>
<path d="M243.193 28.0779L243.121 28.0757L243.05 28.0899L235.958 29.5082C235.957 29.5083 235.957 29.5084 235.956 29.5085C235.779 29.542 235.665 29.473 235.602 29.3754C235.54 29.2784 235.489 29.0783 235.634 28.7944L239.574 22.8707C239.782 22.6008 239.903 22.3033 239.914 21.9767C239.926 21.6574 239.83 21.3724 239.723 21.1368L239.713 21.1153L239.702 21.0946L236.256 14.8069L236.251 14.7968L236.245 14.7869C236.153 14.6327 236.176 14.4688 236.285 14.3356C236.4 14.1961 236.55 14.1597 236.676 14.2066L236.702 14.216L236.728 14.2232L243.543 16.0984C244.259 16.349 244.88 16.0241 245.225 15.6984L245.243 15.6822L245.259 15.6646L250.112 10.3429L250.126 10.3274L250.139 10.3111C250.238 10.1865 250.399 10.143 250.577 10.2089C250.755 10.2748 250.849 10.4125 250.844 10.5717L250.843 10.5926L250.844 10.6136L251.067 17.8124L251.067 17.8361L251.07 17.8597C251.12 18.3315 251.38 18.9822 252.088 19.2581L258.456 22.2549C258.643 22.371 258.727 22.5559 258.726 22.7049C258.726 22.7789 258.706 22.8376 258.675 22.8812C258.646 22.922 258.592 22.9733 258.483 23.0102L258.472 23.0138L258.461 23.0179L251.754 25.5514L251.732 25.5598L251.711 25.5697C251.476 25.6789 251.218 25.8331 251.019 26.0828C250.815 26.3383 250.713 26.6426 250.696 26.9835L249.833 34.0518C249.787 34.2576 249.642 34.3969 249.476 34.4489C249.322 34.497 249.135 34.4751 248.966 34.3036L244.554 28.6773C244.408 28.4259 244.174 28.2839 243.962 28.2057C243.731 28.1201 243.465 28.086 243.193 28.0779Z" fill="#FFC000" stroke="#FFC000" stroke-width="1.26688"/>
</svg>
