<svg width="844" height="595" viewBox="0 0 844 595" fill="none" xmlns="http://www.w3.org/2000/svg">
<g filter="url(#filter0_d)">
<g clip-path="url(#clip0)">
<path fill-rule="evenodd" clip-rule="evenodd" d="M4.94946 331.356C25.6182 367.895 193.551 463.119 193.551 463.119C193.551 463.119 242.639 423.258 327.898 425.103C413.156 426.58 520.929 462.381 520.929 462.381C685.909 467.917 827.268 336.154 827.637 328.034C827.637 319.915 760.464 371.955 656.013 375.277C634.237 376.015 598.805 372.324 540.121 369.741C490.664 367.526 424.598 365.681 336.018 367.526C323.469 367.895 311.289 367.895 299.109 367.526C278.81 367.157 259.248 366.05 240.425 364.574C174.728 359.407 118.258 349.072 77.2899 340.583C27.8327 330.618 0.520447 323.236 4.94946 331.356Z" fill="url(#paint0_linear)"/>
<path fill-rule="evenodd" clip-rule="evenodd" d="M64.7405 236.501L55.5135 247.205L82.4565 283.744L149.63 293.34C149.999 293.34 149.999 293.34 149.999 293.34L146.308 276.731L206.1 251.265L204.992 234.287C204.992 234.287 218.279 206.605 240.424 210.296C242.27 210.665 244.115 211.034 245.592 211.773C265.891 220.631 274.749 286.328 274.749 286.328L264.784 294.078L260.724 297.031L240.424 364.942L238.579 371.586H220.125L238.579 393.731C238.579 393.731 311.658 416.245 398.023 420.674H398.392C448.219 423.258 502.843 419.936 550.086 402.958L540.12 369.74L509.856 269.719V258.277C509.856 258.277 488.818 160.47 415.739 122.823L379.938 116.18L292.096 0.287598C292.096 0.287598 151.475 92.5585 82.4565 188.52L44.4409 187.782L64.7405 236.501Z" fill="url(#paint1_linear)"/>
<path fill-rule="evenodd" clip-rule="evenodd" d="M827.638 327.665L839.449 337.261C839.449 337.261 732.784 453.522 550.087 462.749C550.087 463.119 721.711 438.759 827.638 327.665Z" fill="#2C3174"/>
<path fill-rule="evenodd" clip-rule="evenodd" d="M527.941 329.141C527.941 329.141 348.936 374.17 249.652 333.57L238.58 371.217C238.58 371.217 421.645 433.961 543.443 380.444L527.941 329.141Z" fill="url(#paint2_radial)"/>
<path opacity="0.5" fill-rule="evenodd" clip-rule="evenodd" d="M509.858 257.908L357.426 286.697L509.858 269.35V257.908Z" fill="#360A59"/>
<path opacity="0.5" fill-rule="evenodd" clip-rule="evenodd" d="M550.086 402.589L398.023 420.305C448.219 423.258 502.474 419.936 550.086 402.589Z" fill="#360A59"/>
<path opacity="0.5" fill-rule="evenodd" clip-rule="evenodd" d="M77.2907 340.583L212.375 430.639C212.375 430.639 311.659 415.876 398.025 420.305L288.407 378.229L299.479 367.157L311.29 354.977L433.457 308.472L331.22 309.211L260.356 296.293L240.057 364.204C174.729 359.406 118.259 349.072 77.2907 340.583Z" fill="#360A59"/>
<path opacity="0.5" fill-rule="evenodd" clip-rule="evenodd" d="M55.5133 246.836L82.4564 283.375L149.63 292.971C143.724 291.864 80.2419 280.791 55.5133 246.836Z" fill="#590A43"/>
<path opacity="0.5" fill-rule="evenodd" clip-rule="evenodd" d="M150.369 292.971L146.678 276.362L206.101 251.264L204.994 234.286C204.994 234.286 218.281 206.605 240.426 210.296C242.271 210.665 244.116 211.034 245.593 211.772C265.892 220.63 274.75 286.327 274.75 286.327C274.75 286.327 286.192 291.494 340.447 290.018C340.447 290.018 317.933 288.173 300.955 276.362L284.347 208.45L280.287 192.949C280.287 192.949 342.293 131.681 379.939 116.179C377.356 116.918 290.621 146.075 262.571 181.876L238.58 181.138L224.555 95.8799L216.435 193.318L172.514 199.592L193.552 245.359C193.552 245.359 66.5871 223.952 44.4421 187.413L64.7417 236.501C64.7417 236.501 96.4828 266.766 138.927 280.422L150.369 292.971Z" fill="#360A59"/>
<path fill-rule="evenodd" clip-rule="evenodd" d="M521.298 462.012C521.298 462.012 301.324 427.687 193.921 463.119C193.921 463.119 219.756 383.766 305.753 375.646C391.749 367.526 454.863 447.986 521.298 462.012Z" fill="#282664"/>
<path fill-rule="evenodd" clip-rule="evenodd" d="M661.55 436.545C661.55 436.545 582.935 466.44 527.203 456.475C471.471 446.141 401.345 372.324 314.98 367.895C228.614 363.835 193.182 448.724 187.646 452.784C182.11 456.844 158.488 442.819 158.488 442.819L193.551 463.488C193.551 463.488 231.567 371.217 310.182 375.646C388.797 380.075 474.424 455.368 520.929 462.38C567.802 469.393 661.55 436.545 661.55 436.545Z" fill="url(#paint3_linear)"/>
<path fill-rule="evenodd" clip-rule="evenodd" d="M127.117 289.649C127.117 289.649 96.483 342.797 118.628 412.923H110.508C110.508 412.923 39.275 345.012 61.051 254.217L92.054 277.47L127.117 289.649Z" fill="url(#paint4_linear)"/>
<path opacity="0.2" fill-rule="evenodd" clip-rule="evenodd" d="M292.099 0.287598C292.099 0.287598 266.632 14.3128 246.702 61.9246C226.771 109.536 238.213 180.4 238.213 180.4L262.203 181.139C262.203 181.139 309.446 132.05 379.572 115.442L292.099 0.287598Z" fill="#83D1FF"/>
<path opacity="0.2" fill-rule="evenodd" clip-rule="evenodd" d="M509.858 257.908L357.426 286.696L503.214 236.132L509.858 257.908Z" fill="#83D1FF"/>
<path opacity="0.2" fill-rule="evenodd" clip-rule="evenodd" d="M82.4578 188.52C82.4578 188.52 116.413 227.274 193.552 245.728C193.552 245.728 90.9467 232.81 44.4422 187.782L82.4578 188.52Z" fill="#83D1FF"/>
<path opacity="0.2" fill-rule="evenodd" clip-rule="evenodd" d="M73.6006 281.899C73.6006 281.899 85.0422 283.375 89.8403 302.198C89.8403 302.198 81.3514 363.835 96.8529 391.886C97.222 391.517 47.7648 340.214 73.6006 281.899Z" fill="#EFFFFF"/>
<path opacity="0.5" fill-rule="evenodd" clip-rule="evenodd" d="M251.867 216.57L238.58 180.4L224.554 95.1418L216.435 192.58L235.258 209.927C234.889 209.927 248.176 211.403 251.867 216.57Z" fill="#360A59"/>
<path opacity="0.5" fill-rule="evenodd" clip-rule="evenodd" d="M206.103 251.265C206.103 251.265 120.475 232.072 78.0305 211.035C78.0305 211.035 95.0084 254.217 146.68 276.732L206.103 251.265Z" fill="#360A59"/>
<path opacity="0.5" fill-rule="evenodd" clip-rule="evenodd" d="M260.725 296.662L331.589 309.58L433.457 308.473L310.921 355.346L238.58 371.217L260.725 296.662Z" fill="#360A59"/>
<path fill-rule="evenodd" clip-rule="evenodd" d="M449.326 254.955L433.456 254.586C433.456 254.586 381.415 258.646 372.926 261.599C364.437 264.551 351.519 281.898 351.519 281.898L336.018 289.28C336.018 289.28 308.336 291.125 293.204 289.28L341.554 297.031L357.055 287.065L449.326 254.955Z" fill="#252352"/>
<path fill-rule="evenodd" clip-rule="evenodd" d="M405.775 270.088C405.775 270.088 396.917 263.445 382.523 263.814C368.129 264.183 357.425 274.517 357.425 274.517L351.52 281.53L336.019 288.911L295.788 289.28L341.924 296.662L357.425 286.697L405.775 270.088Z" fill="#1D0C3A"/>
<path fill-rule="evenodd" clip-rule="evenodd" d="M484.022 193.319C484.022 193.319 440.839 194.057 379.571 206.237L335.65 150.136C335.65 150.136 392.858 122.824 415.372 122.455C415.741 122.455 450.804 132.789 484.022 193.319Z" fill="url(#paint5_linear)"/>
<path fill-rule="evenodd" clip-rule="evenodd" d="M158.49 105.107L175.837 133.526L127.118 175.971L101.651 164.529C101.651 164.16 124.903 135.003 158.49 105.107Z" fill="url(#paint6_linear)"/>
<path d="M351.522 195.533C362.963 187.782 371.821 182.984 372.19 182.984L370.345 179.663C370.345 179.663 360.749 184.461 349.307 192.581L351.522 195.533Z" fill="#252352"/>
<path d="M337.127 170.804C344.14 164.53 353.736 159.363 353.736 159.363L351.89 156.041C351.521 156.41 341.556 161.577 334.174 167.851L337.127 170.804Z" fill="#252352"/>
<path d="M431.98 211.403L435.302 210.296C432.349 201.807 424.599 193.318 424.229 192.949L421.646 195.533C421.646 195.533 429.028 203.653 431.98 211.403Z" fill="#252352"/>
<path d="M472.577 206.606L476.268 205.499C472.577 193.319 464.826 183.723 464.457 183.354L461.504 185.568C461.504 185.937 468.886 195.164 472.577 206.606Z" fill="#252352"/>
<path d="M389.904 136.849L392.119 133.896C391.75 133.527 384.737 127.991 371.819 125.038L371.081 128.729C383.261 131.681 389.535 136.849 389.904 136.849Z" fill="#252352"/>
<path d="M158.859 157.148L161.073 154.196L151.108 145.338L148.525 147.921L158.859 157.148Z" fill="#252352"/>
<path d="M140.335 154.683L146.901 168.726L143.558 170.29L136.991 156.247L140.335 154.683Z" fill="#252352"/>
<path d="M110.497 161.552L113.412 163.816L103.228 176.935L100.312 174.672L110.497 161.552Z" fill="#252352"/>
<path d="M170.323 108.699L172.661 111.555L161.237 120.906L158.899 118.05L170.323 108.699Z" fill="#252352"/>
<path fill-rule="evenodd" clip-rule="evenodd" d="M443.792 325.082L519.085 318.069L551.196 403.697L472.581 420.674L467.414 412.555L440.471 338.369L443.792 325.082ZM479.224 408.864L537.54 394.469L516.502 325.082L456.341 330.618L479.224 408.864Z" fill="url(#paint7_radial)"/>
<path fill-rule="evenodd" clip-rule="evenodd" d="M443.421 325.081L472.578 420.674L453.755 406.649L440.099 338.368L443.421 325.081Z" fill="#BD2A4A"/>
<path fill-rule="evenodd" clip-rule="evenodd" d="M530.526 395.945L510.227 325.819L516.501 325.081L537.539 394.469L530.526 395.945Z" fill="#BD2A4A"/>
<path fill-rule="evenodd" clip-rule="evenodd" d="M516.5 325.081L510.226 326.188C510.226 326.188 469.627 334.308 457.816 335.784L456.34 330.617L516.5 325.081Z" fill="#BD2A4A"/>
</g>
<path d="M67.4255 53.1297L67.329 53.1787L67.246 53.2481L64.5202 55.5308L64.829 51.9949C64.8724 51.6997 64.8405 51.3927 64.6948 51.1021C64.5525 50.8182 64.3416 50.632 64.1846 50.5141L64.1563 50.4928L64.1265 50.4738L61.1322 48.5555L64.5219 47.7573C65.2408 47.6298 65.5964 47.0672 65.7226 46.6794L65.7335 46.6457L65.742 46.6111L66.588 43.1481L68.3925 46.2225L68.4105 46.2531L68.4307 46.2824C68.6629 46.6176 69.1651 47.0544 69.8902 46.9702L73.3664 46.7616L71.0488 49.4588L71.0257 49.4856L71.0047 49.5141C70.8882 49.6721 70.7397 49.911 70.6849 50.2238C70.6288 50.544 70.6863 50.8473 70.8126 51.1176L72.1482 54.4783L68.8303 53.0521C68.5441 52.8927 68.2482 52.8897 68.0436 52.9197C67.8107 52.9539 67.598 53.042 67.4255 53.1297Z" fill="#FFC000" stroke="#FFC000" stroke-width="1.89754"/>
<path d="M573.298 579.227L573.196 579.262L573.104 579.32L562.894 585.697C562.893 585.697 562.892 585.698 562.892 585.698C562.599 585.877 562.333 585.835 562.144 585.694C561.956 585.554 561.746 585.232 561.811 584.668L564.466 573.12C564.628 572.593 564.639 572.081 564.473 571.588C564.31 571.107 564.006 570.733 563.706 570.434L563.681 570.409L563.654 570.386L554.594 562.621L554.581 562.61L554.568 562.599C554.294 562.381 554.226 562.064 554.331 561.756C554.439 561.437 554.686 561.256 554.964 561.254L555.004 561.253L555.045 561.25L566.761 560.164C567.973 560.136 568.721 559.301 569.057 558.611L569.073 558.579L569.086 558.546L573.515 547.408L573.526 547.379L573.536 547.349C573.634 547.046 573.905 546.861 574.258 546.859C574.612 546.857 574.885 547.037 574.987 547.339L574.997 547.369L575.009 547.398L579.588 558.476L579.601 558.508L579.617 558.54C579.962 559.225 580.722 560.05 581.934 560.062L593.62 560.986C594.02 561.062 594.291 561.327 594.391 561.595C594.479 561.833 594.452 562.093 594.159 562.332L594.146 562.343L594.133 562.354L585.179 570.241L585.152 570.265L585.127 570.29C584.831 570.593 584.533 570.97 584.376 571.454C584.217 571.949 584.235 572.461 584.404 572.985L587.217 584.507C587.334 585.295 586.595 585.86 585.862 585.522L575.673 579.347C575.323 579.058 574.899 578.978 574.537 578.98C574.142 578.983 573.72 579.082 573.298 579.227Z" fill="#FFC000" stroke="#FFC000" stroke-width="1.89754"/>
</g>
<path d="M597.869 145.266L597.762 145.248L597.654 145.254L584.854 146.004C584.853 146.004 584.852 146.004 584.851 146.004C584.461 146.023 584.211 145.834 584.095 145.583C583.98 145.333 583.953 144.9 584.315 144.39L592.695 134.945C593.108 134.542 593.374 134.08 593.467 133.549C593.558 133.029 593.468 132.535 593.341 132.107L593.331 132.073L593.319 132.04L588.813 120.156L588.807 120.14L588.8 120.124C588.474 119.351 589.341 118.667 589.943 118.99L589.979 119.01L590.016 119.026L601.525 123.992C602.645 124.571 603.746 124.184 604.402 123.718L604.43 123.698L604.458 123.675L614.283 115.523L614.307 115.503L614.33 115.481C614.599 115.227 614.976 115.194 615.327 115.382C615.678 115.571 615.859 115.904 615.795 116.268L615.789 116.299L615.786 116.33L614.412 129.023L614.408 129.058L614.407 129.094C614.38 129.897 614.665 131.029 615.766 131.644L626.224 138.476C626.577 138.764 626.704 139.173 626.657 139.497C626.615 139.789 626.438 140.04 626.015 140.12L625.998 140.123L625.982 140.127L613.585 142.929L613.551 142.937L613.517 142.947C613.09 143.078 612.628 143.275 612.245 143.638C611.854 144.009 611.615 144.486 611.507 145.053L608.255 157.264C607.947 158.105 606.904 158.273 606.359 157.536L599.982 146.557C599.81 146.123 599.467 145.84 599.134 145.661C598.772 145.466 598.334 145.345 597.869 145.266Z" fill="#FFC000" stroke="#FFC000" stroke-width="1.89754"/>
<defs>
<filter id="filter0_d" x="0.580566" y="0.288086" width="842.867" height="594.538" filterUnits="userSpaceOnUse" color-interpolation-filters="sRGB">
<feFlood flood-opacity="0" result="BackgroundImageFix"/>
<feColorMatrix in="SourceAlpha" type="matrix" values="0 0 0 0 0 0 0 0 0 0 0 0 0 0 0 0 0 0 127 0"/>
<feOffset dy="4"/>
<feGaussianBlur stdDeviation="2"/>
<feColorMatrix type="matrix" values="0 0 0 0 0 0 0 0 0 0 0 0 0 0 0 0 0 0 0.25 0"/>
<feBlend mode="normal" in2="BackgroundImageFix" result="effect1_dropShadow"/>
<feBlend mode="normal" in="SourceGraphic" in2="effect1_dropShadow" result="shape"/>
</filter>
<linearGradient id="paint0_linear" x1="827.815" y1="394.931" x2="4.46448" y2="394.931" gradientUnits="userSpaceOnUse">
<stop stop-color="#3B3CA4"/>
<stop offset="0.0663273" stop-color="#393EA1"/>
<stop offset="0.6054" stop-color="#2D4E8F"/>
<stop offset="0.9944" stop-color="#295489"/>
</linearGradient>
<linearGradient id="paint1_linear" x1="297.416" y1="421.285" x2="297.416" y2="0.287598" gradientUnits="userSpaceOnUse">
<stop stop-color="#3B318A"/>
<stop offset="0.1741" stop-color="#3E4396"/>
<stop offset="0.5065" stop-color="#4361A8"/>
<stop offset="0.7934" stop-color="#4673B4"/>
<stop offset="1" stop-color="#4779B8"/>
</linearGradient>
<radialGradient id="paint2_radial" cx="0" cy="0" r="1" gradientUnits="userSpaceOnUse" gradientTransform="translate(390.918 365.585) rotate(180) scale(110.889)">
<stop stop-color="#202E59"/>
<stop offset="1" stop-color="#312C5B"/>
</radialGradient>
<linearGradient id="paint3_linear" x1="410.12" y1="463.064" x2="410.12" y2="367.559" gradientUnits="userSpaceOnUse">
<stop stop-color="#3B318A"/>
<stop offset="0.1741" stop-color="#3E4396"/>
<stop offset="0.5065" stop-color="#4361A8"/>
<stop offset="0.7934" stop-color="#4673B4"/>
<stop offset="1" stop-color="#4779B8"/>
</linearGradient>
<linearGradient id="paint4_linear" x1="91.9307" y1="412.97" x2="91.9307" y2="254.334" gradientUnits="userSpaceOnUse">
<stop stop-color="#686370"/>
<stop offset="1" stop-color="#441B59"/>
</linearGradient>
<linearGradient id="paint5_linear" x1="484.129" y1="164.204" x2="335.992" y2="164.204" gradientUnits="userSpaceOnUse">
<stop stop-color="#61132D"/>
<stop offset="0.9578" stop-color="#650A6B"/>
</linearGradient>
<linearGradient id="paint6_linear" x1="176.072" y1="140.532" x2="101.543" y2="140.532" gradientUnits="userSpaceOnUse">
<stop stop-color="#61B1FF"/>
<stop offset="0.9578" stop-color="#65A9D8"/>
</linearGradient>
<radialGradient id="paint7_radial" cx="0" cy="0" r="1" gradientUnits="userSpaceOnUse" gradientTransform="translate(495.687 369.357) rotate(180) scale(53.4212)">
<stop stop-color="#FFC827"/>
<stop offset="1" stop-color="#FF741F"/>
</radialGradient>
<clipPath id="clip0">
<rect width="834.867" height="462.831" fill="white" transform="matrix(-1 0 0 1 839.448 0.288086)"/>
</clipPath>
</defs>
</svg>
