<svg width="233" height="231" viewBox="0 0 233 231" fill="none" xmlns="http://www.w3.org/2000/svg">
<g clip-path="url(#clip0)">
<path d="M154.638 30.0052C158.246 32.3166 158.662 36.6504 159.772 40.1174C164.074 52.8298 166.849 65.8312 166.433 79.4104C166.433 80.4216 166.433 81.4328 165.323 81.8662C164.906 81.4328 164.629 80.9995 164.49 80.4216C164.213 76.3768 164.768 72.3319 164.213 68.4315C164.213 68.4315 164.213 68.7204 164.213 69.1538C164.906 80.7105 163.657 81.7218 150.476 81.1439C144.509 80.855 138.404 80.5661 132.437 81.2884C129.384 81.7218 126.332 80.7105 123.418 80.855C114.537 81.2884 105.796 79.6993 97.0539 80.855C93.7237 81.2884 90.6711 80.4216 87.4797 80.5661C76.5178 80.7105 65.6947 80.1327 54.7329 81.4328C52.7903 81.7218 50.8477 81.5773 49.1826 80.4216C46.685 76.9546 49.8764 75.51 51.5415 73.9209C56.398 69.5872 61.2545 65.2534 66.111 60.7751C78.7379 49.0739 91.3649 37.3727 103.714 25.527C105.796 23.649 107.738 21.771 110.097 20.0375C115.231 15.9926 119.671 11.2255 124.528 6.74722C129.246 2.55789 131.327 2.26897 136.045 6.74722C143.121 13.2479 148.672 20.7598 153.112 29.4274C153.251 30.2941 153.528 32.1721 154.638 30.0052Z" fill="#8092A3"/>
<path d="M120.92 210.146C120.643 212.891 120.92 213.902 124.528 214.336C134.657 215.491 145.064 215.058 154.916 218.669C156.303 219.247 158.385 219.247 158.385 221.558C158.385 223.725 156.303 224.159 154.916 224.448C148.117 225.892 141.456 227.481 134.657 228.059C115.647 229.648 96.4989 230.804 77.3504 230.082C58.2019 229.359 38.9146 229.648 19.9048 225.314C17.2685 224.737 13.3832 224.881 13.1057 221.847C12.8282 218.236 16.9909 218.669 19.3498 218.091C26.2877 216.213 33.5031 215.058 40.7185 215.347C44.7424 215.491 45.8525 213.758 45.575 210.146C48.6276 211.157 47.3788 213.902 47.6563 215.925C48.0726 218.091 46.8238 221.125 50.0152 221.703C52.7904 222.136 56.1205 223.148 57.7856 219.103C58.8957 216.502 59.5895 213.613 61.9483 212.024C62.5034 211.88 62.9196 211.88 63.4747 212.024C65.556 212.891 67.9149 213.18 70.135 212.891C79.1543 211.446 88.0347 212.024 97.054 212.169C98.5803 212.169 99.9679 212.458 100.384 210.435C100.939 209.857 101.633 209.568 102.327 209.568C104.686 210.002 105.241 212.024 106.073 213.902C107.183 215.925 107.045 218.525 108.293 220.547C109.681 221.992 111.346 222.136 113.15 222.136C117.59 222.136 118.839 220.692 118.423 216.069C118.284 214.624 117.729 213.18 117.868 211.735C118.006 211.302 118.145 210.869 118.423 210.435C118.7 210.146 119.116 209.857 119.671 209.857C120.226 209.424 120.643 209.713 120.92 210.146Z" fill="#DDD8BF"/>
<path d="M48.489 78.8324C52.7905 81.1438 57.3695 79.5547 61.6709 79.4103C78.3218 79.2658 95.1115 79.4103 111.762 79.6992C127.997 79.8437 144.093 79.4103 160.327 79.2658C162.964 79.2658 163.796 78.1101 163.519 75.6543C163.103 71.7539 162.686 67.709 162.825 63.6642C166.294 69.0092 165.184 75.0765 165.323 80.8549C160.189 83.0218 154.916 81.5772 149.643 82.0105C147.284 82.155 144.787 81.8661 142.705 83.5996C141.595 84.033 140.485 84.1774 139.375 83.7441C132.576 81.2883 125.638 82.5884 118.7 83.0218C118.284 83.3107 117.868 83.5996 117.59 84.033C116.619 85.4776 115.786 87.9334 113.982 84.7553C112.734 82.5884 110.93 82.5884 108.987 82.5884C102.743 82.5884 96.4991 82.5884 90.255 82.5884C89.0061 82.5884 87.7573 83.0218 86.5085 83.0218C85.9535 83.0218 85.5372 82.8773 84.9822 82.7328C77.7668 82.2995 70.5514 82.5884 63.336 82.5884C57.9245 82.5884 57.7857 82.8773 58.3408 88.6557C58.4795 89.5224 58.4795 90.2447 58.3408 91.1115C58.0632 91.9783 57.3695 92.5561 56.9532 93.2784C55.7044 102.957 56.8144 112.78 56.3982 122.604C56.2594 126.071 56.8144 129.538 55.8431 133.005C54.178 135.605 51.8192 134.305 49.7378 133.727C47.3789 133.149 45.02 132.716 42.9387 131.416C41.1348 127.804 44.8813 129.104 45.7138 127.949C45.9914 127.66 46.2689 127.371 46.5464 126.937C46.9627 125.782 46.9627 124.626 46.9627 123.47C47.1014 114.081 46.5464 113.647 37.8047 116.247C34.197 117.837 30.4505 119.715 27.1203 122.17C25.8715 123.037 24.6227 124.193 22.8189 123.904C21.7088 123.326 21.4313 122.459 22.1251 121.448C24.7615 119.426 25.594 116.825 25.594 113.358C25.3165 99.9235 25.4553 86.6333 25.4553 73.1985C25.594 45.7512 39.6085 24.8045 64.5848 15.848C76.6567 11.5142 89.1449 11.3698 101.494 14.9813C99.6905 17.0037 96.499 15.5591 94.6952 17.8705C89.4224 19.0261 84.1496 18.5928 78.8769 18.4483C61.2547 17.2926 40.7186 31.0163 33.9195 51.3851C31.6993 58.1747 30.3118 65.2532 30.4505 72.6207C30.5893 84.1774 30.4505 95.7342 30.4505 107.291C30.4505 112.347 30.8668 112.636 35.4458 111.336C38.3597 110.469 41.4124 110.036 44.465 109.747C49.4603 109.313 51.1254 110.902 51.2641 116.247C51.2641 118.125 51.2641 120.003 51.2641 121.737C50.9866 112.058 50.5703 102.235 50.8479 92.5561C50.9866 88.3668 50.1541 85.0442 46.2689 83.1662C45.8526 80.9993 46.9627 79.8437 48.489 78.8324Z" fill="#32373A"/>
<path d="M48.489 78.8325C48.3502 80.2771 47.7952 81.5772 46.4076 82.155C45.02 83.3107 43.7712 83.0218 42.7999 81.5772C41.9674 80.4215 42.6611 79.2659 43.4937 78.3991C45.4363 75.9433 47.6564 73.7764 50.0153 71.7539C60.1446 62.7975 70.1351 53.552 79.9869 44.1622C86.9248 37.517 94.4177 31.3053 101.078 24.3712C102.188 23.2155 103.437 22.0598 104.408 20.6152C102.466 17.1482 98.3029 19.1706 95.944 16.8593C95.6665 15.9925 95.2502 14.9813 96.7765 14.9813C98.4416 14.9813 100.107 14.9813 101.911 14.8369C104.408 14.4035 106.49 15.8481 108.571 16.7148C109.126 18.1594 113.427 17.8705 110.514 21.0486C91.2262 38.6727 72.6327 57.1635 52.7904 74.2098C51.2641 75.6544 49.8765 77.3879 48.489 78.8325Z" fill="#252E36"/>
<path d="M169.347 154.674C181.141 142.539 192.935 130.549 204.591 118.415C207.644 115.236 210.557 112.636 215.136 112.203C219.854 111.625 224.572 110.18 229.29 109.314C232.759 108.736 233.869 110.325 232.342 113.647C232.204 113.503 231.926 113.503 231.787 113.359C230.539 112.058 229.706 112.636 228.873 113.936C228.041 115.092 227.347 116.392 225.543 115.814C225.405 115.67 225.266 115.525 225.127 115.525C219.854 115.814 213.888 115.381 209.864 119.281C197.514 131.271 185.859 143.984 173.648 156.696C176.146 158.719 180.031 156.841 181.141 160.452C180.17 162.186 178.643 162.041 177.256 161.897C175.036 161.175 172.815 161.319 170.595 160.741C169.485 160.452 168.93 157.997 167.265 159.73C165.739 160.019 164.213 160.019 162.825 159.297C161.576 157.274 162.131 156.552 164.351 156.841C166.155 156.696 167.959 156.552 169.347 154.674Z" fill="#5D6064"/>
<path d="M228.041 133.294C221.658 141.817 213.61 148.751 206.395 156.552C200.706 162.764 194.6 168.687 188.772 174.898C187.801 175.91 186.414 176.776 186.552 178.51C187.385 184.866 183.638 182.844 180.586 181.832C180.169 181.255 179.476 181.11 179.337 180.388C179.337 178.51 180.308 177.21 181.973 176.921C183.916 176.487 184.332 175.043 184.471 173.454C197.098 160.741 209.309 147.595 221.935 134.739C225.543 131.127 225.404 126.36 226.653 121.882C227.069 120.293 226.792 118.559 227.486 116.97C228.457 115.67 229.567 114.514 231.371 115.814C231.787 118.559 230.261 121.159 230.122 123.904C230.261 124.193 230.261 124.482 230.122 124.626C229.151 127.227 229.29 130.405 228.041 133.294Z" fill="#484F56"/>
<path d="M110.236 20.9042C111.623 18.4484 108.293 18.304 108.293 16.5704C110.513 16.7149 112.178 15.8482 113.844 14.2591C117.729 10.5031 121.891 7.03611 125.499 3.1357C128.413 0.102051 130.633 0.24651 133.686 2.84678C142.705 10.2142 150.059 19.0263 154.638 30.1497C154.638 31.5942 156.303 32.7499 155.054 34.6279C153.251 34.339 152.973 32.6055 152.279 31.1609C147.7 21.9155 141.595 13.8257 133.963 6.89165C130.911 4.14692 128.691 4.14692 125.777 7.03611C120.781 11.6588 116.202 17.0038 110.236 20.9042Z" fill="#4C5259"/>
<path d="M139.237 188.911C137.433 186.888 135.629 184.721 133.686 182.699C132.16 181.11 131.327 179.81 131.605 177.065C131.882 173.598 129.524 171.286 125.916 170.853C124.251 171.575 126.748 174.898 123.557 174.753C122.308 172.442 122.031 170.131 124.112 168.397C126.332 166.664 128.413 168.253 130.079 169.986C132.021 171.864 133.825 173.742 135.351 175.909C136.184 177.065 136.045 178.509 136.6 179.665C138.959 183.999 141.318 184.432 144.787 180.965C148.672 177.065 152.419 172.875 156.442 168.975C157.553 167.964 157.553 165.941 159.218 165.508C159.911 165.508 160.466 165.797 161.021 166.23C162.825 168.253 161.577 170.564 161.854 172.731C161.577 173.453 161.16 173.887 160.605 174.32C157.969 175.042 155.055 175.187 154.222 178.798C154.361 180.676 156.581 180.098 156.998 181.543C156.581 184.577 153.806 184.721 152.141 186.31C149.782 183.71 148.395 185.155 147.284 187.61C146.591 188.333 145.758 188.911 144.926 189.055C142.983 188.911 141.04 190.211 139.237 188.911Z" fill="#45464A"/>
<path d="M45.4362 209.135C28.2303 210.002 14.4933 203.935 5.75156 187.9C4.36399 185.444 2.97641 183.132 2.83765 180.099C2.56014 178.654 1.86635 177.065 3.11517 175.909C4.08647 175.043 4.78026 176.343 5.33529 176.921C6.30659 178.365 7.00038 180.099 7.69416 181.832C13.7995 196.423 24.6226 203.79 39.7471 204.512C40.9959 204.512 42.2448 204.657 43.4936 205.235C44.4649 206.39 45.9912 207.113 45.4362 209.135Z" fill="#5F6265"/>
<path d="M47.3787 128.527C46.2687 130.405 43.6323 128.527 42.5222 130.549C41.6897 131.416 40.5796 131.705 39.4695 131.849C30.8666 132.86 22.9574 135.605 16.297 141.528C15.3257 142.395 14.2157 142.973 12.8281 142.828C11.163 141.384 11.3018 139.217 10.4692 137.339C12.9669 130.838 16.7133 125.349 22.2636 121.304C22.5411 122.026 22.8187 122.604 23.2349 123.326C23.9287 125.926 21.7086 127.082 20.4598 128.671C19.3497 130.116 17.9621 131.271 16.7133 134.016C19.766 132.138 22.1249 130.838 24.6225 129.682C30.4503 126.938 36.5556 126.071 42.7997 126.504C44.326 126.649 46.1299 126.938 47.3787 128.527Z" fill="#495159"/>
<path d="M137.294 113.214C136.877 114.947 138.404 115.092 139.236 115.381C145.203 118.415 149.643 123.326 153.806 128.527C154.5 129.682 154.638 130.838 153.39 131.705C151.169 131.994 150.476 129.971 149.227 128.816C146.313 125.926 143.677 122.893 140.069 120.726C137.432 119.281 135.629 119.137 133.547 121.882C130.356 126.36 126.332 129.971 121.059 131.416C119.533 131.705 117.868 132.572 116.341 131.56C115.37 129.827 116.758 129.105 117.729 128.382C124.667 124.048 129.801 117.692 135.074 111.48C137.432 110.903 137.571 110.903 137.294 113.214Z" fill="#4C4E4F"/>
<path d="M137.294 113.214C137.294 111.48 136.461 111.914 135.49 112.347C133.964 109.458 136.322 107.291 136.877 104.835C138.265 100.068 141.04 95.4452 136.461 90.8225C141.456 90.6781 140.346 85.622 142.289 83.1662C143.26 80.8548 145.342 81.1437 147.146 81.1437C153.251 81.1437 159.217 81.1437 165.323 80.9993C165.323 81.2882 165.323 81.5771 165.323 81.866C164.768 82.0105 164.074 82.0105 163.519 82.1549C158.662 83.0217 153.667 82.5883 148.672 82.4439C145.064 82.2994 143.815 83.744 144.093 87.3555C144.37 90.3891 144.232 93.4228 143.399 96.312C142.844 102.668 141.318 108.447 137.294 113.214Z" fill="#706963"/>
<path d="M179.753 180.677C180.031 181.11 180.447 181.399 180.725 181.832C179.198 181.832 177.533 181.688 176.007 181.688C173.509 181.688 171.15 181.543 172.538 185.733C173.232 187.9 171.983 190.355 170.318 191.945C167.543 194.689 165.461 198.445 161.576 200.034C159.495 200.757 157.275 200.323 155.193 200.323C153.389 198.445 154.499 197.145 155.748 195.7C160.188 196.567 166.571 192.378 167.681 187.9C167.959 186.744 167.126 186.166 166.71 185.299C166.433 183.132 168.514 182.555 169.208 181.11C173.232 177.643 176.284 177.499 179.753 180.677Z" fill="#665B54"/>
<path d="M153.667 205.957C150.614 208.991 146.729 210.002 143.122 208.124C139.236 206.101 136.184 202.779 137.016 197.434C137.155 196.278 137.155 195.123 137.294 193.967C138.265 192.956 138.82 191.222 140.624 191.511C141.595 191.944 141.873 192.956 141.734 193.967C141.04 196.134 139.791 198.445 141.318 200.612C142.705 202.634 144.37 204.512 147.146 204.657C150.614 204.946 150.476 201.623 151.863 199.89C154.777 200.323 153.806 202.779 154.083 204.657C154.083 204.946 154.083 205.524 153.667 205.957Z" fill="#434951"/>
<path d="M45.4363 209.135C45.1588 207.835 43.3549 207.546 43.6324 205.957C44.6037 204.946 45.7138 204.946 46.9626 205.379C49.3215 208.702 49.1827 213.036 50.8478 216.647C52.9292 220.836 54.733 218.092 56.6756 216.503C59.8671 214.769 58.202 218.236 59.0345 218.959C58.0632 225.459 53.2067 222.426 49.8765 222.714C46.5463 223.003 46.4076 220.259 46.4076 217.514C46.4076 214.914 47.6564 212.313 45.7138 209.858C45.4363 209.569 45.4363 209.424 45.4363 209.135Z" fill="#4C4E52"/>
<path d="M123.834 174.898C125.083 173.887 124.112 171.576 125.777 170.853C126.332 173.742 125.499 176.487 124.667 179.232C122.308 186.888 124.112 194.256 125.36 201.623C126.054 205.812 126.054 209.424 120.92 210.146C120.504 210.002 120.088 210.002 119.81 209.857C119.533 207.257 123.973 206.824 122.585 203.646C122.447 199.312 122.447 195.122 120.92 191.078C119.394 186.599 122.308 182.41 122.447 178.076C122.585 176.776 122.863 175.62 123.834 174.898Z" fill="#7E8FA0"/>
<path d="M4.78032 177.787C4.36405 177.354 3.5315 176.632 3.5315 176.776C2.42144 177.643 3.39274 179.088 2.83771 180.243C1.45014 177.21 0.34008 174.176 1.03387 170.709C3.39274 168.975 2.14393 167.386 1.03387 165.653C0.478838 162.33 1.5889 159.297 2.83771 156.263C4.08653 156.841 2.83771 160.019 5.61286 159.152C5.75162 165.508 6.16789 171.72 4.78032 177.787Z" fill="#6B6E72"/>
<path d="M143.26 96.4566C142.983 78.977 141.318 82.4441 156.165 82.0107C158.524 82.0107 161.021 82.1551 163.38 82.2996C158.801 83.8887 153.945 83.0219 149.227 83.0219C145.619 83.0219 144.509 84.322 144.648 87.9335C145.064 90.8227 145.342 93.8564 143.26 96.4566Z" fill="#8092A3"/>
<path d="M152.557 131.56C153.806 130.982 153.667 129.682 153.667 128.671C156.72 131.271 157.83 135.172 159.495 138.639C160.189 139.216 160.05 140.083 159.772 140.806C159.217 142.828 160.327 144.995 158.662 146.728C158.246 146.728 157.552 146.873 157.413 146.295C156.165 141.239 152.834 136.905 152.557 131.56Z" fill="#545C63"/>
<path d="M2.83765 155.541C3.67019 150.629 7.27788 147.017 8.5267 142.25C9.63676 143.261 9.63676 145.139 11.0243 145.862C9.91428 150.196 8.24919 154.24 5.47404 157.707C4.08646 157.852 4.22522 155.829 2.83765 155.541Z" fill="#6B6E72"/>
<path d="M10.6081 145.429C6.86168 146.44 10.0531 142.828 8.66553 142.25C9.22056 140.517 9.91434 138.928 10.4694 137.194C12.6895 138.206 12.8282 140.372 12.6895 142.539C12.5507 143.984 11.9957 145.14 10.6081 145.429Z" fill="#2A2D2F"/>
<path d="M159.356 140.661C159.356 139.939 159.356 139.217 159.495 138.639C161.992 143.262 162.686 148.318 162.409 153.518H161.992H161.576C159.634 149.329 159.079 145.14 159.356 140.661Z" fill="#8091A2"/>
<path d="M140.069 191.8C139.098 192.522 138.126 193.245 137.294 193.822C137.987 192.233 138.543 190.5 139.236 188.911C141.318 189.2 142.844 187.177 144.925 187.9C145.48 192.233 141.873 190.789 140.069 191.8Z" fill="#BEC0BC"/>
<path d="M153.667 205.957C153.667 205.524 153.528 205.235 153.528 204.801C153.389 202.923 152.002 200.901 154.499 199.601C156.858 199.745 159.217 199.89 161.437 200.034C161.299 200.179 161.16 200.323 161.021 200.323C157.275 200.179 154.916 202.201 153.667 205.957Z" fill="#7B8C9D"/>
<path d="M0.89502 165.653C4.91898 166.086 2.00508 169.264 2.83762 170.998C3.11514 171.431 2.56011 171.865 2.00508 171.576C1.58881 171.287 1.31129 170.998 0.89502 170.709C0.89502 168.975 0.89502 167.386 0.89502 165.653Z" fill="#5F6265"/>
<path d="M228.041 133.294C227.902 130.116 228.319 127.082 230.123 124.482C230.4 127.515 230.261 130.693 228.041 133.294Z" fill="#5D646B"/>
<path d="M2.83771 155.541C5.33534 154.385 4.64156 156.407 4.91907 157.707C5.19659 157.996 5.19659 158.285 4.78031 158.574C4.22529 159.296 3.80901 160.019 3.11523 161.03C2.97647 159.152 2.83771 157.707 2.83771 156.263C2.69895 156.118 2.69895 155.829 2.83771 155.541Z" fill="#5F6265"/>
<path d="M149.782 69.2982C149.782 72.6208 147.284 75.9433 143.399 76.0878C139.236 76.2323 136.738 73.4875 136.322 67.7092C135.767 57.8859 133.686 48.6405 127.997 40.5507C126.193 37.9505 123.556 36.217 121.336 34.0501C117.59 30.583 116.896 27.2605 119.255 24.0823C121.753 20.9042 125.777 20.6153 129.662 23.5045C136.183 28.2717 140.901 34.4834 144.093 41.8509C147.7 49.9406 149.227 58.7527 149.782 69.2982Z" fill="#273138"/>
<path d="M124.25 68.4313C124.528 72.6206 122.447 75.0764 118.7 75.7987C115.231 76.521 111.485 73.6318 111.207 69.7314C110.791 60.3416 108.016 52.5407 100.8 46.4734C98.164 44.1621 98.5802 40.695 100.8 37.9503C103.298 34.7722 106.628 34.9167 109.542 36.7946C118.423 42.7175 122.169 51.9629 123.834 62.364C124.112 64.5309 124.112 66.5533 124.25 68.4313Z" fill="#273038"/>
<path d="M161.299 49.074C161.021 53.2633 164.629 57.0193 162.27 62.5087C161.576 58.3194 160.882 55.2857 160.327 52.2521C160.189 50.9519 159.079 49.5074 161.299 49.074Z" fill="#29333A"/>
<path d="M161.299 49.074C160.327 49.9407 160.605 51.2409 160.466 52.2521C159.217 48.3517 158.107 44.4513 156.858 40.6953C160.327 42.2844 159.772 46.1848 161.299 49.074Z" fill="#31373E"/>
<path d="M93.7237 208.124C91.3649 206.246 88.5897 207.257 86.0921 206.824C82.0681 206.246 78.0441 205.668 74.0202 207.257C73.0489 207.402 72.0776 207.69 71.3838 206.535C71.3838 204.223 73.1876 203.068 74.4364 201.768C76.6566 199.312 78.7379 196.856 79.293 193.245C79.4317 192.522 79.848 191.8 80.403 191.367C83.0394 190.789 85.8146 189.2 87.2021 193.245C88.1734 199.89 93.585 205.235 100.662 206.535C102.188 206.824 103.853 206.535 105.241 207.546C105.657 207.835 105.934 208.268 106.073 208.846C106.489 210.724 106.767 212.602 105.241 214.191C104.269 212.747 104.269 210.724 102.465 209.857C99.6903 208.846 96.3601 210.291 93.7237 208.124Z" fill="#293037"/>
<path d="M50.4316 216.647C49.044 215.78 46.9627 215.78 48.489 212.747C49.4603 210.869 45.2976 208.702 47.3789 205.813C47.5177 205.668 47.7952 205.379 47.934 205.235C53.9005 205.813 60.0058 206.102 65.8337 207.98C65.4174 210.291 62.3647 209.713 61.8097 211.88C61.6709 214.625 59.7283 216.647 58.8958 218.959C57.647 218.814 58.8958 216.503 57.0919 216.792C54.7331 218.67 52.5129 219.103 50.4316 216.647Z" fill="#20262A"/>
<path d="M105.38 214.191C105.38 212.169 105.518 210.146 105.518 208.124C109.265 205.379 113.428 206.535 117.59 206.968C118.839 207.112 119.949 208.124 118.978 209.857C117.174 212.024 120.088 215.058 117.868 217.08C116.48 217.802 115.093 217.369 113.844 217.225C110.514 216.647 110.791 218.525 111.346 220.692C110.097 222.136 108.71 221.414 107.322 220.981C105.657 219.103 106.49 216.358 105.38 214.191Z" fill="#23292D"/>
<path d="M116.897 217.08C119.255 215.202 116.619 211.88 118.978 210.002C118.839 211.88 119.533 213.613 119.81 215.347C120.782 221.125 119.117 223.003 113.566 222.859C111.346 222.859 108.987 223.003 107.322 220.981C108.571 220.547 110.236 221.414 111.207 219.97C112.734 218.381 115.231 218.525 116.897 217.08Z" fill="#4C5151"/>
<path d="M118.839 210.002C118.561 207.691 116.758 207.98 115.231 207.98C111.901 207.98 108.71 208.124 105.379 208.124L105.241 207.835C106.073 205.235 108.155 205.668 109.958 205.668C113.427 205.524 117.035 205.524 120.504 204.657C121.614 204.513 122.724 204.368 123.695 204.946C125.361 209.28 119.81 207.113 119.671 209.858C119.533 209.858 119.255 210.002 118.839 210.002Z" fill="#343A42"/>
<path d="M61.8096 211.88C61.9483 209.135 63.8909 209.135 65.8335 208.991C68.0537 207.402 70.2738 206.679 72.7714 208.124C71.6614 210.291 69.7187 209.858 67.9149 210.002C66.1111 210.146 64.0297 209.569 62.9196 211.736C62.3646 211.736 62.0871 211.88 61.8096 211.88Z" fill="#7C8C9D"/>
<path d="M93.7239 208.124C96.6378 208.702 99.8292 208.413 102.604 209.858C101.911 210.002 101.217 210.146 100.523 210.291C98.1641 209.569 95.389 211.013 93.7239 208.124Z" fill="#7E8FA0"/>
<path d="M95.6666 16.7148C99.5518 16.137 103.021 17.5816 106.767 19.4596C100.939 26.827 93.724 32.6054 87.0637 39.1061C79.2932 46.618 71.2453 53.6965 63.3361 61.0639C57.0921 66.8423 50.848 72.6207 44.7426 78.3991C41.5512 81.4328 43.3551 82.1551 46.4077 82.1551C52.2355 82.7329 52.5131 86.6333 52.3743 91.6894C52.0968 101.946 52.2355 112.203 52.2355 122.315C52.2355 124.048 52.6518 125.926 50.2929 127.515C50.2929 123.759 50.2929 119.859 50.2929 116.103C50.2929 112.058 49.1829 109.891 44.4651 111.047C40.5799 111.914 36.556 112.058 32.8095 113.792C30.5894 114.803 28.9243 114.37 29.0631 111.336C29.4793 94.1452 27.1205 76.6656 30.3119 59.7638C34.1971 38.9616 46.269 24.949 66.25 18.4483C76.1018 15.2702 85.9536 17.7261 95.6666 16.7148Z" fill="#435059"/>
<path d="M4.78041 158.574C4.91917 158.285 4.91917 157.996 4.91917 157.707C6.86177 153.663 8.66562 149.473 10.6082 145.428C11.302 144.417 11.9958 143.55 12.6896 142.539C18.2399 138.494 23.3739 133.872 30.3118 131.994C34.3357 130.982 38.4985 130.982 42.5224 130.405C46.9627 130.405 50.8479 132.716 55.1494 133.294C55.8432 133.294 56.3982 133.438 56.9532 133.727C58.0633 134.305 59.1733 135.027 60.4221 135.461C61.671 136.038 62.6423 136.905 63.6136 137.916C69.0251 142.684 73.1878 148.318 75.1304 155.541C75.6855 158.285 76.1017 160.886 77.073 163.486C77.2118 163.919 77.3506 164.497 77.3506 165.075C78.3219 170.275 75.8242 175.043 75.408 180.099C74.2979 184.144 72.7716 187.899 70.1352 191.078C67.4988 194.689 64.3074 197.723 60.8384 200.323C56.8145 203.501 52.0967 204.946 47.1014 205.524C45.8526 205.524 44.6038 205.668 43.355 205.668C30.5893 206.246 19.7662 202.057 11.4408 191.655C8.11059 187.466 6.16799 182.554 4.5029 177.498C3.5316 171.431 4.22538 164.93 4.78041 158.574Z" fill="#BCC3CD"/>
<path d="M56.3983 91.2559C56.9534 91.2559 57.5084 91.2559 58.0634 91.2559C60.9773 88.9446 64.4463 89.5224 67.6377 89.0891C72.7717 88.3668 77.9057 86.9222 83.1785 86.7777C86.7862 86.6332 86.7862 82.7328 89.1451 81.7216C96.2217 81.4327 103.16 81.7216 110.236 81.5772C111.485 81.5772 113.428 81.2882 113.705 82.5884C114.538 87.7889 118.7 86.4888 121.753 87.3555C123.696 87.9334 125.916 87.7889 126.887 90.2447C125.777 92.845 123.834 93.4228 121.337 93.2784C116.897 91.9782 112.456 92.5561 107.877 92.5561C99.8294 92.4116 91.7815 92.5561 83.7336 92.5561C81.9297 92.5561 80.1259 92.5561 78.5995 93.4228C74.1593 92.7005 69.7191 92.1227 65.2788 93.8562C59.451 93.8562 58.6185 94.5785 58.6185 100.646C58.6185 109.747 58.4797 118.992 58.7572 128.093C58.7572 129.682 59.5898 131.416 57.6472 132.571C55.8433 131.994 55.7045 130.549 55.7045 128.96C55.7045 116.97 55.7045 104.835 55.7045 92.845C55.5658 92.2672 55.8433 91.6893 56.3983 91.2559Z" fill="#C8A88C"/>
<path d="M47.3789 128.527C35.4458 125.782 24.9002 129.394 14.4934 137.194C15.6035 130.405 20.46 127.66 23.0964 123.471C27.6754 120.293 32.2544 116.97 37.6659 115.525C37.8047 115.381 37.9434 115.381 38.0822 115.237C47.5177 113.792 47.7952 114.081 47.7952 124.193C47.7952 125.493 48.2115 127.082 47.3789 128.527Z" fill="#8091A3"/>
<path d="M126.609 91.1116C124.389 87.789 120.781 89.378 117.867 88.2224C115.925 87.5001 114.26 87.5001 113.982 84.7553C113.705 81.8661 111.485 82.2995 109.542 82.2995C102.743 82.2995 95.805 82.2995 89.0059 82.1551C88.7284 82.0106 88.5896 81.8661 88.5896 81.5772C88.7284 81.2883 88.7284 81.2883 88.8671 81.2883C96.0825 81.2883 103.159 81.2883 110.375 81.1438C113.15 81.1438 115.092 81.7217 115.092 85.1887C116.48 84.6109 115.37 82.5884 116.896 82.1551C122.724 85.4776 128.968 85.6221 135.906 86.1999C134.657 83.0218 132.437 83.5997 130.494 83.4552C125.915 82.8774 121.198 84.7553 116.757 82.1551C124.25 80.9994 131.743 79.4103 139.097 83.0218C141.317 86.6333 140.624 88.9447 137.016 89.9559C135.906 90.2448 134.796 90.3893 134.102 91.4005C133.408 92.1228 132.853 92.9895 132.021 93.4229C130.217 93.2785 128.135 92.7006 126.609 91.1116Z" fill="#6B5420"/>
<path d="M89.0061 81.2884C89.0061 81.5773 89.0061 81.8662 89.1449 82.1551C88.4511 86.7778 85.676 87.9335 81.5132 88.3669C73.7428 89.3781 65.9724 90.9672 58.0632 91.1116C57.5082 89.3781 57.0919 87.6446 56.5369 85.9111C55.7044 83.1663 57.2307 81.2884 59.4508 81.2884C68.0538 80.9994 76.7955 80.7105 85.3985 81.4328C85.676 81.4328 85.8147 81.8662 86.0922 82.1551C84.1496 83.8886 81.7908 83.4553 79.5706 83.4553C74.1591 83.5997 68.6088 83.3108 63.1973 83.5997C61.8097 83.7442 59.8671 83.8886 60.2834 85.9111C60.6996 87.6446 62.5035 86.7778 63.6135 86.6334C69.4413 85.3332 75.4079 85.6221 81.2357 84.0331C82.9008 83.5997 84.8434 83.7442 86.0922 82.1551C86.9248 81.8662 88.0348 81.5773 89.0061 81.2884Z" fill="#544321"/>
<path d="M56.3979 91.2563C55.2878 103.969 56.1204 116.681 55.9816 129.538C55.9816 130.983 56.5366 132.138 58.063 132.427C59.0343 132.138 59.173 132.572 59.173 133.439C58.3405 134.594 57.0917 133.872 56.1204 134.305C55.8429 134.016 55.4266 133.727 55.1491 133.583C55.1491 121.159 55.1491 108.736 55.1491 96.3124C55.1491 94.5789 54.3165 92.412 56.3979 91.2563Z" fill="#544321"/>
<path d="M133.408 90.9673C133.686 89.8116 134.38 89.2337 135.49 89.2337C140.069 89.3782 140.346 86.7779 139.375 83.022C140.346 83.022 141.318 83.022 142.15 83.1664C142.15 83.5998 142.011 84.1776 142.15 84.611C142.844 89.5227 141.179 91.9785 136.184 91.2562C135.074 91.9785 134.102 92.1229 133.408 90.9673Z" fill="#564631"/>
<path d="M47.3788 128.382C47.3788 127.371 47.3788 126.36 47.3788 125.349C47.24 114.948 47.24 114.948 37.6658 115.236C39.3309 113.792 41.551 113.792 43.4936 113.358C45.7137 112.925 47.6563 114.081 47.9338 116.248C48.3501 120.293 49.3214 124.482 47.3788 128.382Z" fill="#495159"/>
<path d="M180.586 159.441C177.672 159.008 174.619 158.43 171.705 157.996C171.15 156.696 172.261 156.118 172.816 155.541C184.471 143.262 196.266 131.127 207.921 118.992C212.778 113.936 219.299 115.381 224.988 113.647C226.098 113.358 225.405 114.803 225.266 115.525C221.103 121.882 215.692 126.938 209.864 131.56C208.754 132.427 207.505 133.149 206.395 134.161C199.179 141.384 192.242 148.895 185.026 156.263C183.916 157.419 182.806 159.297 180.586 159.441Z" fill="#BAC2CA"/>
<path d="M180.586 159.441C188.911 150.773 197.376 142.106 205.701 133.438C207.782 132.283 209.586 129.971 212.361 131.127C213.194 135.172 210.558 137.628 208.337 140.083C202.371 146.729 196.127 153.374 189.883 159.73C186.969 162.764 185.165 165.942 185.581 170.276C185.72 171.431 185.442 172.587 184.749 173.598C185.859 175.621 186.691 177.787 183.361 177.787C181.141 177.787 180.586 179.376 179.615 180.821C176.146 180.243 172.122 177.499 169.763 182.844C168.375 183.999 167.82 182.988 167.543 181.688C167.265 180.532 167.265 179.521 166.294 178.654C166.016 178.365 165.6 178.076 165.323 177.787C164.351 176.487 161.576 176.921 162.27 174.031C164.351 172.587 163.38 169.987 164.074 168.109C163.935 167.82 163.935 167.675 163.796 167.386C163.796 167.242 163.935 167.242 164.074 167.097C162.686 163.341 166.294 161.608 167.126 158.719C168.653 157.13 169.069 159.008 170.04 159.586C171.983 160.163 172.954 161.175 171.15 163.197C168.653 165.364 165.323 167.386 166.849 171.72C167.959 174.754 169.902 177.354 173.509 177.21C176.701 177.065 179.615 176.198 180.863 172.587C181.974 168.975 180.863 166.086 177.95 163.919C177.395 163.486 176.839 163.197 176.423 162.619C176.146 161.897 176.146 161.175 176.701 160.597C178.227 160.308 179.892 161.319 180.586 159.441Z" fill="#252C32"/>
<path d="M212.916 131.416C210.141 130.549 208.337 133.149 205.84 133.294C213.471 128.527 218.883 121.159 225.405 115.236C227.486 115.092 227.486 113.069 228.319 111.769C229.012 110.758 229.845 109.891 231.094 110.469C232.204 110.903 231.926 112.058 231.926 113.069C231.649 113.792 231.371 114.514 231.094 115.236C230.122 115.814 229.151 116.536 228.18 117.114C224.433 121.448 220.409 125.349 216.524 129.393C215.553 130.549 214.582 131.849 212.916 131.416Z" fill="#3A4249"/>
<path d="M167.265 158.863C167.82 160.741 168.514 162.619 165.878 163.486C164.213 164.064 164.351 165.797 164.213 167.242C163.796 164.352 161.993 161.752 162.409 158.719C164.074 158.719 165.6 158.719 167.265 158.863Z" fill="#323233"/>
<path d="M176.978 160.741C176.978 161.319 176.978 161.897 176.978 162.619C175.036 163.341 173.093 163.919 171.151 162.619C172.261 161.174 170.734 160.597 170.179 159.73C172.399 159.73 174.897 159.152 176.978 160.741Z" fill="#323233"/>
<path d="M212.916 131.416C216.802 127.66 220.548 123.759 224.433 120.004C225.543 118.848 226.376 117.259 228.318 117.259C227.902 125.493 226.237 132.86 219.854 139.072C209.17 149.184 199.318 160.163 189.05 170.853C187.94 172.009 186.969 173.454 185.165 173.454C184.055 167.097 185.304 161.897 190.438 157.563C195.155 153.663 199.041 148.607 203.342 144.128C206.95 140.372 210.696 136.616 212.916 131.416Z" fill="#8091A2"/>
<path d="M123.834 174.898C123.695 175.765 123.695 176.776 123.557 177.643C121.753 177.932 121.475 175.765 120.088 175.331C108.154 171.864 96.0826 170.998 83.8719 171.142C81.0968 171.142 79.848 172.587 79.5704 175.476C79.2929 177.932 79.2929 180.532 76.7953 182.121C75.824 182.121 75.269 181.543 74.9915 180.676C75.269 175.331 77.7666 170.131 76.7953 164.641C76.7953 162.475 75.1302 160.019 78.0441 158.574C79.5705 164.064 83.5944 164.208 88.3122 164.641C97.1926 165.364 106.351 165.797 115.092 167.82C117.312 168.397 119.949 169.264 121.059 165.653C121.614 164.208 122.724 164.353 123.695 165.075C124.944 165.942 126.193 166.519 127.581 166.231C128.968 166.375 129.939 167.242 130.911 168.108C135.073 171.864 135.073 171.864 139.097 167.675C140.069 166.664 140.901 165.797 141.873 164.786C143.954 162.908 144.37 161.174 142.15 158.863C139.93 156.552 138.265 156.552 136.045 158.863C133.408 161.608 131.188 165.219 126.748 165.075C126.193 164.208 126.748 162.908 125.36 162.475C128.274 158.863 132.992 157.13 134.796 152.362C136.045 150.918 137.71 151.207 139.375 151.351C140.069 151.496 140.762 151.64 141.456 151.785C144.093 152.073 144.37 154.529 145.064 156.552C145.758 157.13 146.313 157.852 147.007 158.43C148.672 159.441 151.169 160.019 149.782 163.052C145.48 168.108 141.873 174.031 135.49 176.776C132.853 176.198 132.298 173.309 130.356 171.864C128.691 170.564 127.581 167.531 124.944 168.975C122.724 170.275 124.112 172.876 123.834 174.898Z" fill="#283138"/>
<path d="M135.49 176.776C139.93 172.153 144.509 167.386 148.949 162.763C150.198 161.752 151.031 159.296 152.973 161.03C155.471 163.197 159.079 164.93 157.552 169.553C153.39 173.742 149.227 178.076 144.787 182.266C143.399 183.566 142.289 186.888 140.069 184.721C137.849 182.843 133.686 181.543 135.49 176.776Z" fill="#8090A2"/>
<path d="M162.409 174.754C163.241 176.487 166.294 174.898 166.155 177.787C160.05 180.677 156.581 186.455 151.863 191.078C151.169 191.8 150.614 192.811 151.586 193.678C152.28 194.256 153.251 193.967 153.806 193.389C158.107 188.333 164.49 185.01 166.294 177.932C168.098 178.076 169.485 178.654 168.653 180.966C168.237 182.266 168.653 182.699 169.902 182.843C169.485 184.288 166.988 183.71 167.127 185.733C164.629 190.211 161.576 194.111 156.72 196.134C156.026 197.434 155.193 198.59 154.5 199.89C153.251 201.479 154.083 203.357 153.528 205.09C151.863 203.935 153.806 201.045 151.447 200.323C147.839 199.601 146.174 196.712 144.37 193.967C144.232 190.5 146.59 189.055 148.672 187.177C149.504 186.455 150.337 185.444 151.586 186.022C151.863 182.988 155.748 183.855 156.442 181.11C156.026 177.787 158.662 176.776 160.327 175.043C160.466 174.898 160.744 174.754 160.882 174.754C161.715 174.32 162.131 174.465 162.409 174.754Z" fill="#483022"/>
<path d="M154.638 159.585C156.026 161.752 158.662 162.908 159.634 165.508C157.969 166.231 159.217 168.686 157.552 169.553C156.72 164.064 152.557 160.741 148.949 162.619C150.476 160.163 147.562 159.874 147.007 158.285C149.504 159.008 152.418 157.13 154.638 159.585Z" fill="#4B5158"/>
<path d="M161.16 174.754C160.744 177.643 157.83 178.51 156.72 180.821C154.361 182.41 152.973 181.832 152.973 178.799C154.777 175.621 156.858 172.731 161.16 174.754Z" fill="#EED7B8"/>
<path d="M149.782 187.755C147.701 189.344 145.342 190.789 145.064 193.822C143.815 194.978 142.428 194.978 141.179 193.822C141.179 192.956 140.901 192.089 140.069 191.655C140.485 188.622 145.064 191.366 144.925 187.755C145.619 187.466 146.313 187.033 147.007 186.744C148.256 186.166 148.949 186.888 149.782 187.755Z" fill="#636568"/>
<path d="M149.782 187.755C148.811 187.466 147.839 187.177 147.007 186.888C147.562 185.01 147.562 182.41 149.782 182.266C151.725 181.977 152.141 183.999 151.863 185.877C151.17 186.455 150.476 187.033 149.782 187.755Z" fill="#C39E7F"/>
<path d="M161.16 174.754C157.275 173.598 155.332 176.776 152.973 178.799C154.222 175.043 156.303 172.587 160.605 173.743C161.576 173.454 161.992 174.032 162.131 174.898H161.715L161.16 174.754Z" fill="#AE9F8F"/>
<path d="M161.993 174.754C161.438 174.32 161.021 174.031 160.466 173.598C160.883 173.309 161.16 172.876 161.576 172.587C165.184 172.876 162.964 169.409 164.213 168.109C164.213 170.42 165.184 173.165 162.409 174.609C162.27 174.754 162.131 174.754 161.993 174.754Z" fill="#323233"/>
<path d="M133.409 90.9673C134.38 91.1117 135.351 91.2562 136.184 91.4007C141.318 92.7008 142.012 94.0009 139.93 99.6349C138.404 103.969 136.878 108.158 135.351 112.492C130.495 120.437 123.696 126.504 115.925 131.416C114.954 133.294 113.011 134.016 111.346 134.739C94.9728 139.072 78.4606 139.072 61.9485 135.75C60.6997 135.461 59.4509 134.883 58.8958 133.583C58.6183 133.294 58.3408 132.861 58.0633 132.572C56.1207 120.293 57.3695 108.014 57.3695 95.8789C57.3695 92.4119 60.8384 91.5451 65.8337 93.4231C65.8337 93.5676 66.1112 93.712 65.9725 93.8565C64.5849 100.213 64.5849 100.213 70.9677 100.213C71.6615 100.213 70.829 100.213 71.384 100.213C78.4606 100.213 78.4606 100.213 78.0444 93.712C77.6281 91.9785 78.1831 91.4007 79.987 91.4007C93.0302 91.4007 106.212 91.4007 119.255 91.4007C120.504 91.4007 121.475 91.6896 121.614 93.2786C121.614 94.5788 120.782 95.4455 120.227 96.4567C118.423 99.4904 119.255 101.079 122.724 101.224C126.054 101.368 129.385 101.368 132.715 101.224C136.045 101.079 136.461 99.4904 134.657 96.7457C133.825 95.7345 132.576 94.8677 132.437 93.2786C132.715 92.2674 132.992 91.6896 133.409 90.9673Z" fill="#F3D7BC"/>
<path d="M141.179 152.507C140.624 152.507 139.93 152.507 139.375 152.363C137.571 151.64 137.294 150.051 136.877 148.462C134.38 138.783 131.882 136.617 122.447 135.605C121.753 135.605 121.198 135.316 120.643 135.172C118.561 133.438 118.978 131.994 120.782 130.549C126.332 129.249 129.94 125.06 133.131 120.726C135.212 117.837 136.739 117.548 139.791 119.281C145.203 122.315 149.088 126.793 152.834 131.56C155.61 136.183 157.275 141.384 158.801 146.44C161.576 150.774 160.744 153.374 156.165 153.518C151.031 153.663 146.035 154.241 141.179 152.507Z" fill="#8091A2"/>
<path d="M120.782 130.405C120.504 131.849 119.117 133.149 120.92 134.594C122.724 135.316 124.667 134.738 126.471 135.027C127.858 135.172 127.997 135.894 127.164 136.905C121.198 137.339 116.203 140.083 112.317 144.851C112.04 144.851 111.485 144.851 111.485 144.706C111.207 139.361 107.461 138.928 103.576 138.928C103.298 138.494 103.159 138.061 103.159 137.628C105.102 133.727 109.681 136.183 112.179 133.583C113.15 132.283 114.676 132.138 115.925 131.56C117.451 131.127 119.117 130.838 120.782 130.405Z" fill="#262C2F"/>
<path d="M156.72 195.989C160.189 192.522 163.658 189.055 167.127 185.588C168.792 184.721 169.347 185.299 169.208 187.177C169.069 190.066 161.715 197.578 158.94 197.723C157.83 197.867 156.72 197.578 156.72 195.989Z" fill="#BEA085"/>
<path d="M141.179 152.507C145.48 152.507 149.782 152.363 154.083 152.363C159.634 152.363 159.772 152.218 158.524 146.44C158.94 144.562 157.691 142.395 159.356 140.661C159.772 144.995 161.993 149.04 161.299 153.518C157.136 155.685 152.696 153.952 148.394 154.529C147.007 154.674 144.925 153.663 145.064 156.552C144.093 154.963 142.844 153.518 141.179 152.507Z" fill="#30373D"/>
<path d="M141.179 193.822C142.428 193.822 143.815 193.822 145.064 193.822C147.284 195.845 149.366 198.012 151.586 200.034C152.141 205.235 151.308 205.957 146.174 205.812C142.705 205.812 141.04 202.923 139.653 200.756C138.681 199.023 138.126 195.556 141.179 193.822Z" fill="#7B8C9D"/>
<path d="M50.4315 216.647C52.6516 216.647 54.8717 216.791 57.0919 216.791C56.1206 220.981 52.7904 220.258 50.154 219.681C47.7951 219.103 49.0439 217.658 50.4315 216.647Z" fill="#8694A3"/>
<path d="M121.892 174.754C122.447 175.765 123.002 176.776 123.557 177.787C123.695 179.665 123.418 181.399 122.724 183.132C121.475 186.455 121.337 189.777 122.724 193.244C124.25 197 123.557 201.045 123.695 205.09C123.002 205.379 122.447 205.812 121.753 206.101C119.533 203.357 120.504 200.034 120.088 196.856C119.533 193.1 118.006 191.8 114.26 192.378C106.628 193.678 99.1354 195.845 91.365 195.411C89.4224 195.267 87.4798 195.556 85.9534 193.967C86.2309 192.956 86.6472 191.944 84.9821 191.944C83.317 191.944 81.7907 191.944 80.1256 191.944C77.628 193.389 75.1303 194.4 73.1877 191.078C75.1303 188.911 77.628 189.489 79.9869 189.489C90.6712 189.489 101.217 188.766 111.624 186.888C116.48 186.022 118.7 183.855 119.81 179.232C120.365 177.643 120.504 175.765 121.892 174.754Z" fill="#373F48"/>
<path d="M146.868 67.4202C145.897 69.4427 146.59 73.1986 142.844 73.0541C139.514 72.7652 139.236 70.0205 139.097 67.1313C138.404 53.4076 134.935 41.1286 123.695 32.3165C122.03 31.0164 119.255 29.1384 121.892 26.2492C124.112 23.9379 126.332 24.5157 128.691 26.5381C139.791 35.7836 144.648 48.0626 145.897 62.3641C146.174 63.9532 146.59 65.5422 146.868 67.4202Z" fill="#424F58"/>
<path d="M121.753 67.7091C121.753 70.8872 120.643 72.7651 118.284 73.0541C115.509 73.343 114.399 71.465 114.121 68.7203C113.289 61.6417 112.734 54.5632 107.322 49.2182C106.073 47.9181 104.686 46.7624 103.437 45.4623C102.188 44.1621 100.801 42.862 102.327 40.8396C103.714 38.9616 105.518 38.5282 107.461 39.6839C111.901 42.2842 114.954 46.1846 117.313 50.9517C119.949 56.2967 119.672 62.653 121.753 67.7091Z" fill="#424F57"/>
<path d="M47.3789 205.813C56.2594 202.923 63.7523 198.156 69.5801 190.644C70.4126 191.8 70.4126 193.389 70.8289 194.689C67.2212 200.323 62.5035 204.368 57.3694 205.957C61.2546 205.813 66.3887 204.512 71.5227 205.957C72.0777 206.246 72.7715 206.535 73.3265 206.824C73.7428 206.968 73.8816 207.257 73.7428 207.402C73.6041 207.546 73.4653 207.691 73.3265 207.691C73.049 207.835 72.7715 207.979 72.494 207.979C70.1351 208.124 67.915 209.424 65.5561 208.846C65.1399 208.557 64.7236 208.124 64.3073 208.124C58.6183 208.702 53.068 206.968 47.3789 205.813Z" fill="#49525A"/>
<path d="M73.4651 207.835C73.4651 207.546 73.4651 207.257 73.4651 206.968C77.6278 205.09 81.9293 205.235 86.092 206.968C81.9293 207.835 77.4891 206.246 73.4651 207.835Z" fill="#7C8C9D"/>
<path d="M86.0922 193.967C96.2215 194.689 106.212 192.522 116.064 190.5C118.978 189.922 120.365 190.211 121.059 193.533C122.03 197.723 122.03 201.768 121.892 205.957C116.48 207.69 110.791 206.39 105.379 207.835C96.0827 208.846 90.2549 203.79 85.9534 196.134C85.3984 195.267 85.2596 194.545 86.0922 193.967Z" fill="#7E8FA0"/>
<path d="M71.6612 206.102C66.2497 207.691 60.8381 206.968 55.2878 206.679C61.2544 203.501 66.3884 199.168 70.6899 193.967C73.8813 192.089 77.0728 192.522 80.2642 193.967C79.4316 199.601 75.2689 202.635 71.6612 206.102Z" fill="#7C8C9D"/>
<path d="M80.2643 193.967C77.0729 193.967 73.8815 193.967 70.6901 193.967C68.0537 193.678 69.9963 191.8 69.58 190.789C71.2451 187.466 72.9102 184.288 74.5753 180.966C74.8528 180.388 75.2691 180.388 75.5466 180.966C75.8241 181.255 76.1016 181.543 76.3791 181.832C78.3217 185.877 75.6854 188.333 73.4652 191.078C75.5466 193.1 78.0442 191.656 80.2643 192.233C80.2643 192.522 80.2643 193.245 80.2643 193.967Z" fill="#323A42"/>
<path d="M83.1781 203.934C81.7906 203.357 79.5704 204.657 79.848 202.345C79.9867 200.901 81.0968 198.301 82.9006 198.445C84.7045 198.589 86.2308 200.901 86.3695 202.634C86.5083 204.801 84.1494 203.212 83.1781 203.934Z" fill="#414B53"/>
<path d="M116.896 217.08C116.619 221.27 113.15 219.392 111.207 220.114C109.681 219.825 108.155 219.536 108.432 217.514C108.571 215.491 110.236 216.069 111.485 216.069C113.289 215.925 115.231 215.78 116.896 217.08Z" fill="#7A8797"/>
<path d="M108.849 211.158C111.069 209.569 112.318 209.569 113.844 210.869C112.456 212.458 111.069 211.88 108.849 211.158Z" fill="#39424A"/>
<path d="M67.4986 168.542C67.4986 184.144 54.8717 197.578 40.0247 197.578C25.1776 197.578 12.2732 184.144 12.2732 168.831C12.2732 152.651 24.4838 139.65 39.7472 139.506C55.1492 139.506 67.4986 152.507 67.4986 168.542Z" fill="#444C55"/>
<path d="M103.437 138.494C104.269 138.494 105.102 138.639 105.796 138.35C109.959 136.905 113.15 136.327 111.207 142.828C111.069 143.262 111.762 143.839 112.04 144.417C112.595 144.995 112.734 145.862 112.595 146.729C111.624 152.507 114.26 156.552 118.7 159.585C119.672 160.163 120.643 160.741 121.059 162.041C119.81 162.908 121.892 164.642 120.227 165.364C111.207 164.208 105.657 154.529 108.016 143.55C97.7479 144.851 87.6186 145.284 77.3505 144.851C74.7141 144.706 74.9917 146.151 75.6854 148.029C77.073 151.496 79.9869 154.529 78.1831 158.719C76.3792 160.597 77.628 162.908 77.073 165.075C76.7955 165.219 76.518 165.219 76.2405 164.786C76.2405 164.497 76.2405 164.064 76.2405 163.775C75.4079 161.175 75.5467 158.285 74.1591 155.83C71.8002 149.04 67.6375 143.55 62.781 138.494C70.1351 136.472 77.6281 137.917 84.9822 137.483C89.5612 137.339 94.2789 137.772 98.8579 137.194C100.662 137.05 102.188 137.339 103.437 138.494Z" fill="#2B373F"/>
<path d="M112.178 133.438C110.375 137.194 105.518 134.161 103.437 137.483C95.3887 138.495 87.4795 137.772 79.4316 137.917C72.91 138.061 66.3884 138.639 60.0056 136.472C58.3405 136.472 57.5079 134.883 56.1204 134.305C56.8141 133.294 57.9242 133.583 58.8955 133.438C75.8239 137.483 92.7523 137.483 109.819 133.727C110.513 133.583 111.346 133.583 112.178 133.438Z" fill="#32373A"/>
<path d="M60.0059 136.472C60.5609 135.75 61.2547 135.316 62.0872 135.605C74.7141 139.506 87.7573 136.616 100.662 137.483C101.633 137.483 102.604 137.483 103.576 137.483C103.576 137.772 103.576 138.205 103.576 138.494C93.0301 138.494 82.4846 138.639 71.939 138.494C69.0251 138.494 65.9724 140.806 63.0585 138.494C61.9485 137.772 60.9772 137.194 60.0059 136.472Z" fill="#14191C"/>
<path d="M76.3793 164.642C76.6568 164.642 76.9343 164.642 77.2118 164.931C77.7668 170.42 76.518 175.621 75.5467 180.821C75.2692 180.821 74.8529 180.821 74.5754 180.821C74.4367 175.332 76.9343 170.276 76.3793 164.642Z" fill="#627080"/>
<path d="M74.2979 155.685C76.2405 157.996 76.7955 160.597 76.3792 163.63C74.5754 161.319 74.5754 158.574 74.2979 155.685Z" fill="#627080"/>
<path d="M119.81 95.1563C120.504 94.434 121.059 93.7117 121.753 92.9894C123.557 92.7005 124.528 90.678 126.609 91.1114C128.829 90.8225 130.633 91.8337 132.437 92.9894C133.408 93.7117 134.38 94.434 135.351 95.1563C137.016 101.079 136.739 101.657 131.188 101.657C128.691 101.657 126.054 101.657 123.557 101.657C118.145 101.657 117.451 100.357 119.81 95.1563Z" fill="#393F3E"/>
<path d="M78.0442 93.4231C78.5992 94.4343 79.293 95.3011 79.7093 96.3123C80.8194 99.2015 80.6806 101.224 76.9341 101.224C73.8815 101.224 70.8288 101.368 67.7762 101.224C66.2498 101.224 64.3072 101.946 63.3359 100.213C62.2259 98.1903 63.1972 96.3123 64.446 94.7232C64.8622 94.1454 65.1398 93.5676 65.556 93.1342C69.9963 89.8116 74.0202 90.3894 78.0442 93.4231Z" fill="#3D413E"/>
<path d="M117.035 82.155C122.308 82.155 127.581 82.155 132.853 82.2995C134.657 82.2995 136.461 82.2995 137.571 84.033C138.126 84.8998 138.404 85.911 137.988 86.9222C137.571 88.0779 136.6 88.2223 135.629 88.0779C129.801 87.0667 123.973 86.0554 118.145 85.0442C116.758 84.7553 117.174 83.3107 117.035 82.155Z" fill="#BF9205"/>
<path d="M85.9532 82.155C85.9532 83.7441 85.537 84.8998 83.7331 85.3331C76.1015 86.9222 68.1923 86.7777 60.5606 88.9446C58.7568 89.5225 58.063 88.0779 57.9243 86.3444C57.7855 83.7441 58.7568 82.155 61.3932 82.155C69.5799 82.155 77.7666 82.155 85.9532 82.155Z" fill="#B38706"/>
<path d="M171.15 162.619C173.093 162.474 175.036 161.03 176.978 162.619C181.002 162.908 182.251 165.941 182.667 169.408C183.084 173.02 181.835 176.198 178.505 177.643C175.036 179.087 171.428 179.81 168.236 176.343C163.38 170.853 164.351 165.941 171.15 162.619Z" fill="#38434B"/>
<path d="M78.3217 158.574C77.4892 154.385 76.1016 150.629 73.8815 147.162C73.1877 146.151 72.2164 144.851 73.1877 143.55C74.0203 142.395 75.2691 143.262 76.2404 143.262C87.4797 143.839 98.5803 143.695 110.375 141.384C107.6 147.595 106.767 153.807 112.04 159.008C114.537 161.608 116.896 164.353 120.781 164.497C121.059 164.208 121.337 164.353 121.614 164.642C122.863 169.553 122.447 170.42 117.59 169.553C105.518 167.242 93.3075 166.086 80.9581 165.508C76.1016 165.364 79.293 161.03 78.3217 158.574Z" fill="#424F58"/>
<path d="M73.4651 190.789C73.7426 187.466 76.7953 185.155 76.379 181.543C78.3216 179.232 78.4604 176.487 78.4604 173.598C78.4604 171.286 79.1541 169.697 81.6518 169.697C94.5562 169.553 107.322 170.564 119.81 173.598C120.504 173.742 121.198 174.32 121.891 174.754C122.585 178.654 120.365 181.688 119.533 185.155C119.116 186.744 117.451 187.466 115.786 187.755C101.772 190.211 87.7571 191.366 73.4651 190.789Z" fill="#627080"/>
<path d="M121.059 162.475C118.561 160.741 115.786 159.585 113.844 156.985C110.93 153.085 110.375 149.04 112.179 144.562C115.231 138.494 120.088 135.749 126.609 136.616C134.935 139.072 138.126 144.995 135.49 152.651C134.102 157.996 129.94 160.308 125.499 162.619C123.973 164.064 122.585 164.064 121.059 162.475Z" fill="#8F949A"/>
<path d="M126.609 164.641C130.772 163.63 133.547 160.452 136.045 157.418C138.82 153.951 140.624 155.252 142.844 157.852C144.925 160.163 147.423 162.041 143.538 164.786C143.26 164.93 143.122 165.219 142.844 165.508C140.346 168.108 138.126 172.009 135.212 172.731C132.16 173.598 130.772 168.253 127.72 166.808C126.748 167.097 126.193 166.808 125.777 165.942C125.361 164.93 125.916 164.641 126.609 164.641Z" fill="#424F58"/>
<path d="M135.49 152.651C136.6 144.851 132.576 140.083 126.609 136.616C125.222 134.305 122.308 136.761 120.781 134.738C131.466 134.16 136.461 138.35 137.987 149.473C138.126 150.629 138.404 151.785 139.236 152.651C138.126 152.796 136.739 151.351 135.49 152.651Z" fill="#414A55"/>
<path d="M126.609 164.642C125.499 166.086 127.026 166.086 127.581 166.664C124.389 169.842 123.695 165.219 121.753 164.642C121.475 164.642 121.198 164.497 120.92 164.497C120.504 163.775 118.423 162.908 121.059 162.475C122.585 162.475 124.112 162.475 125.499 162.619C126.887 162.619 127.303 163.341 126.609 164.642Z" fill="#171B21"/>
<path d="M166.294 177.787C167.404 179.521 167.681 181.11 166.016 182.699C162.131 186.599 158.523 190.5 154.777 194.4C153.389 195.845 152.002 196.567 150.198 194.834C148.117 192.811 149.643 191.656 150.892 190.355C154.638 186.455 158.385 182.555 162.131 178.654C163.38 177.21 164.629 176.487 166.294 177.787Z" fill="#9D572B"/>
<path d="M106.351 115.381C104.131 115.381 101.772 115.381 99.5517 115.381C93.8626 113.937 92.6138 110.181 96.3603 105.702C97.054 104.836 98.0254 104.113 98.4416 103.102C100.523 98.6238 102.327 98.1904 105.518 101.657C107.877 104.258 108.848 107.725 109.403 111.047C109.681 113.07 108.848 115.092 106.351 115.381Z" fill="#735740"/>
<path d="M119.81 95.1565C118.7 100.935 118.839 101.079 124.389 101.079C126.332 101.079 128.274 100.79 130.217 101.079C134.796 101.657 136.461 99.7792 135.212 95.1565C137.016 96.4566 137.571 98.3346 136.877 100.357C136.045 102.524 133.963 102.091 132.298 102.091C128.968 102.091 125.638 102.091 122.169 102.091C120.643 102.091 118.7 102.235 118.145 100.213C117.729 98.3346 117.59 96.3122 119.81 95.1565Z" fill="#C8A88C"/>
<path d="M39.4696 193.823C27.9527 195.412 14.7708 182.266 15.3258 168.398C15.8808 153.952 26.0101 142.684 39.4696 142.539C53.4841 142.539 65.0009 154.096 64.8622 168.398C64.5847 181.399 54.3166 195.412 39.4696 193.823Z" fill="#8092A3"/>
<path d="M66.2499 174.32C66.4032 174.32 66.5274 171.798 66.5274 168.686C66.5274 165.575 66.4032 163.052 66.2499 163.052C66.0967 163.052 65.9724 165.575 65.9724 168.686C65.9724 171.798 66.0967 174.32 66.2499 174.32Z" fill="#272F36"/>
<path d="M127.858 99.3458C126.193 98.6235 123.279 100.501 123.14 97.4678C123.002 94.4341 126.193 93.5674 128.413 93.5674C130.495 93.5674 133.27 95.012 132.992 97.4678C132.715 100.79 129.523 98.479 127.858 99.3458Z" fill="#255361"/>
<path d="M74.0203 99.2012C72.4939 98.9123 71.1064 97.9011 69.4413 98.7678C68.47 99.3457 66.9436 99.6346 66.3886 98.4789C65.6948 97.1788 66.8049 96.0231 67.4987 95.0119C68.7475 93.1339 70.6901 92.845 72.6327 93.2784C74.5753 93.7118 76.2404 95.1563 76.9342 96.8899C77.9055 99.6346 75.5466 99.0568 74.0203 99.2012Z" fill="#26515E"/>
<path d="M174.342 175.765C170.318 175.621 168.376 173.165 168.514 169.987C168.653 166.52 170.734 164.353 174.62 164.497C178.505 164.642 180.447 167.386 180.447 170.42C180.447 174.176 177.395 175.621 174.342 175.765Z" fill="#3B231C"/>
<path d="M115.231 144.706C117.59 140.083 121.475 138.639 126.054 139.939C130.356 141.095 133.408 145.573 133.408 149.907C133.27 154.385 130.356 158.141 125.499 159.297C120.781 160.308 117.035 158.719 114.954 153.952C115.231 150.629 115.509 147.74 115.231 144.706Z" fill="#49515A"/>
<path d="M115.231 144.706C116.341 147.74 116.619 150.773 114.954 153.663C114.121 150.629 114.26 147.595 115.231 144.706Z" fill="#272A32"/>
<path d="M84.2445 119.592C89.8352 117.745 95.2954 118.281 101.306 119.248C98.3819 123.591 95.5352 125.486 92.9018 125.543C90.2384 125.6 87.3143 123.788 84.2445 119.592Z" fill="#F0F4E9" stroke="#4B483F" stroke-width="2.02689"/>
<path d="M106.212 112.492C104.963 113.647 103.576 113.214 102.188 113.069C100.523 113.069 98.4416 113.214 97.8866 110.903C97.3315 109.025 98.7191 108.158 99.9679 107.002C104.269 103.246 104.131 103.102 105.657 109.025C104.686 110.469 105.241 111.48 106.212 112.492Z" fill="#EA9E62"/>
<path d="M106.212 112.492C105.102 112.203 103.298 113.069 103.021 111.336C102.743 109.602 104.408 109.458 105.518 109.169C106.767 110.036 106.628 111.191 106.212 112.492Z" fill="#F0CAA8"/>
<path d="M39.747 176.487C36.0005 176.487 32.1153 172.442 31.9766 168.542C31.9766 164.064 35.4455 160.452 40.0245 160.452C44.1872 160.452 47.5174 163.919 47.5174 168.397C47.5174 173.165 44.1872 176.632 39.747 176.487Z" fill="#28323C"/>
<path d="M177.811 169.986C177.533 171.864 176.978 173.598 174.758 173.742C172.399 174.031 171.012 172.731 171.012 170.275C170.873 168.253 171.706 166.664 173.926 166.375C176.285 166.23 177.395 167.819 177.811 169.986Z" fill="#DD4403"/>
<path d="M116.896 149.618C116.896 144.851 118.978 142.539 123.557 142.539C127.719 142.539 130.356 144.995 130.494 149.04C130.633 153.229 127.858 156.552 123.834 156.552C119.394 156.552 116.896 154.096 116.896 149.618Z" fill="#8092A4"/>
<path d="M35.7234 168.253C35.3071 165.364 36.8334 163.63 39.7473 163.775C42.245 163.919 44.3263 165.075 44.4651 168.397C44.4651 171.864 42.3837 173.309 39.7473 173.598C36.8334 173.742 35.7234 171.431 35.7234 168.253Z" fill="#444F56"/>
</g>
<defs>
<clipPath id="clip0">
<rect width="232.141" height="229.257" fill="white" transform="translate(0.756348 0.824341)"/>
</clipPath>
</defs>
</svg>
