<svg width="185" height="192" viewBox="0 0 185 192" fill="none" xmlns="http://www.w3.org/2000/svg">
<path d="M160.243 164.151C159.732 166.962 156.922 168.239 155.9 170.666C155.517 171.433 154.75 172.072 154.367 172.838C152.068 177.82 152.962 179.353 159.477 181.78C160.882 182.291 162.67 182.036 162.798 184.08C162.926 186.379 160.754 186.251 159.349 186.635C151.173 188.806 142.87 189.445 134.439 190.084C120.259 191.106 106.079 192.255 91.8997 191.617C72.738 190.722 53.4485 191.489 34.5422 187.401C33.648 187.273 32.7538 187.146 31.9873 186.762C30.7099 186.124 28.7937 185.996 28.7937 184.207C28.7937 182.291 30.5821 182.036 31.9873 181.78C40.674 179.609 49.6161 178.203 58.5583 177.692C60.0912 177.565 62.3906 178.203 62.7739 176.287C63.4126 173.477 63.5403 170.539 63.4126 167.601C63.4126 166.834 61.8797 167.09 60.9854 167.09C58.9415 167.09 56.8976 166.706 55.1092 165.429C58.9415 163.385 62.6461 163.13 65.9675 166.579C67.245 169.517 64.8178 172.072 65.3288 175.01C65.3288 178.076 67.6282 180.375 68.3947 183.185C69.1611 185.996 75.4206 185.229 77.3368 182.291C78.231 180.886 78.6143 179.353 79.1252 177.82C79.6362 176.287 79.764 174.627 81.6801 173.988C82.7021 173.988 83.0853 174.754 83.7241 175.393C87.0454 179.481 91.6442 179.098 94.7101 174.754C94.9656 174.371 95.3489 174.116 95.7321 173.988C99.1812 177.309 100.075 177.309 103.269 173.988C105.313 174.243 105.313 176.67 107.101 177.437C110.934 179.225 114.383 178.076 116.427 173.988C119.493 172.583 120.259 175.01 121.153 176.926C122.175 179.098 122.048 181.908 124.091 183.696C126.902 184.718 129.712 185.74 132.139 182.93C132.523 180.12 133.289 177.309 134.95 174.882C135.844 174.371 136.61 174.627 137.377 175.138C141.082 177.692 141.082 177.692 142.487 173.221C143.509 170.156 145.042 167.217 146.702 164.535C147.724 163.002 148.874 161.341 151.173 161.469C152.451 163.385 150.918 164.535 150.024 165.684C147.724 169.006 146.064 172.583 145.425 176.543C145.169 178.203 145.169 179.992 147.341 180.503C149.64 181.142 149.896 179.225 150.407 177.565C151.429 173.349 152.962 169.389 156.155 166.323C157.305 165.173 158.199 163.513 160.243 164.151Z" fill="#DDD7C0"/>
<path d="M112.339 11.7521C119.492 14.4348 126.774 17.2452 133.927 19.9278C134.822 20.311 136.099 20.311 136.099 21.7162C132.778 22.355 130.351 20.1833 127.54 19.4168C134.566 22.6105 142.231 24.5266 149.129 28.6145C150.407 28.9977 151.556 29.5087 152.578 30.1474C154.111 31.1694 153.728 32.1913 152.323 33.0855C145.68 32.4468 139.548 29.5087 133.289 27.7203C119.492 23.7602 105.824 19.5446 91.7716 16.7342C88.7057 15.9677 85.6399 15.5845 82.7017 14.5625C79.1249 13.9238 75.6758 12.5186 71.9712 12.1354C70.055 11.8799 68.6498 10.9857 68.9053 8.68625C72.9931 1.91576 73.5041 1.66027 80.6578 3.4487C89.6 5.62037 98.2866 8.814 107.101 11.4966C108.762 11.4966 110.167 13.4128 111.828 12.0076C112.083 11.8799 112.211 11.7521 112.339 11.7521Z" fill="#82AA6D"/>
<path d="M160.244 164.152C155.39 167.729 152.324 172.328 151.685 178.332C151.43 180.759 150.408 182.42 147.853 182.037C145.553 181.781 144.276 180.12 144.404 177.693C144.659 172.967 146.32 168.879 149.003 165.046C149.769 163.897 151.174 163.003 151.302 161.47C151.813 158.787 153.985 157.254 155.645 155.466C159.35 151.378 162.16 146.651 164.843 141.925C167.015 139.242 166.504 135.41 168.803 132.855C169.186 132.599 169.57 132.599 170.081 132.727C171.486 134.515 170.847 136.432 170.464 138.22C168.42 145.757 164.715 152.272 159.35 158.148C154.623 163.386 149.258 168.24 147.853 176.288C148.747 173.478 149.641 171.306 151.047 169.39C152.452 167.474 153.985 165.685 155.518 163.897C160.116 158.659 164.46 153.038 168.931 147.545C170.975 148.056 170.975 149.078 169.314 150.228C169.314 154.444 165.737 156.615 163.821 159.681C162.799 161.342 161.522 162.747 160.244 164.152Z" fill="#6D3627"/>
<path d="M20.4898 81.3732C20.3621 79.4571 20.8731 77.9241 23.3002 77.7964C23.939 78.5629 24.8332 79.0738 25.5996 79.5848C26.2384 80.0958 26.8771 80.479 27.3881 81.1178C28.1545 82.2675 28.921 83.2894 29.943 84.3114C31.4759 85.8443 32.8811 87.3773 34.4141 88.7825C34.925 89.1657 35.3083 89.5489 35.8192 89.9322C37.9909 91.5928 40.6736 90.4431 42.973 91.2096C43.8672 91.4651 44.5059 91.9761 45.0169 92.7425C45.9111 94.4032 45.6556 96.1917 45.6556 97.9801C45.6556 100.918 46.9331 102.451 49.9989 101.94C52.4261 101.94 53.4481 102.834 52.0429 105.262C49.3602 106.922 47.955 111.649 43.3562 109.477C40.0348 106.539 36.5857 103.601 34.0308 99.8963C32.8811 97.4691 34.5418 94.531 32.3701 92.2316C31.7314 91.7206 31.2204 91.0819 30.7094 90.4431C28.1545 87.3773 25.8551 84.0559 22.0228 82.2675C21.5118 82.1397 21.0008 81.7565 20.4898 81.3732Z" fill="#F2F3F3"/>
<path d="M157.816 63.6162C155.645 64.7659 155.9 65.9156 157.433 67.704C161.393 72.0474 165.609 76.2629 168.675 81.245C172.762 87.8877 175.445 94.9137 175.956 102.706C176.084 105.006 176.595 106.794 179.022 107.944C181.705 109.221 183.11 111.648 182.854 114.842C182.599 117.525 182.727 120.207 182.854 122.762C182.982 125.062 181.832 127.233 180.044 127.872C176.723 129.149 175.956 131.704 175.573 134.642C175.445 134.515 175.19 134.259 175.062 134.131C174.295 132.854 174.168 131.321 174.423 129.916C174.934 127.489 174.295 125.956 171.613 125.573C170.719 125.445 169.824 124.934 169.569 124.04C168.93 119.441 167.525 114.714 170.463 110.243C172.635 111.393 171.868 113.437 172.124 115.225C172.379 117.014 171.741 118.93 172.762 121.101C173.784 117.525 172.89 114.203 173.146 110.882C176.339 107.56 173.657 103.984 173.657 100.535C172.124 93.8918 170.463 87.249 166.12 81.756C163.948 77.4127 160.243 74.4745 157.178 70.7699C156.028 68.8537 154.112 67.4485 153.601 65.0214C153.856 63.233 155.006 62.4665 156.794 62.722C157.305 62.9775 157.561 63.233 157.816 63.6162Z" fill="#564F4B"/>
<path d="M29.4334 125.701C26.4953 121.357 22.1519 118.164 18.7028 114.331C17.1699 113.309 15.8924 111.904 14.615 110.499C14.2317 110.116 13.8485 109.605 13.593 109.094C12.0601 107.178 11.1659 104.367 7.84449 105.517C6.95028 104.623 6.69479 103.345 6.4393 102.196C6.31155 100.79 4.77861 99.2574 6.4393 98.1077C8.09998 96.958 9.37743 98.6187 10.9104 99.2574C12.9543 103.218 15.7647 104.75 19.9803 102.323C21.3855 102.579 22.4074 103.473 22.9184 104.75C23.5571 106.411 23.3016 108.2 23.4294 109.988C25.601 114.97 28.9224 118.547 34.0322 120.463C35.1819 119.697 36.0761 118.547 37.4813 118.291C38.3755 118.419 39.0143 118.802 39.3975 119.697C38.3755 123.146 36.0761 125.317 32.627 126.339C31.7328 126.212 30.4554 126.467 29.4334 125.701Z" fill="#70392A"/>
<path d="M107.741 12.7738C97.5213 9.58022 87.3017 6.38659 77.0821 3.32071C75.4214 2.80973 74.2717 3.19297 73.2497 4.59816C72.2278 6.00336 71.2058 7.5363 69.6729 8.43051C68.7787 9.06924 67.8844 9.19698 66.9902 8.43051C67.629 6.64208 69.1619 5.49238 70.1839 3.95944C72.7388 -0.000656605 76.0601 0.382578 79.8925 1.53228C87.4294 3.83169 94.9664 6.1311 102.631 8.55826C104.292 10.4744 107.613 9.19698 109.018 11.6241C108.891 12.2629 108.124 12.3906 107.741 12.7738Z" fill="#516249"/>
<path d="M43.7401 38.5784C42.5904 36.279 43.8678 34.3628 44.762 32.5744C48.5944 24.5265 51.788 16.0953 58.814 9.96355C61.3689 9.8358 64.0515 9.32482 66.2232 11.4965C65.9677 12.263 65.4567 12.5184 64.6903 12.7739C61.1134 12.7739 58.814 14.6901 56.8978 17.6282C53.5765 22.8658 50.7661 28.3588 48.5944 34.1074C47.7002 36.4068 47.4447 38.9617 45.1453 40.6223C43.8678 40.4946 43.7401 39.6004 43.7401 38.5784Z" fill="#5A6854"/>
<path d="M166.887 36.6624C172.891 37.4289 177.234 41.5167 182.344 44.0716C182.983 44.3271 183.621 44.7104 184.26 44.9659C185.154 46.1156 184.388 47.2653 183.621 47.393C179.15 48.0317 174.551 48.5427 169.825 47.904C171.23 44.8381 173.529 45.9878 175.062 45.0936C172.38 43.3052 169.186 42.7942 166.631 40.878C165.865 39.6006 163.31 39.4728 164.204 37.4289C164.459 36.1515 165.737 36.0237 166.887 36.6624Z" fill="#3A4537"/>
<path d="M22.2785 104.623C21.3842 103.984 20.6178 103.473 19.7236 102.834C17.0409 102.579 16.4022 100.024 14.7415 98.6186C12.8253 96.5746 11.1646 94.403 8.09875 93.892C9.6317 90.6984 11.9311 88.2712 15.1247 86.7383C16.2744 88.1435 14.997 89.1654 14.486 90.3151C14.2305 91.3371 14.997 91.8481 15.508 92.4868C16.1467 93.1255 16.9132 93.892 17.5519 94.5307C19.2126 96.1914 20.8733 97.8521 22.6617 99.5128C23.4282 100.152 24.1946 100.662 25.2166 100.79C26.8773 101.046 28.6657 100.662 30.1986 101.684C30.4541 102.068 30.5819 102.451 30.5819 102.834C28.1547 104.75 25.0888 104.112 22.2785 104.623Z" fill="#D1D2D1"/>
<path d="M29.4317 125.701C30.3259 125.445 31.0924 124.423 32.1143 125.573C32.8808 126.339 32.6253 127.106 32.3698 128C31.0924 131.832 31.3479 132.088 35.6912 132.216C36.3299 132.216 36.9687 132.343 37.4796 132.727C37.6074 136.687 41.0565 138.475 43.2282 141.158C43.2282 142.308 42.9727 143.33 41.823 143.841C37.4796 140.391 33.1363 136.942 28.5375 133.749C23.6832 130.172 28.4097 128.256 29.4317 125.701Z" fill="#635329"/>
<path d="M177.233 44.7103C179.022 45.0935 179.533 45.9877 177.361 46.371C175.317 46.7542 173.146 46.4987 170.974 47.2652C174.551 47.2652 178.128 47.2652 181.577 47.2652C183.237 47.2652 184.004 46.371 184.132 44.838C185.409 47.6484 185.154 48.0316 181.577 48.1594C174.295 48.4149 167.014 50.4588 159.605 50.2033C158.583 50.2033 157.688 50.7143 156.667 50.9698C156.028 50.3311 156.028 49.6923 156.411 48.9259C158.966 48.2871 161.521 48.6704 164.842 48.5426C161.521 48.5426 159.094 48.5426 156.539 48.6704C155.261 49.1814 153.984 49.1814 152.962 48.0316C153.217 46.1155 154.75 46.1155 155.9 46.1155C163.182 46.2432 170.08 43.8161 177.233 44.7103Z" fill="#7C8779"/>
<path d="M41.8239 143.713C42.2071 142.818 42.5903 141.924 42.8458 141.03C44.1233 137.709 47.0614 135.92 49.4886 133.749C52.0435 131.96 53.8319 129.533 56.259 127.617C58.0475 126.212 59.4527 126.339 59.8359 128.894C60.0914 131.96 58.8139 134.643 57.792 137.453C57.1533 138.475 56.77 139.625 55.2371 139.369C54.3429 138.475 54.3429 137.453 54.2151 136.303C54.0874 135.793 53.9596 134.771 53.8319 135.026C51.0215 138.092 46.2949 140.008 46.5504 145.246C45.6562 146.268 44.762 146.268 43.74 145.501C43.1013 144.862 42.4626 144.224 41.8239 143.713Z" fill="#454336"/>
<path d="M65.9674 11.8797C63.9235 9.83575 60.7298 12.3907 58.6859 9.9635C59.4524 7.66409 60.8576 8.43056 62.3905 9.06928C64.0512 9.70801 65.7119 10.219 66.9893 8.43056C67.8836 8.43056 68.7778 8.43056 69.672 8.43056C69.4165 10.219 70.183 11.1132 72.0991 11.1132C75.9315 11.1132 79.3806 12.6461 83.0852 13.5404C82.8297 13.9236 82.5742 14.3068 82.191 14.6901C79.2529 16.3507 76.187 15.712 73.2488 14.9456C72.6101 14.8178 71.8436 14.6901 71.2049 14.4346C69.4165 13.5404 66.8616 14.3068 65.9674 11.8797Z" fill="#42503E"/>
<path d="M14.9974 109.86C17.0413 110.754 17.68 112.798 18.702 114.459C13.9754 115.353 10.5263 113.437 7.71591 109.86C6.31072 108.2 4.65003 106.667 2.98935 105.261C0.562193 103.09 -0.715258 101.174 3.75582 99.8961C4.13905 99.7684 4.2668 98.8742 4.52229 98.3632C4.77778 98.1077 5.16101 97.98 5.54425 98.2355C6.05523 99.5129 5.92748 100.918 5.92748 102.196C6.05523 103.601 7.20493 104.367 7.58817 105.645C8.35464 107.689 9.75983 108.966 11.8038 109.477C12.8257 109.86 13.7199 111.138 14.9974 109.86Z" fill="#5D5E5C"/>
<path d="M152.323 32.4467C153.217 31.6802 153.089 31.0415 151.94 30.786C150.662 30.4027 149.512 29.8918 148.746 28.8698C148.746 28.3588 149.257 28.2311 149.64 27.9756C155.516 30.0195 161.393 32.1912 166.503 35.8958C164.075 36.9177 161.009 35.768 158.966 38.1952C157.816 38.5784 156.922 38.1952 156.155 37.301C155.9 34.8738 151.94 35.3848 152.323 32.4467Z" fill="#4B5C43"/>
<path d="M36.7137 62.5944C36.8415 57.9956 37.097 53.3967 39.3964 49.1812C41.0571 49.3089 41.0571 50.7141 41.5681 51.8638C41.9513 53.269 41.5681 54.6742 41.1848 56.0794C40.9293 57.4846 40.4184 58.8898 42.3345 59.6562C43.101 59.9117 43.9952 60.0395 44.6339 60.6782C44.7617 61.0614 44.7617 61.5724 44.5062 61.9557C42.079 63.4886 39.5241 65.0215 36.7137 62.5944Z" fill="#545D52"/>
<path d="M149.513 27.9756C149.257 28.2311 148.874 28.4866 148.618 28.8698C140.315 25.4207 132.139 21.9716 123.836 18.5224C123.964 18.1392 124.091 17.8837 124.219 17.5005C128.435 18.1392 131.884 21.2051 136.099 21.7161C137.249 23.249 139.549 22.0993 140.698 23.6322C143.381 24.6542 146.064 25.5484 148.363 27.0814C148.874 27.3369 149.257 27.7201 149.513 27.9756Z" fill="#353E2E"/>
<path d="M169.441 150.355C169.569 149.589 170.463 148.822 169.441 148.056C169.185 147.673 168.93 147.289 169.058 146.906C171.357 140.391 172.251 133.493 173.529 126.85C175.189 126.467 175.189 127.617 175.062 128.766C174.934 130.682 174.806 132.599 175.062 134.515C175.189 134.643 175.317 134.898 175.445 135.026C174.295 140.391 174.04 146.267 169.441 150.355Z" fill="#653C36"/>
<path d="M28.2827 74.0914C29.1769 72.1753 31.0931 71.1533 32.4983 70.1313C35.0532 68.2152 36.0752 71.6643 37.3526 73.325C37.0971 75.2411 38.3746 77.6683 35.1809 78.307C34.0312 78.307 33.2648 77.5405 32.626 76.6463C31.8596 75.3689 30.4544 75.2411 29.1769 74.8579C28.7937 74.7301 28.5382 74.4747 28.2827 74.0914Z" fill="#69696B"/>
<path d="M54.4702 163.896C51.5321 162.491 51.9153 159.681 51.7876 157.126C51.7876 155.338 51.6599 153.677 51.6599 151.888C50.3824 150.611 49.8714 149.334 50.8934 147.673C51.4044 146.906 52.0431 146.14 53.0651 146.14C53.8315 146.395 54.2148 147.034 54.4702 147.673C54.9812 150.228 54.7257 152.783 54.7257 155.465C54.4702 157.509 55.3645 159.298 56.0032 161.214C56.0032 162.364 55.7477 163.385 54.4702 163.896Z" fill="#44413C"/>
<path d="M34.7979 77.7963C37.736 77.5408 35.6921 74.3472 37.3528 73.3252C37.9915 73.8362 38.6302 74.4749 39.2689 74.9859C41.9516 77.6685 43.1013 80.4789 41.0574 84.0558C37.225 83.6725 35.5643 81.2454 34.7979 77.7963Z" fill="#292A2D"/>
<path d="M5.28881 98.2354H4.90557H4.52234C4.52234 95.6805 8.48243 96.7025 8.22694 93.8921C12.698 91.7204 13.209 96.3192 15.5084 98.1077C13.9755 98.3632 12.9535 100.407 11.0373 99.5129C9.12116 98.4909 7.46047 97.0857 5.28881 98.2354Z" fill="#646464"/>
<path d="M20.49 81.3726C21.1287 81.3726 21.6397 81.3726 22.2784 81.3726C24.1946 83.0332 26.6217 84.1829 27.1327 86.9933C26.7495 88.9095 25.7275 90.3147 23.4281 90.0592C22.7894 89.9315 22.2784 89.5482 22.0229 88.9095C22.0229 88.5263 22.6617 88.3985 22.6617 87.8876C22.5339 88.143 22.4062 88.3985 22.1507 88.5263C21.8952 88.7818 21.6397 88.7818 21.2565 88.654C20.3622 86.7378 18.3183 87.3766 16.7854 86.8656C16.4021 86.2269 16.4021 85.7159 16.9131 85.3327C19.0848 84.6939 20.49 83.5442 20.49 81.3726Z" fill="#515153"/>
<path d="M44.3786 79.3291C45.0173 74.0916 45.1451 68.854 44.3786 63.6165C44.2509 62.9778 44.3786 62.5945 45.0173 62.4668C47.4445 63.1055 47.5722 65.1494 47.5722 66.9379C47.7 70.1315 47.8277 73.3251 47.4445 76.5187C47.189 77.6685 46.678 78.8182 45.6561 79.5846C45.1451 79.8401 44.7619 79.7124 44.3786 79.3291Z" fill="#5E6061"/>
<path d="M17.0413 85.2053C17.0413 85.7163 17.169 86.2273 17.169 86.7383C18.0632 88.5267 19.4684 89.9319 21.0014 91.2093C21.1291 91.5926 21.2569 92.1036 21.2569 92.4868C20.7459 95.0417 18.8297 94.7862 16.9135 94.7862C15.8916 94.5307 15.3806 93.892 15.1251 92.9978C15.6361 91.4648 13.9754 91.0816 13.3367 90.1874C13.5922 88.7822 15.7638 88.5267 15.2528 86.7383C15.6361 85.9718 16.0193 85.2053 17.0413 85.2053Z" fill="#686D6D"/>
<path d="M54.4709 163.896C54.7264 163.13 54.9819 162.363 55.2374 161.469C59.0698 161.725 62.9021 161.98 66.7345 162.363C69.5449 163.769 66.479 164.918 66.6067 166.324C66.479 166.707 66.0957 166.962 65.7125 167.09C62.7744 163.641 58.8143 165.94 55.3652 165.174C54.9819 164.663 54.7264 164.28 54.4709 163.896Z" fill="#64705D"/>
<path d="M41.0577 83.9277C40.419 80.9895 41.8242 77.6682 39.2693 75.1133C40.93 76.5185 42.7184 77.9237 44.3791 79.3289C44.5068 79.4566 44.6346 79.5844 44.7623 79.7121C45.0178 82.1393 45.0178 84.4387 42.0797 85.3329C41.3132 85.2051 40.8022 84.8219 41.0577 83.9277Z" fill="#5E6061"/>
<path d="M159.349 37.6844C158.327 34.7462 161.01 36.2792 161.904 35.6405C163.437 34.363 164.97 36.0237 166.503 36.0237C166.759 36.1514 166.886 36.4069 166.886 36.7902C160.116 38.8341 169.697 39.0896 167.397 40.6225C163.948 41.5167 161.393 40.367 159.349 37.6844Z" fill="#465C3D"/>
<path d="M51.6601 147.928C50.8936 149.206 51.0213 150.483 51.6601 151.888C48.5942 150.228 46.167 147.928 43.7399 145.373C44.6341 145.246 45.7838 145.629 46.2948 144.607C48.9774 144.224 50.2549 146.14 51.6601 147.928Z" fill="#535B62"/>
<path d="M41.0577 51.9914C40.5468 51.0972 39.908 50.203 39.397 49.3088C39.1416 47.0094 40.2913 45.0932 41.3132 43.177C43.1017 43.4325 42.9739 44.9654 43.4849 46.1151C43.2294 48.2868 43.3571 50.5862 41.0577 51.9914Z" fill="#3A4437"/>
<path d="M156.667 49.3091C156.667 49.9478 156.794 50.5865 156.794 51.2252C157.05 55.4408 159.86 59.4009 157.816 63.6165C157.688 63.4888 157.561 63.361 157.433 63.2333C156.156 59.9119 155.645 56.5905 154.75 53.1414C154.495 51.9917 154.495 50.842 153.473 50.0755C153.217 49.6923 152.962 49.3091 152.962 48.9258C153.09 48.6703 153.09 48.5426 153.217 48.2871C154.367 48.4149 155.517 48.4149 156.794 48.5426C157.05 48.6703 157.178 48.9258 157.05 49.0536C156.922 49.3091 156.794 49.3091 156.667 49.3091Z" fill="#315561"/>
<path d="M42.8448 45.7323C42.3339 44.8381 41.8229 43.9438 41.3119 43.1774C41.5674 41.3889 41.1841 39.2173 43.739 38.7063C43.9945 39.345 44.25 39.856 44.6333 40.4947C45.783 42.7941 44.3778 44.1993 42.8448 45.7323Z" fill="#3A4633"/>
<path d="M28.2834 74.0911C28.6666 74.0911 29.0499 74.2188 29.4331 74.2188C29.8163 74.9853 29.6886 75.7518 29.4331 76.5182C28.6666 78.5621 26.6227 79.0731 24.962 80.2228C23.4291 80.0951 23.1736 79.0731 23.1736 77.7957C25.984 77.9234 26.8782 75.7517 28.2834 74.0911Z" fill="#646467"/>
<path d="M108.762 11.752C107.229 9.58037 103.78 10.9856 102.503 8.43066C105.952 9.06939 109.145 10.3468 112.339 11.752C112.211 11.8798 112.083 12.1353 111.956 12.263C110.806 12.9017 109.784 12.774 108.762 11.752Z" fill="#82AA6D"/>
<path d="M44.6339 62.5945C44.5062 62.9777 44.5062 63.2332 44.3784 63.6165C41.6958 63.872 38.8854 66.0436 36.7137 62.7222C39.3964 63.9997 41.8235 62.7222 44.2507 62.0835C44.7617 61.9558 44.8894 62.2113 44.6339 62.5945Z" fill="#A8CD97"/>
<path d="M148.491 27.0812C145.68 26.3147 142.997 25.5482 140.826 23.632C143.892 23.5043 146.447 24.7817 148.491 27.0812Z" fill="#82AA6D"/>
<path d="M165.481 142.691C162.16 149.972 157.178 156.104 151.429 161.469C146.447 164.279 145.17 169.517 143.381 174.371C142.87 175.776 144.02 177.82 141.593 178.204C139.421 178.459 137.505 178.204 136.866 175.521C136.739 175.138 135.972 174.882 135.461 174.627C134.439 173.988 134.311 172.966 134.184 171.944C134.056 169.645 134.056 167.473 134.439 165.174C135.461 160.447 135.717 155.848 132.651 151.633C132.012 149.461 131.757 147.289 130.862 145.245C128.818 140.391 128.691 136.048 133.162 132.088C135.333 130.172 135.717 127.233 135.972 124.423C136.228 120.591 137.633 119.696 141.21 120.718C146.575 122.251 151.94 123.912 157.561 123.784C160.499 123.657 162.415 126.339 165.098 127.361C168.803 128.766 169.825 131.193 168.164 134.77C166.886 137.325 167.27 140.391 165.481 142.691Z" fill="#FDFDFD"/>
<path d="M116.555 173.86C116.81 176.543 116.81 179.098 112.978 178.715C109.784 178.331 105.313 180.886 104.291 175.138C104.163 174.499 103.908 174.116 103.269 173.86C100.97 175.521 98.5425 175.521 96.1153 173.988C94.7101 178.204 88.3229 180.503 84.3628 178.331C82.3189 177.309 84.1073 174.371 81.9356 173.605C80.5304 172.2 78.742 172.583 76.9536 172.327C75.4206 172.072 73.6322 172.838 72.8657 170.667C77.5923 167.856 83.3408 168.367 86.6622 172.327C88.4506 174.499 89.8558 174.371 91.772 172.455C96.4985 167.601 103.908 167.601 108.251 172.711C109.529 174.244 111.317 174.371 112.978 174.755C114.511 175.904 115.277 173.733 116.555 173.86Z" fill="#616D57"/>
<path d="M116.555 173.861C115.149 174.372 116.81 176.926 114.511 176.926C114.255 176.926 114.127 176.032 113.872 175.521C112.595 171.944 114.511 170.028 117.577 169.645C121.92 169.006 126.391 168.24 129.457 172.966C130.096 174.116 131.245 174.372 132.523 173.861C133.672 173.477 133.8 171.561 135.461 172.2C135.461 173.094 135.461 173.988 135.589 174.883C135.716 178.076 132.906 180.503 133.672 183.825C130.479 185.358 127.03 184.463 123.708 184.719C120.515 182.93 121.409 179.354 120.004 176.671C119.237 175.138 119.237 172.839 116.555 173.861Z" fill="#4B5C40"/>
<path d="M72.9929 171.177C75.2923 171.177 77.7195 171.178 80.0189 171.305C81.4241 171.305 82.8293 171.561 81.9351 173.605C81.2964 175.393 80.5299 177.182 80.0189 178.97C78.3582 184.718 77.2085 185.485 71.2045 185.357C68.5219 185.357 66.3502 184.718 66.7334 181.397C67.1167 178.714 62.7733 177.82 64.3063 174.754C64.6895 174.243 65.3282 173.988 65.967 173.988C68.2664 174.499 70.3103 174.627 71.2045 171.816C71.46 171.177 72.2265 170.922 72.9929 171.177Z" fill="#4C5B41"/>
<path d="M96.2436 173.988C98.6707 173.988 100.97 173.988 103.397 173.86C104.036 177.82 100.842 176.798 98.9262 177.309C96.1159 177.948 96.1158 175.777 96.2436 173.988Z" fill="#EEEDE6"/>
<path d="M66.0959 174.627C65.4572 174.627 64.9462 174.755 64.3075 174.755C63.6688 171.944 65.3295 169.517 65.7127 166.962C65.8404 166.834 65.9682 166.707 66.2237 166.579C66.6069 166.323 67.1179 166.323 67.5011 166.451C67.8844 166.707 68.2676 166.962 68.3953 167.473C68.9063 170.283 69.4173 173.094 66.0959 174.627Z" fill="#64705D"/>
<path d="M123.707 184.591C126.901 182.803 130.35 183.952 133.671 183.697C130.606 186.763 127.156 185.485 123.707 184.591Z" fill="#5F6852"/>
<path d="M152.324 32.4466C152.835 34.8738 157.561 33.2131 156.795 36.9177C155.006 38.3229 153.473 37.1732 151.813 36.6622C132.523 29.8917 113.106 23.8877 93.05 20.0554C91.2616 19.6721 89.6009 19.2889 88.3234 17.8837C88.0679 17.5005 87.9402 16.9895 88.0679 16.4785C88.9622 14.9456 90.7506 16.4785 91.9003 15.4565C101.737 17.245 111.318 20.1831 121.026 22.738C131.501 25.5484 141.849 29.253 152.324 32.4466Z" fill="#465C3D"/>
<path d="M91.7717 15.4564C90.7498 16.8616 89.3446 16.0951 88.0671 16.4784C83.8515 17.6281 82.7018 17.1171 81.8076 13.7957C82.1909 13.7957 82.5741 13.668 82.9573 13.668C85.8955 14.1789 88.8336 14.8177 91.7717 15.4564Z" fill="#2C3C2B"/>
<path d="M113.744 13.668C117.32 14.8177 120.259 15.0732 122.813 17.1171C119.109 17.1171 116.937 16.3506 113.744 13.668Z" fill="#303D2C"/>
<path d="M108.761 11.752C109.783 11.8797 110.933 12.0074 111.955 12.1352C112.21 12.6462 112.849 13.1571 112.849 13.5404C112.721 14.6901 111.955 14.1791 111.316 13.9236C110.166 13.5404 108.889 13.1571 107.739 12.6462C108.122 12.5184 108.378 12.1352 108.761 11.752Z" fill="#35442D"/>
<path d="M173.912 126.85C174.423 134.387 172.124 141.285 169.441 148.056C165.481 154.699 160.243 160.192 155.261 166.068C152.323 169.389 149.641 172.838 148.874 177.437C148.746 178.331 148.746 179.353 147.341 178.97C146.447 178.587 146.191 177.82 146.447 176.798C147.469 171.816 149.768 167.473 153.09 163.641C157.944 158.148 163.437 153.166 166.375 146.14C168.164 141.924 170.207 137.836 169.952 133.11C168.93 131.193 168.547 129.15 169.952 127.361C171.102 125.828 172.507 125.573 173.912 126.85Z" fill="#DD4706"/>
<path d="M173.912 126.851C168.164 126.084 171.229 130.938 170.08 132.982C169.824 132.982 169.569 132.855 169.313 132.855C169.058 131.066 167.908 129.405 167.653 127.489C167.653 127.106 167.78 126.723 167.908 126.212C169.313 123.146 166.631 120.336 167.525 117.27C168.164 115.609 168.291 113.821 168.164 112.032C168.164 110.627 167.014 109.349 167.269 107.944C167.397 107.561 167.525 107.178 167.78 106.795C168.93 105.006 166.886 101.685 170.335 100.791C171.868 102.579 171.102 105.006 171.996 106.922C173.273 108.2 173.273 106.922 173.401 106.156C173.784 104.367 173.018 102.323 174.679 100.918C176.339 103.218 174.679 106.284 176.722 108.838C177.744 110.244 175.19 110.627 173.784 110.755C172.89 111.521 172.124 111.393 171.229 110.755C169.058 114.97 170.591 119.314 170.463 123.657C170.463 124.04 171.229 124.807 171.613 124.807C177.489 124.296 176.211 127.872 175.445 131.322C175.19 132.344 175.317 133.365 175.19 134.387C173.529 131.96 175.573 129.15 173.912 126.851Z" fill="#3D2C26"/>
<path d="M168.291 117.78C167.525 120.718 170.974 123.784 168.291 126.722C167.014 125.956 167.653 123.912 165.736 123.018C165.736 125.189 167.525 125.7 168.291 126.722C168.547 128.766 168.93 130.81 169.186 132.854C168.164 136.175 168.419 140.008 165.481 142.69C166.12 140.008 166.375 137.197 167.397 134.77C168.675 131.449 167.78 129.66 164.714 128.511C163.565 127.744 162.543 126.978 162.032 125.573C161.649 124.295 161.138 122.89 161.01 121.612C160.882 118.419 160.499 115.353 161.393 112.287C161.649 111.904 161.904 111.521 162.415 111.393C163.309 111.393 163.82 112.159 163.82 112.798C163.82 115.736 165.736 117.014 168.291 117.78Z" fill="#6C5C50"/>
<path d="M20.7464 91.9757C20.6186 91.7202 20.6186 91.4647 20.6186 91.2092C20.2354 90.9537 19.9799 90.6982 19.5967 90.315C18.447 89.4208 17.425 88.1433 18.7025 86.9936C20.2354 85.5884 20.7464 87.6323 21.6406 88.2711C21.8961 88.2711 22.1516 88.2711 22.5348 88.2711C22.7903 88.6543 23.0458 88.9098 23.429 89.293C24.3233 89.804 25.2175 90.315 25.6007 91.2092C26.7504 93.2531 28.0279 92.7422 29.5608 91.7202C30.8382 94.1473 32.8822 96.0635 34.1596 98.3629C34.4151 98.8739 34.5429 99.5126 35.0538 99.8959C37.992 102.834 40.9301 105.9 43.8682 108.838C44.6347 109.349 45.2734 109.86 45.4012 110.754C45.4012 111.137 45.2734 111.648 45.1457 112.032C44.507 113.054 43.3573 113.309 42.2076 113.181C39.7804 112.67 38.5029 110.499 36.459 109.349C34.2874 107.177 31.6047 105.517 30.3273 102.579C30.455 102.323 30.455 102.195 30.3273 101.94C29.3053 100.918 28.1556 99.8959 27.0059 99.1294C26.2394 98.7462 25.7284 98.2352 25.2175 97.5965C24.1955 95.297 22.1516 93.8919 20.7464 91.9757Z" fill="#6D301D"/>
<path d="M34.16 89.2929C32.1161 88.2709 30.7109 86.6102 29.5612 84.8218C27.7728 81.2449 31.0942 81.2449 32.7548 80.0952C36.0762 80.4784 37.7369 82.6501 38.6311 85.5882C38.1201 86.4825 36.8427 86.8657 36.7149 88.2709C36.4594 89.2929 35.5652 90.3148 34.16 89.2929Z" fill="#29282B"/>
<path d="M34.1585 89.2934C35.0527 89.1657 36.3302 88.9102 35.947 87.8882C34.5418 84.3114 37.4799 86.3553 38.3741 85.8443C41.3123 85.5888 42.2065 88.3992 44.1226 89.8044C44.8891 90.8264 46.0388 91.5928 45.5278 93.1258C45.1446 93.3813 44.7614 93.3813 44.3781 92.998C43.8672 92.6148 43.3562 92.3593 42.8452 91.9761C40.418 90.3154 37.2244 92.1038 34.6695 90.3154C34.2863 90.0599 33.903 89.8044 34.1585 89.2934Z" fill="#4D3D28"/>
<path d="M33.9044 99.1295C32.2437 96.8301 29.05 95.6803 29.05 92.1035C28.7946 90.826 29.6888 90.4428 30.583 90.0596C30.8385 90.0596 30.9662 90.0596 31.2217 90.0596C31.7327 90.4428 32.2437 90.826 32.8824 91.2093C35.1818 93.6364 34.4153 96.4468 33.9044 99.1295Z" fill="#777779"/>
<path d="M44.3784 92.8696C44.7617 92.8696 45.0171 92.8696 45.4004 92.8696C46.1669 92.9974 46.5501 93.3806 46.9333 94.0193C48.083 96.4465 46.2946 100.151 49.9992 101.556C50.2547 101.94 50.2547 102.323 49.9992 102.706C46.4223 103.983 44.8894 102.578 44.8894 98.8737C45.0171 96.9575 45.1449 94.9135 44.3784 92.8696Z" fill="#3B525A"/>
<path d="M33.0095 80.4787C32.6263 82.5226 28.7939 81.8839 29.5604 84.822C28.0275 84.1833 26.8777 83.1613 26.75 81.3729C27.5165 79.5845 28.7939 78.5625 30.5824 78.0515C31.9875 78.1793 33.3927 78.4348 33.0095 80.4787Z" fill="#444646"/>
<path d="M26.8774 86.4829C25.3444 84.6945 23.8115 83.0338 22.2786 81.2454C26.4942 82.906 29.1768 86.0997 31.2207 89.932C31.093 90.0598 31.093 90.1875 31.093 90.443C28.9213 90.0598 27.3884 88.7823 26.8774 86.4829Z" fill="#B8B7B7"/>
<path d="M30.3264 78.5627C29.1767 79.5847 28.1547 80.8621 26.6218 81.3731C26.1108 80.9899 25.5998 80.6066 25.0889 80.2234C24.7056 77.5408 28.6657 78.435 28.6657 75.8801C30.0709 75.4968 30.3264 76.6465 30.7096 77.413C30.7096 77.924 30.5819 78.3072 30.3264 78.5627Z" fill="#323335"/>
<path d="M34.7979 90.1877C37.6082 90.4432 40.6741 88.9103 42.9735 91.8484C40.1631 91.3374 36.9695 93.3813 34.7979 90.1877Z" fill="#B8B7B7"/>
<path d="M44.634 110.627C44.2508 109.988 43.9953 109.477 43.6121 108.838C47.6999 110.627 48.4664 105.645 51.2768 105.006C51.66 105.134 51.9155 105.517 51.9155 106.028C50.2548 108.583 49.1051 112.287 44.634 110.627Z" fill="#748392"/>
<path d="M49.9996 102.707C49.9996 102.323 49.8718 102.068 49.8718 101.685C50.3828 99.3852 51.9157 100.024 53.3209 100.407C53.7042 100.663 54.0874 101.174 54.2152 101.557C54.4706 103.473 54.3429 105.134 51.788 105.261C51.6603 105.134 51.5325 105.006 51.4048 104.878C52.0435 103.601 52.4267 102.323 49.9996 102.707Z" fill="#748392"/>
<path d="M33.9039 99.1297C33.7761 96.447 34.2871 93.6366 32.7542 91.2095C36.4588 93.3811 33.7761 97.0857 34.7981 99.8961C34.5426 99.7684 34.2871 99.3851 33.9039 99.1297Z" fill="#B8B7B7"/>
<path d="M153.218 49.1812C154.24 49.3089 155.773 49.1812 155.645 50.4586C155.389 54.9297 158.583 58.7621 157.433 63.2331C156.028 63.4886 154.623 63.4886 154.112 65.2771C153.729 65.5325 153.346 65.6603 152.962 65.6603C149.258 63.7441 149.769 59.784 148.363 56.8459C147.725 55.3129 145.936 55.8239 144.914 54.9297C144.02 54.1632 143.509 53.269 143.126 52.1193C142.998 51.0974 142.743 50.2031 143.765 49.5644C146.958 49.1812 150.024 47.5205 153.218 49.1812Z" fill="#363531"/>
<path d="M177.234 126.85C177.234 121.868 177.234 117.525 177.234 113.309C177.234 112.543 176.978 111.393 178.128 111.138C179.15 110.882 179.661 111.904 180.044 112.543C181.832 115.481 180.555 123.784 177.234 126.85Z" fill="#BC9B7F"/>
<path d="M170.974 110.754C171.868 110.754 172.634 110.754 173.528 110.754C175.189 114.331 174.167 118.036 174.295 121.74C174.295 123.018 173.528 124.04 172.123 123.912C170.718 123.784 170.846 122.507 170.846 121.485C170.846 117.908 170.974 114.331 170.974 110.754Z" fill="#788899"/>
<path d="M174.55 100.918C174.55 103.089 174.678 105.389 174.422 107.433C174.039 109.732 172.889 109.988 170.973 108.071C173.273 105.006 172.378 101.684 171.74 98.3628C170.718 92.6142 167.524 87.7599 165.863 82.2669C165.991 81.7559 166.119 81.3727 166.502 81.1172C171.74 86.738 173.528 93.7639 174.55 100.918Z" fill="#6C3325"/>
<path d="M157.689 70.5144C161.138 73.708 164.715 76.6462 166.631 81.245L166.376 81.5005C162.16 79.0733 158.839 75.8797 157.306 71.0254C157.433 70.7699 157.561 70.6421 157.689 70.5144Z" fill="#6C3325"/>
<path d="M153.09 65.4048C153.473 65.4048 153.856 65.4048 154.239 65.2771C155.261 67.1933 157.305 68.343 157.816 70.5146C157.689 70.6424 157.561 70.7701 157.433 70.8979C154.623 70.0037 152.451 68.854 153.09 65.4048Z" fill="#6C3325"/>
<path d="M35.4366 132.854C33.1372 134.642 31.732 133.109 30.3268 131.576C28.7939 129.916 30.4545 129.022 31.221 128C31.732 127.361 31.8597 126.467 32.1152 125.572C35.5643 124.934 37.0973 121.996 39.1412 119.696C40.5464 116.247 43.74 114.586 46.0394 111.904C50.1273 109.477 52.2989 105.006 56.3868 102.706C58.8139 102.578 62.0076 101.301 63.285 103.856C64.6902 106.666 61.4966 108.199 59.8359 109.86C53.8319 115.992 47.8279 121.996 41.6961 128C39.7799 129.916 37.9915 131.832 35.4366 132.854Z" fill="#748392"/>
<path d="M30.3264 102.707C32.498 104.75 34.542 106.667 36.7136 108.711C37.9911 109.988 39.2685 111.138 40.546 112.287C41.8234 113.565 41.9512 114.715 41.057 116.12C40.4182 117.525 39.1408 118.164 37.8633 118.802C36.7136 119.441 35.8194 120.208 35.1807 121.357C34.1587 122.124 33.2645 121.613 32.498 120.846C29.1767 117.397 25.3443 114.459 22.6617 110.499C22.6617 108.455 22.5339 106.539 22.5339 104.495C24.4501 101.812 27.6437 103.729 30.3264 102.707Z" fill="#F6F7F5"/>
<path d="M10.7816 99.1295C12.57 99.7682 13.592 97.2133 15.3804 98.1076C16.7856 99.6405 18.3186 101.301 19.7238 102.834C19.4683 102.962 19.2128 103.345 19.085 103.345C17.1689 102.706 17.0411 108.199 14.2307 104.75C12.9533 103.217 11.2926 102.068 10.7816 99.896C10.5261 99.7682 10.5261 99.5127 10.6539 99.385C10.6539 99.2573 10.6539 99.1295 10.7816 99.1295Z" fill="#2B272C"/>
<path d="M11.6757 109.86C8.35429 110.243 6.82135 108.838 7.20459 105.517C7.46008 105.006 7.84331 104.878 8.22655 105.261C8.99302 105.006 8.48204 101.94 10.526 104.239C11.8034 105.772 14.7415 106.155 14.2306 109.094C13.5918 109.86 12.5699 109.86 11.6757 109.86Z" fill="#2D2729"/>
<path d="M37.6079 118.802C38.3744 117.908 39.2686 116.886 40.0351 115.992C41.8235 115.481 40.9293 113.437 41.8235 112.415C42.8455 112.415 43.8674 112.415 44.5061 111.393C45.5281 110.882 46.4223 110.754 46.2946 112.287C43.8674 114.714 41.4403 117.141 39.0131 119.441C38.6299 119.441 38.1189 119.058 37.6079 118.802Z" fill="#382020"/>
<path d="M22.4062 110.499C25.2166 113.309 28.1548 115.992 30.9652 118.802C32.1149 119.952 33.1368 121.229 34.9253 121.357C34.542 121.996 33.7756 122.635 33.1368 122.124C29.3045 118.547 24.7057 115.609 22.4062 110.499Z" fill="#748392"/>
<path d="M10.7818 99.1292C10.7818 99.3847 10.7818 99.6402 10.7818 99.8957C9.2489 100.279 8.48243 98.3627 7.20498 98.4905C5.67204 99.8957 8.86567 100.79 7.20498 101.94C6.43851 102.706 5.67204 103.345 4.52234 102.451C4.77783 101.045 5.67204 99.7679 5.28881 98.235C7.46047 96.7021 9.37665 96.7021 10.7818 99.1292Z" fill="#2F1914"/>
<path d="M11.676 109.86C12.3148 108.838 13.3367 109.093 14.2309 109.221C14.4864 109.477 14.7419 109.732 14.9974 109.86C14.9974 110.626 15.5084 111.904 14.4864 112.032C12.9535 112.415 12.4425 110.882 11.676 109.86Z" fill="#858A91"/>
<path d="M4.52234 102.451C5.41655 102.323 6.31077 102.195 7.20498 101.94C8.0992 102.834 8.22694 104.112 8.35469 105.261C7.97145 105.389 7.58822 105.389 7.33273 105.517C6.05528 104.75 4.90557 103.984 4.52234 102.451Z" fill="#7D8386"/>
<path d="M88.3229 17.117C94.0715 19.7996 100.459 19.9274 106.59 21.588C122.942 26.1869 139.293 30.147 155.006 36.6619C155.517 36.9174 156.156 36.7897 156.794 36.7897C157.433 37.8117 158.583 37.5562 159.477 37.5562C162.16 38.4504 164.842 39.4723 167.397 40.3666C170.718 41.7717 174.04 43.1769 177.361 44.5821C171.102 46.3706 164.714 46.3706 158.327 47.3925C156.667 47.648 154.75 46.8815 153.217 48.2867C145.808 49.8197 138.399 50.4584 130.99 51.8636C115.149 53.9075 99.309 55.5682 83.4686 57.1012C76.6981 57.7399 70.0554 59.1451 63.2849 59.2728C58.9416 59.4006 56.2589 57.7399 54.726 53.7798C53.8318 51.6081 52.9376 49.4365 51.7879 47.3925C51.5324 47.0093 51.2769 46.7538 51.0214 46.3706C49.1052 45.9873 49.6162 47.3925 49.6162 48.2867C49.4884 50.5862 49.6162 53.0133 49.4884 55.3127C49.3607 60.0393 48.722 60.5503 43.9954 60.167C43.2289 60.167 42.4625 60.167 41.8237 60.5503C39.9076 60.4225 39.3966 59.5283 39.9076 57.6121C40.4186 55.696 40.8018 53.652 41.185 51.7359C41.8237 49.6919 42.3347 47.5203 42.9735 45.4764C43.6122 43.6879 44.1232 41.8995 44.7619 40.1111C48.5942 31.5521 51.6601 22.61 57.2809 14.9453C59.0693 12.5181 61.1132 10.8575 64.3069 11.7517C66.4785 13.2846 69.1612 12.7736 71.5883 13.2846C72.0993 13.2846 72.738 13.4124 73.249 13.4124C77.9756 15.584 83.2131 15.7118 88.3229 17.117Z" fill="#A8CD97"/>
<path d="M71.3329 13.5403C68.778 13.4126 65.9676 14.69 64.0514 12.0074C64.6901 12.0074 65.3288 11.8796 65.8398 11.8796C67.5005 13.2848 69.7999 12.2629 71.3329 13.5403Z" fill="#82AA6D"/>
<path d="M20.7463 91.9761C23.4289 92.998 25.2174 94.6587 25.9838 97.4691C24.7064 98.3633 24.3232 100.28 22.2792 100.152C20.4908 98.3633 18.7024 96.5749 16.9139 94.7865C17.5527 92.998 20.6185 94.531 20.7463 91.9761Z" fill="#262625"/>
<path d="M22.2786 100.151C23.4283 99.1295 23.4283 96.5746 25.9832 97.4688C26.4942 97.7243 27.0051 97.9798 27.6439 98.2353C29.8155 102.706 25.2167 100.407 24.1947 101.812C23.045 101.684 22.5341 100.918 22.2786 100.151Z" fill="#696870"/>
<path d="M24.0667 101.812C24.8331 100.279 28.5377 101.684 27.5158 98.2351C29.3042 98.8738 29.6874 100.407 30.3262 102.067C28.2822 101.94 26.1106 101.94 24.0667 101.812Z" fill="#3A2F30"/>
<path d="M13.3367 90.1873C14.6141 90.1873 15.8916 90.1873 16.2748 91.7202C16.5303 92.7422 15.6361 92.7422 15.1251 92.9977C14.3586 92.1034 12.6979 91.8479 13.3367 90.1873Z" fill="#424442"/>
<path d="M49.6161 134.643C47.3167 136.814 45.0172 138.986 42.8456 141.03C40.9294 140.263 39.3965 138.858 37.8635 137.453C36.0751 135.92 36.3306 134.515 37.7358 132.982C37.7358 132.343 37.8635 131.832 38.2468 131.321C44.634 125.062 50.5103 118.291 57.5363 112.543C59.9634 111.776 61.3686 109.732 62.9015 107.944C63.2848 107.688 63.668 107.561 64.0513 107.433C65.4564 107.561 65.8397 108.455 66.0952 109.605C66.2229 110.499 66.2229 111.393 65.9674 112.287C65.3287 114.203 64.179 115.736 63.0293 117.269C59.9634 124.295 54.9814 129.533 49.6161 134.643Z" fill="#F7AF07"/>
<path d="M57.9196 113.309C51.1492 119.824 44.3787 126.467 37.6082 132.982C36.8417 132.982 36.0752 132.854 35.4365 132.854C43.3567 124.934 51.1492 117.014 59.0693 108.966C59.3248 108.71 59.7081 108.327 59.9636 108.072C60.8578 106.794 63.2849 105.9 62.774 104.495C62.0075 102.579 59.7081 103.856 58.0474 103.601C57.4087 103.473 56.8977 103.601 56.259 103.473C56.1312 102.579 56.7699 102.195 57.4087 101.94C59.5803 101.429 61.6243 101.429 63.7959 102.195C64.9456 102.834 65.2011 103.984 65.4566 105.133C65.7121 106.794 64.4346 107.433 63.2849 108.199C61.752 110.116 59.9636 111.904 57.9196 113.309Z" fill="#504533"/>
<path d="M156.667 49.3089C156.667 49.0535 156.667 48.798 156.667 48.5425C159.222 48.5425 161.905 48.5425 164.46 48.5425C164.46 48.798 164.46 49.0535 164.46 49.3089C161.905 49.3089 159.35 49.3089 156.667 49.3089Z" fill="#363531"/>
<path d="M55.2371 139.114C55.8758 138.475 56.3868 137.964 57.0255 137.325C58.4307 138.603 58.1752 141.158 60.9856 141.413C66.8619 142.052 67.6284 141.669 68.5226 135.665C68.7781 133.621 69.0336 131.577 69.4168 129.533C69.6723 128.639 69.6723 126.978 71.4607 127.745C71.9717 131.321 71.5885 134.771 71.7162 137.07C71.333 134.643 72.4827 130.938 71.2052 127.361C69.0336 123.657 70.5665 119.952 71.7162 116.375C73.7601 116.631 73.7601 116.631 73.7601 119.569C73.5046 120.08 74.5266 119.952 74.2711 119.697C73.2492 118.802 74.2711 117.908 74.9098 117.78C76.4428 117.269 77.0815 118.291 76.9538 119.697C73.6324 127.489 74.5266 135.92 74.0156 144.096C73.7601 147.034 76.826 149.717 75.8041 153.038C73.7601 154.571 75.4208 155.976 75.9318 157.509C75.6763 160.703 77.0815 161.852 80.2751 161.725C96.6265 161.597 112.978 161.725 129.329 161.597C129.84 161.469 130.351 161.597 130.862 161.725C132.395 163.258 133.928 164.791 132.395 167.09C131.884 167.346 131.373 167.601 130.862 167.729C111.189 168.24 91.5167 167.856 71.844 167.856C70.5665 167.856 69.1613 167.729 68.1394 166.707C68.1394 166.579 68.0116 166.324 68.0116 166.196C68.1394 164.791 69.4168 163.513 68.7781 161.852C71.0775 158.148 70.5665 154.188 70.1833 150.228C69.9278 147.673 68.0116 146.523 65.5845 146.268C63.285 146.012 60.8579 146.395 58.5585 145.757C57.0255 144.99 55.4926 144.479 54.3429 143.202C53.1932 141.797 53.1932 140.136 55.2371 139.114Z" fill="#4E5F43"/>
<path d="M71.3328 127.617C69.9276 131.321 69.7999 135.281 69.5444 139.241C69.4167 141.924 69.1612 143.585 65.8398 142.691C64.6901 142.435 63.4127 142.435 62.2629 142.691C57.9196 143.457 56.3867 141.541 57.0254 137.453C57.6641 134.515 58.3029 131.577 58.9416 128.766C59.1971 125.445 60.8578 122.635 61.752 119.696C62.3907 118.419 63.2849 117.269 64.1791 116.12C67.1173 111.904 68.5225 112.032 71.8438 116.375C72.738 119.952 70.3109 123.784 71.3328 127.617Z" fill="#87B271"/>
<path d="M51.6601 147.928C49.4885 147.417 48.211 145.373 46.2948 144.607C43.9954 143.329 45.2729 141.924 46.4226 140.774C48.9775 137.964 51.6601 135.281 54.215 132.471C55.748 133.493 55.1093 134.643 55.237 135.537C54.215 138.603 53.7041 141.669 54.0873 144.734C53.9595 145.501 53.4486 145.884 52.8098 146.267C52.4266 146.778 52.0434 147.417 51.6601 147.928Z" fill="#8090A2"/>
<path d="M62.5174 119.824C62.2619 123.146 60.4734 125.828 58.9405 128.639C58.5573 126.339 57.663 127.489 56.7688 128.255C54.3417 130.299 52.681 133.238 49.6151 134.515C49.8706 134.004 49.9983 133.365 50.5093 132.982C56.1301 128.639 58.8127 122.251 62.2619 116.503C63.2838 117.653 62.9006 118.675 62.5174 119.824Z" fill="#5B5624"/>
<path d="M53.4481 145.373C53.9591 142.052 52.5539 138.475 55.2365 135.537C55.2365 136.814 55.3643 137.964 55.3643 139.241C54.4701 140.647 54.3423 142.18 54.4701 143.713C54.8533 144.735 54.9811 145.501 53.4481 145.373Z" fill="#535B62"/>
<path d="M88.3239 17.1171C83.0863 16.8616 77.8488 16.2229 73.1222 13.668C76.0603 14.0512 78.9985 15.5841 81.9366 13.668C83.0863 16.4784 85.769 16.0951 88.1961 16.3506C88.1961 16.7338 88.1961 16.8616 88.3239 17.1171Z" fill="#82AA6D"/>
<path d="M51.7879 45.732C54.2151 48.6702 55.237 52.247 56.77 55.5684C57.9197 57.8678 59.1971 58.6343 61.4965 58.3788C71.2051 57.3568 80.786 56.2071 90.4946 55.1852C103.908 53.78 117.449 52.3748 130.862 50.9696C132.523 50.8418 134.439 49.5644 135.461 51.9915C130.479 54.0355 125.114 52.8858 120.004 54.1632C117.321 55.0574 114.511 54.9297 111.7 54.9297C106.591 55.0574 101.608 57.6123 96.7541 55.9516C99.5645 57.4846 99.82 60.1672 98.4148 63.2331C98.0316 63.6163 97.6484 63.7441 97.1374 63.4886C96.1154 59.0175 93.1773 58.6343 89.3449 59.784C86.5345 60.6782 83.4687 60.1672 80.5305 60.4227C75.804 60.9337 73.6323 64.3828 75.293 68.8539C75.804 70.1313 76.6982 70.2591 77.7201 70.3868C79.2531 70.6423 81.0415 70.2591 82.0635 71.9198C79.8918 74.9856 76.8259 73.9637 74.1433 73.1972C71.5884 72.5585 71.9716 70.0036 71.8439 67.9597C71.5884 65.4048 73.1213 62.0834 71.0774 60.4227C69.4167 59.1453 66.2231 60.4227 63.7959 60.295C61.4965 60.1672 59.1971 60.4227 56.8977 61.1892C54.5983 60.9337 54.3428 58.6343 53.0654 57.2291C52.4266 65.4048 53.8318 73.7082 52.2989 81.7561C51.2769 83.0336 50.255 82.3949 49.233 81.8839C48.3388 81.2451 47.5723 80.4787 47.0613 79.4567C46.9336 78.0515 48.5943 77.5405 48.5943 76.1353C48.8498 73.0695 48.4665 70.0036 48.722 66.9377C49.1053 63.6163 48.211 61.4447 44.6342 60.8059C43.6122 60.6782 42.5903 60.6782 41.696 60.5505C48.211 58.8898 48.211 58.8898 48.211 51.2251C48.211 49.4366 48.211 47.6482 48.211 45.9875C48.211 44.8378 48.8498 43.9436 49.9995 43.9436C51.2769 43.9436 51.7879 44.5823 51.7879 45.732C51.5324 45.9875 51.2769 46.3708 51.0214 46.754C51.4047 46.4985 51.2769 45.8598 51.7879 45.732Z" fill="#666750"/>
<path d="M44.7617 60.9337C49.616 59.6563 50.5102 61.9557 50.1269 66.299C49.7437 70.1314 49.9992 73.9637 49.9992 77.7961C48.8495 78.5625 47.572 78.5625 46.4223 77.9238C46.4223 74.2192 46.4223 70.5146 46.5501 66.9377C46.5501 65.2771 46.5501 63.6164 44.7617 62.7221C44.6339 62.5944 44.5062 62.3389 44.3784 62.2112C44.3784 61.7002 44.5062 61.317 44.7617 60.9337Z" fill="#1A3439"/>
<path d="M30.3269 78.5624C30.3269 78.3069 30.3269 78.0514 30.1991 77.7959C29.5604 74.6023 31.3488 75.241 33.1373 76.0075C33.6482 76.6462 34.1592 77.2849 34.7979 77.9237C36.7141 80.0953 38.1193 82.778 40.9297 84.0554C41.1852 84.3109 41.5684 84.6941 41.8239 84.9496C43.4846 85.5884 44.5066 86.8658 45.0175 88.5265C45.1453 88.9097 45.0175 89.4207 45.0175 89.804C44.6343 90.3149 44.3788 90.8259 43.6123 90.3149C41.8239 88.782 40.1632 87.3768 38.3748 85.8438C36.8419 83.7999 35.1812 81.8838 33.0095 80.4786C32.4985 79.2011 31.6043 78.6901 30.3269 78.5624Z" fill="#6C2815"/>
<path d="M33.2647 75.8802C31.9873 75.8802 30.4543 75.7524 30.3266 77.6686C29.8156 77.0299 29.1769 76.5189 28.6659 75.8802C28.9214 75.2415 29.3046 74.7305 29.5601 74.0918C31.0931 74.0918 32.7537 73.7085 33.2647 75.8802Z" fill="#3E2927"/>
<path d="M57.9192 145.373C60.7296 145.501 63.54 145.629 66.3504 145.629C69.544 145.629 71.5879 147.289 71.3324 150.483C71.0769 154.826 73.3763 159.808 68.522 163.13C68.2665 163.385 68.0111 163.513 67.6278 163.258C63.54 162.491 58.9412 164.535 55.1088 161.469C53.5759 159.936 53.5759 158.148 53.4481 156.232C54.4701 153.038 52.9371 149.589 54.5978 146.395C55.492 145.373 56.6417 144.99 57.9192 145.373Z" fill="#ECD2B8"/>
<path d="M57.9192 145.374C57.1528 145.757 56.3863 146.14 55.4921 146.523C54.7256 146.523 54.3424 147.801 53.4482 147.034C53.1927 146.779 52.9372 146.523 52.8094 146.268C53.0649 146.012 53.1927 145.629 53.4482 145.374C54.2146 145.118 54.3424 144.352 54.4701 143.713C56.0031 143.457 57.2805 143.841 57.9192 145.374Z" fill="#2F302C"/>
<path d="M53.4481 147.034C54.0868 146.906 54.8533 146.651 55.492 146.523C53.0649 149.333 54.7256 153.038 53.5759 156.232C53.5759 153.166 53.4481 150.1 53.4481 147.034Z" fill="#535B62"/>
<path d="M26.8783 86.4827C28.2834 87.7601 29.6886 89.1653 31.0938 90.4428C30.4551 90.9537 29.8164 91.5925 29.1777 92.1034C28.7944 92.9977 28.5389 93.8919 28.1557 95.0416C25.8563 93.5086 24.3234 91.7202 23.3014 89.2931C25.7285 90.0595 25.6008 87.3769 26.8783 86.4827Z" fill="#272423"/>
<path d="M21.5124 88.3988C20.4904 88.5266 19.7239 86.6104 19.0852 87.5046C18.0633 88.9098 20.2349 89.8041 20.4904 91.2092C18.3187 90.5705 16.1471 89.8041 17.169 86.7382C19.3407 85.4607 21.2569 84.6942 21.5124 88.3988Z" fill="#442422"/>
<path d="M22.4064 88.399C22.5341 87.377 21.5122 85.9718 23.0451 85.4608C23.8116 85.2053 24.1948 86.2273 24.4503 86.866C24.9613 88.7822 23.4283 88.2712 22.4064 88.399Z" fill="#848B90"/>
<path d="M44.762 88.399C43.74 87.2493 42.8458 85.9719 41.8239 84.8222C44.5065 84.0557 42.8458 80.8621 44.6342 79.7124C45.1452 79.0737 45.6562 78.4349 46.1672 77.7962C47.3169 77.7962 48.5943 77.7962 49.744 77.6685C49.3608 78.9459 47.7001 78.4349 47.0614 79.3291C46.0394 82.2673 46.1672 85.5886 44.762 88.399Z" fill="#4D3D28"/>
<path d="M67.7564 163.258C68.0119 163.13 68.2674 163.13 68.6506 163.13C69.4171 163.385 70.6946 162.747 70.9501 163.896C71.2055 164.918 70.0558 164.791 69.5449 165.174C68.9061 165.557 68.3952 166.068 67.8842 166.451C67.3732 166.451 66.8622 166.451 66.3512 166.451C64.6905 164.535 66.479 164.024 67.7564 163.258Z" fill="#2A3023"/>
<path d="M135.461 51.7364C134.056 50.5867 132.395 51.3532 130.862 50.9699C138.144 48.7983 145.68 49.3093 153.09 48.415C153.09 48.6705 153.09 48.926 153.09 49.1815C149.896 49.5647 146.575 49.8202 143.381 50.2035C142.231 51.3532 140.443 51.0977 139.038 51.7364C137.888 52.1196 136.611 53.1416 135.461 51.7364Z" fill="#7C8779"/>
<path d="M130.863 162.363C130.479 162.363 130.096 162.363 129.841 162.491C128.308 162.491 127.541 161.724 127.03 160.447C127.158 159.553 127.541 158.914 128.435 158.531C129.713 158.148 131.246 160.064 132.012 158.531C132.906 156.87 131.501 155.465 130.224 154.443C121.665 147.417 113.106 140.391 104.419 133.621C94.9662 125.956 85.7685 118.036 76.1877 110.626C75.4212 109.988 74.527 109.349 74.6547 108.072C75.9322 107.305 77.5929 106.922 78.6148 105.644C80.1478 105.006 81.553 105.644 82.8304 106.155C84.1079 106.794 85.6408 106.794 86.4073 108.199C86.024 109.988 84.1079 109.221 83.3414 110.371C85.3853 112.159 87.046 114.076 89.3454 115.481C97.5211 122.379 106.208 128.638 114.256 135.537C116.3 137.197 118.471 138.73 120.515 140.263C123.198 142.563 126.136 144.734 128.563 147.289C129.968 148.056 130.224 145.629 131.757 146.395C132.395 148.056 132.14 150.1 133.545 151.633C137.25 155.72 136.228 160.575 135.461 165.301C135.078 165.174 134.695 165.046 134.439 164.918C133.162 164.152 131.629 163.641 130.863 162.363Z" fill="#575028"/>
<path d="M133.672 151.633C131.628 150.866 131.756 148.95 131.756 147.162C130.479 147.8 130.479 152.399 128.179 148.184C128.818 145.629 126.774 143.457 127.03 140.902C126.774 139.242 126.135 137.581 126.774 135.792C127.285 134.643 128.179 133.876 129.073 133.11C133.034 129.788 134.439 125.828 131.884 120.974C131.373 120.08 130.99 119.058 131.628 118.036C133.928 117.142 134.311 119.569 135.461 120.463C134.822 118.93 135.588 118.164 136.866 117.397C138.143 116.886 139.549 117.142 140.826 117.653C145.169 119.569 149.896 120.335 154.495 121.23C155.9 121.485 157.561 121.357 157.944 123.401C156.922 124.168 155.644 123.784 153.6 123.784C157.433 124.168 161.137 121.996 163.054 126.084C163.692 126.978 164.203 127.872 164.842 128.766C159.221 123.529 151.429 126.723 145.297 123.657C144.914 123.529 144.403 123.529 144.02 123.401C141.976 123.018 140.059 120.846 138.271 121.868C136.355 123.018 138.143 125.701 137.632 127.617C136.866 130.427 135.716 133.11 133.417 134.771C130.223 136.942 130.606 139.497 131.501 142.563C132.012 145.373 132.778 148.567 133.672 151.633Z" fill="#5C6F54"/>
<path d="M131.884 166.707C132.14 166.707 132.523 166.707 132.779 166.579C133.162 165.429 133.8 164.535 135.206 164.535C135.333 164.79 135.461 165.046 135.461 165.301C135.461 167.601 135.333 169.772 135.333 172.072C134.695 172.966 134.184 173.86 133.545 174.755C131.501 172.455 130.99 169.772 131.884 166.707Z" fill="#626A5A"/>
<path d="M131.885 166.707C132.524 169.39 133.035 172.072 133.673 174.755C131.629 175.777 129.585 176.671 128.436 173.605C126.392 168.112 121.665 170.923 118.088 170.539C114.639 170.156 114.512 173.094 113.873 175.394C110.807 175.394 107.23 176.671 106.464 171.689C106.208 170.028 104.036 170.156 102.631 170.284C98.6712 170.667 93.8169 168.368 92.0284 174.627C91.5175 176.288 86.1522 175.905 85.8967 174.116C85.3857 169.517 82.1921 170.156 79.3817 170.284C77.21 170.412 74.9106 169.517 72.9944 171.05C72.4834 171.434 71.717 171.689 71.717 172.072C71.5892 177.054 69.0343 176.032 66.0962 174.499C68.1401 172.328 67.5014 169.39 67.8846 166.835C73.5054 166.068 78.9984 166.579 84.6192 166.579C100.332 166.579 116.172 166.707 131.885 166.707Z" fill="#A9CE98"/>
<path d="M127.924 181.908C124.603 181.908 121.409 177.565 122.303 174.755C122.559 174.116 123.07 173.86 123.581 173.86C124.603 173.86 125.241 174.371 125.369 175.393C125.625 177.309 126.519 178.715 128.563 179.098C129.712 179.353 131.756 178.715 131.501 180.759C131.118 182.675 129.074 181.525 127.924 181.908Z" fill="#89B576"/>
<path d="M78.6137 174.116C78.1027 176.032 77.464 177.565 77.2085 179.098C76.442 183.441 73.2484 181.908 70.6935 181.781C70.0547 181.781 69.6715 181.142 69.6715 180.503C69.6715 179.865 69.927 179.226 70.5657 179.226C73.3761 179.098 74.6536 177.565 75.1645 174.755C75.2923 173.094 77.0807 173.861 78.6137 174.116Z" fill="#8FBB77"/>
<path d="M153.09 65.4051C153.601 67.96 155.772 69.2374 157.433 70.8981C160.371 74.475 163.437 77.9241 166.375 81.5009C169.058 87.2495 171.996 92.7425 173.273 99.1298C173.657 101.301 173.657 103.473 173.784 105.645C173.912 107.689 172.635 108.2 170.974 108.2C169.824 105.9 170.463 103.345 169.952 101.046C167.397 97.7246 167.653 93.509 165.609 90.0599C164.459 88.1437 163.565 86.0998 162.287 84.3113C159.988 80.99 157.816 77.6686 154.367 75.2414C153.345 74.475 152.323 73.7085 151.684 72.6865C151.046 71.7923 150.535 70.7704 150.024 69.7484C148.108 66.2993 145.808 62.8502 145.936 58.7623C146.064 56.4629 146.575 54.5467 149.64 55.5687C150.279 58.8901 150.662 62.4669 153.09 65.4051Z" fill="#DA4709"/>
<path d="M168.291 107.944C168.036 108.072 167.78 108.072 167.397 108.199C165.608 109.605 163.564 109.221 161.521 109.349C155.644 109.477 149.896 108.966 144.019 109.732C139.037 110.116 134.311 109.86 129.712 107.688C129.329 107.433 129.073 107.05 128.818 106.666C128.946 104.75 126.646 105.389 126.007 104.112C127.285 100.535 130.095 99.6404 133.544 99.7682C134.183 100.151 134.566 100.662 134.822 101.301C134.694 103.984 136.738 103.728 138.526 104.112C146.702 105.389 154.878 106.283 163.309 105.9C164.97 105.772 166.63 105.772 168.036 106.666C168.547 107.05 168.547 107.433 168.291 107.944Z" fill="#5C6F54"/>
<path d="M168.291 107.944C168.291 107.688 168.291 107.433 168.291 107.177C167.397 106.283 167.142 105.134 167.014 103.984C166.375 97.3411 163.437 91.3371 161.138 85.2053C161.265 84.1833 161.393 83.1614 162.671 83.1614C166.631 88.5267 169.058 94.4029 169.824 100.918C168.036 102.962 170.463 106.028 168.291 107.944Z" fill="#5F3529"/>
<path d="M168.292 117.78C163.437 118.93 163.054 118.547 162.926 111.521C162.671 109.605 163.821 108.711 165.354 108.583C167.397 108.455 168.292 110.116 169.058 111.776C168.675 113.82 169.314 115.864 168.292 117.78Z" fill="#CCBAA1"/>
<path d="M169.058 111.777C167.142 109.349 165.098 107.689 162.799 111.521H162.415H162.032C158.2 109.477 154.112 110.244 150.152 110.116C148.236 109.988 146.32 110.244 144.531 109.733C144.02 109.605 143.637 109.222 143.254 108.838C145.681 107.05 148.363 108.072 150.918 108.072C156.411 107.944 161.904 108.072 167.397 108.2C168.036 109.349 169.441 110.244 169.058 111.777Z" fill="#3B4435"/>
<path d="M144.275 108.966C148.746 108.966 153.218 109.094 157.816 108.838C159.988 108.71 161.393 109.477 162.16 111.521C162.16 115.098 162.16 118.674 162.16 122.251C161.393 122.89 160.754 122.762 160.116 122.123C158.966 120.335 159.222 118.163 159.094 116.119C158.838 111.648 158.455 111.265 153.856 111.137C151.812 111.137 149.768 111.265 147.725 111.01C146.192 110.754 144.531 111.01 144.275 108.966Z" fill="#5C6F54"/>
<path d="M168.292 126.722C166.887 126.722 165.609 126.595 164.715 125.445C163.821 124.551 163.438 123.401 163.949 122.251C164.46 121.229 165.354 121.485 166.248 121.485C167.781 121.485 168.292 122.251 168.292 123.657C168.292 124.679 168.292 125.701 168.292 126.722Z" fill="#C5A488"/>
<path d="M160.116 122.124C160.754 122.124 161.393 122.251 162.032 122.251C162.671 123.401 163.054 124.551 162.926 125.828C159.988 123.529 156.539 124.04 152.579 124.04C154.495 122.634 156.156 123.529 157.561 123.018C158.327 122.251 159.094 121.868 160.116 122.124Z" fill="#3E4834"/>
<path d="M57.0252 102.579C56.7697 102.834 56.5142 103.09 56.2587 103.345C52.9373 106.411 49.7437 109.349 46.4223 112.415C46.0391 111.649 45.4004 111.521 44.6339 111.521C44.6339 111.265 44.6339 111.01 44.6339 110.627C48.4663 110.754 49.4882 107.177 51.7876 105.389C53.0651 104.495 53.8316 103.345 53.7038 101.684C54.3425 100.407 55.2367 99.896 56.5142 100.535C57.4084 100.918 57.6639 101.684 57.0252 102.579Z" fill="#2E3A39"/>
<path d="M41.9514 112.543C41.8236 113.948 42.8456 115.992 40.1629 116.12C41.1849 114.714 41.0571 113.565 39.6519 112.415C38.5022 111.393 37.608 109.988 36.5861 108.838C39.0132 108.966 39.7797 111.776 41.9514 112.543Z" fill="#748392"/>
<path d="M43.6121 90.1874C43.9953 89.8041 44.3785 89.2931 44.7618 88.9099C47.0612 88.9099 48.4664 89.9319 48.8496 92.359C48.5941 93.7642 47.9554 94.6584 46.4225 93.892C46.167 93.6365 45.7837 93.2532 45.5282 92.9978C44.7618 91.9758 44.123 91.0816 43.6121 90.1874Z" fill="#2A2727"/>
<path d="M46.2953 93.892C47.445 93.7642 48.2115 93.2532 48.2115 91.9758C49.2334 91.3371 49.8721 91.7203 50.3831 92.4868C50.5109 92.87 50.6386 93.2533 50.7664 93.7642C50.7664 94.403 50.6386 95.0417 50.3831 95.6804C49.8721 96.8301 48.3392 98.1076 50.7664 98.874C51.7883 99.1295 52.8103 99.1295 53.7045 99.896C53.8322 100.279 53.8322 100.662 53.5768 101.046C52.2993 101.046 50.8941 100.407 49.9999 101.812C47.7005 102.195 46.2953 101.429 46.5508 98.7463C46.423 97.0856 46.2953 95.4249 46.2953 93.892Z" fill="#2E3A39"/>
<path d="M53.4482 101.046C53.4482 100.662 53.4482 100.407 53.4482 100.024C51.7875 97.7243 52.2985 95.5527 54.0869 93.6365C54.9811 92.9978 55.8754 92.9978 56.8973 93.5087C57.2806 98.874 57.2806 98.874 63.2846 98.874C65.584 98.874 68.0111 98.6185 70.3105 99.2573C70.6938 99.385 71.077 99.6405 71.4602 100.024C71.8435 101.301 71.4602 102.195 70.566 103.09C68.3944 103.601 66.3504 103.345 64.1788 102.834C61.7516 102.834 59.4522 102.834 57.0251 102.706C56.5141 99.896 54.9811 101.301 53.7037 101.812C53.4482 101.557 53.4482 101.301 53.4482 101.046Z" fill="#273C3F"/>
<path d="M149.513 55.4409C146.831 55.1854 146.703 56.8461 146.831 58.89C146.958 63.1056 149.641 66.1715 151.174 69.8761C150.663 70.3871 150.024 70.3871 149.385 70.1316C147.086 68.4709 146.703 65.2773 144.403 63.6166C143.509 62.4669 143.126 61.0617 143.126 59.6565C143.381 57.868 142.36 55.5686 144.914 54.6744C146.447 54.9299 148.236 53.908 149.513 55.4409Z" fill="#783B23"/>
<path d="M149.001 52.247C153.345 51.225 155.389 52.1192 155.005 56.3348C154.878 57.1013 155.261 58.1233 155.772 58.762C156.538 59.7839 157.305 60.8059 155.516 61.4446C154.111 61.9556 153.473 61.0614 152.962 59.7839C152.067 57.229 152.195 54.1632 149.001 52.247Z" fill="#315561"/>
<path d="M138.654 50.9699C140.06 49.8202 141.72 50.3312 143.381 50.3312C143.636 50.9699 143.892 51.4809 144.147 52.1196C142.87 54.5468 143.509 57.2294 143.253 59.7843C143.125 61.3172 143.892 63.1057 141.72 63.8721C141.082 63.4889 140.698 62.8502 140.571 62.0837C140.443 58.2514 139.676 54.5468 138.654 50.9699Z" fill="#3C413A"/>
<path d="M141.72 63.7438C143.508 61.1889 141.975 58.3785 142.486 55.6958C142.742 54.2906 141.592 52.2467 144.275 51.9912C144.53 52.8854 144.786 53.6519 145.041 54.5461C143.636 56.2068 144.914 58.2507 144.275 59.9114C142.997 61.1889 144.914 63.3605 143.253 64.5102C142.87 64.638 142.486 64.638 141.975 64.638C141.72 64.5102 141.592 64.2547 141.592 63.9992C141.592 63.8715 141.592 63.7438 141.72 63.7438Z" fill="#B5A28E"/>
<path d="M62.5188 119.824C62.3911 118.802 62.3911 117.653 62.2633 116.631C63.1575 115.226 64.1795 113.82 65.0737 112.543C66.2234 111.393 67.8841 111.393 69.2893 111.138C74.7823 112.16 77.7205 116.886 81.8083 119.824C87.3013 123.784 92.6666 128 97.2654 133.11C98.7984 134.643 100.204 136.303 102.12 137.453C102.503 137.709 102.758 137.836 103.142 138.092C105.569 140.008 107.996 142.052 110.551 143.968C111.828 144.99 113.234 145.757 114.383 146.779C116.044 148.439 117.705 149.844 119.11 151.633C119.876 153.294 120.132 154.571 117.705 154.699C112.723 150.1 107.485 145.757 101.992 141.796C99.5648 140.264 97.7764 137.964 95.3493 136.559C89.473 131.96 83.7245 127.106 77.8482 122.379C77.0817 121.741 76.1875 121.102 76.443 119.824C74.5268 116.247 74.2713 119.952 73.2494 120.591C72.2274 119.313 73.8881 117.142 71.7164 116.247C65.9679 110.371 65.3292 117.78 62.5188 119.824Z" fill="#58542A"/>
<path d="M69.5444 111.776C68.2669 112.926 66.6062 112.287 65.201 112.543C65.201 111.648 65.201 110.754 65.201 109.86C65.5843 109.477 65.712 108.71 66.3508 108.583C67.7559 108.327 68.5224 109.349 69.4166 110.243C69.6721 110.627 70.0554 111.137 69.5444 111.776Z" fill="#392C0B"/>
<path d="M66.0954 109.094C65.7122 109.349 65.329 109.605 65.0735 109.86C65.0735 108.71 64.4347 108.072 63.285 108.072C63.9238 107.178 64.4347 106.283 65.0735 105.389C65.7122 104.112 66.7341 103.728 68.0116 104.367C69.289 106.667 67.5006 107.816 66.0954 109.094Z" fill="#D9A20B"/>
<path d="M57.9196 113.309C59.3248 111.137 61.1132 109.349 63.2848 107.944C62.5184 110.754 60.7299 112.543 57.9196 113.309Z" fill="#D9A20B"/>
<path d="M67.5005 104.622C66.6063 104.878 65.8398 105.133 64.9456 105.389C63.9236 104.75 64.1791 103.728 64.0514 102.834C66.2231 101.173 68.267 102.451 70.4386 102.834C72.2271 103.217 71.9716 104.367 71.4606 105.644C69.9277 106.539 68.778 105.389 67.5005 104.622Z" fill="#2E3A39"/>
<path d="M102.376 140.902C106.719 144.223 111.19 147.672 115.533 150.994C116.555 151.76 117.577 152.654 117.577 154.187C116.172 155.72 114.384 155.465 112.595 155.465C101.737 155.465 90.7508 155.465 79.8925 155.465C78.104 155.465 76.3156 155.72 74.9104 154.187C71.8445 143.712 72.2278 133.237 74.3994 122.762C74.6549 121.485 74.0162 119.441 76.4434 119.696C82.9584 125.061 89.4733 130.427 95.9883 135.792C96.8826 138.091 95.0941 138.091 93.6889 138.091C89.8566 137.836 86.0242 137.58 83.0861 134.387C85.7687 140.263 91.134 140.008 96.2438 140.135C98.4155 140.263 100.459 140.008 102.376 140.902Z" fill="#A7CC96"/>
<path d="M127.413 160.447C128.18 161.086 129.074 161.725 129.84 162.363C128.563 163.769 126.774 163.13 125.241 163.13C109.657 163.13 94.0716 163.13 78.6145 163.13C75.8041 163.13 71.5885 164.152 74.7821 158.786C75.1654 158.02 75.0376 156.998 75.1654 156.232C76.4428 154.699 78.1035 155.21 79.7642 155.21C93.1774 155.082 106.718 155.465 120.132 154.954C123.836 154.954 126.008 157.126 127.413 160.447Z" fill="#86B371"/>
<path d="M127.413 160.447C123.964 156.615 119.62 155.976 114.638 156.104C101.481 156.487 88.3228 156.232 75.0373 156.232C74.1431 156.232 72.9934 156.998 72.9934 155.21C72.9934 153.421 74.1431 154.188 75.0373 154.188C89.217 154.188 103.397 154.188 117.576 154.316C119.876 154.06 118.854 152.783 118.471 151.761C118.726 151.505 119.109 151.25 119.62 151.25C123.453 152.655 126.774 154.699 128.435 158.659C128.052 159.17 127.668 159.809 127.413 160.447Z" fill="#39482D"/>
<path d="M71.3329 127.617C72.9936 131.321 71.9716 135.026 71.3329 138.858C71.3329 135.154 71.3329 131.449 71.3329 127.617Z" fill="#1D2A1E"/>
<path d="M135.205 164.535C134.439 165.173 133.545 165.94 132.778 166.579C132.012 165.173 130.99 163.896 130.862 162.235C132.012 163.513 134.567 162.235 135.205 164.535Z" fill="#2D2F1D"/>
<path d="M51.7883 82.1396C51.7883 72.5588 51.7883 62.9779 51.7883 52.2473C54.3432 55.6964 54.4709 59.1455 56.8981 61.0617C60.8582 65.5328 62.2634 71.2813 65.0738 76.2634C66.3512 79.457 66.0957 82.2674 63.5408 84.6946C61.1137 86.8662 58.3033 87.3772 55.3651 86.3552C53.449 85.7165 51.2773 84.95 51.7883 82.1396Z" fill="#F0D6BB"/>
<path d="M63.285 59.1455C66.6064 59.0178 69.9278 58.7623 73.2491 58.6345C73.1214 61.8281 72.9937 65.0218 72.9937 68.0876C72.9937 72.942 75.6763 73.9639 81.9358 71.5368C81.9358 70.7703 82.319 70.1316 82.83 69.4928C85.7682 66.9379 88.9618 67.1934 92.2831 68.4709C93.8161 69.1096 95.2213 70.1316 94.5826 72.1755C94.0716 72.6865 93.4329 72.942 92.6664 73.0697C90.1115 73.0697 87.4288 72.1755 84.8739 73.3252C83.4688 73.8362 82.4468 75.2414 81.2971 74.9859C85.5127 74.0917 90.7502 76.2633 94.8381 72.0477C95.349 72.1755 95.7323 72.431 95.9878 72.942C96.4987 77.0298 95.4768 78.5627 91.6444 78.8182C87.5566 79.2015 83.341 79.0737 79.2532 78.946C76.1873 78.8182 75.0376 80.0957 75.1653 83.1616C75.2931 88.2714 75.1653 93.5089 75.1653 98.6187C75.1653 100.407 75.2931 102.196 74.5266 103.856C71.8439 104.495 71.7162 104.495 71.2052 100.152L71.0775 100.024C69.4168 98.1077 69.8 95.8083 69.8 93.6367C69.5445 83.4171 70.0555 73.1974 69.5445 62.9778C69.0336 61.4449 67.7561 61.3172 66.4787 61.1894C65.2012 60.9339 63.4128 61.3172 63.285 59.1455Z" fill="#2E3A39"/>
<path d="M51.7884 82.1396C54.0878 85.461 57.0259 87.2494 61.1138 85.2055C65.2016 83.1616 65.3293 79.8402 64.0519 76.0079C65.0739 75.4969 65.7126 76.0079 66.3513 76.6466C66.6068 77.0298 66.7345 77.4131 66.8623 77.7963C67.1178 79.5847 67.2455 81.2454 66.8623 83.0339C64.9461 86.8662 61.497 89.4211 59.4531 92.998C59.0698 93.7644 58.1756 94.1477 57.1537 93.7644C56.2594 93.7644 55.2375 93.7644 54.3433 93.7644C52.9381 94.9141 51.5329 94.9141 49.9999 93.7644C49.9999 93.5089 49.9999 93.1257 49.9999 92.8702C51.5329 91.0818 54.0878 92.1038 56.2595 90.1876C53.96 90.954 52.1716 91.3373 50.5109 90.5708C48.8502 89.8043 47.445 88.6546 46.9341 86.8662C46.2953 84.5668 46.0398 82.1396 49.1057 81.1177C49.8722 81.5009 50.8942 81.8841 51.7884 82.1396Z" fill="#313835"/>
<path d="M82.8295 70.6423C82.5741 71.0256 82.3186 71.2811 82.0631 71.6643C81.8076 71.6643 81.4244 71.6643 81.1689 71.6643C74.6539 71.792 71.9712 67.8319 74.2706 61.7002C74.6539 60.5505 75.5481 60.1672 76.57 59.9118C82.5741 58.5066 88.8336 58.762 94.9653 57.8678C98.4144 57.3569 96.4983 61.5724 97.3925 63.3609C97.137 63.4886 97.0092 63.4886 96.7538 63.6164C94.7098 61.9557 92.4104 61.4447 89.8555 62.2112C87.5561 62.9776 85.2567 62.7221 82.8295 62.8499C80.5301 62.8499 78.3585 63.2331 77.9752 66.1713C77.592 69.2371 79.7637 69.3649 81.8076 69.8759C82.1908 70.0036 82.5741 70.2591 82.8295 70.6423Z" fill="#D0B095"/>
<path d="M65.9677 76.902C65.329 76.6465 64.6903 76.391 64.0515 76.0078C61.2412 71.1535 58.5585 66.4269 56.8978 61.0616C58.1753 57.6125 61.1134 59.6564 63.2851 59.1454C65.5845 61.3171 69.0336 58.5067 71.2053 61.0616C70.0556 61.9558 68.7781 61.9558 67.5007 62.0836C62.1354 62.5946 62.0076 62.9778 64.0515 67.9599C64.6903 69.4928 65.4567 70.898 66.0955 72.4309C66.7342 73.8361 67.3729 75.3691 65.9677 76.902Z" fill="#273C3F"/>
<path d="M48.9775 81.1176C46.9336 83.417 46.6781 85.9719 48.722 88.2713C50.6382 90.443 53.0654 90.5707 55.4925 88.91C56.5145 88.2713 57.9197 87.5048 58.5584 88.7823C59.1971 90.0597 57.6642 90.8262 56.77 91.4649C54.7261 92.8701 52.4266 93.1256 49.9995 92.7424C49.6163 91.9759 48.9775 91.8482 48.3388 91.7204C47.1891 90.6985 46.0394 89.6765 44.8897 88.7823C45.0174 88.6545 45.0174 88.3991 44.8897 88.2713C44.8897 85.0777 43.9955 81.5008 47.3168 79.2014C48.2111 79.5847 49.1053 79.9679 48.9775 81.1176Z" fill="#B7A756"/>
<path d="M138.654 50.9697C142.359 53.7801 140.953 57.9957 141.464 61.7003C140.953 61.9558 140.57 61.9558 140.187 61.5726C137.504 54.5466 136.482 54.0356 128.434 55.1853C125.368 55.6963 122.303 57.357 118.981 56.0795C118.343 55.5685 117.832 55.0576 118.726 54.4188C119.109 54.1633 119.364 53.2691 119.109 53.1414C124.474 52.6304 129.84 52.2472 135.205 51.7362C136.482 51.4807 137.632 51.2252 138.654 50.9697Z" fill="#213A3D"/>
<path d="M98.0314 63.4886C97.5205 60.8059 99.5644 57.2291 94.4546 55.9516C100.714 55.1852 106.079 54.5464 111.445 53.9077C112.339 54.4187 112.85 54.9297 112.083 55.9516C110.039 57.4846 107.485 57.3568 105.057 57.8678C103.013 58.251 101.097 58.762 100.586 61.3169C100.331 62.0834 99.9476 62.8499 99.1812 63.4886C98.7979 63.6163 98.4147 63.6163 98.0314 63.4886Z" fill="#253434"/>
<path d="M98.0316 63.4886C98.2871 63.6163 98.5426 63.744 98.7981 63.6163C99.0536 63.6163 99.3091 63.4886 99.5646 63.4886C104.419 63.1053 109.145 62.9776 114 63.6163C114.511 63.744 114.894 64.1273 115.149 64.5105C115.022 66.0435 113.872 66.5544 112.595 67.0654C109.018 67.7041 105.313 67.4486 101.609 67.3209C99.8201 67.1932 98.1594 66.6822 97.1374 65.0215C96.8819 64.5105 96.8819 63.9995 97.0097 63.4886L97.3929 63.3608C97.5207 63.4886 97.7762 63.4886 98.0316 63.4886Z" fill="#C0A086"/>
<path d="M112.212 55.5683C111.957 55.0573 111.701 54.4186 111.446 53.9076C114.128 53.6522 116.683 53.3967 119.366 53.0134C120.26 53.3967 121.154 53.6522 122.048 54.0354C121.026 55.0573 119.238 53.9076 118.472 55.4406C118.344 55.5683 118.216 55.6961 118.088 55.8238C117.705 55.9516 117.45 56.0793 117.066 56.0793C116.683 56.0793 116.3 56.0793 116.044 56.2071C114.256 56.718 115.917 60.4226 112.851 59.7839C111.957 58.5065 111.573 57.1013 112.212 55.5683Z" fill="#1B2424"/>
<path d="M86.9171 57.9956C83.5957 57.9956 80.1466 57.9956 76.8252 57.9956C76.8252 57.8679 76.8252 57.7401 76.8252 57.4846C80.2743 57.4846 83.8512 57.4846 87.3003 57.4846C87.1725 57.7401 87.0448 57.8679 86.9171 57.9956Z" fill="#2E3A39"/>
<path d="M51.7878 45.7322C51.9155 47.0096 52.0433 48.2871 52.171 49.5645C49.2329 48.0316 49.2329 47.7761 51.7878 45.7322Z" fill="#283023"/>
<path d="M133.673 100.407C130.862 101.046 128.18 102.068 126.264 104.24C126.008 104.751 125.625 105.134 125.242 105.389C119.876 108.072 114.128 109.094 108.124 109.222C104.419 109.222 100.715 108.966 97.01 109.222C92.0279 109.605 87.4291 108.455 82.8302 107.05C81.4251 106.667 79.8921 106.411 78.4869 106.028C77.0817 106.156 76.3153 105.389 75.8043 104.24C75.5488 101.174 75.8043 97.9802 75.6765 94.9143C75.6765 93.2536 75.5488 91.4652 77.9759 91.4652C79.6366 91.8484 80.6586 93.3813 81.936 94.2756C85.2574 96.575 89.7285 96.1917 92.5389 93.3813C94.8383 91.0819 94.455 88.527 92.9221 86.0999C90.8782 82.7785 87.0458 81.7565 83.2135 83.2895C81.1696 84.056 79.7644 86.2276 77.3372 86.2276C74.6546 84.5669 75.5488 82.1398 76.0598 79.8404C76.6985 77.2855 78.9979 78.3074 80.5308 78.3074C84.2354 78.1797 87.9401 78.1797 91.6447 78.3074C93.3053 78.3074 94.8383 78.0519 96.1157 76.7745C97.3932 73.8364 99.6926 72.9421 102.886 72.9421C110.551 73.0699 118.216 73.0699 125.88 72.9421C127.924 73.3254 127.286 77.03 130.224 76.519C135.589 76.6467 141.082 75.8803 146.447 77.03C148.491 80.3514 147.852 82.7785 144.148 86.6109C142.487 87.3773 141.721 85.9721 140.826 85.2057C139.294 83.9282 137.633 83.1617 135.717 82.7785C132.395 82.012 128.946 83.8005 127.669 86.8663C126.391 89.8045 127.541 92.6149 130.735 94.6588C132.268 95.6808 134.567 95.6808 134.95 98.1079C134.822 99.0021 134.439 99.7686 133.673 100.407Z" fill="#F3D8BD"/>
<path d="M131.629 117.908C136.483 126.084 134.567 130.81 127.413 135.665C125.88 138.092 121.154 139.242 117.577 137.964C116.427 137.581 115.15 137.198 114 136.559C105.696 129.788 97.393 123.018 88.9619 116.247C88.3231 112.926 91.0058 113.182 92.7942 113.054C97.393 112.798 101.864 112.798 106.463 112.926C112.85 113.182 119.11 112.671 125.114 110.371C128.307 110.116 128.18 113.309 129.713 114.842C130.479 115.736 131.629 116.503 131.629 117.908Z" fill="#A8CD97"/>
<path d="M128.308 158.531C125.625 155.848 122.687 153.549 119.493 151.505C117.194 150.611 116.044 148.311 114 147.162C112.85 146.267 111.701 145.373 110.551 144.479C107.868 142.307 105.186 140.136 102.503 138.092C100.331 137.07 99.054 134.898 97.01 133.748C88.8344 126.978 80.6587 120.207 72.483 113.565C71.5888 112.798 70.4391 112.415 69.4171 111.776C69.1616 111.393 68.7784 111.137 68.5229 110.754C68.3952 107.05 70.6946 106.283 73.7604 106.539C74.5269 106.794 75.0379 107.305 74.9101 108.072C81.5529 113.692 88.1956 119.313 94.9661 124.806C107.102 134.642 119.365 144.351 131.757 154.06C134.439 156.231 133.545 158.659 133.545 161.341C131.246 161.086 130.096 159.042 128.308 158.531Z" fill="#F6AF05"/>
<path d="M126.518 110.627C122.813 112.798 118.853 114.203 114.51 114.203C107.229 114.203 100.075 114.203 92.7933 114.203C91.2604 114.203 89.3442 113.82 88.961 116.12C85.7673 115.098 84.4899 111.521 81.2963 110.499C81.0408 108.71 82.5737 109.221 83.2124 109.349C85.0009 109.605 86.6616 109.605 88.3222 109.605C96.1147 109.349 104.035 109.477 111.827 109.349C115.404 109.349 118.726 108.199 122.175 107.305C125.752 106.411 126.773 107.305 126.518 110.627Z" fill="#8DB777"/>
<path d="M88.1951 110.754C85.8956 111.649 83.5962 108.455 81.2968 110.627C80.5303 110.243 80.1471 109.477 81.1691 109.221C82.5743 108.838 83.9795 108.966 85.7679 108.838C84.6182 108.199 83.724 107.688 82.8298 107.178C93.5603 108.199 104.291 108.71 115.022 107.433C118.726 106.922 121.92 104.878 125.497 104.495C127.157 105.772 128.051 107.305 127.796 109.477C127.924 108.199 126.774 106.794 129.073 106.283L129.329 106.539C130.606 108.838 132.778 111.01 131.245 114.076C128.818 112.798 130.223 115.864 129.201 115.992C127.157 114.842 127.668 112.415 126.519 110.754C126.519 106.922 124.091 107.944 122.047 108.71C118.854 109.86 115.788 111.01 112.339 110.882C104.163 109.86 96.1152 109.988 88.1951 110.754Z" fill="#666C52"/>
<path d="M114 136.559C117.449 136.686 120.77 136.686 124.22 137.197C126.008 137.453 126.519 136.175 127.541 135.664C126.902 137.58 128.052 139.241 128.307 141.03C125.625 143.074 122.942 142.307 120.26 141.03C118.088 139.497 116.044 137.964 114 136.559Z" fill="#8BB373"/>
<path d="M120.132 141.03C122.815 141.03 125.497 141.03 128.18 141.03C128.435 143.074 128.819 144.862 129.713 146.778C130.479 148.311 129.713 148.95 128.18 148.184C125.625 145.501 122.304 143.84 120.132 141.03Z" fill="#A0C890"/>
<path d="M75.0376 107.944C74.6544 107.689 74.3989 107.305 74.0156 107.05C73.2492 106.283 71.844 106.411 71.333 105.261C71.333 104.367 71.4607 103.345 70.5665 102.579C70.822 101.685 71.0775 100.918 71.333 100.024C72.8659 101.046 71.5885 103.984 74.1434 104.24C75.0376 103.601 75.8041 103.729 76.5705 104.495C77.2093 105.006 77.848 105.517 78.4867 106.156C78.359 108.711 76.826 108.583 75.0376 107.944Z" fill="#1F1E14"/>
<path d="M130.862 114.203C131.5 111.393 129.073 109.221 129.329 106.411C133.8 108.455 138.654 108.199 143.381 108.838C143.636 108.838 144.019 108.838 144.275 108.838C148.235 110.499 152.323 109.477 156.411 109.605C159.221 109.732 160.499 110.754 160.243 113.565C160.115 116.375 160.115 119.185 160.115 121.868C159.349 122.251 158.455 122.507 157.688 122.89C150.534 121.102 143.381 119.313 136.227 117.652C133.544 118.036 131.373 117.397 130.862 114.203Z" fill="#87B371"/>
<path d="M130.862 114.203C132.267 116.12 134.438 116.631 136.227 117.78C134.822 124.295 133.161 117.014 131.628 117.908C130.734 117.269 129.967 116.631 129.073 115.992C129.201 115.098 128.307 113.948 129.456 113.309C129.712 113.181 130.351 113.948 130.862 114.203Z" fill="#2D4227"/>
<path d="M149.641 69.8759C150.152 69.8759 150.663 69.8759 151.174 69.8759C151.557 70.7701 151.94 71.5366 152.324 72.4308C150.407 73.836 151.302 77.6684 147.725 77.9239C145.425 75.369 141.338 77.2851 139.166 74.347C135.333 71.1534 134.439 71.1534 131.757 74.9857C131.246 76.2632 130.351 77.2851 128.818 77.2851C125.242 75.2412 127.286 73.0695 128.563 70.8979C132.779 68.2152 136.994 67.5765 141.21 70.7701C144.276 72.9418 147.086 72.3031 149.641 69.8759Z" fill="#283330"/>
<path d="M162.798 83.1611C162.543 83.7998 162.16 84.4385 161.904 85.0773C158.072 83.1611 155.517 80.2229 154.112 76.1351C154.112 75.4964 154.367 74.8577 154.878 74.3467C158.455 76.2629 160.499 79.8397 162.798 83.1611Z" fill="#753E32"/>
<path d="M154.878 74.2191C154.878 74.8579 154.878 75.6243 154.878 76.2631C152.323 75.6243 151.046 77.0295 150.279 79.0735C149.64 79.8399 149.513 81.5006 147.98 81.1174C146.83 80.7341 147.597 79.4567 147.341 78.4347C147.341 77.9238 147.469 77.6683 147.852 77.4128C150.407 76.6463 148.491 72.0475 152.323 72.303C153.217 72.9417 153.984 73.5804 154.878 74.2191Z" fill="#4B4A47"/>
<path d="M149.641 78.6903C150.663 76.3909 150.791 72.1753 154.751 76.3909C157.05 79.329 159.477 82.1394 161.777 85.0775C165.354 91.9758 168.547 99.1295 168.164 107.305C157.689 107.944 147.342 106.794 136.994 105.517C135.333 105.261 132.906 105.389 132.012 103.601C131.373 102.323 134.695 102.962 134.184 101.046C135.333 99.385 137.122 98.4908 138.272 96.9578C140.188 94.4029 142.232 91.9758 144.148 89.5486C146.192 85.7162 148.363 82.3949 149.641 78.6903Z" fill="#FCFCFC"/>
<path d="M139.166 97.0859C137.76 98.6189 136.994 100.918 134.439 100.791C134.184 100.663 134.056 100.407 133.8 100.28C133.673 99.3853 133.673 98.4911 134.439 97.9801C134.95 96.3194 135.972 95.042 137.76 95.042C139.038 95.1697 139.549 95.8085 139.166 97.0859Z" fill="#8C7666"/>
<path d="M129.074 106.156C127.797 107.05 128.691 108.711 127.797 109.988C127.031 108.072 126.264 106.283 125.498 104.495C125.753 104.367 125.881 104.239 126.136 104.239C127.286 103.984 128.819 103.217 129.585 103.601C130.735 104.112 129.458 105.261 129.074 106.156Z" fill="#2A3121"/>
<path d="M49.9996 93.8918C51.4048 93.8918 52.9377 93.8918 54.3429 93.8918C54.0874 95.9358 53.8319 97.9797 53.5764 100.151C52.299 100.151 51.1493 100.151 49.8718 100.151C48.8499 98.7462 48.8499 97.2132 49.8718 95.808C49.8718 95.0416 49.8718 94.4028 49.9996 93.8918Z" fill="#1F1613"/>
<path d="M49.8717 95.5527C49.8717 96.9579 49.8717 98.4909 49.8717 99.8961C47.189 98.4909 47.0613 97.0857 49.8717 95.5527Z" fill="#3B525A"/>
<path d="M65.9681 76.9019C66.0958 72.4308 63.0299 69.1095 61.497 65.2771C60.475 62.5945 61.1137 61.9557 63.2854 61.317C65.8403 60.5506 68.523 60.9338 71.0779 61.0615C71.0779 74.0915 71.0779 86.9938 71.0779 100.024C67.3733 100.024 63.7964 100.279 60.0918 100.152C58.4311 100.152 56.3872 101.173 55.3652 99.1295C54.3433 97.0856 55.8762 95.5527 56.8982 94.0197C59.8363 90.4429 62.9022 86.9938 65.8403 83.4169C67.1178 80.9898 67.2455 78.9458 65.9681 76.9019Z" fill="#2A5A69"/>
<path d="M142.487 64.3832C144.148 63.3612 142.615 61.0618 144.148 59.9121C144.02 61.1896 144.659 62.3393 145.297 63.3612C145.808 64.1277 146.319 64.7664 146.703 65.5329C147.469 67.4491 150.152 69.493 148.363 71.2814C146.575 73.0698 143.509 72.8144 141.082 71.0259C140.06 68.5988 138.91 66.0439 142.487 64.3832Z" fill="#E6CCB2"/>
<path d="M141.593 70.6422C141.848 70.77 141.976 71.1532 142.232 71.1532C144.148 71.9197 146.703 72.4307 147.98 71.0255C149.258 69.4925 147.214 67.7041 146.447 66.0434C146.064 65.1492 144.914 64.6382 145.425 63.4885C148.236 64.766 148.236 67.8319 149.641 69.8758C148.491 73.3249 144.531 74.8578 141.465 72.1752C137.25 68.5983 133.289 69.3648 129.074 71.5365C128.946 67.9596 131.884 67.8319 134.184 67.3209C137.377 66.6822 140.06 67.5764 141.593 70.6422Z" fill="#4B4A47"/>
<path d="M140.57 61.7003C140.954 61.7003 141.209 61.7003 141.592 61.7003C141.592 62.339 141.72 63.1055 141.72 63.7442C141.592 63.8719 141.465 64.1274 141.465 64.3829C140.059 65.7881 138.271 65.7881 136.61 65.7881C132.522 65.7881 128.435 65.9159 124.347 65.7881C122.686 65.7881 121.153 65.6604 120.003 64.1274C119.365 62.5945 119.365 61.317 121.153 60.5506C126.263 60.2951 131.5 60.5506 136.61 60.5506C138.015 60.4228 139.421 60.5506 140.57 61.7003Z" fill="#13272F"/>
<path d="M120.132 63.6167C125.497 65.2774 131.118 63.9999 136.611 64.3831C138.271 64.5109 139.804 64.3831 141.465 64.3831C141.848 64.3831 142.232 64.5109 142.615 64.5109C140.188 66.2993 141.593 68.5987 141.593 70.7704C136.1 67.1935 132.778 67.449 129.202 71.6646C128.691 73.453 125.625 75.2415 129.202 77.0299C129.457 77.1576 129.585 77.2854 129.585 77.5409C129.457 77.7964 129.457 77.7964 129.329 77.7964C125.497 78.1796 127.03 75.1137 126.519 73.453C122.687 74.3473 119.876 73.5808 118.343 69.4929C117.704 67.7045 116.427 66.2993 115.15 64.7664C115.022 64.6386 114.894 64.3831 114.766 64.2554C114.639 63.9999 114.639 63.8722 114.511 63.6167C114.511 63.3612 114.511 63.1057 114.511 62.9779C114.766 61.0618 114.639 59.2733 114.511 57.3572C114.511 56.0797 114.511 54.419 116.683 55.6965C119.493 57.4849 119.11 60.8063 120.132 63.6167Z" fill="#C0A086"/>
<path d="M102.374 140.902C98.4139 141.03 94.5816 141.413 90.6215 140.902C86.7891 140.391 82.0625 137.325 80.7851 133.876C80.5296 133.365 80.1464 132.727 80.7851 132.343C81.6793 131.705 82.4458 132.216 83.2122 132.854C86.1504 135.792 89.9827 136.687 93.9428 137.07C95.2203 137.198 95.9867 137.07 96.1145 135.665C98.1584 137.453 100.33 139.242 102.374 140.902Z" fill="#8EB779"/>
<path d="M102.503 138.092C105.824 139.497 108.379 141.669 110.551 144.479C107.357 143.074 104.546 141.03 102.503 138.092Z" fill="#5E5323"/>
<path d="M114 147.161C116.555 147.672 117.832 149.844 119.493 151.505C119.11 151.505 118.854 151.632 118.471 151.632C116.683 150.483 115.15 148.95 114 147.161Z" fill="#5E5323"/>
<path d="M97.0103 133.748C99.4374 134.387 100.97 136.175 102.503 138.092C99.6929 137.964 98.5432 135.664 97.0103 133.748Z" fill="#5E5323"/>
<path d="M71.206 105.261C72.4834 105.389 73.3777 105.9 73.8886 107.05C71.0782 106.794 69.4176 108.199 68.5233 110.627C67.5014 110.371 67.3736 108.71 66.0962 108.966C66.4794 107.433 68.3956 106.411 67.5014 104.495C68.7788 104.75 70.0563 105.006 71.206 105.261Z" fill="#7C580B"/>
<path d="M115.149 64.6384C117.576 63.8719 117.832 66.0435 118.343 67.321C119.748 71.1534 122.175 73.4528 126.391 73.325C125.241 73.836 124.475 74.9857 122.814 74.7302C115.66 73.5805 108.379 74.7302 101.097 74.0915C97.9037 73.836 98.2869 76.5186 97.0095 77.6683C95.6043 76.1354 97.2649 73.7082 95.3488 72.3031C95.0933 72.3031 94.8378 72.3031 94.5823 72.3031C91.8997 67.832 87.8118 67.321 82.8298 70.6424C79.8916 70.5146 75.9315 71.9198 76.5703 66.299C76.9535 63.2332 78.2309 61.7002 81.2968 61.828C84.8737 61.9557 88.4505 61.9557 91.7719 60.806C94.8378 59.784 96.1152 60.9337 96.8817 63.6164C97.0095 63.8719 97.0095 64.2551 97.1372 64.5106C97.6482 65.5326 98.5424 66.4268 99.0534 67.4487C99.8199 68.9817 99.1811 71.6643 101.736 71.9198C105.185 72.3031 108.89 72.814 112.211 71.6643C115.022 70.6424 112.211 67.9597 113.105 66.1713C113.744 65.6603 114.383 65.1493 115.149 64.6384Z" fill="#EFD4B9"/>
<path d="M95.3487 72.303C97.7758 73.4527 97.0094 75.7521 97.0094 77.6683C91.5163 79.329 85.8955 78.1793 80.4025 78.5625C79.3805 78.6902 77.3366 77.6683 77.3366 79.7122C77.3366 81.7561 74.7817 84.311 78.3586 85.7162C79.7638 87.7601 78.8696 89.8041 78.3586 91.848C74.3985 93.2532 78.2308 96.319 76.9534 98.6185C76.3147 99.7682 76.5702 102.451 76.5702 104.367C75.8037 104.239 74.9095 104.239 74.143 104.111C74.0153 96.0636 74.0153 88.1434 73.7598 80.0954C73.7598 77.9238 74.7817 77.285 76.8256 77.285C81.5522 77.285 86.2788 77.1573 91.0053 77.285C95.0932 77.6683 96.7539 76.3908 95.3487 72.303Z" fill="#D3B195"/>
<path d="M94.455 72.303C93.8163 75.4966 91.6446 76.2631 88.5787 76.0076C84.7464 75.7521 80.914 76.0076 77.0817 75.3689C79.6366 74.0914 82.447 74.2192 84.6186 72.4307C87.1735 73.7082 89.8562 73.1972 92.5388 72.5585C93.1775 72.4307 93.8163 72.4307 94.455 72.303C94.5827 72.303 94.455 72.303 94.455 72.303Z" fill="#243F48"/>
<path d="M92.5388 72.4309C90.2394 74.9858 85.6406 74.8581 84.6187 72.3032C87.3013 70.898 89.8562 71.1535 92.5388 72.4309Z" fill="#285D69"/>
<path d="M65.9674 76.9019C68.6501 78.9458 68.5223 81.1174 65.9674 83.1614C65.9674 80.9897 65.9674 78.9458 65.9674 76.9019Z" fill="#273C3F"/>
<path d="M140.571 61.7005C134.056 61.445 127.413 62.8502 121.026 60.9341C119.11 59.6566 118.215 57.8682 118.471 55.5688C123.453 55.952 127.924 53.5248 132.906 53.6526C140.443 53.9081 140.571 53.7803 140.571 61.7005Z" fill="#2A5A6B"/>
<path d="M112.211 55.5684C113.105 56.8458 113.105 58.3788 113.105 59.9117C113.616 60.5504 113.616 61.1891 113.233 61.9556C112.85 62.3388 112.466 62.4666 111.955 62.7221C108.251 63.1053 104.674 63.2331 100.969 62.7221C100.458 62.5943 100.075 62.2111 99.8195 61.8279C99.3085 58.8897 100.203 57.229 103.652 57.1013C106.462 56.8458 109.273 56.0793 112.211 55.5684Z" fill="#285664"/>
<path d="M99.8193 61.7003C100.075 61.7003 100.458 61.7003 100.714 61.828C104.801 62.339 109.017 62.5945 113.105 61.7003C115.021 61.0616 115.532 61.7003 114.893 63.4887C109.528 64.2552 104.163 63.9997 98.7974 63.4887C98.9251 62.85 99.0529 62.0835 99.8193 61.7003Z" fill="#1B2424"/>
<path d="M113.106 66.1715C114.384 67.8322 115.661 69.7483 114.511 71.7923C113.362 74.0917 111.19 72.942 109.274 73.1975C109.146 73.1975 109.018 73.1975 108.89 73.1975C105.825 72.942 102.248 74.3472 99.8206 72.5587C97.3934 70.7703 98.4154 67.0657 97.1379 64.3831C100.332 67.3212 104.164 65.7882 107.741 66.1715C109.529 66.2992 111.318 66.1715 113.106 66.1715Z" fill="#C6A588"/>
<path d="M98.7974 63.6165C104.163 63.6165 109.528 63.6165 114.893 63.6165C114.893 63.8719 114.765 63.9997 114.638 64.2552C109.4 64.1274 104.035 65.2771 98.7974 63.6165Z" fill="#253434"/>
<path d="M118.471 55.5684C119.748 57.1013 120.259 59.0175 121.026 60.9337C120.004 61.5724 120.259 62.5943 120.131 63.6163C118.215 61.3169 117.704 58.3787 116.554 55.6961C117.193 55.5684 117.832 55.5684 118.471 55.5684Z" fill="#213A3D"/>
<path d="M114.894 63.4885C114.894 62.3388 114.256 61.7001 113.106 61.7001C113.106 61.0614 113.106 60.5504 113.106 59.9117C114.383 58.8897 113.745 57.4845 114 56.207C114.383 54.4186 115.278 53.9076 116.555 55.5683C113.745 55.6961 115.022 57.6122 115.15 58.8897C115.405 60.5504 116.938 62.2111 114.894 63.4885Z" fill="#253434"/>
<path d="M139.165 97.0856C136.866 93.5088 135.972 97.7243 134.439 97.9798C133.034 95.6804 129.968 96.4469 128.179 94.2752C125.752 91.3371 124.858 88.5267 126.902 85.4608C128.69 82.6504 131.373 80.7343 135.077 81.373C138.527 82.0117 141.465 83.5446 143.509 86.4828C144.147 87.6325 144.147 89.0377 144.914 90.1874C142.87 92.4868 141.081 94.7862 139.165 97.0856Z" fill="#FAAC85"/>
<path d="M78.3586 91.9755C76.6979 89.9316 78.6141 87.8877 78.3586 85.8437C82.7019 79.4565 91.7718 80.3507 94.3267 86.0992C95.7319 89.2929 95.9874 91.9755 93.3047 94.4027C89.9834 97.4686 84.7458 97.9795 81.5522 95.5524C80.4025 94.5304 79.3805 93.253 78.3586 91.9755Z" fill="#FCAC84"/>
<path d="M108.507 100.024C106.591 99.6405 105.441 98.2353 104.675 96.7024C103.014 93.7642 104.036 91.9758 107.358 91.848C110.168 91.7203 112.978 91.7203 115.789 91.848C117.194 91.848 118.855 91.2093 119.621 93.1255C120.26 94.6584 119.366 95.9359 118.599 97.2133C117.705 98.4908 116.811 99.896 115.022 100.151C112.851 99.896 110.679 99.896 108.507 100.024Z" fill="#743823"/>
<path d="M129.202 77.6685C129.202 77.413 129.202 77.1575 129.074 76.902C130.224 76.391 130.862 75.4968 130.862 74.2194C133.673 72.0477 136.739 73.3252 139.804 73.3252C140.954 74.6026 142.104 75.3691 144.02 75.1136C145.936 74.8581 147.469 75.3691 147.98 77.5407L147.852 77.6685C147.597 78.1795 147.214 78.1795 146.958 77.6685C140.954 77.7962 135.078 77.6685 129.202 77.6685Z" fill="#364A4E"/>
<path d="M146.958 77.7964C147.213 77.7964 147.597 77.7964 147.852 77.7964C147.98 78.6906 147.98 79.5848 148.108 80.479C148.746 79.8403 149.257 79.3293 149.768 78.6906C149.768 83.1617 147.341 86.7385 144.914 90.1876C141.209 90.1876 143.126 88.016 143.509 86.483C145.297 83.9281 146.83 81.1178 146.958 77.7964Z" fill="#87817A"/>
<path d="M108.507 100.024C110.678 98.7464 112.85 98.6187 115.022 100.024C112.85 101.046 110.678 100.918 108.507 100.024Z" fill="#391B10"/>
<path d="M88.1951 110.754C93.3049 108.582 98.5424 110.115 103.78 109.988C106.59 109.86 109.656 108.966 112.339 110.754C104.163 110.754 96.1153 110.754 88.1951 110.754Z" fill="#3C4F32"/>
<path d="M139.804 73.3249C136.994 75.1133 133.8 73.8359 130.862 74.2191C133.8 69.7481 135.716 69.4926 139.804 73.3249Z" fill="#2A5867"/>
<path d="M113.105 61.7002C109.017 63.1054 104.801 62.9776 100.713 61.8279C104.801 61.8279 108.889 61.8279 113.105 61.7002Z" fill="#253434"/>
<path d="M112.084 93.7642C113.489 94.5307 116.299 92.6145 116.299 95.2972C116.299 97.7243 114 98.2353 111.701 98.363C109.401 98.363 106.974 97.5966 107.23 95.2972C107.613 92.4868 110.551 94.5307 112.084 93.7642Z" fill="#E54706"/>
</svg>
