<svg width="186" height="187" viewBox="0 0 186 187" fill="none" xmlns="http://www.w3.org/2000/svg">
<g clip-path="url(#clip0)">
<path d="M80.8447 5.56592C84.1945 5.69991 87.6783 5.9679 91.0281 5.83391C110.859 5.02995 125.598 13.3375 135.916 30.0867C138.194 32.4986 139.936 35.0444 139.132 38.5283C138.596 39.4662 137.792 40.0022 136.72 40.2702C134.576 40.5381 132.7 40.5381 131.896 37.9923C133.638 37.0543 134.442 36.1164 133.236 33.8385C127.34 22.985 118.899 15.2134 106.973 11.7296C105.097 11.1936 103.088 10.7917 101.48 9.45172C100.14 8.11179 98.3978 8.11179 96.6559 8.11179C83.9265 8.11179 71.1972 8.11179 58.4678 8.11179C56.8599 8.11179 54.984 7.8438 54.046 9.71971C50.8302 11.1936 47.3464 11.5956 43.8625 11.9976C42.1206 11.5956 40.2447 11.8636 38.9048 10.3897C44.6665 7.30783 50.8302 5.69991 57.3959 5.83391C65.1675 5.9679 72.9391 5.69991 80.8447 5.56592Z" fill="#456B58"/>
<path d="M38.7714 10.3894C40.3793 10.7914 42.1213 9.85343 43.4612 11.3274C39.5754 14.6772 34.4836 16.5531 30.5978 20.0369C25.5061 24.5927 21.7543 29.8184 18.9404 35.9821C17.4665 39.198 16.9305 42.1458 19.3424 45.2276C16.6625 46.8356 13.8487 47.5055 10.7668 46.9696C13.5807 44.1557 13.0447 40.1359 14.3847 36.7861C19.2084 24.7267 26.846 15.6151 38.7714 10.3894Z" fill="#3D5F4E"/>
<path d="M10.7661 46.8361C13.58 46.1661 16.5278 45.6302 19.3417 44.9602C21.6196 45.4962 21.4856 47.3721 21.4856 48.98C21.6195 56.6176 21.8875 64.3892 21.3516 72.0268C20.5476 75.6447 17.1978 74.0367 15.0539 75.1087C13.58 74.5727 13.044 73.5008 13.044 72.0268C13.446 70.0169 13.58 67.6051 16.6618 67.7391C18.2697 67.7391 18.1357 66.5331 18.4037 65.5952C17.5998 65.4612 17.4658 67.0691 16.3938 66.3991C16.1258 66.2651 15.9918 65.9971 15.8578 65.7292C14.9199 62.2453 15.0539 58.7615 15.7238 55.4117C16.1258 53.9377 17.0638 54.2057 18.2697 54.6077C18.5377 54.7417 18.2697 53.5358 18.4037 52.9998C18.5377 50.8559 16.6618 52.4638 15.9918 51.7939C15.1879 50.1859 14.5179 48.712 12.374 50.4539C10.4981 52.0618 8.6222 53.6698 7.55026 56.0816C7.14828 57.0196 6.88029 58.7615 5.00439 57.8236C4.20043 56.7516 4.46841 55.6797 4.46841 54.4737C4.60241 53.8038 4.87039 53.1338 5.13838 52.4638C5.54036 51.5259 5.94234 50.5879 6.21033 49.65C7.68425 48.712 9.29217 47.7741 10.7661 46.8361Z" fill="#2F5B43"/>
<path d="M115.549 156.04C114.209 155.504 112.199 153.763 112.735 157.246C112.735 157.514 112.735 157.916 112.735 158.184C112.869 162.07 111.529 166.76 113.271 169.574C115.281 172.924 120.373 170.378 124.124 171.048C132.566 172.388 141.008 173.46 149.315 174.8C151.191 175.068 153.737 175.603 153.469 178.283C153.335 180.561 151.057 180.963 149.181 181.231C137.39 183.107 125.598 184.715 113.673 184.983C102.418 185.385 91.0281 186.055 79.7727 185.787C60.7457 185.385 41.7186 185.251 22.8256 182.035C20.5477 181.633 18.4038 180.829 16.1259 180.293C14.786 180.025 13.5801 179.355 13.4461 178.149C13.3121 176.809 14.652 176.005 15.8579 175.603C20.4137 174.264 25.1035 173.326 29.9272 172.79C31.4012 172.656 33.0091 172.12 34.483 172.388C39.8427 173.058 40.3787 170.11 39.8427 165.956C39.7087 164.616 39.8427 163.142 39.9767 161.802C42.2546 161.936 41.8526 163.812 42.1206 165.286C42.3886 167.162 42.2546 168.904 42.2546 170.78C42.2546 177.747 44.8005 179.221 51.6341 176.139C52.9741 174.13 52.9741 171.316 55.3859 169.842C68.9193 169.574 82.4526 169.976 95.8519 169.574C96.3879 169.574 96.9238 169.574 97.3258 169.708C100.006 171.316 99.6037 175.068 102.15 176.809C103.356 177.479 104.561 177.211 105.767 177.345C109.117 177.747 110.457 176.407 110.457 172.924C110.457 166.358 109.921 159.926 110.725 153.361C112.869 149.743 114.343 151.887 115.683 154.031C116.085 154.567 115.951 155.37 115.549 156.04Z" fill="#DDD7BF"/>
<path d="M166.734 115.977C165.26 117.585 165.26 119.594 165.26 121.604C165.26 138.889 165.26 156.175 165.394 173.46C165.394 176.944 165.394 179.489 160.704 179.489C156.014 179.489 155.612 176.944 155.612 173.192C155.746 156.443 155.746 139.559 155.612 122.81C155.612 121.336 156.014 119.728 155.21 118.389C154.942 118.522 154.406 118.656 154.406 118.79C153.468 125.222 153.468 125.49 147.171 123.078C144.625 122.14 141.543 122.14 139.533 119.862C143.017 117.585 145.831 120.532 148.913 121.068C150.521 121.604 151.459 121.202 151.727 119.326C151.861 117.585 152.531 115.977 154.272 115.307C156.416 114.905 156.148 113.163 156.148 111.689C156.148 107.133 156.148 102.443 156.148 97.8876C156.416 96.0116 155.478 94.6717 154.674 93.0638C154.406 92.5278 154.406 91.9918 154.272 91.4559C153.87 77.3866 154.138 63.4513 154.138 49.382C154.138 48.1761 154.272 46.9701 154.674 45.7642C155.612 44.2903 156.416 42.5483 158.694 43.4863C160.57 46.9701 159.498 50.7219 159.766 54.4737C159.9 57.1536 159.766 59.6995 160.168 62.3793C163.25 64.3892 164.188 67.2031 164.054 70.9549C163.518 84.2202 165.126 97.3516 164.188 110.617C162.848 132.056 164.188 153.495 163.25 174.934C161.106 175.336 161.106 173.594 160.838 172.388C160.436 170.78 160.704 169.038 160.704 167.296C160.704 135.406 160.57 103.515 160.704 74.7067C160.972 85.2922 159.498 98.8255 160.168 112.359C160.972 132.324 160.436 152.155 160.704 171.986C160.704 173.728 161.106 175.068 162.848 175.604C163.786 177.614 162.044 177.078 161.24 177.346C162.848 177.48 163.518 176.542 163.518 175.068C163.518 173.46 163.518 171.986 163.518 170.378C163.518 153.763 163.518 137.148 163.518 120.666C163.518 118.255 162.58 115.173 166.734 115.977Z" fill="#726556"/>
<path d="M158.427 43.218C157.355 43.7539 156.819 45.2279 155.345 45.0939C149.315 45.4959 145.429 41.878 141.678 38.1262C140.874 35.9823 138.73 34.3744 138.73 31.9625C138.73 30.7566 138.864 29.6847 140.204 29.0147C141.41 29.0147 142.08 29.9526 142.616 30.8906C145.027 35.1784 148.511 38.2602 153.737 40.5381C148.377 37.4563 143.687 34.6424 142.616 28.4787C142.884 27.4068 142.75 25.9328 144.625 26.2008C146.635 29.9526 148.779 33.3025 152.665 35.5804C156.417 37.7242 157.221 37.4563 157.221 33.1685C157.221 24.8609 157.221 16.4193 157.221 8.11175C157.221 2.61802 157.489 2.35004 163.117 3.154C164.188 5.0299 164.188 6.63782 161.643 7.17379C161.375 7.30779 161.107 7.57577 161.107 7.84376C160.705 17.3573 160.303 26.8708 161.375 36.3843C162.581 36.1163 163.652 35.7144 164.858 36.5183C166.332 37.3223 167.806 37.1883 168.878 35.5804C174.908 31.1586 178.124 25.5309 177.722 17.8933C177.588 13.4715 177.052 8.91571 178.124 4.49393C178.258 4.62792 178.526 4.89591 178.66 5.0299C180.402 11.8636 178.928 18.6972 179.464 25.5309C179.598 25.9328 179.598 26.4688 179.598 27.0048C178.392 33.4365 173.434 36.6523 169.012 39.7341C173.97 36.9203 178.392 33.0345 180.268 26.8708C180.536 25.7989 180.536 23.789 182.814 24.4589C184.019 26.3348 182.947 28.3447 182.814 30.2206C180.268 36.7863 175.31 41.3421 169.012 43.7539C165.528 45.0939 165.126 46.8358 165.126 49.9176C165.26 64.3889 165.26 78.8602 165.26 93.3314C162.313 93.4654 163.652 91.1875 163.652 90.1156C163.518 82.88 163.518 75.6443 163.652 68.2747C163.652 66.2648 163.652 64.2549 162.447 62.513C161.241 57.9572 161.911 53.2675 161.777 48.5777C161.643 46.1658 161.107 44.1559 158.427 43.218Z" fill="#484E55"/>
<path d="M20.1454 156.978C18.5375 150.681 19.2074 144.383 20.4134 138.219C21.2173 134.199 22.2893 130.18 23.3612 126.16C23.6292 124.954 24.0312 123.614 23.0932 122.676C21.2173 120.398 22.5573 118.656 23.7632 116.914C24.1652 117.182 24.2992 117.45 24.5672 117.718C24.9691 118.79 25.5051 118.656 26.3091 118.12C27.247 117.45 28.051 117.852 28.453 118.924C28.7209 123.48 26.845 127.634 26.0411 132.056C25.6391 133.931 24.8351 135.941 27.783 136.209C30.1949 136.477 32.7407 136.611 32.7407 133.127C32.8747 130.18 33.1427 127.232 32.2048 124.284C31.8028 122.81 30.9988 121.336 32.0708 119.862C35.8226 119.594 36.3586 122.006 36.3586 124.954C36.2246 133.261 36.6265 141.703 36.3586 150.011C36.2246 151.887 36.0906 153.762 37.4305 155.37C35.2866 157.782 34.0807 157.648 33.2767 154.968C32.6067 152.824 33.1427 150.681 32.8747 148.537C33.1427 148.135 31.9368 148.001 32.4728 148.269C29.7929 152.958 25.9071 151.217 22.2893 150.011C21.6193 148.671 22.5573 148.403 23.4952 148.403C25.1031 148.403 26.845 148.269 28.185 148.537C28.9889 148.537 28.185 147.465 28.453 148.135C28.453 148.269 28.319 148.403 28.051 148.403C25.7731 148.001 22.5573 150.011 21.4853 146.125C22.8252 143.981 24.4332 145.857 25.9071 145.723C27.113 145.589 28.453 145.589 29.1229 144.383C29.3909 143.981 29.2569 143.445 28.8549 143.177C27.917 142.507 26.845 142.775 25.7731 142.775C24.0312 142.909 23.2272 144.383 22.0213 145.321C21.2173 147.063 21.6193 148.805 22.4233 150.413C23.0932 151.351 23.2272 152.423 23.2272 153.494C23.3612 156.576 25.2371 157.782 28.051 157.916C31.5348 158.05 35.1526 157.916 38.6364 157.916C39.5744 158.586 40.2444 159.256 39.5744 160.462C34.6166 162.606 29.5249 161.4 24.4332 161.4C22.5573 160.998 21.3513 158.72 20.1454 156.978Z" fill="#2B533D"/>
<path d="M162.848 61.8433C164.456 63.1832 163.92 64.9251 163.92 66.6671C163.92 74.3047 163.92 81.8083 163.92 89.4459C163.92 90.9198 163.25 92.6617 165.126 93.5997C165.796 93.7337 166.6 93.7337 166.6 94.6716C164.188 97.7535 165.126 101.237 165.528 104.721C165.93 106.195 165.796 107.803 165.93 109.277C166.064 110.215 166.198 111.153 167.538 110.349C168.878 105.793 167.27 101.103 168.342 96.5476C168.476 96.5476 168.744 96.4136 168.744 96.5476C172.764 101.237 171.424 112.761 166.332 116.111C162.714 116.513 163.652 119.326 163.652 121.47C163.652 138.621 163.652 155.639 163.652 172.79C163.652 178.417 162.178 179.221 156.685 176.676C158.56 175.738 161.106 178.417 162.58 175.738C162.312 175.604 162.312 175.336 162.446 175.202C162.58 175.068 162.58 175.068 162.714 175.068C162.714 139.693 162.714 104.319 162.848 68.8109C162.848 65.8631 162.178 64.3892 158.962 64.7912C158.159 64.9251 156.685 65.0591 156.953 63.7192C157.087 62.6473 158.426 62.9152 159.364 62.7813C160.436 61.7093 161.508 61.3073 162.848 61.8433Z" fill="#4D4A3E"/>
<path d="M161.24 5.83371C164.456 6.90566 162.446 4.0918 162.982 3.28784C165.126 4.35979 164.724 6.36969 164.724 8.1116C164.724 16.4192 164.858 24.8608 164.724 33.1683C164.59 36.7861 165.796 37.1881 168.61 35.8482C168.074 38.2601 166.064 37.9921 164.59 37.3221C162.848 36.5182 162.178 37.7241 161.106 38.5281C160.302 37.7241 160.168 36.6522 160.168 35.4462C160.168 26.6027 160.168 17.6251 160.168 8.78156C160.302 7.70962 160.302 6.63767 161.24 5.83371Z" fill="#656C75"/>
<path d="M182.679 30.3547C182.143 28.4788 183.349 26.2009 181.741 24.459C180.401 19.5013 182.009 14.2755 181.205 9.85376C181.071 14.4095 181.473 19.5013 180.803 24.593C180.669 25.799 180.937 27.2729 179.061 27.1389L178.927 27.0049C177.989 19.7693 179.195 12.3996 178.391 5.164C178.257 5.03001 178.123 4.76202 178.123 4.49403C180.669 0.742223 182.411 0.742223 184.823 4.49403C183.483 9.58578 184.823 14.9455 184.153 20.0372C184.689 14.8115 183.617 9.58578 184.823 4.49403C185.091 13.3376 186.699 22.0471 182.679 30.3547Z" fill="#545C64"/>
<path d="M20.1465 156.978C26.0422 162.874 33.0098 161.132 39.8435 159.524C40.2455 158.988 40.6474 158.452 41.0494 158.05C42.1214 156.308 42.1214 152.021 45.7392 156.174C44.2653 159.792 45.2032 163.678 44.8012 167.43C44.2653 168.368 43.4613 169.038 43.1933 170.244C41.9874 174.934 43.0593 176.407 47.8831 176.407C49.491 176.407 51.2329 175.871 52.8408 176.675C49.759 180.695 45.6052 178.685 41.9874 178.283C39.1735 178.015 40.6474 174.666 40.5135 172.656C40.1115 169.038 41.4514 165.286 39.8435 161.802C35.4217 161.802 30.8659 162.07 26.4442 161.936C23.2283 161.802 20.8165 160.462 20.1465 156.978Z" fill="#6E665B"/>
<path d="M139.534 32.2303C139.936 34.2402 142.213 35.3121 142.481 37.59C142.079 37.992 140.874 37.858 141.142 38.528C144.357 46.2996 143.821 54.3392 142.749 62.3787C142.481 64.6566 142.347 67.3365 138.864 66.9345C136.854 64.1207 140.07 61.5748 139.266 58.8949C139.4 53.4012 139.4 47.9075 137.792 42.5478C137.524 41.0738 137.926 39.8679 138.73 38.6619C138.864 35.4461 136.318 33.3022 135.916 30.2204C136.988 29.5504 136.586 28.3445 136.854 27.2725C137.256 27.0045 137.658 27.0045 137.926 27.2725C138.194 27.5405 138.328 27.9425 138.596 28.3445C138.998 29.5504 138.998 30.8903 139.534 32.2303Z" fill="#D6D7D7"/>
<path d="M149.181 122.408C145.966 121.604 143.018 119.595 139.534 119.863C133.772 118.523 128.279 116.647 123.053 114.235C121.311 113.029 119.033 113.297 117.157 112.225C117.023 111.153 117.559 110.349 118.497 109.813C119.703 109.277 120.909 109.679 122.115 110.081C131.896 113.565 141.812 117.049 151.727 120.13C152.665 123.078 149.717 121.47 149.181 122.408Z" fill="#6F3C31"/>
<path d="M34.6172 92.6612C27.7836 89.4454 22.9598 84.2196 19.208 77.7879C19.208 76.85 19.476 76.046 20.4139 75.644C22.1559 75.778 22.9598 77.252 23.8978 78.4579C27.6496 83.6836 32.3393 87.8374 37.9671 90.9193C38.905 91.4552 39.843 92.1252 39.843 93.3312C38.771 94.5371 36.8951 94.4031 35.9572 95.743C33.9473 95.341 35.0192 93.7331 34.6172 92.6612Z" fill="#2F5B43"/>
<path d="M115.549 156.04C115.415 155.504 115.281 154.968 115.147 154.432C115.147 148.001 115.013 141.435 115.013 135.003C115.013 133.396 115.013 131.922 115.415 130.314C116.621 127.232 115.549 123.882 116.487 120.666C116.755 120.13 117.023 119.862 117.425 119.594C118.229 120.666 118.229 122.006 118.095 123.078C117.157 132.86 118.497 142.641 118.229 152.423C118.229 154.298 118.497 156.442 115.549 156.04Z" fill="#664F4B"/>
<path d="M34.6162 92.6616C35.0182 93.4656 35.5542 94.4035 35.9562 95.2075C37.0281 94.5375 38.234 94.2695 39.44 94.9395C39.842 95.2075 40.1099 95.6095 40.1099 96.1454C34.7502 98.0213 31.8024 102.041 30.3284 107.401C29.7925 108.339 29.1225 109.143 28.3185 110.081C27.5146 110.751 27.1126 111.957 25.6387 111.421C27.1126 105.659 27.9166 99.6293 33.0083 95.6095C34.0802 94.6715 34.3482 93.7336 34.6162 92.6616Z" fill="#6F3E34"/>
<path d="M137.792 28.2109C137.524 28.0769 137.524 27.8089 137.658 27.5409C137.256 25.531 137.39 23.5211 136.988 21.5112C137.39 15.3476 136.05 9.18387 137.926 3.15418C139.534 2.88619 141.276 2.08223 142.616 3.95814C143.688 10.2558 142.616 16.6875 143.286 23.1192C143.42 23.6551 142.884 24.1911 142.348 24.5931C141.276 24.7271 141.008 23.9231 140.74 23.1192C140.07 18.2954 140.606 13.3377 140.338 8.51391L140.07 8.37991C140.07 8.37991 140.07 8.6479 140.07 8.78189C140.07 13.8736 140.204 18.9654 140.07 23.9231C139.936 25.665 140.338 27.8089 137.792 28.2109Z" fill="#484E55"/>
<path d="M13.312 72.2945C13.982 73.2324 14.652 74.3044 15.3219 75.2423C15.7239 75.3763 15.8579 75.5103 15.7239 75.6443C15.5899 75.7783 15.4559 75.9123 15.4559 75.9123C12.2401 74.8404 10.7662 72.4285 11.0341 69.3466C11.3021 67.0687 11.0341 66.5328 8.75625 67.0687C5.13844 67.8727 3.66451 64.7909 2.32458 62.647C0.850652 60.6371 0.850652 57.9572 3.26253 56.0813C4.60246 57.0193 4.33448 58.6272 4.73646 59.9671C4.73646 61.843 5.54041 63.4509 7.28233 63.9869C9.29222 64.5229 11.5701 63.8529 13.044 66.1308C14.116 68.0067 13.044 70.1506 13.312 72.2945Z" fill="#C6C9C5"/>
<path d="M164.86 104.721C162.984 102.041 164.19 99.0934 164.056 96.2795C163.922 94.5376 165.53 94.6716 166.735 94.5376C167.405 95.2076 168.075 95.7435 168.745 96.4135C170.085 101.773 170.621 106.999 168.611 112.359C166.334 108.741 168.343 104.453 166.869 100.165C165.664 101.773 166.334 103.783 164.86 104.721Z" fill="#1C4430"/>
<path d="M141.544 24.4592C143.554 20.0374 142.08 15.3476 142.482 10.7919C142.616 8.51398 142.482 6.1021 142.482 3.82422C144.224 5.03016 143.688 6.90606 143.554 8.51398C143.554 14.4097 143.554 20.3054 144.492 26.2011C143.286 26.8711 143.42 28.077 143.286 29.1489C140.874 28.345 140.606 26.6031 141.544 24.4592Z" fill="#4B5258"/>
<path d="M137.792 21.6454C137.792 23.6553 137.658 25.5312 137.658 27.5411C137.39 27.4071 137.256 27.2731 136.988 27.1391C135.916 19.6355 134.978 12.2658 136.854 4.76221C137.926 8.64801 137.122 12.6678 137.39 16.6876C137.39 18.4295 136.854 20.1714 137.792 21.6454Z" fill="#456B58"/>
<path d="M25.6393 111.287C26.3092 110.617 26.9792 110.081 27.6492 109.411C28.7211 110.483 29.1231 111.957 29.7931 113.162C28.7211 115.708 26.4432 116.914 24.1653 117.852C24.0313 117.45 23.8974 117.048 23.8974 116.646C23.7634 114.636 24.7013 112.894 25.6393 111.287Z" fill="#563322"/>
<path d="M137.791 21.6451C135.647 16.1514 137.523 10.3897 136.853 4.76197C136.853 3.95801 136.853 3.28805 137.791 3.15405C137.791 9.31774 137.791 15.4814 137.791 21.6451Z" fill="#4B5258"/>
<path d="M15.4558 75.9122C15.4558 75.6442 15.4558 75.5102 15.3218 75.2422C16.3937 72.6964 18.2696 73.6343 20.1455 74.0363C20.6815 74.5723 20.6815 75.2422 20.2795 75.7782C20.2795 76.5822 20.0115 77.2521 19.3416 77.7881C18.0016 76.9842 17.1977 75.6442 15.4558 75.9122Z" fill="#315440"/>
<path d="M117.158 112.091C119.301 112.225 121.445 112.225 122.919 114.235C122.651 114.235 122.249 114.369 121.981 114.235C117.828 112.493 116.756 114.369 117.56 118.255C117.694 118.657 117.426 119.193 117.426 119.595L117.024 119.862C113.942 117.987 115.014 115.307 115.684 112.761C116.086 112.091 116.622 111.957 117.158 112.091Z" fill="#664F4B"/>
<path d="M3.53068 60.771C3.39669 59.1631 3.39669 57.6892 3.2627 56.0812C3.66468 54.7413 3.53068 53.1334 5.1386 52.5974C5.1386 53.1334 5.1386 53.8034 5.27259 54.3393C4.46863 55.8132 4.87061 57.1532 5.00461 58.6271C5.1386 59.6991 5.1386 60.905 3.53068 60.771Z" fill="#58A983"/>
<path d="M20.2797 75.7782C20.2797 75.2422 20.2797 74.5723 20.1457 74.0363C20.1457 65.4607 20.2797 57.0192 20.2797 48.4436C20.2797 47.2377 20.5477 45.8977 19.3417 44.9598C15.9919 44.1558 15.3219 42.8159 16.5279 39.1981C21.3516 25.7987 30.0612 16.2852 43.4605 11.3275C46.8103 10.1215 50.1602 9.31758 53.778 9.45157C58.1998 9.85355 61.0136 13.2034 64.3634 15.3473C66.3733 16.6872 68.2493 18.2951 70.2592 19.6351C72.1351 20.841 73.475 21.7789 75.8869 19.903C78.8347 17.6252 79.3707 21.377 80.7106 22.8509C81.9166 27.5407 84.8644 31.0245 88.0803 34.3743C89.0182 35.3123 89.6882 35.8482 90.3581 34.2403C90.4921 33.8383 90.7601 33.5704 91.0281 33.1684C93.574 31.2925 91.8321 29.2826 91.1621 27.4067C90.8941 26.7367 90.6261 25.9327 90.4921 25.2628C90.2242 23.1189 88.6162 20.707 90.3581 19.0991C92.1 17.4912 93.976 19.769 95.5839 20.707C97.5938 21.9129 98.3977 20.707 98.9337 19.0991C99.4697 17.3572 99.3357 15.4813 99.4697 13.6054C99.7377 11.7295 99.6037 9.45157 102.418 9.45157C119.167 12.5334 130.02 22.4489 136.318 37.8581C134.71 38.9301 133.638 37.1882 132.298 37.4562C130.69 38.9301 129.216 38.2601 127.608 37.5901C124.258 36.1162 120.641 34.9103 117.291 33.4364C115.415 32.6324 113.941 32.9004 113.941 35.4463C113.941 36.1162 113.941 35.3123 113.941 35.8482C113.137 44.5578 113.137 44.5578 122.918 46.8357C125.866 47.6396 129.082 47.5056 132.03 48.4436C134.04 49.5155 136.318 48.5776 138.462 49.2476C140.74 52.9994 140.07 57.1532 139.266 60.771C138.194 65.8627 136.854 70.9545 134.174 75.5102C130.69 81.2719 126 85.8277 120.775 89.9815C116.487 93.3313 115.013 92.6614 114.075 87.1676C113.673 85.0238 114.209 82.8799 114.209 80.736C113.673 75.1082 111.261 73.9023 105.767 76.1802C105.231 76.5822 104.561 76.8502 103.891 76.9841C100.944 76.3142 100.542 74.1703 101.078 71.6244C101.078 71.2224 101.212 70.6865 101.078 70.2845C100.14 67.3366 99.8717 62.6469 96.3878 62.9149C93.306 63.1829 92.1001 67.4706 91.9661 70.9545C92.904 72.4284 96.5218 72.1604 94.9139 75.1082C93.574 77.6541 91.4301 77.1181 89.4202 75.9122C86.7403 74.4383 84.1945 74.7063 81.7826 76.7162C81.3806 76.9842 80.9786 77.1181 80.5766 77.1181C79.7727 77.1181 79.1027 76.8502 78.4327 76.4482C74.4129 74.0363 73.073 74.3043 69.5892 78.1901C67.4453 84.8897 64.0955 85.5597 59.2717 80.2C57.7978 78.7261 57.2618 76.7162 56.3239 74.9743C55.9219 74.0363 55.5199 72.5624 54.046 73.2323C52.84 73.7683 53.108 75.1082 53.376 76.1802C54.448 80.468 57.2618 83.9518 61.1476 85.5597C65.1674 87.1676 68.7852 88.9095 71.0631 92.7954C71.7331 93.0633 88.7502 93.1973 89.2862 92.7954C91.2961 91.5894 93.172 91.5894 94.9139 93.1973C96.6558 94.8053 98.2637 94.5373 99.8717 93.3313C100.944 92.5274 101.882 91.8574 103.221 91.9914C104.561 92.1254 105.499 92.9293 105.901 94.2693C106.303 95.6092 105.365 96.2792 104.427 96.9491C102.954 97.8871 101.346 98.2891 99.6037 98.2891C83.6585 98.2891 67.5793 98.691 51.6341 98.1551C47.7483 96.8151 43.5945 96.2792 40.1107 94.0013C39.9767 93.8673 39.8427 93.5993 39.7087 93.4653C38.1008 91.0534 35.1529 90.5175 32.875 88.9095C27.7833 85.4257 24.4335 80.2 20.2797 75.7782Z" fill="#59B387"/>
<path d="M102.283 9.58578C100.273 10.5237 100.541 12.2656 100.407 14.0076C100.273 15.7495 100.407 17.4914 100.139 19.0993C99.0669 24.191 97.861 24.593 93.9752 21.2432C93.0373 20.4392 92.0993 19.5013 90.6254 19.5013C91.1613 22.4491 91.5633 25.263 92.0993 28.0769C93.0372 30.0868 93.7072 32.2306 91.1613 33.7046C85.6676 32.0967 83.1217 27.5409 80.0399 23.3871C79.2359 22.3151 78.298 21.2432 77.0921 19.5013C75.7521 25.129 73.2062 23.1191 70.3924 21.2432C64.8987 17.2234 59.4049 13.4716 53.9112 9.45179C53.5092 8.37985 51.9013 8.51384 51.7673 6.77193C59.137 6.77193 66.3726 6.77193 73.6082 6.77193C82.0498 6.77193 90.3574 6.77193 98.799 6.77193C100.675 6.77193 102.551 6.63793 102.283 9.58578Z" fill="#363D2E"/>
<path d="M122.785 47.9082C120.239 47.5062 117.559 47.1042 115.013 46.7022C114.477 46.5682 113.807 46.3002 113.405 46.0323C112.2 45.0943 112.066 33.1689 113.137 32.097C115.013 30.489 116.621 31.963 118.229 32.6329C122.785 34.5088 127.207 37.0547 132.299 37.7247C133.236 39.8686 135.246 39.4666 136.988 39.6006C138.596 41.2085 137.524 43.6204 138.462 45.3623C138.596 46.1662 139.534 45.3623 138.864 45.6303C138.73 45.7643 138.596 45.6303 138.462 45.3623C138.06 44.1564 137.658 43.0844 138.864 42.1465C141.544 47.6402 140.606 53.5359 140.606 59.1636C137.792 58.3596 139.802 55.9478 139.132 54.4738C138.596 52.9999 140.472 50.722 137.792 49.9181C135.916 50.722 134.04 51.124 132.165 49.7841C131.763 48.1762 133.638 48.0422 133.906 46.7022C135.246 43.6204 133.102 42.4144 130.959 41.4765C127.743 40.1366 124.393 38.7966 121.043 37.5907C119.703 37.0547 117.425 34.6428 116.621 37.9927C116.085 40.4045 116.085 43.3524 119.435 43.8884C122.651 44.4243 125.599 45.7643 128.949 45.8983C130.289 45.8983 132.299 45.4963 132.031 48.0422C128.949 48.9801 125.867 48.1761 122.785 47.9082Z" fill="#383E29"/>
<path d="M138.863 42.0121C138.729 43.352 138.595 44.692 138.461 46.2999C136.719 44.022 136.719 41.7441 136.853 39.4662C137.523 39.0643 138.059 38.7963 138.729 38.3943C138.863 39.6002 138.863 40.8062 138.863 42.0121Z" fill="#202118"/>
<path d="M3.52954 60.7713C5.13746 58.8954 3.12756 56.0816 5.27145 54.3397C5.27145 55.6796 5.40545 57.0195 5.40545 58.3595C6.07541 58.7614 6.3434 59.5654 7.28135 60.3694C8.62128 56.0816 9.82722 51.5258 15.4549 51.6598C16.5269 51.2578 17.7328 50.9898 19.0728 50.4539C19.0728 52.8657 19.0728 55.1436 19.0728 57.4215C16.9289 57.4215 17.8668 55.0096 16.3929 54.4737C11.1672 58.4935 13.847 62.5132 16.2589 66.533C18.2688 65.4611 16.5269 62.9152 18.2688 61.4413C20.0107 63.9872 18.9388 66.667 19.0728 69.2129C19.0728 69.4809 18.2688 70.0169 18.1348 70.0169C14.651 67.069 14.785 71.4908 13.311 72.4287C12.5071 72.0268 11.9711 71.4908 12.1051 70.6868C13.1771 66.533 12.3731 64.7911 7.41534 65.5951C5.40545 65.7291 3.52954 63.4512 3.52954 60.7713Z" fill="#315440"/>
<path d="M15.4567 51.5258C12.1069 52.8657 9.69501 54.8756 9.02504 58.6274C8.75706 59.9674 9.963 62.3792 7.8191 62.5132C5.27323 62.6472 5.67521 60.1013 5.40723 58.3594C6.47917 53.9377 9.29303 50.7218 13.1788 48.5779C14.2508 48.042 15.5907 47.372 16.5287 48.5779C17.7346 49.9179 15.7247 50.4538 15.4567 51.5258Z" fill="#58A983"/>
<path d="M16.2591 66.399C10.7654 62.3792 9.82744 57.0195 16.3931 54.3396C16.3931 58.3594 16.3931 62.3792 16.2591 66.399Z" fill="#43966C"/>
<path d="M96.9247 169.842C95.7188 171.584 93.8429 171.048 92.235 171.048C80.5776 171.182 68.9202 171.182 57.1288 171.45C55.9228 171.45 55.6548 170.646 54.9849 170.11C53.9129 169.038 54.7169 167.832 54.9849 166.76C55.9228 164.482 56.4588 161.936 59.2726 160.864C66.7763 161.936 74.2799 162.874 81.7835 162.338C83.6594 162.204 85.4013 162.338 87.2772 161.802C95.0488 159.658 97.3267 161.534 96.9247 169.842Z" fill="#E9E8E4"/>
<path d="M96.9236 169.842C96.6556 167.698 94.9137 166.224 95.0477 163.812C95.0477 161.802 93.4398 161.132 91.6979 161.668C81.1124 164.884 70.527 164.348 59.9415 161.534C59.5395 161.4 59.0036 161.668 58.6016 161.668C58.4676 160.06 55.1178 159.39 57.5296 157.246C61.8174 158.05 66.2392 158.184 69.857 160.864C69.857 160.998 69.857 161.132 69.857 161.266C69.857 161.4 69.723 161.534 69.589 161.534C74.1448 160.73 78.8346 161.668 83.3903 160.864C86.2042 158.184 90.224 158.586 93.4398 157.112C95.4497 156.175 96.7896 155.237 97.3256 153.227C98.3976 152.423 99.3355 152.959 100.407 153.361C101.345 153.897 102.551 154.031 103.355 153.361C103.623 153.093 102.283 152.691 102.015 151.887C102.417 150.279 103.891 150.011 105.231 149.609C106.169 149.475 107.107 149.475 108.045 150.011C109.117 151.887 110.591 153.629 111.127 155.773C111.127 159.39 111.127 163.008 111.127 166.626C110.859 167.43 110.189 167.698 109.519 167.564C107.375 165.554 108.983 162.874 108.715 160.596C108.447 158.05 107.777 157.38 105.231 158.318C99.3355 160.328 98.9335 160.73 99.3355 166.224C99.0675 167.564 98.9335 169.038 97.7276 169.976C97.3256 170.11 97.1916 169.976 96.9236 169.842Z" fill="#584838"/>
<path d="M110.725 155.102C108.447 154.432 107.643 152.958 108.045 150.681C108.045 149.743 108.581 148.269 107.241 148.135C105.767 148.001 105.633 149.609 105.365 150.681C104.427 151.217 103.489 151.752 102.551 152.422C102.417 153.494 101.747 154.164 100.676 154.298C99.7376 154.03 98.7996 153.762 97.8617 153.36C97.0577 153.494 96.6557 153.092 96.2538 152.422C95.9858 151.752 95.8518 151.217 95.8518 150.547C95.8518 147.733 95.7178 144.785 92.9039 143.043C92.5019 142.507 92.502 141.837 92.502 141.167C92.6359 140.765 92.7699 140.363 93.0379 140.095C94.6458 139.827 95.9858 138.755 97.4597 138.219C100.14 140.631 98.7996 144.383 100.542 147.465C103.087 146.259 103.489 142.105 106.973 142.373C110.055 142.641 111.395 145.589 113.941 147.465C114.611 143.713 114.745 140.095 113.539 136.611C112.869 134.869 112.333 133.127 113.137 131.252C113.405 130.85 113.807 130.582 114.209 130.582C116.085 131.252 115.281 133.395 116.353 134.467C116.889 140.497 115.951 146.527 117.023 152.556C117.291 153.762 116.353 154.164 115.281 154.298C113.807 154.298 114.343 150.949 112.065 152.422C110.591 152.958 111.663 154.566 110.725 155.102Z" fill="#3F2A18"/>
<path d="M55.7883 167.296C55.5204 168.234 55.2524 169.172 55.1184 169.976C54.4484 172.12 53.6444 174.397 52.9745 176.541C50.1606 178.283 46.9448 177.345 43.9969 177.479C43.595 177.479 42.925 177.479 42.657 177.211C40.9151 174.933 42.121 172.254 41.853 169.708C41.5851 167.698 42.925 167.028 44.6669 167.028C47.2128 165.152 50.0266 165.956 52.8405 165.956C53.7784 166.224 54.9844 166.358 55.7883 167.296Z" fill="#253636"/>
<path d="M97.5933 170.11C97.8612 168.904 97.1913 167.296 98.5312 166.358C102.015 165.688 105.365 165.286 108.715 167.162C109.385 167.162 110.055 167.162 110.725 167.296C110.859 167.698 111.127 168.1 111.127 168.636C111.663 178.551 110.725 179.355 100.541 177.613C98.6652 175.469 98.5312 172.656 97.5933 170.11Z" fill="#263535"/>
<path d="M100.542 177.479C110.86 177.747 110.86 177.747 110.726 167.296C110.726 163.276 110.726 159.122 110.726 155.103C110.86 154.165 110.458 152.825 111.932 152.557C111.932 158.72 111.798 165.018 111.932 171.182C112.066 178.819 112.2 178.819 104.428 178.551C103.088 178.551 101.48 179.087 100.542 177.479Z" fill="#664F4B"/>
<path d="M162.983 174.799C162.983 175.067 162.983 175.335 162.849 175.469C159.097 176.541 159.231 174.129 159.231 171.584C159.231 155.772 159.365 139.827 159.231 124.016C159.231 115.44 158.159 106.865 158.695 98.2893C159.365 88.2398 159.097 78.1903 159.365 68.0068C159.365 66.9349 159.365 65.595 160.839 65.595C162.313 65.729 162.179 67.0689 162.179 68.1408C162.179 69.2128 162.179 70.2847 162.179 71.3567C162.179 104.051 162.179 136.611 162.179 169.306C162.179 171.182 161.643 173.192 162.983 174.799Z" fill="#B1916E"/>
<path d="M149.181 122.408C150.119 121.872 150.923 121.336 151.861 120.666C149.717 117.852 150.655 114.637 150.521 111.689C150.387 107.937 150.521 104.185 150.521 100.567C150.521 98.1554 149.449 96.8155 146.903 96.8155C142.213 96.6815 137.523 96.0115 134.978 101.639C134.174 103.515 131.896 103.917 130.824 101.907C126.268 94.0016 119.166 96.9495 112.601 97.4855C110.725 98.0214 108.715 98.8254 106.705 97.8874C104.963 96.0115 107.107 95.3416 107.911 94.4036C108.715 93.3317 110.189 93.1977 111.127 92.1257C111.663 91.5898 112.333 91.3218 113.003 91.3218C115.013 91.9917 117.29 91.9917 119.3 92.9297C123.186 95.2076 127.34 93.5997 131.36 94.0016C132.566 96.8155 133.772 93.5997 134.978 94.0016C141.677 94.0016 148.243 94.1356 154.809 93.8677C155.746 94.1356 157.756 94.1356 156.282 95.4756C153.201 98.1554 154.273 101.237 154.675 104.453C154.942 105.659 154.942 106.865 154.809 107.937C154.139 109.947 154.139 111.957 154.541 113.967C154.541 114.637 154.407 115.307 153.871 115.843C153.201 117.048 152.799 118.388 152.933 119.728C153.067 122.944 151.325 123.078 149.181 122.408Z" fill="#29180C"/>
<path d="M162.849 61.8433C161.777 62.6472 160.705 62.7812 159.365 62.6472C156.819 56.3496 158.695 49.7839 158.293 43.3522C161.643 41.4763 162.849 42.9502 162.849 46.1661C162.983 51.3918 162.849 56.6175 162.849 61.8433Z" fill="#AFB5BF"/>
<path d="M153.604 115.976C153.604 115.306 153.604 114.77 153.604 114.1C154.274 112.225 154.944 110.349 153.604 108.339C153.604 107.133 153.47 105.927 153.47 104.721C153.604 104.453 153.604 104.319 153.738 104.051C154.944 101.639 153.738 98.8252 155.212 96.4133C156.284 95.6094 156.82 96.4133 157.356 97.2173C157.356 102.443 157.222 107.669 157.49 112.895C157.624 116.11 156.686 117.182 153.604 115.976Z" fill="#294732"/>
<path d="M132.298 94.5377C127.608 93.7337 122.784 95.4756 118.363 93.4657C118.363 91.7238 118.899 90.9199 120.774 91.8578C120.908 92.5278 120.506 93.4657 121.712 93.4657C132.968 93.0638 144.223 94.1357 155.479 92.9298C155.479 93.1978 155.479 93.5997 155.613 93.8677C155.479 94.0017 155.479 94.1357 155.345 94.4037C147.975 94.4037 140.605 94.5377 133.102 94.5377C132.834 94.8057 132.566 94.8057 132.298 94.5377Z" fill="#59B387"/>
<path d="M155.211 94.2696C155.211 94.1356 155.345 93.8676 155.479 93.7336C158.293 93.7336 157.087 95.8775 157.221 97.2175C156.551 96.9495 155.881 96.6815 155.345 96.4135C153.469 98.9594 155.613 102.175 153.737 104.721H153.469C153.067 101.237 150.253 97.2175 155.613 94.9396C155.613 94.9396 155.613 94.6716 155.613 94.5376C155.479 94.5376 155.345 94.4036 155.211 94.2696Z" fill="#282D1F"/>
<path d="M178.928 27.2727C180.804 22.047 179.464 16.5533 179.866 11.1935C180 9.9876 179.866 8.64767 179.866 7.44173C179.866 6.36979 179.732 5.02985 181.34 5.16385C182.546 5.29784 182.546 6.36979 182.546 7.30774C182.278 13.0694 183.35 18.8312 181.742 24.4589C180.536 32.9004 175.31 37.8582 168.075 41.476C167.137 41.878 165.931 42.8159 165.261 41.476C164.725 40.2701 166.199 39.8681 167.137 39.3321C172.765 36.9202 176.516 32.7664 178.928 27.2727Z" fill="#768493"/>
<path d="M161.24 5.83388C161.24 16.6873 161.24 27.6748 161.24 38.5282C159.767 39.1982 159.365 38.6622 159.365 37.1883C159.365 27.2728 159.365 17.3573 159.499 7.30781C159.365 6.36986 158.829 4.22597 161.24 5.83388Z" fill="#7C899B"/>
<path d="M141.544 24.4589C142.214 26.0668 142.75 27.6748 143.42 29.2827C145.697 34.1064 149.449 37.3223 154.273 39.4662C155.345 39.8682 156.685 40.4041 156.015 41.6101C155.345 42.816 154.139 41.878 153.201 41.4761C147.305 39.0642 143.152 35.0444 140.74 29.1487C139.534 28.6127 139.266 27.6748 139.4 26.4688C139.936 25.2629 139.534 23.789 140.472 22.583C140.874 22.315 141.276 22.449 141.544 22.851C141.41 23.387 141.544 23.923 141.544 24.4589Z" fill="#748491"/>
<path d="M139.801 26.2007C140.069 27.1386 140.337 28.0766 140.605 29.1485C139.399 29.9525 139.667 31.1584 139.533 32.2304C138.997 30.8904 137.524 29.9525 137.792 28.2106C139.935 22.5829 138.194 16.6872 138.73 11.0594C138.997 9.04954 137.926 6.77166 139.667 4.89575C141.409 11.9974 140.739 19.099 139.801 26.2007Z" fill="#4B5258"/>
<path d="M178.123 5.29785C179.731 12.5335 178.659 19.7691 178.659 27.1387C177.185 19.9031 178.391 12.6675 178.123 5.29785Z" fill="#3B3D40"/>
<path d="M106.17 97.2175C108.046 97.3515 110.056 97.3515 111.797 96.4136C115.281 100.567 116.219 105.793 118.229 110.617C117.827 111.153 117.559 111.689 117.157 112.091C116.889 112.225 116.621 112.225 116.353 112.359C115.415 112.761 114.745 112.225 113.941 111.689C113.673 111.421 113.271 111.019 113.137 110.617C112.869 110.215 112.735 109.813 112.601 109.411C112.199 105.793 111.128 102.577 108.18 100.299C95.4503 100.969 82.8549 100.031 70.1256 101.103C62.354 101.773 54.7164 100.701 47.0787 99.8974C43.0589 99.2274 42.389 102.443 41.585 105.123C36.3593 117.852 38.9051 131.252 38.2352 144.249C38.2352 145.053 38.7712 145.723 39.3071 146.259C40.1111 149.743 38.7712 151.217 35.1533 150.547C35.1533 141.837 35.0193 133.128 35.2873 124.284C35.4213 121.738 33.8134 120.8 32.2055 119.728C30.3296 119.192 30.9995 118.12 31.8035 117.183C34.6174 115.575 34.4834 112.493 35.1533 109.947C36.3593 105.123 38.1012 100.567 39.8431 96.0116C39.8431 95.8776 39.8431 95.6096 39.8431 95.4756C40.3791 94.8057 41.183 94.8057 41.987 94.9396C44.6669 96.8156 48.1507 96.0116 50.9645 97.4855C67.4457 98.1555 84.0609 97.6195 100.81 97.7535C102.552 97.7535 104.16 96.0116 106.17 97.2175Z" fill="#342315"/>
<path d="M32.3383 117.584C31.2663 118.254 31.2663 119.058 32.2043 119.862C34.4822 124.284 34.3482 128.974 34.2142 133.797C34.2142 135.271 34.7501 137.415 32.4723 137.549C29.7924 137.683 26.7106 138.755 24.4327 136.879C23.2267 135.941 23.8967 133.663 24.4327 132.055C26.0406 127.5 27.1125 122.81 27.5145 117.986C28.0505 114.636 29.9264 115.44 32.0703 116.512C32.3383 116.78 32.4723 117.048 32.4723 117.316C32.3383 117.45 32.3383 117.584 32.3383 117.584Z" fill="#41976B"/>
<path d="M22.0217 149.475C26.0415 149.207 30.3293 150.547 34.2151 146.661C34.2151 149.743 34.2151 152.021 34.2151 154.299C34.2151 155.236 34.4831 156.308 35.689 156.174C36.761 156.04 37.029 155.102 37.029 154.031C35.957 151.887 36.761 150.145 38.9049 150.145C40.7808 150.011 40.9148 152.155 40.9148 153.629C40.9148 155.37 40.6468 156.978 38.7709 157.782C34.7511 159.524 30.5973 158.988 26.5775 158.72C23.6296 158.586 21.7537 156.844 22.0217 153.495C22.1557 152.289 22.0217 150.949 22.0217 149.475Z" fill="#40976B"/>
<path d="M38.7709 157.916C40.2448 155.772 39.9768 153.36 39.4408 150.547C37.6989 151.485 37.1629 152.825 37.0289 154.298C33.1431 154.566 36.091 151.619 35.153 150.547C37.4309 149.743 39.5748 148.805 38.6369 145.723C38.5029 145.321 38.6369 145.053 39.0388 144.785C39.8428 144.785 40.5128 145.187 41.0487 145.857C41.5847 146.661 41.7187 147.599 42.2547 148.403C42.6567 148.805 43.0586 149.207 43.4606 149.743C43.8626 150.145 44.2646 150.681 44.6666 151.217C44.9345 151.887 45.3365 153.092 44.8006 153.36C42.1207 154.834 42.2547 157.514 41.7187 159.926C41.1827 159.926 40.5128 159.792 39.9768 159.792C39.5748 158.988 39.1728 158.452 38.7709 157.916Z" fill="#292413"/>
<path d="M22.0222 144.919C22.8262 141.703 27.7839 139.693 30.4638 141.435C31.2677 141.971 31.2677 142.641 31.2677 143.445C31.1338 145.053 30.3298 146.125 28.8559 146.527C26.31 147.331 24.0321 146.661 22.0222 144.919Z" fill="#54AB82"/>
<path d="M32.2053 117.048C30.5973 116.78 28.7214 114.904 27.5155 117.718C25.9076 118.254 26.0416 120.264 24.9696 121.202C23.2277 120.264 24.0317 118.924 24.0317 117.852C24.9696 115.306 27.7835 114.904 29.3914 113.162C29.7934 112.894 30.1954 112.76 30.7313 113.028C32.2053 114.1 33.6792 115.038 32.2053 117.048Z" fill="#202820"/>
<path d="M22.0218 149.474C20.6819 148.001 20.6819 146.393 22.0218 144.919C22.9597 149.742 27.2475 146.527 29.5254 148.135C27.1135 149.474 24.2997 147.465 22.0218 149.474Z" fill="#163724"/>
<path d="M164.858 104.721C164.858 103.247 164.858 101.639 164.858 100.165C164.858 98.9595 164.59 97.4856 166.466 97.6196C168.074 97.7536 168.476 98.9595 168.476 100.299C168.476 104.319 168.476 108.339 168.476 112.359C166.332 113.029 164.456 113.431 164.858 110.081C165.126 108.205 164.858 106.463 164.858 104.721Z" fill="#3B8660"/>
<path d="M184.555 4.76221C184.555 10.2559 184.555 15.8836 184.555 21.3774C184.019 15.8836 182.411 10.2559 184.555 4.76221Z" fill="#3E4140"/>
<path d="M52.84 167.296C50.0261 167.296 47.3463 167.162 44.5324 167.162C43.5944 163.41 41.9865 159.524 45.4704 156.174C49.2222 155.504 52.036 157.648 54.7159 159.524C57.2618 161.266 56.4578 164.482 52.84 167.296Z" fill="#B1926E"/>
<path d="M52.8404 167.296C56.4582 162.07 56.0562 160.73 50.4285 158.318C48.6866 157.514 47.0787 156.844 45.3368 156.174C43.8628 154.834 42.9249 155.102 42.6569 157.112C42.5229 158.05 42.7909 159.256 41.585 159.926C41.719 157.514 41.183 154.968 43.8628 153.36C44.8008 152.825 43.8628 151.619 43.5949 150.815C45.8727 148.537 48.6866 149.609 51.2325 149.609C53.5104 150.145 55.5203 150.949 56.7262 153.226C56.8602 155.236 55.5203 155.102 54.3143 154.7C52.8404 154.432 51.5005 153.628 49.6246 153.896C51.9024 155.504 55.1183 155.37 56.4582 158.184C57.2622 159.39 59.674 159.658 58.3341 161.936C57.3962 163.812 56.4582 165.688 55.5203 167.43C54.7163 167.296 53.7783 167.296 52.8404 167.296Z" fill="#494232"/>
<path d="M138.863 66.5329C137.389 70.5527 136.585 74.8405 133.101 77.9223C132.297 77.2523 132.431 76.4484 132.967 75.7784C135.513 68.6768 139.131 61.9771 138.729 54.0715C138.595 52.5976 139.131 50.9897 137.657 49.7837C139.399 47.5058 139.265 49.6497 139.533 50.5877C140.069 53.4015 138.595 56.3494 140.471 59.0293C141.543 61.8431 138.595 63.853 138.863 66.5329Z" fill="#404F42"/>
<path d="M118.23 110.617C114.076 106.865 113.808 101.237 111.798 96.4135C116.756 94.5376 121.847 95.7436 126.939 95.6096C129.887 95.6096 129.619 98.6914 130.825 100.299C132.165 102.041 132.835 103.649 134.443 100.567C135.381 98.8254 135.515 95.8776 138.195 95.7436C142.348 95.4756 146.502 95.4756 150.656 95.8776C152.398 96.0116 151.862 98.1554 151.862 99.3614C151.862 106.463 151.862 113.565 151.862 120.666C144.76 120.666 138.73 116.647 132.165 114.905C127.475 113.699 122.785 112.091 118.23 110.617Z" fill="#C23703"/>
<path d="M41.7187 95.4755C41.0487 95.4755 40.3788 95.4755 39.7088 95.4755C38.3689 95.3415 37.1629 95.3415 35.823 95.2075C35.823 91.7237 38.1009 93.4656 39.5748 93.5996C40.2448 94.4035 42.1207 93.5996 41.7187 95.4755Z" fill="#272418"/>
<path d="M114.745 111.287C115.281 111.689 115.817 111.957 116.353 112.359C116.621 114.904 115.683 117.45 117.157 119.862C117.023 123.212 117.827 126.696 116.621 130.046C115.415 129.644 114.879 128.706 114.477 127.634C114.209 122.14 113.272 116.78 114.745 111.287Z" fill="#6F3C31"/>
<path d="M115.549 128.036C115.951 128.706 116.219 129.242 116.621 129.912C116.487 131.385 116.353 132.993 116.219 134.467C114.477 133.797 114.477 132.323 114.477 130.716C113.941 129.51 114.477 128.706 115.549 128.036Z" fill="#231408"/>
<path d="M32.2048 117.048C32.7407 115.306 30.9988 114.502 30.5968 113.162C29.7929 111.42 27.917 109.812 29.5249 107.535C31.4008 99.361 34.0807 95.8772 39.8424 96.1452C40.7803 97.0831 40.9143 98.0211 40.2443 99.093C37.4305 104.051 36.6265 109.544 35.2866 114.904C34.8846 116.512 34.4826 117.986 32.3387 117.584L32.2048 117.048Z" fill="#C33804"/>
<path d="M29.5263 107.535C28.5884 109.679 32.2062 110.884 30.5983 113.162C30.1963 113.162 29.9283 113.162 29.5263 113.162C27.1145 112.76 27.7844 110.885 27.7844 109.411C28.3204 108.741 28.8564 108.205 29.5263 107.535Z" fill="#9B2D0F"/>
<path d="M139.802 26.2007C139.4 19.099 139.4 11.9974 139.802 4.89575C140.07 4.89575 140.338 4.89575 140.606 4.89575C141.678 10.7915 141.276 16.6872 140.874 22.4489C140.338 23.7888 141.008 25.2627 139.802 26.2007Z" fill="#91A5B6"/>
<path d="M140.74 22.4489C140.606 16.5532 140.606 10.6575 140.472 4.89575C142.75 10.7915 141.008 16.8211 141.41 22.8508C141.142 22.7169 141.008 22.5829 140.74 22.4489Z" fill="#4B5258"/>
<path d="M106.17 97.2172C91.4303 99.3611 76.691 97.7532 61.9518 98.1552C57.932 98.2892 53.9122 98.9591 50.0264 97.3512C50.2944 96.8152 50.6963 96.6812 51.2323 97.0832C66.6415 97.0832 81.9168 97.2172 97.326 97.2172C99.7379 97.2172 102.016 96.9492 104.16 96.1453C105.232 95.7433 106.438 95.4753 105.366 94.0014C104.696 93.1974 103.892 91.9915 102.686 93.1974C99.3359 96.4133 96.254 97.2172 93.0382 93.0634C92.5022 92.3934 91.5643 92.9294 91.0283 93.4654C90.3583 94.0014 89.6884 94.6713 88.8844 95.2073C85.1326 97.6192 82.0508 91.8575 79.3709 93.5994C75.7531 96.1453 73.0732 96.1453 69.8574 93.5994C68.5174 91.8575 68.2495 89.9816 68.5174 87.8377C70.2593 84.6219 73.3412 84.8898 76.289 85.0238C86.8745 85.1578 97.46 85.4258 108.045 85.0238C109.787 85.0238 111.529 84.7558 113.137 85.5598C114.209 86.0958 115.013 86.8997 115.013 88.1057C115.013 89.5796 113.539 89.4456 112.601 89.8476C111.127 90.3836 109.251 89.8476 107.777 90.9195C108.581 93.0634 110.725 91.9915 111.931 92.7954C110.993 95.4753 106.973 94.5373 106.17 97.2172Z" fill="#264232"/>
<path d="M111.663 88.776C112.065 87.4361 114.075 89.044 114.075 87.5701C114.075 86.6321 112.869 85.9622 111.931 86.2301C105.767 87.4361 99.4697 84.7562 93.306 87.1681C91.0281 88.1061 89.8221 85.1582 88.3482 85.5602C82.9885 87.3021 77.6288 85.9622 72.403 86.0961C70.7951 86.0961 69.9911 87.3021 68.7852 87.9721C67.5793 86.7661 68.1152 85.2922 68.5172 83.9523C69.1872 83.0143 70.1251 82.6123 71.1971 82.7463C71.5991 82.8803 72.001 83.0143 72.403 83.2823C75.6189 84.6222 77.4948 83.6843 77.8968 80.2004C78.0307 78.1905 79.3707 77.3866 80.8446 76.7166C83.9264 77.1186 82.1845 80.3344 83.9264 81.5404C85.8024 82.6123 87.8123 81.6744 89.8222 81.9424C91.2961 82.4783 92.636 83.2823 94.2439 82.4783C94.6459 82.3443 95.0479 82.3443 95.4499 82.2103C96.9238 82.0764 98.3977 82.2104 99.7376 81.8084C102.016 80.7364 100.944 76.8506 104.159 76.7166C104.427 76.4486 104.695 76.0467 104.963 75.7787C106.169 75.3767 106.437 76.3146 106.839 77.2526C107.241 78.5925 106.303 80.0665 106.839 81.4064C108.715 82.8803 110.591 82.0764 112.601 81.5404C113.539 81.2724 114.209 80.0665 115.281 80.6024C115.147 84.2202 115.013 87.8381 115.817 91.8579C123.186 87.8381 128.144 81.8084 133.102 75.7787C133.102 76.4486 133.236 77.2526 133.236 77.9226C130.69 84.0863 125.464 87.7041 120.641 91.7239C119.435 91.5899 118.765 92.5278 118.229 93.3318C116.487 92.2598 114.075 93.3318 112.601 91.5899C111.663 90.9199 111.529 89.848 111.663 88.776Z" fill="#2D523E"/>
<path d="M30.8648 52.4639C26.3091 52.4639 22.9592 49.382 23.0932 45.2282C23.2272 40.4045 26.7111 36.9207 31.4008 36.9207C35.8226 36.9207 39.0384 40.4045 39.0384 45.0942C38.7704 49.918 36.0906 52.4639 30.8648 52.4639Z" fill="#41986C"/>
<path d="M55.7872 51.6593C55.2512 49.6494 55.2512 49.6494 52.8393 49.7834C50.4274 49.9174 46.8096 52.3293 46.4076 47.5055C45.7377 40.6718 46.2736 39.5999 51.3654 38.394C57.7971 36.786 64.0947 34.5082 70.3924 32.3643C72.9383 31.5603 75.4842 31.5603 78.164 31.9623C78.7 36.652 79.6379 41.3418 77.3601 45.8976C75.6182 46.7015 73.8762 46.1656 72.1343 46.2996C71.3304 46.1656 70.9284 45.7636 70.5264 45.0936C73.4743 42.5478 74.9482 39.3319 74.9482 35.1781C68.5165 37.188 61.9508 39.0639 55.5192 41.3418C53.7773 41.8778 50.6954 42.0118 51.0974 44.5576C51.4994 46.9695 54.3132 45.0936 55.9211 45.8976C57.931 46.5675 59.539 47.9075 61.5489 48.5774C61.6829 48.9794 61.8169 49.3814 61.6829 49.9174C60.2089 51.7933 59.003 54.2052 56.1891 54.4731C54.9832 53.8032 54.8492 52.8652 55.7872 51.6593Z" fill="#3B4631"/>
<path d="M68.7852 84.2199C69.7231 85.4258 68.6512 86.7657 68.7852 87.9717C68.3832 89.9816 69.4551 91.7235 69.5891 93.5994C68.6512 93.1974 67.9812 92.5274 67.8472 91.5895C67.7132 89.3116 66.7753 89.1776 64.4974 88.6416C58.6017 87.1677 54.1799 83.0139 52.17 77.1182C51.5001 75.2423 50.9641 72.5625 53.6439 71.4905C56.7258 70.2846 56.5918 73.3664 57.3958 74.9743C58.6017 77.5202 59.5396 79.9321 62.2195 81.54C66.3733 84.0859 66.9093 83.9519 67.8472 79.2621C67.9812 78.7261 68.3832 78.1902 68.6512 77.6542C70.6611 79.7981 69.9911 82.076 68.7852 84.2199Z" fill="#449B6E"/>
<path d="M133.906 63.719C132.165 68.0068 126.939 71.0886 122.651 70.1507C118.363 69.3467 113.137 63.853 112.735 60.1012C112.602 58.4933 113.271 57.2873 114.745 56.8853C117.961 56.0814 121.311 55.2774 124.393 57.2873C123.589 58.2253 123.455 59.2972 123.455 60.5032C123.321 61.1731 123.053 61.7091 122.517 61.9771C120.909 62.1111 119.971 60.1012 118.229 60.6372C119.435 65.3269 121.847 66.2649 127.073 64.121C127.609 63.853 128.279 63.719 128.949 63.853C130.825 66.5329 132.299 62.781 133.906 63.719Z" fill="#4E6B59"/>
<path d="M90.2242 72.0266C89.6882 68.0068 92.9041 65.3269 94.244 62.1111C94.914 60.5032 97.4599 60.1012 98.5318 61.9771C100.408 65.0589 102.954 68.0068 102.284 72.0266C98.2638 74.9744 94.244 72.2946 90.2242 72.0266Z" fill="#1B3A29"/>
<path d="M90.224 72.0266C94.2438 72.0266 98.2636 72.0266 102.283 72.0266C100.943 74.4385 102.015 75.7784 104.159 76.7164C100.943 77.7883 104.025 82.3441 100.541 83.282C99.3356 81.6741 101.345 77.9223 97.8616 77.9223C94.6458 77.9223 95.7177 81.4061 94.9138 83.282C94.5118 83.282 94.2438 83.416 93.8418 83.416C91.8319 83.282 92.2339 81.5401 91.8319 80.4682C91.43 79.3962 91.296 78.4583 89.822 78.9943C85.1323 77.2523 85.1323 77.2523 82.9884 83.282C80.4425 81.6741 83.1224 78.4583 80.8445 76.7164C83.3904 72.9646 86.4722 72.9646 89.956 75.1085C90.626 75.5104 91.296 76.0464 91.9659 76.1804C93.3059 76.5824 93.9758 75.3764 94.2438 74.4385C94.7798 72.9646 93.4399 73.0986 92.6359 73.0986C91.6979 72.9646 90.76 73.0986 90.224 72.0266Z" fill="#395D47"/>
<path d="M55.7874 51.6597C55.6534 52.7316 55.5194 53.8036 56.7253 54.3395C57.7973 55.2775 57.6633 56.4834 57.7973 57.6894C58.6012 64.121 60.3431 65.461 67.0428 64.791C67.8468 64.523 68.6507 64.255 69.4547 64.121C70.9286 63.987 71.8666 64.791 72.2685 66.1309C68.5167 70.6867 64.0949 71.2227 58.8692 68.0068C53.7775 64.791 51.6336 58.7613 54.0455 54.2055C54.5814 53.4016 54.4474 52.1956 55.7874 51.6597Z" fill="#456953"/>
<path d="M50.4284 22.8509C50.1604 25.5307 48.2845 27.1387 45.8726 27.0047C43.5947 26.8707 41.8528 24.9948 41.8528 22.5829C41.8528 20.037 43.5947 18.0271 46.1406 18.1611C48.6864 18.2951 50.4284 20.037 50.4284 22.8509Z" fill="#439B6E"/>
<path d="M68.7846 84.2198C68.7846 82.0759 68.6506 79.798 68.6506 77.6541C72.8044 72.4284 74.0104 72.4284 80.844 76.7162C79.2361 77.9221 78.9681 79.664 78.9681 81.5399C78.9681 83.4158 77.7622 84.7558 75.8863 85.0237C74.2784 85.1577 72.0005 86.2297 71.5985 83.2818C72.5364 82.2099 73.8764 82.4779 74.9483 81.9419C76.1543 81.5399 76.6902 80.736 76.5562 79.53C76.4222 78.7261 76.0203 78.0561 75.2163 77.9221C74.0104 77.6541 73.2064 78.3241 72.5364 79.396C71.7325 80.602 72.2685 82.0759 71.5985 83.4158C70.6605 83.5498 69.7226 83.8178 68.7846 84.2198Z" fill="#395D47"/>
<path d="M80.04 23.3867C83.7918 26.8705 87.4097 30.3544 91.1615 33.7042C90.8935 35.1781 92.0994 37.188 90.2235 37.858C88.6156 38.394 88.3476 36.1161 87.4097 35.1781C84.0598 31.9623 80.576 28.6125 80.04 23.3867Z" fill="#459C70"/>
<path d="M133.906 63.719C132.433 64.121 131.629 67.7388 129.485 64.523C128.949 63.585 129.485 62.915 129.887 62.2451C130.423 61.4411 130.825 60.5032 129.351 60.3692C128.011 60.2352 126.671 60.3692 125.197 60.3692C124.393 60.3692 123.455 60.5032 122.785 59.9672C121.445 57.9573 122.785 57.6893 124.393 57.4213C126.001 58.8952 127.609 57.4213 129.083 57.2873C134.844 56.6174 136.05 58.2253 133.906 63.719Z" fill="#321F12"/>
<path d="M61.2817 49.7838C61.2817 49.5158 61.2817 49.1138 61.2817 48.8458C63.9616 45.63 67.9814 46.4339 71.4652 45.8979C73.3411 45.8979 75.351 46.0319 77.2269 46.0319C76.557 46.8359 75.753 46.9699 74.8151 46.8359C70.6613 46.7019 71.7332 48.5778 73.2071 50.7217C72.5372 51.9276 71.4652 52.7316 70.1253 53.2676C68.7854 53.6696 67.4454 53.6696 66.2395 52.8656C66.3735 51.2577 66.5075 49.6498 63.9616 50.3197C63.0237 50.5877 61.9517 50.4537 61.2817 49.7838Z" fill="#405E47"/>
<path d="M115.415 80.4682C114.745 81.0042 114.075 81.6742 113.405 82.2102C112.333 81.1382 112.601 79.3963 110.993 78.7263C109.519 77.6544 107.509 78.8603 106.169 77.6544C106.169 76.8504 105.901 76.0465 105.097 75.6445C106.973 72.9646 109.653 73.2326 112.065 74.1706C114.477 75.3765 115.951 77.5204 115.415 80.4682Z" fill="#395D47"/>
<path d="M72.2688 66.2652C71.4649 65.5952 70.5269 65.0592 69.7229 64.3893C69.455 63.1833 70.3929 62.6473 70.9289 61.7094C72.5368 59.8335 73.2068 57.6896 72.8048 55.1437C72.9388 54.2058 73.4748 53.5358 74.4127 53.2678C77.3606 57.9576 76.8246 60.6375 72.2688 66.2652Z" fill="#382519"/>
<path d="M51.0977 97.2177C50.6957 97.3517 50.2937 97.3517 49.8917 97.4857C47.0779 96.9497 43.862 98.1556 41.5842 95.4758C40.9142 94.8058 40.2442 94.2698 39.7083 93.5999C43.728 94.2698 47.4799 95.4758 51.0977 97.2177Z" fill="#2F5B43"/>
<path d="M122.783 47.9079C125.865 47.372 129.215 48.7119 132.297 46.97C133.503 46.3 134.307 46.836 134.977 47.6399C134.039 48.3099 133.101 48.8459 132.297 49.5158C129.081 49.1139 125.865 48.4439 122.783 47.9079Z" fill="#404F42"/>
<path d="M77.2271 46.032C78.567 41.4762 77.897 36.7864 78.031 32.0967C79.103 36.7864 80.3089 41.4762 77.2271 46.032Z" fill="#405E47"/>
<path d="M74.4128 53.4015C74.0108 54.0715 73.7428 54.7414 73.3408 55.4114C71.7329 55.8134 70.661 55.1434 70.125 53.5355C70.125 52.9995 70.259 52.5976 70.527 52.1956C71.1969 51.2576 71.8669 50.4537 73.2068 50.5877C73.8768 51.5256 74.4128 52.3296 74.4128 53.4015Z" fill="#1D1D16"/>
<path d="M91.1628 33.8387C92.5028 32.0967 92.1008 30.0868 92.1008 28.2109C93.8427 30.4888 95.4506 32.6327 91.1628 33.8387Z" fill="#459C70"/>
<path d="M59.4056 8.51392C71.465 8.51392 83.6583 8.51392 95.7177 8.51392C97.1916 8.51392 98.6656 8.51392 98.6656 10.5238C98.7996 13.3377 98.9336 16.2855 96.6557 18.2954C95.1818 19.5014 94.3778 17.4915 93.3059 16.6875C91.6979 15.6156 90.09 13.0697 88.3481 14.1416C86.3382 15.3476 87.5441 18.1614 87.8121 20.1713C88.0801 22.3152 88.7501 24.3251 89.2861 26.737C84.8643 25.5311 83.6583 21.5113 80.7105 19.3674C79.6385 18.5634 78.8346 17.3575 77.7626 16.2855C76.6907 15.2136 75.7527 13.2037 74.2788 13.6057C72.0009 14.1416 73.7428 16.6875 72.4029 18.6974C67.8471 15.6156 63.2914 12.5337 58.7356 9.45187C59.0036 9.31788 59.1376 8.9159 59.4056 8.51392Z" fill="#977552"/>
<path d="M134.978 47.7735C134.04 47.5055 133.236 47.2375 132.298 47.1036C127.609 48.0415 123.455 45.2276 118.765 45.2276C115.951 45.2276 113.673 37.0541 115.683 34.7762C116.353 33.9722 116.889 34.3742 117.693 34.7762C122.651 36.7861 127.475 39.064 132.566 40.8059C136.72 42.1458 136.72 44.4237 134.978 47.7735Z" fill="#8F6F50"/>
<path d="M56.5924 158.05C53.2426 156.576 49.8927 155.236 46.2749 153.628C50.0267 150.815 53.3765 153.896 56.7264 153.361C57.1284 152.021 58.2003 151.485 59.4062 151.217C70.3937 150.815 81.3811 151.083 92.3686 151.083C93.9765 151.083 95.4504 151.217 96.6564 152.423C96.9244 152.691 97.3263 152.959 97.5943 153.361C98.3983 155.772 98.6663 157.514 95.1824 158.05C91.1626 158.72 87.4108 160.328 83.525 161.534C78.9693 162.472 74.4135 162.472 69.8577 161.534C65.4359 160.462 61.0142 159.256 56.5924 158.05Z" fill="#B0916E"/>
<path d="M108.715 167.162C105.365 166.894 101.881 167.966 98.5315 166.358C96.5216 160.194 96.5216 160.194 102.685 158.05C110.189 155.37 110.055 155.37 109.653 163.678C109.653 165.018 109.519 166.224 108.715 167.162Z" fill="#AF906F"/>
<path d="M105.098 150.681C103.088 148.537 104.83 147.331 106.303 146.393C107.643 145.455 108.581 146.929 109.251 147.867C110.323 149.341 109.787 150.413 107.911 150.815C106.973 150.681 106.035 150.681 105.098 150.681Z" fill="#357B58"/>
<path d="M69.8575 161.668C74.4133 161.668 78.9691 161.668 83.5248 161.668C83.9268 163.41 82.5869 162.74 81.9169 162.74C77.2271 162.74 72.5374 162.74 67.7136 162.74C68.2496 161.4 69.1876 161.936 69.8575 161.668Z" fill="#4F4331"/>
<path d="M100.408 154.164C101.078 153.494 101.614 152.958 102.284 152.288C103.624 152.422 104.963 152.556 106.705 152.556C102.686 155.772 102.284 155.906 100.408 154.164Z" fill="#927D63"/>
<path d="M38.9043 144.919C38.7703 145.187 38.6363 145.455 38.7703 145.589C38.1003 145.857 37.0284 148.135 37.0284 145.589C37.2964 131.52 34.7505 117.316 40.7802 103.783C42.1201 102.577 43.728 102.979 45.202 103.515C55.3854 106.999 66.1049 105.525 76.5564 105.927C80.3082 106.061 84.194 105.927 88.0798 105.659C90.8936 105.391 93.8415 106.195 93.9755 110.081C91.9656 113.699 93.7075 116.646 95.5834 119.728C97.3253 122.542 98.3973 122.676 99.8712 119.728C100.139 119.192 100.541 118.656 100.943 118.12C103.221 115.038 102.149 112.091 100.809 109.143C100.541 108.205 100.675 107.267 101.345 106.463C102.015 105.793 102.953 105.525 103.757 105.123C111.529 102.443 112.065 102.711 113.672 110.349C115.682 115.842 114.744 121.47 115.012 127.098C115.012 128.572 114.342 129.778 113.672 130.85C114.074 135.941 116.62 140.765 115.682 146.125C115.414 147.465 116.218 148.939 114.61 150.279C113.003 148.403 111.395 146.661 109.787 144.919C107.777 142.507 106.035 141.971 104.159 145.187C103.087 146.929 102.283 150.145 100.139 149.743C97.7273 149.341 99.4692 145.857 98.2633 144.115C97.1913 142.373 98.1293 140.095 96.7893 138.353C95.4494 138.621 94.2435 139.291 93.1715 140.095C93.0375 140.363 92.9035 140.497 93.0375 140.765C91.0276 142.641 89.5537 140.899 88.0798 139.961C86.0699 137.683 84.194 139.291 82.988 140.497C78.5663 144.651 73.6085 145.187 68.1148 143.579C64.899 142.775 63.827 140.899 65.5689 137.951C66.6409 136.209 66.7749 134.601 65.5689 132.86C64.899 131.922 65.033 130.18 63.425 130.314C62.0851 130.448 61.8171 131.922 61.2811 132.994C60.6112 134.467 60.6112 135.941 61.2811 137.415C61.5491 138.219 61.9511 139.157 62.3531 139.961C64.497 144.115 61.4151 150.145 56.9934 150.949C54.0455 151.485 53.1076 148.269 50.8297 147.465C50.2937 147.063 49.8917 146.527 49.6237 145.857C49.3557 141.971 48.8198 138.219 46.8099 134.601C45.068 131.52 44.398 131.386 42.3881 134.333C41.0482 136.343 40.2442 138.487 39.9762 140.765C39.9762 142.373 40.1102 143.847 38.9043 144.919Z" fill="#E94801"/>
<path d="M93.0381 143.177C94.78 141.971 95.316 142.909 95.852 144.517C96.388 146.393 97.0579 148.269 96.656 150.279C95.718 151.351 94.5121 151.351 93.3061 151.351C83.9266 151.351 74.4131 151.351 65.0335 151.351C63.5596 151.351 61.8177 151.886 61.2817 149.609C64.0956 144.383 66.3735 142.909 71.5992 144.517C75.485 145.723 78.0309 144.517 80.8447 142.105C82.9886 140.229 85.1325 138.219 88.2144 140.095C89.6883 141.167 90.6263 143.579 93.0381 143.177Z" fill="#3D8E65"/>
<path d="M62.0853 148.671C61.4154 151.351 63.5593 150.413 64.6312 150.413C75.3507 150.413 85.9361 150.413 96.6556 150.413C96.6556 151.083 96.6556 151.752 96.7896 152.556C84.0602 152.556 71.3309 152.556 58.6015 152.556C58.4675 150.547 59.6735 149.475 61.0134 148.403C61.4154 148.269 61.8173 148.403 62.0853 148.671Z" fill="#3D4130"/>
<path d="M113.539 130.85C115.548 124.016 114.343 117.182 113.539 110.215C113.941 110.617 114.209 110.885 114.611 111.287C115.816 116.781 115.146 122.408 115.548 128.036C115.146 128.974 114.745 129.912 114.343 130.85C114.075 130.85 113.807 130.85 113.539 130.85Z" fill="#C23703"/>
<path d="M93.0383 143.177C91.1624 144.919 91.1624 144.919 88.2145 141.167C87.6786 140.497 87.5446 139.693 88.3485 139.023C89.8224 139.827 90.7604 141.837 92.9043 140.899C92.9043 141.703 93.0383 142.507 93.0383 143.177Z" fill="#511607"/>
<path d="M93.0383 140.229C93.3063 137.549 94.3783 136.745 96.6562 138.487C96.7901 141.703 95.1822 141.435 93.0383 140.229Z" fill="#26150C"/>
<path d="M47.8819 170.11C48.9539 170.378 51.0978 169.306 51.2318 172.12C51.4998 176.006 48.2839 175.738 46.006 176.14C43.7281 176.542 43.5942 174.8 43.5942 173.192C43.4602 170.512 45.3361 169.976 47.8819 170.11Z" fill="#275766"/>
<path d="M106.035 175.737C103.221 175.871 100.675 175.201 100.675 172.254C100.675 169.574 103.221 170.11 104.963 170.11C107.107 170.11 109.519 170.244 109.653 173.326C109.787 176.407 107.375 175.603 106.035 175.737Z" fill="#295868"/>
<path d="M111.663 88.7759C113.003 89.4458 112.601 90.6518 112.601 91.7237C112.333 91.9917 111.931 92.2597 111.663 92.5277C107.911 94.9396 106.169 93.0637 105.231 89.1779C107.509 89.0439 109.653 88.9099 111.663 88.7759Z" fill="#D9D1CC"/>
<path d="M153.602 108.473C156.416 109.411 156.416 111.822 153.602 114.234C152.262 112.224 152.262 110.349 153.602 108.473Z" fill="#367C5B"/>
<path d="M132.298 94.5378C132.566 94.4038 132.834 94.4038 133.102 94.5378C133.37 95.0737 133.772 95.6097 133.906 96.1457C134.174 97.3516 134.04 98.6915 132.7 98.5575C131.494 98.5575 131.092 97.2176 131.494 96.0117C131.628 95.6097 132.03 95.0737 132.298 94.5378Z" fill="#2C5B41"/>
<path d="M153.871 104.721C154.407 102.041 151.995 98.6912 155.479 96.4133C154.943 99.2272 157.623 102.577 153.871 104.721Z" fill="#448F6D"/>
<path d="M92.9038 111.153C92.5019 107.669 90.224 106.463 86.2042 106.731C80.3085 106.999 74.4128 108.071 68.5171 107.133C64.7653 106.597 60.7455 106.731 56.8597 106.999C51.098 107.401 46.1402 104.855 40.6465 103.917C41.9864 101.505 41.5844 97.3513 46.1402 98.2893C52.1699 100.567 58.6016 100.701 64.8993 101.103C68.7851 101.371 72.6709 101.371 76.4227 100.701C82.1844 99.7632 87.6781 101.505 93.4398 101.639C95.3157 101.639 96.2537 102.845 96.5217 104.453C96.6557 107.401 96.7896 110.349 92.9038 111.153Z" fill="#C53702"/>
<path d="M95.8524 104.855C95.7184 103.783 95.7184 102.577 94.2445 102.443C84.9989 101.773 75.7534 101.505 66.5079 102.041C60.2102 102.443 54.4485 99.6291 48.2848 99.8971C47.3468 99.8971 46.6769 99.0931 46.2749 98.1552C53.1086 100.031 60.0762 100.031 67.0439 99.7631C77.6293 99.3611 88.0808 99.6291 98.6663 99.3611C101.078 99.3611 103.624 99.2271 106.036 98.4232C107.644 97.8872 109.52 97.3512 109.922 100.165C108.716 100.969 107.242 100.701 105.902 100.969C100.542 101.773 100.542 101.773 101.48 106.731C101.48 107.669 101.48 108.607 101.48 109.411C101.748 109.679 101.882 109.947 101.748 110.081C101.614 110.349 101.614 110.483 101.48 110.483C98.5323 109.679 98.5323 105.927 95.8524 104.855Z" fill="#C23703"/>
<path d="M101.345 106.597C100.005 105.659 99.6034 104.051 98.9335 102.711C98.3975 101.639 98.5315 100.165 99.8714 100.299C103.221 100.701 106.437 98.2894 109.787 100.031C112.601 102.845 113.941 106.329 113.539 110.349C113.271 109.813 112.735 109.411 112.601 108.875C112.199 104.855 110.591 103.515 106.571 105.525C105.097 106.329 103.221 106.329 101.345 106.597Z" fill="#C53702"/>
<path d="M50.1601 146.259C50.2941 146.527 50.5621 146.661 50.6961 146.795C51.2321 147.063 51.5 147.599 51.5 148.135C49.0882 151.886 45.4703 149.475 42.5225 149.609C42.2545 149.207 41.8525 148.939 41.5845 148.537C40.2446 144.517 40.2446 140.497 41.5845 136.611C44.2644 133.261 46.2743 133.395 47.7482 137.147C48.8202 140.095 48.6862 143.445 50.1601 146.259Z" fill="#43996B"/>
<path d="M50.1603 146.259C47.0785 145.053 47.3464 142.239 47.3464 139.693C47.3464 137.817 46.6765 135.941 45.0686 135.003C43.9966 134.333 43.1926 135.539 42.6567 136.477C40.7808 139.291 42.1207 142.909 40.5128 145.857C39.9768 145.589 39.4408 145.187 38.9049 144.919C37.8329 139.827 40.2448 135.673 42.6567 131.52C43.4606 130.18 44.8006 129.242 45.8725 130.984C48.8204 135.673 51.6342 140.363 50.1603 146.259Z" fill="#4A321A"/>
<path d="M40.3789 145.857C41.0489 142.775 39.5749 139.157 42.5228 136.477C42.2548 140.497 41.1829 144.517 41.5848 148.671C40.5129 148.001 40.7809 146.795 40.3789 145.857Z" fill="#3A6846"/>
<path d="M42.5225 149.743C45.2023 148.671 48.8201 151.484 50.964 147.733C53.2419 148.001 52.572 149.207 51.902 150.547C49.0881 150.547 46.2743 150.681 43.5944 150.681C43.1924 150.279 42.7904 150.011 42.5225 149.743Z" fill="#3A6846"/>
<path d="M51.9017 150.547C51.9017 149.475 52.0357 148.403 50.9638 147.733C50.8298 147.465 50.8298 147.063 50.6958 146.795C52.0357 146.527 52.9737 147.331 53.7776 148.269C54.7156 149.475 55.6536 151.753 57.6634 149.743C59.5394 147.733 62.7552 146.661 62.7552 143.311C62.7552 142.373 61.6832 141.569 61.1473 140.631C60.7453 139.693 60.4773 138.621 60.0753 137.683C60.3433 137.415 60.7453 137.281 61.1473 137.281C62.8892 137.683 63.6931 136.879 64.2291 135.271C64.6311 134.333 64.8991 133.262 65.971 132.726C68.3829 134.601 67.9809 136.477 66.239 138.621C64.3631 140.899 65.4351 142.373 67.8469 143.177C65.4351 144.785 63.6931 147.197 61.1473 148.805C60.2093 150.145 59.2714 151.351 58.3334 152.691C57.7974 152.959 57.1275 153.361 56.5915 153.629C55.1176 152.423 53.5097 151.485 51.9017 150.547Z" fill="#3D2215"/>
<path d="M89.4192 89.7135C89.1512 92.2594 87.8113 93.3313 86.0694 93.5993C84.0595 93.8673 82.4515 92.7954 82.0496 90.7855C81.6476 88.6416 83.5235 88.7756 84.7294 88.7756C86.3373 88.6416 88.3472 87.8376 89.4192 89.7135Z" fill="#CEC9C2"/>
<path d="M97.4602 88.9099C98.6662 89.3119 100.676 88.106 100.542 90.5178C100.408 92.2597 98.9341 93.5997 97.0582 93.4657C95.4503 93.4657 94.1104 92.1258 94.1104 90.5178C93.9764 87.838 96.2543 89.5799 97.4602 88.9099Z" fill="#E1DAD3"/>
<path d="M77.0923 91.5896C74.4125 93.0636 71.8666 94.4035 70.6606 89.8477C75.3504 87.8378 76.5563 88.1058 77.0923 91.5896Z" fill="#EAE0DB"/>
<path d="M77.0923 91.5897C75.8864 87.4359 72.8045 90.1158 70.6606 89.8478C72.4026 87.0339 75.0824 88.1059 77.2263 88.7758C78.2983 89.1778 78.5662 90.7857 77.0923 91.5897Z" fill="#B0ADA6"/>
<path d="M82.8545 83.1479C82.7205 82.2099 82.5866 81.4059 82.4526 80.468C82.1846 78.3241 83.3905 76.8502 85.1324 76.1802C87.4103 75.2423 88.4823 77.6541 89.9562 78.8601C91.1621 79.932 91.1621 81.138 89.9562 82.2099C87.9463 84.0858 85.2664 83.1479 82.8545 83.1479Z" fill="#CCC8C0"/>
<path d="M94.7799 83.2823C93.172 80.7364 93.7079 78.7265 95.8518 76.8506C97.0578 75.7786 98.2637 75.7786 99.4696 76.8506C101.748 78.7265 101.748 81.0044 100.408 83.2823C98.6657 83.2823 96.7898 83.2823 94.7799 83.2823Z" fill="#C4C2B8"/>
<path d="M106.035 77.7882C107.91 77.3863 109.786 76.0463 111.528 77.7882C113.002 82.88 111.93 83.6839 105.231 82.21C104.695 80.6021 106.169 79.2622 106.035 77.7882Z" fill="#E1E2D7"/>
<path d="M90.0903 82.2098C90.0903 81.1378 90.0903 79.9319 90.0903 78.86C91.2963 76.0461 92.2342 77.654 92.9042 79.128C93.4402 80.4679 92.6362 82.2098 93.8421 83.4157C91.9662 84.7557 90.6263 84.6217 90.0903 82.2098Z" fill="#1F3928"/>
<path d="M105.365 82.2101C108.581 82.3441 112.869 83.818 111.663 77.7883C114.075 78.5923 113.271 80.6022 113.405 82.3441C110.591 83.952 108.045 84.354 105.365 82.2101Z" fill="#A6A59C"/>
<path d="M56.5915 46.9701C55.2516 47.1041 53.7776 46.8361 52.4377 47.2381C50.8298 47.6401 49.6238 47.6401 49.2219 45.7642C48.9539 44.0222 48.8199 42.1463 50.9638 41.4764C58.3334 38.9305 65.837 36.5186 73.2066 34.2407C74.6806 33.8388 76.9585 33.9727 75.3505 36.7866C75.0826 37.3226 75.0826 37.9925 75.2165 38.6625C76.0205 42.6823 74.0106 44.4242 70.3928 45.0942C66.105 47.6401 61.4152 47.774 56.5915 46.9701Z" fill="#977554"/>
<path d="M61.2809 49.7839C63.6928 49.7839 66.3727 47.908 68.5166 50.9899C67.5786 51.5259 66.6407 52.0618 65.7027 52.5978C61.147 57.8235 64.8988 61.7093 67.8466 65.5951C62.6209 68.409 57.3951 65.8631 56.4572 60.1014C56.1892 58.2255 56.4572 56.3496 56.5912 54.4737C57.7971 52.4638 59.405 50.9899 61.2809 49.7839Z" fill="#E8E7E1"/>
<path d="M56.5918 46.9701C61.2816 46.3001 65.8373 45.6302 70.5271 44.9602C70.7951 45.2282 71.0631 45.6302 71.465 45.8982C68.6512 48.846 64.4974 47.1041 61.2816 48.846C58.8697 50.4539 57.9317 47.9081 56.5918 46.9701Z" fill="#24241C"/>
<path d="M127.339 64.657C125.731 68.4088 122.65 66.5329 120.506 65.863C118.094 65.059 116.486 62.7811 116.084 60.3692C115.95 59.1633 117.692 59.4313 118.764 59.2973C120.774 59.1633 121.846 60.3692 122.784 61.8432C124.66 62.3791 126.133 63.3171 127.339 64.657Z" fill="#EFEDE9"/>
<path d="M127.339 64.657C125.061 65.059 123.587 63.8531 122.783 61.8432C122.783 61.1732 122.917 60.5032 122.917 59.6993C123.587 59.4313 124.123 59.2973 124.793 59.0293C126.267 60.7712 128.813 61.0392 130.421 62.7811C130.153 63.3171 129.885 63.8531 129.617 64.389C128.813 64.523 128.143 64.657 127.339 64.657Z" fill="#623227"/>
<path d="M67.8479 65.4609C60.7462 60.9052 60.0763 57.1533 65.704 52.4636C67.3119 52.4636 68.9198 52.3296 70.5277 52.3296C70.5277 52.7316 70.3938 53.1336 70.3938 53.5355C69.8578 54.3395 68.9198 54.6075 68.2499 55.2774C65.704 57.6893 65.972 59.6992 68.9198 61.4411C69.7238 61.8431 70.6617 61.8431 71.3317 62.6471C70.7957 63.183 70.2598 63.853 69.5898 64.389C69.3218 65.1929 68.6518 65.4609 67.8479 65.4609Z" fill="#702E1F"/>
<path d="M71.5988 83.2819C69.3209 80.4681 70.6609 78.4582 73.0727 76.7162C74.9486 75.3763 76.2886 76.4483 77.3605 77.9222C79.3704 80.736 78.2985 83.0139 74.9486 83.2819C73.7427 83.2819 72.6708 83.2819 71.5988 83.2819C71.5988 83.1479 71.5988 83.2819 71.5988 83.2819Z" fill="#D1CEC7"/>
<path d="M130.288 62.9152C127.742 62.7812 125.062 62.6472 124.66 59.1634C126.134 59.1634 127.742 59.0294 129.216 59.1634C130.422 59.1634 132.03 58.4934 132.432 59.9674C133.102 61.4413 131.494 62.1112 130.288 62.9152Z" fill="#B32909"/>
<path d="M71.3305 62.6474C67.8466 63.3174 65.3008 61.7094 65.0328 58.3596C64.7648 55.1438 67.1767 53.5358 70.3925 53.4019C71.3305 54.0718 72.4024 54.7418 73.3404 55.2778C75.4843 58.6276 73.0724 60.5035 71.3305 62.6474Z" fill="#CF3105"/>
<path d="M95.8516 104.855C100.273 104.051 99.4694 108.607 101.479 110.349C103.757 113.163 103.221 115.976 101.345 118.79C100.943 119.46 100.809 120.264 100.273 120.8C99.4694 121.872 99.4694 123.748 97.8615 123.748C96.1195 123.748 95.4496 122.006 94.9136 120.666C93.9756 117.584 89.0179 115.306 92.9037 111.287C94.9136 109.545 95.5836 107.267 95.8516 104.855Z" fill="#44270F"/>
<path d="M61.2817 148.537C63.2916 146.393 64.7656 143.579 67.9814 142.909C74.1451 144.517 79.3708 142.909 83.9266 138.621C85.5345 137.148 87.1424 136.88 88.4824 139.157C88.4824 139.827 88.4824 140.631 88.3484 141.301C85.6685 139.291 83.6586 141.033 81.7827 142.775C78.7009 145.723 75.351 147.599 70.9293 145.589C66.7755 143.579 64.6316 146.795 62.0857 148.805C61.8177 148.671 61.5497 148.537 61.2817 148.537Z" fill="#38341F"/>
<path d="M52.1696 114.77C54.5815 118.522 54.1795 123.346 51.2317 126.16C50.1597 127.232 49.0878 127.232 48.0158 126.16C45.068 123.212 44.666 118.522 47.0779 114.77C47.2119 114.904 47.4799 115.038 47.6138 115.172C48.4178 117.718 46.5419 120.8 49.6237 122.81C52.4376 121.068 51.3657 118.254 51.3657 115.708C51.4997 115.306 51.7676 115.038 52.1696 114.77Z" fill="#8B2E09"/>
<path d="M66.1055 132.457C65.9715 133.529 66.2395 134.735 65.1675 135.539C62.3537 132.993 62.6217 137.013 61.2817 137.415C60.8797 137.415 60.4778 137.415 60.2098 137.415C58.1999 133.797 60.3438 130.715 62.4877 128.973C64.7655 127.366 65.5695 130.581 66.1055 132.457Z" fill="#31321F"/>
<path d="M47.0784 114.905C47.3464 113.297 47.6143 111.421 49.8922 111.555C51.9021 111.689 51.9021 113.565 52.3041 114.905C52.1701 115.039 52.0361 115.173 51.9021 115.173C50.4282 115.039 49.0883 114.905 47.6143 115.173C47.3464 115.039 47.2124 114.905 47.0784 114.905Z" fill="#8B2E09"/>
<path d="M101.346 118.79C102.418 115.976 103.356 113.162 101.48 110.349C101.48 110.081 101.48 109.679 101.48 109.411C104.16 112.492 104.428 115.708 101.346 118.79Z" fill="#C53702"/>
<path d="M61.2817 137.415C61.4157 136.611 61.2817 135.807 61.5497 135.137C62.0857 134.065 61.6837 132.189 63.2916 132.323C65.0335 132.457 64.8996 134.199 65.1675 135.539C64.0956 136.879 64.6316 141.301 61.2817 137.415Z" fill="#357D58"/>
<path d="M100.675 114.503C100.005 116.513 100.139 119.996 97.7275 119.996C95.0476 119.996 94.2437 116.513 94.2437 114.235C94.2437 112.225 95.1816 108.875 97.5935 108.875C100.139 109.009 100.273 112.091 100.675 114.503Z" fill="#3A6C4A"/>
<path d="M47.4806 115.172C48.9545 112.627 50.2945 112.493 51.7684 115.172C53.9123 118.656 52.5723 121.738 50.5624 124.686C50.0265 125.49 49.0885 125.49 48.5525 124.686C46.6766 121.738 45.3367 118.656 47.4806 115.172Z" fill="#293D29"/>
<path d="M49.6248 116.512C51.0987 116.378 51.0987 117.45 51.0987 118.388C51.0987 119.594 51.5007 121.068 49.8928 121.47C48.6869 121.738 48.4189 120.666 48.2849 119.728C48.1509 118.254 48.1509 117.048 49.6248 116.512Z" fill="#3C8A61"/>
</g>
<defs>
<clipPath id="clip0">
<rect width="184.844" height="185.638" fill="white" transform="translate(0.643555 0.966309)"/>
</clipPath>
</defs>
</svg>
